<?xml version="1.0" encoding="utf-8" ?>
<svg baseProfile="full" height="1140px" style="font-size:15;font-family:Arial, san-serif;font-weight:bold;stroke:black;stroke-width:0;fill:#444444" version="1.1" width="1140px" xmlns="http://www.w3.org/2000/svg" xmlns:ev="http://www.w3.org/2001/xml-events" xmlns:xlink="http://www.w3.org/1999/xlink"><defs><clipPath id="areadografico"><rect height="1000" width="1000" x="70" y="70" /></clipPath></defs><g class="master"><g class="poligonos"><polygon clip-path="url(#areadografico)" fill="#000000" fill-opacity="0.1" points="1069,1070 1069,672 672,1070" /><polygon clip-path="url(#areadografico)" fill="#ffffff" fill-opacity="0.1" points="672,1070 273,1070 1069,273 1069,672" /><polygon clip-path="url(#areadografico)" fill="#000000" fill-opacity="0.1" points="273,1070 -126,1070 1069,-126 1069,273" /><polygon clip-path="url(#areadografico)" fill="#ffffff" fill-opacity="0.1" points="-126,1070 -524,1070 1069,-524 1069,-126" /><polygon clip-path="url(#areadografico)" fill="#000000" fill-opacity="0.1" points="70,70 70,475 475,70" /></g><g class="linhas"><line fill-opacity="0.3" stroke="#999999" stroke-width="1" x1="1070" x2="1070" y1="1070" y2="70" /><line fill-opacity="0.3" stroke="#999999" stroke-width="1" x1="70" x2="1070" y1="70" y2="70" /><line fill-opacity="0.3" stroke="#999999" stroke-width="1" x1="970" x2="970" y1="1070" y2="70" /><line fill-opacity="0.3" stroke="#999999" stroke-width="1" x1="70" x2="1070" y1="170" y2="170" /><line fill-opacity="0.3" stroke="#999999" stroke-width="1" x1="870" x2="870" y1="1070" y2="70" /><line fill-opacity="0.3" stroke="#999999" stroke-width="1" x1="70" x2="1070" y1="270" y2="270" /><line fill-opacity="0.3" stroke="#999999" stroke-width="1" x1="770" x2="770" y1="1070" y2="70" /><line fill-opacity="0.3" stroke="#999999" stroke-width="1" x1="70" x2="1070" y1="370" y2="370" /><line fill-opacity="0.3" stroke="#999999" stroke-width="1" x1="670" x2="670" y1="1070" y2="70" /><line fill-opacity="0.3" stroke="#999999" stroke-width="1" x1="70" x2="1070" y1="470" y2="470" /><line fill-opacity="0.3" stroke="#999999" stroke-width="1" x1="570" x2="570" y1="1070" y2="70" /><line fill-opacity="0.3" stroke="#999999" stroke-width="1" x1="70" x2="1070" y1="570" y2="570" /><line fill-opacity="0.3" stroke="#999999" stroke-width="1" x1="470" x2="470" y1="1070" y2="70" /><line fill-opacity="0.3" stroke="#999999" stroke-width="1" x1="70" x2="1070" y1="670" y2="670" /><line fill-opacity="0.3" stroke="#999999" stroke-width="1" x1="370" x2="370" y1="1070" y2="70" /><line fill-opacity="0.3" stroke="#999999" stroke-width="1" x1="70" x2="1070" y1="770" y2="770" /><line fill-opacity="0.3" stroke="#999999" stroke-width="1" x1="270" x2="270" y1="1070" y2="70" /><line fill-opacity="0.3" stroke="#999999" stroke-width="1" x1="70" x2="1070" y1="870" y2="870" /><line fill-opacity="0.3" stroke="#999999" stroke-width="1" x1="170" x2="170" y1="1070" y2="70" /><line fill-opacity="0.3" stroke="#999999" stroke-width="1" x1="70" x2="1070" y1="970" y2="970" /><line fill-opacity="0.3" stroke="#000000" stroke-width="1" x1="70" x2="70" y1="1071" y2="69" /><line fill-opacity="0.3" stroke="#000000" stroke-width="1" x1="69" x2="1071" y1="1070" y2="1070" /></g><g class="textos"><text x="1050" y="1110">1000</text><text x="10" y="71">1000</text><text x="950" y="1110">900</text><text x="10" y="171">900</text><text x="850" y="1110">800</text><text x="10" y="271">800</text><text x="750" y="1110">700</text><text x="10" y="371">700</text><text x="650" y="1110">600</text><text x="10" y="471">600</text><text x="550" y="1110">500</text><text x="10" y="571">500</text><text x="450" y="1110">400</text><text x="10" y="671">400</text><text x="350" y="1110">300</text><text x="10" y="771">300</text><text x="250" y="1110">200</text><text x="10" y="871">200</text><text x="150" y="1110">100</text><text x="10" y="971">100</text><text x="50" y="1111">0</text><text x="9" y="1071">0</text></g><g class="especies"><g class="e0"><circle cx="819" cy="999" fill="#3cb44B" r="3.5" stroke-width="0" /><circle cx="794" cy="972" fill="#3cb44B" r="3.5" stroke-width="0" /><circle cx="818" cy="962" fill="#3cb44B" r="3.5" stroke-width="0" /><circle cx="838" cy="956" fill="#3cb44B" r="3.5" stroke-width="0" /><circle cx="833" cy="945" fill="#3cb44B" r="3.5" stroke-width="0" /><circle cx="845" cy="911" fill="#3cb44B" r="3.5" stroke-width="0" /><circle cx="888" cy="867" fill="#3cb44B" r="3.5" stroke-width="0" /></g><g class="e1"><circle cx="814" cy="926" fill="#ff0000" r="3.5" stroke-width="0" /><circle cx="831" cy="875" fill="#ff0000" r="3.5" stroke-width="0" /><circle cx="801" cy="850" fill="#ff0000" r="3.5" stroke-width="0" /><circle cx="855" cy="844" fill="#ff0000" r="3.5" stroke-width="0" /><circle cx="812" cy="828" fill="#ff0000" r="3.5" stroke-width="0" /><circle cx="790" cy="827" fill="#ff0000" r="3.5" stroke-width="0" /><circle cx="833" cy="801" fill="#ff0000" r="3.5" stroke-width="0" /><circle cx="817" cy="800" fill="#ff0000" r="3.5" stroke-width="0" /><circle cx="800" cy="787" fill="#ff0000" r="3.5" stroke-width="0" /><circle cx="804" cy="780" fill="#ff0000" r="3.5" stroke-width="0" /><circle cx="785" cy="742" fill="#ff0000" r="3.5" stroke-width="0" /><circle cx="837" cy="741" fill="#ff0000" r="3.5" stroke-width="0" /><circle cx="808" cy="728" fill="#ff0000" r="3.5" stroke-width="0" /><circle cx="839" cy="720" fill="#ff0000" r="3.5" stroke-width="0" /><circle cx="771" cy="718" fill="#ff0000" r="3.5" stroke-width="0" /><circle cx="810" cy="715" fill="#ff0000" r="3.5" stroke-width="0" /><circle cx="814" cy="714" fill="#ff0000" r="3.5" stroke-width="0" /><circle cx="800" cy="710" fill="#ff0000" r="3.5" stroke-width="0" /><circle cx="815" cy="692" fill="#ff0000" r="3.5" stroke-width="0" /><circle cx="846" cy="691" fill="#ff0000" r="3.5" stroke-width="0" /><circle cx="791" cy="683" fill="#ff0000" r="3.5" stroke-width="0" /><circle cx="821" cy="681" fill="#ff0000" r="3.5" stroke-width="0" /><circle cx="811" cy="678" fill="#ff0000" r="3.5" stroke-width="0" /><circle cx="835" cy="674" fill="#ff0000" r="3.5" stroke-width="0" /><circle cx="750" cy="670" fill="#ff0000" r="3.5" stroke-width="0" /><circle cx="818" cy="665" fill="#ff0000" r="3.5" stroke-width="0" /><circle cx="792" cy="656" fill="#ff0000" r="3.5" stroke-width="0" /><circle cx="833" cy="655" fill="#ff0000" r="3.5" stroke-width="0" /><circle cx="832" cy="643" fill="#ff0000" r="3.5" stroke-width="0" /><circle cx="834" cy="622" fill="#ff0000" r="3.5" stroke-width="0" /><circle cx="820" cy="609" fill="#ff0000" r="3.5" stroke-width="0" /><circle cx="817" cy="608" fill="#ff0000" r="3.5" stroke-width="0" /><circle cx="792" cy="605" fill="#ff0000" r="3.5" stroke-width="0" /><circle cx="818" cy="602" fill="#ff0000" r="3.5" stroke-width="0" /><circle cx="783" cy="586" fill="#ff0000" r="3.5" stroke-width="0" /><circle cx="798" cy="577" fill="#ff0000" r="3.5" stroke-width="0" /><circle cx="800" cy="572" fill="#ff0000" r="3.5" stroke-width="0" /><circle cx="812" cy="570" fill="#ff0000" r="3.5" stroke-width="0" /><circle cx="860" cy="566" fill="#ff0000" r="3.5" stroke-width="0" /><circle cx="835" cy="547" fill="#ff0000" r="3.5" stroke-width="0" /><circle cx="828" cy="546" fill="#ff0000" r="3.5" stroke-width="0" /><circle cx="896" cy="541" fill="#ff0000" r="3.5" stroke-width="0" /><circle cx="831" cy="525" fill="#ff0000" r="3.5" stroke-width="0" /><circle cx="880" cy="512" fill="#ff0000" r="3.5" stroke-width="0" /><circle cx="845" cy="507" fill="#ff0000" r="3.5" stroke-width="0" /><circle cx="865" cy="500" fill="#ff0000" r="3.5" stroke-width="0" /></g><g class="e2"><circle cx="259" cy="1024" fill="#2b92db" r="3.5" stroke-width="0" /><circle cx="324" cy="999" fill="#2b92db" r="3.5" stroke-width="0" /><circle cx="311" cy="990" fill="#2b92db" r="3.5" stroke-width="0" /><circle cx="328" cy="956" fill="#2b92db" r="3.5" stroke-width="0" /><circle cx="253" cy="945" fill="#2b92db" r="3.5" stroke-width="0" /><circle cx="268" cy="893" fill="#2b92db" r="3.5" stroke-width="0" /><circle cx="331" cy="893" fill="#2b92db" r="3.5" stroke-width="0" /><circle cx="310" cy="839" fill="#2b92db" r="3.5" stroke-width="0" /><circle cx="276" cy="838" fill="#2b92db" r="3.5" stroke-width="0" /><circle cx="343" cy="835" fill="#2b92db" r="3.5" stroke-width="0" /><circle cx="332" cy="813" fill="#2b92db" r="3.5" stroke-width="0" /><circle cx="305" cy="793" fill="#2b92db" r="3.5" stroke-width="0" /><circle cx="277" cy="791" fill="#2b92db" r="3.5" stroke-width="0" /><circle cx="358" cy="782" fill="#2b92db" r="3.5" stroke-width="0" /><circle cx="349" cy="750" fill="#2b92db" r="3.5" stroke-width="0" /><circle cx="339" cy="744" fill="#2b92db" r="3.5" stroke-width="0" /><circle cx="326" cy="735" fill="#2b92db" r="3.5" stroke-width="0" /><circle cx="343" cy="731" fill="#2b92db" r="3.5" stroke-width="0" /><circle cx="265" cy="721" fill="#2b92db" r="3.5" stroke-width="0" /><circle cx="304" cy="710" fill="#2b92db" r="3.5" stroke-width="0" /><circle cx="307" cy="706" fill="#2b92db" r="3.5" stroke-width="0" /><circle cx="330" cy="706" fill="#2b92db" r="3.5" stroke-width="0" /><circle cx="354" cy="693" fill="#2b92db" r="3.5" stroke-width="0" /><circle cx="322" cy="670" fill="#2b92db" r="3.5" stroke-width="0" /><circle cx="324" cy="642" fill="#2b92db" r="3.5" stroke-width="0" /><circle cx="392" cy="590" fill="#2b92db" r="3.5" stroke-width="0" /><circle cx="785" cy="530" fill="#2b92db" r="3.5" stroke-width="0" /><circle cx="775" cy="514" fill="#2b92db" r="3.5" stroke-width="0" /><circle cx="765" cy="512" fill="#2b92db" r="3.5" stroke-width="0" /><circle cx="814" cy="507" fill="#2b92db" r="3.5" stroke-width="0" /><circle cx="802" cy="500" fill="#2b92db" r="3.5" stroke-width="0" /><circle cx="824" cy="491" fill="#2b92db" r="3.5" stroke-width="0" /><circle cx="845" cy="483" fill="#2b92db" r="3.5" stroke-width="0" /><circle cx="808" cy="477" fill="#2b92db" r="3.5" stroke-width="0" /><circle cx="849" cy="477" fill="#2b92db" r="3.5" stroke-width="0" /><circle cx="817" cy="471" fill="#2b92db" r="3.5" stroke-width="0" /><circle cx="829" cy="462" fill="#2b92db" r="3.5" stroke-width="0" /><circle cx="847" cy="453" fill="#2b92db" r="3.5" stroke-width="0" /><circle cx="865" cy="453" fill="#2b92db" r="3.5" stroke-width="0" /><circle cx="861" cy="446" fill="#2b92db" r="3.5" stroke-width="0" /><circle cx="828" cy="439" fill="#2b92db" r="3.5" stroke-width="0" /><circle cx="827" cy="418" fill="#2b92db" r="3.5" stroke-width="0" /><circle cx="840" cy="412" fill="#2b92db" r="3.5" stroke-width="0" /><circle cx="848" cy="403" fill="#2b92db" r="3.5" stroke-width="0" /><circle cx="863" cy="399" fill="#2b92db" r="3.5" stroke-width="0" /><circle cx="770" cy="386" fill="#2b92db" r="3.5" stroke-width="0" /><circle cx="865" cy="377" fill="#2b92db" r="3.5" stroke-width="0" /><circle cx="805" cy="357" fill="#2b92db" r="3.5" stroke-width="0" /><circle cx="867" cy="352" fill="#2b92db" r="3.5" stroke-width="0" /><circle cx="767" cy="342" fill="#2b92db" r="3.5" stroke-width="0" /><circle cx="765" cy="339" fill="#2b92db" r="3.5" stroke-width="0" /><circle cx="801" cy="335" fill="#2b92db" r="3.5" stroke-width="0" /><circle cx="845" cy="332" fill="#2b92db" r="3.5" stroke-width="0" /><circle cx="807" cy="331" fill="#2b92db" r="3.5" stroke-width="0" /><circle cx="796" cy="329" fill="#2b92db" r="3.5" stroke-width="0" /><circle cx="763" cy="319" fill="#2b92db" r="3.5" stroke-width="0" /><circle cx="856" cy="319" fill="#2b92db" r="3.5" stroke-width="0" /><circle cx="868" cy="305" fill="#2b92db" r="3.5" stroke-width="0" /><circle cx="834" cy="302" fill="#2b92db" r="3.5" stroke-width="0" /><circle cx="861" cy="302" fill="#2b92db" r="3.5" stroke-width="0" /><circle cx="834" cy="274" fill="#2b92db" r="3.5" stroke-width="0" /><circle cx="786" cy="246" fill="#2b92db" r="3.5" stroke-width="0" /><circle cx="804" cy="233" fill="#2b92db" r="3.5" stroke-width="0" /><circle cx="848" cy="212" fill="#2b92db" r="3.5" stroke-width="0" /><circle cx="806" cy="200" fill="#2b92db" r="3.5" stroke-width="0" /><circle cx="866" cy="171" fill="#2b92db" r="3.5" stroke-width="0" /></g><g class="e3"><circle cx="272" cy="652" fill="#911eb4" r="3.5" stroke-width="0" /><circle cx="310" cy="622" fill="#911eb4" r="3.5" stroke-width="0" /><circle cx="288" cy="621" fill="#911eb4" r="3.5" stroke-width="0" /><circle cx="288" cy="602" fill="#911eb4" r="3.5" stroke-width="0" /><circle cx="263" cy="596" fill="#911eb4" r="3.5" stroke-width="0" /><circle cx="352" cy="587" fill="#911eb4" r="3.5" stroke-width="0" /><circle cx="331" cy="573" fill="#911eb4" r="3.5" stroke-width="0" /><circle cx="305" cy="555" fill="#911eb4" r="3.5" stroke-width="0" /><circle cx="368" cy="552" fill="#911eb4" r="3.5" stroke-width="0" /><circle cx="367" cy="549" fill="#911eb4" r="3.5" stroke-width="0" /><circle cx="313" cy="542" fill="#911eb4" r="3.5" stroke-width="0" /><circle cx="344" cy="542" fill="#911eb4" r="3.5" stroke-width="0" /><circle cx="330" cy="537" fill="#911eb4" r="3.5" stroke-width="0" /><circle cx="391" cy="534" fill="#911eb4" r="3.5" stroke-width="0" /><circle cx="352" cy="530" fill="#911eb4" r="3.5" stroke-width="0" /><circle cx="331" cy="529" fill="#911eb4" r="3.5" stroke-width="0" /><circle cx="289" cy="511" fill="#911eb4" r="3.5" stroke-width="0" /><circle cx="331" cy="510" fill="#911eb4" r="3.5" stroke-width="0" /><circle cx="275" cy="503" fill="#911eb4" r="3.5" stroke-width="0" /><circle cx="305" cy="500" fill="#911eb4" r="3.5" stroke-width="0" /><circle cx="361" cy="499" fill="#911eb4" r="3.5" stroke-width="0" /><circle cx="315" cy="497" fill="#911eb4" r="3.5" stroke-width="0" /><circle cx="328" cy="497" fill="#911eb4" r="3.5" stroke-width="0" /><circle cx="347" cy="492" fill="#911eb4" r="3.5" stroke-width="0" /><circle cx="328" cy="491" fill="#911eb4" r="3.5" stroke-width="0" /><circle cx="384" cy="477" fill="#911eb4" r="3.5" stroke-width="0" /><circle cx="353" cy="469" fill="#911eb4" r="3.5" stroke-width="0" /><circle cx="298" cy="465" fill="#911eb4" r="3.5" stroke-width="0" /><circle cx="314" cy="463" fill="#911eb4" r="3.5" stroke-width="0" /><circle cx="348" cy="463" fill="#911eb4" r="3.5" stroke-width="0" /><circle cx="358" cy="461" fill="#911eb4" r="3.5" stroke-width="0" /><circle cx="346" cy="438" fill="#911eb4" r="3.5" stroke-width="0" /><circle cx="358" cy="432" fill="#911eb4" r="3.5" stroke-width="0" /><circle cx="323" cy="426" fill="#911eb4" r="3.5" stroke-width="0" /><circle cx="289" cy="423" fill="#911eb4" r="3.5" stroke-width="0" /><circle cx="283" cy="418" fill="#911eb4" r="3.5" stroke-width="0" /><circle cx="294" cy="415" fill="#911eb4" r="3.5" stroke-width="0" /><circle cx="285" cy="414" fill="#911eb4" r="3.5" stroke-width="0" /><circle cx="343" cy="410" fill="#911eb4" r="3.5" stroke-width="0" /><circle cx="341" cy="408" fill="#911eb4" r="3.5" stroke-width="0" /><circle cx="327" cy="398" fill="#911eb4" r="3.5" stroke-width="0" /><circle cx="265" cy="393" fill="#911eb4" r="3.5" stroke-width="0" /><circle cx="316" cy="388" fill="#911eb4" r="3.5" stroke-width="0" /><circle cx="300" cy="380" fill="#911eb4" r="3.5" stroke-width="0" /><circle cx="297" cy="375" fill="#911eb4" r="3.5" stroke-width="0" /><circle cx="333" cy="375" fill="#911eb4" r="3.5" stroke-width="0" /><circle cx="254" cy="366" fill="#911eb4" r="3.5" stroke-width="0" /><circle cx="298" cy="364" fill="#911eb4" r="3.5" stroke-width="0" /><circle cx="322" cy="353" fill="#911eb4" r="3.5" stroke-width="0" /><circle cx="274" cy="348" fill="#911eb4" r="3.5" stroke-width="0" /><circle cx="310" cy="347" fill="#911eb4" r="3.5" stroke-width="0" /><circle cx="319" cy="344" fill="#911eb4" r="3.5" stroke-width="0" /><circle cx="308" cy="337" fill="#911eb4" r="3.5" stroke-width="0" /><circle cx="338" cy="325" fill="#911eb4" r="3.5" stroke-width="0" /><circle cx="312" cy="303" fill="#911eb4" r="3.5" stroke-width="0" /><circle cx="383" cy="280" fill="#911eb4" r="3.5" stroke-width="0" /><circle cx="278" cy="277" fill="#911eb4" r="3.5" stroke-width="0" /><circle cx="312" cy="260" fill="#911eb4" r="3.5" stroke-width="0" /><circle cx="329" cy="222" fill="#911eb4" r="3.5" stroke-width="0" /><circle cx="830" cy="76" fill="#911eb4" r="3.5" stroke-width="0" /></g><g class="e4"><circle cx="280" cy="195" fill="#3cb44B" r="3.5" stroke-width="0" /><circle cx="347" cy="192" fill="#3cb44B" r="3.5" stroke-width="0" /><circle cx="322" cy="153" fill="#3cb44B" r="3.5" stroke-width="0" /><circle cx="335" cy="140" fill="#3cb44B" r="3.5" stroke-width="0" /><circle cx="338" cy="130" fill="#3cb44B" r="3.5" stroke-width="0" /><circle cx="265" cy="114" fill="#3cb44B" r="3.5" stroke-width="0" /><circle cx="317" cy="78" fill="#3cb44B" r="3.5" stroke-width="0" /></g></g></g></svg>