<?xml version="1.0" encoding="utf-8" ?>
<svg baseProfile="full" height="1140px" style="font-size:15;font-family:Arial, san-serif;font-weight:bold;stroke:black;stroke-width:0;fill:#444444" version="1.1" width="1140px" xmlns="http://www.w3.org/2000/svg" xmlns:ev="http://www.w3.org/2001/xml-events" xmlns:xlink="http://www.w3.org/1999/xlink"><defs><clipPath id="areadografico"><rect height="1000" width="1000" x="70" y="70" /></clipPath></defs><g class="master"><g class="poligonos"><polygon clip-path="url(#areadografico)" fill="#000000" fill-opacity="0.1" points="1069,1070 1069,849 849,1070" /><polygon clip-path="url(#areadografico)" fill="#ffffff" fill-opacity="0.1" points="849,1070 627,1070 1069,627 1069,849" /><polygon clip-path="url(#areadografico)" fill="#000000" fill-opacity="0.1" points="627,1070 405,1070 1069,405 1069,627" /><polygon clip-path="url(#areadografico)" fill="#ffffff" fill-opacity="0.1" points="405,1070 183,1070 1069,183 1069,405" /><polygon clip-path="url(#areadografico)" fill="#000000" fill-opacity="0.1" points="183,1070 -39,1070 1069,-39 1069,183" /><polygon clip-path="url(#areadografico)" fill="#ffffff" fill-opacity="0.1" points="-39,1070 -261,1070 1069,-261 1069,-39" /><polygon clip-path="url(#areadografico)" fill="#000000" fill-opacity="0.1" points="-261,1070 -483,1070 1069,-483 1069,-261" /><polygon clip-path="url(#areadografico)" fill="#ffffff" fill-opacity="0.1" points="-483,1070 -705,1070 1069,-705 1069,-483" /><polygon clip-path="url(#areadografico)" fill="#000000" fill-opacity="0.1" points="70,70 70,294 294,70" /></g><g class="linhas"><line fill-opacity="0.3" stroke="#999999" stroke-width="1" x1="1070" x2="1070" y1="1070" y2="70" /><line fill-opacity="0.3" stroke="#999999" stroke-width="1" x1="70" x2="1070" y1="70" y2="70" /><line fill-opacity="0.3" stroke="#999999" stroke-width="1" x1="970" x2="970" y1="1070" y2="70" /><line fill-opacity="0.3" stroke="#999999" stroke-width="1" x1="70" x2="1070" y1="170" y2="170" /><line fill-opacity="0.3" stroke="#999999" stroke-width="1" x1="870" x2="870" y1="1070" y2="70" /><line fill-opacity="0.3" stroke="#999999" stroke-width="1" x1="70" x2="1070" y1="270" y2="270" /><line fill-opacity="0.3" stroke="#999999" stroke-width="1" x1="770" x2="770" y1="1070" y2="70" /><line fill-opacity="0.3" stroke="#999999" stroke-width="1" x1="70" x2="1070" y1="370" y2="370" /><line fill-opacity="0.3" stroke="#999999" stroke-width="1" x1="670" x2="670" y1="1070" y2="70" /><line fill-opacity="0.3" stroke="#999999" stroke-width="1" x1="70" x2="1070" y1="470" y2="470" /><line fill-opacity="0.3" stroke="#999999" stroke-width="1" x1="570" x2="570" y1="1070" y2="70" /><line fill-opacity="0.3" stroke="#999999" stroke-width="1" x1="70" x2="1070" y1="570" y2="570" /><line fill-opacity="0.3" stroke="#999999" stroke-width="1" x1="470" x2="470" y1="1070" y2="70" /><line fill-opacity="0.3" stroke="#999999" stroke-width="1" x1="70" x2="1070" y1="670" y2="670" /><line fill-opacity="0.3" stroke="#999999" stroke-width="1" x1="370" x2="370" y1="1070" y2="70" /><line fill-opacity="0.3" stroke="#999999" stroke-width="1" x1="70" x2="1070" y1="770" y2="770" /><line fill-opacity="0.3" stroke="#999999" stroke-width="1" x1="270" x2="270" y1="1070" y2="70" /><line fill-opacity="0.3" stroke="#999999" stroke-width="1" x1="70" x2="1070" y1="870" y2="870" /><line fill-opacity="0.3" stroke="#999999" stroke-width="1" x1="170" x2="170" y1="1070" y2="70" /><line fill-opacity="0.3" stroke="#999999" stroke-width="1" x1="70" x2="1070" y1="970" y2="970" /><line fill-opacity="0.3" stroke="#000000" stroke-width="1" x1="70" x2="70" y1="1071" y2="69" /><line fill-opacity="0.3" stroke="#000000" stroke-width="1" x1="69" x2="1071" y1="1070" y2="1070" /></g><g class="textos"><text x="1050" y="1110">1000</text><text x="10" y="71">1000</text><text x="950" y="1110">900</text><text x="10" y="171">900</text><text x="850" y="1110">800</text><text x="10" y="271">800</text><text x="750" y="1110">700</text><text x="10" y="371">700</text><text x="650" y="1110">600</text><text x="10" y="471">600</text><text x="550" y="1110">500</text><text x="10" y="571">500</text><text x="450" y="1110">400</text><text x="10" y="671">400</text><text x="350" y="1110">300</text><text x="10" y="771">300</text><text x="250" y="1110">200</text><text x="10" y="871">200</text><text x="150" y="1110">100</text><text x="10" y="971">100</text><text x="50" y="1111">0</text><text x="9" y="1071">0</text></g><g class="especies"><g class="e0"><circle cx="1021" cy="1063" fill="#3cb44B" r="3.5" stroke-width="0" /><circle cx="903" cy="1048" fill="#3cb44B" r="3.5" stroke-width="0" /><circle cx="982" cy="1032" fill="#3cb44B" r="3.5" stroke-width="0" /><circle cx="937" cy="1029" fill="#3cb44B" r="3.5" stroke-width="0" /><circle cx="896" cy="1024" fill="#3cb44B" r="3.5" stroke-width="0" /><circle cx="1001" cy="928" fill="#3cb44B" r="3.5" stroke-width="0" /><circle cx="1022" cy="916" fill="#3cb44B" r="3.5" stroke-width="0" /></g><g class="e1"><circle cx="751" cy="1070" fill="#ff0000" r="3.5" stroke-width="0" /><circle cx="659" cy="1069" fill="#ff0000" r="3.5" stroke-width="0" /><circle cx="837" cy="1065" fill="#ff0000" r="3.5" stroke-width="0" /><circle cx="815" cy="1053" fill="#ff0000" r="3.5" stroke-width="0" /><circle cx="876" cy="1038" fill="#ff0000" r="3.5" stroke-width="0" /><circle cx="810" cy="1037" fill="#ff0000" r="3.5" stroke-width="0" /><circle cx="820" cy="1036" fill="#ff0000" r="3.5" stroke-width="0" /><circle cx="801" cy="1018" fill="#ff0000" r="3.5" stroke-width="0" /><circle cx="720" cy="1002" fill="#ff0000" r="3.5" stroke-width="0" /><circle cx="794" cy="965" fill="#ff0000" r="3.5" stroke-width="0" /><circle cx="913" cy="944" fill="#ff0000" r="3.5" stroke-width="0" /><circle cx="979" cy="918" fill="#ff0000" r="3.5" stroke-width="0" /><circle cx="941" cy="866" fill="#ff0000" r="3.5" stroke-width="0" /><circle cx="862" cy="864" fill="#ff0000" r="3.5" stroke-width="0" /><circle cx="954" cy="863" fill="#ff0000" r="3.5" stroke-width="0" /><circle cx="1018" cy="858" fill="#ff0000" r="3.5" stroke-width="0" /><circle cx="886" cy="857" fill="#ff0000" r="3.5" stroke-width="0" /><circle cx="1019" cy="828" fill="#ff0000" r="3.5" stroke-width="0" /><circle cx="1058" cy="755" fill="#ff0000" r="3.5" stroke-width="0" /><circle cx="1064" cy="710" fill="#ff0000" r="3.5" stroke-width="0" /><circle cx="1041" cy="708" fill="#ff0000" r="3.5" stroke-width="0" /><circle cx="1024" cy="705" fill="#ff0000" r="3.5" stroke-width="0" /></g><g class="e2"><circle cx="423" cy="1067" fill="#2b92db" r="3.5" stroke-width="0" /><circle cx="486" cy="1059" fill="#2b92db" r="3.5" stroke-width="0" /><circle cx="482" cy="1049" fill="#2b92db" r="3.5" stroke-width="0" /><circle cx="523" cy="1010" fill="#2b92db" r="3.5" stroke-width="0" /><circle cx="655" cy="974" fill="#2b92db" r="3.5" stroke-width="0" /><circle cx="576" cy="966" fill="#2b92db" r="3.5" stroke-width="0" /><circle cx="686" cy="962" fill="#2b92db" r="3.5" stroke-width="0" /><circle cx="704" cy="915" fill="#2b92db" r="3.5" stroke-width="0" /><circle cx="625" cy="889" fill="#2b92db" r="3.5" stroke-width="0" /><circle cx="721" cy="886" fill="#2b92db" r="3.5" stroke-width="0" /><circle cx="619" cy="882" fill="#2b92db" r="3.5" stroke-width="0" /><circle cx="687" cy="838" fill="#2b92db" r="3.5" stroke-width="0" /><circle cx="764" cy="812" fill="#2b92db" r="3.5" stroke-width="0" /><circle cx="719" cy="791" fill="#2b92db" r="3.5" stroke-width="0" /><circle cx="707" cy="771" fill="#2b92db" r="3.5" stroke-width="0" /><circle cx="943" cy="735" fill="#2b92db" r="3.5" stroke-width="0" /><circle cx="962" cy="715" fill="#2b92db" r="3.5" stroke-width="0" /><circle cx="944" cy="682" fill="#2b92db" r="3.5" stroke-width="0" /><circle cx="923" cy="632" fill="#2b92db" r="3.5" stroke-width="0" /><circle cx="1049" cy="619" fill="#2b92db" r="3.5" stroke-width="0" /><circle cx="965" cy="539" fill="#2b92db" r="3.5" stroke-width="0" /><circle cx="1034" cy="468" fill="#2b92db" r="3.5" stroke-width="0" /></g><g class="e3"><circle cx="308" cy="1066" fill="#911eb4" r="3.5" stroke-width="0" /><circle cx="346" cy="967" fill="#911eb4" r="3.5" stroke-width="0" /><circle cx="474" cy="920" fill="#911eb4" r="3.5" stroke-width="0" /><circle cx="479" cy="917" fill="#911eb4" r="3.5" stroke-width="0" /><circle cx="432" cy="910" fill="#911eb4" r="3.5" stroke-width="0" /><circle cx="401" cy="898" fill="#911eb4" r="3.5" stroke-width="0" /><circle cx="579" cy="890" fill="#911eb4" r="3.5" stroke-width="0" /><circle cx="536" cy="861" fill="#911eb4" r="3.5" stroke-width="0" /><circle cx="444" cy="849" fill="#911eb4" r="3.5" stroke-width="0" /><circle cx="490" cy="830" fill="#911eb4" r="3.5" stroke-width="0" /><circle cx="596" cy="809" fill="#911eb4" r="3.5" stroke-width="0" /><circle cx="661" cy="800" fill="#911eb4" r="3.5" stroke-width="0" /><circle cx="509" cy="796" fill="#911eb4" r="3.5" stroke-width="0" /><circle cx="514" cy="769" fill="#911eb4" r="3.5" stroke-width="0" /><circle cx="524" cy="752" fill="#911eb4" r="3.5" stroke-width="0" /><circle cx="673" cy="746" fill="#911eb4" r="3.5" stroke-width="0" /><circle cx="573" cy="735" fill="#911eb4" r="3.5" stroke-width="0" /><circle cx="651" cy="715" fill="#911eb4" r="3.5" stroke-width="0" /><circle cx="694" cy="700" fill="#911eb4" r="3.5" stroke-width="0" /><circle cx="818" cy="654" fill="#911eb4" r="3.5" stroke-width="0" /><circle cx="746" cy="643" fill="#911eb4" r="3.5" stroke-width="0" /><circle cx="685" cy="637" fill="#911eb4" r="3.5" stroke-width="0" /><circle cx="682" cy="576" fill="#911eb4" r="3.5" stroke-width="0" /><circle cx="856" cy="552" fill="#911eb4" r="3.5" stroke-width="0" /><circle cx="834" cy="528" fill="#911eb4" r="3.5" stroke-width="0" /><circle cx="898" cy="528" fill="#911eb4" r="3.5" stroke-width="0" /><circle cx="856" cy="511" fill="#911eb4" r="3.5" stroke-width="0" /><circle cx="785" cy="490" fill="#911eb4" r="3.5" stroke-width="0" /><circle cx="933" cy="487" fill="#911eb4" r="3.5" stroke-width="0" /><circle cx="803" cy="454" fill="#911eb4" r="3.5" stroke-width="0" /><circle cx="897" cy="427" fill="#911eb4" r="3.5" stroke-width="0" /><circle cx="875" cy="384" fill="#911eb4" r="3.5" stroke-width="0" /><circle cx="1058" cy="369" fill="#911eb4" r="3.5" stroke-width="0" /><circle cx="947" cy="310" fill="#911eb4" r="3.5" stroke-width="0" /><circle cx="1031" cy="288" fill="#911eb4" r="3.5" stroke-width="0" /><circle cx="1067" cy="197" fill="#911eb4" r="3.5" stroke-width="0" /></g><g class="e4"><circle cx="70" cy="1043" fill="#3cb44B" r="3.5" stroke-width="0" /><circle cx="102" cy="1030" fill="#3cb44B" r="3.5" stroke-width="0" /><circle cx="148" cy="970" fill="#3cb44B" r="3.5" stroke-width="0" /><circle cx="390" cy="825" fill="#3cb44B" r="3.5" stroke-width="0" /><circle cx="309" cy="784" fill="#3cb44B" r="3.5" stroke-width="0" /><circle cx="469" cy="765" fill="#3cb44B" r="3.5" stroke-width="0" /><circle cx="365" cy="753" fill="#3cb44B" r="3.5" stroke-width="0" /><circle cx="395" cy="737" fill="#3cb44B" r="3.5" stroke-width="0" /><circle cx="437" cy="690" fill="#3cb44B" r="3.5" stroke-width="0" /><circle cx="533" cy="672" fill="#3cb44B" r="3.5" stroke-width="0" /><circle cx="466" cy="649" fill="#3cb44B" r="3.5" stroke-width="0" /><circle cx="492" cy="612" fill="#3cb44B" r="3.5" stroke-width="0" /><circle cx="457" cy="578" fill="#3cb44B" r="3.5" stroke-width="0" /><circle cx="501" cy="568" fill="#3cb44B" r="3.5" stroke-width="0" /><circle cx="620" cy="532" fill="#3cb44B" r="3.5" stroke-width="0" /><circle cx="618" cy="483" fill="#3cb44B" r="3.5" stroke-width="0" /><circle cx="796" cy="437" fill="#3cb44B" r="3.5" stroke-width="0" /><circle cx="679" cy="427" fill="#3cb44B" r="3.5" stroke-width="0" /><circle cx="771" cy="414" fill="#3cb44B" r="3.5" stroke-width="0" /><circle cx="644" cy="403" fill="#3cb44B" r="3.5" stroke-width="0" /><circle cx="789" cy="395" fill="#3cb44B" r="3.5" stroke-width="0" /><circle cx="737" cy="393" fill="#3cb44B" r="3.5" stroke-width="0" /><circle cx="681" cy="392" fill="#3cb44B" r="3.5" stroke-width="0" /><circle cx="693" cy="346" fill="#3cb44B" r="3.5" stroke-width="0" /><circle cx="717" cy="338" fill="#3cb44B" r="3.5" stroke-width="0" /><circle cx="795" cy="321" fill="#3cb44B" r="3.5" stroke-width="0" /><circle cx="930" cy="300" fill="#3cb44B" r="3.5" stroke-width="0" /><circle cx="900" cy="241" fill="#3cb44B" r="3.5" stroke-width="0" /><circle cx="867" cy="235" fill="#3cb44B" r="3.5" stroke-width="0" /><circle cx="1011" cy="231" fill="#3cb44B" r="3.5" stroke-width="0" /><circle cx="911" cy="223" fill="#3cb44B" r="3.5" stroke-width="0" /><circle cx="840" cy="221" fill="#3cb44B" r="3.5" stroke-width="0" /><circle cx="860" cy="219" fill="#3cb44B" r="3.5" stroke-width="0" /><circle cx="930" cy="140" fill="#3cb44B" r="3.5" stroke-width="0" /><circle cx="1019" cy="132" fill="#3cb44B" r="3.5" stroke-width="0" /><circle cx="1017" cy="85" fill="#3cb44B" r="3.5" stroke-width="0" /></g><g class="e5"><circle cx="142" cy="875" fill="#ff0000" r="3.5" stroke-width="0" /><circle cx="139" cy="871" fill="#ff0000" r="3.5" stroke-width="0" /><circle cx="89" cy="773" fill="#ff0000" r="3.5" stroke-width="0" /><circle cx="232" cy="765" fill="#ff0000" r="3.5" stroke-width="0" /><circle cx="314" cy="715" fill="#ff0000" r="3.5" stroke-width="0" /><circle cx="119" cy="713" fill="#ff0000" r="3.5" stroke-width="0" /><circle cx="231" cy="706" fill="#ff0000" r="3.5" stroke-width="0" /><circle cx="157" cy="699" fill="#ff0000" r="3.5" stroke-width="0" /><circle cx="143" cy="696" fill="#ff0000" r="3.5" stroke-width="0" /><circle cx="129" cy="694" fill="#ff0000" r="3.5" stroke-width="0" /><circle cx="302" cy="691" fill="#ff0000" r="3.5" stroke-width="0" /><circle cx="388" cy="629" fill="#ff0000" r="3.5" stroke-width="0" /><circle cx="402" cy="622" fill="#ff0000" r="3.5" stroke-width="0" /><circle cx="281" cy="616" fill="#ff0000" r="3.5" stroke-width="0" /><circle cx="324" cy="614" fill="#ff0000" r="3.5" stroke-width="0" /><circle cx="269" cy="593" fill="#ff0000" r="3.5" stroke-width="0" /><circle cx="432" cy="580" fill="#ff0000" r="3.5" stroke-width="0" /><circle cx="388" cy="576" fill="#ff0000" r="3.5" stroke-width="0" /><circle cx="414" cy="551" fill="#ff0000" r="3.5" stroke-width="0" /><circle cx="359" cy="546" fill="#ff0000" r="3.5" stroke-width="0" /><circle cx="378" cy="543" fill="#ff0000" r="3.5" stroke-width="0" /><circle cx="278" cy="541" fill="#ff0000" r="3.5" stroke-width="0" /><circle cx="470" cy="512" fill="#ff0000" r="3.5" stroke-width="0" /><circle cx="537" cy="418" fill="#ff0000" r="3.5" stroke-width="0" /><circle cx="496" cy="407" fill="#ff0000" r="3.5" stroke-width="0" /><circle cx="577" cy="321" fill="#ff0000" r="3.5" stroke-width="0" /><circle cx="573" cy="312" fill="#ff0000" r="3.5" stroke-width="0" /><circle cx="687" cy="307" fill="#ff0000" r="3.5" stroke-width="0" /><circle cx="548" cy="292" fill="#ff0000" r="3.5" stroke-width="0" /><circle cx="697" cy="287" fill="#ff0000" r="3.5" stroke-width="0" /><circle cx="602" cy="248" fill="#ff0000" r="3.5" stroke-width="0" /><circle cx="699" cy="240" fill="#ff0000" r="3.5" stroke-width="0" /><circle cx="820" cy="198" fill="#ff0000" r="3.5" stroke-width="0" /><circle cx="851" cy="141" fill="#ff0000" r="3.5" stroke-width="0" /></g><g class="e6"><circle cx="80" cy="725" fill="#2b92db" r="3.5" stroke-width="0" /><circle cx="121" cy="649" fill="#2b92db" r="3.5" stroke-width="0" /><circle cx="134" cy="646" fill="#2b92db" r="3.5" stroke-width="0" /><circle cx="146" cy="626" fill="#2b92db" r="3.5" stroke-width="0" /><circle cx="151" cy="614" fill="#2b92db" r="3.5" stroke-width="0" /><circle cx="177" cy="539" fill="#2b92db" r="3.5" stroke-width="0" /><circle cx="108" cy="524" fill="#2b92db" r="3.5" stroke-width="0" /><circle cx="109" cy="487" fill="#2b92db" r="3.5" stroke-width="0" /><circle cx="302" cy="485" fill="#2b92db" r="3.5" stroke-width="0" /><circle cx="187" cy="479" fill="#2b92db" r="3.5" stroke-width="0" /><circle cx="137" cy="467" fill="#2b92db" r="3.5" stroke-width="0" /><circle cx="226" cy="462" fill="#2b92db" r="3.5" stroke-width="0" /><circle cx="270" cy="452" fill="#2b92db" r="3.5" stroke-width="0" /><circle cx="331" cy="445" fill="#2b92db" r="3.5" stroke-width="0" /><circle cx="253" cy="439" fill="#2b92db" r="3.5" stroke-width="0" /><circle cx="195" cy="416" fill="#2b92db" r="3.5" stroke-width="0" /><circle cx="301" cy="376" fill="#2b92db" r="3.5" stroke-width="0" /><circle cx="413" cy="373" fill="#2b92db" r="3.5" stroke-width="0" /><circle cx="284" cy="371" fill="#2b92db" r="3.5" stroke-width="0" /><circle cx="464" cy="335" fill="#2b92db" r="3.5" stroke-width="0" /><circle cx="277" cy="324" fill="#2b92db" r="3.5" stroke-width="0" /><circle cx="322" cy="320" fill="#2b92db" r="3.5" stroke-width="0" /><circle cx="419" cy="309" fill="#2b92db" r="3.5" stroke-width="0" /><circle cx="435" cy="262" fill="#2b92db" r="3.5" stroke-width="0" /><circle cx="518" cy="231" fill="#2b92db" r="3.5" stroke-width="0" /><circle cx="657" cy="133" fill="#2b92db" r="3.5" stroke-width="0" /></g><g class="e7"><circle cx="81" cy="440" fill="#911eb4" r="3.5" stroke-width="0" /><circle cx="70" cy="396" fill="#911eb4" r="3.5" stroke-width="0" /><circle cx="162" cy="306" fill="#911eb4" r="3.5" stroke-width="0" /><circle cx="153" cy="299" fill="#911eb4" r="3.5" stroke-width="0" /><circle cx="206" cy="272" fill="#911eb4" r="3.5" stroke-width="0" /><circle cx="270" cy="263" fill="#911eb4" r="3.5" stroke-width="0" /><circle cx="252" cy="260" fill="#911eb4" r="3.5" stroke-width="0" /><circle cx="216" cy="249" fill="#911eb4" r="3.5" stroke-width="0" /><circle cx="356" cy="207" fill="#911eb4" r="3.5" stroke-width="0" /><circle cx="273" cy="199" fill="#911eb4" r="3.5" stroke-width="0" /><circle cx="339" cy="198" fill="#911eb4" r="3.5" stroke-width="0" /><circle cx="357" cy="193" fill="#911eb4" r="3.5" stroke-width="0" /><circle cx="325" cy="185" fill="#911eb4" r="3.5" stroke-width="0" /><circle cx="355" cy="152" fill="#911eb4" r="3.5" stroke-width="0" /><circle cx="450" cy="115" fill="#911eb4" r="3.5" stroke-width="0" /></g><g class="e8"><circle cx="92" cy="266" fill="#3cb44B" r="3.5" stroke-width="0" /><circle cx="94" cy="146" fill="#3cb44B" r="3.5" stroke-width="0" /></g></g></g></svg>