<?xml version="1.0" encoding="utf-8" ?>
<svg baseProfile="full" height="1140px" style="font-size:15;font-family:Arial, san-serif;font-weight:bold;stroke:black;stroke-width:0;fill:#444444" version="1.1" width="1140px" xmlns="http://www.w3.org/2000/svg" xmlns:ev="http://www.w3.org/2001/xml-events" xmlns:xlink="http://www.w3.org/1999/xlink"><defs><clipPath id="areadografico"><rect height="1000" width="1000" x="70" y="70" /></clipPath></defs><g class="master"><g class="poligonos"><polygon clip-path="url(#areadografico)" fill="#000000" fill-opacity="0.1" points="1069,1070 1069,672 672,1070" /><polygon clip-path="url(#areadografico)" fill="#ffffff" fill-opacity="0.1" points="672,1070 273,1070 1069,273 1069,672" /><polygon clip-path="url(#areadografico)" fill="#000000" fill-opacity="0.1" points="273,1070 -126,1070 1069,-126 1069,273" /><polygon clip-path="url(#areadografico)" fill="#ffffff" fill-opacity="0.1" points="-126,1070 -524,1070 1069,-524 1069,-126" /><polygon clip-path="url(#areadografico)" fill="#000000" fill-opacity="0.1" points="70,70 70,475 475,70" /></g><g class="linhas"><line fill-opacity="0.3" stroke="#999999" stroke-width="1" x1="1070" x2="1070" y1="1070" y2="70" /><line fill-opacity="0.3" stroke="#999999" stroke-width="1" x1="70" x2="1070" y1="70" y2="70" /><line fill-opacity="0.3" stroke="#999999" stroke-width="1" x1="970" x2="970" y1="1070" y2="70" /><line fill-opacity="0.3" stroke="#999999" stroke-width="1" x1="70" x2="1070" y1="170" y2="170" /><line fill-opacity="0.3" stroke="#999999" stroke-width="1" x1="870" x2="870" y1="1070" y2="70" /><line fill-opacity="0.3" stroke="#999999" stroke-width="1" x1="70" x2="1070" y1="270" y2="270" /><line fill-opacity="0.3" stroke="#999999" stroke-width="1" x1="770" x2="770" y1="1070" y2="70" /><line fill-opacity="0.3" stroke="#999999" stroke-width="1" x1="70" x2="1070" y1="370" y2="370" /><line fill-opacity="0.3" stroke="#999999" stroke-width="1" x1="670" x2="670" y1="1070" y2="70" /><line fill-opacity="0.3" stroke="#999999" stroke-width="1" x1="70" x2="1070" y1="470" y2="470" /><line fill-opacity="0.3" stroke="#999999" stroke-width="1" x1="570" x2="570" y1="1070" y2="70" /><line fill-opacity="0.3" stroke="#999999" stroke-width="1" x1="70" x2="1070" y1="570" y2="570" /><line fill-opacity="0.3" stroke="#999999" stroke-width="1" x1="470" x2="470" y1="1070" y2="70" /><line fill-opacity="0.3" stroke="#999999" stroke-width="1" x1="70" x2="1070" y1="670" y2="670" /><line fill-opacity="0.3" stroke="#999999" stroke-width="1" x1="370" x2="370" y1="1070" y2="70" /><line fill-opacity="0.3" stroke="#999999" stroke-width="1" x1="70" x2="1070" y1="770" y2="770" /><line fill-opacity="0.3" stroke="#999999" stroke-width="1" x1="270" x2="270" y1="1070" y2="70" /><line fill-opacity="0.3" stroke="#999999" stroke-width="1" x1="70" x2="1070" y1="870" y2="870" /><line fill-opacity="0.3" stroke="#999999" stroke-width="1" x1="170" x2="170" y1="1070" y2="70" /><line fill-opacity="0.3" stroke="#999999" stroke-width="1" x1="70" x2="1070" y1="970" y2="970" /><line fill-opacity="0.3" stroke="#000000" stroke-width="1" x1="70" x2="70" y1="1071" y2="69" /><line fill-opacity="0.3" stroke="#000000" stroke-width="1" x1="69" x2="1071" y1="1070" y2="1070" /></g><g class="textos"><text x="1050" y="1110">1000</text><text x="10" y="71">1000</text><text x="950" y="1110">900</text><text x="10" y="171">900</text><text x="850" y="1110">800</text><text x="10" y="271">800</text><text x="750" y="1110">700</text><text x="10" y="371">700</text><text x="650" y="1110">600</text><text x="10" y="471">600</text><text x="550" y="1110">500</text><text x="10" y="571">500</text><text x="450" y="1110">400</text><text x="10" y="671">400</text><text x="350" y="1110">300</text><text x="10" y="771">300</text><text x="250" y="1110">200</text><text x="10" y="871">200</text><text x="150" y="1110">100</text><text x="10" y="971">100</text><text x="50" y="1111">0</text><text x="9" y="1071">0</text></g><g class="especies"><g class="e0"><circle cx="777" cy="1064" fill="#3cb44B" r="3.5" stroke-width="0" /><circle cx="781" cy="1058" fill="#3cb44B" r="3.5" stroke-width="0" /><circle cx="830" cy="1057" fill="#3cb44B" r="3.5" stroke-width="0" /><circle cx="885" cy="1057" fill="#3cb44B" r="3.5" stroke-width="0" /><circle cx="803" cy="1038" fill="#3cb44B" r="3.5" stroke-width="0" /><circle cx="773" cy="1022" fill="#3cb44B" r="3.5" stroke-width="0" /><circle cx="748" cy="1017" fill="#3cb44B" r="3.5" stroke-width="0" /><circle cx="833" cy="1016" fill="#3cb44B" r="3.5" stroke-width="0" /><circle cx="812" cy="996" fill="#3cb44B" r="3.5" stroke-width="0" /><circle cx="824" cy="996" fill="#3cb44B" r="3.5" stroke-width="0" /><circle cx="867" cy="995" fill="#3cb44B" r="3.5" stroke-width="0" /><circle cx="825" cy="979" fill="#3cb44B" r="3.5" stroke-width="0" /><circle cx="807" cy="972" fill="#3cb44B" r="3.5" stroke-width="0" /><circle cx="851" cy="969" fill="#3cb44B" r="3.5" stroke-width="0" /><circle cx="775" cy="968" fill="#3cb44B" r="3.5" stroke-width="0" /><circle cx="895" cy="968" fill="#3cb44B" r="3.5" stroke-width="0" /><circle cx="829" cy="955" fill="#3cb44B" r="3.5" stroke-width="0" /><circle cx="811" cy="951" fill="#3cb44B" r="3.5" stroke-width="0" /><circle cx="805" cy="950" fill="#3cb44B" r="3.5" stroke-width="0" /><circle cx="857" cy="947" fill="#3cb44B" r="3.5" stroke-width="0" /><circle cx="827" cy="941" fill="#3cb44B" r="3.5" stroke-width="0" /><circle cx="830" cy="936" fill="#3cb44B" r="3.5" stroke-width="0" /><circle cx="849" cy="926" fill="#3cb44B" r="3.5" stroke-width="0" /><circle cx="948" cy="909" fill="#3cb44B" r="3.5" stroke-width="0" /><circle cx="857" cy="907" fill="#3cb44B" r="3.5" stroke-width="0" /><circle cx="898" cy="901" fill="#3cb44B" r="3.5" stroke-width="0" /><circle cx="927" cy="901" fill="#3cb44B" r="3.5" stroke-width="0" /><circle cx="881" cy="892" fill="#3cb44B" r="3.5" stroke-width="0" /><circle cx="909" cy="853" fill="#3cb44B" r="3.5" stroke-width="0" /><circle cx="941" cy="843" fill="#3cb44B" r="3.5" stroke-width="0" /></g><g class="e1"><circle cx="396" cy="1068" fill="#ff0000" r="3.5" stroke-width="0" /><circle cx="457" cy="1067" fill="#ff0000" r="3.5" stroke-width="0" /><circle cx="421" cy="1063" fill="#ff0000" r="3.5" stroke-width="0" /><circle cx="387" cy="1055" fill="#ff0000" r="3.5" stroke-width="0" /><circle cx="344" cy="1044" fill="#ff0000" r="3.5" stroke-width="0" /><circle cx="315" cy="1043" fill="#ff0000" r="3.5" stroke-width="0" /><circle cx="321" cy="1035" fill="#ff0000" r="3.5" stroke-width="0" /><circle cx="347" cy="1021" fill="#ff0000" r="3.5" stroke-width="0" /><circle cx="734" cy="999" fill="#ff0000" r="3.5" stroke-width="0" /><circle cx="411" cy="991" fill="#ff0000" r="3.5" stroke-width="0" /><circle cx="719" cy="956" fill="#ff0000" r="3.5" stroke-width="0" /><circle cx="742" cy="953" fill="#ff0000" r="3.5" stroke-width="0" /><circle cx="685" cy="950" fill="#ff0000" r="3.5" stroke-width="0" /><circle cx="787" cy="945" fill="#ff0000" r="3.5" stroke-width="0" /><circle cx="467" cy="924" fill="#ff0000" r="3.5" stroke-width="0" /><circle cx="797" cy="913" fill="#ff0000" r="3.5" stroke-width="0" /><circle cx="814" cy="912" fill="#ff0000" r="3.5" stroke-width="0" /><circle cx="761" cy="907" fill="#ff0000" r="3.5" stroke-width="0" /><circle cx="857" cy="884" fill="#ff0000" r="3.5" stroke-width="0" /><circle cx="845" cy="877" fill="#ff0000" r="3.5" stroke-width="0" /><circle cx="857" cy="877" fill="#ff0000" r="3.5" stroke-width="0" /><circle cx="848" cy="875" fill="#ff0000" r="3.5" stroke-width="0" /><circle cx="746" cy="866" fill="#ff0000" r="3.5" stroke-width="0" /><circle cx="835" cy="856" fill="#ff0000" r="3.5" stroke-width="0" /><circle cx="794" cy="845" fill="#ff0000" r="3.5" stroke-width="0" /><circle cx="847" cy="841" fill="#ff0000" r="3.5" stroke-width="0" /><circle cx="821" cy="837" fill="#ff0000" r="3.5" stroke-width="0" /><circle cx="818" cy="836" fill="#ff0000" r="3.5" stroke-width="0" /><circle cx="822" cy="836" fill="#ff0000" r="3.5" stroke-width="0" /><circle cx="826" cy="834" fill="#ff0000" r="3.5" stroke-width="0" /><circle cx="878" cy="832" fill="#ff0000" r="3.5" stroke-width="0" /><circle cx="816" cy="830" fill="#ff0000" r="3.5" stroke-width="0" /><circle cx="739" cy="826" fill="#ff0000" r="3.5" stroke-width="0" /><circle cx="789" cy="826" fill="#ff0000" r="3.5" stroke-width="0" /><circle cx="804" cy="820" fill="#ff0000" r="3.5" stroke-width="0" /><circle cx="821" cy="818" fill="#ff0000" r="3.5" stroke-width="0" /><circle cx="793" cy="810" fill="#ff0000" r="3.5" stroke-width="0" /><circle cx="876" cy="808" fill="#ff0000" r="3.5" stroke-width="0" /><circle cx="800" cy="807" fill="#ff0000" r="3.5" stroke-width="0" /><circle cx="827" cy="807" fill="#ff0000" r="3.5" stroke-width="0" /><circle cx="852" cy="805" fill="#ff0000" r="3.5" stroke-width="0" /><circle cx="782" cy="795" fill="#ff0000" r="3.5" stroke-width="0" /><circle cx="811" cy="787" fill="#ff0000" r="3.5" stroke-width="0" /><circle cx="863" cy="786" fill="#ff0000" r="3.5" stroke-width="0" /><circle cx="814" cy="785" fill="#ff0000" r="3.5" stroke-width="0" /><circle cx="842" cy="776" fill="#ff0000" r="3.5" stroke-width="0" /><circle cx="813" cy="768" fill="#ff0000" r="3.5" stroke-width="0" /><circle cx="781" cy="766" fill="#ff0000" r="3.5" stroke-width="0" /><circle cx="876" cy="766" fill="#ff0000" r="3.5" stroke-width="0" /><circle cx="852" cy="758" fill="#ff0000" r="3.5" stroke-width="0" /><circle cx="854" cy="758" fill="#ff0000" r="3.5" stroke-width="0" /><circle cx="885" cy="758" fill="#ff0000" r="3.5" stroke-width="0" /><circle cx="834" cy="757" fill="#ff0000" r="3.5" stroke-width="0" /><circle cx="778" cy="755" fill="#ff0000" r="3.5" stroke-width="0" /><circle cx="794" cy="753" fill="#ff0000" r="3.5" stroke-width="0" /><circle cx="823" cy="752" fill="#ff0000" r="3.5" stroke-width="0" /><circle cx="678" cy="744" fill="#ff0000" r="3.5" stroke-width="0" /><circle cx="743" cy="742" fill="#ff0000" r="3.5" stroke-width="0" /><circle cx="802" cy="742" fill="#ff0000" r="3.5" stroke-width="0" /><circle cx="734" cy="741" fill="#ff0000" r="3.5" stroke-width="0" /><circle cx="743" cy="740" fill="#ff0000" r="3.5" stroke-width="0" /><circle cx="856" cy="725" fill="#ff0000" r="3.5" stroke-width="0" /><circle cx="801" cy="722" fill="#ff0000" r="3.5" stroke-width="0" /><circle cx="899" cy="721" fill="#ff0000" r="3.5" stroke-width="0" /><circle cx="788" cy="720" fill="#ff0000" r="3.5" stroke-width="0" /><circle cx="922" cy="720" fill="#ff0000" r="3.5" stroke-width="0" /><circle cx="885" cy="719" fill="#ff0000" r="3.5" stroke-width="0" /><circle cx="804" cy="715" fill="#ff0000" r="3.5" stroke-width="0" /><circle cx="884" cy="715" fill="#ff0000" r="3.5" stroke-width="0" /><circle cx="871" cy="714" fill="#ff0000" r="3.5" stroke-width="0" /><circle cx="783" cy="701" fill="#ff0000" r="3.5" stroke-width="0" /><circle cx="792" cy="699" fill="#ff0000" r="3.5" stroke-width="0" /><circle cx="817" cy="699" fill="#ff0000" r="3.5" stroke-width="0" /><circle cx="783" cy="697" fill="#ff0000" r="3.5" stroke-width="0" /><circle cx="835" cy="695" fill="#ff0000" r="3.5" stroke-width="0" /><circle cx="791" cy="694" fill="#ff0000" r="3.5" stroke-width="0" /><circle cx="798" cy="694" fill="#ff0000" r="3.5" stroke-width="0" /><circle cx="852" cy="694" fill="#ff0000" r="3.5" stroke-width="0" /><circle cx="928" cy="694" fill="#ff0000" r="3.5" stroke-width="0" /><circle cx="848" cy="690" fill="#ff0000" r="3.5" stroke-width="0" /><circle cx="851" cy="690" fill="#ff0000" r="3.5" stroke-width="0" /><circle cx="819" cy="683" fill="#ff0000" r="3.5" stroke-width="0" /><circle cx="868" cy="679" fill="#ff0000" r="3.5" stroke-width="0" /><circle cx="832" cy="678" fill="#ff0000" r="3.5" stroke-width="0" /><circle cx="824" cy="665" fill="#ff0000" r="3.5" stroke-width="0" /><circle cx="822" cy="658" fill="#ff0000" r="3.5" stroke-width="0" /><circle cx="842" cy="652" fill="#ff0000" r="3.5" stroke-width="0" /><circle cx="865" cy="648" fill="#ff0000" r="3.5" stroke-width="0" /><circle cx="867" cy="641" fill="#ff0000" r="3.5" stroke-width="0" /><circle cx="856" cy="640" fill="#ff0000" r="3.5" stroke-width="0" /><circle cx="867" cy="640" fill="#ff0000" r="3.5" stroke-width="0" /><circle cx="755" cy="638" fill="#ff0000" r="3.5" stroke-width="0" /><circle cx="836" cy="638" fill="#ff0000" r="3.5" stroke-width="0" /><circle cx="808" cy="631" fill="#ff0000" r="3.5" stroke-width="0" /><circle cx="752" cy="629" fill="#ff0000" r="3.5" stroke-width="0" /><circle cx="783" cy="628" fill="#ff0000" r="3.5" stroke-width="0" /><circle cx="788" cy="628" fill="#ff0000" r="3.5" stroke-width="0" /><circle cx="831" cy="620" fill="#ff0000" r="3.5" stroke-width="0" /><circle cx="744" cy="619" fill="#ff0000" r="3.5" stroke-width="0" /><circle cx="880" cy="616" fill="#ff0000" r="3.5" stroke-width="0" /><circle cx="787" cy="614" fill="#ff0000" r="3.5" stroke-width="0" /><circle cx="893" cy="614" fill="#ff0000" r="3.5" stroke-width="0" /><circle cx="772" cy="612" fill="#ff0000" r="3.5" stroke-width="0" /><circle cx="852" cy="604" fill="#ff0000" r="3.5" stroke-width="0" /><circle cx="801" cy="595" fill="#ff0000" r="3.5" stroke-width="0" /><circle cx="916" cy="589" fill="#ff0000" r="3.5" stroke-width="0" /><circle cx="827" cy="574" fill="#ff0000" r="3.5" stroke-width="0" /><circle cx="789" cy="568" fill="#ff0000" r="3.5" stroke-width="0" /><circle cx="843" cy="562" fill="#ff0000" r="3.5" stroke-width="0" /><circle cx="870" cy="561" fill="#ff0000" r="3.5" stroke-width="0" /><circle cx="801" cy="560" fill="#ff0000" r="3.5" stroke-width="0" /><circle cx="909" cy="551" fill="#ff0000" r="3.5" stroke-width="0" /><circle cx="809" cy="543" fill="#ff0000" r="3.5" stroke-width="0" /><circle cx="889" cy="540" fill="#ff0000" r="3.5" stroke-width="0" /><circle cx="829" cy="536" fill="#ff0000" r="3.5" stroke-width="0" /><circle cx="832" cy="535" fill="#ff0000" r="3.5" stroke-width="0" /><circle cx="885" cy="535" fill="#ff0000" r="3.5" stroke-width="0" /><circle cx="870" cy="495" fill="#ff0000" r="3.5" stroke-width="0" /><circle cx="899" cy="485" fill="#ff0000" r="3.5" stroke-width="0" /><circle cx="917" cy="468" fill="#ff0000" r="3.5" stroke-width="0" /></g><g class="e2"><circle cx="280" cy="1051" fill="#2b92db" r="3.5" stroke-width="0" /><circle cx="249" cy="1018" fill="#2b92db" r="3.5" stroke-width="0" /><circle cx="280" cy="1002" fill="#2b92db" r="3.5" stroke-width="0" /><circle cx="344" cy="998" fill="#2b92db" r="3.5" stroke-width="0" /><circle cx="324" cy="989" fill="#2b92db" r="3.5" stroke-width="0" /><circle cx="288" cy="984" fill="#2b92db" r="3.5" stroke-width="0" /><circle cx="253" cy="980" fill="#2b92db" r="3.5" stroke-width="0" /><circle cx="286" cy="977" fill="#2b92db" r="3.5" stroke-width="0" /><circle cx="338" cy="977" fill="#2b92db" r="3.5" stroke-width="0" /><circle cx="291" cy="970" fill="#2b92db" r="3.5" stroke-width="0" /><circle cx="358" cy="958" fill="#2b92db" r="3.5" stroke-width="0" /><circle cx="243" cy="939" fill="#2b92db" r="3.5" stroke-width="0" /><circle cx="355" cy="936" fill="#2b92db" r="3.5" stroke-width="0" /><circle cx="331" cy="934" fill="#2b92db" r="3.5" stroke-width="0" /><circle cx="353" cy="931" fill="#2b92db" r="3.5" stroke-width="0" /><circle cx="259" cy="930" fill="#2b92db" r="3.5" stroke-width="0" /><circle cx="310" cy="917" fill="#2b92db" r="3.5" stroke-width="0" /><circle cx="321" cy="908" fill="#2b92db" r="3.5" stroke-width="0" /><circle cx="390" cy="894" fill="#2b92db" r="3.5" stroke-width="0" /><circle cx="396" cy="890" fill="#2b92db" r="3.5" stroke-width="0" /><circle cx="270" cy="884" fill="#2b92db" r="3.5" stroke-width="0" /><circle cx="337" cy="869" fill="#2b92db" r="3.5" stroke-width="0" /><circle cx="266" cy="867" fill="#2b92db" r="3.5" stroke-width="0" /><circle cx="339" cy="866" fill="#2b92db" r="3.5" stroke-width="0" /><circle cx="291" cy="861" fill="#2b92db" r="3.5" stroke-width="0" /><circle cx="300" cy="848" fill="#2b92db" r="3.5" stroke-width="0" /><circle cx="415" cy="847" fill="#2b92db" r="3.5" stroke-width="0" /><circle cx="357" cy="833" fill="#2b92db" r="3.5" stroke-width="0" /><circle cx="257" cy="831" fill="#2b92db" r="3.5" stroke-width="0" /><circle cx="262" cy="828" fill="#2b92db" r="3.5" stroke-width="0" /><circle cx="315" cy="819" fill="#2b92db" r="3.5" stroke-width="0" /><circle cx="264" cy="811" fill="#2b92db" r="3.5" stroke-width="0" /><circle cx="307" cy="802" fill="#2b92db" r="3.5" stroke-width="0" /><circle cx="378" cy="802" fill="#2b92db" r="3.5" stroke-width="0" /><circle cx="286" cy="800" fill="#2b92db" r="3.5" stroke-width="0" /><circle cx="425" cy="799" fill="#2b92db" r="3.5" stroke-width="0" /><circle cx="287" cy="795" fill="#2b92db" r="3.5" stroke-width="0" /><circle cx="343" cy="792" fill="#2b92db" r="3.5" stroke-width="0" /><circle cx="255" cy="790" fill="#2b92db" r="3.5" stroke-width="0" /><circle cx="242" cy="783" fill="#2b92db" r="3.5" stroke-width="0" /><circle cx="329" cy="783" fill="#2b92db" r="3.5" stroke-width="0" /><circle cx="285" cy="777" fill="#2b92db" r="3.5" stroke-width="0" /><circle cx="326" cy="776" fill="#2b92db" r="3.5" stroke-width="0" /><circle cx="269" cy="774" fill="#2b92db" r="3.5" stroke-width="0" /><circle cx="330" cy="772" fill="#2b92db" r="3.5" stroke-width="0" /><circle cx="271" cy="771" fill="#2b92db" r="3.5" stroke-width="0" /><circle cx="349" cy="760" fill="#2b92db" r="3.5" stroke-width="0" /><circle cx="382" cy="758" fill="#2b92db" r="3.5" stroke-width="0" /><circle cx="229" cy="756" fill="#2b92db" r="3.5" stroke-width="0" /><circle cx="392" cy="756" fill="#2b92db" r="3.5" stroke-width="0" /><circle cx="346" cy="751" fill="#2b92db" r="3.5" stroke-width="0" /><circle cx="365" cy="749" fill="#2b92db" r="3.5" stroke-width="0" /><circle cx="277" cy="745" fill="#2b92db" r="3.5" stroke-width="0" /><circle cx="319" cy="743" fill="#2b92db" r="3.5" stroke-width="0" /><circle cx="337" cy="743" fill="#2b92db" r="3.5" stroke-width="0" /><circle cx="328" cy="741" fill="#2b92db" r="3.5" stroke-width="0" /><circle cx="289" cy="737" fill="#2b92db" r="3.5" stroke-width="0" /><circle cx="306" cy="731" fill="#2b92db" r="3.5" stroke-width="0" /><circle cx="272" cy="713" fill="#2b92db" r="3.5" stroke-width="0" /><circle cx="371" cy="713" fill="#2b92db" r="3.5" stroke-width="0" /><circle cx="309" cy="707" fill="#2b92db" r="3.5" stroke-width="0" /><circle cx="342" cy="704" fill="#2b92db" r="3.5" stroke-width="0" /><circle cx="368" cy="702" fill="#2b92db" r="3.5" stroke-width="0" /><circle cx="318" cy="701" fill="#2b92db" r="3.5" stroke-width="0" /><circle cx="401" cy="682" fill="#2b92db" r="3.5" stroke-width="0" /><circle cx="276" cy="679" fill="#2b92db" r="3.5" stroke-width="0" /><circle cx="352" cy="679" fill="#2b92db" r="3.5" stroke-width="0" /><circle cx="280" cy="678" fill="#2b92db" r="3.5" stroke-width="0" /><circle cx="363" cy="677" fill="#2b92db" r="3.5" stroke-width="0" /><circle cx="283" cy="671" fill="#2b92db" r="3.5" stroke-width="0" /><circle cx="296" cy="671" fill="#2b92db" r="3.5" stroke-width="0" /><circle cx="373" cy="669" fill="#2b92db" r="3.5" stroke-width="0" /><circle cx="346" cy="664" fill="#2b92db" r="3.5" stroke-width="0" /><circle cx="300" cy="660" fill="#2b92db" r="3.5" stroke-width="0" /><circle cx="361" cy="649" fill="#2b92db" r="3.5" stroke-width="0" /><circle cx="332" cy="648" fill="#2b92db" r="3.5" stroke-width="0" /><circle cx="707" cy="633" fill="#2b92db" r="3.5" stroke-width="0" /><circle cx="375" cy="624" fill="#2b92db" r="3.5" stroke-width="0" /><circle cx="327" cy="622" fill="#2b92db" r="3.5" stroke-width="0" /><circle cx="329" cy="621" fill="#2b92db" r="3.5" stroke-width="0" /><circle cx="336" cy="615" fill="#2b92db" r="3.5" stroke-width="0" /><circle cx="372" cy="612" fill="#2b92db" r="3.5" stroke-width="0" /><circle cx="368" cy="605" fill="#2b92db" r="3.5" stroke-width="0" /><circle cx="347" cy="602" fill="#2b92db" r="3.5" stroke-width="0" /><circle cx="352" cy="600" fill="#2b92db" r="3.5" stroke-width="0" /><circle cx="406" cy="552" fill="#2b92db" r="3.5" stroke-width="0" /><circle cx="781" cy="551" fill="#2b92db" r="3.5" stroke-width="0" /><circle cx="794" cy="533" fill="#2b92db" r="3.5" stroke-width="0" /><circle cx="762" cy="528" fill="#2b92db" r="3.5" stroke-width="0" /><circle cx="776" cy="520" fill="#2b92db" r="3.5" stroke-width="0" /><circle cx="782" cy="504" fill="#2b92db" r="3.5" stroke-width="0" /><circle cx="828" cy="500" fill="#2b92db" r="3.5" stroke-width="0" /><circle cx="819" cy="493" fill="#2b92db" r="3.5" stroke-width="0" /><circle cx="801" cy="481" fill="#2b92db" r="3.5" stroke-width="0" /><circle cx="849" cy="481" fill="#2b92db" r="3.5" stroke-width="0" /><circle cx="773" cy="475" fill="#2b92db" r="3.5" stroke-width="0" /><circle cx="865" cy="474" fill="#2b92db" r="3.5" stroke-width="0" /><circle cx="853" cy="470" fill="#2b92db" r="3.5" stroke-width="0" /><circle cx="851" cy="468" fill="#2b92db" r="3.5" stroke-width="0" /><circle cx="819" cy="455" fill="#2b92db" r="3.5" stroke-width="0" /><circle cx="842" cy="452" fill="#2b92db" r="3.5" stroke-width="0" /><circle cx="868" cy="451" fill="#2b92db" r="3.5" stroke-width="0" /><circle cx="780" cy="450" fill="#2b92db" r="3.5" stroke-width="0" /><circle cx="832" cy="442" fill="#2b92db" r="3.5" stroke-width="0" /><circle cx="813" cy="439" fill="#2b92db" r="3.5" stroke-width="0" /><circle cx="747" cy="428" fill="#2b92db" r="3.5" stroke-width="0" /><circle cx="871" cy="427" fill="#2b92db" r="3.5" stroke-width="0" /><circle cx="781" cy="417" fill="#2b92db" r="3.5" stroke-width="0" /><circle cx="810" cy="411" fill="#2b92db" r="3.5" stroke-width="0" /><circle cx="867" cy="409" fill="#2b92db" r="3.5" stroke-width="0" /><circle cx="824" cy="407" fill="#2b92db" r="3.5" stroke-width="0" /><circle cx="860" cy="400" fill="#2b92db" r="3.5" stroke-width="0" /><circle cx="912" cy="396" fill="#2b92db" r="3.5" stroke-width="0" /><circle cx="874" cy="384" fill="#2b92db" r="3.5" stroke-width="0" /><circle cx="874" cy="381" fill="#2b92db" r="3.5" stroke-width="0" /><circle cx="795" cy="376" fill="#2b92db" r="3.5" stroke-width="0" /><circle cx="806" cy="368" fill="#2b92db" r="3.5" stroke-width="0" /><circle cx="832" cy="351" fill="#2b92db" r="3.5" stroke-width="0" /><circle cx="837" cy="348" fill="#2b92db" r="3.5" stroke-width="0" /><circle cx="775" cy="346" fill="#2b92db" r="3.5" stroke-width="0" /><circle cx="824" cy="343" fill="#2b92db" r="3.5" stroke-width="0" /><circle cx="763" cy="338" fill="#2b92db" r="3.5" stroke-width="0" /><circle cx="812" cy="336" fill="#2b92db" r="3.5" stroke-width="0" /><circle cx="819" cy="332" fill="#2b92db" r="3.5" stroke-width="0" /><circle cx="786" cy="327" fill="#2b92db" r="3.5" stroke-width="0" /><circle cx="817" cy="327" fill="#2b92db" r="3.5" stroke-width="0" /><circle cx="816" cy="325" fill="#2b92db" r="3.5" stroke-width="0" /><circle cx="667" cy="324" fill="#2b92db" r="3.5" stroke-width="0" /><circle cx="843" cy="315" fill="#2b92db" r="3.5" stroke-width="0" /><circle cx="884" cy="314" fill="#2b92db" r="3.5" stroke-width="0" /><circle cx="736" cy="309" fill="#2b92db" r="3.5" stroke-width="0" /><circle cx="814" cy="301" fill="#2b92db" r="3.5" stroke-width="0" /><circle cx="879" cy="300" fill="#2b92db" r="3.5" stroke-width="0" /><circle cx="791" cy="296" fill="#2b92db" r="3.5" stroke-width="0" /><circle cx="834" cy="295" fill="#2b92db" r="3.5" stroke-width="0" /><circle cx="798" cy="294" fill="#2b92db" r="3.5" stroke-width="0" /><circle cx="862" cy="293" fill="#2b92db" r="3.5" stroke-width="0" /><circle cx="776" cy="291" fill="#2b92db" r="3.5" stroke-width="0" /><circle cx="781" cy="291" fill="#2b92db" r="3.5" stroke-width="0" /><circle cx="849" cy="291" fill="#2b92db" r="3.5" stroke-width="0" /><circle cx="794" cy="283" fill="#2b92db" r="3.5" stroke-width="0" /><circle cx="885" cy="274" fill="#2b92db" r="3.5" stroke-width="0" /><circle cx="807" cy="267" fill="#2b92db" r="3.5" stroke-width="0" /><circle cx="831" cy="267" fill="#2b92db" r="3.5" stroke-width="0" /><circle cx="918" cy="265" fill="#2b92db" r="3.5" stroke-width="0" /><circle cx="802" cy="264" fill="#2b92db" r="3.5" stroke-width="0" /><circle cx="748" cy="263" fill="#2b92db" r="3.5" stroke-width="0" /><circle cx="785" cy="263" fill="#2b92db" r="3.5" stroke-width="0" /><circle cx="843" cy="259" fill="#2b92db" r="3.5" stroke-width="0" /><circle cx="816" cy="253" fill="#2b92db" r="3.5" stroke-width="0" /><circle cx="910" cy="252" fill="#2b92db" r="3.5" stroke-width="0" /><circle cx="853" cy="251" fill="#2b92db" r="3.5" stroke-width="0" /><circle cx="848" cy="250" fill="#2b92db" r="3.5" stroke-width="0" /><circle cx="823" cy="246" fill="#2b92db" r="3.5" stroke-width="0" /><circle cx="810" cy="231" fill="#2b92db" r="3.5" stroke-width="0" /><circle cx="790" cy="230" fill="#2b92db" r="3.5" stroke-width="0" /><circle cx="812" cy="228" fill="#2b92db" r="3.5" stroke-width="0" /><circle cx="831" cy="220" fill="#2b92db" r="3.5" stroke-width="0" /><circle cx="727" cy="218" fill="#2b92db" r="3.5" stroke-width="0" /><circle cx="818" cy="218" fill="#2b92db" r="3.5" stroke-width="0" /><circle cx="808" cy="215" fill="#2b92db" r="3.5" stroke-width="0" /><circle cx="746" cy="214" fill="#2b92db" r="3.5" stroke-width="0" /><circle cx="750" cy="212" fill="#2b92db" r="3.5" stroke-width="0" /><circle cx="811" cy="202" fill="#2b92db" r="3.5" stroke-width="0" /><circle cx="846" cy="200" fill="#2b92db" r="3.5" stroke-width="0" /><circle cx="764" cy="196" fill="#2b92db" r="3.5" stroke-width="0" /><circle cx="895" cy="189" fill="#2b92db" r="3.5" stroke-width="0" /><circle cx="792" cy="183" fill="#2b92db" r="3.5" stroke-width="0" /><circle cx="914" cy="183" fill="#2b92db" r="3.5" stroke-width="0" /><circle cx="787" cy="180" fill="#2b92db" r="3.5" stroke-width="0" /><circle cx="814" cy="165" fill="#2b92db" r="3.5" stroke-width="0" /><circle cx="842" cy="165" fill="#2b92db" r="3.5" stroke-width="0" /><circle cx="794" cy="161" fill="#2b92db" r="3.5" stroke-width="0" /><circle cx="949" cy="158" fill="#2b92db" r="3.5" stroke-width="0" /><circle cx="878" cy="151" fill="#2b92db" r="3.5" stroke-width="0" /><circle cx="844" cy="148" fill="#2b92db" r="3.5" stroke-width="0" /><circle cx="809" cy="147" fill="#2b92db" r="3.5" stroke-width="0" /><circle cx="836" cy="143" fill="#2b92db" r="3.5" stroke-width="0" /><circle cx="867" cy="131" fill="#2b92db" r="3.5" stroke-width="0" /><circle cx="829" cy="127" fill="#2b92db" r="3.5" stroke-width="0" /><circle cx="890" cy="98" fill="#2b92db" r="3.5" stroke-width="0" /><circle cx="871" cy="86" fill="#2b92db" r="3.5" stroke-width="0" /><circle cx="865" cy="79" fill="#2b92db" r="3.5" stroke-width="0" /></g><g class="e3"><circle cx="204" cy="692" fill="#911eb4" r="3.5" stroke-width="0" /><circle cx="257" cy="674" fill="#911eb4" r="3.5" stroke-width="0" /><circle cx="291" cy="646" fill="#911eb4" r="3.5" stroke-width="0" /><circle cx="271" cy="643" fill="#911eb4" r="3.5" stroke-width="0" /><circle cx="283" cy="642" fill="#911eb4" r="3.5" stroke-width="0" /><circle cx="303" cy="637" fill="#911eb4" r="3.5" stroke-width="0" /><circle cx="316" cy="622" fill="#911eb4" r="3.5" stroke-width="0" /><circle cx="275" cy="619" fill="#911eb4" r="3.5" stroke-width="0" /><circle cx="270" cy="617" fill="#911eb4" r="3.5" stroke-width="0" /><circle cx="338" cy="601" fill="#911eb4" r="3.5" stroke-width="0" /><circle cx="226" cy="600" fill="#911eb4" r="3.5" stroke-width="0" /><circle cx="211" cy="596" fill="#911eb4" r="3.5" stroke-width="0" /><circle cx="229" cy="590" fill="#911eb4" r="3.5" stroke-width="0" /><circle cx="275" cy="587" fill="#911eb4" r="3.5" stroke-width="0" /><circle cx="309" cy="585" fill="#911eb4" r="3.5" stroke-width="0" /><circle cx="339" cy="581" fill="#911eb4" r="3.5" stroke-width="0" /><circle cx="283" cy="580" fill="#911eb4" r="3.5" stroke-width="0" /><circle cx="299" cy="575" fill="#911eb4" r="3.5" stroke-width="0" /><circle cx="342" cy="572" fill="#911eb4" r="3.5" stroke-width="0" /><circle cx="358" cy="572" fill="#911eb4" r="3.5" stroke-width="0" /><circle cx="294" cy="566" fill="#911eb4" r="3.5" stroke-width="0" /><circle cx="316" cy="558" fill="#911eb4" r="3.5" stroke-width="0" /><circle cx="348" cy="556" fill="#911eb4" r="3.5" stroke-width="0" /><circle cx="331" cy="555" fill="#911eb4" r="3.5" stroke-width="0" /><circle cx="360" cy="552" fill="#911eb4" r="3.5" stroke-width="0" /><circle cx="297" cy="551" fill="#911eb4" r="3.5" stroke-width="0" /><circle cx="271" cy="550" fill="#911eb4" r="3.5" stroke-width="0" /><circle cx="181" cy="548" fill="#911eb4" r="3.5" stroke-width="0" /><circle cx="335" cy="546" fill="#911eb4" r="3.5" stroke-width="0" /><circle cx="338" cy="541" fill="#911eb4" r="3.5" stroke-width="0" /><circle cx="359" cy="534" fill="#911eb4" r="3.5" stroke-width="0" /><circle cx="409" cy="530" fill="#911eb4" r="3.5" stroke-width="0" /><circle cx="348" cy="528" fill="#911eb4" r="3.5" stroke-width="0" /><circle cx="204" cy="525" fill="#911eb4" r="3.5" stroke-width="0" /><circle cx="346" cy="525" fill="#911eb4" r="3.5" stroke-width="0" /><circle cx="348" cy="521" fill="#911eb4" r="3.5" stroke-width="0" /><circle cx="327" cy="520" fill="#911eb4" r="3.5" stroke-width="0" /><circle cx="208" cy="518" fill="#911eb4" r="3.5" stroke-width="0" /><circle cx="382" cy="514" fill="#911eb4" r="3.5" stroke-width="0" /><circle cx="335" cy="504" fill="#911eb4" r="3.5" stroke-width="0" /><circle cx="367" cy="502" fill="#911eb4" r="3.5" stroke-width="0" /><circle cx="263" cy="501" fill="#911eb4" r="3.5" stroke-width="0" /><circle cx="421" cy="500" fill="#911eb4" r="3.5" stroke-width="0" /><circle cx="417" cy="497" fill="#911eb4" r="3.5" stroke-width="0" /><circle cx="362" cy="495" fill="#911eb4" r="3.5" stroke-width="0" /><circle cx="330" cy="476" fill="#911eb4" r="3.5" stroke-width="0" /><circle cx="414" cy="475" fill="#911eb4" r="3.5" stroke-width="0" /><circle cx="342" cy="473" fill="#911eb4" r="3.5" stroke-width="0" /><circle cx="322" cy="471" fill="#911eb4" r="3.5" stroke-width="0" /><circle cx="307" cy="465" fill="#911eb4" r="3.5" stroke-width="0" /><circle cx="297" cy="460" fill="#911eb4" r="3.5" stroke-width="0" /><circle cx="322" cy="457" fill="#911eb4" r="3.5" stroke-width="0" /><circle cx="256" cy="456" fill="#911eb4" r="3.5" stroke-width="0" /><circle cx="329" cy="454" fill="#911eb4" r="3.5" stroke-width="0" /><circle cx="278" cy="451" fill="#911eb4" r="3.5" stroke-width="0" /><circle cx="398" cy="450" fill="#911eb4" r="3.5" stroke-width="0" /><circle cx="294" cy="448" fill="#911eb4" r="3.5" stroke-width="0" /><circle cx="345" cy="448" fill="#911eb4" r="3.5" stroke-width="0" /><circle cx="299" cy="446" fill="#911eb4" r="3.5" stroke-width="0" /><circle cx="268" cy="432" fill="#911eb4" r="3.5" stroke-width="0" /><circle cx="332" cy="432" fill="#911eb4" r="3.5" stroke-width="0" /><circle cx="300" cy="431" fill="#911eb4" r="3.5" stroke-width="0" /><circle cx="441" cy="430" fill="#911eb4" r="3.5" stroke-width="0" /><circle cx="379" cy="426" fill="#911eb4" r="3.5" stroke-width="0" /><circle cx="256" cy="425" fill="#911eb4" r="3.5" stroke-width="0" /><circle cx="316" cy="420" fill="#911eb4" r="3.5" stroke-width="0" /><circle cx="326" cy="418" fill="#911eb4" r="3.5" stroke-width="0" /><circle cx="253" cy="413" fill="#911eb4" r="3.5" stroke-width="0" /><circle cx="366" cy="413" fill="#911eb4" r="3.5" stroke-width="0" /><circle cx="355" cy="408" fill="#911eb4" r="3.5" stroke-width="0" /><circle cx="361" cy="407" fill="#911eb4" r="3.5" stroke-width="0" /><circle cx="277" cy="400" fill="#911eb4" r="3.5" stroke-width="0" /><circle cx="293" cy="399" fill="#911eb4" r="3.5" stroke-width="0" /><circle cx="346" cy="396" fill="#911eb4" r="3.5" stroke-width="0" /><circle cx="357" cy="392" fill="#911eb4" r="3.5" stroke-width="0" /><circle cx="308" cy="390" fill="#911eb4" r="3.5" stroke-width="0" /><circle cx="332" cy="390" fill="#911eb4" r="3.5" stroke-width="0" /><circle cx="263" cy="388" fill="#911eb4" r="3.5" stroke-width="0" /><circle cx="391" cy="385" fill="#911eb4" r="3.5" stroke-width="0" /><circle cx="277" cy="384" fill="#911eb4" r="3.5" stroke-width="0" /><circle cx="284" cy="371" fill="#911eb4" r="3.5" stroke-width="0" /><circle cx="383" cy="366" fill="#911eb4" r="3.5" stroke-width="0" /><circle cx="362" cy="363" fill="#911eb4" r="3.5" stroke-width="0" /><circle cx="365" cy="351" fill="#911eb4" r="3.5" stroke-width="0" /><circle cx="323" cy="348" fill="#911eb4" r="3.5" stroke-width="0" /><circle cx="404" cy="348" fill="#911eb4" r="3.5" stroke-width="0" /><circle cx="241" cy="347" fill="#911eb4" r="3.5" stroke-width="0" /><circle cx="330" cy="345" fill="#911eb4" r="3.5" stroke-width="0" /><circle cx="349" cy="336" fill="#911eb4" r="3.5" stroke-width="0" /><circle cx="307" cy="334" fill="#911eb4" r="3.5" stroke-width="0" /><circle cx="404" cy="331" fill="#911eb4" r="3.5" stroke-width="0" /><circle cx="418" cy="330" fill="#911eb4" r="3.5" stroke-width="0" /><circle cx="243" cy="328" fill="#911eb4" r="3.5" stroke-width="0" /><circle cx="285" cy="328" fill="#911eb4" r="3.5" stroke-width="0" /><circle cx="295" cy="326" fill="#911eb4" r="3.5" stroke-width="0" /><circle cx="308" cy="324" fill="#911eb4" r="3.5" stroke-width="0" /><circle cx="339" cy="318" fill="#911eb4" r="3.5" stroke-width="0" /><circle cx="247" cy="310" fill="#911eb4" r="3.5" stroke-width="0" /><circle cx="356" cy="305" fill="#911eb4" r="3.5" stroke-width="0" /><circle cx="367" cy="304" fill="#911eb4" r="3.5" stroke-width="0" /><circle cx="324" cy="287" fill="#911eb4" r="3.5" stroke-width="0" /><circle cx="323" cy="286" fill="#911eb4" r="3.5" stroke-width="0" /><circle cx="293" cy="279" fill="#911eb4" r="3.5" stroke-width="0" /><circle cx="291" cy="274" fill="#911eb4" r="3.5" stroke-width="0" /><circle cx="388" cy="271" fill="#911eb4" r="3.5" stroke-width="0" /><circle cx="296" cy="267" fill="#911eb4" r="3.5" stroke-width="0" /><circle cx="327" cy="266" fill="#911eb4" r="3.5" stroke-width="0" /><circle cx="349" cy="265" fill="#911eb4" r="3.5" stroke-width="0" /><circle cx="387" cy="258" fill="#911eb4" r="3.5" stroke-width="0" /><circle cx="302" cy="250" fill="#911eb4" r="3.5" stroke-width="0" /><circle cx="330" cy="232" fill="#911eb4" r="3.5" stroke-width="0" /><circle cx="336" cy="226" fill="#911eb4" r="3.5" stroke-width="0" /><circle cx="420" cy="223" fill="#911eb4" r="3.5" stroke-width="0" /><circle cx="364" cy="206" fill="#911eb4" r="3.5" stroke-width="0" /><circle cx="387" cy="205" fill="#911eb4" r="3.5" stroke-width="0" /><circle cx="369" cy="191" fill="#911eb4" r="3.5" stroke-width="0" /><circle cx="723" cy="161" fill="#911eb4" r="3.5" stroke-width="0" /><circle cx="752" cy="149" fill="#911eb4" r="3.5" stroke-width="0" /><circle cx="798" cy="119" fill="#911eb4" r="3.5" stroke-width="0" /><circle cx="802" cy="119" fill="#911eb4" r="3.5" stroke-width="0" /><circle cx="808" cy="112" fill="#911eb4" r="3.5" stroke-width="0" /><circle cx="451" cy="110" fill="#911eb4" r="3.5" stroke-width="0" /><circle cx="798" cy="110" fill="#911eb4" r="3.5" stroke-width="0" /><circle cx="837" cy="89" fill="#911eb4" r="3.5" stroke-width="0" /><circle cx="822" cy="85" fill="#911eb4" r="3.5" stroke-width="0" /><circle cx="844" cy="71" fill="#911eb4" r="3.5" stroke-width="0" /><circle cx="852" cy="71" fill="#911eb4" r="3.5" stroke-width="0" /><circle cx="854" cy="71" fill="#911eb4" r="3.5" stroke-width="0" /></g><g class="e4"><circle cx="214" cy="297" fill="#3cb44B" r="3.5" stroke-width="0" /><circle cx="234" cy="287" fill="#3cb44B" r="3.5" stroke-width="0" /><circle cx="258" cy="284" fill="#3cb44B" r="3.5" stroke-width="0" /><circle cx="211" cy="256" fill="#3cb44B" r="3.5" stroke-width="0" /><circle cx="267" cy="256" fill="#3cb44B" r="3.5" stroke-width="0" /><circle cx="303" cy="224" fill="#3cb44B" r="3.5" stroke-width="0" /><circle cx="229" cy="210" fill="#3cb44B" r="3.5" stroke-width="0" /><circle cx="329" cy="205" fill="#3cb44B" r="3.5" stroke-width="0" /><circle cx="347" cy="198" fill="#3cb44B" r="3.5" stroke-width="0" /><circle cx="319" cy="196" fill="#3cb44B" r="3.5" stroke-width="0" /><circle cx="254" cy="188" fill="#3cb44B" r="3.5" stroke-width="0" /><circle cx="329" cy="174" fill="#3cb44B" r="3.5" stroke-width="0" /><circle cx="189" cy="160" fill="#3cb44B" r="3.5" stroke-width="0" /><circle cx="259" cy="157" fill="#3cb44B" r="3.5" stroke-width="0" /><circle cx="366" cy="141" fill="#3cb44B" r="3.5" stroke-width="0" /><circle cx="359" cy="129" fill="#3cb44B" r="3.5" stroke-width="0" /><circle cx="350" cy="102" fill="#3cb44B" r="3.5" stroke-width="0" /><circle cx="303" cy="95" fill="#3cb44B" r="3.5" stroke-width="0" /><circle cx="382" cy="83" fill="#3cb44B" r="3.5" stroke-width="0" /><circle cx="258" cy="81" fill="#3cb44B" r="3.5" stroke-width="0" /><circle cx="352" cy="78" fill="#3cb44B" r="3.5" stroke-width="0" /></g></g></g></svg>