<?xml version="1.0" encoding="utf-8" ?>
<svg baseProfile="full" height="1140px" style="font-size:15;font-family:Arial, san-serif;font-weight:bold;stroke:black;stroke-width:0;fill:#444444" version="1.1" width="1140px" xmlns="http://www.w3.org/2000/svg" xmlns:ev="http://www.w3.org/2001/xml-events" xmlns:xlink="http://www.w3.org/1999/xlink"><defs><clipPath id="areadografico"><rect height="1000" width="1000" x="70" y="70" /></clipPath></defs><g class="master"><g class="poligonos"><polygon clip-path="url(#areadografico)" fill="#000000" fill-opacity="0.1" points="1069,1070 1069,405 405,1070" /><polygon clip-path="url(#areadografico)" fill="#ffffff" fill-opacity="0.1" points="405,1070 -261,1070 1069,-261 1069,405" /><polygon clip-path="url(#areadografico)" fill="#000000" fill-opacity="0.1" points="70,70 70,738 738,70" /></g><g class="linhas"><line fill-opacity="0.3" stroke="#999999" stroke-width="1" x1="1070" x2="1070" y1="1070" y2="70" /><line fill-opacity="0.3" stroke="#999999" stroke-width="1" x1="70" x2="1070" y1="70" y2="70" /><line fill-opacity="0.3" stroke="#999999" stroke-width="1" x1="970" x2="970" y1="1070" y2="70" /><line fill-opacity="0.3" stroke="#999999" stroke-width="1" x1="70" x2="1070" y1="170" y2="170" /><line fill-opacity="0.3" stroke="#999999" stroke-width="1" x1="870" x2="870" y1="1070" y2="70" /><line fill-opacity="0.3" stroke="#999999" stroke-width="1" x1="70" x2="1070" y1="270" y2="270" /><line fill-opacity="0.3" stroke="#999999" stroke-width="1" x1="770" x2="770" y1="1070" y2="70" /><line fill-opacity="0.3" stroke="#999999" stroke-width="1" x1="70" x2="1070" y1="370" y2="370" /><line fill-opacity="0.3" stroke="#999999" stroke-width="1" x1="670" x2="670" y1="1070" y2="70" /><line fill-opacity="0.3" stroke="#999999" stroke-width="1" x1="70" x2="1070" y1="470" y2="470" /><line fill-opacity="0.3" stroke="#999999" stroke-width="1" x1="570" x2="570" y1="1070" y2="70" /><line fill-opacity="0.3" stroke="#999999" stroke-width="1" x1="70" x2="1070" y1="570" y2="570" /><line fill-opacity="0.3" stroke="#999999" stroke-width="1" x1="470" x2="470" y1="1070" y2="70" /><line fill-opacity="0.3" stroke="#999999" stroke-width="1" x1="70" x2="1070" y1="670" y2="670" /><line fill-opacity="0.3" stroke="#999999" stroke-width="1" x1="370" x2="370" y1="1070" y2="70" /><line fill-opacity="0.3" stroke="#999999" stroke-width="1" x1="70" x2="1070" y1="770" y2="770" /><line fill-opacity="0.3" stroke="#999999" stroke-width="1" x1="270" x2="270" y1="1070" y2="70" /><line fill-opacity="0.3" stroke="#999999" stroke-width="1" x1="70" x2="1070" y1="870" y2="870" /><line fill-opacity="0.3" stroke="#999999" stroke-width="1" x1="170" x2="170" y1="1070" y2="70" /><line fill-opacity="0.3" stroke="#999999" stroke-width="1" x1="70" x2="1070" y1="970" y2="970" /><line fill-opacity="0.3" stroke="#000000" stroke-width="1" x1="70" x2="70" y1="1071" y2="69" /><line fill-opacity="0.3" stroke="#000000" stroke-width="1" x1="69" x2="1071" y1="1070" y2="1070" /></g><g class="textos"><text x="1050" y="1110">1000</text><text x="10" y="71">1000</text><text x="950" y="1110">900</text><text x="10" y="171">900</text><text x="850" y="1110">800</text><text x="10" y="271">800</text><text x="750" y="1110">700</text><text x="10" y="371">700</text><text x="650" y="1110">600</text><text x="10" y="471">600</text><text x="550" y="1110">500</text><text x="10" y="571">500</text><text x="450" y="1110">400</text><text x="10" y="671">400</text><text x="350" y="1110">300</text><text x="10" y="771">300</text><text x="250" y="1110">200</text><text x="10" y="871">200</text><text x="150" y="1110">100</text><text x="10" y="971">100</text><text x="50" y="1111">0</text><text x="9" y="1071">0</text></g><g class="especies"><g class="e0"><circle cx="829" cy="1037" fill="#3cb44B" r="3.5" stroke-width="0" /><circle cx="835" cy="988" fill="#3cb44B" r="3.5" stroke-width="0" /><circle cx="859" cy="987" fill="#3cb44B" r="3.5" stroke-width="0" /><circle cx="754" cy="985" fill="#3cb44B" r="3.5" stroke-width="0" /><circle cx="891" cy="980" fill="#3cb44B" r="3.5" stroke-width="0" /><circle cx="782" cy="973" fill="#3cb44B" r="3.5" stroke-width="0" /><circle cx="794" cy="967" fill="#3cb44B" r="3.5" stroke-width="0" /><circle cx="809" cy="955" fill="#3cb44B" r="3.5" stroke-width="0" /><circle cx="840" cy="937" fill="#3cb44B" r="3.5" stroke-width="0" /><circle cx="796" cy="933" fill="#3cb44B" r="3.5" stroke-width="0" /><circle cx="812" cy="929" fill="#3cb44B" r="3.5" stroke-width="0" /><circle cx="836" cy="907" fill="#3cb44B" r="3.5" stroke-width="0" /><circle cx="805" cy="892" fill="#3cb44B" r="3.5" stroke-width="0" /><circle cx="765" cy="884" fill="#3cb44B" r="3.5" stroke-width="0" /><circle cx="781" cy="852" fill="#3cb44B" r="3.5" stroke-width="0" /><circle cx="823" cy="847" fill="#3cb44B" r="3.5" stroke-width="0" /><circle cx="766" cy="825" fill="#3cb44B" r="3.5" stroke-width="0" /><circle cx="835" cy="821" fill="#3cb44B" r="3.5" stroke-width="0" /><circle cx="764" cy="803" fill="#3cb44B" r="3.5" stroke-width="0" /><circle cx="823" cy="794" fill="#3cb44B" r="3.5" stroke-width="0" /><circle cx="781" cy="768" fill="#3cb44B" r="3.5" stroke-width="0" /><circle cx="841" cy="749" fill="#3cb44B" r="3.5" stroke-width="0" /><circle cx="834" cy="740" fill="#3cb44B" r="3.5" stroke-width="0" /><circle cx="846" cy="737" fill="#3cb44B" r="3.5" stroke-width="0" /><circle cx="813" cy="732" fill="#3cb44B" r="3.5" stroke-width="0" /><circle cx="894" cy="724" fill="#3cb44B" r="3.5" stroke-width="0" /><circle cx="785" cy="708" fill="#3cb44B" r="3.5" stroke-width="0" /><circle cx="797" cy="707" fill="#3cb44B" r="3.5" stroke-width="0" /><circle cx="825" cy="695" fill="#3cb44B" r="3.5" stroke-width="0" /><circle cx="875" cy="691" fill="#3cb44B" r="3.5" stroke-width="0" /><circle cx="816" cy="682" fill="#3cb44B" r="3.5" stroke-width="0" /><circle cx="810" cy="678" fill="#3cb44B" r="3.5" stroke-width="0" /><circle cx="906" cy="592" fill="#3cb44B" r="3.5" stroke-width="0" /></g><g class="e1"><circle cx="337" cy="1058" fill="#ff0000" r="3.5" stroke-width="0" /><circle cx="310" cy="1008" fill="#ff0000" r="3.5" stroke-width="0" /><circle cx="242" cy="944" fill="#ff0000" r="3.5" stroke-width="0" /><circle cx="288" cy="941" fill="#ff0000" r="3.5" stroke-width="0" /><circle cx="328" cy="925" fill="#ff0000" r="3.5" stroke-width="0" /><circle cx="332" cy="905" fill="#ff0000" r="3.5" stroke-width="0" /><circle cx="347" cy="888" fill="#ff0000" r="3.5" stroke-width="0" /><circle cx="300" cy="886" fill="#ff0000" r="3.5" stroke-width="0" /><circle cx="359" cy="879" fill="#ff0000" r="3.5" stroke-width="0" /><circle cx="307" cy="849" fill="#ff0000" r="3.5" stroke-width="0" /><circle cx="340" cy="811" fill="#ff0000" r="3.5" stroke-width="0" /><circle cx="306" cy="784" fill="#ff0000" r="3.5" stroke-width="0" /><circle cx="343" cy="774" fill="#ff0000" r="3.5" stroke-width="0" /><circle cx="698" cy="759" fill="#ff0000" r="3.5" stroke-width="0" /><circle cx="325" cy="752" fill="#ff0000" r="3.5" stroke-width="0" /><circle cx="370" cy="752" fill="#ff0000" r="3.5" stroke-width="0" /><circle cx="265" cy="741" fill="#ff0000" r="3.5" stroke-width="0" /><circle cx="729" cy="724" fill="#ff0000" r="3.5" stroke-width="0" /><circle cx="340" cy="721" fill="#ff0000" r="3.5" stroke-width="0" /><circle cx="380" cy="716" fill="#ff0000" r="3.5" stroke-width="0" /><circle cx="350" cy="703" fill="#ff0000" r="3.5" stroke-width="0" /><circle cx="355" cy="697" fill="#ff0000" r="3.5" stroke-width="0" /><circle cx="301" cy="688" fill="#ff0000" r="3.5" stroke-width="0" /><circle cx="787" cy="681" fill="#ff0000" r="3.5" stroke-width="0" /><circle cx="738" cy="680" fill="#ff0000" r="3.5" stroke-width="0" /><circle cx="813" cy="651" fill="#ff0000" r="3.5" stroke-width="0" /><circle cx="350" cy="635" fill="#ff0000" r="3.5" stroke-width="0" /><circle cx="811" cy="633" fill="#ff0000" r="3.5" stroke-width="0" /><circle cx="286" cy="632" fill="#ff0000" r="3.5" stroke-width="0" /><circle cx="268" cy="631" fill="#ff0000" r="3.5" stroke-width="0" /><circle cx="320" cy="624" fill="#ff0000" r="3.5" stroke-width="0" /><circle cx="769" cy="620" fill="#ff0000" r="3.5" stroke-width="0" /><circle cx="282" cy="617" fill="#ff0000" r="3.5" stroke-width="0" /><circle cx="833" cy="616" fill="#ff0000" r="3.5" stroke-width="0" /><circle cx="350" cy="612" fill="#ff0000" r="3.5" stroke-width="0" /><circle cx="820" cy="609" fill="#ff0000" r="3.5" stroke-width="0" /><circle cx="298" cy="600" fill="#ff0000" r="3.5" stroke-width="0" /><circle cx="339" cy="591" fill="#ff0000" r="3.5" stroke-width="0" /><circle cx="871" cy="590" fill="#ff0000" r="3.5" stroke-width="0" /><circle cx="349" cy="586" fill="#ff0000" r="3.5" stroke-width="0" /><circle cx="794" cy="586" fill="#ff0000" r="3.5" stroke-width="0" /><circle cx="311" cy="585" fill="#ff0000" r="3.5" stroke-width="0" /><circle cx="253" cy="580" fill="#ff0000" r="3.5" stroke-width="0" /><circle cx="369" cy="580" fill="#ff0000" r="3.5" stroke-width="0" /><circle cx="366" cy="579" fill="#ff0000" r="3.5" stroke-width="0" /><circle cx="274" cy="573" fill="#ff0000" r="3.5" stroke-width="0" /><circle cx="876" cy="572" fill="#ff0000" r="3.5" stroke-width="0" /><circle cx="767" cy="571" fill="#ff0000" r="3.5" stroke-width="0" /><circle cx="833" cy="569" fill="#ff0000" r="3.5" stroke-width="0" /><circle cx="321" cy="556" fill="#ff0000" r="3.5" stroke-width="0" /><circle cx="299" cy="552" fill="#ff0000" r="3.5" stroke-width="0" /><circle cx="806" cy="552" fill="#ff0000" r="3.5" stroke-width="0" /><circle cx="804" cy="540" fill="#ff0000" r="3.5" stroke-width="0" /><circle cx="332" cy="537" fill="#ff0000" r="3.5" stroke-width="0" /><circle cx="408" cy="536" fill="#ff0000" r="3.5" stroke-width="0" /><circle cx="767" cy="532" fill="#ff0000" r="3.5" stroke-width="0" /><circle cx="795" cy="531" fill="#ff0000" r="3.5" stroke-width="0" /><circle cx="847" cy="519" fill="#ff0000" r="3.5" stroke-width="0" /><circle cx="843" cy="511" fill="#ff0000" r="3.5" stroke-width="0" /><circle cx="332" cy="508" fill="#ff0000" r="3.5" stroke-width="0" /><circle cx="394" cy="507" fill="#ff0000" r="3.5" stroke-width="0" /><circle cx="891" cy="506" fill="#ff0000" r="3.5" stroke-width="0" /><circle cx="352" cy="500" fill="#ff0000" r="3.5" stroke-width="0" /><circle cx="832" cy="482" fill="#ff0000" r="3.5" stroke-width="0" /><circle cx="403" cy="476" fill="#ff0000" r="3.5" stroke-width="0" /><circle cx="820" cy="476" fill="#ff0000" r="3.5" stroke-width="0" /><circle cx="822" cy="455" fill="#ff0000" r="3.5" stroke-width="0" /><circle cx="382" cy="453" fill="#ff0000" r="3.5" stroke-width="0" /><circle cx="770" cy="451" fill="#ff0000" r="3.5" stroke-width="0" /><circle cx="857" cy="450" fill="#ff0000" r="3.5" stroke-width="0" /><circle cx="774" cy="439" fill="#ff0000" r="3.5" stroke-width="0" /><circle cx="829" cy="427" fill="#ff0000" r="3.5" stroke-width="0" /><circle cx="820" cy="403" fill="#ff0000" r="3.5" stroke-width="0" /><circle cx="757" cy="402" fill="#ff0000" r="3.5" stroke-width="0" /><circle cx="894" cy="400" fill="#ff0000" r="3.5" stroke-width="0" /><circle cx="801" cy="379" fill="#ff0000" r="3.5" stroke-width="0" /><circle cx="809" cy="372" fill="#ff0000" r="3.5" stroke-width="0" /><circle cx="814" cy="363" fill="#ff0000" r="3.5" stroke-width="0" /><circle cx="779" cy="360" fill="#ff0000" r="3.5" stroke-width="0" /><circle cx="832" cy="355" fill="#ff0000" r="3.5" stroke-width="0" /><circle cx="831" cy="352" fill="#ff0000" r="3.5" stroke-width="0" /><circle cx="776" cy="349" fill="#ff0000" r="3.5" stroke-width="0" /><circle cx="942" cy="326" fill="#ff0000" r="3.5" stroke-width="0" /><circle cx="834" cy="316" fill="#ff0000" r="3.5" stroke-width="0" /><circle cx="905" cy="298" fill="#ff0000" r="3.5" stroke-width="0" /><circle cx="827" cy="297" fill="#ff0000" r="3.5" stroke-width="0" /><circle cx="838" cy="289" fill="#ff0000" r="3.5" stroke-width="0" /><circle cx="767" cy="288" fill="#ff0000" r="3.5" stroke-width="0" /><circle cx="835" cy="270" fill="#ff0000" r="3.5" stroke-width="0" /><circle cx="845" cy="260" fill="#ff0000" r="3.5" stroke-width="0" /><circle cx="789" cy="234" fill="#ff0000" r="3.5" stroke-width="0" /><circle cx="817" cy="213" fill="#ff0000" r="3.5" stroke-width="0" /><circle cx="884" cy="208" fill="#ff0000" r="3.5" stroke-width="0" /><circle cx="749" cy="207" fill="#ff0000" r="3.5" stroke-width="0" /><circle cx="780" cy="206" fill="#ff0000" r="3.5" stroke-width="0" /><circle cx="818" cy="196" fill="#ff0000" r="3.5" stroke-width="0" /><circle cx="799" cy="188" fill="#ff0000" r="3.5" stroke-width="0" /><circle cx="751" cy="185" fill="#ff0000" r="3.5" stroke-width="0" /><circle cx="830" cy="157" fill="#ff0000" r="3.5" stroke-width="0" /><circle cx="799" cy="115" fill="#ff0000" r="3.5" stroke-width="0" /><circle cx="826" cy="88" fill="#ff0000" r="3.5" stroke-width="0" /><circle cx="862" cy="84" fill="#ff0000" r="3.5" stroke-width="0" /><circle cx="816" cy="74" fill="#ff0000" r="3.5" stroke-width="0" /></g><g class="e2"><circle cx="247" cy="550" fill="#2b92db" r="3.5" stroke-width="0" /><circle cx="281" cy="522" fill="#2b92db" r="3.5" stroke-width="0" /><circle cx="281" cy="514" fill="#2b92db" r="3.5" stroke-width="0" /><circle cx="319" cy="480" fill="#2b92db" r="3.5" stroke-width="0" /><circle cx="318" cy="457" fill="#2b92db" r="3.5" stroke-width="0" /><circle cx="292" cy="453" fill="#2b92db" r="3.5" stroke-width="0" /><circle cx="295" cy="453" fill="#2b92db" r="3.5" stroke-width="0" /><circle cx="314" cy="443" fill="#2b92db" r="3.5" stroke-width="0" /><circle cx="358" cy="440" fill="#2b92db" r="3.5" stroke-width="0" /><circle cx="220" cy="422" fill="#2b92db" r="3.5" stroke-width="0" /><circle cx="288" cy="406" fill="#2b92db" r="3.5" stroke-width="0" /><circle cx="354" cy="388" fill="#2b92db" r="3.5" stroke-width="0" /><circle cx="285" cy="387" fill="#2b92db" r="3.5" stroke-width="0" /><circle cx="292" cy="384" fill="#2b92db" r="3.5" stroke-width="0" /><circle cx="306" cy="365" fill="#2b92db" r="3.5" stroke-width="0" /><circle cx="293" cy="364" fill="#2b92db" r="3.5" stroke-width="0" /><circle cx="294" cy="363" fill="#2b92db" r="3.5" stroke-width="0" /><circle cx="277" cy="346" fill="#2b92db" r="3.5" stroke-width="0" /><circle cx="347" cy="345" fill="#2b92db" r="3.5" stroke-width="0" /><circle cx="376" cy="316" fill="#2b92db" r="3.5" stroke-width="0" /><circle cx="302" cy="292" fill="#2b92db" r="3.5" stroke-width="0" /><circle cx="295" cy="284" fill="#2b92db" r="3.5" stroke-width="0" /><circle cx="390" cy="284" fill="#2b92db" r="3.5" stroke-width="0" /><circle cx="328" cy="279" fill="#2b92db" r="3.5" stroke-width="0" /><circle cx="264" cy="278" fill="#2b92db" r="3.5" stroke-width="0" /><circle cx="252" cy="276" fill="#2b92db" r="3.5" stroke-width="0" /><circle cx="290" cy="268" fill="#2b92db" r="3.5" stroke-width="0" /><circle cx="347" cy="240" fill="#2b92db" r="3.5" stroke-width="0" /><circle cx="321" cy="239" fill="#2b92db" r="3.5" stroke-width="0" /><circle cx="378" cy="239" fill="#2b92db" r="3.5" stroke-width="0" /><circle cx="274" cy="227" fill="#2b92db" r="3.5" stroke-width="0" /><circle cx="338" cy="222" fill="#2b92db" r="3.5" stroke-width="0" /><circle cx="354" cy="216" fill="#2b92db" r="3.5" stroke-width="0" /><circle cx="381" cy="205" fill="#2b92db" r="3.5" stroke-width="0" /><circle cx="289" cy="203" fill="#2b92db" r="3.5" stroke-width="0" /><circle cx="258" cy="200" fill="#2b92db" r="3.5" stroke-width="0" /><circle cx="319" cy="179" fill="#2b92db" r="3.5" stroke-width="0" /><circle cx="339" cy="162" fill="#2b92db" r="3.5" stroke-width="0" /><circle cx="320" cy="160" fill="#2b92db" r="3.5" stroke-width="0" /><circle cx="367" cy="158" fill="#2b92db" r="3.5" stroke-width="0" /><circle cx="315" cy="157" fill="#2b92db" r="3.5" stroke-width="0" /><circle cx="311" cy="140" fill="#2b92db" r="3.5" stroke-width="0" /><circle cx="343" cy="120" fill="#2b92db" r="3.5" stroke-width="0" /><circle cx="338" cy="94" fill="#2b92db" r="3.5" stroke-width="0" /><circle cx="279" cy="81" fill="#2b92db" r="3.5" stroke-width="0" /><circle cx="321" cy="79" fill="#2b92db" r="3.5" stroke-width="0" /></g></g></g></svg>