<?xml version="1.0" encoding="utf-8" ?>
<svg baseProfile="full" height="1140px" style="font-size:15;font-family:Arial, san-serif;font-weight:bold;stroke:black;stroke-width:0;fill:#444444" version="1.1" width="1140px" xmlns="http://www.w3.org/2000/svg" xmlns:ev="http://www.w3.org/2001/xml-events" xmlns:xlink="http://www.w3.org/1999/xlink"><defs><clipPath id="areadografico"><rect height="1000" width="1000" x="70" y="70" /></clipPath></defs><g class="master"><g class="poligonos"><polygon clip-path="url(#areadografico)" fill="#000000" fill-opacity="0.1" points="1069,1070 1069,890 890,1070" /><polygon clip-path="url(#areadografico)" fill="#ffffff" fill-opacity="0.1" points="890,1070 709,1070 1069,709 1069,890" /><polygon clip-path="url(#areadografico)" fill="#000000" fill-opacity="0.1" points="709,1070 528,1070 1069,528 1069,709" /><polygon clip-path="url(#areadografico)" fill="#ffffff" fill-opacity="0.1" points="528,1070 347,1070 1069,347 1069,528" /><polygon clip-path="url(#areadografico)" fill="#000000" fill-opacity="0.1" points="347,1070 166,1070 1069,166 1069,347" /><polygon clip-path="url(#areadografico)" fill="#ffffff" fill-opacity="0.1" points="166,1070 -15,1070 1069,-15 1069,166" /><polygon clip-path="url(#areadografico)" fill="#000000" fill-opacity="0.1" points="-15,1070 -196,1070 1069,-196 1069,-15" /><polygon clip-path="url(#areadografico)" fill="#ffffff" fill-opacity="0.1" points="-196,1070 -377,1070 1069,-377 1069,-196" /><polygon clip-path="url(#areadografico)" fill="#000000" fill-opacity="0.1" points="-377,1070 -558,1070 1069,-558 1069,-377" /><polygon clip-path="url(#areadografico)" fill="#ffffff" fill-opacity="0.1" points="-558,1070 -739,1070 1069,-739 1069,-558" /><polygon clip-path="url(#areadografico)" fill="#000000" fill-opacity="0.1" points="70,70 70,260 260,70" /></g><g class="linhas"><line fill-opacity="0.3" stroke="#999999" stroke-width="1" x1="1070" x2="1070" y1="1070" y2="70" /><line fill-opacity="0.3" stroke="#999999" stroke-width="1" x1="70" x2="1070" y1="70" y2="70" /><line fill-opacity="0.3" stroke="#999999" stroke-width="1" x1="970" x2="970" y1="1070" y2="70" /><line fill-opacity="0.3" stroke="#999999" stroke-width="1" x1="70" x2="1070" y1="170" y2="170" /><line fill-opacity="0.3" stroke="#999999" stroke-width="1" x1="870" x2="870" y1="1070" y2="70" /><line fill-opacity="0.3" stroke="#999999" stroke-width="1" x1="70" x2="1070" y1="270" y2="270" /><line fill-opacity="0.3" stroke="#999999" stroke-width="1" x1="770" x2="770" y1="1070" y2="70" /><line fill-opacity="0.3" stroke="#999999" stroke-width="1" x1="70" x2="1070" y1="370" y2="370" /><line fill-opacity="0.3" stroke="#999999" stroke-width="1" x1="670" x2="670" y1="1070" y2="70" /><line fill-opacity="0.3" stroke="#999999" stroke-width="1" x1="70" x2="1070" y1="470" y2="470" /><line fill-opacity="0.3" stroke="#999999" stroke-width="1" x1="570" x2="570" y1="1070" y2="70" /><line fill-opacity="0.3" stroke="#999999" stroke-width="1" x1="70" x2="1070" y1="570" y2="570" /><line fill-opacity="0.3" stroke="#999999" stroke-width="1" x1="470" x2="470" y1="1070" y2="70" /><line fill-opacity="0.3" stroke="#999999" stroke-width="1" x1="70" x2="1070" y1="670" y2="670" /><line fill-opacity="0.3" stroke="#999999" stroke-width="1" x1="370" x2="370" y1="1070" y2="70" /><line fill-opacity="0.3" stroke="#999999" stroke-width="1" x1="70" x2="1070" y1="770" y2="770" /><line fill-opacity="0.3" stroke="#999999" stroke-width="1" x1="270" x2="270" y1="1070" y2="70" /><line fill-opacity="0.3" stroke="#999999" stroke-width="1" x1="70" x2="1070" y1="870" y2="870" /><line fill-opacity="0.3" stroke="#999999" stroke-width="1" x1="170" x2="170" y1="1070" y2="70" /><line fill-opacity="0.3" stroke="#999999" stroke-width="1" x1="70" x2="1070" y1="970" y2="970" /><line fill-opacity="0.3" stroke="#000000" stroke-width="1" x1="70" x2="70" y1="1071" y2="69" /><line fill-opacity="0.3" stroke="#000000" stroke-width="1" x1="69" x2="1071" y1="1070" y2="1070" /></g><g class="textos"><text x="1050" y="1110">1000</text><text x="10" y="71">1000</text><text x="950" y="1110">900</text><text x="10" y="171">900</text><text x="850" y="1110">800</text><text x="10" y="271">800</text><text x="750" y="1110">700</text><text x="10" y="371">700</text><text x="650" y="1110">600</text><text x="10" y="471">600</text><text x="550" y="1110">500</text><text x="10" y="571">500</text><text x="450" y="1110">400</text><text x="10" y="671">400</text><text x="350" y="1110">300</text><text x="10" y="771">300</text><text x="250" y="1110">200</text><text x="10" y="871">200</text><text x="150" y="1110">100</text><text x="10" y="971">100</text><text x="50" y="1111">0</text><text x="9" y="1071">0</text></g><g class="especies"><g class="e0"><circle cx="898" cy="1065" fill="#3cb44B" r="3.5" stroke-width="0" /><circle cx="968" cy="1061" fill="#3cb44B" r="3.5" stroke-width="0" /><circle cx="920" cy="1053" fill="#3cb44B" r="3.5" stroke-width="0" /><circle cx="1055" cy="1032" fill="#3cb44B" r="3.5" stroke-width="0" /><circle cx="1038" cy="925" fill="#3cb44B" r="3.5" stroke-width="0" /><circle cx="1069" cy="910" fill="#3cb44B" r="3.5" stroke-width="0" /></g><g class="e1"><circle cx="854" cy="1070" fill="#ff0000" r="3.5" stroke-width="0" /><circle cx="880" cy="1069" fill="#ff0000" r="3.5" stroke-width="0" /><circle cx="843" cy="1057" fill="#ff0000" r="3.5" stroke-width="0" /><circle cx="864" cy="1043" fill="#ff0000" r="3.5" stroke-width="0" /><circle cx="944" cy="1012" fill="#ff0000" r="3.5" stroke-width="0" /><circle cx="947" cy="1001" fill="#ff0000" r="3.5" stroke-width="0" /><circle cx="866" cy="997" fill="#ff0000" r="3.5" stroke-width="0" /><circle cx="933" cy="985" fill="#ff0000" r="3.5" stroke-width="0" /><circle cx="957" cy="983" fill="#ff0000" r="3.5" stroke-width="0" /><circle cx="906" cy="980" fill="#ff0000" r="3.5" stroke-width="0" /><circle cx="818" cy="978" fill="#ff0000" r="3.5" stroke-width="0" /><circle cx="856" cy="976" fill="#ff0000" r="3.5" stroke-width="0" /><circle cx="928" cy="970" fill="#ff0000" r="3.5" stroke-width="0" /><circle cx="962" cy="955" fill="#ff0000" r="3.5" stroke-width="0" /><circle cx="951" cy="950" fill="#ff0000" r="3.5" stroke-width="0" /><circle cx="950" cy="927" fill="#ff0000" r="3.5" stroke-width="0" /><circle cx="891" cy="916" fill="#ff0000" r="3.5" stroke-width="0" /><circle cx="956" cy="914" fill="#ff0000" r="3.5" stroke-width="0" /><circle cx="880" cy="907" fill="#ff0000" r="3.5" stroke-width="0" /><circle cx="1041" cy="900" fill="#ff0000" r="3.5" stroke-width="0" /><circle cx="897" cy="892" fill="#ff0000" r="3.5" stroke-width="0" /><circle cx="1037" cy="884" fill="#ff0000" r="3.5" stroke-width="0" /><circle cx="1029" cy="877" fill="#ff0000" r="3.5" stroke-width="0" /><circle cx="934" cy="848" fill="#ff0000" r="3.5" stroke-width="0" /><circle cx="1061" cy="846" fill="#ff0000" r="3.5" stroke-width="0" /><circle cx="968" cy="834" fill="#ff0000" r="3.5" stroke-width="0" /><circle cx="1062" cy="824" fill="#ff0000" r="3.5" stroke-width="0" /><circle cx="987" cy="804" fill="#ff0000" r="3.5" stroke-width="0" /></g><g class="e2"><circle cx="672" cy="1070" fill="#2b92db" r="3.5" stroke-width="0" /><circle cx="645" cy="1064" fill="#2b92db" r="3.5" stroke-width="0" /><circle cx="676" cy="1058" fill="#2b92db" r="3.5" stroke-width="0" /><circle cx="548" cy="1055" fill="#2b92db" r="3.5" stroke-width="0" /><circle cx="601" cy="1028" fill="#2b92db" r="3.5" stroke-width="0" /><circle cx="598" cy="1016" fill="#2b92db" r="3.5" stroke-width="0" /><circle cx="724" cy="1012" fill="#2b92db" r="3.5" stroke-width="0" /><circle cx="657" cy="1010" fill="#2b92db" r="3.5" stroke-width="0" /><circle cx="634" cy="1008" fill="#2b92db" r="3.5" stroke-width="0" /><circle cx="748" cy="998" fill="#2b92db" r="3.5" stroke-width="0" /><circle cx="613" cy="996" fill="#2b92db" r="3.5" stroke-width="0" /><circle cx="750" cy="991" fill="#2b92db" r="3.5" stroke-width="0" /><circle cx="670" cy="985" fill="#2b92db" r="3.5" stroke-width="0" /><circle cx="724" cy="961" fill="#2b92db" r="3.5" stroke-width="0" /><circle cx="665" cy="955" fill="#2b92db" r="3.5" stroke-width="0" /><circle cx="812" cy="952" fill="#2b92db" r="3.5" stroke-width="0" /><circle cx="682" cy="932" fill="#2b92db" r="3.5" stroke-width="0" /><circle cx="753" cy="931" fill="#2b92db" r="3.5" stroke-width="0" /><circle cx="846" cy="931" fill="#2b92db" r="3.5" stroke-width="0" /><circle cx="731" cy="928" fill="#2b92db" r="3.5" stroke-width="0" /><circle cx="821" cy="912" fill="#2b92db" r="3.5" stroke-width="0" /><circle cx="726" cy="887" fill="#2b92db" r="3.5" stroke-width="0" /><circle cx="833" cy="877" fill="#2b92db" r="3.5" stroke-width="0" /><circle cx="796" cy="873" fill="#2b92db" r="3.5" stroke-width="0" /><circle cx="837" cy="873" fill="#2b92db" r="3.5" stroke-width="0" /><circle cx="750" cy="867" fill="#2b92db" r="3.5" stroke-width="0" /><circle cx="736" cy="864" fill="#2b92db" r="3.5" stroke-width="0" /><circle cx="880" cy="864" fill="#2b92db" r="3.5" stroke-width="0" /><circle cx="747" cy="856" fill="#2b92db" r="3.5" stroke-width="0" /><circle cx="846" cy="853" fill="#2b92db" r="3.5" stroke-width="0" /><circle cx="774" cy="851" fill="#2b92db" r="3.5" stroke-width="0" /><circle cx="858" cy="845" fill="#2b92db" r="3.5" stroke-width="0" /><circle cx="844" cy="830" fill="#2b92db" r="3.5" stroke-width="0" /><circle cx="943" cy="829" fill="#2b92db" r="3.5" stroke-width="0" /><circle cx="921" cy="810" fill="#2b92db" r="3.5" stroke-width="0" /><circle cx="851" cy="794" fill="#2b92db" r="3.5" stroke-width="0" /><circle cx="837" cy="793" fill="#2b92db" r="3.5" stroke-width="0" /><circle cx="836" cy="768" fill="#2b92db" r="3.5" stroke-width="0" /><circle cx="1020" cy="752" fill="#2b92db" r="3.5" stroke-width="0" /><circle cx="870" cy="739" fill="#2b92db" r="3.5" stroke-width="0" /><circle cx="1029" cy="737" fill="#2b92db" r="3.5" stroke-width="0" /><circle cx="957" cy="729" fill="#2b92db" r="3.5" stroke-width="0" /><circle cx="916" cy="725" fill="#2b92db" r="3.5" stroke-width="0" /><circle cx="889" cy="716" fill="#2b92db" r="3.5" stroke-width="0" /><circle cx="911" cy="708" fill="#2b92db" r="3.5" stroke-width="0" /><circle cx="914" cy="686" fill="#2b92db" r="3.5" stroke-width="0" /><circle cx="1045" cy="680" fill="#2b92db" r="3.5" stroke-width="0" /><circle cx="1045" cy="655" fill="#2b92db" r="3.5" stroke-width="0" /><circle cx="1064" cy="654" fill="#2b92db" r="3.5" stroke-width="0" /><circle cx="1048" cy="636" fill="#2b92db" r="3.5" stroke-width="0" /><circle cx="1045" cy="627" fill="#2b92db" r="3.5" stroke-width="0" /><circle cx="1007" cy="607" fill="#2b92db" r="3.5" stroke-width="0" /><circle cx="1038" cy="604" fill="#2b92db" r="3.5" stroke-width="0" /><circle cx="1055" cy="550" fill="#2b92db" r="3.5" stroke-width="0" /></g><g class="e3"><circle cx="405" cy="1059" fill="#911eb4" r="3.5" stroke-width="0" /><circle cx="517" cy="1054" fill="#911eb4" r="3.5" stroke-width="0" /><circle cx="464" cy="1048" fill="#911eb4" r="3.5" stroke-width="0" /><circle cx="495" cy="1039" fill="#911eb4" r="3.5" stroke-width="0" /><circle cx="544" cy="1035" fill="#911eb4" r="3.5" stroke-width="0" /><circle cx="547" cy="1030" fill="#911eb4" r="3.5" stroke-width="0" /><circle cx="535" cy="1024" fill="#911eb4" r="3.5" stroke-width="0" /><circle cx="453" cy="1007" fill="#911eb4" r="3.5" stroke-width="0" /><circle cx="583" cy="1007" fill="#911eb4" r="3.5" stroke-width="0" /><circle cx="426" cy="994" fill="#911eb4" r="3.5" stroke-width="0" /><circle cx="438" cy="982" fill="#911eb4" r="3.5" stroke-width="0" /><circle cx="527" cy="978" fill="#911eb4" r="3.5" stroke-width="0" /><circle cx="644" cy="931" fill="#911eb4" r="3.5" stroke-width="0" /><circle cx="494" cy="930" fill="#911eb4" r="3.5" stroke-width="0" /><circle cx="588" cy="929" fill="#911eb4" r="3.5" stroke-width="0" /><circle cx="573" cy="928" fill="#911eb4" r="3.5" stroke-width="0" /><circle cx="494" cy="927" fill="#911eb4" r="3.5" stroke-width="0" /><circle cx="588" cy="925" fill="#911eb4" r="3.5" stroke-width="0" /><circle cx="622" cy="921" fill="#911eb4" r="3.5" stroke-width="0" /><circle cx="640" cy="921" fill="#911eb4" r="3.5" stroke-width="0" /><circle cx="660" cy="919" fill="#911eb4" r="3.5" stroke-width="0" /><circle cx="544" cy="904" fill="#911eb4" r="3.5" stroke-width="0" /><circle cx="624" cy="904" fill="#911eb4" r="3.5" stroke-width="0" /><circle cx="674" cy="891" fill="#911eb4" r="3.5" stroke-width="0" /><circle cx="619" cy="868" fill="#911eb4" r="3.5" stroke-width="0" /><circle cx="588" cy="862" fill="#911eb4" r="3.5" stroke-width="0" /><circle cx="718" cy="861" fill="#911eb4" r="3.5" stroke-width="0" /><circle cx="586" cy="855" fill="#911eb4" r="3.5" stroke-width="0" /><circle cx="699" cy="847" fill="#911eb4" r="3.5" stroke-width="0" /><circle cx="681" cy="843" fill="#911eb4" r="3.5" stroke-width="0" /><circle cx="736" cy="830" fill="#911eb4" r="3.5" stroke-width="0" /><circle cx="734" cy="827" fill="#911eb4" r="3.5" stroke-width="0" /><circle cx="600" cy="823" fill="#911eb4" r="3.5" stroke-width="0" /><circle cx="705" cy="814" fill="#911eb4" r="3.5" stroke-width="0" /><circle cx="709" cy="797" fill="#911eb4" r="3.5" stroke-width="0" /><circle cx="631" cy="794" fill="#911eb4" r="3.5" stroke-width="0" /><circle cx="731" cy="792" fill="#911eb4" r="3.5" stroke-width="0" /><circle cx="641" cy="788" fill="#911eb4" r="3.5" stroke-width="0" /><circle cx="663" cy="785" fill="#911eb4" r="3.5" stroke-width="0" /><circle cx="768" cy="777" fill="#911eb4" r="3.5" stroke-width="0" /><circle cx="789" cy="771" fill="#911eb4" r="3.5" stroke-width="0" /><circle cx="665" cy="766" fill="#911eb4" r="3.5" stroke-width="0" /><circle cx="773" cy="762" fill="#911eb4" r="3.5" stroke-width="0" /><circle cx="770" cy="757" fill="#911eb4" r="3.5" stroke-width="0" /><circle cx="834" cy="743" fill="#911eb4" r="3.5" stroke-width="0" /><circle cx="762" cy="741" fill="#911eb4" r="3.5" stroke-width="0" /><circle cx="784" cy="729" fill="#911eb4" r="3.5" stroke-width="0" /><circle cx="869" cy="724" fill="#911eb4" r="3.5" stroke-width="0" /><circle cx="804" cy="720" fill="#911eb4" r="3.5" stroke-width="0" /><circle cx="823" cy="702" fill="#911eb4" r="3.5" stroke-width="0" /><circle cx="882" cy="700" fill="#911eb4" r="3.5" stroke-width="0" /><circle cx="726" cy="695" fill="#911eb4" r="3.5" stroke-width="0" /><circle cx="882" cy="688" fill="#911eb4" r="3.5" stroke-width="0" /><circle cx="796" cy="687" fill="#911eb4" r="3.5" stroke-width="0" /><circle cx="734" cy="686" fill="#911eb4" r="3.5" stroke-width="0" /><circle cx="769" cy="684" fill="#911eb4" r="3.5" stroke-width="0" /><circle cx="838" cy="676" fill="#911eb4" r="3.5" stroke-width="0" /><circle cx="807" cy="659" fill="#911eb4" r="3.5" stroke-width="0" /><circle cx="864" cy="642" fill="#911eb4" r="3.5" stroke-width="0" /><circle cx="917" cy="610" fill="#911eb4" r="3.5" stroke-width="0" /><circle cx="999" cy="591" fill="#911eb4" r="3.5" stroke-width="0" /><circle cx="936" cy="590" fill="#911eb4" r="3.5" stroke-width="0" /><circle cx="924" cy="578" fill="#911eb4" r="3.5" stroke-width="0" /><circle cx="990" cy="574" fill="#911eb4" r="3.5" stroke-width="0" /><circle cx="883" cy="562" fill="#911eb4" r="3.5" stroke-width="0" /><circle cx="993" cy="537" fill="#911eb4" r="3.5" stroke-width="0" /><circle cx="931" cy="531" fill="#911eb4" r="3.5" stroke-width="0" /><circle cx="1053" cy="528" fill="#911eb4" r="3.5" stroke-width="0" /><circle cx="940" cy="502" fill="#911eb4" r="3.5" stroke-width="0" /><circle cx="1014" cy="455" fill="#911eb4" r="3.5" stroke-width="0" /><circle cx="1065" cy="452" fill="#911eb4" r="3.5" stroke-width="0" /><circle cx="988" cy="442" fill="#911eb4" r="3.5" stroke-width="0" /><circle cx="1009" cy="433" fill="#911eb4" r="3.5" stroke-width="0" /><circle cx="1024" cy="418" fill="#911eb4" r="3.5" stroke-width="0" /><circle cx="1033" cy="414" fill="#911eb4" r="3.5" stroke-width="0" /><circle cx="1059" cy="371" fill="#911eb4" r="3.5" stroke-width="0" /></g><g class="e4"><circle cx="199" cy="1064" fill="#3cb44B" r="3.5" stroke-width="0" /><circle cx="210" cy="1056" fill="#3cb44B" r="3.5" stroke-width="0" /><circle cx="387" cy="1028" fill="#3cb44B" r="3.5" stroke-width="0" /><circle cx="322" cy="1012" fill="#3cb44B" r="3.5" stroke-width="0" /><circle cx="279" cy="1010" fill="#3cb44B" r="3.5" stroke-width="0" /><circle cx="258" cy="1002" fill="#3cb44B" r="3.5" stroke-width="0" /><circle cx="250" cy="999" fill="#3cb44B" r="3.5" stroke-width="0" /><circle cx="391" cy="996" fill="#3cb44B" r="3.5" stroke-width="0" /><circle cx="408" cy="983" fill="#3cb44B" r="3.5" stroke-width="0" /><circle cx="273" cy="979" fill="#3cb44B" r="3.5" stroke-width="0" /><circle cx="324" cy="948" fill="#3cb44B" r="3.5" stroke-width="0" /><circle cx="316" cy="930" fill="#3cb44B" r="3.5" stroke-width="0" /><circle cx="319" cy="923" fill="#3cb44B" r="3.5" stroke-width="0" /><circle cx="405" cy="922" fill="#3cb44B" r="3.5" stroke-width="0" /><circle cx="384" cy="913" fill="#3cb44B" r="3.5" stroke-width="0" /><circle cx="438" cy="911" fill="#3cb44B" r="3.5" stroke-width="0" /><circle cx="333" cy="910" fill="#3cb44B" r="3.5" stroke-width="0" /><circle cx="461" cy="899" fill="#3cb44B" r="3.5" stroke-width="0" /><circle cx="352" cy="898" fill="#3cb44B" r="3.5" stroke-width="0" /><circle cx="480" cy="892" fill="#3cb44B" r="3.5" stroke-width="0" /><circle cx="531" cy="861" fill="#3cb44B" r="3.5" stroke-width="0" /><circle cx="548" cy="832" fill="#3cb44B" r="3.5" stroke-width="0" /><circle cx="564" cy="821" fill="#3cb44B" r="3.5" stroke-width="0" /><circle cx="556" cy="814" fill="#3cb44B" r="3.5" stroke-width="0" /><circle cx="558" cy="814" fill="#3cb44B" r="3.5" stroke-width="0" /><circle cx="621" cy="794" fill="#3cb44B" r="3.5" stroke-width="0" /><circle cx="518" cy="790" fill="#3cb44B" r="3.5" stroke-width="0" /><circle cx="470" cy="781" fill="#3cb44B" r="3.5" stroke-width="0" /><circle cx="625" cy="779" fill="#3cb44B" r="3.5" stroke-width="0" /><circle cx="588" cy="774" fill="#3cb44B" r="3.5" stroke-width="0" /><circle cx="542" cy="765" fill="#3cb44B" r="3.5" stroke-width="0" /><circle cx="640" cy="752" fill="#3cb44B" r="3.5" stroke-width="0" /><circle cx="592" cy="742" fill="#3cb44B" r="3.5" stroke-width="0" /><circle cx="550" cy="733" fill="#3cb44B" r="3.5" stroke-width="0" /><circle cx="612" cy="733" fill="#3cb44B" r="3.5" stroke-width="0" /><circle cx="537" cy="700" fill="#3cb44B" r="3.5" stroke-width="0" /><circle cx="566" cy="696" fill="#3cb44B" r="3.5" stroke-width="0" /><circle cx="691" cy="695" fill="#3cb44B" r="3.5" stroke-width="0" /><circle cx="716" cy="695" fill="#3cb44B" r="3.5" stroke-width="0" /><circle cx="709" cy="692" fill="#3cb44B" r="3.5" stroke-width="0" /><circle cx="660" cy="685" fill="#3cb44B" r="3.5" stroke-width="0" /><circle cx="712" cy="685" fill="#3cb44B" r="3.5" stroke-width="0" /><circle cx="712" cy="682" fill="#3cb44B" r="3.5" stroke-width="0" /><circle cx="683" cy="680" fill="#3cb44B" r="3.5" stroke-width="0" /><circle cx="613" cy="675" fill="#3cb44B" r="3.5" stroke-width="0" /><circle cx="742" cy="668" fill="#3cb44B" r="3.5" stroke-width="0" /><circle cx="702" cy="667" fill="#3cb44B" r="3.5" stroke-width="0" /><circle cx="730" cy="658" fill="#3cb44B" r="3.5" stroke-width="0" /><circle cx="644" cy="625" fill="#3cb44B" r="3.5" stroke-width="0" /><circle cx="622" cy="621" fill="#3cb44B" r="3.5" stroke-width="0" /><circle cx="788" cy="600" fill="#3cb44B" r="3.5" stroke-width="0" /><circle cx="744" cy="596" fill="#3cb44B" r="3.5" stroke-width="0" /><circle cx="791" cy="586" fill="#3cb44B" r="3.5" stroke-width="0" /><circle cx="828" cy="566" fill="#3cb44B" r="3.5" stroke-width="0" /><circle cx="847" cy="551" fill="#3cb44B" r="3.5" stroke-width="0" /><circle cx="736" cy="535" fill="#3cb44B" r="3.5" stroke-width="0" /><circle cx="842" cy="524" fill="#3cb44B" r="3.5" stroke-width="0" /><circle cx="875" cy="510" fill="#3cb44B" r="3.5" stroke-width="0" /><circle cx="797" cy="486" fill="#3cb44B" r="3.5" stroke-width="0" /><circle cx="929" cy="468" fill="#3cb44B" r="3.5" stroke-width="0" /><circle cx="824" cy="449" fill="#3cb44B" r="3.5" stroke-width="0" /><circle cx="909" cy="448" fill="#3cb44B" r="3.5" stroke-width="0" /><circle cx="836" cy="432" fill="#3cb44B" r="3.5" stroke-width="0" /><circle cx="940" cy="430" fill="#3cb44B" r="3.5" stroke-width="0" /><circle cx="849" cy="399" fill="#3cb44B" r="3.5" stroke-width="0" /><circle cx="983" cy="388" fill="#3cb44B" r="3.5" stroke-width="0" /><circle cx="928" cy="376" fill="#3cb44B" r="3.5" stroke-width="0" /><circle cx="1041" cy="372" fill="#3cb44B" r="3.5" stroke-width="0" /><circle cx="994" cy="360" fill="#3cb44B" r="3.5" stroke-width="0" /><circle cx="970" cy="355" fill="#3cb44B" r="3.5" stroke-width="0" /><circle cx="911" cy="350" fill="#3cb44B" r="3.5" stroke-width="0" /><circle cx="1051" cy="346" fill="#3cb44B" r="3.5" stroke-width="0" /><circle cx="985" cy="343" fill="#3cb44B" r="3.5" stroke-width="0" /><circle cx="935" cy="337" fill="#3cb44B" r="3.5" stroke-width="0" /><circle cx="913" cy="332" fill="#3cb44B" r="3.5" stroke-width="0" /><circle cx="1046" cy="322" fill="#3cb44B" r="3.5" stroke-width="0" /><circle cx="965" cy="319" fill="#3cb44B" r="3.5" stroke-width="0" /><circle cx="1035" cy="319" fill="#3cb44B" r="3.5" stroke-width="0" /><circle cx="1019" cy="315" fill="#3cb44B" r="3.5" stroke-width="0" /><circle cx="972" cy="280" fill="#3cb44B" r="3.5" stroke-width="0" /><circle cx="1063" cy="258" fill="#3cb44B" r="3.5" stroke-width="0" /><circle cx="1061" cy="249" fill="#3cb44B" r="3.5" stroke-width="0" /></g><g class="e5"><circle cx="179" cy="1039" fill="#ff0000" r="3.5" stroke-width="0" /><circle cx="124" cy="1008" fill="#ff0000" r="3.5" stroke-width="0" /><circle cx="132" cy="1005" fill="#ff0000" r="3.5" stroke-width="0" /><circle cx="194" cy="1005" fill="#ff0000" r="3.5" stroke-width="0" /><circle cx="91" cy="984" fill="#ff0000" r="3.5" stroke-width="0" /><circle cx="209" cy="981" fill="#ff0000" r="3.5" stroke-width="0" /><circle cx="108" cy="967" fill="#ff0000" r="3.5" stroke-width="0" /><circle cx="151" cy="955" fill="#ff0000" r="3.5" stroke-width="0" /><circle cx="140" cy="931" fill="#ff0000" r="3.5" stroke-width="0" /><circle cx="144" cy="925" fill="#ff0000" r="3.5" stroke-width="0" /><circle cx="159" cy="917" fill="#ff0000" r="3.5" stroke-width="0" /><circle cx="280" cy="917" fill="#ff0000" r="3.5" stroke-width="0" /><circle cx="214" cy="897" fill="#ff0000" r="3.5" stroke-width="0" /><circle cx="270" cy="895" fill="#ff0000" r="3.5" stroke-width="0" /><circle cx="338" cy="884" fill="#ff0000" r="3.5" stroke-width="0" /><circle cx="386" cy="837" fill="#ff0000" r="3.5" stroke-width="0" /><circle cx="247" cy="827" fill="#ff0000" r="3.5" stroke-width="0" /><circle cx="314" cy="826" fill="#ff0000" r="3.5" stroke-width="0" /><circle cx="316" cy="805" fill="#ff0000" r="3.5" stroke-width="0" /><circle cx="430" cy="798" fill="#ff0000" r="3.5" stroke-width="0" /><circle cx="383" cy="780" fill="#ff0000" r="3.5" stroke-width="0" /><circle cx="357" cy="773" fill="#ff0000" r="3.5" stroke-width="0" /><circle cx="417" cy="768" fill="#ff0000" r="3.5" stroke-width="0" /><circle cx="374" cy="761" fill="#ff0000" r="3.5" stroke-width="0" /><circle cx="339" cy="757" fill="#ff0000" r="3.5" stroke-width="0" /><circle cx="371" cy="752" fill="#ff0000" r="3.5" stroke-width="0" /><circle cx="412" cy="747" fill="#ff0000" r="3.5" stroke-width="0" /><circle cx="402" cy="746" fill="#ff0000" r="3.5" stroke-width="0" /><circle cx="483" cy="743" fill="#ff0000" r="3.5" stroke-width="0" /><circle cx="470" cy="742" fill="#ff0000" r="3.5" stroke-width="0" /><circle cx="421" cy="739" fill="#ff0000" r="3.5" stroke-width="0" /><circle cx="412" cy="734" fill="#ff0000" r="3.5" stroke-width="0" /><circle cx="505" cy="725" fill="#ff0000" r="3.5" stroke-width="0" /><circle cx="448" cy="719" fill="#ff0000" r="3.5" stroke-width="0" /><circle cx="377" cy="709" fill="#ff0000" r="3.5" stroke-width="0" /><circle cx="408" cy="709" fill="#ff0000" r="3.5" stroke-width="0" /><circle cx="353" cy="708" fill="#ff0000" r="3.5" stroke-width="0" /><circle cx="471" cy="701" fill="#ff0000" r="3.5" stroke-width="0" /><circle cx="483" cy="695" fill="#ff0000" r="3.5" stroke-width="0" /><circle cx="384" cy="676" fill="#ff0000" r="3.5" stroke-width="0" /><circle cx="550" cy="671" fill="#ff0000" r="3.5" stroke-width="0" /><circle cx="424" cy="654" fill="#ff0000" r="3.5" stroke-width="0" /><circle cx="450" cy="632" fill="#ff0000" r="3.5" stroke-width="0" /><circle cx="565" cy="628" fill="#ff0000" r="3.5" stroke-width="0" /><circle cx="441" cy="627" fill="#ff0000" r="3.5" stroke-width="0" /><circle cx="564" cy="605" fill="#ff0000" r="3.5" stroke-width="0" /><circle cx="628" cy="594" fill="#ff0000" r="3.5" stroke-width="0" /><circle cx="620" cy="592" fill="#ff0000" r="3.5" stroke-width="0" /><circle cx="530" cy="589" fill="#ff0000" r="3.5" stroke-width="0" /><circle cx="550" cy="587" fill="#ff0000" r="3.5" stroke-width="0" /><circle cx="584" cy="582" fill="#ff0000" r="3.5" stroke-width="0" /><circle cx="517" cy="573" fill="#ff0000" r="3.5" stroke-width="0" /><circle cx="619" cy="572" fill="#ff0000" r="3.5" stroke-width="0" /><circle cx="612" cy="564" fill="#ff0000" r="3.5" stroke-width="0" /><circle cx="555" cy="563" fill="#ff0000" r="3.5" stroke-width="0" /><circle cx="621" cy="544" fill="#ff0000" r="3.5" stroke-width="0" /><circle cx="573" cy="540" fill="#ff0000" r="3.5" stroke-width="0" /><circle cx="532" cy="536" fill="#ff0000" r="3.5" stroke-width="0" /><circle cx="630" cy="536" fill="#ff0000" r="3.5" stroke-width="0" /><circle cx="611" cy="497" fill="#ff0000" r="3.5" stroke-width="0" /><circle cx="734" cy="496" fill="#ff0000" r="3.5" stroke-width="0" /><circle cx="579" cy="492" fill="#ff0000" r="3.5" stroke-width="0" /><circle cx="708" cy="488" fill="#ff0000" r="3.5" stroke-width="0" /><circle cx="611" cy="480" fill="#ff0000" r="3.5" stroke-width="0" /><circle cx="608" cy="475" fill="#ff0000" r="3.5" stroke-width="0" /><circle cx="752" cy="468" fill="#ff0000" r="3.5" stroke-width="0" /><circle cx="659" cy="431" fill="#ff0000" r="3.5" stroke-width="0" /><circle cx="647" cy="424" fill="#ff0000" r="3.5" stroke-width="0" /><circle cx="643" cy="417" fill="#ff0000" r="3.5" stroke-width="0" /><circle cx="749" cy="377" fill="#ff0000" r="3.5" stroke-width="0" /><circle cx="711" cy="372" fill="#ff0000" r="3.5" stroke-width="0" /><circle cx="776" cy="359" fill="#ff0000" r="3.5" stroke-width="0" /><circle cx="822" cy="351" fill="#ff0000" r="3.5" stroke-width="0" /><circle cx="841" cy="347" fill="#ff0000" r="3.5" stroke-width="0" /><circle cx="749" cy="335" fill="#ff0000" r="3.5" stroke-width="0" /><circle cx="849" cy="335" fill="#ff0000" r="3.5" stroke-width="0" /><circle cx="795" cy="327" fill="#ff0000" r="3.5" stroke-width="0" /><circle cx="788" cy="325" fill="#ff0000" r="3.5" stroke-width="0" /><circle cx="753" cy="322" fill="#ff0000" r="3.5" stroke-width="0" /><circle cx="909" cy="321" fill="#ff0000" r="3.5" stroke-width="0" /><circle cx="909" cy="307" fill="#ff0000" r="3.5" stroke-width="0" /><circle cx="791" cy="303" fill="#ff0000" r="3.5" stroke-width="0" /><circle cx="769" cy="295" fill="#ff0000" r="3.5" stroke-width="0" /><circle cx="919" cy="295" fill="#ff0000" r="3.5" stroke-width="0" /><circle cx="928" cy="265" fill="#ff0000" r="3.5" stroke-width="0" /><circle cx="849" cy="260" fill="#ff0000" r="3.5" stroke-width="0" /><circle cx="949" cy="243" fill="#ff0000" r="3.5" stroke-width="0" /><circle cx="962" cy="208" fill="#ff0000" r="3.5" stroke-width="0" /><circle cx="881" cy="206" fill="#ff0000" r="3.5" stroke-width="0" /><circle cx="1003" cy="193" fill="#ff0000" r="3.5" stroke-width="0" /><circle cx="892" cy="182" fill="#ff0000" r="3.5" stroke-width="0" /><circle cx="902" cy="181" fill="#ff0000" r="3.5" stroke-width="0" /><circle cx="936" cy="180" fill="#ff0000" r="3.5" stroke-width="0" /><circle cx="1018" cy="162" fill="#ff0000" r="3.5" stroke-width="0" /><circle cx="1022" cy="155" fill="#ff0000" r="3.5" stroke-width="0" /><circle cx="990" cy="153" fill="#ff0000" r="3.5" stroke-width="0" /><circle cx="985" cy="148" fill="#ff0000" r="3.5" stroke-width="0" /><circle cx="1067" cy="148" fill="#ff0000" r="3.5" stroke-width="0" /><circle cx="947" cy="145" fill="#ff0000" r="3.5" stroke-width="0" /><circle cx="960" cy="123" fill="#ff0000" r="3.5" stroke-width="0" /><circle cx="1045" cy="107" fill="#ff0000" r="3.5" stroke-width="0" /><circle cx="1033" cy="106" fill="#ff0000" r="3.5" stroke-width="0" /><circle cx="1069" cy="106" fill="#ff0000" r="3.5" stroke-width="0" /></g><g class="e6"><circle cx="172" cy="851" fill="#2b92db" r="3.5" stroke-width="0" /><circle cx="210" cy="833" fill="#2b92db" r="3.5" stroke-width="0" /><circle cx="124" cy="832" fill="#2b92db" r="3.5" stroke-width="0" /><circle cx="104" cy="821" fill="#2b92db" r="3.5" stroke-width="0" /><circle cx="99" cy="817" fill="#2b92db" r="3.5" stroke-width="0" /><circle cx="141" cy="811" fill="#2b92db" r="3.5" stroke-width="0" /><circle cx="251" cy="802" fill="#2b92db" r="3.5" stroke-width="0" /><circle cx="133" cy="778" fill="#2b92db" r="3.5" stroke-width="0" /><circle cx="283" cy="747" fill="#2b92db" r="3.5" stroke-width="0" /><circle cx="184" cy="741" fill="#2b92db" r="3.5" stroke-width="0" /><circle cx="158" cy="738" fill="#2b92db" r="3.5" stroke-width="0" /><circle cx="180" cy="738" fill="#2b92db" r="3.5" stroke-width="0" /><circle cx="209" cy="721" fill="#2b92db" r="3.5" stroke-width="0" /><circle cx="246" cy="721" fill="#2b92db" r="3.5" stroke-width="0" /><circle cx="232" cy="712" fill="#2b92db" r="3.5" stroke-width="0" /><circle cx="307" cy="705" fill="#2b92db" r="3.5" stroke-width="0" /><circle cx="208" cy="696" fill="#2b92db" r="3.5" stroke-width="0" /><circle cx="282" cy="682" fill="#2b92db" r="3.5" stroke-width="0" /><circle cx="235" cy="677" fill="#2b92db" r="3.5" stroke-width="0" /><circle cx="252" cy="669" fill="#2b92db" r="3.5" stroke-width="0" /><circle cx="389" cy="654" fill="#2b92db" r="3.5" stroke-width="0" /><circle cx="270" cy="638" fill="#2b92db" r="3.5" stroke-width="0" /><circle cx="320" cy="634" fill="#2b92db" r="3.5" stroke-width="0" /><circle cx="387" cy="634" fill="#2b92db" r="3.5" stroke-width="0" /><circle cx="351" cy="628" fill="#2b92db" r="3.5" stroke-width="0" /><circle cx="397" cy="625" fill="#2b92db" r="3.5" stroke-width="0" /><circle cx="388" cy="613" fill="#2b92db" r="3.5" stroke-width="0" /><circle cx="293" cy="609" fill="#2b92db" r="3.5" stroke-width="0" /><circle cx="293" cy="609" fill="#2b92db" r="3.5" stroke-width="0" /><circle cx="316" cy="584" fill="#2b92db" r="3.5" stroke-width="0" /><circle cx="349" cy="563" fill="#2b92db" r="3.5" stroke-width="0" /><circle cx="399" cy="535" fill="#2b92db" r="3.5" stroke-width="0" /><circle cx="465" cy="518" fill="#2b92db" r="3.5" stroke-width="0" /><circle cx="533" cy="506" fill="#2b92db" r="3.5" stroke-width="0" /><circle cx="464" cy="490" fill="#2b92db" r="3.5" stroke-width="0" /><circle cx="538" cy="484" fill="#2b92db" r="3.5" stroke-width="0" /><circle cx="448" cy="477" fill="#2b92db" r="3.5" stroke-width="0" /><circle cx="440" cy="474" fill="#2b92db" r="3.5" stroke-width="0" /><circle cx="441" cy="464" fill="#2b92db" r="3.5" stroke-width="0" /><circle cx="574" cy="464" fill="#2b92db" r="3.5" stroke-width="0" /><circle cx="487" cy="453" fill="#2b92db" r="3.5" stroke-width="0" /><circle cx="606" cy="437" fill="#2b92db" r="3.5" stroke-width="0" /><circle cx="574" cy="410" fill="#2b92db" r="3.5" stroke-width="0" /><circle cx="557" cy="385" fill="#2b92db" r="3.5" stroke-width="0" /><circle cx="557" cy="385" fill="#2b92db" r="3.5" stroke-width="0" /><circle cx="498" cy="376" fill="#2b92db" r="3.5" stroke-width="0" /><circle cx="686" cy="367" fill="#2b92db" r="3.5" stroke-width="0" /><circle cx="585" cy="364" fill="#2b92db" r="3.5" stroke-width="0" /><circle cx="608" cy="361" fill="#2b92db" r="3.5" stroke-width="0" /><circle cx="659" cy="357" fill="#2b92db" r="3.5" stroke-width="0" /><circle cx="599" cy="343" fill="#2b92db" r="3.5" stroke-width="0" /><circle cx="554" cy="337" fill="#2b92db" r="3.5" stroke-width="0" /><circle cx="683" cy="335" fill="#2b92db" r="3.5" stroke-width="0" /><circle cx="605" cy="326" fill="#2b92db" r="3.5" stroke-width="0" /><circle cx="664" cy="316" fill="#2b92db" r="3.5" stroke-width="0" /><circle cx="567" cy="315" fill="#2b92db" r="3.5" stroke-width="0" /><circle cx="632" cy="313" fill="#2b92db" r="3.5" stroke-width="0" /><circle cx="644" cy="307" fill="#2b92db" r="3.5" stroke-width="0" /><circle cx="609" cy="300" fill="#2b92db" r="3.5" stroke-width="0" /><circle cx="744" cy="279" fill="#2b92db" r="3.5" stroke-width="0" /><circle cx="752" cy="270" fill="#2b92db" r="3.5" stroke-width="0" /><circle cx="755" cy="269" fill="#2b92db" r="3.5" stroke-width="0" /><circle cx="676" cy="260" fill="#2b92db" r="3.5" stroke-width="0" /><circle cx="720" cy="253" fill="#2b92db" r="3.5" stroke-width="0" /><circle cx="787" cy="250" fill="#2b92db" r="3.5" stroke-width="0" /><circle cx="660" cy="233" fill="#2b92db" r="3.5" stroke-width="0" /><circle cx="802" cy="229" fill="#2b92db" r="3.5" stroke-width="0" /><circle cx="808" cy="223" fill="#2b92db" r="3.5" stroke-width="0" /><circle cx="760" cy="206" fill="#2b92db" r="3.5" stroke-width="0" /><circle cx="780" cy="190" fill="#2b92db" r="3.5" stroke-width="0" /><circle cx="864" cy="169" fill="#2b92db" r="3.5" stroke-width="0" /><circle cx="711" cy="165" fill="#2b92db" r="3.5" stroke-width="0" /><circle cx="871" cy="161" fill="#2b92db" r="3.5" stroke-width="0" /><circle cx="804" cy="143" fill="#2b92db" r="3.5" stroke-width="0" /><circle cx="802" cy="140" fill="#2b92db" r="3.5" stroke-width="0" /><circle cx="781" cy="127" fill="#2b92db" r="3.5" stroke-width="0" /><circle cx="866" cy="118" fill="#2b92db" r="3.5" stroke-width="0" /><circle cx="819" cy="113" fill="#2b92db" r="3.5" stroke-width="0" /><circle cx="798" cy="95" fill="#2b92db" r="3.5" stroke-width="0" /></g><g class="e7"><circle cx="103" cy="747" fill="#911eb4" r="3.5" stroke-width="0" /><circle cx="89" cy="732" fill="#911eb4" r="3.5" stroke-width="0" /><circle cx="105" cy="713" fill="#911eb4" r="3.5" stroke-width="0" /><circle cx="129" cy="688" fill="#911eb4" r="3.5" stroke-width="0" /><circle cx="171" cy="651" fill="#911eb4" r="3.5" stroke-width="0" /><circle cx="157" cy="644" fill="#911eb4" r="3.5" stroke-width="0" /><circle cx="213" cy="644" fill="#911eb4" r="3.5" stroke-width="0" /><circle cx="152" cy="643" fill="#911eb4" r="3.5" stroke-width="0" /><circle cx="157" cy="631" fill="#911eb4" r="3.5" stroke-width="0" /><circle cx="161" cy="618" fill="#911eb4" r="3.5" stroke-width="0" /><circle cx="140" cy="617" fill="#911eb4" r="3.5" stroke-width="0" /><circle cx="126" cy="616" fill="#911eb4" r="3.5" stroke-width="0" /><circle cx="103" cy="603" fill="#911eb4" r="3.5" stroke-width="0" /><circle cx="174" cy="592" fill="#911eb4" r="3.5" stroke-width="0" /><circle cx="193" cy="566" fill="#911eb4" r="3.5" stroke-width="0" /><circle cx="194" cy="558" fill="#911eb4" r="3.5" stroke-width="0" /><circle cx="206" cy="558" fill="#911eb4" r="3.5" stroke-width="0" /><circle cx="298" cy="557" fill="#911eb4" r="3.5" stroke-width="0" /><circle cx="273" cy="555" fill="#911eb4" r="3.5" stroke-width="0" /><circle cx="219" cy="544" fill="#911eb4" r="3.5" stroke-width="0" /><circle cx="256" cy="524" fill="#911eb4" r="3.5" stroke-width="0" /><circle cx="321" cy="521" fill="#911eb4" r="3.5" stroke-width="0" /><circle cx="219" cy="519" fill="#911eb4" r="3.5" stroke-width="0" /><circle cx="325" cy="511" fill="#911eb4" r="3.5" stroke-width="0" /><circle cx="328" cy="500" fill="#911eb4" r="3.5" stroke-width="0" /><circle cx="342" cy="481" fill="#911eb4" r="3.5" stroke-width="0" /><circle cx="329" cy="478" fill="#911eb4" r="3.5" stroke-width="0" /><circle cx="290" cy="476" fill="#911eb4" r="3.5" stroke-width="0" /><circle cx="268" cy="472" fill="#911eb4" r="3.5" stroke-width="0" /><circle cx="291" cy="470" fill="#911eb4" r="3.5" stroke-width="0" /><circle cx="326" cy="466" fill="#911eb4" r="3.5" stroke-width="0" /><circle cx="334" cy="452" fill="#911eb4" r="3.5" stroke-width="0" /><circle cx="251" cy="445" fill="#911eb4" r="3.5" stroke-width="0" /><circle cx="342" cy="437" fill="#911eb4" r="3.5" stroke-width="0" /><circle cx="401" cy="413" fill="#911eb4" r="3.5" stroke-width="0" /><circle cx="333" cy="394" fill="#911eb4" r="3.5" stroke-width="0" /><circle cx="463" cy="394" fill="#911eb4" r="3.5" stroke-width="0" /><circle cx="492" cy="371" fill="#911eb4" r="3.5" stroke-width="0" /><circle cx="333" cy="366" fill="#911eb4" r="3.5" stroke-width="0" /><circle cx="333" cy="364" fill="#911eb4" r="3.5" stroke-width="0" /><circle cx="516" cy="346" fill="#911eb4" r="3.5" stroke-width="0" /><circle cx="505" cy="342" fill="#911eb4" r="3.5" stroke-width="0" /><circle cx="439" cy="341" fill="#911eb4" r="3.5" stroke-width="0" /><circle cx="482" cy="340" fill="#911eb4" r="3.5" stroke-width="0" /><circle cx="530" cy="340" fill="#911eb4" r="3.5" stroke-width="0" /><circle cx="398" cy="322" fill="#911eb4" r="3.5" stroke-width="0" /><circle cx="504" cy="315" fill="#911eb4" r="3.5" stroke-width="0" /><circle cx="408" cy="303" fill="#911eb4" r="3.5" stroke-width="0" /><circle cx="456" cy="303" fill="#911eb4" r="3.5" stroke-width="0" /><circle cx="458" cy="296" fill="#911eb4" r="3.5" stroke-width="0" /><circle cx="442" cy="261" fill="#911eb4" r="3.5" stroke-width="0" /><circle cx="539" cy="259" fill="#911eb4" r="3.5" stroke-width="0" /><circle cx="460" cy="247" fill="#911eb4" r="3.5" stroke-width="0" /><circle cx="491" cy="247" fill="#911eb4" r="3.5" stroke-width="0" /><circle cx="495" cy="241" fill="#911eb4" r="3.5" stroke-width="0" /><circle cx="545" cy="239" fill="#911eb4" r="3.5" stroke-width="0" /><circle cx="490" cy="227" fill="#911eb4" r="3.5" stroke-width="0" /><circle cx="617" cy="219" fill="#911eb4" r="3.5" stroke-width="0" /><circle cx="549" cy="202" fill="#911eb4" r="3.5" stroke-width="0" /><circle cx="504" cy="195" fill="#911eb4" r="3.5" stroke-width="0" /><circle cx="628" cy="178" fill="#911eb4" r="3.5" stroke-width="0" /><circle cx="624" cy="171" fill="#911eb4" r="3.5" stroke-width="0" /><circle cx="677" cy="157" fill="#911eb4" r="3.5" stroke-width="0" /><circle cx="580" cy="150" fill="#911eb4" r="3.5" stroke-width="0" /><circle cx="614" cy="143" fill="#911eb4" r="3.5" stroke-width="0" /><circle cx="629" cy="131" fill="#911eb4" r="3.5" stroke-width="0" /><circle cx="666" cy="128" fill="#911eb4" r="3.5" stroke-width="0" /><circle cx="696" cy="86" fill="#911eb4" r="3.5" stroke-width="0" /><circle cx="704" cy="80" fill="#911eb4" r="3.5" stroke-width="0" /><circle cx="759" cy="75" fill="#911eb4" r="3.5" stroke-width="0" /><circle cx="759" cy="75" fill="#911eb4" r="3.5" stroke-width="0" /></g><g class="e8"><circle cx="84" cy="571" fill="#3cb44B" r="3.5" stroke-width="0" /><circle cx="112" cy="571" fill="#3cb44B" r="3.5" stroke-width="0" /><circle cx="85" cy="569" fill="#3cb44B" r="3.5" stroke-width="0" /><circle cx="94" cy="540" fill="#3cb44B" r="3.5" stroke-width="0" /><circle cx="150" cy="528" fill="#3cb44B" r="3.5" stroke-width="0" /><circle cx="131" cy="520" fill="#3cb44B" r="3.5" stroke-width="0" /><circle cx="88" cy="519" fill="#3cb44B" r="3.5" stroke-width="0" /><circle cx="150" cy="519" fill="#3cb44B" r="3.5" stroke-width="0" /><circle cx="105" cy="490" fill="#3cb44B" r="3.5" stroke-width="0" /><circle cx="161" cy="471" fill="#3cb44B" r="3.5" stroke-width="0" /><circle cx="198" cy="455" fill="#3cb44B" r="3.5" stroke-width="0" /><circle cx="166" cy="453" fill="#3cb44B" r="3.5" stroke-width="0" /><circle cx="78" cy="434" fill="#3cb44B" r="3.5" stroke-width="0" /><circle cx="176" cy="430" fill="#3cb44B" r="3.5" stroke-width="0" /><circle cx="148" cy="427" fill="#3cb44B" r="3.5" stroke-width="0" /><circle cx="226" cy="415" fill="#3cb44B" r="3.5" stroke-width="0" /><circle cx="220" cy="414" fill="#3cb44B" r="3.5" stroke-width="0" /><circle cx="194" cy="402" fill="#3cb44B" r="3.5" stroke-width="0" /><circle cx="292" cy="400" fill="#3cb44B" r="3.5" stroke-width="0" /><circle cx="259" cy="393" fill="#3cb44B" r="3.5" stroke-width="0" /><circle cx="254" cy="376" fill="#3cb44B" r="3.5" stroke-width="0" /><circle cx="151" cy="370" fill="#3cb44B" r="3.5" stroke-width="0" /><circle cx="218" cy="366" fill="#3cb44B" r="3.5" stroke-width="0" /><circle cx="238" cy="354" fill="#3cb44B" r="3.5" stroke-width="0" /><circle cx="187" cy="353" fill="#3cb44B" r="3.5" stroke-width="0" /><circle cx="282" cy="326" fill="#3cb44B" r="3.5" stroke-width="0" /><circle cx="317" cy="320" fill="#3cb44B" r="3.5" stroke-width="0" /><circle cx="366" cy="315" fill="#3cb44B" r="3.5" stroke-width="0" /><circle cx="288" cy="306" fill="#3cb44B" r="3.5" stroke-width="0" /><circle cx="341" cy="279" fill="#3cb44B" r="3.5" stroke-width="0" /><circle cx="350" cy="269" fill="#3cb44B" r="3.5" stroke-width="0" /><circle cx="263" cy="260" fill="#3cb44B" r="3.5" stroke-width="0" /><circle cx="368" cy="256" fill="#3cb44B" r="3.5" stroke-width="0" /><circle cx="298" cy="255" fill="#3cb44B" r="3.5" stroke-width="0" /><circle cx="400" cy="254" fill="#3cb44B" r="3.5" stroke-width="0" /><circle cx="405" cy="250" fill="#3cb44B" r="3.5" stroke-width="0" /><circle cx="345" cy="245" fill="#3cb44B" r="3.5" stroke-width="0" /><circle cx="395" cy="238" fill="#3cb44B" r="3.5" stroke-width="0" /><circle cx="392" cy="235" fill="#3cb44B" r="3.5" stroke-width="0" /><circle cx="303" cy="234" fill="#3cb44B" r="3.5" stroke-width="0" /><circle cx="321" cy="226" fill="#3cb44B" r="3.5" stroke-width="0" /><circle cx="366" cy="225" fill="#3cb44B" r="3.5" stroke-width="0" /><circle cx="390" cy="196" fill="#3cb44B" r="3.5" stroke-width="0" /><circle cx="345" cy="190" fill="#3cb44B" r="3.5" stroke-width="0" /><circle cx="335" cy="187" fill="#3cb44B" r="3.5" stroke-width="0" /><circle cx="340" cy="181" fill="#3cb44B" r="3.5" stroke-width="0" /><circle cx="418" cy="175" fill="#3cb44B" r="3.5" stroke-width="0" /><circle cx="416" cy="169" fill="#3cb44B" r="3.5" stroke-width="0" /><circle cx="523" cy="166" fill="#3cb44B" r="3.5" stroke-width="0" /><circle cx="399" cy="164" fill="#3cb44B" r="3.5" stroke-width="0" /><circle cx="378" cy="155" fill="#3cb44B" r="3.5" stroke-width="0" /><circle cx="435" cy="126" fill="#3cb44B" r="3.5" stroke-width="0" /></g><g class="e9"><circle cx="97" cy="387" fill="#ff0000" r="3.5" stroke-width="0" /><circle cx="159" cy="350" fill="#ff0000" r="3.5" stroke-width="0" /><circle cx="93" cy="343" fill="#ff0000" r="3.5" stroke-width="0" /><circle cx="172" cy="336" fill="#ff0000" r="3.5" stroke-width="0" /><circle cx="128" cy="314" fill="#ff0000" r="3.5" stroke-width="0" /><circle cx="165" cy="292" fill="#ff0000" r="3.5" stroke-width="0" /><circle cx="86" cy="280" fill="#ff0000" r="3.5" stroke-width="0" /><circle cx="232" cy="279" fill="#ff0000" r="3.5" stroke-width="0" /><circle cx="72" cy="272" fill="#ff0000" r="3.5" stroke-width="0" /><circle cx="85" cy="272" fill="#ff0000" r="3.5" stroke-width="0" /><circle cx="204" cy="254" fill="#ff0000" r="3.5" stroke-width="0" /><circle cx="149" cy="250" fill="#ff0000" r="3.5" stroke-width="0" /><circle cx="245" cy="248" fill="#ff0000" r="3.5" stroke-width="0" /><circle cx="212" cy="242" fill="#ff0000" r="3.5" stroke-width="0" /><circle cx="116" cy="224" fill="#ff0000" r="3.5" stroke-width="0" /><circle cx="282" cy="223" fill="#ff0000" r="3.5" stroke-width="0" /><circle cx="254" cy="214" fill="#ff0000" r="3.5" stroke-width="0" /><circle cx="253" cy="213" fill="#ff0000" r="3.5" stroke-width="0" /><circle cx="142" cy="206" fill="#ff0000" r="3.5" stroke-width="0" /><circle cx="260" cy="197" fill="#ff0000" r="3.5" stroke-width="0" /><circle cx="215" cy="195" fill="#ff0000" r="3.5" stroke-width="0" /><circle cx="253" cy="187" fill="#ff0000" r="3.5" stroke-width="0" /><circle cx="175" cy="186" fill="#ff0000" r="3.5" stroke-width="0" /><circle cx="310" cy="185" fill="#ff0000" r="3.5" stroke-width="0" /><circle cx="159" cy="178" fill="#ff0000" r="3.5" stroke-width="0" /><circle cx="213" cy="176" fill="#ff0000" r="3.5" stroke-width="0" /><circle cx="240" cy="164" fill="#ff0000" r="3.5" stroke-width="0" /><circle cx="262" cy="148" fill="#ff0000" r="3.5" stroke-width="0" /><circle cx="362" cy="134" fill="#ff0000" r="3.5" stroke-width="0" /><circle cx="316" cy="115" fill="#ff0000" r="3.5" stroke-width="0" /><circle cx="325" cy="103" fill="#ff0000" r="3.5" stroke-width="0" /><circle cx="334" cy="102" fill="#ff0000" r="3.5" stroke-width="0" /><circle cx="413" cy="98" fill="#ff0000" r="3.5" stroke-width="0" /><circle cx="277" cy="72" fill="#ff0000" r="3.5" stroke-width="0" /></g><g class="e10"><circle cx="92" cy="232" fill="#2b92db" r="3.5" stroke-width="0" /><circle cx="71" cy="214" fill="#2b92db" r="3.5" stroke-width="0" /><circle cx="83" cy="203" fill="#2b92db" r="3.5" stroke-width="0" /><circle cx="105" cy="186" fill="#2b92db" r="3.5" stroke-width="0" /><circle cx="115" cy="186" fill="#2b92db" r="3.5" stroke-width="0" /><circle cx="73" cy="144" fill="#2b92db" r="3.5" stroke-width="0" /><circle cx="92" cy="142" fill="#2b92db" r="3.5" stroke-width="0" /><circle cx="136" cy="139" fill="#2b92db" r="3.5" stroke-width="0" /><circle cx="184" cy="120" fill="#2b92db" r="3.5" stroke-width="0" /><circle cx="92" cy="109" fill="#2b92db" r="3.5" stroke-width="0" /><circle cx="170" cy="104" fill="#2b92db" r="3.5" stroke-width="0" /><circle cx="233" cy="93" fill="#2b92db" r="3.5" stroke-width="0" /><circle cx="239" cy="89" fill="#2b92db" r="3.5" stroke-width="0" /><circle cx="137" cy="88" fill="#2b92db" r="3.5" stroke-width="0" /><circle cx="114" cy="75" fill="#2b92db" r="3.5" stroke-width="0" /></g></g></g></svg>