<?xml version="1.0" encoding="utf-8" ?>
<svg baseProfile="full" height="1140px" style="font-size:15;font-family:Arial, san-serif;font-weight:bold;stroke:black;stroke-width:0;fill:#444444" version="1.1" width="1140px" xmlns="http://www.w3.org/2000/svg" xmlns:ev="http://www.w3.org/2001/xml-events" xmlns:xlink="http://www.w3.org/1999/xlink"><defs><clipPath id="areadografico"><rect height="1000" width="1000" x="70" y="70" /></clipPath></defs><g class="master"><g class="poligonos"><polygon clip-path="url(#areadografico)" fill="#000000" fill-opacity="0.1" points="1069,1070 1069,890 890,1070" /><polygon clip-path="url(#areadografico)" fill="#ffffff" fill-opacity="0.1" points="890,1070 709,1070 1069,709 1069,890" /><polygon clip-path="url(#areadografico)" fill="#000000" fill-opacity="0.1" points="709,1070 528,1070 1069,528 1069,709" /><polygon clip-path="url(#areadografico)" fill="#ffffff" fill-opacity="0.1" points="528,1070 347,1070 1069,347 1069,528" /><polygon clip-path="url(#areadografico)" fill="#000000" fill-opacity="0.1" points="347,1070 166,1070 1069,166 1069,347" /><polygon clip-path="url(#areadografico)" fill="#ffffff" fill-opacity="0.1" points="166,1070 -15,1070 1069,-15 1069,166" /><polygon clip-path="url(#areadografico)" fill="#000000" fill-opacity="0.1" points="-15,1070 -196,1070 1069,-196 1069,-15" /><polygon clip-path="url(#areadografico)" fill="#ffffff" fill-opacity="0.1" points="-196,1070 -377,1070 1069,-377 1069,-196" /><polygon clip-path="url(#areadografico)" fill="#000000" fill-opacity="0.1" points="-377,1070 -558,1070 1069,-558 1069,-377" /><polygon clip-path="url(#areadografico)" fill="#ffffff" fill-opacity="0.1" points="-558,1070 -739,1070 1069,-739 1069,-558" /><polygon clip-path="url(#areadografico)" fill="#000000" fill-opacity="0.1" points="70,70 70,260 260,70" /></g><g class="linhas"><line fill-opacity="0.3" stroke="#999999" stroke-width="1" x1="1070" x2="1070" y1="1070" y2="70" /><line fill-opacity="0.3" stroke="#999999" stroke-width="1" x1="70" x2="1070" y1="70" y2="70" /><line fill-opacity="0.3" stroke="#999999" stroke-width="1" x1="970" x2="970" y1="1070" y2="70" /><line fill-opacity="0.3" stroke="#999999" stroke-width="1" x1="70" x2="1070" y1="170" y2="170" /><line fill-opacity="0.3" stroke="#999999" stroke-width="1" x1="870" x2="870" y1="1070" y2="70" /><line fill-opacity="0.3" stroke="#999999" stroke-width="1" x1="70" x2="1070" y1="270" y2="270" /><line fill-opacity="0.3" stroke="#999999" stroke-width="1" x1="770" x2="770" y1="1070" y2="70" /><line fill-opacity="0.3" stroke="#999999" stroke-width="1" x1="70" x2="1070" y1="370" y2="370" /><line fill-opacity="0.3" stroke="#999999" stroke-width="1" x1="670" x2="670" y1="1070" y2="70" /><line fill-opacity="0.3" stroke="#999999" stroke-width="1" x1="70" x2="1070" y1="470" y2="470" /><line fill-opacity="0.3" stroke="#999999" stroke-width="1" x1="570" x2="570" y1="1070" y2="70" /><line fill-opacity="0.3" stroke="#999999" stroke-width="1" x1="70" x2="1070" y1="570" y2="570" /><line fill-opacity="0.3" stroke="#999999" stroke-width="1" x1="470" x2="470" y1="1070" y2="70" /><line fill-opacity="0.3" stroke="#999999" stroke-width="1" x1="70" x2="1070" y1="670" y2="670" /><line fill-opacity="0.3" stroke="#999999" stroke-width="1" x1="370" x2="370" y1="1070" y2="70" /><line fill-opacity="0.3" stroke="#999999" stroke-width="1" x1="70" x2="1070" y1="770" y2="770" /><line fill-opacity="0.3" stroke="#999999" stroke-width="1" x1="270" x2="270" y1="1070" y2="70" /><line fill-opacity="0.3" stroke="#999999" stroke-width="1" x1="70" x2="1070" y1="870" y2="870" /><line fill-opacity="0.3" stroke="#999999" stroke-width="1" x1="170" x2="170" y1="1070" y2="70" /><line fill-opacity="0.3" stroke="#999999" stroke-width="1" x1="70" x2="1070" y1="970" y2="970" /><line fill-opacity="0.3" stroke="#000000" stroke-width="1" x1="70" x2="70" y1="1071" y2="69" /><line fill-opacity="0.3" stroke="#000000" stroke-width="1" x1="69" x2="1071" y1="1070" y2="1070" /></g><g class="textos"><text x="1050" y="1110">1000</text><text x="10" y="71">1000</text><text x="950" y="1110">900</text><text x="10" y="171">900</text><text x="850" y="1110">800</text><text x="10" y="271">800</text><text x="750" y="1110">700</text><text x="10" y="371">700</text><text x="650" y="1110">600</text><text x="10" y="471">600</text><text x="550" y="1110">500</text><text x="10" y="571">500</text><text x="450" y="1110">400</text><text x="10" y="671">400</text><text x="350" y="1110">300</text><text x="10" y="771">300</text><text x="250" y="1110">200</text><text x="10" y="871">200</text><text x="150" y="1110">100</text><text x="10" y="971">100</text><text x="50" y="1111">0</text><text x="9" y="1071">0</text></g><g class="especies"><g class="e0"><circle cx="1027" cy="1064" fill="#3cb44B" r="3.5" stroke-width="0" /><circle cx="968" cy="1060" fill="#3cb44B" r="3.5" stroke-width="0" /><circle cx="968" cy="1054" fill="#3cb44B" r="3.5" stroke-width="0" /><circle cx="938" cy="1042" fill="#3cb44B" r="3.5" stroke-width="0" /><circle cx="1066" cy="1027" fill="#3cb44B" r="3.5" stroke-width="0" /><circle cx="971" cy="1026" fill="#3cb44B" r="3.5" stroke-width="0" /><circle cx="1067" cy="1001" fill="#3cb44B" r="3.5" stroke-width="0" /><circle cx="981" cy="998" fill="#3cb44B" r="3.5" stroke-width="0" /><circle cx="992" cy="986" fill="#3cb44B" r="3.5" stroke-width="0" /><circle cx="1054" cy="966" fill="#3cb44B" r="3.5" stroke-width="0" /><circle cx="1047" cy="947" fill="#3cb44B" r="3.5" stroke-width="0" /></g><g class="e1"><circle cx="868" cy="1066" fill="#ff0000" r="3.5" stroke-width="0" /><circle cx="894" cy="1041" fill="#ff0000" r="3.5" stroke-width="0" /><circle cx="760" cy="1038" fill="#ff0000" r="3.5" stroke-width="0" /><circle cx="803" cy="1020" fill="#ff0000" r="3.5" stroke-width="0" /><circle cx="878" cy="989" fill="#ff0000" r="3.5" stroke-width="0" /><circle cx="916" cy="985" fill="#ff0000" r="3.5" stroke-width="0" /><circle cx="968" cy="968" fill="#ff0000" r="3.5" stroke-width="0" /><circle cx="994" cy="961" fill="#ff0000" r="3.5" stroke-width="0" /><circle cx="948" cy="909" fill="#ff0000" r="3.5" stroke-width="0" /><circle cx="945" cy="888" fill="#ff0000" r="3.5" stroke-width="0" /><circle cx="976" cy="867" fill="#ff0000" r="3.5" stroke-width="0" /><circle cx="1032" cy="857" fill="#ff0000" r="3.5" stroke-width="0" /><circle cx="998" cy="850" fill="#ff0000" r="3.5" stroke-width="0" /><circle cx="968" cy="848" fill="#ff0000" r="3.5" stroke-width="0" /><circle cx="1016" cy="808" fill="#ff0000" r="3.5" stroke-width="0" /><circle cx="1030" cy="751" fill="#ff0000" r="3.5" stroke-width="0" /></g><g class="e2"><circle cx="687" cy="1067" fill="#2b92db" r="3.5" stroke-width="0" /><circle cx="657" cy="1063" fill="#2b92db" r="3.5" stroke-width="0" /><circle cx="700" cy="1055" fill="#2b92db" r="3.5" stroke-width="0" /><circle cx="608" cy="1047" fill="#2b92db" r="3.5" stroke-width="0" /><circle cx="593" cy="1029" fill="#2b92db" r="3.5" stroke-width="0" /><circle cx="658" cy="1016" fill="#2b92db" r="3.5" stroke-width="0" /><circle cx="715" cy="1015" fill="#2b92db" r="3.5" stroke-width="0" /><circle cx="762" cy="1005" fill="#2b92db" r="3.5" stroke-width="0" /><circle cx="750" cy="977" fill="#2b92db" r="3.5" stroke-width="0" /><circle cx="679" cy="933" fill="#2b92db" r="3.5" stroke-width="0" /><circle cx="786" cy="914" fill="#2b92db" r="3.5" stroke-width="0" /><circle cx="797" cy="894" fill="#2b92db" r="3.5" stroke-width="0" /><circle cx="753" cy="853" fill="#2b92db" r="3.5" stroke-width="0" /><circle cx="787" cy="837" fill="#2b92db" r="3.5" stroke-width="0" /><circle cx="807" cy="835" fill="#2b92db" r="3.5" stroke-width="0" /><circle cx="813" cy="834" fill="#2b92db" r="3.5" stroke-width="0" /><circle cx="909" cy="834" fill="#2b92db" r="3.5" stroke-width="0" /><circle cx="894" cy="828" fill="#2b92db" r="3.5" stroke-width="0" /><circle cx="782" cy="824" fill="#2b92db" r="3.5" stroke-width="0" /><circle cx="826" cy="807" fill="#2b92db" r="3.5" stroke-width="0" /><circle cx="875" cy="798" fill="#2b92db" r="3.5" stroke-width="0" /><circle cx="819" cy="779" fill="#2b92db" r="3.5" stroke-width="0" /><circle cx="991" cy="769" fill="#2b92db" r="3.5" stroke-width="0" /><circle cx="989" cy="768" fill="#2b92db" r="3.5" stroke-width="0" /><circle cx="974" cy="759" fill="#2b92db" r="3.5" stroke-width="0" /><circle cx="1038" cy="740" fill="#2b92db" r="3.5" stroke-width="0" /><circle cx="958" cy="739" fill="#2b92db" r="3.5" stroke-width="0" /><circle cx="960" cy="727" fill="#2b92db" r="3.5" stroke-width="0" /><circle cx="1021" cy="717" fill="#2b92db" r="3.5" stroke-width="0" /><circle cx="939" cy="706" fill="#2b92db" r="3.5" stroke-width="0" /><circle cx="1044" cy="695" fill="#2b92db" r="3.5" stroke-width="0" /><circle cx="1043" cy="684" fill="#2b92db" r="3.5" stroke-width="0" /><circle cx="1032" cy="671" fill="#2b92db" r="3.5" stroke-width="0" /><circle cx="971" cy="640" fill="#2b92db" r="3.5" stroke-width="0" /><circle cx="1050" cy="568" fill="#2b92db" r="3.5" stroke-width="0" /></g><g class="e3"><circle cx="494" cy="1042" fill="#911eb4" r="3.5" stroke-width="0" /><circle cx="434" cy="1035" fill="#911eb4" r="3.5" stroke-width="0" /><circle cx="445" cy="1025" fill="#911eb4" r="3.5" stroke-width="0" /><circle cx="585" cy="1006" fill="#911eb4" r="3.5" stroke-width="0" /><circle cx="450" cy="995" fill="#911eb4" r="3.5" stroke-width="0" /><circle cx="583" cy="989" fill="#911eb4" r="3.5" stroke-width="0" /><circle cx="605" cy="982" fill="#911eb4" r="3.5" stroke-width="0" /><circle cx="473" cy="960" fill="#911eb4" r="3.5" stroke-width="0" /><circle cx="487" cy="933" fill="#911eb4" r="3.5" stroke-width="0" /><circle cx="614" cy="932" fill="#911eb4" r="3.5" stroke-width="0" /><circle cx="532" cy="926" fill="#911eb4" r="3.5" stroke-width="0" /><circle cx="665" cy="912" fill="#911eb4" r="3.5" stroke-width="0" /><circle cx="566" cy="893" fill="#911eb4" r="3.5" stroke-width="0" /><circle cx="642" cy="884" fill="#911eb4" r="3.5" stroke-width="0" /><circle cx="618" cy="879" fill="#911eb4" r="3.5" stroke-width="0" /><circle cx="645" cy="845" fill="#911eb4" r="3.5" stroke-width="0" /><circle cx="745" cy="831" fill="#911eb4" r="3.5" stroke-width="0" /><circle cx="650" cy="816" fill="#911eb4" r="3.5" stroke-width="0" /><circle cx="633" cy="797" fill="#911eb4" r="3.5" stroke-width="0" /><circle cx="799" cy="789" fill="#911eb4" r="3.5" stroke-width="0" /><circle cx="811" cy="770" fill="#911eb4" r="3.5" stroke-width="0" /><circle cx="707" cy="763" fill="#911eb4" r="3.5" stroke-width="0" /><circle cx="703" cy="747" fill="#911eb4" r="3.5" stroke-width="0" /><circle cx="759" cy="725" fill="#911eb4" r="3.5" stroke-width="0" /><circle cx="786" cy="712" fill="#911eb4" r="3.5" stroke-width="0" /><circle cx="780" cy="695" fill="#911eb4" r="3.5" stroke-width="0" /><circle cx="750" cy="687" fill="#911eb4" r="3.5" stroke-width="0" /><circle cx="918" cy="679" fill="#911eb4" r="3.5" stroke-width="0" /><circle cx="868" cy="670" fill="#911eb4" r="3.5" stroke-width="0" /><circle cx="877" cy="664" fill="#911eb4" r="3.5" stroke-width="0" /><circle cx="815" cy="657" fill="#911eb4" r="3.5" stroke-width="0" /><circle cx="847" cy="620" fill="#911eb4" r="3.5" stroke-width="0" /><circle cx="886" cy="607" fill="#911eb4" r="3.5" stroke-width="0" /><circle cx="955" cy="603" fill="#911eb4" r="3.5" stroke-width="0" /><circle cx="961" cy="594" fill="#911eb4" r="3.5" stroke-width="0" /><circle cx="946" cy="572" fill="#911eb4" r="3.5" stroke-width="0" /><circle cx="889" cy="556" fill="#911eb4" r="3.5" stroke-width="0" /><circle cx="984" cy="541" fill="#911eb4" r="3.5" stroke-width="0" /><circle cx="979" cy="530" fill="#911eb4" r="3.5" stroke-width="0" /><circle cx="1056" cy="455" fill="#911eb4" r="3.5" stroke-width="0" /><circle cx="1066" cy="447" fill="#911eb4" r="3.5" stroke-width="0" /><circle cx="988" cy="433" fill="#911eb4" r="3.5" stroke-width="0" /></g><g class="e4"><circle cx="238" cy="1052" fill="#3cb44B" r="3.5" stroke-width="0" /><circle cx="360" cy="1008" fill="#3cb44B" r="3.5" stroke-width="0" /><circle cx="388" cy="1008" fill="#3cb44B" r="3.5" stroke-width="0" /><circle cx="328" cy="982" fill="#3cb44B" r="3.5" stroke-width="0" /><circle cx="338" cy="982" fill="#3cb44B" r="3.5" stroke-width="0" /><circle cx="409" cy="963" fill="#3cb44B" r="3.5" stroke-width="0" /><circle cx="423" cy="942" fill="#3cb44B" r="3.5" stroke-width="0" /><circle cx="339" cy="936" fill="#3cb44B" r="3.5" stroke-width="0" /><circle cx="407" cy="934" fill="#3cb44B" r="3.5" stroke-width="0" /><circle cx="359" cy="913" fill="#3cb44B" r="3.5" stroke-width="0" /><circle cx="452" cy="907" fill="#3cb44B" r="3.5" stroke-width="0" /><circle cx="528" cy="886" fill="#3cb44B" r="3.5" stroke-width="0" /><circle cx="379" cy="872" fill="#3cb44B" r="3.5" stroke-width="0" /><circle cx="614" cy="787" fill="#3cb44B" r="3.5" stroke-width="0" /><circle cx="478" cy="761" fill="#3cb44B" r="3.5" stroke-width="0" /><circle cx="495" cy="754" fill="#3cb44B" r="3.5" stroke-width="0" /><circle cx="535" cy="747" fill="#3cb44B" r="3.5" stroke-width="0" /><circle cx="581" cy="709" fill="#3cb44B" r="3.5" stroke-width="0" /><circle cx="715" cy="698" fill="#3cb44B" r="3.5" stroke-width="0" /><circle cx="619" cy="697" fill="#3cb44B" r="3.5" stroke-width="0" /><circle cx="585" cy="686" fill="#3cb44B" r="3.5" stroke-width="0" /><circle cx="661" cy="667" fill="#3cb44B" r="3.5" stroke-width="0" /><circle cx="678" cy="634" fill="#3cb44B" r="3.5" stroke-width="0" /><circle cx="743" cy="634" fill="#3cb44B" r="3.5" stroke-width="0" /><circle cx="795" cy="616" fill="#3cb44B" r="3.5" stroke-width="0" /><circle cx="670" cy="603" fill="#3cb44B" r="3.5" stroke-width="0" /><circle cx="698" cy="545" fill="#3cb44B" r="3.5" stroke-width="0" /><circle cx="842" cy="519" fill="#3cb44B" r="3.5" stroke-width="0" /><circle cx="899" cy="512" fill="#3cb44B" r="3.5" stroke-width="0" /><circle cx="899" cy="508" fill="#3cb44B" r="3.5" stroke-width="0" /><circle cx="926" cy="473" fill="#3cb44B" r="3.5" stroke-width="0" /><circle cx="780" cy="465" fill="#3cb44B" r="3.5" stroke-width="0" /><circle cx="927" cy="465" fill="#3cb44B" r="3.5" stroke-width="0" /><circle cx="816" cy="433" fill="#3cb44B" r="3.5" stroke-width="0" /><circle cx="952" cy="372" fill="#3cb44B" r="3.5" stroke-width="0" /><circle cx="898" cy="364" fill="#3cb44B" r="3.5" stroke-width="0" /><circle cx="969" cy="360" fill="#3cb44B" r="3.5" stroke-width="0" /><circle cx="926" cy="357" fill="#3cb44B" r="3.5" stroke-width="0" /><circle cx="1058" cy="336" fill="#3cb44B" r="3.5" stroke-width="0" /><circle cx="997" cy="335" fill="#3cb44B" r="3.5" stroke-width="0" /><circle cx="1054" cy="322" fill="#3cb44B" r="3.5" stroke-width="0" /><circle cx="984" cy="301" fill="#3cb44B" r="3.5" stroke-width="0" /><circle cx="1022" cy="285" fill="#3cb44B" r="3.5" stroke-width="0" /><circle cx="992" cy="272" fill="#3cb44B" r="3.5" stroke-width="0" /><circle cx="1047" cy="224" fill="#3cb44B" r="3.5" stroke-width="0" /><circle cx="1061" cy="198" fill="#3cb44B" r="3.5" stroke-width="0" /></g><g class="e5"><circle cx="145" cy="1028" fill="#ff0000" r="3.5" stroke-width="0" /><circle cx="157" cy="1014" fill="#ff0000" r="3.5" stroke-width="0" /><circle cx="105" cy="1012" fill="#ff0000" r="3.5" stroke-width="0" /><circle cx="115" cy="978" fill="#ff0000" r="3.5" stroke-width="0" /><circle cx="202" cy="962" fill="#ff0000" r="3.5" stroke-width="0" /><circle cx="256" cy="955" fill="#ff0000" r="3.5" stroke-width="0" /><circle cx="258" cy="951" fill="#ff0000" r="3.5" stroke-width="0" /><circle cx="221" cy="948" fill="#ff0000" r="3.5" stroke-width="0" /><circle cx="297" cy="938" fill="#ff0000" r="3.5" stroke-width="0" /><circle cx="162" cy="937" fill="#ff0000" r="3.5" stroke-width="0" /><circle cx="244" cy="924" fill="#ff0000" r="3.5" stroke-width="0" /><circle cx="182" cy="919" fill="#ff0000" r="3.5" stroke-width="0" /><circle cx="246" cy="905" fill="#ff0000" r="3.5" stroke-width="0" /><circle cx="283" cy="904" fill="#ff0000" r="3.5" stroke-width="0" /><circle cx="263" cy="888" fill="#ff0000" r="3.5" stroke-width="0" /><circle cx="352" cy="871" fill="#ff0000" r="3.5" stroke-width="0" /><circle cx="274" cy="867" fill="#ff0000" r="3.5" stroke-width="0" /><circle cx="207" cy="857" fill="#ff0000" r="3.5" stroke-width="0" /><circle cx="270" cy="853" fill="#ff0000" r="3.5" stroke-width="0" /><circle cx="293" cy="809" fill="#ff0000" r="3.5" stroke-width="0" /><circle cx="345" cy="803" fill="#ff0000" r="3.5" stroke-width="0" /><circle cx="328" cy="786" fill="#ff0000" r="3.5" stroke-width="0" /><circle cx="293" cy="768" fill="#ff0000" r="3.5" stroke-width="0" /><circle cx="387" cy="756" fill="#ff0000" r="3.5" stroke-width="0" /><circle cx="369" cy="738" fill="#ff0000" r="3.5" stroke-width="0" /><circle cx="497" cy="726" fill="#ff0000" r="3.5" stroke-width="0" /><circle cx="509" cy="713" fill="#ff0000" r="3.5" stroke-width="0" /><circle cx="434" cy="711" fill="#ff0000" r="3.5" stroke-width="0" /><circle cx="424" cy="693" fill="#ff0000" r="3.5" stroke-width="0" /><circle cx="458" cy="674" fill="#ff0000" r="3.5" stroke-width="0" /><circle cx="451" cy="658" fill="#ff0000" r="3.5" stroke-width="0" /><circle cx="576" cy="651" fill="#ff0000" r="3.5" stroke-width="0" /><circle cx="500" cy="650" fill="#ff0000" r="3.5" stroke-width="0" /><circle cx="435" cy="635" fill="#ff0000" r="3.5" stroke-width="0" /><circle cx="593" cy="626" fill="#ff0000" r="3.5" stroke-width="0" /><circle cx="604" cy="564" fill="#ff0000" r="3.5" stroke-width="0" /><circle cx="519" cy="559" fill="#ff0000" r="3.5" stroke-width="0" /><circle cx="527" cy="540" fill="#ff0000" r="3.5" stroke-width="0" /><circle cx="538" cy="536" fill="#ff0000" r="3.5" stroke-width="0" /><circle cx="668" cy="534" fill="#ff0000" r="3.5" stroke-width="0" /><circle cx="569" cy="525" fill="#ff0000" r="3.5" stroke-width="0" /><circle cx="588" cy="519" fill="#ff0000" r="3.5" stroke-width="0" /><circle cx="583" cy="498" fill="#ff0000" r="3.5" stroke-width="0" /><circle cx="625" cy="493" fill="#ff0000" r="3.5" stroke-width="0" /><circle cx="639" cy="465" fill="#ff0000" r="3.5" stroke-width="0" /><circle cx="682" cy="420" fill="#ff0000" r="3.5" stroke-width="0" /><circle cx="790" cy="408" fill="#ff0000" r="3.5" stroke-width="0" /><circle cx="742" cy="405" fill="#ff0000" r="3.5" stroke-width="0" /><circle cx="817" cy="381" fill="#ff0000" r="3.5" stroke-width="0" /><circle cx="727" cy="374" fill="#ff0000" r="3.5" stroke-width="0" /><circle cx="768" cy="369" fill="#ff0000" r="3.5" stroke-width="0" /><circle cx="735" cy="362" fill="#ff0000" r="3.5" stroke-width="0" /><circle cx="717" cy="349" fill="#ff0000" r="3.5" stroke-width="0" /><circle cx="827" cy="348" fill="#ff0000" r="3.5" stroke-width="0" /><circle cx="806" cy="337" fill="#ff0000" r="3.5" stroke-width="0" /><circle cx="844" cy="313" fill="#ff0000" r="3.5" stroke-width="0" /><circle cx="875" cy="312" fill="#ff0000" r="3.5" stroke-width="0" /><circle cx="917" cy="297" fill="#ff0000" r="3.5" stroke-width="0" /><circle cx="792" cy="285" fill="#ff0000" r="3.5" stroke-width="0" /><circle cx="798" cy="258" fill="#ff0000" r="3.5" stroke-width="0" /><circle cx="848" cy="240" fill="#ff0000" r="3.5" stroke-width="0" /><circle cx="930" cy="223" fill="#ff0000" r="3.5" stroke-width="0" /><circle cx="862" cy="213" fill="#ff0000" r="3.5" stroke-width="0" /><circle cx="1002" cy="210" fill="#ff0000" r="3.5" stroke-width="0" /><circle cx="960" cy="156" fill="#ff0000" r="3.5" stroke-width="0" /><circle cx="1060" cy="155" fill="#ff0000" r="3.5" stroke-width="0" /><circle cx="928" cy="143" fill="#ff0000" r="3.5" stroke-width="0" /><circle cx="930" cy="142" fill="#ff0000" r="3.5" stroke-width="0" /><circle cx="1045" cy="84" fill="#ff0000" r="3.5" stroke-width="0" /></g><g class="e6"><circle cx="87" cy="895" fill="#2b92db" r="3.5" stroke-width="0" /><circle cx="168" cy="847" fill="#2b92db" r="3.5" stroke-width="0" /><circle cx="110" cy="833" fill="#2b92db" r="3.5" stroke-width="0" /><circle cx="208" cy="826" fill="#2b92db" r="3.5" stroke-width="0" /><circle cx="115" cy="821" fill="#2b92db" r="3.5" stroke-width="0" /><circle cx="232" cy="809" fill="#2b92db" r="3.5" stroke-width="0" /><circle cx="170" cy="782" fill="#2b92db" r="3.5" stroke-width="0" /><circle cx="221" cy="781" fill="#2b92db" r="3.5" stroke-width="0" /><circle cx="222" cy="771" fill="#2b92db" r="3.5" stroke-width="0" /><circle cx="154" cy="742" fill="#2b92db" r="3.5" stroke-width="0" /><circle cx="189" cy="739" fill="#2b92db" r="3.5" stroke-width="0" /><circle cx="193" cy="727" fill="#2b92db" r="3.5" stroke-width="0" /><circle cx="198" cy="723" fill="#2b92db" r="3.5" stroke-width="0" /><circle cx="195" cy="703" fill="#2b92db" r="3.5" stroke-width="0" /><circle cx="246" cy="702" fill="#2b92db" r="3.5" stroke-width="0" /><circle cx="265" cy="692" fill="#2b92db" r="3.5" stroke-width="0" /><circle cx="196" cy="685" fill="#2b92db" r="3.5" stroke-width="0" /><circle cx="292" cy="650" fill="#2b92db" r="3.5" stroke-width="0" /><circle cx="263" cy="647" fill="#2b92db" r="3.5" stroke-width="0" /><circle cx="255" cy="646" fill="#2b92db" r="3.5" stroke-width="0" /><circle cx="289" cy="640" fill="#2b92db" r="3.5" stroke-width="0" /><circle cx="363" cy="638" fill="#2b92db" r="3.5" stroke-width="0" /><circle cx="285" cy="616" fill="#2b92db" r="3.5" stroke-width="0" /><circle cx="357" cy="602" fill="#2b92db" r="3.5" stroke-width="0" /><circle cx="486" cy="548" fill="#2b92db" r="3.5" stroke-width="0" /><circle cx="459" cy="509" fill="#2b92db" r="3.5" stroke-width="0" /><circle cx="477" cy="506" fill="#2b92db" r="3.5" stroke-width="0" /><circle cx="539" cy="506" fill="#2b92db" r="3.5" stroke-width="0" /><circle cx="483" cy="496" fill="#2b92db" r="3.5" stroke-width="0" /><circle cx="556" cy="488" fill="#2b92db" r="3.5" stroke-width="0" /><circle cx="523" cy="474" fill="#2b92db" r="3.5" stroke-width="0" /><circle cx="442" cy="463" fill="#2b92db" r="3.5" stroke-width="0" /><circle cx="447" cy="456" fill="#2b92db" r="3.5" stroke-width="0" /><circle cx="515" cy="454" fill="#2b92db" r="3.5" stroke-width="0" /><circle cx="482" cy="431" fill="#2b92db" r="3.5" stroke-width="0" /><circle cx="467" cy="425" fill="#2b92db" r="3.5" stroke-width="0" /><circle cx="631" cy="423" fill="#2b92db" r="3.5" stroke-width="0" /><circle cx="625" cy="422" fill="#2b92db" r="3.5" stroke-width="0" /><circle cx="622" cy="418" fill="#2b92db" r="3.5" stroke-width="0" /><circle cx="578" cy="417" fill="#2b92db" r="3.5" stroke-width="0" /><circle cx="470" cy="407" fill="#2b92db" r="3.5" stroke-width="0" /><circle cx="616" cy="397" fill="#2b92db" r="3.5" stroke-width="0" /><circle cx="591" cy="395" fill="#2b92db" r="3.5" stroke-width="0" /><circle cx="525" cy="394" fill="#2b92db" r="3.5" stroke-width="0" /><circle cx="645" cy="385" fill="#2b92db" r="3.5" stroke-width="0" /><circle cx="672" cy="362" fill="#2b92db" r="3.5" stroke-width="0" /><circle cx="525" cy="355" fill="#2b92db" r="3.5" stroke-width="0" /><circle cx="615" cy="352" fill="#2b92db" r="3.5" stroke-width="0" /><circle cx="713" cy="337" fill="#2b92db" r="3.5" stroke-width="0" /><circle cx="659" cy="269" fill="#2b92db" r="3.5" stroke-width="0" /><circle cx="767" cy="253" fill="#2b92db" r="3.5" stroke-width="0" /><circle cx="684" cy="199" fill="#2b92db" r="3.5" stroke-width="0" /><circle cx="804" cy="187" fill="#2b92db" r="3.5" stroke-width="0" /><circle cx="705" cy="183" fill="#2b92db" r="3.5" stroke-width="0" /><circle cx="797" cy="182" fill="#2b92db" r="3.5" stroke-width="0" /><circle cx="826" cy="166" fill="#2b92db" r="3.5" stroke-width="0" /><circle cx="792" cy="137" fill="#2b92db" r="3.5" stroke-width="0" /><circle cx="875" cy="132" fill="#2b92db" r="3.5" stroke-width="0" /><circle cx="827" cy="121" fill="#2b92db" r="3.5" stroke-width="0" /><circle cx="871" cy="113" fill="#2b92db" r="3.5" stroke-width="0" /><circle cx="803" cy="112" fill="#2b92db" r="3.5" stroke-width="0" /><circle cx="851" cy="95" fill="#2b92db" r="3.5" stroke-width="0" /><circle cx="913" cy="85" fill="#2b92db" r="3.5" stroke-width="0" /></g><g class="e7"><circle cx="119" cy="684" fill="#911eb4" r="3.5" stroke-width="0" /><circle cx="205" cy="667" fill="#911eb4" r="3.5" stroke-width="0" /><circle cx="201" cy="637" fill="#911eb4" r="3.5" stroke-width="0" /><circle cx="151" cy="636" fill="#911eb4" r="3.5" stroke-width="0" /><circle cx="150" cy="635" fill="#911eb4" r="3.5" stroke-width="0" /><circle cx="244" cy="629" fill="#911eb4" r="3.5" stroke-width="0" /><circle cx="152" cy="625" fill="#911eb4" r="3.5" stroke-width="0" /><circle cx="219" cy="620" fill="#911eb4" r="3.5" stroke-width="0" /><circle cx="198" cy="616" fill="#911eb4" r="3.5" stroke-width="0" /><circle cx="228" cy="609" fill="#911eb4" r="3.5" stroke-width="0" /><circle cx="186" cy="602" fill="#911eb4" r="3.5" stroke-width="0" /><circle cx="222" cy="600" fill="#911eb4" r="3.5" stroke-width="0" /><circle cx="223" cy="592" fill="#911eb4" r="3.5" stroke-width="0" /><circle cx="215" cy="590" fill="#911eb4" r="3.5" stroke-width="0" /><circle cx="281" cy="563" fill="#911eb4" r="3.5" stroke-width="0" /><circle cx="303" cy="524" fill="#911eb4" r="3.5" stroke-width="0" /><circle cx="245" cy="488" fill="#911eb4" r="3.5" stroke-width="0" /><circle cx="327" cy="480" fill="#911eb4" r="3.5" stroke-width="0" /><circle cx="365" cy="476" fill="#911eb4" r="3.5" stroke-width="0" /><circle cx="253" cy="474" fill="#911eb4" r="3.5" stroke-width="0" /><circle cx="275" cy="466" fill="#911eb4" r="3.5" stroke-width="0" /><circle cx="308" cy="458" fill="#911eb4" r="3.5" stroke-width="0" /><circle cx="270" cy="456" fill="#911eb4" r="3.5" stroke-width="0" /><circle cx="356" cy="448" fill="#911eb4" r="3.5" stroke-width="0" /><circle cx="309" cy="384" fill="#911eb4" r="3.5" stroke-width="0" /><circle cx="508" cy="365" fill="#911eb4" r="3.5" stroke-width="0" /><circle cx="361" cy="357" fill="#911eb4" r="3.5" stroke-width="0" /><circle cx="397" cy="354" fill="#911eb4" r="3.5" stroke-width="0" /><circle cx="400" cy="339" fill="#911eb4" r="3.5" stroke-width="0" /><circle cx="437" cy="302" fill="#911eb4" r="3.5" stroke-width="0" /><circle cx="526" cy="299" fill="#911eb4" r="3.5" stroke-width="0" /><circle cx="515" cy="297" fill="#911eb4" r="3.5" stroke-width="0" /><circle cx="532" cy="293" fill="#911eb4" r="3.5" stroke-width="0" /><circle cx="424" cy="292" fill="#911eb4" r="3.5" stroke-width="0" /><circle cx="557" cy="287" fill="#911eb4" r="3.5" stroke-width="0" /><circle cx="535" cy="284" fill="#911eb4" r="3.5" stroke-width="0" /><circle cx="418" cy="278" fill="#911eb4" r="3.5" stroke-width="0" /><circle cx="521" cy="254" fill="#911eb4" r="3.5" stroke-width="0" /><circle cx="477" cy="238" fill="#911eb4" r="3.5" stroke-width="0" /><circle cx="621" cy="222" fill="#911eb4" r="3.5" stroke-width="0" /><circle cx="485" cy="208" fill="#911eb4" r="3.5" stroke-width="0" /><circle cx="683" cy="174" fill="#911eb4" r="3.5" stroke-width="0" /><circle cx="623" cy="157" fill="#911eb4" r="3.5" stroke-width="0" /><circle cx="592" cy="155" fill="#911eb4" r="3.5" stroke-width="0" /><circle cx="703" cy="139" fill="#911eb4" r="3.5" stroke-width="0" /><circle cx="568" cy="131" fill="#911eb4" r="3.5" stroke-width="0" /><circle cx="597" cy="118" fill="#911eb4" r="3.5" stroke-width="0" /><circle cx="694" cy="118" fill="#911eb4" r="3.5" stroke-width="0" /><circle cx="635" cy="92" fill="#911eb4" r="3.5" stroke-width="0" /><circle cx="667" cy="85" fill="#911eb4" r="3.5" stroke-width="0" /><circle cx="742" cy="78" fill="#911eb4" r="3.5" stroke-width="0" /></g><g class="e8"><circle cx="88" cy="552" fill="#3cb44B" r="3.5" stroke-width="0" /><circle cx="92" cy="530" fill="#3cb44B" r="3.5" stroke-width="0" /><circle cx="140" cy="496" fill="#3cb44B" r="3.5" stroke-width="0" /><circle cx="117" cy="444" fill="#3cb44B" r="3.5" stroke-width="0" /><circle cx="119" cy="407" fill="#3cb44B" r="3.5" stroke-width="0" /><circle cx="160" cy="403" fill="#3cb44B" r="3.5" stroke-width="0" /><circle cx="198" cy="403" fill="#3cb44B" r="3.5" stroke-width="0" /><circle cx="245" cy="390" fill="#3cb44B" r="3.5" stroke-width="0" /><circle cx="179" cy="389" fill="#3cb44B" r="3.5" stroke-width="0" /><circle cx="303" cy="389" fill="#3cb44B" r="3.5" stroke-width="0" /><circle cx="192" cy="365" fill="#3cb44B" r="3.5" stroke-width="0" /><circle cx="248" cy="356" fill="#3cb44B" r="3.5" stroke-width="0" /><circle cx="195" cy="354" fill="#3cb44B" r="3.5" stroke-width="0" /><circle cx="330" cy="353" fill="#3cb44B" r="3.5" stroke-width="0" /><circle cx="306" cy="330" fill="#3cb44B" r="3.5" stroke-width="0" /><circle cx="212" cy="317" fill="#3cb44B" r="3.5" stroke-width="0" /><circle cx="273" cy="310" fill="#3cb44B" r="3.5" stroke-width="0" /><circle cx="258" cy="295" fill="#3cb44B" r="3.5" stroke-width="0" /><circle cx="309" cy="289" fill="#3cb44B" r="3.5" stroke-width="0" /><circle cx="291" cy="234" fill="#3cb44B" r="3.5" stroke-width="0" /><circle cx="312" cy="221" fill="#3cb44B" r="3.5" stroke-width="0" /><circle cx="393" cy="178" fill="#3cb44B" r="3.5" stroke-width="0" /><circle cx="511" cy="178" fill="#3cb44B" r="3.5" stroke-width="0" /><circle cx="415" cy="169" fill="#3cb44B" r="3.5" stroke-width="0" /><circle cx="449" cy="149" fill="#3cb44B" r="3.5" stroke-width="0" /><circle cx="436" cy="146" fill="#3cb44B" r="3.5" stroke-width="0" /><circle cx="483" cy="139" fill="#3cb44B" r="3.5" stroke-width="0" /><circle cx="434" cy="133" fill="#3cb44B" r="3.5" stroke-width="0" /><circle cx="445" cy="132" fill="#3cb44B" r="3.5" stroke-width="0" /><circle cx="512" cy="117" fill="#3cb44B" r="3.5" stroke-width="0" /><circle cx="472" cy="110" fill="#3cb44B" r="3.5" stroke-width="0" /></g><g class="e9"><circle cx="76" cy="358" fill="#ff0000" r="3.5" stroke-width="0" /><circle cx="91" cy="352" fill="#ff0000" r="3.5" stroke-width="0" /><circle cx="163" cy="292" fill="#ff0000" r="3.5" stroke-width="0" /><circle cx="149" cy="277" fill="#ff0000" r="3.5" stroke-width="0" /><circle cx="169" cy="267" fill="#ff0000" r="3.5" stroke-width="0" /><circle cx="73" cy="264" fill="#ff0000" r="3.5" stroke-width="0" /><circle cx="258" cy="237" fill="#ff0000" r="3.5" stroke-width="0" /><circle cx="283" cy="217" fill="#ff0000" r="3.5" stroke-width="0" /><circle cx="243" cy="209" fill="#ff0000" r="3.5" stroke-width="0" /><circle cx="241" cy="204" fill="#ff0000" r="3.5" stroke-width="0" /><circle cx="297" cy="201" fill="#ff0000" r="3.5" stroke-width="0" /><circle cx="183" cy="200" fill="#ff0000" r="3.5" stroke-width="0" /><circle cx="197" cy="192" fill="#ff0000" r="3.5" stroke-width="0" /><circle cx="230" cy="192" fill="#ff0000" r="3.5" stroke-width="0" /><circle cx="312" cy="182" fill="#ff0000" r="3.5" stroke-width="0" /><circle cx="193" cy="155" fill="#ff0000" r="3.5" stroke-width="0" /><circle cx="199" cy="139" fill="#ff0000" r="3.5" stroke-width="0" /><circle cx="214" cy="130" fill="#ff0000" r="3.5" stroke-width="0" /><circle cx="243" cy="120" fill="#ff0000" r="3.5" stroke-width="0" /><circle cx="399" cy="106" fill="#ff0000" r="3.5" stroke-width="0" /><circle cx="297" cy="93" fill="#ff0000" r="3.5" stroke-width="0" /><circle cx="273" cy="84" fill="#ff0000" r="3.5" stroke-width="0" /><circle cx="368" cy="84" fill="#ff0000" r="3.5" stroke-width="0" /><circle cx="332" cy="81" fill="#ff0000" r="3.5" stroke-width="0" /><circle cx="425" cy="74" fill="#ff0000" r="3.5" stroke-width="0" /><circle cx="271" cy="71" fill="#ff0000" r="3.5" stroke-width="0" /></g><g class="e10"><circle cx="124" cy="205" fill="#2b92db" r="3.5" stroke-width="0" /><circle cx="76" cy="195" fill="#2b92db" r="3.5" stroke-width="0" /><circle cx="132" cy="176" fill="#2b92db" r="3.5" stroke-width="0" /><circle cx="155" cy="163" fill="#2b92db" r="3.5" stroke-width="0" /><circle cx="169" cy="161" fill="#2b92db" r="3.5" stroke-width="0" /><circle cx="169" cy="159" fill="#2b92db" r="3.5" stroke-width="0" /><circle cx="108" cy="119" fill="#2b92db" r="3.5" stroke-width="0" /><circle cx="187" cy="115" fill="#2b92db" r="3.5" stroke-width="0" /><circle cx="146" cy="85" fill="#2b92db" r="3.5" stroke-width="0" /><circle cx="153" cy="76" fill="#2b92db" r="3.5" stroke-width="0" /></g></g></g></svg>