<?xml version="1.0" encoding="utf-8" ?>
<svg baseProfile="full" height="1140px" style="font-size:15;font-family:Arial, san-serif;font-weight:bold;stroke:black;stroke-width:0;fill:#444444" version="1.1" width="1140px" xmlns="http://www.w3.org/2000/svg" xmlns:ev="http://www.w3.org/2001/xml-events" xmlns:xlink="http://www.w3.org/1999/xlink"><defs><clipPath id="areadografico"><rect height="1000" width="1000" x="70" y="70" /></clipPath></defs><g class="master"><g class="poligonos"><polygon clip-path="url(#areadografico)" fill="#000000" fill-opacity="0.1" points="1069,1070 1069,405 405,1070" /><polygon clip-path="url(#areadografico)" fill="#ffffff" fill-opacity="0.1" points="405,1070 -261,1070 1069,-261 1069,405" /><polygon clip-path="url(#areadografico)" fill="#000000" fill-opacity="0.1" points="70,70 70,738 738,70" /></g><g class="linhas"><line fill-opacity="0.3" stroke="#999999" stroke-width="1" x1="1070" x2="1070" y1="1070" y2="70" /><line fill-opacity="0.3" stroke="#999999" stroke-width="1" x1="70" x2="1070" y1="70" y2="70" /><line fill-opacity="0.3" stroke="#999999" stroke-width="1" x1="970" x2="970" y1="1070" y2="70" /><line fill-opacity="0.3" stroke="#999999" stroke-width="1" x1="70" x2="1070" y1="170" y2="170" /><line fill-opacity="0.3" stroke="#999999" stroke-width="1" x1="870" x2="870" y1="1070" y2="70" /><line fill-opacity="0.3" stroke="#999999" stroke-width="1" x1="70" x2="1070" y1="270" y2="270" /><line fill-opacity="0.3" stroke="#999999" stroke-width="1" x1="770" x2="770" y1="1070" y2="70" /><line fill-opacity="0.3" stroke="#999999" stroke-width="1" x1="70" x2="1070" y1="370" y2="370" /><line fill-opacity="0.3" stroke="#999999" stroke-width="1" x1="670" x2="670" y1="1070" y2="70" /><line fill-opacity="0.3" stroke="#999999" stroke-width="1" x1="70" x2="1070" y1="470" y2="470" /><line fill-opacity="0.3" stroke="#999999" stroke-width="1" x1="570" x2="570" y1="1070" y2="70" /><line fill-opacity="0.3" stroke="#999999" stroke-width="1" x1="70" x2="1070" y1="570" y2="570" /><line fill-opacity="0.3" stroke="#999999" stroke-width="1" x1="470" x2="470" y1="1070" y2="70" /><line fill-opacity="0.3" stroke="#999999" stroke-width="1" x1="70" x2="1070" y1="670" y2="670" /><line fill-opacity="0.3" stroke="#999999" stroke-width="1" x1="370" x2="370" y1="1070" y2="70" /><line fill-opacity="0.3" stroke="#999999" stroke-width="1" x1="70" x2="1070" y1="770" y2="770" /><line fill-opacity="0.3" stroke="#999999" stroke-width="1" x1="270" x2="270" y1="1070" y2="70" /><line fill-opacity="0.3" stroke="#999999" stroke-width="1" x1="70" x2="1070" y1="870" y2="870" /><line fill-opacity="0.3" stroke="#999999" stroke-width="1" x1="170" x2="170" y1="1070" y2="70" /><line fill-opacity="0.3" stroke="#999999" stroke-width="1" x1="70" x2="1070" y1="970" y2="970" /><line fill-opacity="0.3" stroke="#000000" stroke-width="1" x1="70" x2="70" y1="1071" y2="69" /><line fill-opacity="0.3" stroke="#000000" stroke-width="1" x1="69" x2="1071" y1="1070" y2="1070" /></g><g class="textos"><text x="1050" y="1110">1000</text><text x="10" y="71">1000</text><text x="950" y="1110">900</text><text x="10" y="171">900</text><text x="850" y="1110">800</text><text x="10" y="271">800</text><text x="750" y="1110">700</text><text x="10" y="371">700</text><text x="650" y="1110">600</text><text x="10" y="471">600</text><text x="550" y="1110">500</text><text x="10" y="571">500</text><text x="450" y="1110">400</text><text x="10" y="671">400</text><text x="350" y="1110">300</text><text x="10" y="771">300</text><text x="250" y="1110">200</text><text x="10" y="871">200</text><text x="150" y="1110">100</text><text x="10" y="971">100</text><text x="50" y="1111">0</text><text x="9" y="1071">0</text></g><g class="especies"><g class="e0"><circle cx="881" cy="1036" fill="#3cb44B" r="3.5" stroke-width="0" /><circle cx="789" cy="1024" fill="#3cb44B" r="3.5" stroke-width="0" /><circle cx="839" cy="996" fill="#3cb44B" r="3.5" stroke-width="0" /><circle cx="825" cy="953" fill="#3cb44B" r="3.5" stroke-width="0" /><circle cx="722" cy="945" fill="#3cb44B" r="3.5" stroke-width="0" /><circle cx="817" cy="941" fill="#3cb44B" r="3.5" stroke-width="0" /><circle cx="797" cy="864" fill="#3cb44B" r="3.5" stroke-width="0" /><circle cx="901" cy="857" fill="#3cb44B" r="3.5" stroke-width="0" /><circle cx="756" cy="840" fill="#3cb44B" r="3.5" stroke-width="0" /><circle cx="852" cy="829" fill="#3cb44B" r="3.5" stroke-width="0" /><circle cx="840" cy="815" fill="#3cb44B" r="3.5" stroke-width="0" /><circle cx="840" cy="782" fill="#3cb44B" r="3.5" stroke-width="0" /><circle cx="811" cy="765" fill="#3cb44B" r="3.5" stroke-width="0" /><circle cx="838" cy="738" fill="#3cb44B" r="3.5" stroke-width="0" /><circle cx="833" cy="676" fill="#3cb44B" r="3.5" stroke-width="0" /><circle cx="836" cy="650" fill="#3cb44B" r="3.5" stroke-width="0" /><circle cx="882" cy="639" fill="#3cb44B" r="3.5" stroke-width="0" /></g><g class="e1"><circle cx="408" cy="1045" fill="#ff0000" r="3.5" stroke-width="0" /><circle cx="374" cy="1040" fill="#ff0000" r="3.5" stroke-width="0" /><circle cx="301" cy="1037" fill="#ff0000" r="3.5" stroke-width="0" /><circle cx="298" cy="1010" fill="#ff0000" r="3.5" stroke-width="0" /><circle cx="306" cy="1006" fill="#ff0000" r="3.5" stroke-width="0" /><circle cx="299" cy="951" fill="#ff0000" r="3.5" stroke-width="0" /><circle cx="289" cy="925" fill="#ff0000" r="3.5" stroke-width="0" /><circle cx="307" cy="919" fill="#ff0000" r="3.5" stroke-width="0" /><circle cx="356" cy="905" fill="#ff0000" r="3.5" stroke-width="0" /><circle cx="363" cy="898" fill="#ff0000" r="3.5" stroke-width="0" /><circle cx="392" cy="893" fill="#ff0000" r="3.5" stroke-width="0" /><circle cx="367" cy="869" fill="#ff0000" r="3.5" stroke-width="0" /><circle cx="348" cy="855" fill="#ff0000" r="3.5" stroke-width="0" /><circle cx="312" cy="853" fill="#ff0000" r="3.5" stroke-width="0" /><circle cx="313" cy="837" fill="#ff0000" r="3.5" stroke-width="0" /><circle cx="291" cy="828" fill="#ff0000" r="3.5" stroke-width="0" /><circle cx="376" cy="827" fill="#ff0000" r="3.5" stroke-width="0" /><circle cx="294" cy="817" fill="#ff0000" r="3.5" stroke-width="0" /><circle cx="310" cy="807" fill="#ff0000" r="3.5" stroke-width="0" /><circle cx="297" cy="787" fill="#ff0000" r="3.5" stroke-width="0" /><circle cx="330" cy="769" fill="#ff0000" r="3.5" stroke-width="0" /><circle cx="277" cy="716" fill="#ff0000" r="3.5" stroke-width="0" /><circle cx="384" cy="715" fill="#ff0000" r="3.5" stroke-width="0" /><circle cx="290" cy="706" fill="#ff0000" r="3.5" stroke-width="0" /><circle cx="341" cy="693" fill="#ff0000" r="3.5" stroke-width="0" /><circle cx="296" cy="681" fill="#ff0000" r="3.5" stroke-width="0" /><circle cx="365" cy="675" fill="#ff0000" r="3.5" stroke-width="0" /><circle cx="826" cy="623" fill="#ff0000" r="3.5" stroke-width="0" /><circle cx="320" cy="589" fill="#ff0000" r="3.5" stroke-width="0" /><circle cx="796" cy="585" fill="#ff0000" r="3.5" stroke-width="0" /><circle cx="731" cy="582" fill="#ff0000" r="3.5" stroke-width="0" /><circle cx="806" cy="580" fill="#ff0000" r="3.5" stroke-width="0" /><circle cx="398" cy="568" fill="#ff0000" r="3.5" stroke-width="0" /><circle cx="755" cy="568" fill="#ff0000" r="3.5" stroke-width="0" /><circle cx="296" cy="559" fill="#ff0000" r="3.5" stroke-width="0" /><circle cx="349" cy="547" fill="#ff0000" r="3.5" stroke-width="0" /><circle cx="829" cy="545" fill="#ff0000" r="3.5" stroke-width="0" /><circle cx="807" cy="533" fill="#ff0000" r="3.5" stroke-width="0" /><circle cx="316" cy="523" fill="#ff0000" r="3.5" stroke-width="0" /><circle cx="315" cy="509" fill="#ff0000" r="3.5" stroke-width="0" /><circle cx="831" cy="506" fill="#ff0000" r="3.5" stroke-width="0" /><circle cx="863" cy="506" fill="#ff0000" r="3.5" stroke-width="0" /><circle cx="816" cy="494" fill="#ff0000" r="3.5" stroke-width="0" /><circle cx="854" cy="491" fill="#ff0000" r="3.5" stroke-width="0" /><circle cx="839" cy="490" fill="#ff0000" r="3.5" stroke-width="0" /><circle cx="374" cy="488" fill="#ff0000" r="3.5" stroke-width="0" /><circle cx="810" cy="482" fill="#ff0000" r="3.5" stroke-width="0" /><circle cx="823" cy="476" fill="#ff0000" r="3.5" stroke-width="0" /><circle cx="754" cy="473" fill="#ff0000" r="3.5" stroke-width="0" /><circle cx="809" cy="442" fill="#ff0000" r="3.5" stroke-width="0" /><circle cx="833" cy="430" fill="#ff0000" r="3.5" stroke-width="0" /><circle cx="872" cy="401" fill="#ff0000" r="3.5" stroke-width="0" /><circle cx="836" cy="381" fill="#ff0000" r="3.5" stroke-width="0" /><circle cx="800" cy="366" fill="#ff0000" r="3.5" stroke-width="0" /><circle cx="754" cy="357" fill="#ff0000" r="3.5" stroke-width="0" /><circle cx="779" cy="352" fill="#ff0000" r="3.5" stroke-width="0" /><circle cx="868" cy="302" fill="#ff0000" r="3.5" stroke-width="0" /><circle cx="801" cy="281" fill="#ff0000" r="3.5" stroke-width="0" /><circle cx="879" cy="273" fill="#ff0000" r="3.5" stroke-width="0" /><circle cx="837" cy="217" fill="#ff0000" r="3.5" stroke-width="0" /><circle cx="842" cy="194" fill="#ff0000" r="3.5" stroke-width="0" /><circle cx="767" cy="186" fill="#ff0000" r="3.5" stroke-width="0" /><circle cx="827" cy="75" fill="#ff0000" r="3.5" stroke-width="0" /></g><g class="e2"><circle cx="310" cy="493" fill="#2b92db" r="3.5" stroke-width="0" /><circle cx="267" cy="482" fill="#2b92db" r="3.5" stroke-width="0" /><circle cx="337" cy="464" fill="#2b92db" r="3.5" stroke-width="0" /><circle cx="353" cy="447" fill="#2b92db" r="3.5" stroke-width="0" /><circle cx="282" cy="441" fill="#2b92db" r="3.5" stroke-width="0" /><circle cx="322" cy="434" fill="#2b92db" r="3.5" stroke-width="0" /><circle cx="308" cy="420" fill="#2b92db" r="3.5" stroke-width="0" /><circle cx="272" cy="259" fill="#2b92db" r="3.5" stroke-width="0" /><circle cx="349" cy="246" fill="#2b92db" r="3.5" stroke-width="0" /><circle cx="267" cy="233" fill="#2b92db" r="3.5" stroke-width="0" /><circle cx="268" cy="211" fill="#2b92db" r="3.5" stroke-width="0" /><circle cx="328" cy="184" fill="#2b92db" r="3.5" stroke-width="0" /><circle cx="323" cy="160" fill="#2b92db" r="3.5" stroke-width="0" /></g></g></g></svg>