<?xml version="1.0" encoding="utf-8" ?>
<svg baseProfile="full" height="1140px" style="font-size:15;font-family:Arial, san-serif;font-weight:bold;stroke:black;stroke-width:0;fill:#444444" version="1.1" width="1140px" xmlns="http://www.w3.org/2000/svg" xmlns:ev="http://www.w3.org/2001/xml-events" xmlns:xlink="http://www.w3.org/1999/xlink"><defs><clipPath id="areadografico"><rect height="1000" width="1000" x="70" y="70" /></clipPath></defs><g class="master"><g class="poligonos"><polygon clip-path="url(#areadografico)" fill="#000000" fill-opacity="0.1" points="1069,1070 1069,405 405,1070" /><polygon clip-path="url(#areadografico)" fill="#ffffff" fill-opacity="0.1" points="405,1070 -261,1070 1069,-261 1069,405" /><polygon clip-path="url(#areadografico)" fill="#000000" fill-opacity="0.1" points="70,70 70,738 738,70" /></g><g class="linhas"><line fill-opacity="0.3" stroke="#999999" stroke-width="1" x1="1070" x2="1070" y1="1070" y2="70" /><line fill-opacity="0.3" stroke="#999999" stroke-width="1" x1="70" x2="1070" y1="70" y2="70" /><line fill-opacity="0.3" stroke="#999999" stroke-width="1" x1="970" x2="970" y1="1070" y2="70" /><line fill-opacity="0.3" stroke="#999999" stroke-width="1" x1="70" x2="1070" y1="170" y2="170" /><line fill-opacity="0.3" stroke="#999999" stroke-width="1" x1="870" x2="870" y1="1070" y2="70" /><line fill-opacity="0.3" stroke="#999999" stroke-width="1" x1="70" x2="1070" y1="270" y2="270" /><line fill-opacity="0.3" stroke="#999999" stroke-width="1" x1="770" x2="770" y1="1070" y2="70" /><line fill-opacity="0.3" stroke="#999999" stroke-width="1" x1="70" x2="1070" y1="370" y2="370" /><line fill-opacity="0.3" stroke="#999999" stroke-width="1" x1="670" x2="670" y1="1070" y2="70" /><line fill-opacity="0.3" stroke="#999999" stroke-width="1" x1="70" x2="1070" y1="470" y2="470" /><line fill-opacity="0.3" stroke="#999999" stroke-width="1" x1="570" x2="570" y1="1070" y2="70" /><line fill-opacity="0.3" stroke="#999999" stroke-width="1" x1="70" x2="1070" y1="570" y2="570" /><line fill-opacity="0.3" stroke="#999999" stroke-width="1" x1="470" x2="470" y1="1070" y2="70" /><line fill-opacity="0.3" stroke="#999999" stroke-width="1" x1="70" x2="1070" y1="670" y2="670" /><line fill-opacity="0.3" stroke="#999999" stroke-width="1" x1="370" x2="370" y1="1070" y2="70" /><line fill-opacity="0.3" stroke="#999999" stroke-width="1" x1="70" x2="1070" y1="770" y2="770" /><line fill-opacity="0.3" stroke="#999999" stroke-width="1" x1="270" x2="270" y1="1070" y2="70" /><line fill-opacity="0.3" stroke="#999999" stroke-width="1" x1="70" x2="1070" y1="870" y2="870" /><line fill-opacity="0.3" stroke="#999999" stroke-width="1" x1="170" x2="170" y1="1070" y2="70" /><line fill-opacity="0.3" stroke="#999999" stroke-width="1" x1="70" x2="1070" y1="970" y2="970" /><line fill-opacity="0.3" stroke="#000000" stroke-width="1" x1="70" x2="70" y1="1071" y2="69" /><line fill-opacity="0.3" stroke="#000000" stroke-width="1" x1="69" x2="1071" y1="1070" y2="1070" /></g><g class="textos"><text x="1050" y="1110">1000</text><text x="10" y="71">1000</text><text x="950" y="1110">900</text><text x="10" y="171">900</text><text x="850" y="1110">800</text><text x="10" y="271">800</text><text x="750" y="1110">700</text><text x="10" y="371">700</text><text x="650" y="1110">600</text><text x="10" y="471">600</text><text x="550" y="1110">500</text><text x="10" y="571">500</text><text x="450" y="1110">400</text><text x="10" y="671">400</text><text x="350" y="1110">300</text><text x="10" y="771">300</text><text x="250" y="1110">200</text><text x="10" y="871">200</text><text x="150" y="1110">100</text><text x="10" y="971">100</text><text x="50" y="1111">0</text><text x="9" y="1071">0</text></g><g class="especies"><g class="e0"><circle cx="821" cy="777" fill="#3cb44B" r="3.5" stroke-width="0" /><circle cx="829" cy="758" fill="#3cb44B" r="3.5" stroke-width="0" /><circle cx="824" cy="737" fill="#3cb44B" r="3.5" stroke-width="0" /><circle cx="822" cy="731" fill="#3cb44B" r="3.5" stroke-width="0" /><circle cx="824" cy="730" fill="#3cb44B" r="3.5" stroke-width="0" /><circle cx="806" cy="717" fill="#3cb44B" r="3.5" stroke-width="0" /><circle cx="835" cy="717" fill="#3cb44B" r="3.5" stroke-width="0" /><circle cx="810" cy="711" fill="#3cb44B" r="3.5" stroke-width="0" /><circle cx="811" cy="710" fill="#3cb44B" r="3.5" stroke-width="0" /><circle cx="826" cy="708" fill="#3cb44B" r="3.5" stroke-width="0" /><circle cx="822" cy="704" fill="#3cb44B" r="3.5" stroke-width="0" /><circle cx="814" cy="696" fill="#3cb44B" r="3.5" stroke-width="0" /><circle cx="822" cy="695" fill="#3cb44B" r="3.5" stroke-width="0" /><circle cx="811" cy="689" fill="#3cb44B" r="3.5" stroke-width="0" /><circle cx="815" cy="689" fill="#3cb44B" r="3.5" stroke-width="0" /><circle cx="826" cy="684" fill="#3cb44B" r="3.5" stroke-width="0" /><circle cx="827" cy="683" fill="#3cb44B" r="3.5" stroke-width="0" /><circle cx="820" cy="678" fill="#3cb44B" r="3.5" stroke-width="0" /><circle cx="809" cy="670" fill="#3cb44B" r="3.5" stroke-width="0" /><circle cx="810" cy="668" fill="#3cb44B" r="3.5" stroke-width="0" /><circle cx="826" cy="664" fill="#3cb44B" r="3.5" stroke-width="0" /><circle cx="817" cy="661" fill="#3cb44B" r="3.5" stroke-width="0" /><circle cx="825" cy="658" fill="#3cb44B" r="3.5" stroke-width="0" /><circle cx="821" cy="657" fill="#3cb44B" r="3.5" stroke-width="0" /><circle cx="829" cy="650" fill="#3cb44B" r="3.5" stroke-width="0" /><circle cx="831" cy="649" fill="#3cb44B" r="3.5" stroke-width="0" /><circle cx="833" cy="647" fill="#3cb44B" r="3.5" stroke-width="0" /><circle cx="839" cy="644" fill="#3cb44B" r="3.5" stroke-width="0" /></g><g class="e1"><circle cx="321" cy="827" fill="#ff0000" r="3.5" stroke-width="0" /><circle cx="338" cy="778" fill="#ff0000" r="3.5" stroke-width="0" /><circle cx="318" cy="773" fill="#ff0000" r="3.5" stroke-width="0" /><circle cx="314" cy="771" fill="#ff0000" r="3.5" stroke-width="0" /><circle cx="314" cy="770" fill="#ff0000" r="3.5" stroke-width="0" /><circle cx="329" cy="761" fill="#ff0000" r="3.5" stroke-width="0" /><circle cx="319" cy="757" fill="#ff0000" r="3.5" stroke-width="0" /><circle cx="316" cy="738" fill="#ff0000" r="3.5" stroke-width="0" /><circle cx="327" cy="737" fill="#ff0000" r="3.5" stroke-width="0" /><circle cx="332" cy="733" fill="#ff0000" r="3.5" stroke-width="0" /><circle cx="314" cy="730" fill="#ff0000" r="3.5" stroke-width="0" /><circle cx="331" cy="717" fill="#ff0000" r="3.5" stroke-width="0" /><circle cx="319" cy="709" fill="#ff0000" r="3.5" stroke-width="0" /><circle cx="305" cy="704" fill="#ff0000" r="3.5" stroke-width="0" /><circle cx="315" cy="702" fill="#ff0000" r="3.5" stroke-width="0" /><circle cx="339" cy="697" fill="#ff0000" r="3.5" stroke-width="0" /><circle cx="314" cy="695" fill="#ff0000" r="3.5" stroke-width="0" /><circle cx="324" cy="692" fill="#ff0000" r="3.5" stroke-width="0" /><circle cx="319" cy="691" fill="#ff0000" r="3.5" stroke-width="0" /><circle cx="325" cy="685" fill="#ff0000" r="3.5" stroke-width="0" /><circle cx="323" cy="683" fill="#ff0000" r="3.5" stroke-width="0" /><circle cx="300" cy="681" fill="#ff0000" r="3.5" stroke-width="0" /><circle cx="313" cy="681" fill="#ff0000" r="3.5" stroke-width="0" /><circle cx="317" cy="675" fill="#ff0000" r="3.5" stroke-width="0" /><circle cx="319" cy="674" fill="#ff0000" r="3.5" stroke-width="0" /><circle cx="316" cy="671" fill="#ff0000" r="3.5" stroke-width="0" /><circle cx="329" cy="670" fill="#ff0000" r="3.5" stroke-width="0" /><circle cx="325" cy="669" fill="#ff0000" r="3.5" stroke-width="0" /><circle cx="315" cy="666" fill="#ff0000" r="3.5" stroke-width="0" /><circle cx="325" cy="665" fill="#ff0000" r="3.5" stroke-width="0" /><circle cx="338" cy="665" fill="#ff0000" r="3.5" stroke-width="0" /><circle cx="307" cy="664" fill="#ff0000" r="3.5" stroke-width="0" /><circle cx="311" cy="664" fill="#ff0000" r="3.5" stroke-width="0" /><circle cx="330" cy="664" fill="#ff0000" r="3.5" stroke-width="0" /><circle cx="329" cy="663" fill="#ff0000" r="3.5" stroke-width="0" /><circle cx="317" cy="661" fill="#ff0000" r="3.5" stroke-width="0" /><circle cx="810" cy="660" fill="#ff0000" r="3.5" stroke-width="0" /><circle cx="301" cy="656" fill="#ff0000" r="3.5" stroke-width="0" /><circle cx="314" cy="656" fill="#ff0000" r="3.5" stroke-width="0" /><circle cx="313" cy="655" fill="#ff0000" r="3.5" stroke-width="0" /><circle cx="331" cy="655" fill="#ff0000" r="3.5" stroke-width="0" /><circle cx="330" cy="654" fill="#ff0000" r="3.5" stroke-width="0" /><circle cx="309" cy="653" fill="#ff0000" r="3.5" stroke-width="0" /><circle cx="822" cy="651" fill="#ff0000" r="3.5" stroke-width="0" /><circle cx="299" cy="650" fill="#ff0000" r="3.5" stroke-width="0" /><circle cx="327" cy="650" fill="#ff0000" r="3.5" stroke-width="0" /><circle cx="332" cy="650" fill="#ff0000" r="3.5" stroke-width="0" /><circle cx="818" cy="650" fill="#ff0000" r="3.5" stroke-width="0" /><circle cx="814" cy="649" fill="#ff0000" r="3.5" stroke-width="0" /><circle cx="815" cy="647" fill="#ff0000" r="3.5" stroke-width="0" /><circle cx="302" cy="645" fill="#ff0000" r="3.5" stroke-width="0" /><circle cx="310" cy="645" fill="#ff0000" r="3.5" stroke-width="0" /><circle cx="320" cy="645" fill="#ff0000" r="3.5" stroke-width="0" /><circle cx="323" cy="644" fill="#ff0000" r="3.5" stroke-width="0" /><circle cx="818" cy="644" fill="#ff0000" r="3.5" stroke-width="0" /><circle cx="824" cy="643" fill="#ff0000" r="3.5" stroke-width="0" /><circle cx="315" cy="642" fill="#ff0000" r="3.5" stroke-width="0" /><circle cx="822" cy="642" fill="#ff0000" r="3.5" stroke-width="0" /><circle cx="327" cy="640" fill="#ff0000" r="3.5" stroke-width="0" /><circle cx="330" cy="639" fill="#ff0000" r="3.5" stroke-width="0" /><circle cx="813" cy="639" fill="#ff0000" r="3.5" stroke-width="0" /><circle cx="823" cy="639" fill="#ff0000" r="3.5" stroke-width="0" /><circle cx="309" cy="637" fill="#ff0000" r="3.5" stroke-width="0" /><circle cx="316" cy="637" fill="#ff0000" r="3.5" stroke-width="0" /><circle cx="816" cy="637" fill="#ff0000" r="3.5" stroke-width="0" /><circle cx="823" cy="637" fill="#ff0000" r="3.5" stroke-width="0" /><circle cx="319" cy="635" fill="#ff0000" r="3.5" stroke-width="0" /><circle cx="803" cy="635" fill="#ff0000" r="3.5" stroke-width="0" /><circle cx="820" cy="634" fill="#ff0000" r="3.5" stroke-width="0" /><circle cx="820" cy="634" fill="#ff0000" r="3.5" stroke-width="0" /><circle cx="325" cy="633" fill="#ff0000" r="3.5" stroke-width="0" /><circle cx="814" cy="633" fill="#ff0000" r="3.5" stroke-width="0" /><circle cx="827" cy="633" fill="#ff0000" r="3.5" stroke-width="0" /><circle cx="795" cy="632" fill="#ff0000" r="3.5" stroke-width="0" /><circle cx="317" cy="631" fill="#ff0000" r="3.5" stroke-width="0" /><circle cx="816" cy="631" fill="#ff0000" r="3.5" stroke-width="0" /><circle cx="830" cy="631" fill="#ff0000" r="3.5" stroke-width="0" /><circle cx="326" cy="630" fill="#ff0000" r="3.5" stroke-width="0" /><circle cx="838" cy="629" fill="#ff0000" r="3.5" stroke-width="0" /><circle cx="302" cy="627" fill="#ff0000" r="3.5" stroke-width="0" /><circle cx="303" cy="627" fill="#ff0000" r="3.5" stroke-width="0" /><circle cx="821" cy="627" fill="#ff0000" r="3.5" stroke-width="0" /><circle cx="812" cy="626" fill="#ff0000" r="3.5" stroke-width="0" /><circle cx="313" cy="625" fill="#ff0000" r="3.5" stroke-width="0" /><circle cx="318" cy="624" fill="#ff0000" r="3.5" stroke-width="0" /><circle cx="325" cy="624" fill="#ff0000" r="3.5" stroke-width="0" /><circle cx="821" cy="622" fill="#ff0000" r="3.5" stroke-width="0" /><circle cx="317" cy="621" fill="#ff0000" r="3.5" stroke-width="0" /><circle cx="345" cy="620" fill="#ff0000" r="3.5" stroke-width="0" /><circle cx="294" cy="619" fill="#ff0000" r="3.5" stroke-width="0" /><circle cx="320" cy="619" fill="#ff0000" r="3.5" stroke-width="0" /><circle cx="811" cy="619" fill="#ff0000" r="3.5" stroke-width="0" /><circle cx="341" cy="618" fill="#ff0000" r="3.5" stroke-width="0" /><circle cx="802" cy="618" fill="#ff0000" r="3.5" stroke-width="0" /><circle cx="820" cy="618" fill="#ff0000" r="3.5" stroke-width="0" /><circle cx="302" cy="617" fill="#ff0000" r="3.5" stroke-width="0" /><circle cx="313" cy="617" fill="#ff0000" r="3.5" stroke-width="0" /><circle cx="315" cy="617" fill="#ff0000" r="3.5" stroke-width="0" /><circle cx="338" cy="617" fill="#ff0000" r="3.5" stroke-width="0" /><circle cx="310" cy="615" fill="#ff0000" r="3.5" stroke-width="0" /><circle cx="323" cy="615" fill="#ff0000" r="3.5" stroke-width="0" /><circle cx="326" cy="615" fill="#ff0000" r="3.5" stroke-width="0" /><circle cx="806" cy="615" fill="#ff0000" r="3.5" stroke-width="0" /><circle cx="817" cy="615" fill="#ff0000" r="3.5" stroke-width="0" /><circle cx="829" cy="615" fill="#ff0000" r="3.5" stroke-width="0" /><circle cx="310" cy="614" fill="#ff0000" r="3.5" stroke-width="0" /><circle cx="814" cy="613" fill="#ff0000" r="3.5" stroke-width="0" /><circle cx="815" cy="613" fill="#ff0000" r="3.5" stroke-width="0" /><circle cx="817" cy="612" fill="#ff0000" r="3.5" stroke-width="0" /><circle cx="837" cy="612" fill="#ff0000" r="3.5" stroke-width="0" /><circle cx="326" cy="610" fill="#ff0000" r="3.5" stroke-width="0" /><circle cx="813" cy="610" fill="#ff0000" r="3.5" stroke-width="0" /><circle cx="304" cy="609" fill="#ff0000" r="3.5" stroke-width="0" /><circle cx="320" cy="609" fill="#ff0000" r="3.5" stroke-width="0" /><circle cx="820" cy="609" fill="#ff0000" r="3.5" stroke-width="0" /><circle cx="308" cy="608" fill="#ff0000" r="3.5" stroke-width="0" /><circle cx="324" cy="608" fill="#ff0000" r="3.5" stroke-width="0" /><circle cx="310" cy="606" fill="#ff0000" r="3.5" stroke-width="0" /><circle cx="808" cy="606" fill="#ff0000" r="3.5" stroke-width="0" /><circle cx="813" cy="604" fill="#ff0000" r="3.5" stroke-width="0" /><circle cx="814" cy="603" fill="#ff0000" r="3.5" stroke-width="0" /><circle cx="815" cy="603" fill="#ff0000" r="3.5" stroke-width="0" /><circle cx="821" cy="602" fill="#ff0000" r="3.5" stroke-width="0" /><circle cx="822" cy="602" fill="#ff0000" r="3.5" stroke-width="0" /><circle cx="305" cy="601" fill="#ff0000" r="3.5" stroke-width="0" /><circle cx="308" cy="601" fill="#ff0000" r="3.5" stroke-width="0" /><circle cx="345" cy="601" fill="#ff0000" r="3.5" stroke-width="0" /><circle cx="815" cy="601" fill="#ff0000" r="3.5" stroke-width="0" /><circle cx="311" cy="600" fill="#ff0000" r="3.5" stroke-width="0" /><circle cx="329" cy="600" fill="#ff0000" r="3.5" stroke-width="0" /><circle cx="327" cy="599" fill="#ff0000" r="3.5" stroke-width="0" /><circle cx="820" cy="599" fill="#ff0000" r="3.5" stroke-width="0" /><circle cx="817" cy="598" fill="#ff0000" r="3.5" stroke-width="0" /><circle cx="314" cy="597" fill="#ff0000" r="3.5" stroke-width="0" /><circle cx="816" cy="596" fill="#ff0000" r="3.5" stroke-width="0" /><circle cx="315" cy="595" fill="#ff0000" r="3.5" stroke-width="0" /><circle cx="820" cy="595" fill="#ff0000" r="3.5" stroke-width="0" /><circle cx="820" cy="594" fill="#ff0000" r="3.5" stroke-width="0" /><circle cx="332" cy="593" fill="#ff0000" r="3.5" stroke-width="0" /><circle cx="808" cy="593" fill="#ff0000" r="3.5" stroke-width="0" /><circle cx="309" cy="592" fill="#ff0000" r="3.5" stroke-width="0" /><circle cx="323" cy="592" fill="#ff0000" r="3.5" stroke-width="0" /><circle cx="320" cy="591" fill="#ff0000" r="3.5" stroke-width="0" /><circle cx="818" cy="591" fill="#ff0000" r="3.5" stroke-width="0" /><circle cx="302" cy="589" fill="#ff0000" r="3.5" stroke-width="0" /><circle cx="319" cy="589" fill="#ff0000" r="3.5" stroke-width="0" /><circle cx="820" cy="589" fill="#ff0000" r="3.5" stroke-width="0" /><circle cx="806" cy="588" fill="#ff0000" r="3.5" stroke-width="0" /><circle cx="830" cy="588" fill="#ff0000" r="3.5" stroke-width="0" /><circle cx="306" cy="587" fill="#ff0000" r="3.5" stroke-width="0" /><circle cx="815" cy="587" fill="#ff0000" r="3.5" stroke-width="0" /><circle cx="830" cy="587" fill="#ff0000" r="3.5" stroke-width="0" /><circle cx="334" cy="586" fill="#ff0000" r="3.5" stroke-width="0" /><circle cx="313" cy="585" fill="#ff0000" r="3.5" stroke-width="0" /><circle cx="317" cy="585" fill="#ff0000" r="3.5" stroke-width="0" /><circle cx="813" cy="584" fill="#ff0000" r="3.5" stroke-width="0" /><circle cx="813" cy="582" fill="#ff0000" r="3.5" stroke-width="0" /><circle cx="831" cy="582" fill="#ff0000" r="3.5" stroke-width="0" /><circle cx="311" cy="581" fill="#ff0000" r="3.5" stroke-width="0" /><circle cx="817" cy="581" fill="#ff0000" r="3.5" stroke-width="0" /><circle cx="323" cy="579" fill="#ff0000" r="3.5" stroke-width="0" /><circle cx="330" cy="579" fill="#ff0000" r="3.5" stroke-width="0" /><circle cx="816" cy="579" fill="#ff0000" r="3.5" stroke-width="0" /><circle cx="828" cy="579" fill="#ff0000" r="3.5" stroke-width="0" /><circle cx="830" cy="579" fill="#ff0000" r="3.5" stroke-width="0" /><circle cx="830" cy="579" fill="#ff0000" r="3.5" stroke-width="0" /><circle cx="831" cy="578" fill="#ff0000" r="3.5" stroke-width="0" /><circle cx="305" cy="577" fill="#ff0000" r="3.5" stroke-width="0" /><circle cx="331" cy="577" fill="#ff0000" r="3.5" stroke-width="0" /><circle cx="834" cy="576" fill="#ff0000" r="3.5" stroke-width="0" /><circle cx="322" cy="575" fill="#ff0000" r="3.5" stroke-width="0" /><circle cx="818" cy="574" fill="#ff0000" r="3.5" stroke-width="0" /><circle cx="827" cy="573" fill="#ff0000" r="3.5" stroke-width="0" /><circle cx="298" cy="572" fill="#ff0000" r="3.5" stroke-width="0" /><circle cx="313" cy="572" fill="#ff0000" r="3.5" stroke-width="0" /><circle cx="332" cy="572" fill="#ff0000" r="3.5" stroke-width="0" /><circle cx="816" cy="572" fill="#ff0000" r="3.5" stroke-width="0" /><circle cx="817" cy="572" fill="#ff0000" r="3.5" stroke-width="0" /><circle cx="313" cy="571" fill="#ff0000" r="3.5" stroke-width="0" /><circle cx="824" cy="571" fill="#ff0000" r="3.5" stroke-width="0" /><circle cx="311" cy="570" fill="#ff0000" r="3.5" stroke-width="0" /><circle cx="320" cy="570" fill="#ff0000" r="3.5" stroke-width="0" /><circle cx="332" cy="569" fill="#ff0000" r="3.5" stroke-width="0" /><circle cx="315" cy="568" fill="#ff0000" r="3.5" stroke-width="0" /><circle cx="821" cy="568" fill="#ff0000" r="3.5" stroke-width="0" /><circle cx="323" cy="567" fill="#ff0000" r="3.5" stroke-width="0" /><circle cx="323" cy="565" fill="#ff0000" r="3.5" stroke-width="0" /><circle cx="818" cy="565" fill="#ff0000" r="3.5" stroke-width="0" /><circle cx="829" cy="565" fill="#ff0000" r="3.5" stroke-width="0" /><circle cx="840" cy="565" fill="#ff0000" r="3.5" stroke-width="0" /><circle cx="311" cy="564" fill="#ff0000" r="3.5" stroke-width="0" /><circle cx="821" cy="563" fill="#ff0000" r="3.5" stroke-width="0" /><circle cx="825" cy="563" fill="#ff0000" r="3.5" stroke-width="0" /><circle cx="828" cy="562" fill="#ff0000" r="3.5" stroke-width="0" /><circle cx="845" cy="562" fill="#ff0000" r="3.5" stroke-width="0" /><circle cx="819" cy="561" fill="#ff0000" r="3.5" stroke-width="0" /><circle cx="327" cy="560" fill="#ff0000" r="3.5" stroke-width="0" /><circle cx="816" cy="560" fill="#ff0000" r="3.5" stroke-width="0" /><circle cx="825" cy="560" fill="#ff0000" r="3.5" stroke-width="0" /><circle cx="325" cy="559" fill="#ff0000" r="3.5" stroke-width="0" /><circle cx="308" cy="558" fill="#ff0000" r="3.5" stroke-width="0" /><circle cx="322" cy="558" fill="#ff0000" r="3.5" stroke-width="0" /><circle cx="325" cy="558" fill="#ff0000" r="3.5" stroke-width="0" /><circle cx="832" cy="558" fill="#ff0000" r="3.5" stroke-width="0" /><circle cx="841" cy="558" fill="#ff0000" r="3.5" stroke-width="0" /><circle cx="328" cy="556" fill="#ff0000" r="3.5" stroke-width="0" /><circle cx="822" cy="556" fill="#ff0000" r="3.5" stroke-width="0" /><circle cx="297" cy="555" fill="#ff0000" r="3.5" stroke-width="0" /><circle cx="797" cy="555" fill="#ff0000" r="3.5" stroke-width="0" /><circle cx="833" cy="555" fill="#ff0000" r="3.5" stroke-width="0" /><circle cx="298" cy="553" fill="#ff0000" r="3.5" stroke-width="0" /><circle cx="822" cy="553" fill="#ff0000" r="3.5" stroke-width="0" /><circle cx="826" cy="553" fill="#ff0000" r="3.5" stroke-width="0" /><circle cx="327" cy="552" fill="#ff0000" r="3.5" stroke-width="0" /><circle cx="810" cy="552" fill="#ff0000" r="3.5" stroke-width="0" /><circle cx="314" cy="551" fill="#ff0000" r="3.5" stroke-width="0" /><circle cx="303" cy="550" fill="#ff0000" r="3.5" stroke-width="0" /><circle cx="319" cy="549" fill="#ff0000" r="3.5" stroke-width="0" /><circle cx="830" cy="549" fill="#ff0000" r="3.5" stroke-width="0" /><circle cx="328" cy="548" fill="#ff0000" r="3.5" stroke-width="0" /><circle cx="314" cy="547" fill="#ff0000" r="3.5" stroke-width="0" /><circle cx="315" cy="546" fill="#ff0000" r="3.5" stroke-width="0" /><circle cx="311" cy="545" fill="#ff0000" r="3.5" stroke-width="0" /><circle cx="312" cy="545" fill="#ff0000" r="3.5" stroke-width="0" /><circle cx="818" cy="545" fill="#ff0000" r="3.5" stroke-width="0" /><circle cx="308" cy="544" fill="#ff0000" r="3.5" stroke-width="0" /><circle cx="313" cy="544" fill="#ff0000" r="3.5" stroke-width="0" /><circle cx="800" cy="543" fill="#ff0000" r="3.5" stroke-width="0" /><circle cx="319" cy="541" fill="#ff0000" r="3.5" stroke-width="0" /><circle cx="816" cy="541" fill="#ff0000" r="3.5" stroke-width="0" /><circle cx="819" cy="541" fill="#ff0000" r="3.5" stroke-width="0" /><circle cx="831" cy="541" fill="#ff0000" r="3.5" stroke-width="0" /><circle cx="849" cy="541" fill="#ff0000" r="3.5" stroke-width="0" /><circle cx="328" cy="540" fill="#ff0000" r="3.5" stroke-width="0" /><circle cx="333" cy="540" fill="#ff0000" r="3.5" stroke-width="0" /><circle cx="312" cy="539" fill="#ff0000" r="3.5" stroke-width="0" /><circle cx="316" cy="539" fill="#ff0000" r="3.5" stroke-width="0" /><circle cx="335" cy="539" fill="#ff0000" r="3.5" stroke-width="0" /><circle cx="818" cy="539" fill="#ff0000" r="3.5" stroke-width="0" /><circle cx="829" cy="538" fill="#ff0000" r="3.5" stroke-width="0" /><circle cx="319" cy="537" fill="#ff0000" r="3.5" stroke-width="0" /><circle cx="818" cy="537" fill="#ff0000" r="3.5" stroke-width="0" /><circle cx="823" cy="537" fill="#ff0000" r="3.5" stroke-width="0" /><circle cx="322" cy="536" fill="#ff0000" r="3.5" stroke-width="0" /><circle cx="347" cy="536" fill="#ff0000" r="3.5" stroke-width="0" /><circle cx="324" cy="535" fill="#ff0000" r="3.5" stroke-width="0" /><circle cx="820" cy="535" fill="#ff0000" r="3.5" stroke-width="0" /><circle cx="826" cy="535" fill="#ff0000" r="3.5" stroke-width="0" /><circle cx="827" cy="535" fill="#ff0000" r="3.5" stroke-width="0" /><circle cx="309" cy="534" fill="#ff0000" r="3.5" stroke-width="0" /><circle cx="319" cy="534" fill="#ff0000" r="3.5" stroke-width="0" /><circle cx="815" cy="534" fill="#ff0000" r="3.5" stroke-width="0" /><circle cx="824" cy="534" fill="#ff0000" r="3.5" stroke-width="0" /><circle cx="827" cy="534" fill="#ff0000" r="3.5" stroke-width="0" /><circle cx="336" cy="533" fill="#ff0000" r="3.5" stroke-width="0" /><circle cx="818" cy="533" fill="#ff0000" r="3.5" stroke-width="0" /><circle cx="819" cy="533" fill="#ff0000" r="3.5" stroke-width="0" /><circle cx="312" cy="532" fill="#ff0000" r="3.5" stroke-width="0" /><circle cx="320" cy="532" fill="#ff0000" r="3.5" stroke-width="0" /><circle cx="325" cy="532" fill="#ff0000" r="3.5" stroke-width="0" /><circle cx="809" cy="532" fill="#ff0000" r="3.5" stroke-width="0" /><circle cx="832" cy="532" fill="#ff0000" r="3.5" stroke-width="0" /><circle cx="317" cy="531" fill="#ff0000" r="3.5" stroke-width="0" /><circle cx="807" cy="531" fill="#ff0000" r="3.5" stroke-width="0" /><circle cx="318" cy="530" fill="#ff0000" r="3.5" stroke-width="0" /><circle cx="322" cy="530" fill="#ff0000" r="3.5" stroke-width="0" /><circle cx="824" cy="530" fill="#ff0000" r="3.5" stroke-width="0" /><circle cx="839" cy="530" fill="#ff0000" r="3.5" stroke-width="0" /><circle cx="319" cy="529" fill="#ff0000" r="3.5" stroke-width="0" /><circle cx="321" cy="529" fill="#ff0000" r="3.5" stroke-width="0" /><circle cx="308" cy="528" fill="#ff0000" r="3.5" stroke-width="0" /><circle cx="321" cy="527" fill="#ff0000" r="3.5" stroke-width="0" /><circle cx="812" cy="526" fill="#ff0000" r="3.5" stroke-width="0" /><circle cx="315" cy="525" fill="#ff0000" r="3.5" stroke-width="0" /><circle cx="317" cy="525" fill="#ff0000" r="3.5" stroke-width="0" /><circle cx="322" cy="525" fill="#ff0000" r="3.5" stroke-width="0" /><circle cx="820" cy="525" fill="#ff0000" r="3.5" stroke-width="0" /><circle cx="331" cy="524" fill="#ff0000" r="3.5" stroke-width="0" /><circle cx="810" cy="522" fill="#ff0000" r="3.5" stroke-width="0" /><circle cx="813" cy="522" fill="#ff0000" r="3.5" stroke-width="0" /><circle cx="828" cy="520" fill="#ff0000" r="3.5" stroke-width="0" /><circle cx="300" cy="519" fill="#ff0000" r="3.5" stroke-width="0" /><circle cx="315" cy="518" fill="#ff0000" r="3.5" stroke-width="0" /><circle cx="805" cy="518" fill="#ff0000" r="3.5" stroke-width="0" /><circle cx="323" cy="517" fill="#ff0000" r="3.5" stroke-width="0" /><circle cx="812" cy="517" fill="#ff0000" r="3.5" stroke-width="0" /><circle cx="842" cy="517" fill="#ff0000" r="3.5" stroke-width="0" /><circle cx="823" cy="516" fill="#ff0000" r="3.5" stroke-width="0" /><circle cx="829" cy="516" fill="#ff0000" r="3.5" stroke-width="0" /><circle cx="816" cy="515" fill="#ff0000" r="3.5" stroke-width="0" /><circle cx="832" cy="515" fill="#ff0000" r="3.5" stroke-width="0" /><circle cx="844" cy="515" fill="#ff0000" r="3.5" stroke-width="0" /><circle cx="820" cy="514" fill="#ff0000" r="3.5" stroke-width="0" /><circle cx="828" cy="513" fill="#ff0000" r="3.5" stroke-width="0" /><circle cx="309" cy="511" fill="#ff0000" r="3.5" stroke-width="0" /><circle cx="816" cy="511" fill="#ff0000" r="3.5" stroke-width="0" /><circle cx="831" cy="511" fill="#ff0000" r="3.5" stroke-width="0" /><circle cx="316" cy="510" fill="#ff0000" r="3.5" stroke-width="0" /><circle cx="318" cy="510" fill="#ff0000" r="3.5" stroke-width="0" /><circle cx="801" cy="510" fill="#ff0000" r="3.5" stroke-width="0" /><circle cx="340" cy="509" fill="#ff0000" r="3.5" stroke-width="0" /><circle cx="830" cy="509" fill="#ff0000" r="3.5" stroke-width="0" /><circle cx="306" cy="507" fill="#ff0000" r="3.5" stroke-width="0" /><circle cx="819" cy="506" fill="#ff0000" r="3.5" stroke-width="0" /><circle cx="809" cy="505" fill="#ff0000" r="3.5" stroke-width="0" /><circle cx="316" cy="504" fill="#ff0000" r="3.5" stroke-width="0" /><circle cx="812" cy="503" fill="#ff0000" r="3.5" stroke-width="0" /><circle cx="836" cy="501" fill="#ff0000" r="3.5" stroke-width="0" /><circle cx="820" cy="499" fill="#ff0000" r="3.5" stroke-width="0" /><circle cx="830" cy="499" fill="#ff0000" r="3.5" stroke-width="0" /><circle cx="321" cy="496" fill="#ff0000" r="3.5" stroke-width="0" /><circle cx="805" cy="496" fill="#ff0000" r="3.5" stroke-width="0" /><circle cx="323" cy="495" fill="#ff0000" r="3.5" stroke-width="0" /><circle cx="328" cy="492" fill="#ff0000" r="3.5" stroke-width="0" /><circle cx="832" cy="492" fill="#ff0000" r="3.5" stroke-width="0" /><circle cx="803" cy="490" fill="#ff0000" r="3.5" stroke-width="0" /><circle cx="320" cy="488" fill="#ff0000" r="3.5" stroke-width="0" /><circle cx="808" cy="487" fill="#ff0000" r="3.5" stroke-width="0" /><circle cx="816" cy="487" fill="#ff0000" r="3.5" stroke-width="0" /><circle cx="821" cy="484" fill="#ff0000" r="3.5" stroke-width="0" /><circle cx="835" cy="484" fill="#ff0000" r="3.5" stroke-width="0" /><circle cx="831" cy="483" fill="#ff0000" r="3.5" stroke-width="0" /><circle cx="815" cy="481" fill="#ff0000" r="3.5" stroke-width="0" /><circle cx="820" cy="479" fill="#ff0000" r="3.5" stroke-width="0" /><circle cx="831" cy="478" fill="#ff0000" r="3.5" stroke-width="0" /><circle cx="826" cy="477" fill="#ff0000" r="3.5" stroke-width="0" /><circle cx="801" cy="476" fill="#ff0000" r="3.5" stroke-width="0" /><circle cx="823" cy="475" fill="#ff0000" r="3.5" stroke-width="0" /><circle cx="832" cy="475" fill="#ff0000" r="3.5" stroke-width="0" /><circle cx="844" cy="474" fill="#ff0000" r="3.5" stroke-width="0" /><circle cx="819" cy="470" fill="#ff0000" r="3.5" stroke-width="0" /><circle cx="831" cy="469" fill="#ff0000" r="3.5" stroke-width="0" /><circle cx="821" cy="467" fill="#ff0000" r="3.5" stroke-width="0" /><circle cx="819" cy="465" fill="#ff0000" r="3.5" stroke-width="0" /><circle cx="822" cy="452" fill="#ff0000" r="3.5" stroke-width="0" /><circle cx="832" cy="448" fill="#ff0000" r="3.5" stroke-width="0" /><circle cx="811" cy="445" fill="#ff0000" r="3.5" stroke-width="0" /><circle cx="820" cy="444" fill="#ff0000" r="3.5" stroke-width="0" /><circle cx="806" cy="439" fill="#ff0000" r="3.5" stroke-width="0" /><circle cx="812" cy="434" fill="#ff0000" r="3.5" stroke-width="0" /><circle cx="829" cy="431" fill="#ff0000" r="3.5" stroke-width="0" /><circle cx="817" cy="419" fill="#ff0000" r="3.5" stroke-width="0" /><circle cx="814" cy="417" fill="#ff0000" r="3.5" stroke-width="0" /><circle cx="820" cy="412" fill="#ff0000" r="3.5" stroke-width="0" /><circle cx="820" cy="408" fill="#ff0000" r="3.5" stroke-width="0" /><circle cx="831" cy="408" fill="#ff0000" r="3.5" stroke-width="0" /><circle cx="835" cy="377" fill="#ff0000" r="3.5" stroke-width="0" /><circle cx="823" cy="342" fill="#ff0000" r="3.5" stroke-width="0" /></g><g class="e2"><circle cx="314" cy="491" fill="#2b92db" r="3.5" stroke-width="0" /><circle cx="317" cy="486" fill="#2b92db" r="3.5" stroke-width="0" /><circle cx="313" cy="483" fill="#2b92db" r="3.5" stroke-width="0" /><circle cx="323" cy="482" fill="#2b92db" r="3.5" stroke-width="0" /><circle cx="314" cy="478" fill="#2b92db" r="3.5" stroke-width="0" /><circle cx="312" cy="477" fill="#2b92db" r="3.5" stroke-width="0" /><circle cx="325" cy="477" fill="#2b92db" r="3.5" stroke-width="0" /><circle cx="314" cy="473" fill="#2b92db" r="3.5" stroke-width="0" /><circle cx="327" cy="467" fill="#2b92db" r="3.5" stroke-width="0" /><circle cx="303" cy="464" fill="#2b92db" r="3.5" stroke-width="0" /><circle cx="320" cy="461" fill="#2b92db" r="3.5" stroke-width="0" /><circle cx="306" cy="455" fill="#2b92db" r="3.5" stroke-width="0" /><circle cx="325" cy="454" fill="#2b92db" r="3.5" stroke-width="0" /><circle cx="338" cy="449" fill="#2b92db" r="3.5" stroke-width="0" /><circle cx="320" cy="430" fill="#2b92db" r="3.5" stroke-width="0" /><circle cx="318" cy="428" fill="#2b92db" r="3.5" stroke-width="0" /><circle cx="323" cy="428" fill="#2b92db" r="3.5" stroke-width="0" /><circle cx="327" cy="421" fill="#2b92db" r="3.5" stroke-width="0" /><circle cx="329" cy="412" fill="#2b92db" r="3.5" stroke-width="0" /><circle cx="328" cy="409" fill="#2b92db" r="3.5" stroke-width="0" /><circle cx="330" cy="388" fill="#2b92db" r="3.5" stroke-width="0" /><circle cx="328" cy="377" fill="#2b92db" r="3.5" stroke-width="0" /><circle cx="311" cy="359" fill="#2b92db" r="3.5" stroke-width="0" /><circle cx="318" cy="332" fill="#2b92db" r="3.5" stroke-width="0" /></g></g></g></svg>