<?xml version="1.0" encoding="utf-8" ?>
<svg baseProfile="full" height="1140px" style="font-size:15;font-family:Arial, san-serif;font-weight:bold;stroke:black;stroke-width:0;fill:#444444" version="1.1" width="1140px" xmlns="http://www.w3.org/2000/svg" xmlns:ev="http://www.w3.org/2001/xml-events" xmlns:xlink="http://www.w3.org/1999/xlink"><defs><clipPath id="areadografico"><rect height="1000" width="1000" x="70" y="70" /></clipPath></defs><g class="master"><g class="poligonos"><polygon clip-path="url(#areadografico)" fill="#000000" fill-opacity="0.1" points="1069,1070 1069,849 849,1070" /><polygon clip-path="url(#areadografico)" fill="#ffffff" fill-opacity="0.1" points="849,1070 627,1070 1069,627 1069,849" /><polygon clip-path="url(#areadografico)" fill="#000000" fill-opacity="0.1" points="627,1070 405,1070 1069,405 1069,627" /><polygon clip-path="url(#areadografico)" fill="#ffffff" fill-opacity="0.1" points="405,1070 183,1070 1069,183 1069,405" /><polygon clip-path="url(#areadografico)" fill="#000000" fill-opacity="0.1" points="183,1070 -39,1070 1069,-39 1069,183" /><polygon clip-path="url(#areadografico)" fill="#ffffff" fill-opacity="0.1" points="-39,1070 -261,1070 1069,-261 1069,-39" /><polygon clip-path="url(#areadografico)" fill="#000000" fill-opacity="0.1" points="-261,1070 -483,1070 1069,-483 1069,-261" /><polygon clip-path="url(#areadografico)" fill="#ffffff" fill-opacity="0.1" points="-483,1070 -705,1070 1069,-705 1069,-483" /><polygon clip-path="url(#areadografico)" fill="#000000" fill-opacity="0.1" points="70,70 70,294 294,70" /></g><g class="linhas"><line fill-opacity="0.3" stroke="#999999" stroke-width="1" x1="1070" x2="1070" y1="1070" y2="70" /><line fill-opacity="0.3" stroke="#999999" stroke-width="1" x1="70" x2="1070" y1="70" y2="70" /><line fill-opacity="0.3" stroke="#999999" stroke-width="1" x1="970" x2="970" y1="1070" y2="70" /><line fill-opacity="0.3" stroke="#999999" stroke-width="1" x1="70" x2="1070" y1="170" y2="170" /><line fill-opacity="0.3" stroke="#999999" stroke-width="1" x1="870" x2="870" y1="1070" y2="70" /><line fill-opacity="0.3" stroke="#999999" stroke-width="1" x1="70" x2="1070" y1="270" y2="270" /><line fill-opacity="0.3" stroke="#999999" stroke-width="1" x1="770" x2="770" y1="1070" y2="70" /><line fill-opacity="0.3" stroke="#999999" stroke-width="1" x1="70" x2="1070" y1="370" y2="370" /><line fill-opacity="0.3" stroke="#999999" stroke-width="1" x1="670" x2="670" y1="1070" y2="70" /><line fill-opacity="0.3" stroke="#999999" stroke-width="1" x1="70" x2="1070" y1="470" y2="470" /><line fill-opacity="0.3" stroke="#999999" stroke-width="1" x1="570" x2="570" y1="1070" y2="70" /><line fill-opacity="0.3" stroke="#999999" stroke-width="1" x1="70" x2="1070" y1="570" y2="570" /><line fill-opacity="0.3" stroke="#999999" stroke-width="1" x1="470" x2="470" y1="1070" y2="70" /><line fill-opacity="0.3" stroke="#999999" stroke-width="1" x1="70" x2="1070" y1="670" y2="670" /><line fill-opacity="0.3" stroke="#999999" stroke-width="1" x1="370" x2="370" y1="1070" y2="70" /><line fill-opacity="0.3" stroke="#999999" stroke-width="1" x1="70" x2="1070" y1="770" y2="770" /><line fill-opacity="0.3" stroke="#999999" stroke-width="1" x1="270" x2="270" y1="1070" y2="70" /><line fill-opacity="0.3" stroke="#999999" stroke-width="1" x1="70" x2="1070" y1="870" y2="870" /><line fill-opacity="0.3" stroke="#999999" stroke-width="1" x1="170" x2="170" y1="1070" y2="70" /><line fill-opacity="0.3" stroke="#999999" stroke-width="1" x1="70" x2="1070" y1="970" y2="970" /><line fill-opacity="0.3" stroke="#000000" stroke-width="1" x1="70" x2="70" y1="1071" y2="69" /><line fill-opacity="0.3" stroke="#000000" stroke-width="1" x1="69" x2="1071" y1="1070" y2="1070" /></g><g class="textos"><text x="1050" y="1110">1000</text><text x="10" y="71">1000</text><text x="950" y="1110">900</text><text x="10" y="171">900</text><text x="850" y="1110">800</text><text x="10" y="271">800</text><text x="750" y="1110">700</text><text x="10" y="371">700</text><text x="650" y="1110">600</text><text x="10" y="471">600</text><text x="550" y="1110">500</text><text x="10" y="571">500</text><text x="450" y="1110">400</text><text x="10" y="671">400</text><text x="350" y="1110">300</text><text x="10" y="771">300</text><text x="250" y="1110">200</text><text x="10" y="871">200</text><text x="150" y="1110">100</text><text x="10" y="971">100</text><text x="50" y="1111">0</text><text x="9" y="1071">0</text></g><g class="especies"><g class="e0" /><g class="e1"><circle cx="781" cy="1070" fill="#ff0000" r="3.5" stroke-width="0" /><circle cx="775" cy="1063" fill="#ff0000" r="3.5" stroke-width="0" /><circle cx="771" cy="1058" fill="#ff0000" r="3.5" stroke-width="0" /><circle cx="846" cy="1057" fill="#ff0000" r="3.5" stroke-width="0" /><circle cx="846" cy="1044" fill="#ff0000" r="3.5" stroke-width="0" /><circle cx="816" cy="1039" fill="#ff0000" r="3.5" stroke-width="0" /><circle cx="800" cy="1037" fill="#ff0000" r="3.5" stroke-width="0" /><circle cx="822" cy="1035" fill="#ff0000" r="3.5" stroke-width="0" /><circle cx="876" cy="1015" fill="#ff0000" r="3.5" stroke-width="0" /><circle cx="754" cy="1009" fill="#ff0000" r="3.5" stroke-width="0" /><circle cx="732" cy="1006" fill="#ff0000" r="3.5" stroke-width="0" /><circle cx="784" cy="996" fill="#ff0000" r="3.5" stroke-width="0" /><circle cx="893" cy="995" fill="#ff0000" r="3.5" stroke-width="0" /><circle cx="809" cy="990" fill="#ff0000" r="3.5" stroke-width="0" /><circle cx="910" cy="990" fill="#ff0000" r="3.5" stroke-width="0" /><circle cx="831" cy="974" fill="#ff0000" r="3.5" stroke-width="0" /><circle cx="766" cy="969" fill="#ff0000" r="3.5" stroke-width="0" /><circle cx="788" cy="961" fill="#ff0000" r="3.5" stroke-width="0" /><circle cx="826" cy="952" fill="#ff0000" r="3.5" stroke-width="0" /><circle cx="852" cy="950" fill="#ff0000" r="3.5" stroke-width="0" /><circle cx="849" cy="947" fill="#ff0000" r="3.5" stroke-width="0" /><circle cx="859" cy="947" fill="#ff0000" r="3.5" stroke-width="0" /><circle cx="812" cy="933" fill="#ff0000" r="3.5" stroke-width="0" /><circle cx="802" cy="920" fill="#ff0000" r="3.5" stroke-width="0" /><circle cx="875" cy="919" fill="#ff0000" r="3.5" stroke-width="0" /><circle cx="905" cy="917" fill="#ff0000" r="3.5" stroke-width="0" /><circle cx="807" cy="915" fill="#ff0000" r="3.5" stroke-width="0" /><circle cx="787" cy="911" fill="#ff0000" r="3.5" stroke-width="0" /><circle cx="851" cy="890" fill="#ff0000" r="3.5" stroke-width="0" /><circle cx="829" cy="869" fill="#ff0000" r="3.5" stroke-width="0" /><circle cx="876" cy="869" fill="#ff0000" r="3.5" stroke-width="0" /><circle cx="934" cy="862" fill="#ff0000" r="3.5" stroke-width="0" /><circle cx="850" cy="851" fill="#ff0000" r="3.5" stroke-width="0" /><circle cx="883" cy="825" fill="#ff0000" r="3.5" stroke-width="0" /><circle cx="885" cy="816" fill="#ff0000" r="3.5" stroke-width="0" /><circle cx="951" cy="808" fill="#ff0000" r="3.5" stroke-width="0" /><circle cx="964" cy="789" fill="#ff0000" r="3.5" stroke-width="0" /></g><g class="e2"><circle cx="729" cy="953" fill="#2b92db" r="3.5" stroke-width="0" /><circle cx="598" cy="924" fill="#2b92db" r="3.5" stroke-width="0" /><circle cx="739" cy="915" fill="#2b92db" r="3.5" stroke-width="0" /><circle cx="730" cy="909" fill="#2b92db" r="3.5" stroke-width="0" /><circle cx="787" cy="905" fill="#2b92db" r="3.5" stroke-width="0" /><circle cx="790" cy="892" fill="#2b92db" r="3.5" stroke-width="0" /><circle cx="746" cy="890" fill="#2b92db" r="3.5" stroke-width="0" /><circle cx="746" cy="884" fill="#2b92db" r="3.5" stroke-width="0" /><circle cx="741" cy="880" fill="#2b92db" r="3.5" stroke-width="0" /><circle cx="816" cy="875" fill="#2b92db" r="3.5" stroke-width="0" /><circle cx="758" cy="864" fill="#2b92db" r="3.5" stroke-width="0" /><circle cx="836" cy="846" fill="#2b92db" r="3.5" stroke-width="0" /><circle cx="795" cy="844" fill="#2b92db" r="3.5" stroke-width="0" /><circle cx="795" cy="843" fill="#2b92db" r="3.5" stroke-width="0" /><circle cx="766" cy="842" fill="#2b92db" r="3.5" stroke-width="0" /><circle cx="785" cy="841" fill="#2b92db" r="3.5" stroke-width="0" /><circle cx="822" cy="841" fill="#2b92db" r="3.5" stroke-width="0" /><circle cx="805" cy="840" fill="#2b92db" r="3.5" stroke-width="0" /><circle cx="830" cy="826" fill="#2b92db" r="3.5" stroke-width="0" /><circle cx="843" cy="823" fill="#2b92db" r="3.5" stroke-width="0" /><circle cx="844" cy="823" fill="#2b92db" r="3.5" stroke-width="0" /><circle cx="832" cy="820" fill="#2b92db" r="3.5" stroke-width="0" /><circle cx="743" cy="815" fill="#2b92db" r="3.5" stroke-width="0" /><circle cx="797" cy="810" fill="#2b92db" r="3.5" stroke-width="0" /><circle cx="830" cy="805" fill="#2b92db" r="3.5" stroke-width="0" /><circle cx="781" cy="802" fill="#2b92db" r="3.5" stroke-width="0" /><circle cx="771" cy="800" fill="#2b92db" r="3.5" stroke-width="0" /><circle cx="749" cy="797" fill="#2b92db" r="3.5" stroke-width="0" /><circle cx="890" cy="796" fill="#2b92db" r="3.5" stroke-width="0" /><circle cx="760" cy="795" fill="#2b92db" r="3.5" stroke-width="0" /><circle cx="773" cy="791" fill="#2b92db" r="3.5" stroke-width="0" /><circle cx="806" cy="773" fill="#2b92db" r="3.5" stroke-width="0" /><circle cx="827" cy="768" fill="#2b92db" r="3.5" stroke-width="0" /><circle cx="744" cy="763" fill="#2b92db" r="3.5" stroke-width="0" /><circle cx="812" cy="755" fill="#2b92db" r="3.5" stroke-width="0" /><circle cx="852" cy="748" fill="#2b92db" r="3.5" stroke-width="0" /><circle cx="804" cy="744" fill="#2b92db" r="3.5" stroke-width="0" /><circle cx="901" cy="743" fill="#2b92db" r="3.5" stroke-width="0" /><circle cx="905" cy="735" fill="#2b92db" r="3.5" stroke-width="0" /><circle cx="760" cy="732" fill="#2b92db" r="3.5" stroke-width="0" /><circle cx="745" cy="730" fill="#2b92db" r="3.5" stroke-width="0" /><circle cx="854" cy="727" fill="#2b92db" r="3.5" stroke-width="0" /><circle cx="785" cy="726" fill="#2b92db" r="3.5" stroke-width="0" /><circle cx="753" cy="724" fill="#2b92db" r="3.5" stroke-width="0" /><circle cx="818" cy="720" fill="#2b92db" r="3.5" stroke-width="0" /><circle cx="896" cy="720" fill="#2b92db" r="3.5" stroke-width="0" /><circle cx="817" cy="717" fill="#2b92db" r="3.5" stroke-width="0" /><circle cx="889" cy="717" fill="#2b92db" r="3.5" stroke-width="0" /><circle cx="880" cy="708" fill="#2b92db" r="3.5" stroke-width="0" /><circle cx="806" cy="705" fill="#2b92db" r="3.5" stroke-width="0" /><circle cx="828" cy="700" fill="#2b92db" r="3.5" stroke-width="0" /><circle cx="941" cy="700" fill="#2b92db" r="3.5" stroke-width="0" /><circle cx="795" cy="690" fill="#2b92db" r="3.5" stroke-width="0" /><circle cx="857" cy="688" fill="#2b92db" r="3.5" stroke-width="0" /><circle cx="848" cy="684" fill="#2b92db" r="3.5" stroke-width="0" /><circle cx="815" cy="679" fill="#2b92db" r="3.5" stroke-width="0" /><circle cx="843" cy="679" fill="#2b92db" r="3.5" stroke-width="0" /><circle cx="826" cy="678" fill="#2b92db" r="3.5" stroke-width="0" /><circle cx="831" cy="673" fill="#2b92db" r="3.5" stroke-width="0" /><circle cx="896" cy="668" fill="#2b92db" r="3.5" stroke-width="0" /><circle cx="858" cy="655" fill="#2b92db" r="3.5" stroke-width="0" /><circle cx="841" cy="651" fill="#2b92db" r="3.5" stroke-width="0" /><circle cx="894" cy="636" fill="#2b92db" r="3.5" stroke-width="0" /><circle cx="868" cy="629" fill="#2b92db" r="3.5" stroke-width="0" /><circle cx="916" cy="577" fill="#2b92db" r="3.5" stroke-width="0" /><circle cx="987" cy="552" fill="#2b92db" r="3.5" stroke-width="0" /></g><g class="e3"><circle cx="352" cy="1069" fill="#911eb4" r="3.5" stroke-width="0" /><circle cx="405" cy="1062" fill="#911eb4" r="3.5" stroke-width="0" /><circle cx="395" cy="1056" fill="#911eb4" r="3.5" stroke-width="0" /><circle cx="305" cy="1054" fill="#911eb4" r="3.5" stroke-width="0" /><circle cx="345" cy="1054" fill="#911eb4" r="3.5" stroke-width="0" /><circle cx="415" cy="1054" fill="#911eb4" r="3.5" stroke-width="0" /><circle cx="281" cy="1038" fill="#911eb4" r="3.5" stroke-width="0" /><circle cx="264" cy="1036" fill="#911eb4" r="3.5" stroke-width="0" /><circle cx="373" cy="1029" fill="#911eb4" r="3.5" stroke-width="0" /><circle cx="408" cy="998" fill="#911eb4" r="3.5" stroke-width="0" /><circle cx="455" cy="975" fill="#911eb4" r="3.5" stroke-width="0" /><circle cx="312" cy="974" fill="#911eb4" r="3.5" stroke-width="0" /><circle cx="389" cy="955" fill="#911eb4" r="3.5" stroke-width="0" /><circle cx="348" cy="913" fill="#911eb4" r="3.5" stroke-width="0" /><circle cx="355" cy="902" fill="#911eb4" r="3.5" stroke-width="0" /><circle cx="398" cy="897" fill="#911eb4" r="3.5" stroke-width="0" /><circle cx="369" cy="894" fill="#911eb4" r="3.5" stroke-width="0" /><circle cx="690" cy="731" fill="#911eb4" r="3.5" stroke-width="0" /><circle cx="749" cy="704" fill="#911eb4" r="3.5" stroke-width="0" /><circle cx="797" cy="676" fill="#911eb4" r="3.5" stroke-width="0" /><circle cx="768" cy="661" fill="#911eb4" r="3.5" stroke-width="0" /><circle cx="778" cy="659" fill="#911eb4" r="3.5" stroke-width="0" /><circle cx="810" cy="657" fill="#911eb4" r="3.5" stroke-width="0" /><circle cx="791" cy="653" fill="#911eb4" r="3.5" stroke-width="0" /><circle cx="806" cy="651" fill="#911eb4" r="3.5" stroke-width="0" /><circle cx="807" cy="642" fill="#911eb4" r="3.5" stroke-width="0" /><circle cx="829" cy="642" fill="#911eb4" r="3.5" stroke-width="0" /><circle cx="806" cy="641" fill="#911eb4" r="3.5" stroke-width="0" /><circle cx="779" cy="630" fill="#911eb4" r="3.5" stroke-width="0" /><circle cx="794" cy="630" fill="#911eb4" r="3.5" stroke-width="0" /><circle cx="837" cy="629" fill="#911eb4" r="3.5" stroke-width="0" /><circle cx="783" cy="628" fill="#911eb4" r="3.5" stroke-width="0" /><circle cx="819" cy="603" fill="#911eb4" r="3.5" stroke-width="0" /><circle cx="724" cy="600" fill="#911eb4" r="3.5" stroke-width="0" /><circle cx="744" cy="591" fill="#911eb4" r="3.5" stroke-width="0" /><circle cx="770" cy="591" fill="#911eb4" r="3.5" stroke-width="0" /><circle cx="782" cy="590" fill="#911eb4" r="3.5" stroke-width="0" /><circle cx="851" cy="587" fill="#911eb4" r="3.5" stroke-width="0" /><circle cx="844" cy="585" fill="#911eb4" r="3.5" stroke-width="0" /><circle cx="852" cy="578" fill="#911eb4" r="3.5" stroke-width="0" /><circle cx="882" cy="575" fill="#911eb4" r="3.5" stroke-width="0" /><circle cx="785" cy="572" fill="#911eb4" r="3.5" stroke-width="0" /><circle cx="797" cy="553" fill="#911eb4" r="3.5" stroke-width="0" /><circle cx="754" cy="545" fill="#911eb4" r="3.5" stroke-width="0" /><circle cx="776" cy="537" fill="#911eb4" r="3.5" stroke-width="0" /><circle cx="828" cy="534" fill="#911eb4" r="3.5" stroke-width="0" /><circle cx="732" cy="532" fill="#911eb4" r="3.5" stroke-width="0" /><circle cx="809" cy="529" fill="#911eb4" r="3.5" stroke-width="0" /><circle cx="742" cy="526" fill="#911eb4" r="3.5" stroke-width="0" /><circle cx="752" cy="509" fill="#911eb4" r="3.5" stroke-width="0" /><circle cx="830" cy="505" fill="#911eb4" r="3.5" stroke-width="0" /><circle cx="846" cy="502" fill="#911eb4" r="3.5" stroke-width="0" /><circle cx="812" cy="501" fill="#911eb4" r="3.5" stroke-width="0" /><circle cx="911" cy="493" fill="#911eb4" r="3.5" stroke-width="0" /><circle cx="801" cy="476" fill="#911eb4" r="3.5" stroke-width="0" /><circle cx="937" cy="473" fill="#911eb4" r="3.5" stroke-width="0" /><circle cx="792" cy="465" fill="#911eb4" r="3.5" stroke-width="0" /><circle cx="803" cy="459" fill="#911eb4" r="3.5" stroke-width="0" /><circle cx="832" cy="454" fill="#911eb4" r="3.5" stroke-width="0" /><circle cx="930" cy="453" fill="#911eb4" r="3.5" stroke-width="0" /><circle cx="816" cy="438" fill="#911eb4" r="3.5" stroke-width="0" /><circle cx="825" cy="437" fill="#911eb4" r="3.5" stroke-width="0" /><circle cx="891" cy="404" fill="#911eb4" r="3.5" stroke-width="0" /><circle cx="853" cy="403" fill="#911eb4" r="3.5" stroke-width="0" /><circle cx="906" cy="362" fill="#911eb4" r="3.5" stroke-width="0" /><circle cx="906" cy="347" fill="#911eb4" r="3.5" stroke-width="0" /><circle cx="940" cy="347" fill="#911eb4" r="3.5" stroke-width="0" /></g><g class="e4"><circle cx="201" cy="1001" fill="#3cb44B" r="3.5" stroke-width="0" /><circle cx="249" cy="967" fill="#3cb44B" r="3.5" stroke-width="0" /><circle cx="315" cy="914" fill="#3cb44B" r="3.5" stroke-width="0" /><circle cx="305" cy="884" fill="#3cb44B" r="3.5" stroke-width="0" /><circle cx="301" cy="882" fill="#3cb44B" r="3.5" stroke-width="0" /><circle cx="235" cy="881" fill="#3cb44B" r="3.5" stroke-width="0" /><circle cx="339" cy="881" fill="#3cb44B" r="3.5" stroke-width="0" /><circle cx="308" cy="870" fill="#3cb44B" r="3.5" stroke-width="0" /><circle cx="357" cy="859" fill="#3cb44B" r="3.5" stroke-width="0" /><circle cx="367" cy="857" fill="#3cb44B" r="3.5" stroke-width="0" /><circle cx="260" cy="855" fill="#3cb44B" r="3.5" stroke-width="0" /><circle cx="301" cy="855" fill="#3cb44B" r="3.5" stroke-width="0" /><circle cx="298" cy="852" fill="#3cb44B" r="3.5" stroke-width="0" /><circle cx="311" cy="845" fill="#3cb44B" r="3.5" stroke-width="0" /><circle cx="367" cy="842" fill="#3cb44B" r="3.5" stroke-width="0" /><circle cx="291" cy="840" fill="#3cb44B" r="3.5" stroke-width="0" /><circle cx="217" cy="836" fill="#3cb44B" r="3.5" stroke-width="0" /><circle cx="396" cy="832" fill="#3cb44B" r="3.5" stroke-width="0" /><circle cx="241" cy="829" fill="#3cb44B" r="3.5" stroke-width="0" /><circle cx="380" cy="829" fill="#3cb44B" r="3.5" stroke-width="0" /><circle cx="304" cy="815" fill="#3cb44B" r="3.5" stroke-width="0" /><circle cx="364" cy="814" fill="#3cb44B" r="3.5" stroke-width="0" /><circle cx="343" cy="811" fill="#3cb44B" r="3.5" stroke-width="0" /><circle cx="366" cy="809" fill="#3cb44B" r="3.5" stroke-width="0" /><circle cx="247" cy="802" fill="#3cb44B" r="3.5" stroke-width="0" /><circle cx="337" cy="794" fill="#3cb44B" r="3.5" stroke-width="0" /><circle cx="318" cy="786" fill="#3cb44B" r="3.5" stroke-width="0" /><circle cx="301" cy="785" fill="#3cb44B" r="3.5" stroke-width="0" /><circle cx="308" cy="769" fill="#3cb44B" r="3.5" stroke-width="0" /><circle cx="334" cy="764" fill="#3cb44B" r="3.5" stroke-width="0" /><circle cx="368" cy="762" fill="#3cb44B" r="3.5" stroke-width="0" /><circle cx="329" cy="761" fill="#3cb44B" r="3.5" stroke-width="0" /><circle cx="350" cy="761" fill="#3cb44B" r="3.5" stroke-width="0" /><circle cx="316" cy="750" fill="#3cb44B" r="3.5" stroke-width="0" /><circle cx="339" cy="747" fill="#3cb44B" r="3.5" stroke-width="0" /><circle cx="443" cy="742" fill="#3cb44B" r="3.5" stroke-width="0" /><circle cx="311" cy="733" fill="#3cb44B" r="3.5" stroke-width="0" /><circle cx="380" cy="722" fill="#3cb44B" r="3.5" stroke-width="0" /><circle cx="426" cy="720" fill="#3cb44B" r="3.5" stroke-width="0" /><circle cx="369" cy="709" fill="#3cb44B" r="3.5" stroke-width="0" /><circle cx="325" cy="706" fill="#3cb44B" r="3.5" stroke-width="0" /><circle cx="356" cy="706" fill="#3cb44B" r="3.5" stroke-width="0" /><circle cx="336" cy="705" fill="#3cb44B" r="3.5" stroke-width="0" /><circle cx="368" cy="692" fill="#3cb44B" r="3.5" stroke-width="0" /><circle cx="343" cy="688" fill="#3cb44B" r="3.5" stroke-width="0" /><circle cx="431" cy="677" fill="#3cb44B" r="3.5" stroke-width="0" /><circle cx="446" cy="634" fill="#3cb44B" r="3.5" stroke-width="0" /><circle cx="432" cy="614" fill="#3cb44B" r="3.5" stroke-width="0" /><circle cx="659" cy="501" fill="#3cb44B" r="3.5" stroke-width="0" /><circle cx="745" cy="498" fill="#3cb44B" r="3.5" stroke-width="0" /><circle cx="750" cy="479" fill="#3cb44B" r="3.5" stroke-width="0" /><circle cx="787" cy="443" fill="#3cb44B" r="3.5" stroke-width="0" /><circle cx="764" cy="437" fill="#3cb44B" r="3.5" stroke-width="0" /><circle cx="755" cy="433" fill="#3cb44B" r="3.5" stroke-width="0" /><circle cx="768" cy="418" fill="#3cb44B" r="3.5" stroke-width="0" /><circle cx="807" cy="412" fill="#3cb44B" r="3.5" stroke-width="0" /><circle cx="842" cy="407" fill="#3cb44B" r="3.5" stroke-width="0" /><circle cx="774" cy="401" fill="#3cb44B" r="3.5" stroke-width="0" /><circle cx="751" cy="397" fill="#3cb44B" r="3.5" stroke-width="0" /><circle cx="788" cy="386" fill="#3cb44B" r="3.5" stroke-width="0" /><circle cx="817" cy="372" fill="#3cb44B" r="3.5" stroke-width="0" /><circle cx="859" cy="364" fill="#3cb44B" r="3.5" stroke-width="0" /><circle cx="822" cy="356" fill="#3cb44B" r="3.5" stroke-width="0" /><circle cx="788" cy="353" fill="#3cb44B" r="3.5" stroke-width="0" /><circle cx="882" cy="353" fill="#3cb44B" r="3.5" stroke-width="0" /><circle cx="876" cy="349" fill="#3cb44B" r="3.5" stroke-width="0" /><circle cx="880" cy="344" fill="#3cb44B" r="3.5" stroke-width="0" /><circle cx="822" cy="339" fill="#3cb44B" r="3.5" stroke-width="0" /><circle cx="796" cy="325" fill="#3cb44B" r="3.5" stroke-width="0" /><circle cx="797" cy="323" fill="#3cb44B" r="3.5" stroke-width="0" /><circle cx="787" cy="317" fill="#3cb44B" r="3.5" stroke-width="0" /><circle cx="867" cy="310" fill="#3cb44B" r="3.5" stroke-width="0" /><circle cx="731" cy="306" fill="#3cb44B" r="3.5" stroke-width="0" /><circle cx="840" cy="304" fill="#3cb44B" r="3.5" stroke-width="0" /><circle cx="916" cy="303" fill="#3cb44B" r="3.5" stroke-width="0" /><circle cx="760" cy="298" fill="#3cb44B" r="3.5" stroke-width="0" /><circle cx="884" cy="297" fill="#3cb44B" r="3.5" stroke-width="0" /><circle cx="842" cy="294" fill="#3cb44B" r="3.5" stroke-width="0" /><circle cx="811" cy="291" fill="#3cb44B" r="3.5" stroke-width="0" /><circle cx="887" cy="285" fill="#3cb44B" r="3.5" stroke-width="0" /><circle cx="774" cy="277" fill="#3cb44B" r="3.5" stroke-width="0" /><circle cx="803" cy="275" fill="#3cb44B" r="3.5" stroke-width="0" /><circle cx="815" cy="262" fill="#3cb44B" r="3.5" stroke-width="0" /><circle cx="890" cy="251" fill="#3cb44B" r="3.5" stroke-width="0" /><circle cx="792" cy="244" fill="#3cb44B" r="3.5" stroke-width="0" /><circle cx="840" cy="236" fill="#3cb44B" r="3.5" stroke-width="0" /><circle cx="826" cy="223" fill="#3cb44B" r="3.5" stroke-width="0" /><circle cx="894" cy="167" fill="#3cb44B" r="3.5" stroke-width="0" /><circle cx="912" cy="167" fill="#3cb44B" r="3.5" stroke-width="0" /><circle cx="898" cy="147" fill="#3cb44B" r="3.5" stroke-width="0" /></g><g class="e5"><circle cx="226" cy="736" fill="#ff0000" r="3.5" stroke-width="0" /><circle cx="286" cy="731" fill="#ff0000" r="3.5" stroke-width="0" /><circle cx="290" cy="720" fill="#ff0000" r="3.5" stroke-width="0" /><circle cx="312" cy="710" fill="#ff0000" r="3.5" stroke-width="0" /><circle cx="275" cy="705" fill="#ff0000" r="3.5" stroke-width="0" /><circle cx="273" cy="703" fill="#ff0000" r="3.5" stroke-width="0" /><circle cx="288" cy="696" fill="#ff0000" r="3.5" stroke-width="0" /><circle cx="334" cy="687" fill="#ff0000" r="3.5" stroke-width="0" /><circle cx="248" cy="681" fill="#ff0000" r="3.5" stroke-width="0" /><circle cx="307" cy="681" fill="#ff0000" r="3.5" stroke-width="0" /><circle cx="349" cy="680" fill="#ff0000" r="3.5" stroke-width="0" /><circle cx="338" cy="661" fill="#ff0000" r="3.5" stroke-width="0" /><circle cx="374" cy="650" fill="#ff0000" r="3.5" stroke-width="0" /><circle cx="257" cy="646" fill="#ff0000" r="3.5" stroke-width="0" /><circle cx="334" cy="632" fill="#ff0000" r="3.5" stroke-width="0" /><circle cx="307" cy="627" fill="#ff0000" r="3.5" stroke-width="0" /><circle cx="283" cy="614" fill="#ff0000" r="3.5" stroke-width="0" /><circle cx="258" cy="613" fill="#ff0000" r="3.5" stroke-width="0" /><circle cx="285" cy="610" fill="#ff0000" r="3.5" stroke-width="0" /><circle cx="235" cy="607" fill="#ff0000" r="3.5" stroke-width="0" /><circle cx="314" cy="605" fill="#ff0000" r="3.5" stroke-width="0" /><circle cx="333" cy="604" fill="#ff0000" r="3.5" stroke-width="0" /><circle cx="270" cy="601" fill="#ff0000" r="3.5" stroke-width="0" /><circle cx="351" cy="587" fill="#ff0000" r="3.5" stroke-width="0" /><circle cx="348" cy="582" fill="#ff0000" r="3.5" stroke-width="0" /><circle cx="276" cy="576" fill="#ff0000" r="3.5" stroke-width="0" /><circle cx="330" cy="572" fill="#ff0000" r="3.5" stroke-width="0" /><circle cx="279" cy="569" fill="#ff0000" r="3.5" stroke-width="0" /><circle cx="310" cy="561" fill="#ff0000" r="3.5" stroke-width="0" /><circle cx="314" cy="560" fill="#ff0000" r="3.5" stroke-width="0" /><circle cx="314" cy="559" fill="#ff0000" r="3.5" stroke-width="0" /><circle cx="405" cy="557" fill="#ff0000" r="3.5" stroke-width="0" /><circle cx="411" cy="556" fill="#ff0000" r="3.5" stroke-width="0" /><circle cx="364" cy="555" fill="#ff0000" r="3.5" stroke-width="0" /><circle cx="350" cy="550" fill="#ff0000" r="3.5" stroke-width="0" /><circle cx="356" cy="541" fill="#ff0000" r="3.5" stroke-width="0" /><circle cx="372" cy="533" fill="#ff0000" r="3.5" stroke-width="0" /><circle cx="496" cy="526" fill="#ff0000" r="3.5" stroke-width="0" /><circle cx="390" cy="524" fill="#ff0000" r="3.5" stroke-width="0" /><circle cx="363" cy="517" fill="#ff0000" r="3.5" stroke-width="0" /><circle cx="323" cy="507" fill="#ff0000" r="3.5" stroke-width="0" /><circle cx="386" cy="506" fill="#ff0000" r="3.5" stroke-width="0" /><circle cx="344" cy="504" fill="#ff0000" r="3.5" stroke-width="0" /><circle cx="368" cy="503" fill="#ff0000" r="3.5" stroke-width="0" /><circle cx="326" cy="499" fill="#ff0000" r="3.5" stroke-width="0" /><circle cx="330" cy="499" fill="#ff0000" r="3.5" stroke-width="0" /><circle cx="348" cy="493" fill="#ff0000" r="3.5" stroke-width="0" /><circle cx="367" cy="489" fill="#ff0000" r="3.5" stroke-width="0" /><circle cx="329" cy="480" fill="#ff0000" r="3.5" stroke-width="0" /><circle cx="360" cy="479" fill="#ff0000" r="3.5" stroke-width="0" /><circle cx="339" cy="478" fill="#ff0000" r="3.5" stroke-width="0" /><circle cx="366" cy="472" fill="#ff0000" r="3.5" stroke-width="0" /><circle cx="388" cy="440" fill="#ff0000" r="3.5" stroke-width="0" /><circle cx="686" cy="342" fill="#ff0000" r="3.5" stroke-width="0" /><circle cx="758" cy="266" fill="#ff0000" r="3.5" stroke-width="0" /><circle cx="762" cy="260" fill="#ff0000" r="3.5" stroke-width="0" /><circle cx="749" cy="238" fill="#ff0000" r="3.5" stroke-width="0" /><circle cx="761" cy="238" fill="#ff0000" r="3.5" stroke-width="0" /><circle cx="776" cy="218" fill="#ff0000" r="3.5" stroke-width="0" /><circle cx="801" cy="203" fill="#ff0000" r="3.5" stroke-width="0" /><circle cx="799" cy="188" fill="#ff0000" r="3.5" stroke-width="0" /><circle cx="841" cy="188" fill="#ff0000" r="3.5" stroke-width="0" /><circle cx="793" cy="181" fill="#ff0000" r="3.5" stroke-width="0" /><circle cx="736" cy="179" fill="#ff0000" r="3.5" stroke-width="0" /><circle cx="753" cy="168" fill="#ff0000" r="3.5" stroke-width="0" /><circle cx="837" cy="166" fill="#ff0000" r="3.5" stroke-width="0" /><circle cx="861" cy="162" fill="#ff0000" r="3.5" stroke-width="0" /><circle cx="861" cy="150" fill="#ff0000" r="3.5" stroke-width="0" /><circle cx="858" cy="142" fill="#ff0000" r="3.5" stroke-width="0" /><circle cx="768" cy="141" fill="#ff0000" r="3.5" stroke-width="0" /><circle cx="853" cy="138" fill="#ff0000" r="3.5" stroke-width="0" /><circle cx="810" cy="126" fill="#ff0000" r="3.5" stroke-width="0" /><circle cx="804" cy="124" fill="#ff0000" r="3.5" stroke-width="0" /><circle cx="809" cy="123" fill="#ff0000" r="3.5" stroke-width="0" /><circle cx="899" cy="118" fill="#ff0000" r="3.5" stroke-width="0" /><circle cx="814" cy="108" fill="#ff0000" r="3.5" stroke-width="0" /><circle cx="773" cy="101" fill="#ff0000" r="3.5" stroke-width="0" /><circle cx="747" cy="97" fill="#ff0000" r="3.5" stroke-width="0" /><circle cx="767" cy="97" fill="#ff0000" r="3.5" stroke-width="0" /><circle cx="794" cy="96" fill="#ff0000" r="3.5" stroke-width="0" /><circle cx="804" cy="95" fill="#ff0000" r="3.5" stroke-width="0" /><circle cx="896" cy="94" fill="#ff0000" r="3.5" stroke-width="0" /><circle cx="929" cy="94" fill="#ff0000" r="3.5" stroke-width="0" /><circle cx="781" cy="93" fill="#ff0000" r="3.5" stroke-width="0" /><circle cx="812" cy="83" fill="#ff0000" r="3.5" stroke-width="0" /><circle cx="760" cy="82" fill="#ff0000" r="3.5" stroke-width="0" /><circle cx="912" cy="76" fill="#ff0000" r="3.5" stroke-width="0" /><circle cx="741" cy="71" fill="#ff0000" r="3.5" stroke-width="0" /></g><g class="e6"><circle cx="247" cy="549" fill="#2b92db" r="3.5" stroke-width="0" /><circle cx="263" cy="533" fill="#2b92db" r="3.5" stroke-width="0" /><circle cx="252" cy="519" fill="#2b92db" r="3.5" stroke-width="0" /><circle cx="286" cy="519" fill="#2b92db" r="3.5" stroke-width="0" /><circle cx="171" cy="503" fill="#2b92db" r="3.5" stroke-width="0" /><circle cx="262" cy="501" fill="#2b92db" r="3.5" stroke-width="0" /><circle cx="295" cy="497" fill="#2b92db" r="3.5" stroke-width="0" /><circle cx="301" cy="479" fill="#2b92db" r="3.5" stroke-width="0" /><circle cx="300" cy="478" fill="#2b92db" r="3.5" stroke-width="0" /><circle cx="299" cy="465" fill="#2b92db" r="3.5" stroke-width="0" /><circle cx="333" cy="464" fill="#2b92db" r="3.5" stroke-width="0" /><circle cx="318" cy="453" fill="#2b92db" r="3.5" stroke-width="0" /><circle cx="275" cy="450" fill="#2b92db" r="3.5" stroke-width="0" /><circle cx="309" cy="430" fill="#2b92db" r="3.5" stroke-width="0" /><circle cx="197" cy="414" fill="#2b92db" r="3.5" stroke-width="0" /><circle cx="337" cy="413" fill="#2b92db" r="3.5" stroke-width="0" /><circle cx="273" cy="407" fill="#2b92db" r="3.5" stroke-width="0" /><circle cx="332" cy="396" fill="#2b92db" r="3.5" stroke-width="0" /><circle cx="349" cy="392" fill="#2b92db" r="3.5" stroke-width="0" /><circle cx="396" cy="382" fill="#2b92db" r="3.5" stroke-width="0" /><circle cx="263" cy="381" fill="#2b92db" r="3.5" stroke-width="0" /><circle cx="280" cy="370" fill="#2b92db" r="3.5" stroke-width="0" /><circle cx="351" cy="368" fill="#2b92db" r="3.5" stroke-width="0" /><circle cx="385" cy="362" fill="#2b92db" r="3.5" stroke-width="0" /><circle cx="416" cy="357" fill="#2b92db" r="3.5" stroke-width="0" /><circle cx="383" cy="356" fill="#2b92db" r="3.5" stroke-width="0" /><circle cx="315" cy="355" fill="#2b92db" r="3.5" stroke-width="0" /><circle cx="293" cy="353" fill="#2b92db" r="3.5" stroke-width="0" /><circle cx="354" cy="345" fill="#2b92db" r="3.5" stroke-width="0" /><circle cx="287" cy="344" fill="#2b92db" r="3.5" stroke-width="0" /><circle cx="310" cy="344" fill="#2b92db" r="3.5" stroke-width="0" /><circle cx="384" cy="344" fill="#2b92db" r="3.5" stroke-width="0" /><circle cx="359" cy="341" fill="#2b92db" r="3.5" stroke-width="0" /><circle cx="309" cy="334" fill="#2b92db" r="3.5" stroke-width="0" /><circle cx="395" cy="325" fill="#2b92db" r="3.5" stroke-width="0" /><circle cx="358" cy="317" fill="#2b92db" r="3.5" stroke-width="0" /><circle cx="277" cy="316" fill="#2b92db" r="3.5" stroke-width="0" /><circle cx="352" cy="314" fill="#2b92db" r="3.5" stroke-width="0" /><circle cx="357" cy="305" fill="#2b92db" r="3.5" stroke-width="0" /><circle cx="399" cy="298" fill="#2b92db" r="3.5" stroke-width="0" /><circle cx="323" cy="295" fill="#2b92db" r="3.5" stroke-width="0" /><circle cx="326" cy="289" fill="#2b92db" r="3.5" stroke-width="0" /><circle cx="320" cy="283" fill="#2b92db" r="3.5" stroke-width="0" /><circle cx="328" cy="272" fill="#2b92db" r="3.5" stroke-width="0" /><circle cx="322" cy="269" fill="#2b92db" r="3.5" stroke-width="0" /><circle cx="328" cy="267" fill="#2b92db" r="3.5" stroke-width="0" /><circle cx="354" cy="257" fill="#2b92db" r="3.5" stroke-width="0" /><circle cx="334" cy="255" fill="#2b92db" r="3.5" stroke-width="0" /><circle cx="345" cy="254" fill="#2b92db" r="3.5" stroke-width="0" /><circle cx="405" cy="242" fill="#2b92db" r="3.5" stroke-width="0" /><circle cx="667" cy="103" fill="#2b92db" r="3.5" stroke-width="0" /><circle cx="711" cy="96" fill="#2b92db" r="3.5" stroke-width="0" /></g><g class="e7"><circle cx="215" cy="330" fill="#911eb4" r="3.5" stroke-width="0" /><circle cx="243" cy="314" fill="#911eb4" r="3.5" stroke-width="0" /><circle cx="253" cy="302" fill="#911eb4" r="3.5" stroke-width="0" /><circle cx="266" cy="298" fill="#911eb4" r="3.5" stroke-width="0" /><circle cx="287" cy="291" fill="#911eb4" r="3.5" stroke-width="0" /><circle cx="264" cy="276" fill="#911eb4" r="3.5" stroke-width="0" /><circle cx="219" cy="271" fill="#911eb4" r="3.5" stroke-width="0" /><circle cx="316" cy="269" fill="#911eb4" r="3.5" stroke-width="0" /><circle cx="209" cy="255" fill="#911eb4" r="3.5" stroke-width="0" /><circle cx="329" cy="224" fill="#911eb4" r="3.5" stroke-width="0" /><circle cx="307" cy="222" fill="#911eb4" r="3.5" stroke-width="0" /><circle cx="317" cy="215" fill="#911eb4" r="3.5" stroke-width="0" /><circle cx="269" cy="213" fill="#911eb4" r="3.5" stroke-width="0" /><circle cx="272" cy="210" fill="#911eb4" r="3.5" stroke-width="0" /><circle cx="311" cy="203" fill="#911eb4" r="3.5" stroke-width="0" /><circle cx="278" cy="198" fill="#911eb4" r="3.5" stroke-width="0" /><circle cx="306" cy="197" fill="#911eb4" r="3.5" stroke-width="0" /><circle cx="277" cy="193" fill="#911eb4" r="3.5" stroke-width="0" /><circle cx="387" cy="153" fill="#911eb4" r="3.5" stroke-width="0" /><circle cx="231" cy="149" fill="#911eb4" r="3.5" stroke-width="0" /><circle cx="412" cy="148" fill="#911eb4" r="3.5" stroke-width="0" /><circle cx="282" cy="139" fill="#911eb4" r="3.5" stroke-width="0" /><circle cx="339" cy="134" fill="#911eb4" r="3.5" stroke-width="0" /><circle cx="279" cy="117" fill="#911eb4" r="3.5" stroke-width="0" /><circle cx="355" cy="117" fill="#911eb4" r="3.5" stroke-width="0" /><circle cx="320" cy="100" fill="#911eb4" r="3.5" stroke-width="0" /><circle cx="289" cy="98" fill="#911eb4" r="3.5" stroke-width="0" /><circle cx="390" cy="91" fill="#911eb4" r="3.5" stroke-width="0" /><circle cx="355" cy="90" fill="#911eb4" r="3.5" stroke-width="0" /><circle cx="320" cy="81" fill="#911eb4" r="3.5" stroke-width="0" /><circle cx="356" cy="71" fill="#911eb4" r="3.5" stroke-width="0" /></g><g class="e8"><circle cx="201" cy="144" fill="#3cb44B" r="3.5" stroke-width="0" /><circle cx="253" cy="104" fill="#3cb44B" r="3.5" stroke-width="0" /></g></g></g></svg>