<?xml version="1.0" encoding="utf-8" ?>
<svg baseProfile="full" height="1140px" style="font-size:15;font-family:Arial, san-serif;font-weight:bold;stroke:black;stroke-width:0;fill:#444444" version="1.1" width="1140px" xmlns="http://www.w3.org/2000/svg" xmlns:ev="http://www.w3.org/2001/xml-events" xmlns:xlink="http://www.w3.org/1999/xlink"><defs><clipPath id="areadografico"><rect height="1000" width="1000" x="70" y="70" /></clipPath></defs><g class="master"><g class="poligonos"><polygon clip-path="url(#areadografico)" fill="#000000" fill-opacity="0.1" points="1069,1070 1069,785 785,1070" /><polygon clip-path="url(#areadografico)" fill="#ffffff" fill-opacity="0.1" points="785,1070 499,1070 1069,499 1069,785" /><polygon clip-path="url(#areadografico)" fill="#000000" fill-opacity="0.1" points="499,1070 214,1070 1069,214 1069,499" /><polygon clip-path="url(#areadografico)" fill="#ffffff" fill-opacity="0.1" points="214,1070 -72,1070 1069,-72 1069,214" /><polygon clip-path="url(#areadografico)" fill="#000000" fill-opacity="0.1" points="-72,1070 -358,1070 1069,-358 1069,-72" /><polygon clip-path="url(#areadografico)" fill="#ffffff" fill-opacity="0.1" points="-358,1070 -643,1070 1069,-643 1069,-358" /><polygon clip-path="url(#areadografico)" fill="#000000" fill-opacity="0.1" points="70,70 70,356 356,70" /></g><g class="linhas"><line fill-opacity="0.3" stroke="#999999" stroke-width="1" x1="1070" x2="1070" y1="1070" y2="70" /><line fill-opacity="0.3" stroke="#999999" stroke-width="1" x1="70" x2="1070" y1="70" y2="70" /><line fill-opacity="0.3" stroke="#999999" stroke-width="1" x1="970" x2="970" y1="1070" y2="70" /><line fill-opacity="0.3" stroke="#999999" stroke-width="1" x1="70" x2="1070" y1="170" y2="170" /><line fill-opacity="0.3" stroke="#999999" stroke-width="1" x1="870" x2="870" y1="1070" y2="70" /><line fill-opacity="0.3" stroke="#999999" stroke-width="1" x1="70" x2="1070" y1="270" y2="270" /><line fill-opacity="0.3" stroke="#999999" stroke-width="1" x1="770" x2="770" y1="1070" y2="70" /><line fill-opacity="0.3" stroke="#999999" stroke-width="1" x1="70" x2="1070" y1="370" y2="370" /><line fill-opacity="0.3" stroke="#999999" stroke-width="1" x1="670" x2="670" y1="1070" y2="70" /><line fill-opacity="0.3" stroke="#999999" stroke-width="1" x1="70" x2="1070" y1="470" y2="470" /><line fill-opacity="0.3" stroke="#999999" stroke-width="1" x1="570" x2="570" y1="1070" y2="70" /><line fill-opacity="0.3" stroke="#999999" stroke-width="1" x1="70" x2="1070" y1="570" y2="570" /><line fill-opacity="0.3" stroke="#999999" stroke-width="1" x1="470" x2="470" y1="1070" y2="70" /><line fill-opacity="0.3" stroke="#999999" stroke-width="1" x1="70" x2="1070" y1="670" y2="670" /><line fill-opacity="0.3" stroke="#999999" stroke-width="1" x1="370" x2="370" y1="1070" y2="70" /><line fill-opacity="0.3" stroke="#999999" stroke-width="1" x1="70" x2="1070" y1="770" y2="770" /><line fill-opacity="0.3" stroke="#999999" stroke-width="1" x1="270" x2="270" y1="1070" y2="70" /><line fill-opacity="0.3" stroke="#999999" stroke-width="1" x1="70" x2="1070" y1="870" y2="870" /><line fill-opacity="0.3" stroke="#999999" stroke-width="1" x1="170" x2="170" y1="1070" y2="70" /><line fill-opacity="0.3" stroke="#999999" stroke-width="1" x1="70" x2="1070" y1="970" y2="970" /><line fill-opacity="0.3" stroke="#000000" stroke-width="1" x1="70" x2="70" y1="1071" y2="69" /><line fill-opacity="0.3" stroke="#000000" stroke-width="1" x1="69" x2="1071" y1="1070" y2="1070" /></g><g class="textos"><text x="1050" y="1110">1000</text><text x="10" y="71">1000</text><text x="950" y="1110">900</text><text x="10" y="171">900</text><text x="850" y="1110">800</text><text x="10" y="271">800</text><text x="750" y="1110">700</text><text x="10" y="371">700</text><text x="650" y="1110">600</text><text x="10" y="471">600</text><text x="550" y="1110">500</text><text x="10" y="571">500</text><text x="450" y="1110">400</text><text x="10" y="671">400</text><text x="350" y="1110">300</text><text x="10" y="771">300</text><text x="250" y="1110">200</text><text x="10" y="871">200</text><text x="150" y="1110">100</text><text x="10" y="971">100</text><text x="50" y="1111">0</text><text x="9" y="1071">0</text></g><g class="especies"><g class="e0" /><g class="e1"><circle cx="819" cy="1005" fill="#ff0000" r="3.5" stroke-width="0" /><circle cx="852" cy="944" fill="#ff0000" r="3.5" stroke-width="0" /><circle cx="805" cy="937" fill="#ff0000" r="3.5" stroke-width="0" /><circle cx="818" cy="927" fill="#ff0000" r="3.5" stroke-width="0" /><circle cx="841" cy="923" fill="#ff0000" r="3.5" stroke-width="0" /><circle cx="794" cy="866" fill="#ff0000" r="3.5" stroke-width="0" /><circle cx="776" cy="851" fill="#ff0000" r="3.5" stroke-width="0" /><circle cx="850" cy="723" fill="#ff0000" r="3.5" stroke-width="0" /><circle cx="948" cy="637" fill="#ff0000" r="3.5" stroke-width="0" /></g><g class="e2"><circle cx="315" cy="1039" fill="#2b92db" r="3.5" stroke-width="0" /><circle cx="338" cy="1030" fill="#2b92db" r="3.5" stroke-width="0" /><circle cx="401" cy="1010" fill="#2b92db" r="3.5" stroke-width="0" /><circle cx="801" cy="762" fill="#2b92db" r="3.5" stroke-width="0" /><circle cx="801" cy="738" fill="#2b92db" r="3.5" stroke-width="0" /><circle cx="806" cy="691" fill="#2b92db" r="3.5" stroke-width="0" /><circle cx="838" cy="677" fill="#2b92db" r="3.5" stroke-width="0" /><circle cx="795" cy="657" fill="#2b92db" r="3.5" stroke-width="0" /><circle cx="775" cy="615" fill="#2b92db" r="3.5" stroke-width="0" /><circle cx="795" cy="576" fill="#2b92db" r="3.5" stroke-width="0" /><circle cx="796" cy="574" fill="#2b92db" r="3.5" stroke-width="0" /><circle cx="823" cy="533" fill="#2b92db" r="3.5" stroke-width="0" /><circle cx="798" cy="524" fill="#2b92db" r="3.5" stroke-width="0" /><circle cx="827" cy="483" fill="#2b92db" r="3.5" stroke-width="0" /><circle cx="876" cy="452" fill="#2b92db" r="3.5" stroke-width="0" /><circle cx="894" cy="449" fill="#2b92db" r="3.5" stroke-width="0" /></g><g class="e3"><circle cx="314" cy="955" fill="#911eb4" r="3.5" stroke-width="0" /><circle cx="289" cy="952" fill="#911eb4" r="3.5" stroke-width="0" /><circle cx="263" cy="926" fill="#911eb4" r="3.5" stroke-width="0" /><circle cx="355" cy="900" fill="#911eb4" r="3.5" stroke-width="0" /><circle cx="354" cy="888" fill="#911eb4" r="3.5" stroke-width="0" /><circle cx="353" cy="877" fill="#911eb4" r="3.5" stroke-width="0" /><circle cx="308" cy="860" fill="#911eb4" r="3.5" stroke-width="0" /><circle cx="291" cy="840" fill="#911eb4" r="3.5" stroke-width="0" /><circle cx="417" cy="808" fill="#911eb4" r="3.5" stroke-width="0" /><circle cx="305" cy="805" fill="#911eb4" r="3.5" stroke-width="0" /><circle cx="335" cy="770" fill="#911eb4" r="3.5" stroke-width="0" /><circle cx="380" cy="761" fill="#911eb4" r="3.5" stroke-width="0" /><circle cx="326" cy="737" fill="#911eb4" r="3.5" stroke-width="0" /><circle cx="305" cy="720" fill="#911eb4" r="3.5" stroke-width="0" /><circle cx="354" cy="678" fill="#911eb4" r="3.5" stroke-width="0" /><circle cx="784" cy="451" fill="#911eb4" r="3.5" stroke-width="0" /><circle cx="777" cy="450" fill="#911eb4" r="3.5" stroke-width="0" /><circle cx="854" cy="404" fill="#911eb4" r="3.5" stroke-width="0" /><circle cx="849" cy="391" fill="#911eb4" r="3.5" stroke-width="0" /><circle cx="850" cy="387" fill="#911eb4" r="3.5" stroke-width="0" /><circle cx="830" cy="367" fill="#911eb4" r="3.5" stroke-width="0" /><circle cx="835" cy="351" fill="#911eb4" r="3.5" stroke-width="0" /><circle cx="818" cy="310" fill="#911eb4" r="3.5" stroke-width="0" /><circle cx="854" cy="289" fill="#911eb4" r="3.5" stroke-width="0" /><circle cx="895" cy="281" fill="#911eb4" r="3.5" stroke-width="0" /><circle cx="870" cy="275" fill="#911eb4" r="3.5" stroke-width="0" /><circle cx="785" cy="268" fill="#911eb4" r="3.5" stroke-width="0" /><circle cx="852" cy="231" fill="#911eb4" r="3.5" stroke-width="0" /><circle cx="869" cy="203" fill="#911eb4" r="3.5" stroke-width="0" /><circle cx="886" cy="200" fill="#911eb4" r="3.5" stroke-width="0" /><circle cx="885" cy="120" fill="#911eb4" r="3.5" stroke-width="0" /></g><g class="e4"><circle cx="223" cy="773" fill="#3cb44B" r="3.5" stroke-width="0" /><circle cx="284" cy="667" fill="#3cb44B" r="3.5" stroke-width="0" /><circle cx="177" cy="650" fill="#3cb44B" r="3.5" stroke-width="0" /><circle cx="296" cy="637" fill="#3cb44B" r="3.5" stroke-width="0" /><circle cx="300" cy="607" fill="#3cb44B" r="3.5" stroke-width="0" /><circle cx="387" cy="606" fill="#3cb44B" r="3.5" stroke-width="0" /><circle cx="307" cy="576" fill="#3cb44B" r="3.5" stroke-width="0" /><circle cx="341" cy="528" fill="#3cb44B" r="3.5" stroke-width="0" /><circle cx="328" cy="527" fill="#3cb44B" r="3.5" stroke-width="0" /><circle cx="323" cy="522" fill="#3cb44B" r="3.5" stroke-width="0" /><circle cx="368" cy="522" fill="#3cb44B" r="3.5" stroke-width="0" /><circle cx="285" cy="521" fill="#3cb44B" r="3.5" stroke-width="0" /><circle cx="368" cy="509" fill="#3cb44B" r="3.5" stroke-width="0" /><circle cx="281" cy="475" fill="#3cb44B" r="3.5" stroke-width="0" /><circle cx="278" cy="461" fill="#3cb44B" r="3.5" stroke-width="0" /><circle cx="791" cy="163" fill="#3cb44B" r="3.5" stroke-width="0" /><circle cx="733" cy="156" fill="#3cb44B" r="3.5" stroke-width="0" /><circle cx="814" cy="133" fill="#3cb44B" r="3.5" stroke-width="0" /></g><g class="e5"><circle cx="258" cy="440" fill="#ff0000" r="3.5" stroke-width="0" /><circle cx="274" cy="430" fill="#ff0000" r="3.5" stroke-width="0" /><circle cx="267" cy="423" fill="#ff0000" r="3.5" stroke-width="0" /><circle cx="327" cy="384" fill="#ff0000" r="3.5" stroke-width="0" /><circle cx="321" cy="362" fill="#ff0000" r="3.5" stroke-width="0" /><circle cx="318" cy="361" fill="#ff0000" r="3.5" stroke-width="0" /><circle cx="337" cy="361" fill="#ff0000" r="3.5" stroke-width="0" /><circle cx="249" cy="303" fill="#ff0000" r="3.5" stroke-width="0" /><circle cx="316" cy="284" fill="#ff0000" r="3.5" stroke-width="0" /><circle cx="346" cy="209" fill="#ff0000" r="3.5" stroke-width="0" /><circle cx="387" cy="111" fill="#ff0000" r="3.5" stroke-width="0" /></g><g class="e6"><circle cx="214" cy="180" fill="#2b92db" r="3.5" stroke-width="0" /><circle cx="274" cy="141" fill="#2b92db" r="3.5" stroke-width="0" /></g></g></g></svg>