<?xml version="1.0" encoding="utf-8" ?>
<svg baseProfile="full" height="1140px" style="font-size:15;font-family:Arial, san-serif;font-weight:bold;stroke:black;stroke-width:0;fill:#444444" version="1.1" width="1140px" xmlns="http://www.w3.org/2000/svg" xmlns:ev="http://www.w3.org/2001/xml-events" xmlns:xlink="http://www.w3.org/1999/xlink"><defs><clipPath id="areadografico"><rect height="1000" width="1000" x="70" y="70" /></clipPath></defs><g class="master"><g class="poligonos"><polygon clip-path="url(#areadografico)" fill="#000000" fill-opacity="0.1" points="1069,1070 1069,849 849,1070" /><polygon clip-path="url(#areadografico)" fill="#ffffff" fill-opacity="0.1" points="849,1070 627,1070 1069,627 1069,849" /><polygon clip-path="url(#areadografico)" fill="#000000" fill-opacity="0.1" points="627,1070 405,1070 1069,405 1069,627" /><polygon clip-path="url(#areadografico)" fill="#ffffff" fill-opacity="0.1" points="405,1070 183,1070 1069,183 1069,405" /><polygon clip-path="url(#areadografico)" fill="#000000" fill-opacity="0.1" points="183,1070 -39,1070 1069,-39 1069,183" /><polygon clip-path="url(#areadografico)" fill="#ffffff" fill-opacity="0.1" points="-39,1070 -261,1070 1069,-261 1069,-39" /><polygon clip-path="url(#areadografico)" fill="#000000" fill-opacity="0.1" points="-261,1070 -483,1070 1069,-483 1069,-261" /><polygon clip-path="url(#areadografico)" fill="#ffffff" fill-opacity="0.1" points="-483,1070 -705,1070 1069,-705 1069,-483" /><polygon clip-path="url(#areadografico)" fill="#000000" fill-opacity="0.1" points="70,70 70,294 294,70" /></g><g class="linhas"><line fill-opacity="0.3" stroke="#999999" stroke-width="1" x1="1070" x2="1070" y1="1070" y2="70" /><line fill-opacity="0.3" stroke="#999999" stroke-width="1" x1="70" x2="1070" y1="70" y2="70" /><line fill-opacity="0.3" stroke="#999999" stroke-width="1" x1="970" x2="970" y1="1070" y2="70" /><line fill-opacity="0.3" stroke="#999999" stroke-width="1" x1="70" x2="1070" y1="170" y2="170" /><line fill-opacity="0.3" stroke="#999999" stroke-width="1" x1="870" x2="870" y1="1070" y2="70" /><line fill-opacity="0.3" stroke="#999999" stroke-width="1" x1="70" x2="1070" y1="270" y2="270" /><line fill-opacity="0.3" stroke="#999999" stroke-width="1" x1="770" x2="770" y1="1070" y2="70" /><line fill-opacity="0.3" stroke="#999999" stroke-width="1" x1="70" x2="1070" y1="370" y2="370" /><line fill-opacity="0.3" stroke="#999999" stroke-width="1" x1="670" x2="670" y1="1070" y2="70" /><line fill-opacity="0.3" stroke="#999999" stroke-width="1" x1="70" x2="1070" y1="470" y2="470" /><line fill-opacity="0.3" stroke="#999999" stroke-width="1" x1="570" x2="570" y1="1070" y2="70" /><line fill-opacity="0.3" stroke="#999999" stroke-width="1" x1="70" x2="1070" y1="570" y2="570" /><line fill-opacity="0.3" stroke="#999999" stroke-width="1" x1="470" x2="470" y1="1070" y2="70" /><line fill-opacity="0.3" stroke="#999999" stroke-width="1" x1="70" x2="1070" y1="670" y2="670" /><line fill-opacity="0.3" stroke="#999999" stroke-width="1" x1="370" x2="370" y1="1070" y2="70" /><line fill-opacity="0.3" stroke="#999999" stroke-width="1" x1="70" x2="1070" y1="770" y2="770" /><line fill-opacity="0.3" stroke="#999999" stroke-width="1" x1="270" x2="270" y1="1070" y2="70" /><line fill-opacity="0.3" stroke="#999999" stroke-width="1" x1="70" x2="1070" y1="870" y2="870" /><line fill-opacity="0.3" stroke="#999999" stroke-width="1" x1="170" x2="170" y1="1070" y2="70" /><line fill-opacity="0.3" stroke="#999999" stroke-width="1" x1="70" x2="1070" y1="970" y2="970" /><line fill-opacity="0.3" stroke="#000000" stroke-width="1" x1="70" x2="70" y1="1071" y2="69" /><line fill-opacity="0.3" stroke="#000000" stroke-width="1" x1="69" x2="1071" y1="1070" y2="1070" /></g><g class="textos"><text x="1050" y="1110">1000</text><text x="10" y="71">1000</text><text x="950" y="1110">900</text><text x="10" y="171">900</text><text x="850" y="1110">800</text><text x="10" y="271">800</text><text x="750" y="1110">700</text><text x="10" y="371">700</text><text x="650" y="1110">600</text><text x="10" y="471">600</text><text x="550" y="1110">500</text><text x="10" y="571">500</text><text x="450" y="1110">400</text><text x="10" y="671">400</text><text x="350" y="1110">300</text><text x="10" y="771">300</text><text x="250" y="1110">200</text><text x="10" y="871">200</text><text x="150" y="1110">100</text><text x="10" y="971">100</text><text x="50" y="1111">0</text><text x="9" y="1071">0</text></g><g class="especies"><g class="e0" /><g class="e1"><circle cx="807" cy="1036" fill="#ff0000" r="3.5" stroke-width="0" /><circle cx="813" cy="1026" fill="#ff0000" r="3.5" stroke-width="0" /><circle cx="840" cy="1019" fill="#ff0000" r="3.5" stroke-width="0" /><circle cx="832" cy="1005" fill="#ff0000" r="3.5" stroke-width="0" /><circle cx="825" cy="968" fill="#ff0000" r="3.5" stroke-width="0" /><circle cx="779" cy="962" fill="#ff0000" r="3.5" stroke-width="0" /><circle cx="851" cy="962" fill="#ff0000" r="3.5" stroke-width="0" /><circle cx="871" cy="943" fill="#ff0000" r="3.5" stroke-width="0" /><circle cx="832" cy="940" fill="#ff0000" r="3.5" stroke-width="0" /><circle cx="789" cy="912" fill="#ff0000" r="3.5" stroke-width="0" /><circle cx="813" cy="895" fill="#ff0000" r="3.5" stroke-width="0" /><circle cx="855" cy="879" fill="#ff0000" r="3.5" stroke-width="0" /><circle cx="847" cy="854" fill="#ff0000" r="3.5" stroke-width="0" /></g><g class="e2"><circle cx="786" cy="907" fill="#2b92db" r="3.5" stroke-width="0" /><circle cx="791" cy="867" fill="#2b92db" r="3.5" stroke-width="0" /><circle cx="793" cy="865" fill="#2b92db" r="3.5" stroke-width="0" /><circle cx="828" cy="855" fill="#2b92db" r="3.5" stroke-width="0" /><circle cx="811" cy="838" fill="#2b92db" r="3.5" stroke-width="0" /><circle cx="807" cy="825" fill="#2b92db" r="3.5" stroke-width="0" /><circle cx="824" cy="822" fill="#2b92db" r="3.5" stroke-width="0" /><circle cx="835" cy="819" fill="#2b92db" r="3.5" stroke-width="0" /><circle cx="815" cy="811" fill="#2b92db" r="3.5" stroke-width="0" /><circle cx="841" cy="808" fill="#2b92db" r="3.5" stroke-width="0" /><circle cx="783" cy="807" fill="#2b92db" r="3.5" stroke-width="0" /><circle cx="803" cy="803" fill="#2b92db" r="3.5" stroke-width="0" /><circle cx="809" cy="803" fill="#2b92db" r="3.5" stroke-width="0" /><circle cx="871" cy="784" fill="#2b92db" r="3.5" stroke-width="0" /><circle cx="840" cy="778" fill="#2b92db" r="3.5" stroke-width="0" /><circle cx="743" cy="774" fill="#2b92db" r="3.5" stroke-width="0" /><circle cx="841" cy="771" fill="#2b92db" r="3.5" stroke-width="0" /><circle cx="828" cy="765" fill="#2b92db" r="3.5" stroke-width="0" /><circle cx="844" cy="765" fill="#2b92db" r="3.5" stroke-width="0" /><circle cx="799" cy="753" fill="#2b92db" r="3.5" stroke-width="0" /><circle cx="835" cy="747" fill="#2b92db" r="3.5" stroke-width="0" /><circle cx="808" cy="743" fill="#2b92db" r="3.5" stroke-width="0" /><circle cx="819" cy="738" fill="#2b92db" r="3.5" stroke-width="0" /><circle cx="822" cy="737" fill="#2b92db" r="3.5" stroke-width="0" /><circle cx="811" cy="733" fill="#2b92db" r="3.5" stroke-width="0" /><circle cx="830" cy="729" fill="#2b92db" r="3.5" stroke-width="0" /><circle cx="790" cy="728" fill="#2b92db" r="3.5" stroke-width="0" /><circle cx="821" cy="728" fill="#2b92db" r="3.5" stroke-width="0" /><circle cx="806" cy="726" fill="#2b92db" r="3.5" stroke-width="0" /><circle cx="826" cy="719" fill="#2b92db" r="3.5" stroke-width="0" /><circle cx="809" cy="713" fill="#2b92db" r="3.5" stroke-width="0" /><circle cx="809" cy="712" fill="#2b92db" r="3.5" stroke-width="0" /><circle cx="860" cy="710" fill="#2b92db" r="3.5" stroke-width="0" /><circle cx="794" cy="707" fill="#2b92db" r="3.5" stroke-width="0" /><circle cx="849" cy="705" fill="#2b92db" r="3.5" stroke-width="0" /><circle cx="815" cy="700" fill="#2b92db" r="3.5" stroke-width="0" /><circle cx="833" cy="700" fill="#2b92db" r="3.5" stroke-width="0" /><circle cx="820" cy="696" fill="#2b92db" r="3.5" stroke-width="0" /><circle cx="871" cy="696" fill="#2b92db" r="3.5" stroke-width="0" /><circle cx="794" cy="692" fill="#2b92db" r="3.5" stroke-width="0" /><circle cx="836" cy="692" fill="#2b92db" r="3.5" stroke-width="0" /><circle cx="798" cy="679" fill="#2b92db" r="3.5" stroke-width="0" /><circle cx="847" cy="679" fill="#2b92db" r="3.5" stroke-width="0" /><circle cx="859" cy="678" fill="#2b92db" r="3.5" stroke-width="0" /><circle cx="802" cy="675" fill="#2b92db" r="3.5" stroke-width="0" /><circle cx="802" cy="673" fill="#2b92db" r="3.5" stroke-width="0" /><circle cx="844" cy="673" fill="#2b92db" r="3.5" stroke-width="0" /><circle cx="811" cy="672" fill="#2b92db" r="3.5" stroke-width="0" /><circle cx="869" cy="662" fill="#2b92db" r="3.5" stroke-width="0" /><circle cx="820" cy="661" fill="#2b92db" r="3.5" stroke-width="0" /><circle cx="825" cy="661" fill="#2b92db" r="3.5" stroke-width="0" /><circle cx="856" cy="655" fill="#2b92db" r="3.5" stroke-width="0" /><circle cx="855" cy="623" fill="#2b92db" r="3.5" stroke-width="0" /><circle cx="894" cy="593" fill="#2b92db" r="3.5" stroke-width="0" /></g><g class="e3"><circle cx="298" cy="1051" fill="#911eb4" r="3.5" stroke-width="0" /><circle cx="307" cy="1046" fill="#911eb4" r="3.5" stroke-width="0" /><circle cx="301" cy="1025" fill="#911eb4" r="3.5" stroke-width="0" /><circle cx="275" cy="1023" fill="#911eb4" r="3.5" stroke-width="0" /><circle cx="336" cy="1013" fill="#911eb4" r="3.5" stroke-width="0" /><circle cx="321" cy="999" fill="#911eb4" r="3.5" stroke-width="0" /><circle cx="333" cy="997" fill="#911eb4" r="3.5" stroke-width="0" /><circle cx="334" cy="987" fill="#911eb4" r="3.5" stroke-width="0" /><circle cx="300" cy="972" fill="#911eb4" r="3.5" stroke-width="0" /><circle cx="304" cy="951" fill="#911eb4" r="3.5" stroke-width="0" /><circle cx="316" cy="941" fill="#911eb4" r="3.5" stroke-width="0" /><circle cx="339" cy="940" fill="#911eb4" r="3.5" stroke-width="0" /><circle cx="360" cy="939" fill="#911eb4" r="3.5" stroke-width="0" /><circle cx="361" cy="898" fill="#911eb4" r="3.5" stroke-width="0" /><circle cx="743" cy="681" fill="#911eb4" r="3.5" stroke-width="0" /><circle cx="762" cy="676" fill="#911eb4" r="3.5" stroke-width="0" /><circle cx="755" cy="668" fill="#911eb4" r="3.5" stroke-width="0" /><circle cx="803" cy="668" fill="#911eb4" r="3.5" stroke-width="0" /><circle cx="807" cy="662" fill="#911eb4" r="3.5" stroke-width="0" /><circle cx="826" cy="641" fill="#911eb4" r="3.5" stroke-width="0" /><circle cx="792" cy="633" fill="#911eb4" r="3.5" stroke-width="0" /><circle cx="810" cy="629" fill="#911eb4" r="3.5" stroke-width="0" /><circle cx="807" cy="627" fill="#911eb4" r="3.5" stroke-width="0" /><circle cx="816" cy="624" fill="#911eb4" r="3.5" stroke-width="0" /><circle cx="772" cy="620" fill="#911eb4" r="3.5" stroke-width="0" /><circle cx="819" cy="611" fill="#911eb4" r="3.5" stroke-width="0" /><circle cx="861" cy="611" fill="#911eb4" r="3.5" stroke-width="0" /><circle cx="737" cy="607" fill="#911eb4" r="3.5" stroke-width="0" /><circle cx="808" cy="607" fill="#911eb4" r="3.5" stroke-width="0" /><circle cx="841" cy="603" fill="#911eb4" r="3.5" stroke-width="0" /><circle cx="848" cy="602" fill="#911eb4" r="3.5" stroke-width="0" /><circle cx="822" cy="599" fill="#911eb4" r="3.5" stroke-width="0" /><circle cx="872" cy="590" fill="#911eb4" r="3.5" stroke-width="0" /><circle cx="783" cy="583" fill="#911eb4" r="3.5" stroke-width="0" /><circle cx="856" cy="581" fill="#911eb4" r="3.5" stroke-width="0" /><circle cx="808" cy="580" fill="#911eb4" r="3.5" stroke-width="0" /><circle cx="822" cy="580" fill="#911eb4" r="3.5" stroke-width="0" /><circle cx="889" cy="580" fill="#911eb4" r="3.5" stroke-width="0" /><circle cx="786" cy="577" fill="#911eb4" r="3.5" stroke-width="0" /><circle cx="741" cy="572" fill="#911eb4" r="3.5" stroke-width="0" /><circle cx="880" cy="558" fill="#911eb4" r="3.5" stroke-width="0" /><circle cx="796" cy="554" fill="#911eb4" r="3.5" stroke-width="0" /><circle cx="805" cy="552" fill="#911eb4" r="3.5" stroke-width="0" /><circle cx="819" cy="551" fill="#911eb4" r="3.5" stroke-width="0" /><circle cx="795" cy="549" fill="#911eb4" r="3.5" stroke-width="0" /><circle cx="821" cy="547" fill="#911eb4" r="3.5" stroke-width="0" /><circle cx="815" cy="544" fill="#911eb4" r="3.5" stroke-width="0" /><circle cx="839" cy="543" fill="#911eb4" r="3.5" stroke-width="0" /><circle cx="837" cy="540" fill="#911eb4" r="3.5" stroke-width="0" /><circle cx="833" cy="535" fill="#911eb4" r="3.5" stroke-width="0" /><circle cx="840" cy="535" fill="#911eb4" r="3.5" stroke-width="0" /><circle cx="791" cy="521" fill="#911eb4" r="3.5" stroke-width="0" /><circle cx="795" cy="519" fill="#911eb4" r="3.5" stroke-width="0" /><circle cx="797" cy="519" fill="#911eb4" r="3.5" stroke-width="0" /><circle cx="797" cy="518" fill="#911eb4" r="3.5" stroke-width="0" /><circle cx="843" cy="518" fill="#911eb4" r="3.5" stroke-width="0" /><circle cx="813" cy="517" fill="#911eb4" r="3.5" stroke-width="0" /><circle cx="810" cy="516" fill="#911eb4" r="3.5" stroke-width="0" /><circle cx="795" cy="515" fill="#911eb4" r="3.5" stroke-width="0" /><circle cx="810" cy="502" fill="#911eb4" r="3.5" stroke-width="0" /><circle cx="767" cy="486" fill="#911eb4" r="3.5" stroke-width="0" /><circle cx="798" cy="481" fill="#911eb4" r="3.5" stroke-width="0" /><circle cx="853" cy="475" fill="#911eb4" r="3.5" stroke-width="0" /><circle cx="862" cy="466" fill="#911eb4" r="3.5" stroke-width="0" /><circle cx="807" cy="463" fill="#911eb4" r="3.5" stroke-width="0" /><circle cx="829" cy="462" fill="#911eb4" r="3.5" stroke-width="0" /><circle cx="793" cy="461" fill="#911eb4" r="3.5" stroke-width="0" /><circle cx="845" cy="461" fill="#911eb4" r="3.5" stroke-width="0" /><circle cx="804" cy="452" fill="#911eb4" r="3.5" stroke-width="0" /><circle cx="824" cy="449" fill="#911eb4" r="3.5" stroke-width="0" /><circle cx="876" cy="446" fill="#911eb4" r="3.5" stroke-width="0" /><circle cx="839" cy="441" fill="#911eb4" r="3.5" stroke-width="0" /><circle cx="835" cy="430" fill="#911eb4" r="3.5" stroke-width="0" /><circle cx="856" cy="428" fill="#911eb4" r="3.5" stroke-width="0" /><circle cx="830" cy="425" fill="#911eb4" r="3.5" stroke-width="0" /><circle cx="859" cy="424" fill="#911eb4" r="3.5" stroke-width="0" /><circle cx="837" cy="419" fill="#911eb4" r="3.5" stroke-width="0" /><circle cx="857" cy="403" fill="#911eb4" r="3.5" stroke-width="0" /><circle cx="874" cy="400" fill="#911eb4" r="3.5" stroke-width="0" /></g><g class="e4"><circle cx="285" cy="930" fill="#3cb44B" r="3.5" stroke-width="0" /><circle cx="266" cy="911" fill="#3cb44B" r="3.5" stroke-width="0" /><circle cx="325" cy="907" fill="#3cb44B" r="3.5" stroke-width="0" /><circle cx="314" cy="904" fill="#3cb44B" r="3.5" stroke-width="0" /><circle cx="291" cy="880" fill="#3cb44B" r="3.5" stroke-width="0" /><circle cx="315" cy="880" fill="#3cb44B" r="3.5" stroke-width="0" /><circle cx="306" cy="868" fill="#3cb44B" r="3.5" stroke-width="0" /><circle cx="354" cy="867" fill="#3cb44B" r="3.5" stroke-width="0" /><circle cx="302" cy="865" fill="#3cb44B" r="3.5" stroke-width="0" /><circle cx="389" cy="861" fill="#3cb44B" r="3.5" stroke-width="0" /><circle cx="331" cy="858" fill="#3cb44B" r="3.5" stroke-width="0" /><circle cx="342" cy="857" fill="#3cb44B" r="3.5" stroke-width="0" /><circle cx="333" cy="854" fill="#3cb44B" r="3.5" stroke-width="0" /><circle cx="384" cy="825" fill="#3cb44B" r="3.5" stroke-width="0" /><circle cx="315" cy="824" fill="#3cb44B" r="3.5" stroke-width="0" /><circle cx="344" cy="822" fill="#3cb44B" r="3.5" stroke-width="0" /><circle cx="341" cy="819" fill="#3cb44B" r="3.5" stroke-width="0" /><circle cx="305" cy="811" fill="#3cb44B" r="3.5" stroke-width="0" /><circle cx="384" cy="809" fill="#3cb44B" r="3.5" stroke-width="0" /><circle cx="311" cy="796" fill="#3cb44B" r="3.5" stroke-width="0" /><circle cx="262" cy="795" fill="#3cb44B" r="3.5" stroke-width="0" /><circle cx="287" cy="791" fill="#3cb44B" r="3.5" stroke-width="0" /><circle cx="275" cy="787" fill="#3cb44B" r="3.5" stroke-width="0" /><circle cx="375" cy="786" fill="#3cb44B" r="3.5" stroke-width="0" /><circle cx="323" cy="784" fill="#3cb44B" r="3.5" stroke-width="0" /><circle cx="290" cy="772" fill="#3cb44B" r="3.5" stroke-width="0" /><circle cx="331" cy="766" fill="#3cb44B" r="3.5" stroke-width="0" /><circle cx="327" cy="758" fill="#3cb44B" r="3.5" stroke-width="0" /><circle cx="341" cy="758" fill="#3cb44B" r="3.5" stroke-width="0" /><circle cx="369" cy="746" fill="#3cb44B" r="3.5" stroke-width="0" /><circle cx="308" cy="738" fill="#3cb44B" r="3.5" stroke-width="0" /><circle cx="305" cy="737" fill="#3cb44B" r="3.5" stroke-width="0" /><circle cx="307" cy="729" fill="#3cb44B" r="3.5" stroke-width="0" /><circle cx="337" cy="715" fill="#3cb44B" r="3.5" stroke-width="0" /><circle cx="383" cy="693" fill="#3cb44B" r="3.5" stroke-width="0" /><circle cx="359" cy="691" fill="#3cb44B" r="3.5" stroke-width="0" /><circle cx="360" cy="680" fill="#3cb44B" r="3.5" stroke-width="0" /><circle cx="782" cy="468" fill="#3cb44B" r="3.5" stroke-width="0" /><circle cx="761" cy="453" fill="#3cb44B" r="3.5" stroke-width="0" /><circle cx="796" cy="450" fill="#3cb44B" r="3.5" stroke-width="0" /><circle cx="801" cy="450" fill="#3cb44B" r="3.5" stroke-width="0" /><circle cx="801" cy="445" fill="#3cb44B" r="3.5" stroke-width="0" /><circle cx="769" cy="444" fill="#3cb44B" r="3.5" stroke-width="0" /><circle cx="776" cy="428" fill="#3cb44B" r="3.5" stroke-width="0" /><circle cx="816" cy="420" fill="#3cb44B" r="3.5" stroke-width="0" /><circle cx="831" cy="418" fill="#3cb44B" r="3.5" stroke-width="0" /><circle cx="824" cy="411" fill="#3cb44B" r="3.5" stroke-width="0" /><circle cx="792" cy="410" fill="#3cb44B" r="3.5" stroke-width="0" /><circle cx="801" cy="401" fill="#3cb44B" r="3.5" stroke-width="0" /><circle cx="822" cy="387" fill="#3cb44B" r="3.5" stroke-width="0" /><circle cx="823" cy="382" fill="#3cb44B" r="3.5" stroke-width="0" /><circle cx="812" cy="380" fill="#3cb44B" r="3.5" stroke-width="0" /><circle cx="836" cy="379" fill="#3cb44B" r="3.5" stroke-width="0" /><circle cx="792" cy="374" fill="#3cb44B" r="3.5" stroke-width="0" /><circle cx="822" cy="361" fill="#3cb44B" r="3.5" stroke-width="0" /><circle cx="818" cy="355" fill="#3cb44B" r="3.5" stroke-width="0" /><circle cx="874" cy="355" fill="#3cb44B" r="3.5" stroke-width="0" /><circle cx="810" cy="347" fill="#3cb44B" r="3.5" stroke-width="0" /><circle cx="754" cy="342" fill="#3cb44B" r="3.5" stroke-width="0" /><circle cx="827" cy="323" fill="#3cb44B" r="3.5" stroke-width="0" /><circle cx="853" cy="323" fill="#3cb44B" r="3.5" stroke-width="0" /><circle cx="810" cy="321" fill="#3cb44B" r="3.5" stroke-width="0" /><circle cx="848" cy="305" fill="#3cb44B" r="3.5" stroke-width="0" /><circle cx="848" cy="300" fill="#3cb44B" r="3.5" stroke-width="0" /><circle cx="840" cy="296" fill="#3cb44B" r="3.5" stroke-width="0" /><circle cx="791" cy="293" fill="#3cb44B" r="3.5" stroke-width="0" /><circle cx="865" cy="286" fill="#3cb44B" r="3.5" stroke-width="0" /><circle cx="833" cy="274" fill="#3cb44B" r="3.5" stroke-width="0" /><circle cx="834" cy="270" fill="#3cb44B" r="3.5" stroke-width="0" /><circle cx="821" cy="268" fill="#3cb44B" r="3.5" stroke-width="0" /><circle cx="845" cy="266" fill="#3cb44B" r="3.5" stroke-width="0" /><circle cx="799" cy="258" fill="#3cb44B" r="3.5" stroke-width="0" /><circle cx="853" cy="258" fill="#3cb44B" r="3.5" stroke-width="0" /><circle cx="844" cy="255" fill="#3cb44B" r="3.5" stroke-width="0" /><circle cx="784" cy="254" fill="#3cb44B" r="3.5" stroke-width="0" /><circle cx="833" cy="252" fill="#3cb44B" r="3.5" stroke-width="0" /><circle cx="864" cy="248" fill="#3cb44B" r="3.5" stroke-width="0" /><circle cx="835" cy="247" fill="#3cb44B" r="3.5" stroke-width="0" /><circle cx="807" cy="242" fill="#3cb44B" r="3.5" stroke-width="0" /><circle cx="829" cy="239" fill="#3cb44B" r="3.5" stroke-width="0" /><circle cx="866" cy="206" fill="#3cb44B" r="3.5" stroke-width="0" /><circle cx="904" cy="203" fill="#3cb44B" r="3.5" stroke-width="0" /></g><g class="e5"><circle cx="267" cy="758" fill="#ff0000" r="3.5" stroke-width="0" /><circle cx="268" cy="758" fill="#ff0000" r="3.5" stroke-width="0" /><circle cx="278" cy="752" fill="#ff0000" r="3.5" stroke-width="0" /><circle cx="285" cy="737" fill="#ff0000" r="3.5" stroke-width="0" /><circle cx="290" cy="734" fill="#ff0000" r="3.5" stroke-width="0" /><circle cx="309" cy="717" fill="#ff0000" r="3.5" stroke-width="0" /><circle cx="281" cy="713" fill="#ff0000" r="3.5" stroke-width="0" /><circle cx="296" cy="713" fill="#ff0000" r="3.5" stroke-width="0" /><circle cx="289" cy="710" fill="#ff0000" r="3.5" stroke-width="0" /><circle cx="289" cy="702" fill="#ff0000" r="3.5" stroke-width="0" /><circle cx="324" cy="696" fill="#ff0000" r="3.5" stroke-width="0" /><circle cx="290" cy="691" fill="#ff0000" r="3.5" stroke-width="0" /><circle cx="297" cy="683" fill="#ff0000" r="3.5" stroke-width="0" /><circle cx="355" cy="671" fill="#ff0000" r="3.5" stroke-width="0" /><circle cx="278" cy="665" fill="#ff0000" r="3.5" stroke-width="0" /><circle cx="358" cy="665" fill="#ff0000" r="3.5" stroke-width="0" /><circle cx="281" cy="663" fill="#ff0000" r="3.5" stroke-width="0" /><circle cx="303" cy="659" fill="#ff0000" r="3.5" stroke-width="0" /><circle cx="337" cy="658" fill="#ff0000" r="3.5" stroke-width="0" /><circle cx="268" cy="657" fill="#ff0000" r="3.5" stroke-width="0" /><circle cx="315" cy="657" fill="#ff0000" r="3.5" stroke-width="0" /><circle cx="296" cy="654" fill="#ff0000" r="3.5" stroke-width="0" /><circle cx="262" cy="653" fill="#ff0000" r="3.5" stroke-width="0" /><circle cx="290" cy="652" fill="#ff0000" r="3.5" stroke-width="0" /><circle cx="387" cy="639" fill="#ff0000" r="3.5" stroke-width="0" /><circle cx="310" cy="638" fill="#ff0000" r="3.5" stroke-width="0" /><circle cx="352" cy="628" fill="#ff0000" r="3.5" stroke-width="0" /><circle cx="344" cy="625" fill="#ff0000" r="3.5" stroke-width="0" /><circle cx="297" cy="623" fill="#ff0000" r="3.5" stroke-width="0" /><circle cx="269" cy="615" fill="#ff0000" r="3.5" stroke-width="0" /><circle cx="320" cy="615" fill="#ff0000" r="3.5" stroke-width="0" /><circle cx="332" cy="615" fill="#ff0000" r="3.5" stroke-width="0" /><circle cx="310" cy="610" fill="#ff0000" r="3.5" stroke-width="0" /><circle cx="336" cy="609" fill="#ff0000" r="3.5" stroke-width="0" /><circle cx="299" cy="603" fill="#ff0000" r="3.5" stroke-width="0" /><circle cx="309" cy="601" fill="#ff0000" r="3.5" stroke-width="0" /><circle cx="359" cy="599" fill="#ff0000" r="3.5" stroke-width="0" /><circle cx="356" cy="591" fill="#ff0000" r="3.5" stroke-width="0" /><circle cx="364" cy="586" fill="#ff0000" r="3.5" stroke-width="0" /><circle cx="260" cy="584" fill="#ff0000" r="3.5" stroke-width="0" /><circle cx="336" cy="581" fill="#ff0000" r="3.5" stroke-width="0" /><circle cx="289" cy="580" fill="#ff0000" r="3.5" stroke-width="0" /><circle cx="284" cy="579" fill="#ff0000" r="3.5" stroke-width="0" /><circle cx="268" cy="576" fill="#ff0000" r="3.5" stroke-width="0" /><circle cx="304" cy="576" fill="#ff0000" r="3.5" stroke-width="0" /><circle cx="340" cy="576" fill="#ff0000" r="3.5" stroke-width="0" /><circle cx="285" cy="574" fill="#ff0000" r="3.5" stroke-width="0" /><circle cx="271" cy="572" fill="#ff0000" r="3.5" stroke-width="0" /><circle cx="301" cy="572" fill="#ff0000" r="3.5" stroke-width="0" /><circle cx="358" cy="570" fill="#ff0000" r="3.5" stroke-width="0" /><circle cx="301" cy="558" fill="#ff0000" r="3.5" stroke-width="0" /><circle cx="352" cy="551" fill="#ff0000" r="3.5" stroke-width="0" /><circle cx="286" cy="538" fill="#ff0000" r="3.5" stroke-width="0" /><circle cx="331" cy="536" fill="#ff0000" r="3.5" stroke-width="0" /><circle cx="301" cy="535" fill="#ff0000" r="3.5" stroke-width="0" /><circle cx="329" cy="534" fill="#ff0000" r="3.5" stroke-width="0" /><circle cx="283" cy="526" fill="#ff0000" r="3.5" stroke-width="0" /><circle cx="368" cy="522" fill="#ff0000" r="3.5" stroke-width="0" /><circle cx="302" cy="521" fill="#ff0000" r="3.5" stroke-width="0" /><circle cx="303" cy="516" fill="#ff0000" r="3.5" stroke-width="0" /><circle cx="320" cy="495" fill="#ff0000" r="3.5" stroke-width="0" /><circle cx="340" cy="483" fill="#ff0000" r="3.5" stroke-width="0" /><circle cx="334" cy="480" fill="#ff0000" r="3.5" stroke-width="0" /><circle cx="359" cy="479" fill="#ff0000" r="3.5" stroke-width="0" /><circle cx="342" cy="471" fill="#ff0000" r="3.5" stroke-width="0" /><circle cx="346" cy="465" fill="#ff0000" r="3.5" stroke-width="0" /><circle cx="749" cy="252" fill="#ff0000" r="3.5" stroke-width="0" /><circle cx="766" cy="202" fill="#ff0000" r="3.5" stroke-width="0" /><circle cx="796" cy="200" fill="#ff0000" r="3.5" stroke-width="0" /><circle cx="844" cy="178" fill="#ff0000" r="3.5" stroke-width="0" /><circle cx="843" cy="177" fill="#ff0000" r="3.5" stroke-width="0" /><circle cx="835" cy="166" fill="#ff0000" r="3.5" stroke-width="0" /><circle cx="811" cy="157" fill="#ff0000" r="3.5" stroke-width="0" /><circle cx="855" cy="136" fill="#ff0000" r="3.5" stroke-width="0" /><circle cx="804" cy="134" fill="#ff0000" r="3.5" stroke-width="0" /><circle cx="843" cy="98" fill="#ff0000" r="3.5" stroke-width="0" /></g><g class="e6"><circle cx="286" cy="506" fill="#2b92db" r="3.5" stroke-width="0" /><circle cx="310" cy="489" fill="#2b92db" r="3.5" stroke-width="0" /><circle cx="292" cy="485" fill="#2b92db" r="3.5" stroke-width="0" /><circle cx="316" cy="484" fill="#2b92db" r="3.5" stroke-width="0" /><circle cx="315" cy="480" fill="#2b92db" r="3.5" stroke-width="0" /><circle cx="300" cy="471" fill="#2b92db" r="3.5" stroke-width="0" /><circle cx="301" cy="469" fill="#2b92db" r="3.5" stroke-width="0" /><circle cx="249" cy="466" fill="#2b92db" r="3.5" stroke-width="0" /><circle cx="344" cy="463" fill="#2b92db" r="3.5" stroke-width="0" /><circle cx="311" cy="462" fill="#2b92db" r="3.5" stroke-width="0" /><circle cx="284" cy="461" fill="#2b92db" r="3.5" stroke-width="0" /><circle cx="256" cy="460" fill="#2b92db" r="3.5" stroke-width="0" /><circle cx="313" cy="455" fill="#2b92db" r="3.5" stroke-width="0" /><circle cx="326" cy="455" fill="#2b92db" r="3.5" stroke-width="0" /><circle cx="284" cy="452" fill="#2b92db" r="3.5" stroke-width="0" /><circle cx="316" cy="452" fill="#2b92db" r="3.5" stroke-width="0" /><circle cx="279" cy="446" fill="#2b92db" r="3.5" stroke-width="0" /><circle cx="318" cy="444" fill="#2b92db" r="3.5" stroke-width="0" /><circle cx="308" cy="439" fill="#2b92db" r="3.5" stroke-width="0" /><circle cx="320" cy="424" fill="#2b92db" r="3.5" stroke-width="0" /><circle cx="264" cy="423" fill="#2b92db" r="3.5" stroke-width="0" /><circle cx="305" cy="422" fill="#2b92db" r="3.5" stroke-width="0" /><circle cx="353" cy="416" fill="#2b92db" r="3.5" stroke-width="0" /><circle cx="303" cy="415" fill="#2b92db" r="3.5" stroke-width="0" /><circle cx="323" cy="415" fill="#2b92db" r="3.5" stroke-width="0" /><circle cx="310" cy="414" fill="#2b92db" r="3.5" stroke-width="0" /><circle cx="267" cy="412" fill="#2b92db" r="3.5" stroke-width="0" /><circle cx="361" cy="411" fill="#2b92db" r="3.5" stroke-width="0" /><circle cx="284" cy="402" fill="#2b92db" r="3.5" stroke-width="0" /><circle cx="325" cy="397" fill="#2b92db" r="3.5" stroke-width="0" /><circle cx="329" cy="394" fill="#2b92db" r="3.5" stroke-width="0" /><circle cx="299" cy="389" fill="#2b92db" r="3.5" stroke-width="0" /><circle cx="373" cy="385" fill="#2b92db" r="3.5" stroke-width="0" /><circle cx="246" cy="372" fill="#2b92db" r="3.5" stroke-width="0" /><circle cx="297" cy="368" fill="#2b92db" r="3.5" stroke-width="0" /><circle cx="292" cy="353" fill="#2b92db" r="3.5" stroke-width="0" /><circle cx="248" cy="351" fill="#2b92db" r="3.5" stroke-width="0" /><circle cx="295" cy="349" fill="#2b92db" r="3.5" stroke-width="0" /><circle cx="275" cy="345" fill="#2b92db" r="3.5" stroke-width="0" /><circle cx="291" cy="332" fill="#2b92db" r="3.5" stroke-width="0" /><circle cx="366" cy="332" fill="#2b92db" r="3.5" stroke-width="0" /><circle cx="361" cy="331" fill="#2b92db" r="3.5" stroke-width="0" /><circle cx="354" cy="330" fill="#2b92db" r="3.5" stroke-width="0" /><circle cx="330" cy="315" fill="#2b92db" r="3.5" stroke-width="0" /><circle cx="357" cy="313" fill="#2b92db" r="3.5" stroke-width="0" /><circle cx="294" cy="311" fill="#2b92db" r="3.5" stroke-width="0" /><circle cx="328" cy="303" fill="#2b92db" r="3.5" stroke-width="0" /><circle cx="303" cy="293" fill="#2b92db" r="3.5" stroke-width="0" /><circle cx="317" cy="278" fill="#2b92db" r="3.5" stroke-width="0" /><circle cx="365" cy="276" fill="#2b92db" r="3.5" stroke-width="0" /><circle cx="335" cy="275" fill="#2b92db" r="3.5" stroke-width="0" /><circle cx="362" cy="269" fill="#2b92db" r="3.5" stroke-width="0" /><circle cx="388" cy="222" fill="#2b92db" r="3.5" stroke-width="0" /><circle cx="389" cy="205" fill="#2b92db" r="3.5" stroke-width="0" /></g><g class="e7"><circle cx="287" cy="284" fill="#911eb4" r="3.5" stroke-width="0" /><circle cx="302" cy="281" fill="#911eb4" r="3.5" stroke-width="0" /><circle cx="314" cy="248" fill="#911eb4" r="3.5" stroke-width="0" /><circle cx="347" cy="230" fill="#911eb4" r="3.5" stroke-width="0" /><circle cx="306" cy="200" fill="#911eb4" r="3.5" stroke-width="0" /><circle cx="316" cy="182" fill="#911eb4" r="3.5" stroke-width="0" /><circle cx="305" cy="177" fill="#911eb4" r="3.5" stroke-width="0" /><circle cx="308" cy="167" fill="#911eb4" r="3.5" stroke-width="0" /><circle cx="322" cy="151" fill="#911eb4" r="3.5" stroke-width="0" /><circle cx="269" cy="137" fill="#911eb4" r="3.5" stroke-width="0" /><circle cx="311" cy="132" fill="#911eb4" r="3.5" stroke-width="0" /><circle cx="294" cy="118" fill="#911eb4" r="3.5" stroke-width="0" /><circle cx="283" cy="108" fill="#911eb4" r="3.5" stroke-width="0" /><circle cx="320" cy="106" fill="#911eb4" r="3.5" stroke-width="0" /><circle cx="364" cy="72" fill="#911eb4" r="3.5" stroke-width="0" /></g><g class="e8" /></g></g></svg>