<?xml version="1.0" encoding="utf-8" ?>
<svg baseProfile="full" height="1140px" style="font-size:15;font-family:Arial, san-serif;font-weight:bold;stroke:black;stroke-width:0;fill:#444444" version="1.1" width="1140px" xmlns="http://www.w3.org/2000/svg" xmlns:ev="http://www.w3.org/2001/xml-events" xmlns:xlink="http://www.w3.org/1999/xlink"><defs><clipPath id="areadografico"><rect height="1000" width="1000" x="70" y="70" /></clipPath></defs><g class="master"><g class="poligonos"><polygon clip-path="url(#areadografico)" fill="#000000" fill-opacity="0.1" points="1069,1070 1069,672 672,1070" /><polygon clip-path="url(#areadografico)" fill="#ffffff" fill-opacity="0.1" points="672,1070 273,1070 1069,273 1069,672" /><polygon clip-path="url(#areadografico)" fill="#000000" fill-opacity="0.1" points="273,1070 -126,1070 1069,-126 1069,273" /><polygon clip-path="url(#areadografico)" fill="#ffffff" fill-opacity="0.1" points="-126,1070 -524,1070 1069,-524 1069,-126" /><polygon clip-path="url(#areadografico)" fill="#000000" fill-opacity="0.1" points="70,70 70,475 475,70" /></g><g class="linhas"><line fill-opacity="0.3" stroke="#999999" stroke-width="1" x1="1070" x2="1070" y1="1070" y2="70" /><line fill-opacity="0.3" stroke="#999999" stroke-width="1" x1="70" x2="1070" y1="70" y2="70" /><line fill-opacity="0.3" stroke="#999999" stroke-width="1" x1="970" x2="970" y1="1070" y2="70" /><line fill-opacity="0.3" stroke="#999999" stroke-width="1" x1="70" x2="1070" y1="170" y2="170" /><line fill-opacity="0.3" stroke="#999999" stroke-width="1" x1="870" x2="870" y1="1070" y2="70" /><line fill-opacity="0.3" stroke="#999999" stroke-width="1" x1="70" x2="1070" y1="270" y2="270" /><line fill-opacity="0.3" stroke="#999999" stroke-width="1" x1="770" x2="770" y1="1070" y2="70" /><line fill-opacity="0.3" stroke="#999999" stroke-width="1" x1="70" x2="1070" y1="370" y2="370" /><line fill-opacity="0.3" stroke="#999999" stroke-width="1" x1="670" x2="670" y1="1070" y2="70" /><line fill-opacity="0.3" stroke="#999999" stroke-width="1" x1="70" x2="1070" y1="470" y2="470" /><line fill-opacity="0.3" stroke="#999999" stroke-width="1" x1="570" x2="570" y1="1070" y2="70" /><line fill-opacity="0.3" stroke="#999999" stroke-width="1" x1="70" x2="1070" y1="570" y2="570" /><line fill-opacity="0.3" stroke="#999999" stroke-width="1" x1="470" x2="470" y1="1070" y2="70" /><line fill-opacity="0.3" stroke="#999999" stroke-width="1" x1="70" x2="1070" y1="670" y2="670" /><line fill-opacity="0.3" stroke="#999999" stroke-width="1" x1="370" x2="370" y1="1070" y2="70" /><line fill-opacity="0.3" stroke="#999999" stroke-width="1" x1="70" x2="1070" y1="770" y2="770" /><line fill-opacity="0.3" stroke="#999999" stroke-width="1" x1="270" x2="270" y1="1070" y2="70" /><line fill-opacity="0.3" stroke="#999999" stroke-width="1" x1="70" x2="1070" y1="870" y2="870" /><line fill-opacity="0.3" stroke="#999999" stroke-width="1" x1="170" x2="170" y1="1070" y2="70" /><line fill-opacity="0.3" stroke="#999999" stroke-width="1" x1="70" x2="1070" y1="970" y2="970" /><line fill-opacity="0.3" stroke="#000000" stroke-width="1" x1="70" x2="70" y1="1071" y2="69" /><line fill-opacity="0.3" stroke="#000000" stroke-width="1" x1="69" x2="1071" y1="1070" y2="1070" /></g><g class="textos"><text x="1050" y="1110">1000</text><text x="10" y="71">1000</text><text x="950" y="1110">900</text><text x="10" y="171">900</text><text x="850" y="1110">800</text><text x="10" y="271">800</text><text x="750" y="1110">700</text><text x="10" y="371">700</text><text x="650" y="1110">600</text><text x="10" y="471">600</text><text x="550" y="1110">500</text><text x="10" y="571">500</text><text x="450" y="1110">400</text><text x="10" y="671">400</text><text x="350" y="1110">300</text><text x="10" y="771">300</text><text x="250" y="1110">200</text><text x="10" y="871">200</text><text x="150" y="1110">100</text><text x="10" y="971">100</text><text x="50" y="1111">0</text><text x="9" y="1071">0</text></g><g class="especies"><g class="e0"><circle cx="825" cy="1064" fill="#3cb44B" r="3.5" stroke-width="0" /><circle cx="802" cy="1056" fill="#3cb44B" r="3.5" stroke-width="0" /><circle cx="840" cy="1046" fill="#3cb44B" r="3.5" stroke-width="0" /><circle cx="800" cy="1045" fill="#3cb44B" r="3.5" stroke-width="0" /><circle cx="808" cy="1045" fill="#3cb44B" r="3.5" stroke-width="0" /><circle cx="867" cy="1030" fill="#3cb44B" r="3.5" stroke-width="0" /><circle cx="834" cy="996" fill="#3cb44B" r="3.5" stroke-width="0" /><circle cx="819" cy="984" fill="#3cb44B" r="3.5" stroke-width="0" /><circle cx="810" cy="980" fill="#3cb44B" r="3.5" stroke-width="0" /><circle cx="829" cy="965" fill="#3cb44B" r="3.5" stroke-width="0" /><circle cx="800" cy="964" fill="#3cb44B" r="3.5" stroke-width="0" /><circle cx="789" cy="961" fill="#3cb44B" r="3.5" stroke-width="0" /><circle cx="838" cy="961" fill="#3cb44B" r="3.5" stroke-width="0" /><circle cx="811" cy="949" fill="#3cb44B" r="3.5" stroke-width="0" /><circle cx="836" cy="906" fill="#3cb44B" r="3.5" stroke-width="0" /></g><g class="e1"><circle cx="338" cy="1044" fill="#ff0000" r="3.5" stroke-width="0" /><circle cx="370" cy="1012" fill="#ff0000" r="3.5" stroke-width="0" /><circle cx="783" cy="952" fill="#ff0000" r="3.5" stroke-width="0" /><circle cx="798" cy="933" fill="#ff0000" r="3.5" stroke-width="0" /><circle cx="807" cy="932" fill="#ff0000" r="3.5" stroke-width="0" /><circle cx="807" cy="925" fill="#ff0000" r="3.5" stroke-width="0" /><circle cx="785" cy="923" fill="#ff0000" r="3.5" stroke-width="0" /><circle cx="793" cy="917" fill="#ff0000" r="3.5" stroke-width="0" /><circle cx="806" cy="913" fill="#ff0000" r="3.5" stroke-width="0" /><circle cx="791" cy="908" fill="#ff0000" r="3.5" stroke-width="0" /><circle cx="819" cy="904" fill="#ff0000" r="3.5" stroke-width="0" /><circle cx="787" cy="891" fill="#ff0000" r="3.5" stroke-width="0" /><circle cx="824" cy="888" fill="#ff0000" r="3.5" stroke-width="0" /><circle cx="838" cy="888" fill="#ff0000" r="3.5" stroke-width="0" /><circle cx="778" cy="887" fill="#ff0000" r="3.5" stroke-width="0" /><circle cx="804" cy="882" fill="#ff0000" r="3.5" stroke-width="0" /><circle cx="847" cy="879" fill="#ff0000" r="3.5" stroke-width="0" /><circle cx="851" cy="879" fill="#ff0000" r="3.5" stroke-width="0" /><circle cx="792" cy="860" fill="#ff0000" r="3.5" stroke-width="0" /><circle cx="839" cy="856" fill="#ff0000" r="3.5" stroke-width="0" /><circle cx="834" cy="854" fill="#ff0000" r="3.5" stroke-width="0" /><circle cx="807" cy="851" fill="#ff0000" r="3.5" stroke-width="0" /><circle cx="791" cy="844" fill="#ff0000" r="3.5" stroke-width="0" /><circle cx="828" cy="840" fill="#ff0000" r="3.5" stroke-width="0" /><circle cx="792" cy="839" fill="#ff0000" r="3.5" stroke-width="0" /><circle cx="857" cy="837" fill="#ff0000" r="3.5" stroke-width="0" /><circle cx="804" cy="835" fill="#ff0000" r="3.5" stroke-width="0" /><circle cx="869" cy="828" fill="#ff0000" r="3.5" stroke-width="0" /><circle cx="859" cy="826" fill="#ff0000" r="3.5" stroke-width="0" /><circle cx="809" cy="825" fill="#ff0000" r="3.5" stroke-width="0" /><circle cx="789" cy="824" fill="#ff0000" r="3.5" stroke-width="0" /><circle cx="799" cy="824" fill="#ff0000" r="3.5" stroke-width="0" /><circle cx="827" cy="824" fill="#ff0000" r="3.5" stroke-width="0" /><circle cx="836" cy="824" fill="#ff0000" r="3.5" stroke-width="0" /><circle cx="804" cy="822" fill="#ff0000" r="3.5" stroke-width="0" /><circle cx="821" cy="821" fill="#ff0000" r="3.5" stroke-width="0" /><circle cx="790" cy="819" fill="#ff0000" r="3.5" stroke-width="0" /><circle cx="751" cy="816" fill="#ff0000" r="3.5" stroke-width="0" /><circle cx="779" cy="816" fill="#ff0000" r="3.5" stroke-width="0" /><circle cx="786" cy="812" fill="#ff0000" r="3.5" stroke-width="0" /><circle cx="878" cy="806" fill="#ff0000" r="3.5" stroke-width="0" /><circle cx="865" cy="801" fill="#ff0000" r="3.5" stroke-width="0" /><circle cx="888" cy="799" fill="#ff0000" r="3.5" stroke-width="0" /><circle cx="859" cy="792" fill="#ff0000" r="3.5" stroke-width="0" /><circle cx="817" cy="789" fill="#ff0000" r="3.5" stroke-width="0" /><circle cx="828" cy="787" fill="#ff0000" r="3.5" stroke-width="0" /><circle cx="841" cy="786" fill="#ff0000" r="3.5" stroke-width="0" /><circle cx="836" cy="785" fill="#ff0000" r="3.5" stroke-width="0" /><circle cx="868" cy="785" fill="#ff0000" r="3.5" stroke-width="0" /><circle cx="792" cy="783" fill="#ff0000" r="3.5" stroke-width="0" /><circle cx="898" cy="772" fill="#ff0000" r="3.5" stroke-width="0" /><circle cx="828" cy="770" fill="#ff0000" r="3.5" stroke-width="0" /><circle cx="760" cy="769" fill="#ff0000" r="3.5" stroke-width="0" /><circle cx="770" cy="768" fill="#ff0000" r="3.5" stroke-width="0" /><circle cx="866" cy="767" fill="#ff0000" r="3.5" stroke-width="0" /><circle cx="784" cy="763" fill="#ff0000" r="3.5" stroke-width="0" /><circle cx="811" cy="757" fill="#ff0000" r="3.5" stroke-width="0" /><circle cx="825" cy="757" fill="#ff0000" r="3.5" stroke-width="0" /><circle cx="787" cy="753" fill="#ff0000" r="3.5" stroke-width="0" /><circle cx="855" cy="749" fill="#ff0000" r="3.5" stroke-width="0" /><circle cx="755" cy="737" fill="#ff0000" r="3.5" stroke-width="0" /><circle cx="842" cy="736" fill="#ff0000" r="3.5" stroke-width="0" /><circle cx="783" cy="731" fill="#ff0000" r="3.5" stroke-width="0" /><circle cx="842" cy="729" fill="#ff0000" r="3.5" stroke-width="0" /><circle cx="812" cy="727" fill="#ff0000" r="3.5" stroke-width="0" /><circle cx="827" cy="726" fill="#ff0000" r="3.5" stroke-width="0" /><circle cx="849" cy="726" fill="#ff0000" r="3.5" stroke-width="0" /><circle cx="852" cy="726" fill="#ff0000" r="3.5" stroke-width="0" /><circle cx="829" cy="724" fill="#ff0000" r="3.5" stroke-width="0" /><circle cx="778" cy="721" fill="#ff0000" r="3.5" stroke-width="0" /><circle cx="811" cy="719" fill="#ff0000" r="3.5" stroke-width="0" /><circle cx="792" cy="717" fill="#ff0000" r="3.5" stroke-width="0" /><circle cx="859" cy="716" fill="#ff0000" r="3.5" stroke-width="0" /><circle cx="809" cy="715" fill="#ff0000" r="3.5" stroke-width="0" /><circle cx="789" cy="714" fill="#ff0000" r="3.5" stroke-width="0" /><circle cx="800" cy="713" fill="#ff0000" r="3.5" stroke-width="0" /><circle cx="828" cy="708" fill="#ff0000" r="3.5" stroke-width="0" /><circle cx="864" cy="708" fill="#ff0000" r="3.5" stroke-width="0" /><circle cx="791" cy="706" fill="#ff0000" r="3.5" stroke-width="0" /><circle cx="818" cy="703" fill="#ff0000" r="3.5" stroke-width="0" /><circle cx="820" cy="703" fill="#ff0000" r="3.5" stroke-width="0" /><circle cx="793" cy="697" fill="#ff0000" r="3.5" stroke-width="0" /><circle cx="842" cy="695" fill="#ff0000" r="3.5" stroke-width="0" /><circle cx="809" cy="688" fill="#ff0000" r="3.5" stroke-width="0" /><circle cx="856" cy="688" fill="#ff0000" r="3.5" stroke-width="0" /><circle cx="783" cy="686" fill="#ff0000" r="3.5" stroke-width="0" /><circle cx="851" cy="682" fill="#ff0000" r="3.5" stroke-width="0" /><circle cx="830" cy="681" fill="#ff0000" r="3.5" stroke-width="0" /><circle cx="814" cy="679" fill="#ff0000" r="3.5" stroke-width="0" /><circle cx="824" cy="677" fill="#ff0000" r="3.5" stroke-width="0" /><circle cx="790" cy="675" fill="#ff0000" r="3.5" stroke-width="0" /><circle cx="809" cy="674" fill="#ff0000" r="3.5" stroke-width="0" /><circle cx="820" cy="673" fill="#ff0000" r="3.5" stroke-width="0" /><circle cx="831" cy="665" fill="#ff0000" r="3.5" stroke-width="0" /><circle cx="854" cy="661" fill="#ff0000" r="3.5" stroke-width="0" /><circle cx="826" cy="655" fill="#ff0000" r="3.5" stroke-width="0" /><circle cx="868" cy="651" fill="#ff0000" r="3.5" stroke-width="0" /><circle cx="803" cy="650" fill="#ff0000" r="3.5" stroke-width="0" /><circle cx="816" cy="648" fill="#ff0000" r="3.5" stroke-width="0" /><circle cx="918" cy="648" fill="#ff0000" r="3.5" stroke-width="0" /><circle cx="815" cy="647" fill="#ff0000" r="3.5" stroke-width="0" /><circle cx="816" cy="647" fill="#ff0000" r="3.5" stroke-width="0" /><circle cx="825" cy="647" fill="#ff0000" r="3.5" stroke-width="0" /><circle cx="846" cy="647" fill="#ff0000" r="3.5" stroke-width="0" /><circle cx="852" cy="642" fill="#ff0000" r="3.5" stroke-width="0" /><circle cx="803" cy="641" fill="#ff0000" r="3.5" stroke-width="0" /><circle cx="854" cy="638" fill="#ff0000" r="3.5" stroke-width="0" /><circle cx="776" cy="635" fill="#ff0000" r="3.5" stroke-width="0" /><circle cx="816" cy="633" fill="#ff0000" r="3.5" stroke-width="0" /><circle cx="804" cy="631" fill="#ff0000" r="3.5" stroke-width="0" /><circle cx="814" cy="631" fill="#ff0000" r="3.5" stroke-width="0" /><circle cx="811" cy="630" fill="#ff0000" r="3.5" stroke-width="0" /><circle cx="864" cy="629" fill="#ff0000" r="3.5" stroke-width="0" /><circle cx="831" cy="628" fill="#ff0000" r="3.5" stroke-width="0" /><circle cx="832" cy="626" fill="#ff0000" r="3.5" stroke-width="0" /><circle cx="834" cy="626" fill="#ff0000" r="3.5" stroke-width="0" /><circle cx="767" cy="625" fill="#ff0000" r="3.5" stroke-width="0" /><circle cx="813" cy="625" fill="#ff0000" r="3.5" stroke-width="0" /><circle cx="838" cy="622" fill="#ff0000" r="3.5" stroke-width="0" /><circle cx="769" cy="619" fill="#ff0000" r="3.5" stroke-width="0" /><circle cx="808" cy="619" fill="#ff0000" r="3.5" stroke-width="0" /><circle cx="860" cy="619" fill="#ff0000" r="3.5" stroke-width="0" /><circle cx="763" cy="617" fill="#ff0000" r="3.5" stroke-width="0" /><circle cx="801" cy="616" fill="#ff0000" r="3.5" stroke-width="0" /><circle cx="802" cy="615" fill="#ff0000" r="3.5" stroke-width="0" /><circle cx="827" cy="615" fill="#ff0000" r="3.5" stroke-width="0" /><circle cx="843" cy="615" fill="#ff0000" r="3.5" stroke-width="0" /><circle cx="817" cy="613" fill="#ff0000" r="3.5" stroke-width="0" /><circle cx="816" cy="611" fill="#ff0000" r="3.5" stroke-width="0" /><circle cx="838" cy="611" fill="#ff0000" r="3.5" stroke-width="0" /><circle cx="831" cy="610" fill="#ff0000" r="3.5" stroke-width="0" /><circle cx="868" cy="609" fill="#ff0000" r="3.5" stroke-width="0" /><circle cx="760" cy="605" fill="#ff0000" r="3.5" stroke-width="0" /><circle cx="817" cy="605" fill="#ff0000" r="3.5" stroke-width="0" /><circle cx="796" cy="603" fill="#ff0000" r="3.5" stroke-width="0" /><circle cx="841" cy="602" fill="#ff0000" r="3.5" stroke-width="0" /><circle cx="855" cy="600" fill="#ff0000" r="3.5" stroke-width="0" /><circle cx="830" cy="596" fill="#ff0000" r="3.5" stroke-width="0" /><circle cx="770" cy="593" fill="#ff0000" r="3.5" stroke-width="0" /><circle cx="807" cy="590" fill="#ff0000" r="3.5" stroke-width="0" /><circle cx="826" cy="588" fill="#ff0000" r="3.5" stroke-width="0" /><circle cx="795" cy="586" fill="#ff0000" r="3.5" stroke-width="0" /><circle cx="855" cy="585" fill="#ff0000" r="3.5" stroke-width="0" /><circle cx="857" cy="582" fill="#ff0000" r="3.5" stroke-width="0" /><circle cx="779" cy="581" fill="#ff0000" r="3.5" stroke-width="0" /><circle cx="777" cy="578" fill="#ff0000" r="3.5" stroke-width="0" /><circle cx="860" cy="578" fill="#ff0000" r="3.5" stroke-width="0" /><circle cx="818" cy="574" fill="#ff0000" r="3.5" stroke-width="0" /><circle cx="824" cy="573" fill="#ff0000" r="3.5" stroke-width="0" /><circle cx="853" cy="572" fill="#ff0000" r="3.5" stroke-width="0" /><circle cx="862" cy="572" fill="#ff0000" r="3.5" stroke-width="0" /><circle cx="778" cy="570" fill="#ff0000" r="3.5" stroke-width="0" /><circle cx="815" cy="566" fill="#ff0000" r="3.5" stroke-width="0" /><circle cx="859" cy="562" fill="#ff0000" r="3.5" stroke-width="0" /><circle cx="804" cy="559" fill="#ff0000" r="3.5" stroke-width="0" /><circle cx="789" cy="555" fill="#ff0000" r="3.5" stroke-width="0" /><circle cx="796" cy="552" fill="#ff0000" r="3.5" stroke-width="0" /><circle cx="868" cy="552" fill="#ff0000" r="3.5" stroke-width="0" /><circle cx="807" cy="551" fill="#ff0000" r="3.5" stroke-width="0" /><circle cx="813" cy="551" fill="#ff0000" r="3.5" stroke-width="0" /><circle cx="842" cy="548" fill="#ff0000" r="3.5" stroke-width="0" /><circle cx="826" cy="547" fill="#ff0000" r="3.5" stroke-width="0" /><circle cx="810" cy="544" fill="#ff0000" r="3.5" stroke-width="0" /><circle cx="813" cy="540" fill="#ff0000" r="3.5" stroke-width="0" /><circle cx="835" cy="538" fill="#ff0000" r="3.5" stroke-width="0" /><circle cx="858" cy="534" fill="#ff0000" r="3.5" stroke-width="0" /><circle cx="832" cy="528" fill="#ff0000" r="3.5" stroke-width="0" /><circle cx="827" cy="523" fill="#ff0000" r="3.5" stroke-width="0" /><circle cx="839" cy="510" fill="#ff0000" r="3.5" stroke-width="0" /></g><g class="e2"><circle cx="275" cy="1060" fill="#2b92db" r="3.5" stroke-width="0" /><circle cx="264" cy="999" fill="#2b92db" r="3.5" stroke-width="0" /><circle cx="286" cy="994" fill="#2b92db" r="3.5" stroke-width="0" /><circle cx="314" cy="986" fill="#2b92db" r="3.5" stroke-width="0" /><circle cx="304" cy="985" fill="#2b92db" r="3.5" stroke-width="0" /><circle cx="337" cy="981" fill="#2b92db" r="3.5" stroke-width="0" /><circle cx="307" cy="953" fill="#2b92db" r="3.5" stroke-width="0" /><circle cx="327" cy="928" fill="#2b92db" r="3.5" stroke-width="0" /><circle cx="349" cy="916" fill="#2b92db" r="3.5" stroke-width="0" /><circle cx="310" cy="914" fill="#2b92db" r="3.5" stroke-width="0" /><circle cx="318" cy="911" fill="#2b92db" r="3.5" stroke-width="0" /><circle cx="380" cy="903" fill="#2b92db" r="3.5" stroke-width="0" /><circle cx="323" cy="897" fill="#2b92db" r="3.5" stroke-width="0" /><circle cx="347" cy="890" fill="#2b92db" r="3.5" stroke-width="0" /><circle cx="304" cy="888" fill="#2b92db" r="3.5" stroke-width="0" /><circle cx="348" cy="871" fill="#2b92db" r="3.5" stroke-width="0" /><circle cx="300" cy="868" fill="#2b92db" r="3.5" stroke-width="0" /><circle cx="339" cy="860" fill="#2b92db" r="3.5" stroke-width="0" /><circle cx="338" cy="859" fill="#2b92db" r="3.5" stroke-width="0" /><circle cx="368" cy="858" fill="#2b92db" r="3.5" stroke-width="0" /><circle cx="307" cy="856" fill="#2b92db" r="3.5" stroke-width="0" /><circle cx="313" cy="855" fill="#2b92db" r="3.5" stroke-width="0" /><circle cx="307" cy="850" fill="#2b92db" r="3.5" stroke-width="0" /><circle cx="326" cy="849" fill="#2b92db" r="3.5" stroke-width="0" /><circle cx="357" cy="847" fill="#2b92db" r="3.5" stroke-width="0" /><circle cx="317" cy="838" fill="#2b92db" r="3.5" stroke-width="0" /><circle cx="308" cy="835" fill="#2b92db" r="3.5" stroke-width="0" /><circle cx="291" cy="831" fill="#2b92db" r="3.5" stroke-width="0" /><circle cx="302" cy="828" fill="#2b92db" r="3.5" stroke-width="0" /><circle cx="243" cy="823" fill="#2b92db" r="3.5" stroke-width="0" /><circle cx="331" cy="822" fill="#2b92db" r="3.5" stroke-width="0" /><circle cx="440" cy="820" fill="#2b92db" r="3.5" stroke-width="0" /><circle cx="323" cy="819" fill="#2b92db" r="3.5" stroke-width="0" /><circle cx="319" cy="815" fill="#2b92db" r="3.5" stroke-width="0" /><circle cx="324" cy="812" fill="#2b92db" r="3.5" stroke-width="0" /><circle cx="306" cy="802" fill="#2b92db" r="3.5" stroke-width="0" /><circle cx="311" cy="800" fill="#2b92db" r="3.5" stroke-width="0" /><circle cx="331" cy="790" fill="#2b92db" r="3.5" stroke-width="0" /><circle cx="368" cy="786" fill="#2b92db" r="3.5" stroke-width="0" /><circle cx="320" cy="785" fill="#2b92db" r="3.5" stroke-width="0" /><circle cx="357" cy="784" fill="#2b92db" r="3.5" stroke-width="0" /><circle cx="308" cy="782" fill="#2b92db" r="3.5" stroke-width="0" /><circle cx="344" cy="778" fill="#2b92db" r="3.5" stroke-width="0" /><circle cx="357" cy="773" fill="#2b92db" r="3.5" stroke-width="0" /><circle cx="289" cy="769" fill="#2b92db" r="3.5" stroke-width="0" /><circle cx="262" cy="768" fill="#2b92db" r="3.5" stroke-width="0" /><circle cx="356" cy="766" fill="#2b92db" r="3.5" stroke-width="0" /><circle cx="327" cy="763" fill="#2b92db" r="3.5" stroke-width="0" /><circle cx="306" cy="759" fill="#2b92db" r="3.5" stroke-width="0" /><circle cx="290" cy="755" fill="#2b92db" r="3.5" stroke-width="0" /><circle cx="304" cy="755" fill="#2b92db" r="3.5" stroke-width="0" /><circle cx="315" cy="750" fill="#2b92db" r="3.5" stroke-width="0" /><circle cx="378" cy="747" fill="#2b92db" r="3.5" stroke-width="0" /><circle cx="313" cy="744" fill="#2b92db" r="3.5" stroke-width="0" /><circle cx="300" cy="742" fill="#2b92db" r="3.5" stroke-width="0" /><circle cx="398" cy="734" fill="#2b92db" r="3.5" stroke-width="0" /><circle cx="334" cy="731" fill="#2b92db" r="3.5" stroke-width="0" /><circle cx="333" cy="730" fill="#2b92db" r="3.5" stroke-width="0" /><circle cx="319" cy="729" fill="#2b92db" r="3.5" stroke-width="0" /><circle cx="338" cy="729" fill="#2b92db" r="3.5" stroke-width="0" /><circle cx="288" cy="728" fill="#2b92db" r="3.5" stroke-width="0" /><circle cx="300" cy="726" fill="#2b92db" r="3.5" stroke-width="0" /><circle cx="321" cy="722" fill="#2b92db" r="3.5" stroke-width="0" /><circle cx="315" cy="718" fill="#2b92db" r="3.5" stroke-width="0" /><circle cx="328" cy="712" fill="#2b92db" r="3.5" stroke-width="0" /><circle cx="338" cy="712" fill="#2b92db" r="3.5" stroke-width="0" /><circle cx="325" cy="709" fill="#2b92db" r="3.5" stroke-width="0" /><circle cx="304" cy="707" fill="#2b92db" r="3.5" stroke-width="0" /><circle cx="326" cy="705" fill="#2b92db" r="3.5" stroke-width="0" /><circle cx="337" cy="704" fill="#2b92db" r="3.5" stroke-width="0" /><circle cx="292" cy="702" fill="#2b92db" r="3.5" stroke-width="0" /><circle cx="337" cy="696" fill="#2b92db" r="3.5" stroke-width="0" /><circle cx="308" cy="694" fill="#2b92db" r="3.5" stroke-width="0" /><circle cx="369" cy="693" fill="#2b92db" r="3.5" stroke-width="0" /><circle cx="306" cy="688" fill="#2b92db" r="3.5" stroke-width="0" /><circle cx="319" cy="687" fill="#2b92db" r="3.5" stroke-width="0" /><circle cx="332" cy="683" fill="#2b92db" r="3.5" stroke-width="0" /><circle cx="345" cy="683" fill="#2b92db" r="3.5" stroke-width="0" /><circle cx="282" cy="682" fill="#2b92db" r="3.5" stroke-width="0" /><circle cx="311" cy="679" fill="#2b92db" r="3.5" stroke-width="0" /><circle cx="383" cy="675" fill="#2b92db" r="3.5" stroke-width="0" /><circle cx="311" cy="674" fill="#2b92db" r="3.5" stroke-width="0" /><circle cx="283" cy="673" fill="#2b92db" r="3.5" stroke-width="0" /><circle cx="317" cy="667" fill="#2b92db" r="3.5" stroke-width="0" /><circle cx="346" cy="667" fill="#2b92db" r="3.5" stroke-width="0" /><circle cx="337" cy="665" fill="#2b92db" r="3.5" stroke-width="0" /><circle cx="316" cy="663" fill="#2b92db" r="3.5" stroke-width="0" /><circle cx="300" cy="659" fill="#2b92db" r="3.5" stroke-width="0" /><circle cx="318" cy="656" fill="#2b92db" r="3.5" stroke-width="0" /><circle cx="317" cy="653" fill="#2b92db" r="3.5" stroke-width="0" /><circle cx="332" cy="653" fill="#2b92db" r="3.5" stroke-width="0" /><circle cx="346" cy="653" fill="#2b92db" r="3.5" stroke-width="0" /><circle cx="325" cy="651" fill="#2b92db" r="3.5" stroke-width="0" /><circle cx="344" cy="650" fill="#2b92db" r="3.5" stroke-width="0" /><circle cx="331" cy="648" fill="#2b92db" r="3.5" stroke-width="0" /><circle cx="303" cy="647" fill="#2b92db" r="3.5" stroke-width="0" /><circle cx="374" cy="639" fill="#2b92db" r="3.5" stroke-width="0" /><circle cx="315" cy="637" fill="#2b92db" r="3.5" stroke-width="0" /><circle cx="359" cy="630" fill="#2b92db" r="3.5" stroke-width="0" /><circle cx="407" cy="628" fill="#2b92db" r="3.5" stroke-width="0" /><circle cx="320" cy="627" fill="#2b92db" r="3.5" stroke-width="0" /><circle cx="325" cy="620" fill="#2b92db" r="3.5" stroke-width="0" /><circle cx="332" cy="612" fill="#2b92db" r="3.5" stroke-width="0" /><circle cx="363" cy="612" fill="#2b92db" r="3.5" stroke-width="0" /><circle cx="354" cy="610" fill="#2b92db" r="3.5" stroke-width="0" /><circle cx="368" cy="605" fill="#2b92db" r="3.5" stroke-width="0" /><circle cx="353" cy="599" fill="#2b92db" r="3.5" stroke-width="0" /><circle cx="350" cy="596" fill="#2b92db" r="3.5" stroke-width="0" /><circle cx="362" cy="594" fill="#2b92db" r="3.5" stroke-width="0" /><circle cx="388" cy="558" fill="#2b92db" r="3.5" stroke-width="0" /><circle cx="794" cy="544" fill="#2b92db" r="3.5" stroke-width="0" /><circle cx="778" cy="541" fill="#2b92db" r="3.5" stroke-width="0" /><circle cx="810" cy="530" fill="#2b92db" r="3.5" stroke-width="0" /><circle cx="797" cy="527" fill="#2b92db" r="3.5" stroke-width="0" /><circle cx="786" cy="523" fill="#2b92db" r="3.5" stroke-width="0" /><circle cx="772" cy="522" fill="#2b92db" r="3.5" stroke-width="0" /><circle cx="727" cy="521" fill="#2b92db" r="3.5" stroke-width="0" /><circle cx="778" cy="521" fill="#2b92db" r="3.5" stroke-width="0" /><circle cx="756" cy="507" fill="#2b92db" r="3.5" stroke-width="0" /><circle cx="794" cy="498" fill="#2b92db" r="3.5" stroke-width="0" /><circle cx="829" cy="497" fill="#2b92db" r="3.5" stroke-width="0" /><circle cx="840" cy="496" fill="#2b92db" r="3.5" stroke-width="0" /><circle cx="786" cy="494" fill="#2b92db" r="3.5" stroke-width="0" /><circle cx="775" cy="493" fill="#2b92db" r="3.5" stroke-width="0" /><circle cx="807" cy="493" fill="#2b92db" r="3.5" stroke-width="0" /><circle cx="803" cy="491" fill="#2b92db" r="3.5" stroke-width="0" /><circle cx="816" cy="489" fill="#2b92db" r="3.5" stroke-width="0" /><circle cx="818" cy="489" fill="#2b92db" r="3.5" stroke-width="0" /><circle cx="815" cy="486" fill="#2b92db" r="3.5" stroke-width="0" /><circle cx="804" cy="483" fill="#2b92db" r="3.5" stroke-width="0" /><circle cx="831" cy="483" fill="#2b92db" r="3.5" stroke-width="0" /><circle cx="858" cy="480" fill="#2b92db" r="3.5" stroke-width="0" /><circle cx="840" cy="478" fill="#2b92db" r="3.5" stroke-width="0" /><circle cx="767" cy="467" fill="#2b92db" r="3.5" stroke-width="0" /><circle cx="834" cy="464" fill="#2b92db" r="3.5" stroke-width="0" /><circle cx="809" cy="463" fill="#2b92db" r="3.5" stroke-width="0" /><circle cx="850" cy="459" fill="#2b92db" r="3.5" stroke-width="0" /><circle cx="780" cy="454" fill="#2b92db" r="3.5" stroke-width="0" /><circle cx="792" cy="454" fill="#2b92db" r="3.5" stroke-width="0" /><circle cx="855" cy="449" fill="#2b92db" r="3.5" stroke-width="0" /><circle cx="798" cy="448" fill="#2b92db" r="3.5" stroke-width="0" /><circle cx="783" cy="439" fill="#2b92db" r="3.5" stroke-width="0" /><circle cx="805" cy="439" fill="#2b92db" r="3.5" stroke-width="0" /><circle cx="784" cy="438" fill="#2b92db" r="3.5" stroke-width="0" /><circle cx="845" cy="437" fill="#2b92db" r="3.5" stroke-width="0" /><circle cx="810" cy="435" fill="#2b92db" r="3.5" stroke-width="0" /><circle cx="777" cy="434" fill="#2b92db" r="3.5" stroke-width="0" /><circle cx="817" cy="434" fill="#2b92db" r="3.5" stroke-width="0" /><circle cx="811" cy="431" fill="#2b92db" r="3.5" stroke-width="0" /><circle cx="822" cy="428" fill="#2b92db" r="3.5" stroke-width="0" /><circle cx="803" cy="427" fill="#2b92db" r="3.5" stroke-width="0" /><circle cx="799" cy="424" fill="#2b92db" r="3.5" stroke-width="0" /><circle cx="807" cy="423" fill="#2b92db" r="3.5" stroke-width="0" /><circle cx="847" cy="422" fill="#2b92db" r="3.5" stroke-width="0" /><circle cx="843" cy="421" fill="#2b92db" r="3.5" stroke-width="0" /><circle cx="791" cy="418" fill="#2b92db" r="3.5" stroke-width="0" /><circle cx="834" cy="418" fill="#2b92db" r="3.5" stroke-width="0" /><circle cx="835" cy="418" fill="#2b92db" r="3.5" stroke-width="0" /><circle cx="796" cy="416" fill="#2b92db" r="3.5" stroke-width="0" /><circle cx="862" cy="410" fill="#2b92db" r="3.5" stroke-width="0" /><circle cx="833" cy="409" fill="#2b92db" r="3.5" stroke-width="0" /><circle cx="857" cy="409" fill="#2b92db" r="3.5" stroke-width="0" /><circle cx="835" cy="408" fill="#2b92db" r="3.5" stroke-width="0" /><circle cx="814" cy="405" fill="#2b92db" r="3.5" stroke-width="0" /><circle cx="845" cy="399" fill="#2b92db" r="3.5" stroke-width="0" /><circle cx="863" cy="398" fill="#2b92db" r="3.5" stroke-width="0" /><circle cx="789" cy="393" fill="#2b92db" r="3.5" stroke-width="0" /><circle cx="838" cy="393" fill="#2b92db" r="3.5" stroke-width="0" /><circle cx="827" cy="391" fill="#2b92db" r="3.5" stroke-width="0" /><circle cx="758" cy="389" fill="#2b92db" r="3.5" stroke-width="0" /><circle cx="808" cy="388" fill="#2b92db" r="3.5" stroke-width="0" /><circle cx="877" cy="386" fill="#2b92db" r="3.5" stroke-width="0" /><circle cx="814" cy="378" fill="#2b92db" r="3.5" stroke-width="0" /><circle cx="823" cy="378" fill="#2b92db" r="3.5" stroke-width="0" /><circle cx="831" cy="377" fill="#2b92db" r="3.5" stroke-width="0" /><circle cx="830" cy="376" fill="#2b92db" r="3.5" stroke-width="0" /><circle cx="824" cy="372" fill="#2b92db" r="3.5" stroke-width="0" /><circle cx="755" cy="370" fill="#2b92db" r="3.5" stroke-width="0" /><circle cx="818" cy="369" fill="#2b92db" r="3.5" stroke-width="0" /><circle cx="833" cy="369" fill="#2b92db" r="3.5" stroke-width="0" /><circle cx="789" cy="368" fill="#2b92db" r="3.5" stroke-width="0" /><circle cx="819" cy="366" fill="#2b92db" r="3.5" stroke-width="0" /><circle cx="817" cy="359" fill="#2b92db" r="3.5" stroke-width="0" /><circle cx="820" cy="353" fill="#2b92db" r="3.5" stroke-width="0" /><circle cx="808" cy="352" fill="#2b92db" r="3.5" stroke-width="0" /><circle cx="845" cy="348" fill="#2b92db" r="3.5" stroke-width="0" /><circle cx="824" cy="346" fill="#2b92db" r="3.5" stroke-width="0" /><circle cx="834" cy="338" fill="#2b92db" r="3.5" stroke-width="0" /><circle cx="821" cy="320" fill="#2b92db" r="3.5" stroke-width="0" /><circle cx="809" cy="312" fill="#2b92db" r="3.5" stroke-width="0" /><circle cx="817" cy="307" fill="#2b92db" r="3.5" stroke-width="0" /><circle cx="855" cy="303" fill="#2b92db" r="3.5" stroke-width="0" /><circle cx="848" cy="299" fill="#2b92db" r="3.5" stroke-width="0" /><circle cx="779" cy="296" fill="#2b92db" r="3.5" stroke-width="0" /><circle cx="761" cy="294" fill="#2b92db" r="3.5" stroke-width="0" /><circle cx="790" cy="294" fill="#2b92db" r="3.5" stroke-width="0" /><circle cx="812" cy="284" fill="#2b92db" r="3.5" stroke-width="0" /><circle cx="788" cy="268" fill="#2b92db" r="3.5" stroke-width="0" /><circle cx="841" cy="267" fill="#2b92db" r="3.5" stroke-width="0" /><circle cx="790" cy="264" fill="#2b92db" r="3.5" stroke-width="0" /><circle cx="850" cy="263" fill="#2b92db" r="3.5" stroke-width="0" /><circle cx="818" cy="260" fill="#2b92db" r="3.5" stroke-width="0" /><circle cx="876" cy="251" fill="#2b92db" r="3.5" stroke-width="0" /><circle cx="797" cy="243" fill="#2b92db" r="3.5" stroke-width="0" /><circle cx="827" cy="241" fill="#2b92db" r="3.5" stroke-width="0" /><circle cx="798" cy="240" fill="#2b92db" r="3.5" stroke-width="0" /><circle cx="751" cy="237" fill="#2b92db" r="3.5" stroke-width="0" /><circle cx="801" cy="237" fill="#2b92db" r="3.5" stroke-width="0" /><circle cx="880" cy="235" fill="#2b92db" r="3.5" stroke-width="0" /><circle cx="832" cy="204" fill="#2b92db" r="3.5" stroke-width="0" /><circle cx="907" cy="170" fill="#2b92db" r="3.5" stroke-width="0" /><circle cx="830" cy="156" fill="#2b92db" r="3.5" stroke-width="0" /><circle cx="857" cy="138" fill="#2b92db" r="3.5" stroke-width="0" /></g><g class="e3"><circle cx="263" cy="678" fill="#911eb4" r="3.5" stroke-width="0" /><circle cx="251" cy="668" fill="#911eb4" r="3.5" stroke-width="0" /><circle cx="294" cy="645" fill="#911eb4" r="3.5" stroke-width="0" /><circle cx="286" cy="640" fill="#911eb4" r="3.5" stroke-width="0" /><circle cx="215" cy="627" fill="#911eb4" r="3.5" stroke-width="0" /><circle cx="301" cy="626" fill="#911eb4" r="3.5" stroke-width="0" /><circle cx="294" cy="625" fill="#911eb4" r="3.5" stroke-width="0" /><circle cx="274" cy="619" fill="#911eb4" r="3.5" stroke-width="0" /><circle cx="280" cy="619" fill="#911eb4" r="3.5" stroke-width="0" /><circle cx="304" cy="617" fill="#911eb4" r="3.5" stroke-width="0" /><circle cx="329" cy="610" fill="#911eb4" r="3.5" stroke-width="0" /><circle cx="285" cy="607" fill="#911eb4" r="3.5" stroke-width="0" /><circle cx="292" cy="607" fill="#911eb4" r="3.5" stroke-width="0" /><circle cx="323" cy="599" fill="#911eb4" r="3.5" stroke-width="0" /><circle cx="297" cy="598" fill="#911eb4" r="3.5" stroke-width="0" /><circle cx="250" cy="593" fill="#911eb4" r="3.5" stroke-width="0" /><circle cx="268" cy="593" fill="#911eb4" r="3.5" stroke-width="0" /><circle cx="307" cy="593" fill="#911eb4" r="3.5" stroke-width="0" /><circle cx="316" cy="593" fill="#911eb4" r="3.5" stroke-width="0" /><circle cx="349" cy="593" fill="#911eb4" r="3.5" stroke-width="0" /><circle cx="311" cy="590" fill="#911eb4" r="3.5" stroke-width="0" /><circle cx="324" cy="588" fill="#911eb4" r="3.5" stroke-width="0" /><circle cx="340" cy="584" fill="#911eb4" r="3.5" stroke-width="0" /><circle cx="333" cy="579" fill="#911eb4" r="3.5" stroke-width="0" /><circle cx="321" cy="577" fill="#911eb4" r="3.5" stroke-width="0" /><circle cx="287" cy="576" fill="#911eb4" r="3.5" stroke-width="0" /><circle cx="297" cy="575" fill="#911eb4" r="3.5" stroke-width="0" /><circle cx="302" cy="574" fill="#911eb4" r="3.5" stroke-width="0" /><circle cx="301" cy="572" fill="#911eb4" r="3.5" stroke-width="0" /><circle cx="277" cy="570" fill="#911eb4" r="3.5" stroke-width="0" /><circle cx="265" cy="569" fill="#911eb4" r="3.5" stroke-width="0" /><circle cx="307" cy="564" fill="#911eb4" r="3.5" stroke-width="0" /><circle cx="310" cy="564" fill="#911eb4" r="3.5" stroke-width="0" /><circle cx="322" cy="564" fill="#911eb4" r="3.5" stroke-width="0" /><circle cx="305" cy="563" fill="#911eb4" r="3.5" stroke-width="0" /><circle cx="317" cy="563" fill="#911eb4" r="3.5" stroke-width="0" /><circle cx="334" cy="559" fill="#911eb4" r="3.5" stroke-width="0" /><circle cx="306" cy="558" fill="#911eb4" r="3.5" stroke-width="0" /><circle cx="341" cy="558" fill="#911eb4" r="3.5" stroke-width="0" /><circle cx="377" cy="555" fill="#911eb4" r="3.5" stroke-width="0" /><circle cx="247" cy="549" fill="#911eb4" r="3.5" stroke-width="0" /><circle cx="316" cy="545" fill="#911eb4" r="3.5" stroke-width="0" /><circle cx="315" cy="543" fill="#911eb4" r="3.5" stroke-width="0" /><circle cx="256" cy="539" fill="#911eb4" r="3.5" stroke-width="0" /><circle cx="365" cy="531" fill="#911eb4" r="3.5" stroke-width="0" /><circle cx="305" cy="527" fill="#911eb4" r="3.5" stroke-width="0" /><circle cx="346" cy="526" fill="#911eb4" r="3.5" stroke-width="0" /><circle cx="293" cy="523" fill="#911eb4" r="3.5" stroke-width="0" /><circle cx="265" cy="521" fill="#911eb4" r="3.5" stroke-width="0" /><circle cx="358" cy="520" fill="#911eb4" r="3.5" stroke-width="0" /><circle cx="318" cy="517" fill="#911eb4" r="3.5" stroke-width="0" /><circle cx="336" cy="516" fill="#911eb4" r="3.5" stroke-width="0" /><circle cx="304" cy="514" fill="#911eb4" r="3.5" stroke-width="0" /><circle cx="316" cy="508" fill="#911eb4" r="3.5" stroke-width="0" /><circle cx="324" cy="508" fill="#911eb4" r="3.5" stroke-width="0" /><circle cx="330" cy="508" fill="#911eb4" r="3.5" stroke-width="0" /><circle cx="331" cy="508" fill="#911eb4" r="3.5" stroke-width="0" /><circle cx="349" cy="508" fill="#911eb4" r="3.5" stroke-width="0" /><circle cx="255" cy="507" fill="#911eb4" r="3.5" stroke-width="0" /><circle cx="281" cy="507" fill="#911eb4" r="3.5" stroke-width="0" /><circle cx="332" cy="507" fill="#911eb4" r="3.5" stroke-width="0" /><circle cx="283" cy="505" fill="#911eb4" r="3.5" stroke-width="0" /><circle cx="278" cy="502" fill="#911eb4" r="3.5" stroke-width="0" /><circle cx="279" cy="501" fill="#911eb4" r="3.5" stroke-width="0" /><circle cx="367" cy="501" fill="#911eb4" r="3.5" stroke-width="0" /><circle cx="328" cy="497" fill="#911eb4" r="3.5" stroke-width="0" /><circle cx="279" cy="492" fill="#911eb4" r="3.5" stroke-width="0" /><circle cx="344" cy="489" fill="#911eb4" r="3.5" stroke-width="0" /><circle cx="265" cy="486" fill="#911eb4" r="3.5" stroke-width="0" /><circle cx="330" cy="483" fill="#911eb4" r="3.5" stroke-width="0" /><circle cx="310" cy="477" fill="#911eb4" r="3.5" stroke-width="0" /><circle cx="335" cy="477" fill="#911eb4" r="3.5" stroke-width="0" /><circle cx="301" cy="470" fill="#911eb4" r="3.5" stroke-width="0" /><circle cx="350" cy="470" fill="#911eb4" r="3.5" stroke-width="0" /><circle cx="306" cy="469" fill="#911eb4" r="3.5" stroke-width="0" /><circle cx="324" cy="469" fill="#911eb4" r="3.5" stroke-width="0" /><circle cx="352" cy="462" fill="#911eb4" r="3.5" stroke-width="0" /><circle cx="316" cy="461" fill="#911eb4" r="3.5" stroke-width="0" /><circle cx="340" cy="458" fill="#911eb4" r="3.5" stroke-width="0" /><circle cx="308" cy="454" fill="#911eb4" r="3.5" stroke-width="0" /><circle cx="283" cy="453" fill="#911eb4" r="3.5" stroke-width="0" /><circle cx="313" cy="453" fill="#911eb4" r="3.5" stroke-width="0" /><circle cx="329" cy="451" fill="#911eb4" r="3.5" stroke-width="0" /><circle cx="359" cy="446" fill="#911eb4" r="3.5" stroke-width="0" /><circle cx="319" cy="445" fill="#911eb4" r="3.5" stroke-width="0" /><circle cx="325" cy="443" fill="#911eb4" r="3.5" stroke-width="0" /><circle cx="352" cy="443" fill="#911eb4" r="3.5" stroke-width="0" /><circle cx="262" cy="442" fill="#911eb4" r="3.5" stroke-width="0" /><circle cx="330" cy="441" fill="#911eb4" r="3.5" stroke-width="0" /><circle cx="383" cy="441" fill="#911eb4" r="3.5" stroke-width="0" /><circle cx="324" cy="439" fill="#911eb4" r="3.5" stroke-width="0" /><circle cx="272" cy="438" fill="#911eb4" r="3.5" stroke-width="0" /><circle cx="316" cy="438" fill="#911eb4" r="3.5" stroke-width="0" /><circle cx="327" cy="437" fill="#911eb4" r="3.5" stroke-width="0" /><circle cx="364" cy="433" fill="#911eb4" r="3.5" stroke-width="0" /><circle cx="307" cy="431" fill="#911eb4" r="3.5" stroke-width="0" /><circle cx="349" cy="431" fill="#911eb4" r="3.5" stroke-width="0" /><circle cx="371" cy="429" fill="#911eb4" r="3.5" stroke-width="0" /><circle cx="313" cy="417" fill="#911eb4" r="3.5" stroke-width="0" /><circle cx="302" cy="416" fill="#911eb4" r="3.5" stroke-width="0" /><circle cx="291" cy="408" fill="#911eb4" r="3.5" stroke-width="0" /><circle cx="332" cy="408" fill="#911eb4" r="3.5" stroke-width="0" /><circle cx="360" cy="404" fill="#911eb4" r="3.5" stroke-width="0" /><circle cx="299" cy="403" fill="#911eb4" r="3.5" stroke-width="0" /><circle cx="305" cy="403" fill="#911eb4" r="3.5" stroke-width="0" /><circle cx="389" cy="399" fill="#911eb4" r="3.5" stroke-width="0" /><circle cx="299" cy="396" fill="#911eb4" r="3.5" stroke-width="0" /><circle cx="324" cy="388" fill="#911eb4" r="3.5" stroke-width="0" /><circle cx="351" cy="386" fill="#911eb4" r="3.5" stroke-width="0" /><circle cx="283" cy="385" fill="#911eb4" r="3.5" stroke-width="0" /><circle cx="297" cy="378" fill="#911eb4" r="3.5" stroke-width="0" /><circle cx="344" cy="376" fill="#911eb4" r="3.5" stroke-width="0" /><circle cx="284" cy="374" fill="#911eb4" r="3.5" stroke-width="0" /><circle cx="311" cy="374" fill="#911eb4" r="3.5" stroke-width="0" /><circle cx="291" cy="369" fill="#911eb4" r="3.5" stroke-width="0" /><circle cx="315" cy="366" fill="#911eb4" r="3.5" stroke-width="0" /><circle cx="307" cy="364" fill="#911eb4" r="3.5" stroke-width="0" /><circle cx="237" cy="363" fill="#911eb4" r="3.5" stroke-width="0" /><circle cx="288" cy="362" fill="#911eb4" r="3.5" stroke-width="0" /><circle cx="301" cy="353" fill="#911eb4" r="3.5" stroke-width="0" /><circle cx="312" cy="351" fill="#911eb4" r="3.5" stroke-width="0" /><circle cx="313" cy="350" fill="#911eb4" r="3.5" stroke-width="0" /><circle cx="332" cy="349" fill="#911eb4" r="3.5" stroke-width="0" /><circle cx="287" cy="347" fill="#911eb4" r="3.5" stroke-width="0" /><circle cx="323" cy="347" fill="#911eb4" r="3.5" stroke-width="0" /><circle cx="306" cy="345" fill="#911eb4" r="3.5" stroke-width="0" /><circle cx="333" cy="341" fill="#911eb4" r="3.5" stroke-width="0" /><circle cx="295" cy="325" fill="#911eb4" r="3.5" stroke-width="0" /><circle cx="337" cy="318" fill="#911eb4" r="3.5" stroke-width="0" /><circle cx="312" cy="317" fill="#911eb4" r="3.5" stroke-width="0" /><circle cx="315" cy="317" fill="#911eb4" r="3.5" stroke-width="0" /><circle cx="325" cy="308" fill="#911eb4" r="3.5" stroke-width="0" /><circle cx="358" cy="295" fill="#911eb4" r="3.5" stroke-width="0" /><circle cx="281" cy="288" fill="#911eb4" r="3.5" stroke-width="0" /><circle cx="314" cy="287" fill="#911eb4" r="3.5" stroke-width="0" /><circle cx="336" cy="285" fill="#911eb4" r="3.5" stroke-width="0" /><circle cx="322" cy="284" fill="#911eb4" r="3.5" stroke-width="0" /><circle cx="297" cy="278" fill="#911eb4" r="3.5" stroke-width="0" /><circle cx="286" cy="275" fill="#911eb4" r="3.5" stroke-width="0" /><circle cx="322" cy="274" fill="#911eb4" r="3.5" stroke-width="0" /><circle cx="306" cy="269" fill="#911eb4" r="3.5" stroke-width="0" /><circle cx="296" cy="258" fill="#911eb4" r="3.5" stroke-width="0" /><circle cx="343" cy="258" fill="#911eb4" r="3.5" stroke-width="0" /><circle cx="323" cy="251" fill="#911eb4" r="3.5" stroke-width="0" /><circle cx="366" cy="230" fill="#911eb4" r="3.5" stroke-width="0" /><circle cx="361" cy="216" fill="#911eb4" r="3.5" stroke-width="0" /><circle cx="358" cy="212" fill="#911eb4" r="3.5" stroke-width="0" /><circle cx="798" cy="145" fill="#911eb4" r="3.5" stroke-width="0" /><circle cx="774" cy="139" fill="#911eb4" r="3.5" stroke-width="0" /><circle cx="798" cy="108" fill="#911eb4" r="3.5" stroke-width="0" /><circle cx="786" cy="104" fill="#911eb4" r="3.5" stroke-width="0" /><circle cx="823" cy="101" fill="#911eb4" r="3.5" stroke-width="0" /></g><g class="e4"><circle cx="283" cy="251" fill="#3cb44B" r="3.5" stroke-width="0" /><circle cx="264" cy="238" fill="#3cb44B" r="3.5" stroke-width="0" /><circle cx="301" cy="235" fill="#3cb44B" r="3.5" stroke-width="0" /><circle cx="288" cy="223" fill="#3cb44B" r="3.5" stroke-width="0" /><circle cx="326" cy="211" fill="#3cb44B" r="3.5" stroke-width="0" /><circle cx="273" cy="210" fill="#3cb44B" r="3.5" stroke-width="0" /><circle cx="236" cy="209" fill="#3cb44B" r="3.5" stroke-width="0" /><circle cx="332" cy="196" fill="#3cb44B" r="3.5" stroke-width="0" /><circle cx="300" cy="193" fill="#3cb44B" r="3.5" stroke-width="0" /><circle cx="346" cy="191" fill="#3cb44B" r="3.5" stroke-width="0" /><circle cx="307" cy="190" fill="#3cb44B" r="3.5" stroke-width="0" /><circle cx="323" cy="189" fill="#3cb44B" r="3.5" stroke-width="0" /><circle cx="354" cy="189" fill="#3cb44B" r="3.5" stroke-width="0" /><circle cx="278" cy="174" fill="#3cb44B" r="3.5" stroke-width="0" /><circle cx="293" cy="174" fill="#3cb44B" r="3.5" stroke-width="0" /><circle cx="356" cy="161" fill="#3cb44B" r="3.5" stroke-width="0" /><circle cx="281" cy="160" fill="#3cb44B" r="3.5" stroke-width="0" /><circle cx="369" cy="151" fill="#3cb44B" r="3.5" stroke-width="0" /><circle cx="286" cy="133" fill="#3cb44B" r="3.5" stroke-width="0" /><circle cx="369" cy="116" fill="#3cb44B" r="3.5" stroke-width="0" /><circle cx="301" cy="110" fill="#3cb44B" r="3.5" stroke-width="0" /><circle cx="340" cy="106" fill="#3cb44B" r="3.5" stroke-width="0" /><circle cx="363" cy="93" fill="#3cb44B" r="3.5" stroke-width="0" /><circle cx="305" cy="89" fill="#3cb44B" r="3.5" stroke-width="0" /><circle cx="371" cy="86" fill="#3cb44B" r="3.5" stroke-width="0" /></g></g></g></svg>