<?xml version="1.0" encoding="utf-8" ?>
<svg baseProfile="full" height="1140px" style="font-size:15;font-family:Arial, san-serif;font-weight:bold;stroke:black;stroke-width:0;fill:#444444" version="1.1" width="1140px" xmlns="http://www.w3.org/2000/svg" xmlns:ev="http://www.w3.org/2001/xml-events" xmlns:xlink="http://www.w3.org/1999/xlink"><defs><clipPath id="areadografico"><rect height="1000" width="1000" x="70" y="70" /></clipPath></defs><g class="master"><g class="poligonos"><polygon clip-path="url(#areadografico)" fill="#000000" fill-opacity="0.1" points="1069,1070 1069,890 890,1070" /><polygon clip-path="url(#areadografico)" fill="#ffffff" fill-opacity="0.1" points="890,1070 709,1070 1069,709 1069,890" /><polygon clip-path="url(#areadografico)" fill="#000000" fill-opacity="0.1" points="709,1070 528,1070 1069,528 1069,709" /><polygon clip-path="url(#areadografico)" fill="#ffffff" fill-opacity="0.1" points="528,1070 347,1070 1069,347 1069,528" /><polygon clip-path="url(#areadografico)" fill="#000000" fill-opacity="0.1" points="347,1070 166,1070 1069,166 1069,347" /><polygon clip-path="url(#areadografico)" fill="#ffffff" fill-opacity="0.1" points="166,1070 -15,1070 1069,-15 1069,166" /><polygon clip-path="url(#areadografico)" fill="#000000" fill-opacity="0.1" points="-15,1070 -196,1070 1069,-196 1069,-15" /><polygon clip-path="url(#areadografico)" fill="#ffffff" fill-opacity="0.1" points="-196,1070 -377,1070 1069,-377 1069,-196" /><polygon clip-path="url(#areadografico)" fill="#000000" fill-opacity="0.1" points="-377,1070 -558,1070 1069,-558 1069,-377" /><polygon clip-path="url(#areadografico)" fill="#ffffff" fill-opacity="0.1" points="-558,1070 -739,1070 1069,-739 1069,-558" /><polygon clip-path="url(#areadografico)" fill="#000000" fill-opacity="0.1" points="70,70 70,260 260,70" /></g><g class="linhas"><line fill-opacity="0.3" stroke="#999999" stroke-width="1" x1="1070" x2="1070" y1="1070" y2="70" /><line fill-opacity="0.3" stroke="#999999" stroke-width="1" x1="70" x2="1070" y1="70" y2="70" /><line fill-opacity="0.3" stroke="#999999" stroke-width="1" x1="970" x2="970" y1="1070" y2="70" /><line fill-opacity="0.3" stroke="#999999" stroke-width="1" x1="70" x2="1070" y1="170" y2="170" /><line fill-opacity="0.3" stroke="#999999" stroke-width="1" x1="870" x2="870" y1="1070" y2="70" /><line fill-opacity="0.3" stroke="#999999" stroke-width="1" x1="70" x2="1070" y1="270" y2="270" /><line fill-opacity="0.3" stroke="#999999" stroke-width="1" x1="770" x2="770" y1="1070" y2="70" /><line fill-opacity="0.3" stroke="#999999" stroke-width="1" x1="70" x2="1070" y1="370" y2="370" /><line fill-opacity="0.3" stroke="#999999" stroke-width="1" x1="670" x2="670" y1="1070" y2="70" /><line fill-opacity="0.3" stroke="#999999" stroke-width="1" x1="70" x2="1070" y1="470" y2="470" /><line fill-opacity="0.3" stroke="#999999" stroke-width="1" x1="570" x2="570" y1="1070" y2="70" /><line fill-opacity="0.3" stroke="#999999" stroke-width="1" x1="70" x2="1070" y1="570" y2="570" /><line fill-opacity="0.3" stroke="#999999" stroke-width="1" x1="470" x2="470" y1="1070" y2="70" /><line fill-opacity="0.3" stroke="#999999" stroke-width="1" x1="70" x2="1070" y1="670" y2="670" /><line fill-opacity="0.3" stroke="#999999" stroke-width="1" x1="370" x2="370" y1="1070" y2="70" /><line fill-opacity="0.3" stroke="#999999" stroke-width="1" x1="70" x2="1070" y1="770" y2="770" /><line fill-opacity="0.3" stroke="#999999" stroke-width="1" x1="270" x2="270" y1="1070" y2="70" /><line fill-opacity="0.3" stroke="#999999" stroke-width="1" x1="70" x2="1070" y1="870" y2="870" /><line fill-opacity="0.3" stroke="#999999" stroke-width="1" x1="170" x2="170" y1="1070" y2="70" /><line fill-opacity="0.3" stroke="#999999" stroke-width="1" x1="70" x2="1070" y1="970" y2="970" /><line fill-opacity="0.3" stroke="#000000" stroke-width="1" x1="70" x2="70" y1="1071" y2="69" /><line fill-opacity="0.3" stroke="#000000" stroke-width="1" x1="69" x2="1071" y1="1070" y2="1070" /></g><g class="textos"><text x="1050" y="1110">1000</text><text x="10" y="71">1000</text><text x="950" y="1110">900</text><text x="10" y="171">900</text><text x="850" y="1110">800</text><text x="10" y="271">800</text><text x="750" y="1110">700</text><text x="10" y="371">700</text><text x="650" y="1110">600</text><text x="10" y="471">600</text><text x="550" y="1110">500</text><text x="10" y="571">500</text><text x="450" y="1110">400</text><text x="10" y="671">400</text><text x="350" y="1110">300</text><text x="10" y="771">300</text><text x="250" y="1110">200</text><text x="10" y="871">200</text><text x="150" y="1110">100</text><text x="10" y="971">100</text><text x="50" y="1111">0</text><text x="9" y="1071">0</text></g><g class="especies"><g class="e0" /><g class="e1"><circle cx="821" cy="1006" fill="#ff0000" r="3.5" stroke-width="0" /><circle cx="797" cy="998" fill="#ff0000" r="3.5" stroke-width="0" /><circle cx="815" cy="970" fill="#ff0000" r="3.5" stroke-width="0" /></g><g class="e2"><circle cx="821" cy="909" fill="#2b92db" r="3.5" stroke-width="0" /><circle cx="804" cy="902" fill="#2b92db" r="3.5" stroke-width="0" /><circle cx="773" cy="896" fill="#2b92db" r="3.5" stroke-width="0" /><circle cx="806" cy="892" fill="#2b92db" r="3.5" stroke-width="0" /><circle cx="819" cy="884" fill="#2b92db" r="3.5" stroke-width="0" /><circle cx="808" cy="860" fill="#2b92db" r="3.5" stroke-width="0" /><circle cx="798" cy="854" fill="#2b92db" r="3.5" stroke-width="0" /><circle cx="826" cy="848" fill="#2b92db" r="3.5" stroke-width="0" /><circle cx="784" cy="844" fill="#2b92db" r="3.5" stroke-width="0" /><circle cx="822" cy="828" fill="#2b92db" r="3.5" stroke-width="0" /><circle cx="834" cy="821" fill="#2b92db" r="3.5" stroke-width="0" /><circle cx="813" cy="814" fill="#2b92db" r="3.5" stroke-width="0" /><circle cx="802" cy="802" fill="#2b92db" r="3.5" stroke-width="0" /><circle cx="826" cy="792" fill="#2b92db" r="3.5" stroke-width="0" /><circle cx="829" cy="789" fill="#2b92db" r="3.5" stroke-width="0" /><circle cx="869" cy="789" fill="#2b92db" r="3.5" stroke-width="0" /><circle cx="847" cy="788" fill="#2b92db" r="3.5" stroke-width="0" /><circle cx="851" cy="773" fill="#2b92db" r="3.5" stroke-width="0" /><circle cx="841" cy="772" fill="#2b92db" r="3.5" stroke-width="0" /></g><g class="e3"><circle cx="790" cy="805" fill="#911eb4" r="3.5" stroke-width="0" /><circle cx="771" cy="803" fill="#911eb4" r="3.5" stroke-width="0" /><circle cx="755" cy="800" fill="#911eb4" r="3.5" stroke-width="0" /><circle cx="783" cy="792" fill="#911eb4" r="3.5" stroke-width="0" /><circle cx="781" cy="769" fill="#911eb4" r="3.5" stroke-width="0" /><circle cx="801" cy="763" fill="#911eb4" r="3.5" stroke-width="0" /><circle cx="810" cy="763" fill="#911eb4" r="3.5" stroke-width="0" /><circle cx="818" cy="760" fill="#911eb4" r="3.5" stroke-width="0" /><circle cx="798" cy="755" fill="#911eb4" r="3.5" stroke-width="0" /><circle cx="844" cy="749" fill="#911eb4" r="3.5" stroke-width="0" /><circle cx="808" cy="742" fill="#911eb4" r="3.5" stroke-width="0" /><circle cx="825" cy="742" fill="#911eb4" r="3.5" stroke-width="0" /><circle cx="787" cy="738" fill="#911eb4" r="3.5" stroke-width="0" /><circle cx="785" cy="737" fill="#911eb4" r="3.5" stroke-width="0" /><circle cx="791" cy="732" fill="#911eb4" r="3.5" stroke-width="0" /><circle cx="859" cy="723" fill="#911eb4" r="3.5" stroke-width="0" /><circle cx="811" cy="714" fill="#911eb4" r="3.5" stroke-width="0" /><circle cx="820" cy="712" fill="#911eb4" r="3.5" stroke-width="0" /><circle cx="793" cy="711" fill="#911eb4" r="3.5" stroke-width="0" /><circle cx="847" cy="708" fill="#911eb4" r="3.5" stroke-width="0" /><circle cx="875" cy="706" fill="#911eb4" r="3.5" stroke-width="0" /><circle cx="836" cy="705" fill="#911eb4" r="3.5" stroke-width="0" /><circle cx="861" cy="702" fill="#911eb4" r="3.5" stroke-width="0" /><circle cx="818" cy="699" fill="#911eb4" r="3.5" stroke-width="0" /><circle cx="795" cy="698" fill="#911eb4" r="3.5" stroke-width="0" /><circle cx="834" cy="697" fill="#911eb4" r="3.5" stroke-width="0" /><circle cx="776" cy="694" fill="#911eb4" r="3.5" stroke-width="0" /><circle cx="855" cy="692" fill="#911eb4" r="3.5" stroke-width="0" /><circle cx="843" cy="691" fill="#911eb4" r="3.5" stroke-width="0" /><circle cx="864" cy="683" fill="#911eb4" r="3.5" stroke-width="0" /><circle cx="782" cy="682" fill="#911eb4" r="3.5" stroke-width="0" /><circle cx="793" cy="682" fill="#911eb4" r="3.5" stroke-width="0" /><circle cx="794" cy="681" fill="#911eb4" r="3.5" stroke-width="0" /><circle cx="814" cy="680" fill="#911eb4" r="3.5" stroke-width="0" /><circle cx="829" cy="677" fill="#911eb4" r="3.5" stroke-width="0" /><circle cx="821" cy="673" fill="#911eb4" r="3.5" stroke-width="0" /><circle cx="852" cy="673" fill="#911eb4" r="3.5" stroke-width="0" /><circle cx="844" cy="671" fill="#911eb4" r="3.5" stroke-width="0" /><circle cx="826" cy="669" fill="#911eb4" r="3.5" stroke-width="0" /><circle cx="842" cy="669" fill="#911eb4" r="3.5" stroke-width="0" /><circle cx="808" cy="668" fill="#911eb4" r="3.5" stroke-width="0" /><circle cx="810" cy="666" fill="#911eb4" r="3.5" stroke-width="0" /><circle cx="821" cy="660" fill="#911eb4" r="3.5" stroke-width="0" /><circle cx="817" cy="659" fill="#911eb4" r="3.5" stroke-width="0" /><circle cx="846" cy="656" fill="#911eb4" r="3.5" stroke-width="0" /><circle cx="780" cy="655" fill="#911eb4" r="3.5" stroke-width="0" /><circle cx="839" cy="655" fill="#911eb4" r="3.5" stroke-width="0" /><circle cx="860" cy="654" fill="#911eb4" r="3.5" stroke-width="0" /><circle cx="787" cy="649" fill="#911eb4" r="3.5" stroke-width="0" /><circle cx="818" cy="649" fill="#911eb4" r="3.5" stroke-width="0" /><circle cx="840" cy="647" fill="#911eb4" r="3.5" stroke-width="0" /><circle cx="798" cy="644" fill="#911eb4" r="3.5" stroke-width="0" /><circle cx="824" cy="642" fill="#911eb4" r="3.5" stroke-width="0" /><circle cx="871" cy="640" fill="#911eb4" r="3.5" stroke-width="0" /><circle cx="834" cy="637" fill="#911eb4" r="3.5" stroke-width="0" /><circle cx="803" cy="636" fill="#911eb4" r="3.5" stroke-width="0" /><circle cx="851" cy="635" fill="#911eb4" r="3.5" stroke-width="0" /><circle cx="804" cy="633" fill="#911eb4" r="3.5" stroke-width="0" /><circle cx="826" cy="633" fill="#911eb4" r="3.5" stroke-width="0" /><circle cx="847" cy="625" fill="#911eb4" r="3.5" stroke-width="0" /><circle cx="823" cy="619" fill="#911eb4" r="3.5" stroke-width="0" /><circle cx="814" cy="606" fill="#911eb4" r="3.5" stroke-width="0" /><circle cx="848" cy="604" fill="#911eb4" r="3.5" stroke-width="0" /><circle cx="851" cy="572" fill="#911eb4" r="3.5" stroke-width="0" /></g><g class="e4"><circle cx="328" cy="931" fill="#3cb44B" r="3.5" stroke-width="0" /><circle cx="359" cy="920" fill="#3cb44B" r="3.5" stroke-width="0" /><circle cx="378" cy="861" fill="#3cb44B" r="3.5" stroke-width="0" /><circle cx="780" cy="599" fill="#3cb44B" r="3.5" stroke-width="0" /><circle cx="800" cy="593" fill="#3cb44B" r="3.5" stroke-width="0" /><circle cx="784" cy="587" fill="#3cb44B" r="3.5" stroke-width="0" /><circle cx="775" cy="582" fill="#3cb44B" r="3.5" stroke-width="0" /><circle cx="815" cy="581" fill="#3cb44B" r="3.5" stroke-width="0" /><circle cx="774" cy="579" fill="#3cb44B" r="3.5" stroke-width="0" /><circle cx="793" cy="576" fill="#3cb44B" r="3.5" stroke-width="0" /><circle cx="782" cy="572" fill="#3cb44B" r="3.5" stroke-width="0" /><circle cx="814" cy="571" fill="#3cb44B" r="3.5" stroke-width="0" /><circle cx="838" cy="569" fill="#3cb44B" r="3.5" stroke-width="0" /><circle cx="820" cy="564" fill="#3cb44B" r="3.5" stroke-width="0" /><circle cx="833" cy="559" fill="#3cb44B" r="3.5" stroke-width="0" /><circle cx="809" cy="557" fill="#3cb44B" r="3.5" stroke-width="0" /><circle cx="791" cy="556" fill="#3cb44B" r="3.5" stroke-width="0" /><circle cx="833" cy="555" fill="#3cb44B" r="3.5" stroke-width="0" /><circle cx="829" cy="554" fill="#3cb44B" r="3.5" stroke-width="0" /><circle cx="828" cy="551" fill="#3cb44B" r="3.5" stroke-width="0" /><circle cx="836" cy="546" fill="#3cb44B" r="3.5" stroke-width="0" /><circle cx="827" cy="543" fill="#3cb44B" r="3.5" stroke-width="0" /><circle cx="813" cy="541" fill="#3cb44B" r="3.5" stroke-width="0" /><circle cx="850" cy="540" fill="#3cb44B" r="3.5" stroke-width="0" /><circle cx="767" cy="536" fill="#3cb44B" r="3.5" stroke-width="0" /><circle cx="816" cy="535" fill="#3cb44B" r="3.5" stroke-width="0" /><circle cx="799" cy="531" fill="#3cb44B" r="3.5" stroke-width="0" /><circle cx="847" cy="529" fill="#3cb44B" r="3.5" stroke-width="0" /><circle cx="865" cy="529" fill="#3cb44B" r="3.5" stroke-width="0" /><circle cx="804" cy="527" fill="#3cb44B" r="3.5" stroke-width="0" /><circle cx="829" cy="522" fill="#3cb44B" r="3.5" stroke-width="0" /><circle cx="830" cy="522" fill="#3cb44B" r="3.5" stroke-width="0" /><circle cx="779" cy="521" fill="#3cb44B" r="3.5" stroke-width="0" /><circle cx="809" cy="521" fill="#3cb44B" r="3.5" stroke-width="0" /><circle cx="819" cy="520" fill="#3cb44B" r="3.5" stroke-width="0" /><circle cx="802" cy="519" fill="#3cb44B" r="3.5" stroke-width="0" /><circle cx="864" cy="518" fill="#3cb44B" r="3.5" stroke-width="0" /><circle cx="825" cy="517" fill="#3cb44B" r="3.5" stroke-width="0" /><circle cx="786" cy="509" fill="#3cb44B" r="3.5" stroke-width="0" /><circle cx="821" cy="509" fill="#3cb44B" r="3.5" stroke-width="0" /><circle cx="829" cy="509" fill="#3cb44B" r="3.5" stroke-width="0" /><circle cx="848" cy="501" fill="#3cb44B" r="3.5" stroke-width="0" /><circle cx="837" cy="497" fill="#3cb44B" r="3.5" stroke-width="0" /><circle cx="796" cy="495" fill="#3cb44B" r="3.5" stroke-width="0" /><circle cx="819" cy="495" fill="#3cb44B" r="3.5" stroke-width="0" /><circle cx="813" cy="493" fill="#3cb44B" r="3.5" stroke-width="0" /><circle cx="811" cy="491" fill="#3cb44B" r="3.5" stroke-width="0" /><circle cx="810" cy="489" fill="#3cb44B" r="3.5" stroke-width="0" /><circle cx="775" cy="487" fill="#3cb44B" r="3.5" stroke-width="0" /><circle cx="772" cy="486" fill="#3cb44B" r="3.5" stroke-width="0" /><circle cx="832" cy="469" fill="#3cb44B" r="3.5" stroke-width="0" /><circle cx="811" cy="466" fill="#3cb44B" r="3.5" stroke-width="0" /><circle cx="799" cy="464" fill="#3cb44B" r="3.5" stroke-width="0" /><circle cx="862" cy="459" fill="#3cb44B" r="3.5" stroke-width="0" /><circle cx="819" cy="456" fill="#3cb44B" r="3.5" stroke-width="0" /><circle cx="866" cy="455" fill="#3cb44B" r="3.5" stroke-width="0" /><circle cx="797" cy="454" fill="#3cb44B" r="3.5" stroke-width="0" /><circle cx="797" cy="454" fill="#3cb44B" r="3.5" stroke-width="0" /><circle cx="812" cy="453" fill="#3cb44B" r="3.5" stroke-width="0" /><circle cx="824" cy="453" fill="#3cb44B" r="3.5" stroke-width="0" /><circle cx="834" cy="453" fill="#3cb44B" r="3.5" stroke-width="0" /><circle cx="805" cy="452" fill="#3cb44B" r="3.5" stroke-width="0" /><circle cx="803" cy="446" fill="#3cb44B" r="3.5" stroke-width="0" /><circle cx="818" cy="446" fill="#3cb44B" r="3.5" stroke-width="0" /><circle cx="819" cy="446" fill="#3cb44B" r="3.5" stroke-width="0" /><circle cx="800" cy="444" fill="#3cb44B" r="3.5" stroke-width="0" /><circle cx="820" cy="443" fill="#3cb44B" r="3.5" stroke-width="0" /><circle cx="828" cy="443" fill="#3cb44B" r="3.5" stroke-width="0" /><circle cx="807" cy="439" fill="#3cb44B" r="3.5" stroke-width="0" /><circle cx="834" cy="437" fill="#3cb44B" r="3.5" stroke-width="0" /><circle cx="861" cy="437" fill="#3cb44B" r="3.5" stroke-width="0" /><circle cx="808" cy="430" fill="#3cb44B" r="3.5" stroke-width="0" /><circle cx="868" cy="427" fill="#3cb44B" r="3.5" stroke-width="0" /><circle cx="844" cy="415" fill="#3cb44B" r="3.5" stroke-width="0" /><circle cx="830" cy="414" fill="#3cb44B" r="3.5" stroke-width="0" /><circle cx="866" cy="411" fill="#3cb44B" r="3.5" stroke-width="0" /><circle cx="854" cy="402" fill="#3cb44B" r="3.5" stroke-width="0" /><circle cx="850" cy="389" fill="#3cb44B" r="3.5" stroke-width="0" /><circle cx="864" cy="383" fill="#3cb44B" r="3.5" stroke-width="0" /></g><g class="e5"><circle cx="290" cy="923" fill="#ff0000" r="3.5" stroke-width="0" /><circle cx="284" cy="917" fill="#ff0000" r="3.5" stroke-width="0" /><circle cx="324" cy="899" fill="#ff0000" r="3.5" stroke-width="0" /><circle cx="301" cy="887" fill="#ff0000" r="3.5" stroke-width="0" /><circle cx="303" cy="876" fill="#ff0000" r="3.5" stroke-width="0" /><circle cx="336" cy="874" fill="#ff0000" r="3.5" stroke-width="0" /><circle cx="323" cy="866" fill="#ff0000" r="3.5" stroke-width="0" /><circle cx="350" cy="862" fill="#ff0000" r="3.5" stroke-width="0" /><circle cx="343" cy="835" fill="#ff0000" r="3.5" stroke-width="0" /><circle cx="316" cy="823" fill="#ff0000" r="3.5" stroke-width="0" /><circle cx="337" cy="817" fill="#ff0000" r="3.5" stroke-width="0" /><circle cx="259" cy="814" fill="#ff0000" r="3.5" stroke-width="0" /><circle cx="292" cy="813" fill="#ff0000" r="3.5" stroke-width="0" /><circle cx="328" cy="812" fill="#ff0000" r="3.5" stroke-width="0" /><circle cx="303" cy="811" fill="#ff0000" r="3.5" stroke-width="0" /><circle cx="299" cy="800" fill="#ff0000" r="3.5" stroke-width="0" /><circle cx="334" cy="799" fill="#ff0000" r="3.5" stroke-width="0" /><circle cx="333" cy="794" fill="#ff0000" r="3.5" stroke-width="0" /><circle cx="272" cy="793" fill="#ff0000" r="3.5" stroke-width="0" /><circle cx="351" cy="786" fill="#ff0000" r="3.5" stroke-width="0" /><circle cx="346" cy="783" fill="#ff0000" r="3.5" stroke-width="0" /><circle cx="290" cy="782" fill="#ff0000" r="3.5" stroke-width="0" /><circle cx="355" cy="778" fill="#ff0000" r="3.5" stroke-width="0" /><circle cx="283" cy="775" fill="#ff0000" r="3.5" stroke-width="0" /><circle cx="323" cy="769" fill="#ff0000" r="3.5" stroke-width="0" /><circle cx="344" cy="757" fill="#ff0000" r="3.5" stroke-width="0" /><circle cx="341" cy="749" fill="#ff0000" r="3.5" stroke-width="0" /><circle cx="331" cy="737" fill="#ff0000" r="3.5" stroke-width="0" /><circle cx="331" cy="737" fill="#ff0000" r="3.5" stroke-width="0" /><circle cx="330" cy="729" fill="#ff0000" r="3.5" stroke-width="0" /><circle cx="330" cy="725" fill="#ff0000" r="3.5" stroke-width="0" /><circle cx="375" cy="681" fill="#ff0000" r="3.5" stroke-width="0" /><circle cx="797" cy="424" fill="#ff0000" r="3.5" stroke-width="0" /><circle cx="796" cy="422" fill="#ff0000" r="3.5" stroke-width="0" /><circle cx="813" cy="412" fill="#ff0000" r="3.5" stroke-width="0" /><circle cx="824" cy="409" fill="#ff0000" r="3.5" stroke-width="0" /><circle cx="798" cy="403" fill="#ff0000" r="3.5" stroke-width="0" /><circle cx="794" cy="399" fill="#ff0000" r="3.5" stroke-width="0" /><circle cx="816" cy="398" fill="#ff0000" r="3.5" stroke-width="0" /><circle cx="808" cy="383" fill="#ff0000" r="3.5" stroke-width="0" /><circle cx="792" cy="380" fill="#ff0000" r="3.5" stroke-width="0" /><circle cx="800" cy="379" fill="#ff0000" r="3.5" stroke-width="0" /><circle cx="777" cy="375" fill="#ff0000" r="3.5" stroke-width="0" /><circle cx="798" cy="370" fill="#ff0000" r="3.5" stroke-width="0" /><circle cx="783" cy="368" fill="#ff0000" r="3.5" stroke-width="0" /><circle cx="798" cy="364" fill="#ff0000" r="3.5" stroke-width="0" /><circle cx="797" cy="361" fill="#ff0000" r="3.5" stroke-width="0" /><circle cx="837" cy="358" fill="#ff0000" r="3.5" stroke-width="0" /><circle cx="819" cy="350" fill="#ff0000" r="3.5" stroke-width="0" /><circle cx="837" cy="348" fill="#ff0000" r="3.5" stroke-width="0" /><circle cx="794" cy="347" fill="#ff0000" r="3.5" stroke-width="0" /><circle cx="786" cy="343" fill="#ff0000" r="3.5" stroke-width="0" /><circle cx="829" cy="341" fill="#ff0000" r="3.5" stroke-width="0" /><circle cx="812" cy="339" fill="#ff0000" r="3.5" stroke-width="0" /><circle cx="822" cy="333" fill="#ff0000" r="3.5" stroke-width="0" /><circle cx="817" cy="320" fill="#ff0000" r="3.5" stroke-width="0" /><circle cx="847" cy="302" fill="#ff0000" r="3.5" stroke-width="0" /><circle cx="796" cy="301" fill="#ff0000" r="3.5" stroke-width="0" /><circle cx="823" cy="299" fill="#ff0000" r="3.5" stroke-width="0" /><circle cx="862" cy="299" fill="#ff0000" r="3.5" stroke-width="0" /><circle cx="782" cy="297" fill="#ff0000" r="3.5" stroke-width="0" /><circle cx="799" cy="289" fill="#ff0000" r="3.5" stroke-width="0" /><circle cx="817" cy="263" fill="#ff0000" r="3.5" stroke-width="0" /><circle cx="836" cy="257" fill="#ff0000" r="3.5" stroke-width="0" /><circle cx="862" cy="243" fill="#ff0000" r="3.5" stroke-width="0" /></g><g class="e6"><circle cx="316" cy="724" fill="#2b92db" r="3.5" stroke-width="0" /><circle cx="294" cy="719" fill="#2b92db" r="3.5" stroke-width="0" /><circle cx="303" cy="719" fill="#2b92db" r="3.5" stroke-width="0" /><circle cx="313" cy="719" fill="#2b92db" r="3.5" stroke-width="0" /><circle cx="334" cy="717" fill="#2b92db" r="3.5" stroke-width="0" /><circle cx="312" cy="703" fill="#2b92db" r="3.5" stroke-width="0" /><circle cx="302" cy="701" fill="#2b92db" r="3.5" stroke-width="0" /><circle cx="337" cy="699" fill="#2b92db" r="3.5" stroke-width="0" /><circle cx="336" cy="698" fill="#2b92db" r="3.5" stroke-width="0" /><circle cx="308" cy="697" fill="#2b92db" r="3.5" stroke-width="0" /><circle cx="303" cy="694" fill="#2b92db" r="3.5" stroke-width="0" /><circle cx="328" cy="691" fill="#2b92db" r="3.5" stroke-width="0" /><circle cx="347" cy="690" fill="#2b92db" r="3.5" stroke-width="0" /><circle cx="313" cy="689" fill="#2b92db" r="3.5" stroke-width="0" /><circle cx="342" cy="684" fill="#2b92db" r="3.5" stroke-width="0" /><circle cx="332" cy="683" fill="#2b92db" r="3.5" stroke-width="0" /><circle cx="321" cy="680" fill="#2b92db" r="3.5" stroke-width="0" /><circle cx="362" cy="673" fill="#2b92db" r="3.5" stroke-width="0" /><circle cx="296" cy="672" fill="#2b92db" r="3.5" stroke-width="0" /><circle cx="338" cy="672" fill="#2b92db" r="3.5" stroke-width="0" /><circle cx="306" cy="671" fill="#2b92db" r="3.5" stroke-width="0" /><circle cx="321" cy="670" fill="#2b92db" r="3.5" stroke-width="0" /><circle cx="308" cy="665" fill="#2b92db" r="3.5" stroke-width="0" /><circle cx="353" cy="663" fill="#2b92db" r="3.5" stroke-width="0" /><circle cx="294" cy="661" fill="#2b92db" r="3.5" stroke-width="0" /><circle cx="324" cy="660" fill="#2b92db" r="3.5" stroke-width="0" /><circle cx="316" cy="658" fill="#2b92db" r="3.5" stroke-width="0" /><circle cx="290" cy="654" fill="#2b92db" r="3.5" stroke-width="0" /><circle cx="304" cy="654" fill="#2b92db" r="3.5" stroke-width="0" /><circle cx="305" cy="654" fill="#2b92db" r="3.5" stroke-width="0" /><circle cx="351" cy="651" fill="#2b92db" r="3.5" stroke-width="0" /><circle cx="324" cy="645" fill="#2b92db" r="3.5" stroke-width="0" /><circle cx="305" cy="644" fill="#2b92db" r="3.5" stroke-width="0" /><circle cx="333" cy="643" fill="#2b92db" r="3.5" stroke-width="0" /><circle cx="309" cy="637" fill="#2b92db" r="3.5" stroke-width="0" /><circle cx="307" cy="635" fill="#2b92db" r="3.5" stroke-width="0" /><circle cx="304" cy="630" fill="#2b92db" r="3.5" stroke-width="0" /><circle cx="336" cy="630" fill="#2b92db" r="3.5" stroke-width="0" /><circle cx="337" cy="630" fill="#2b92db" r="3.5" stroke-width="0" /><circle cx="320" cy="625" fill="#2b92db" r="3.5" stroke-width="0" /><circle cx="339" cy="625" fill="#2b92db" r="3.5" stroke-width="0" /><circle cx="323" cy="624" fill="#2b92db" r="3.5" stroke-width="0" /><circle cx="305" cy="621" fill="#2b92db" r="3.5" stroke-width="0" /><circle cx="310" cy="617" fill="#2b92db" r="3.5" stroke-width="0" /><circle cx="324" cy="614" fill="#2b92db" r="3.5" stroke-width="0" /><circle cx="324" cy="611" fill="#2b92db" r="3.5" stroke-width="0" /><circle cx="314" cy="609" fill="#2b92db" r="3.5" stroke-width="0" /><circle cx="320" cy="609" fill="#2b92db" r="3.5" stroke-width="0" /><circle cx="272" cy="608" fill="#2b92db" r="3.5" stroke-width="0" /><circle cx="293" cy="604" fill="#2b92db" r="3.5" stroke-width="0" /><circle cx="301" cy="604" fill="#2b92db" r="3.5" stroke-width="0" /><circle cx="312" cy="604" fill="#2b92db" r="3.5" stroke-width="0" /><circle cx="341" cy="604" fill="#2b92db" r="3.5" stroke-width="0" /><circle cx="309" cy="600" fill="#2b92db" r="3.5" stroke-width="0" /><circle cx="308" cy="596" fill="#2b92db" r="3.5" stroke-width="0" /><circle cx="353" cy="596" fill="#2b92db" r="3.5" stroke-width="0" /><circle cx="314" cy="595" fill="#2b92db" r="3.5" stroke-width="0" /><circle cx="293" cy="593" fill="#2b92db" r="3.5" stroke-width="0" /><circle cx="326" cy="589" fill="#2b92db" r="3.5" stroke-width="0" /><circle cx="319" cy="586" fill="#2b92db" r="3.5" stroke-width="0" /><circle cx="320" cy="585" fill="#2b92db" r="3.5" stroke-width="0" /><circle cx="335" cy="585" fill="#2b92db" r="3.5" stroke-width="0" /><circle cx="333" cy="577" fill="#2b92db" r="3.5" stroke-width="0" /><circle cx="306" cy="574" fill="#2b92db" r="3.5" stroke-width="0" /><circle cx="340" cy="571" fill="#2b92db" r="3.5" stroke-width="0" /><circle cx="347" cy="559" fill="#2b92db" r="3.5" stroke-width="0" /><circle cx="339" cy="558" fill="#2b92db" r="3.5" stroke-width="0" /><circle cx="355" cy="546" fill="#2b92db" r="3.5" stroke-width="0" /><circle cx="817" cy="221" fill="#2b92db" r="3.5" stroke-width="0" /><circle cx="845" cy="207" fill="#2b92db" r="3.5" stroke-width="0" /><circle cx="832" cy="198" fill="#2b92db" r="3.5" stroke-width="0" /></g><g class="e7"><circle cx="272" cy="570" fill="#911eb4" r="3.5" stroke-width="0" /><circle cx="287" cy="564" fill="#911eb4" r="3.5" stroke-width="0" /><circle cx="306" cy="562" fill="#911eb4" r="3.5" stroke-width="0" /><circle cx="306" cy="560" fill="#911eb4" r="3.5" stroke-width="0" /><circle cx="301" cy="559" fill="#911eb4" r="3.5" stroke-width="0" /><circle cx="305" cy="553" fill="#911eb4" r="3.5" stroke-width="0" /><circle cx="293" cy="551" fill="#911eb4" r="3.5" stroke-width="0" /><circle cx="298" cy="550" fill="#911eb4" r="3.5" stroke-width="0" /><circle cx="313" cy="550" fill="#911eb4" r="3.5" stroke-width="0" /><circle cx="317" cy="548" fill="#911eb4" r="3.5" stroke-width="0" /><circle cx="272" cy="547" fill="#911eb4" r="3.5" stroke-width="0" /><circle cx="319" cy="543" fill="#911eb4" r="3.5" stroke-width="0" /><circle cx="281" cy="536" fill="#911eb4" r="3.5" stroke-width="0" /><circle cx="292" cy="536" fill="#911eb4" r="3.5" stroke-width="0" /><circle cx="301" cy="536" fill="#911eb4" r="3.5" stroke-width="0" /><circle cx="318" cy="535" fill="#911eb4" r="3.5" stroke-width="0" /><circle cx="329" cy="533" fill="#911eb4" r="3.5" stroke-width="0" /><circle cx="292" cy="526" fill="#911eb4" r="3.5" stroke-width="0" /><circle cx="286" cy="524" fill="#911eb4" r="3.5" stroke-width="0" /><circle cx="328" cy="522" fill="#911eb4" r="3.5" stroke-width="0" /><circle cx="317" cy="521" fill="#911eb4" r="3.5" stroke-width="0" /><circle cx="279" cy="517" fill="#911eb4" r="3.5" stroke-width="0" /><circle cx="315" cy="516" fill="#911eb4" r="3.5" stroke-width="0" /><circle cx="320" cy="508" fill="#911eb4" r="3.5" stroke-width="0" /><circle cx="298" cy="506" fill="#911eb4" r="3.5" stroke-width="0" /><circle cx="361" cy="503" fill="#911eb4" r="3.5" stroke-width="0" /><circle cx="297" cy="500" fill="#911eb4" r="3.5" stroke-width="0" /><circle cx="297" cy="498" fill="#911eb4" r="3.5" stroke-width="0" /><circle cx="326" cy="498" fill="#911eb4" r="3.5" stroke-width="0" /><circle cx="316" cy="488" fill="#911eb4" r="3.5" stroke-width="0" /><circle cx="374" cy="487" fill="#911eb4" r="3.5" stroke-width="0" /><circle cx="307" cy="483" fill="#911eb4" r="3.5" stroke-width="0" /><circle cx="323" cy="479" fill="#911eb4" r="3.5" stroke-width="0" /><circle cx="335" cy="471" fill="#911eb4" r="3.5" stroke-width="0" /><circle cx="316" cy="464" fill="#911eb4" r="3.5" stroke-width="0" /><circle cx="340" cy="463" fill="#911eb4" r="3.5" stroke-width="0" /><circle cx="324" cy="457" fill="#911eb4" r="3.5" stroke-width="0" /><circle cx="322" cy="454" fill="#911eb4" r="3.5" stroke-width="0" /><circle cx="284" cy="452" fill="#911eb4" r="3.5" stroke-width="0" /><circle cx="329" cy="452" fill="#911eb4" r="3.5" stroke-width="0" /><circle cx="325" cy="451" fill="#911eb4" r="3.5" stroke-width="0" /><circle cx="333" cy="443" fill="#911eb4" r="3.5" stroke-width="0" /><circle cx="317" cy="441" fill="#911eb4" r="3.5" stroke-width="0" /><circle cx="285" cy="433" fill="#911eb4" r="3.5" stroke-width="0" /><circle cx="352" cy="432" fill="#911eb4" r="3.5" stroke-width="0" /><circle cx="300" cy="431" fill="#911eb4" r="3.5" stroke-width="0" /><circle cx="314" cy="426" fill="#911eb4" r="3.5" stroke-width="0" /><circle cx="271" cy="425" fill="#911eb4" r="3.5" stroke-width="0" /><circle cx="344" cy="423" fill="#911eb4" r="3.5" stroke-width="0" /><circle cx="333" cy="421" fill="#911eb4" r="3.5" stroke-width="0" /><circle cx="313" cy="419" fill="#911eb4" r="3.5" stroke-width="0" /><circle cx="337" cy="415" fill="#911eb4" r="3.5" stroke-width="0" /><circle cx="337" cy="412" fill="#911eb4" r="3.5" stroke-width="0" /><circle cx="288" cy="411" fill="#911eb4" r="3.5" stroke-width="0" /><circle cx="307" cy="408" fill="#911eb4" r="3.5" stroke-width="0" /><circle cx="330" cy="407" fill="#911eb4" r="3.5" stroke-width="0" /><circle cx="314" cy="406" fill="#911eb4" r="3.5" stroke-width="0" /><circle cx="333" cy="404" fill="#911eb4" r="3.5" stroke-width="0" /><circle cx="327" cy="396" fill="#911eb4" r="3.5" stroke-width="0" /><circle cx="324" cy="380" fill="#911eb4" r="3.5" stroke-width="0" /><circle cx="321" cy="375" fill="#911eb4" r="3.5" stroke-width="0" /><circle cx="331" cy="373" fill="#911eb4" r="3.5" stroke-width="0" /></g><g class="e8"><circle cx="282" cy="385" fill="#3cb44B" r="3.5" stroke-width="0" /><circle cx="316" cy="374" fill="#3cb44B" r="3.5" stroke-width="0" /><circle cx="279" cy="372" fill="#3cb44B" r="3.5" stroke-width="0" /><circle cx="308" cy="371" fill="#3cb44B" r="3.5" stroke-width="0" /><circle cx="293" cy="367" fill="#3cb44B" r="3.5" stroke-width="0" /><circle cx="308" cy="363" fill="#3cb44B" r="3.5" stroke-width="0" /><circle cx="311" cy="362" fill="#3cb44B" r="3.5" stroke-width="0" /><circle cx="315" cy="355" fill="#3cb44B" r="3.5" stroke-width="0" /><circle cx="309" cy="350" fill="#3cb44B" r="3.5" stroke-width="0" /><circle cx="308" cy="342" fill="#3cb44B" r="3.5" stroke-width="0" /><circle cx="343" cy="340" fill="#3cb44B" r="3.5" stroke-width="0" /><circle cx="288" cy="337" fill="#3cb44B" r="3.5" stroke-width="0" /><circle cx="304" cy="337" fill="#3cb44B" r="3.5" stroke-width="0" /><circle cx="333" cy="337" fill="#3cb44B" r="3.5" stroke-width="0" /><circle cx="321" cy="335" fill="#3cb44B" r="3.5" stroke-width="0" /><circle cx="294" cy="333" fill="#3cb44B" r="3.5" stroke-width="0" /><circle cx="335" cy="329" fill="#3cb44B" r="3.5" stroke-width="0" /><circle cx="320" cy="317" fill="#3cb44B" r="3.5" stroke-width="0" /><circle cx="308" cy="314" fill="#3cb44B" r="3.5" stroke-width="0" /><circle cx="296" cy="311" fill="#3cb44B" r="3.5" stroke-width="0" /><circle cx="305" cy="311" fill="#3cb44B" r="3.5" stroke-width="0" /><circle cx="284" cy="308" fill="#3cb44B" r="3.5" stroke-width="0" /><circle cx="320" cy="307" fill="#3cb44B" r="3.5" stroke-width="0" /><circle cx="311" cy="304" fill="#3cb44B" r="3.5" stroke-width="0" /><circle cx="305" cy="303" fill="#3cb44B" r="3.5" stroke-width="0" /><circle cx="283" cy="294" fill="#3cb44B" r="3.5" stroke-width="0" /><circle cx="283" cy="294" fill="#3cb44B" r="3.5" stroke-width="0" /><circle cx="367" cy="289" fill="#3cb44B" r="3.5" stroke-width="0" /><circle cx="292" cy="275" fill="#3cb44B" r="3.5" stroke-width="0" /><circle cx="301" cy="259" fill="#3cb44B" r="3.5" stroke-width="0" /><circle cx="301" cy="245" fill="#3cb44B" r="3.5" stroke-width="0" /><circle cx="302" cy="237" fill="#3cb44B" r="3.5" stroke-width="0" /></g><g class="e9"><circle cx="281" cy="170" fill="#ff0000" r="3.5" stroke-width="0" /><circle cx="321" cy="153" fill="#ff0000" r="3.5" stroke-width="0" /></g><g class="e10" /></g></g></svg>