<?xml version="1.0" encoding="utf-8" ?>
<svg baseProfile="full" height="1140px" style="font-size:15;font-family:Arial, san-serif;font-weight:bold;stroke:black;stroke-width:0;fill:#444444" version="1.1" width="1140px" xmlns="http://www.w3.org/2000/svg" xmlns:ev="http://www.w3.org/2001/xml-events" xmlns:xlink="http://www.w3.org/1999/xlink"><defs><clipPath id="areadografico"><rect height="1000" width="1000" x="70" y="70" /></clipPath></defs><g class="master"><g class="poligonos"><polygon clip-path="url(#areadografico)" fill="#000000" fill-opacity="0.1" points="1069,1070 1069,890 890,1070" /><polygon clip-path="url(#areadografico)" fill="#ffffff" fill-opacity="0.1" points="890,1070 709,1070 1069,709 1069,890" /><polygon clip-path="url(#areadografico)" fill="#000000" fill-opacity="0.1" points="709,1070 528,1070 1069,528 1069,709" /><polygon clip-path="url(#areadografico)" fill="#ffffff" fill-opacity="0.1" points="528,1070 347,1070 1069,347 1069,528" /><polygon clip-path="url(#areadografico)" fill="#000000" fill-opacity="0.1" points="347,1070 166,1070 1069,166 1069,347" /><polygon clip-path="url(#areadografico)" fill="#ffffff" fill-opacity="0.1" points="166,1070 -15,1070 1069,-15 1069,166" /><polygon clip-path="url(#areadografico)" fill="#000000" fill-opacity="0.1" points="-15,1070 -196,1070 1069,-196 1069,-15" /><polygon clip-path="url(#areadografico)" fill="#ffffff" fill-opacity="0.1" points="-196,1070 -377,1070 1069,-377 1069,-196" /><polygon clip-path="url(#areadografico)" fill="#000000" fill-opacity="0.1" points="-377,1070 -558,1070 1069,-558 1069,-377" /><polygon clip-path="url(#areadografico)" fill="#ffffff" fill-opacity="0.1" points="-558,1070 -739,1070 1069,-739 1069,-558" /><polygon clip-path="url(#areadografico)" fill="#000000" fill-opacity="0.1" points="70,70 70,260 260,70" /></g><g class="linhas"><line fill-opacity="0.3" stroke="#999999" stroke-width="1" x1="1070" x2="1070" y1="1070" y2="70" /><line fill-opacity="0.3" stroke="#999999" stroke-width="1" x1="70" x2="1070" y1="70" y2="70" /><line fill-opacity="0.3" stroke="#999999" stroke-width="1" x1="970" x2="970" y1="1070" y2="70" /><line fill-opacity="0.3" stroke="#999999" stroke-width="1" x1="70" x2="1070" y1="170" y2="170" /><line fill-opacity="0.3" stroke="#999999" stroke-width="1" x1="870" x2="870" y1="1070" y2="70" /><line fill-opacity="0.3" stroke="#999999" stroke-width="1" x1="70" x2="1070" y1="270" y2="270" /><line fill-opacity="0.3" stroke="#999999" stroke-width="1" x1="770" x2="770" y1="1070" y2="70" /><line fill-opacity="0.3" stroke="#999999" stroke-width="1" x1="70" x2="1070" y1="370" y2="370" /><line fill-opacity="0.3" stroke="#999999" stroke-width="1" x1="670" x2="670" y1="1070" y2="70" /><line fill-opacity="0.3" stroke="#999999" stroke-width="1" x1="70" x2="1070" y1="470" y2="470" /><line fill-opacity="0.3" stroke="#999999" stroke-width="1" x1="570" x2="570" y1="1070" y2="70" /><line fill-opacity="0.3" stroke="#999999" stroke-width="1" x1="70" x2="1070" y1="570" y2="570" /><line fill-opacity="0.3" stroke="#999999" stroke-width="1" x1="470" x2="470" y1="1070" y2="70" /><line fill-opacity="0.3" stroke="#999999" stroke-width="1" x1="70" x2="1070" y1="670" y2="670" /><line fill-opacity="0.3" stroke="#999999" stroke-width="1" x1="370" x2="370" y1="1070" y2="70" /><line fill-opacity="0.3" stroke="#999999" stroke-width="1" x1="70" x2="1070" y1="770" y2="770" /><line fill-opacity="0.3" stroke="#999999" stroke-width="1" x1="270" x2="270" y1="1070" y2="70" /><line fill-opacity="0.3" stroke="#999999" stroke-width="1" x1="70" x2="1070" y1="870" y2="870" /><line fill-opacity="0.3" stroke="#999999" stroke-width="1" x1="170" x2="170" y1="1070" y2="70" /><line fill-opacity="0.3" stroke="#999999" stroke-width="1" x1="70" x2="1070" y1="970" y2="970" /><line fill-opacity="0.3" stroke="#000000" stroke-width="1" x1="70" x2="70" y1="1071" y2="69" /><line fill-opacity="0.3" stroke="#000000" stroke-width="1" x1="69" x2="1071" y1="1070" y2="1070" /></g><g class="textos"><text x="1050" y="1110">1000</text><text x="10" y="71">1000</text><text x="950" y="1110">900</text><text x="10" y="171">900</text><text x="850" y="1110">800</text><text x="10" y="271">800</text><text x="750" y="1110">700</text><text x="10" y="371">700</text><text x="650" y="1110">600</text><text x="10" y="471">600</text><text x="550" y="1110">500</text><text x="10" y="571">500</text><text x="450" y="1110">400</text><text x="10" y="671">400</text><text x="350" y="1110">300</text><text x="10" y="771">300</text><text x="250" y="1110">200</text><text x="10" y="871">200</text><text x="150" y="1110">100</text><text x="10" y="971">100</text><text x="50" y="1111">0</text><text x="9" y="1071">0</text></g><g class="especies"><g class="e0"><circle cx="973" cy="1061" fill="#3cb44B" r="3.5" stroke-width="0" /><circle cx="1020" cy="1034" fill="#3cb44B" r="3.5" stroke-width="0" /><circle cx="995" cy="1017" fill="#3cb44B" r="3.5" stroke-width="0" /><circle cx="1055" cy="1011" fill="#3cb44B" r="3.5" stroke-width="0" /><circle cx="1043" cy="959" fill="#3cb44B" r="3.5" stroke-width="0" /><circle cx="1043" cy="945" fill="#3cb44B" r="3.5" stroke-width="0" /><circle cx="1061" cy="940" fill="#3cb44B" r="3.5" stroke-width="0" /></g><g class="e1"><circle cx="742" cy="1066" fill="#ff0000" r="3.5" stroke-width="0" /><circle cx="794" cy="1062" fill="#ff0000" r="3.5" stroke-width="0" /><circle cx="763" cy="1054" fill="#ff0000" r="3.5" stroke-width="0" /><circle cx="847" cy="1045" fill="#ff0000" r="3.5" stroke-width="0" /><circle cx="801" cy="1031" fill="#ff0000" r="3.5" stroke-width="0" /><circle cx="831" cy="1022" fill="#ff0000" r="3.5" stroke-width="0" /><circle cx="873" cy="1017" fill="#ff0000" r="3.5" stroke-width="0" /><circle cx="804" cy="1015" fill="#ff0000" r="3.5" stroke-width="0" /><circle cx="866" cy="1009" fill="#ff0000" r="3.5" stroke-width="0" /><circle cx="908" cy="1009" fill="#ff0000" r="3.5" stroke-width="0" /><circle cx="806" cy="994" fill="#ff0000" r="3.5" stroke-width="0" /><circle cx="937" cy="991" fill="#ff0000" r="3.5" stroke-width="0" /><circle cx="955" cy="987" fill="#ff0000" r="3.5" stroke-width="0" /><circle cx="921" cy="980" fill="#ff0000" r="3.5" stroke-width="0" /><circle cx="960" cy="969" fill="#ff0000" r="3.5" stroke-width="0" /><circle cx="968" cy="966" fill="#ff0000" r="3.5" stroke-width="0" /><circle cx="1003" cy="952" fill="#ff0000" r="3.5" stroke-width="0" /><circle cx="955" cy="947" fill="#ff0000" r="3.5" stroke-width="0" /><circle cx="1005" cy="946" fill="#ff0000" r="3.5" stroke-width="0" /><circle cx="997" cy="926" fill="#ff0000" r="3.5" stroke-width="0" /><circle cx="909" cy="915" fill="#ff0000" r="3.5" stroke-width="0" /><circle cx="1026" cy="913" fill="#ff0000" r="3.5" stroke-width="0" /><circle cx="940" cy="893" fill="#ff0000" r="3.5" stroke-width="0" /><circle cx="998" cy="891" fill="#ff0000" r="3.5" stroke-width="0" /><circle cx="920" cy="884" fill="#ff0000" r="3.5" stroke-width="0" /><circle cx="966" cy="873" fill="#ff0000" r="3.5" stroke-width="0" /><circle cx="1036" cy="869" fill="#ff0000" r="3.5" stroke-width="0" /><circle cx="949" cy="866" fill="#ff0000" r="3.5" stroke-width="0" /><circle cx="926" cy="863" fill="#ff0000" r="3.5" stroke-width="0" /><circle cx="1066" cy="862" fill="#ff0000" r="3.5" stroke-width="0" /><circle cx="1031" cy="839" fill="#ff0000" r="3.5" stroke-width="0" /><circle cx="995" cy="820" fill="#ff0000" r="3.5" stroke-width="0" /><circle cx="1021" cy="819" fill="#ff0000" r="3.5" stroke-width="0" /><circle cx="1058" cy="792" fill="#ff0000" r="3.5" stroke-width="0" /><circle cx="1053" cy="747" fill="#ff0000" r="3.5" stroke-width="0" /><circle cx="1061" cy="718" fill="#ff0000" r="3.5" stroke-width="0" /></g><g class="e2"><circle cx="606" cy="1069" fill="#2b92db" r="3.5" stroke-width="0" /><circle cx="689" cy="1065" fill="#2b92db" r="3.5" stroke-width="0" /><circle cx="709" cy="1065" fill="#2b92db" r="3.5" stroke-width="0" /><circle cx="631" cy="1024" fill="#2b92db" r="3.5" stroke-width="0" /><circle cx="661" cy="1019" fill="#2b92db" r="3.5" stroke-width="0" /><circle cx="696" cy="1010" fill="#2b92db" r="3.5" stroke-width="0" /><circle cx="688" cy="1007" fill="#2b92db" r="3.5" stroke-width="0" /><circle cx="631" cy="999" fill="#2b92db" r="3.5" stroke-width="0" /><circle cx="642" cy="997" fill="#2b92db" r="3.5" stroke-width="0" /><circle cx="755" cy="997" fill="#2b92db" r="3.5" stroke-width="0" /><circle cx="742" cy="986" fill="#2b92db" r="3.5" stroke-width="0" /><circle cx="640" cy="981" fill="#2b92db" r="3.5" stroke-width="0" /><circle cx="708" cy="943" fill="#2b92db" r="3.5" stroke-width="0" /><circle cx="723" cy="941" fill="#2b92db" r="3.5" stroke-width="0" /><circle cx="723" cy="940" fill="#2b92db" r="3.5" stroke-width="0" /><circle cx="697" cy="929" fill="#2b92db" r="3.5" stroke-width="0" /><circle cx="762" cy="928" fill="#2b92db" r="3.5" stroke-width="0" /><circle cx="868" cy="883" fill="#2b92db" r="3.5" stroke-width="0" /><circle cx="805" cy="874" fill="#2b92db" r="3.5" stroke-width="0" /><circle cx="767" cy="860" fill="#2b92db" r="3.5" stroke-width="0" /><circle cx="819" cy="854" fill="#2b92db" r="3.5" stroke-width="0" /><circle cx="904" cy="844" fill="#2b92db" r="3.5" stroke-width="0" /><circle cx="875" cy="841" fill="#2b92db" r="3.5" stroke-width="0" /><circle cx="921" cy="825" fill="#2b92db" r="3.5" stroke-width="0" /><circle cx="885" cy="810" fill="#2b92db" r="3.5" stroke-width="0" /><circle cx="939" cy="797" fill="#2b92db" r="3.5" stroke-width="0" /><circle cx="980" cy="797" fill="#2b92db" r="3.5" stroke-width="0" /><circle cx="917" cy="794" fill="#2b92db" r="3.5" stroke-width="0" /><circle cx="938" cy="794" fill="#2b92db" r="3.5" stroke-width="0" /><circle cx="852" cy="783" fill="#2b92db" r="3.5" stroke-width="0" /><circle cx="847" cy="780" fill="#2b92db" r="3.5" stroke-width="0" /><circle cx="903" cy="770" fill="#2b92db" r="3.5" stroke-width="0" /><circle cx="938" cy="769" fill="#2b92db" r="3.5" stroke-width="0" /><circle cx="1000" cy="703" fill="#2b92db" r="3.5" stroke-width="0" /><circle cx="1007" cy="703" fill="#2b92db" r="3.5" stroke-width="0" /><circle cx="1052" cy="671" fill="#2b92db" r="3.5" stroke-width="0" /><circle cx="1014" cy="663" fill="#2b92db" r="3.5" stroke-width="0" /><circle cx="1038" cy="624" fill="#2b92db" r="3.5" stroke-width="0" /><circle cx="1031" cy="583" fill="#2b92db" r="3.5" stroke-width="0" /></g><g class="e3"><circle cx="408" cy="1068" fill="#911eb4" r="3.5" stroke-width="0" /><circle cx="471" cy="1067" fill="#911eb4" r="3.5" stroke-width="0" /><circle cx="526" cy="1042" fill="#911eb4" r="3.5" stroke-width="0" /><circle cx="405" cy="1034" fill="#911eb4" r="3.5" stroke-width="0" /><circle cx="484" cy="1022" fill="#911eb4" r="3.5" stroke-width="0" /><circle cx="506" cy="1020" fill="#911eb4" r="3.5" stroke-width="0" /><circle cx="525" cy="1005" fill="#911eb4" r="3.5" stroke-width="0" /><circle cx="545" cy="1003" fill="#911eb4" r="3.5" stroke-width="0" /><circle cx="561" cy="995" fill="#911eb4" r="3.5" stroke-width="0" /><circle cx="506" cy="994" fill="#911eb4" r="3.5" stroke-width="0" /><circle cx="598" cy="982" fill="#911eb4" r="3.5" stroke-width="0" /><circle cx="578" cy="977" fill="#911eb4" r="3.5" stroke-width="0" /><circle cx="560" cy="973" fill="#911eb4" r="3.5" stroke-width="0" /><circle cx="517" cy="961" fill="#911eb4" r="3.5" stroke-width="0" /><circle cx="482" cy="947" fill="#911eb4" r="3.5" stroke-width="0" /><circle cx="582" cy="946" fill="#911eb4" r="3.5" stroke-width="0" /><circle cx="540" cy="945" fill="#911eb4" r="3.5" stroke-width="0" /><circle cx="566" cy="939" fill="#911eb4" r="3.5" stroke-width="0" /><circle cx="561" cy="938" fill="#911eb4" r="3.5" stroke-width="0" /><circle cx="529" cy="930" fill="#911eb4" r="3.5" stroke-width="0" /><circle cx="588" cy="925" fill="#911eb4" r="3.5" stroke-width="0" /><circle cx="560" cy="920" fill="#911eb4" r="3.5" stroke-width="0" /><circle cx="604" cy="916" fill="#911eb4" r="3.5" stroke-width="0" /><circle cx="669" cy="915" fill="#911eb4" r="3.5" stroke-width="0" /><circle cx="681" cy="872" fill="#911eb4" r="3.5" stroke-width="0" /><circle cx="676" cy="867" fill="#911eb4" r="3.5" stroke-width="0" /><circle cx="726" cy="856" fill="#911eb4" r="3.5" stroke-width="0" /><circle cx="607" cy="827" fill="#911eb4" r="3.5" stroke-width="0" /><circle cx="696" cy="813" fill="#911eb4" r="3.5" stroke-width="0" /><circle cx="700" cy="803" fill="#911eb4" r="3.5" stroke-width="0" /><circle cx="751" cy="766" fill="#911eb4" r="3.5" stroke-width="0" /><circle cx="755" cy="762" fill="#911eb4" r="3.5" stroke-width="0" /><circle cx="706" cy="753" fill="#911eb4" r="3.5" stroke-width="0" /><circle cx="705" cy="734" fill="#911eb4" r="3.5" stroke-width="0" /><circle cx="862" cy="712" fill="#911eb4" r="3.5" stroke-width="0" /><circle cx="898" cy="694" fill="#911eb4" r="3.5" stroke-width="0" /><circle cx="833" cy="692" fill="#911eb4" r="3.5" stroke-width="0" /><circle cx="902" cy="666" fill="#911eb4" r="3.5" stroke-width="0" /><circle cx="827" cy="664" fill="#911eb4" r="3.5" stroke-width="0" /><circle cx="855" cy="604" fill="#911eb4" r="3.5" stroke-width="0" /><circle cx="907" cy="594" fill="#911eb4" r="3.5" stroke-width="0" /><circle cx="937" cy="593" fill="#911eb4" r="3.5" stroke-width="0" /><circle cx="1009" cy="549" fill="#911eb4" r="3.5" stroke-width="0" /><circle cx="1057" cy="537" fill="#911eb4" r="3.5" stroke-width="0" /><circle cx="1000" cy="466" fill="#911eb4" r="3.5" stroke-width="0" /><circle cx="986" cy="465" fill="#911eb4" r="3.5" stroke-width="0" /><circle cx="991" cy="458" fill="#911eb4" r="3.5" stroke-width="0" /><circle cx="1035" cy="449" fill="#911eb4" r="3.5" stroke-width="0" /><circle cx="1030" cy="397" fill="#911eb4" r="3.5" stroke-width="0" /><circle cx="1035" cy="393" fill="#911eb4" r="3.5" stroke-width="0" /></g><g class="e4"><circle cx="291" cy="1059" fill="#3cb44B" r="3.5" stroke-width="0" /><circle cx="198" cy="1053" fill="#3cb44B" r="3.5" stroke-width="0" /><circle cx="246" cy="1045" fill="#3cb44B" r="3.5" stroke-width="0" /><circle cx="275" cy="1041" fill="#3cb44B" r="3.5" stroke-width="0" /><circle cx="257" cy="1040" fill="#3cb44B" r="3.5" stroke-width="0" /><circle cx="223" cy="1019" fill="#3cb44B" r="3.5" stroke-width="0" /><circle cx="362" cy="997" fill="#3cb44B" r="3.5" stroke-width="0" /><circle cx="312" cy="995" fill="#3cb44B" r="3.5" stroke-width="0" /><circle cx="376" cy="986" fill="#3cb44B" r="3.5" stroke-width="0" /><circle cx="312" cy="984" fill="#3cb44B" r="3.5" stroke-width="0" /><circle cx="427" cy="959" fill="#3cb44B" r="3.5" stroke-width="0" /><circle cx="453" cy="952" fill="#3cb44B" r="3.5" stroke-width="0" /><circle cx="323" cy="933" fill="#3cb44B" r="3.5" stroke-width="0" /><circle cx="474" cy="932" fill="#3cb44B" r="3.5" stroke-width="0" /><circle cx="491" cy="923" fill="#3cb44B" r="3.5" stroke-width="0" /><circle cx="425" cy="919" fill="#3cb44B" r="3.5" stroke-width="0" /><circle cx="381" cy="918" fill="#3cb44B" r="3.5" stroke-width="0" /><circle cx="501" cy="898" fill="#3cb44B" r="3.5" stroke-width="0" /><circle cx="407" cy="854" fill="#3cb44B" r="3.5" stroke-width="0" /><circle cx="555" cy="844" fill="#3cb44B" r="3.5" stroke-width="0" /><circle cx="555" cy="830" fill="#3cb44B" r="3.5" stroke-width="0" /><circle cx="426" cy="825" fill="#3cb44B" r="3.5" stroke-width="0" /><circle cx="562" cy="797" fill="#3cb44B" r="3.5" stroke-width="0" /><circle cx="630" cy="786" fill="#3cb44B" r="3.5" stroke-width="0" /><circle cx="571" cy="777" fill="#3cb44B" r="3.5" stroke-width="0" /><circle cx="513" cy="750" fill="#3cb44B" r="3.5" stroke-width="0" /><circle cx="543" cy="748" fill="#3cb44B" r="3.5" stroke-width="0" /><circle cx="567" cy="715" fill="#3cb44B" r="3.5" stroke-width="0" /><circle cx="635" cy="710" fill="#3cb44B" r="3.5" stroke-width="0" /><circle cx="604" cy="707" fill="#3cb44B" r="3.5" stroke-width="0" /><circle cx="624" cy="707" fill="#3cb44B" r="3.5" stroke-width="0" /><circle cx="680" cy="705" fill="#3cb44B" r="3.5" stroke-width="0" /><circle cx="608" cy="694" fill="#3cb44B" r="3.5" stroke-width="0" /><circle cx="652" cy="690" fill="#3cb44B" r="3.5" stroke-width="0" /><circle cx="682" cy="688" fill="#3cb44B" r="3.5" stroke-width="0" /><circle cx="624" cy="687" fill="#3cb44B" r="3.5" stroke-width="0" /><circle cx="623" cy="678" fill="#3cb44B" r="3.5" stroke-width="0" /><circle cx="662" cy="657" fill="#3cb44B" r="3.5" stroke-width="0" /><circle cx="682" cy="654" fill="#3cb44B" r="3.5" stroke-width="0" /><circle cx="636" cy="636" fill="#3cb44B" r="3.5" stroke-width="0" /><circle cx="623" cy="625" fill="#3cb44B" r="3.5" stroke-width="0" /><circle cx="750" cy="603" fill="#3cb44B" r="3.5" stroke-width="0" /><circle cx="690" cy="596" fill="#3cb44B" r="3.5" stroke-width="0" /><circle cx="845" cy="562" fill="#3cb44B" r="3.5" stroke-width="0" /><circle cx="759" cy="540" fill="#3cb44B" r="3.5" stroke-width="0" /><circle cx="799" cy="539" fill="#3cb44B" r="3.5" stroke-width="0" /><circle cx="853" cy="519" fill="#3cb44B" r="3.5" stroke-width="0" /><circle cx="824" cy="518" fill="#3cb44B" r="3.5" stroke-width="0" /><circle cx="843" cy="511" fill="#3cb44B" r="3.5" stroke-width="0" /><circle cx="826" cy="510" fill="#3cb44B" r="3.5" stroke-width="0" /><circle cx="745" cy="503" fill="#3cb44B" r="3.5" stroke-width="0" /><circle cx="900" cy="487" fill="#3cb44B" r="3.5" stroke-width="0" /><circle cx="820" cy="475" fill="#3cb44B" r="3.5" stroke-width="0" /><circle cx="868" cy="458" fill="#3cb44B" r="3.5" stroke-width="0" /><circle cx="814" cy="442" fill="#3cb44B" r="3.5" stroke-width="0" /><circle cx="872" cy="440" fill="#3cb44B" r="3.5" stroke-width="0" /><circle cx="883" cy="430" fill="#3cb44B" r="3.5" stroke-width="0" /><circle cx="964" cy="426" fill="#3cb44B" r="3.5" stroke-width="0" /><circle cx="835" cy="411" fill="#3cb44B" r="3.5" stroke-width="0" /><circle cx="991" cy="410" fill="#3cb44B" r="3.5" stroke-width="0" /><circle cx="942" cy="404" fill="#3cb44B" r="3.5" stroke-width="0" /><circle cx="979" cy="378" fill="#3cb44B" r="3.5" stroke-width="0" /><circle cx="907" cy="347" fill="#3cb44B" r="3.5" stroke-width="0" /><circle cx="932" cy="337" fill="#3cb44B" r="3.5" stroke-width="0" /><circle cx="911" cy="325" fill="#3cb44B" r="3.5" stroke-width="0" /><circle cx="999" cy="324" fill="#3cb44B" r="3.5" stroke-width="0" /><circle cx="979" cy="319" fill="#3cb44B" r="3.5" stroke-width="0" /><circle cx="1011" cy="304" fill="#3cb44B" r="3.5" stroke-width="0" /><circle cx="1035" cy="303" fill="#3cb44B" r="3.5" stroke-width="0" /><circle cx="978" cy="292" fill="#3cb44B" r="3.5" stroke-width="0" /><circle cx="1002" cy="282" fill="#3cb44B" r="3.5" stroke-width="0" /><circle cx="1009" cy="276" fill="#3cb44B" r="3.5" stroke-width="0" /><circle cx="1064" cy="263" fill="#3cb44B" r="3.5" stroke-width="0" /><circle cx="1027" cy="238" fill="#3cb44B" r="3.5" stroke-width="0" /><circle cx="1034" cy="229" fill="#3cb44B" r="3.5" stroke-width="0" /><circle cx="1060" cy="178" fill="#3cb44B" r="3.5" stroke-width="0" /></g><g class="e5"><circle cx="136" cy="1025" fill="#ff0000" r="3.5" stroke-width="0" /><circle cx="107" cy="1000" fill="#ff0000" r="3.5" stroke-width="0" /><circle cx="170" cy="997" fill="#ff0000" r="3.5" stroke-width="0" /><circle cx="200" cy="994" fill="#ff0000" r="3.5" stroke-width="0" /><circle cx="108" cy="991" fill="#ff0000" r="3.5" stroke-width="0" /><circle cx="129" cy="952" fill="#ff0000" r="3.5" stroke-width="0" /><circle cx="202" cy="939" fill="#ff0000" r="3.5" stroke-width="0" /><circle cx="178" cy="895" fill="#ff0000" r="3.5" stroke-width="0" /><circle cx="302" cy="888" fill="#ff0000" r="3.5" stroke-width="0" /><circle cx="345" cy="883" fill="#ff0000" r="3.5" stroke-width="0" /><circle cx="244" cy="879" fill="#ff0000" r="3.5" stroke-width="0" /><circle cx="252" cy="871" fill="#ff0000" r="3.5" stroke-width="0" /><circle cx="260" cy="868" fill="#ff0000" r="3.5" stroke-width="0" /><circle cx="240" cy="859" fill="#ff0000" r="3.5" stroke-width="0" /><circle cx="314" cy="858" fill="#ff0000" r="3.5" stroke-width="0" /><circle cx="301" cy="856" fill="#ff0000" r="3.5" stroke-width="0" /><circle cx="297" cy="846" fill="#ff0000" r="3.5" stroke-width="0" /><circle cx="344" cy="810" fill="#ff0000" r="3.5" stroke-width="0" /><circle cx="400" cy="808" fill="#ff0000" r="3.5" stroke-width="0" /><circle cx="397" cy="807" fill="#ff0000" r="3.5" stroke-width="0" /><circle cx="423" cy="797" fill="#ff0000" r="3.5" stroke-width="0" /><circle cx="362" cy="786" fill="#ff0000" r="3.5" stroke-width="0" /><circle cx="441" cy="774" fill="#ff0000" r="3.5" stroke-width="0" /><circle cx="354" cy="770" fill="#ff0000" r="3.5" stroke-width="0" /><circle cx="388" cy="761" fill="#ff0000" r="3.5" stroke-width="0" /><circle cx="409" cy="731" fill="#ff0000" r="3.5" stroke-width="0" /><circle cx="406" cy="728" fill="#ff0000" r="3.5" stroke-width="0" /><circle cx="369" cy="724" fill="#ff0000" r="3.5" stroke-width="0" /><circle cx="355" cy="720" fill="#ff0000" r="3.5" stroke-width="0" /><circle cx="406" cy="718" fill="#ff0000" r="3.5" stroke-width="0" /><circle cx="394" cy="693" fill="#ff0000" r="3.5" stroke-width="0" /><circle cx="380" cy="676" fill="#ff0000" r="3.5" stroke-width="0" /><circle cx="410" cy="675" fill="#ff0000" r="3.5" stroke-width="0" /><circle cx="527" cy="663" fill="#ff0000" r="3.5" stroke-width="0" /><circle cx="511" cy="644" fill="#ff0000" r="3.5" stroke-width="0" /><circle cx="579" cy="638" fill="#ff0000" r="3.5" stroke-width="0" /><circle cx="432" cy="635" fill="#ff0000" r="3.5" stroke-width="0" /><circle cx="523" cy="617" fill="#ff0000" r="3.5" stroke-width="0" /><circle cx="584" cy="615" fill="#ff0000" r="3.5" stroke-width="0" /><circle cx="607" cy="600" fill="#ff0000" r="3.5" stroke-width="0" /><circle cx="535" cy="572" fill="#ff0000" r="3.5" stroke-width="0" /><circle cx="607" cy="555" fill="#ff0000" r="3.5" stroke-width="0" /><circle cx="669" cy="538" fill="#ff0000" r="3.5" stroke-width="0" /><circle cx="524" cy="531" fill="#ff0000" r="3.5" stroke-width="0" /><circle cx="685" cy="529" fill="#ff0000" r="3.5" stroke-width="0" /><circle cx="682" cy="514" fill="#ff0000" r="3.5" stroke-width="0" /><circle cx="592" cy="475" fill="#ff0000" r="3.5" stroke-width="0" /><circle cx="745" cy="450" fill="#ff0000" r="3.5" stroke-width="0" /><circle cx="781" cy="435" fill="#ff0000" r="3.5" stroke-width="0" /><circle cx="788" cy="431" fill="#ff0000" r="3.5" stroke-width="0" /><circle cx="649" cy="409" fill="#ff0000" r="3.5" stroke-width="0" /><circle cx="804" cy="398" fill="#ff0000" r="3.5" stroke-width="0" /><circle cx="822" cy="398" fill="#ff0000" r="3.5" stroke-width="0" /><circle cx="853" cy="374" fill="#ff0000" r="3.5" stroke-width="0" /><circle cx="826" cy="373" fill="#ff0000" r="3.5" stroke-width="0" /><circle cx="843" cy="372" fill="#ff0000" r="3.5" stroke-width="0" /><circle cx="798" cy="337" fill="#ff0000" r="3.5" stroke-width="0" /><circle cx="878" cy="332" fill="#ff0000" r="3.5" stroke-width="0" /><circle cx="831" cy="328" fill="#ff0000" r="3.5" stroke-width="0" /><circle cx="907" cy="320" fill="#ff0000" r="3.5" stroke-width="0" /><circle cx="761" cy="318" fill="#ff0000" r="3.5" stroke-width="0" /><circle cx="866" cy="297" fill="#ff0000" r="3.5" stroke-width="0" /><circle cx="817" cy="296" fill="#ff0000" r="3.5" stroke-width="0" /><circle cx="821" cy="273" fill="#ff0000" r="3.5" stroke-width="0" /><circle cx="865" cy="264" fill="#ff0000" r="3.5" stroke-width="0" /><circle cx="869" cy="236" fill="#ff0000" r="3.5" stroke-width="0" /><circle cx="934" cy="228" fill="#ff0000" r="3.5" stroke-width="0" /><circle cx="840" cy="222" fill="#ff0000" r="3.5" stroke-width="0" /><circle cx="849" cy="220" fill="#ff0000" r="3.5" stroke-width="0" /><circle cx="846" cy="219" fill="#ff0000" r="3.5" stroke-width="0" /><circle cx="906" cy="219" fill="#ff0000" r="3.5" stroke-width="0" /><circle cx="990" cy="202" fill="#ff0000" r="3.5" stroke-width="0" /><circle cx="1038" cy="196" fill="#ff0000" r="3.5" stroke-width="0" /><circle cx="936" cy="191" fill="#ff0000" r="3.5" stroke-width="0" /><circle cx="1008" cy="189" fill="#ff0000" r="3.5" stroke-width="0" /><circle cx="1015" cy="182" fill="#ff0000" r="3.5" stroke-width="0" /><circle cx="982" cy="180" fill="#ff0000" r="3.5" stroke-width="0" /><circle cx="941" cy="176" fill="#ff0000" r="3.5" stroke-width="0" /><circle cx="929" cy="166" fill="#ff0000" r="3.5" stroke-width="0" /><circle cx="956" cy="159" fill="#ff0000" r="3.5" stroke-width="0" /><circle cx="1008" cy="139" fill="#ff0000" r="3.5" stroke-width="0" /><circle cx="949" cy="123" fill="#ff0000" r="3.5" stroke-width="0" /><circle cx="1042" cy="120" fill="#ff0000" r="3.5" stroke-width="0" /><circle cx="1016" cy="118" fill="#ff0000" r="3.5" stroke-width="0" /><circle cx="990" cy="96" fill="#ff0000" r="3.5" stroke-width="0" /><circle cx="1014" cy="84" fill="#ff0000" r="3.5" stroke-width="0" /><circle cx="1052" cy="84" fill="#ff0000" r="3.5" stroke-width="0" /><circle cx="1006" cy="76" fill="#ff0000" r="3.5" stroke-width="0" /><circle cx="1060" cy="72" fill="#ff0000" r="3.5" stroke-width="0" /></g><g class="e6"><circle cx="74" cy="924" fill="#2b92db" r="3.5" stroke-width="0" /><circle cx="108" cy="914" fill="#2b92db" r="3.5" stroke-width="0" /><circle cx="104" cy="880" fill="#2b92db" r="3.5" stroke-width="0" /><circle cx="101" cy="877" fill="#2b92db" r="3.5" stroke-width="0" /><circle cx="83" cy="870" fill="#2b92db" r="3.5" stroke-width="0" /><circle cx="77" cy="864" fill="#2b92db" r="3.5" stroke-width="0" /><circle cx="124" cy="836" fill="#2b92db" r="3.5" stroke-width="0" /><circle cx="79" cy="807" fill="#2b92db" r="3.5" stroke-width="0" /><circle cx="88" cy="795" fill="#2b92db" r="3.5" stroke-width="0" /><circle cx="201" cy="774" fill="#2b92db" r="3.5" stroke-width="0" /><circle cx="138" cy="770" fill="#2b92db" r="3.5" stroke-width="0" /><circle cx="167" cy="759" fill="#2b92db" r="3.5" stroke-width="0" /><circle cx="197" cy="756" fill="#2b92db" r="3.5" stroke-width="0" /><circle cx="271" cy="753" fill="#2b92db" r="3.5" stroke-width="0" /><circle cx="137" cy="747" fill="#2b92db" r="3.5" stroke-width="0" /><circle cx="237" cy="718" fill="#2b92db" r="3.5" stroke-width="0" /><circle cx="240" cy="685" fill="#2b92db" r="3.5" stroke-width="0" /><circle cx="323" cy="647" fill="#2b92db" r="3.5" stroke-width="0" /><circle cx="372" cy="636" fill="#2b92db" r="3.5" stroke-width="0" /><circle cx="256" cy="627" fill="#2b92db" r="3.5" stroke-width="0" /><circle cx="281" cy="627" fill="#2b92db" r="3.5" stroke-width="0" /><circle cx="415" cy="621" fill="#2b92db" r="3.5" stroke-width="0" /><circle cx="423" cy="619" fill="#2b92db" r="3.5" stroke-width="0" /><circle cx="282" cy="611" fill="#2b92db" r="3.5" stroke-width="0" /><circle cx="390" cy="592" fill="#2b92db" r="3.5" stroke-width="0" /><circle cx="445" cy="565" fill="#2b92db" r="3.5" stroke-width="0" /><circle cx="352" cy="563" fill="#2b92db" r="3.5" stroke-width="0" /><circle cx="476" cy="562" fill="#2b92db" r="3.5" stroke-width="0" /><circle cx="432" cy="561" fill="#2b92db" r="3.5" stroke-width="0" /><circle cx="461" cy="541" fill="#2b92db" r="3.5" stroke-width="0" /><circle cx="362" cy="530" fill="#2b92db" r="3.5" stroke-width="0" /><circle cx="366" cy="524" fill="#2b92db" r="3.5" stroke-width="0" /><circle cx="450" cy="521" fill="#2b92db" r="3.5" stroke-width="0" /><circle cx="486" cy="517" fill="#2b92db" r="3.5" stroke-width="0" /><circle cx="459" cy="493" fill="#2b92db" r="3.5" stroke-width="0" /><circle cx="466" cy="489" fill="#2b92db" r="3.5" stroke-width="0" /><circle cx="542" cy="483" fill="#2b92db" r="3.5" stroke-width="0" /><circle cx="587" cy="463" fill="#2b92db" r="3.5" stroke-width="0" /><circle cx="433" cy="457" fill="#2b92db" r="3.5" stroke-width="0" /><circle cx="506" cy="418" fill="#2b92db" r="3.5" stroke-width="0" /><circle cx="643" cy="386" fill="#2b92db" r="3.5" stroke-width="0" /><circle cx="658" cy="383" fill="#2b92db" r="3.5" stroke-width="0" /><circle cx="553" cy="381" fill="#2b92db" r="3.5" stroke-width="0" /><circle cx="523" cy="371" fill="#2b92db" r="3.5" stroke-width="0" /><circle cx="643" cy="332" fill="#2b92db" r="3.5" stroke-width="0" /><circle cx="611" cy="327" fill="#2b92db" r="3.5" stroke-width="0" /><circle cx="653" cy="318" fill="#2b92db" r="3.5" stroke-width="0" /><circle cx="608" cy="293" fill="#2b92db" r="3.5" stroke-width="0" /><circle cx="597" cy="286" fill="#2b92db" r="3.5" stroke-width="0" /><circle cx="742" cy="278" fill="#2b92db" r="3.5" stroke-width="0" /><circle cx="649" cy="275" fill="#2b92db" r="3.5" stroke-width="0" /><circle cx="750" cy="269" fill="#2b92db" r="3.5" stroke-width="0" /><circle cx="646" cy="260" fill="#2b92db" r="3.5" stroke-width="0" /><circle cx="790" cy="252" fill="#2b92db" r="3.5" stroke-width="0" /><circle cx="661" cy="242" fill="#2b92db" r="3.5" stroke-width="0" /><circle cx="746" cy="233" fill="#2b92db" r="3.5" stroke-width="0" /><circle cx="768" cy="215" fill="#2b92db" r="3.5" stroke-width="0" /><circle cx="735" cy="208" fill="#2b92db" r="3.5" stroke-width="0" /><circle cx="711" cy="197" fill="#2b92db" r="3.5" stroke-width="0" /><circle cx="749" cy="185" fill="#2b92db" r="3.5" stroke-width="0" /><circle cx="701" cy="181" fill="#2b92db" r="3.5" stroke-width="0" /><circle cx="760" cy="177" fill="#2b92db" r="3.5" stroke-width="0" /><circle cx="876" cy="169" fill="#2b92db" r="3.5" stroke-width="0" /><circle cx="849" cy="144" fill="#2b92db" r="3.5" stroke-width="0" /><circle cx="785" cy="128" fill="#2b92db" r="3.5" stroke-width="0" /><circle cx="861" cy="121" fill="#2b92db" r="3.5" stroke-width="0" /><circle cx="796" cy="120" fill="#2b92db" r="3.5" stroke-width="0" /><circle cx="834" cy="113" fill="#2b92db" r="3.5" stroke-width="0" /><circle cx="786" cy="111" fill="#2b92db" r="3.5" stroke-width="0" /><circle cx="904" cy="109" fill="#2b92db" r="3.5" stroke-width="0" /><circle cx="780" cy="106" fill="#2b92db" r="3.5" stroke-width="0" /><circle cx="907" cy="94" fill="#2b92db" r="3.5" stroke-width="0" /><circle cx="871" cy="87" fill="#2b92db" r="3.5" stroke-width="0" /></g><g class="e7"><circle cx="96" cy="777" fill="#911eb4" r="3.5" stroke-width="0" /><circle cx="86" cy="733" fill="#911eb4" r="3.5" stroke-width="0" /><circle cx="135" cy="690" fill="#911eb4" r="3.5" stroke-width="0" /><circle cx="176" cy="672" fill="#911eb4" r="3.5" stroke-width="0" /><circle cx="125" cy="667" fill="#911eb4" r="3.5" stroke-width="0" /><circle cx="169" cy="666" fill="#911eb4" r="3.5" stroke-width="0" /><circle cx="192" cy="658" fill="#911eb4" r="3.5" stroke-width="0" /><circle cx="129" cy="655" fill="#911eb4" r="3.5" stroke-width="0" /><circle cx="130" cy="652" fill="#911eb4" r="3.5" stroke-width="0" /><circle cx="238" cy="634" fill="#911eb4" r="3.5" stroke-width="0" /><circle cx="106" cy="631" fill="#911eb4" r="3.5" stroke-width="0" /><circle cx="135" cy="625" fill="#911eb4" r="3.5" stroke-width="0" /><circle cx="144" cy="588" fill="#911eb4" r="3.5" stroke-width="0" /><circle cx="237" cy="553" fill="#911eb4" r="3.5" stroke-width="0" /><circle cx="260" cy="544" fill="#911eb4" r="3.5" stroke-width="0" /><circle cx="268" cy="542" fill="#911eb4" r="3.5" stroke-width="0" /><circle cx="199" cy="530" fill="#911eb4" r="3.5" stroke-width="0" /><circle cx="336" cy="493" fill="#911eb4" r="3.5" stroke-width="0" /><circle cx="332" cy="462" fill="#911eb4" r="3.5" stroke-width="0" /><circle cx="337" cy="461" fill="#911eb4" r="3.5" stroke-width="0" /><circle cx="409" cy="436" fill="#911eb4" r="3.5" stroke-width="0" /><circle cx="318" cy="389" fill="#911eb4" r="3.5" stroke-width="0" /><circle cx="471" cy="375" fill="#911eb4" r="3.5" stroke-width="0" /><circle cx="466" cy="364" fill="#911eb4" r="3.5" stroke-width="0" /><circle cx="444" cy="359" fill="#911eb4" r="3.5" stroke-width="0" /><circle cx="399" cy="355" fill="#911eb4" r="3.5" stroke-width="0" /><circle cx="396" cy="349" fill="#911eb4" r="3.5" stroke-width="0" /><circle cx="426" cy="338" fill="#911eb4" r="3.5" stroke-width="0" /><circle cx="537" cy="311" fill="#911eb4" r="3.5" stroke-width="0" /><circle cx="574" cy="294" fill="#911eb4" r="3.5" stroke-width="0" /><circle cx="421" cy="292" fill="#911eb4" r="3.5" stroke-width="0" /><circle cx="564" cy="285" fill="#911eb4" r="3.5" stroke-width="0" /><circle cx="417" cy="280" fill="#911eb4" r="3.5" stroke-width="0" /><circle cx="439" cy="275" fill="#911eb4" r="3.5" stroke-width="0" /><circle cx="475" cy="274" fill="#911eb4" r="3.5" stroke-width="0" /><circle cx="634" cy="225" fill="#911eb4" r="3.5" stroke-width="0" /><circle cx="549" cy="221" fill="#911eb4" r="3.5" stroke-width="0" /><circle cx="585" cy="216" fill="#911eb4" r="3.5" stroke-width="0" /><circle cx="612" cy="196" fill="#911eb4" r="3.5" stroke-width="0" /><circle cx="498" cy="195" fill="#911eb4" r="3.5" stroke-width="0" /><circle cx="648" cy="188" fill="#911eb4" r="3.5" stroke-width="0" /><circle cx="666" cy="179" fill="#911eb4" r="3.5" stroke-width="0" /><circle cx="601" cy="169" fill="#911eb4" r="3.5" stroke-width="0" /><circle cx="640" cy="125" fill="#911eb4" r="3.5" stroke-width="0" /><circle cx="695" cy="120" fill="#911eb4" r="3.5" stroke-width="0" /><circle cx="606" cy="111" fill="#911eb4" r="3.5" stroke-width="0" /><circle cx="591" cy="105" fill="#911eb4" r="3.5" stroke-width="0" /><circle cx="662" cy="101" fill="#911eb4" r="3.5" stroke-width="0" /></g><g class="e8"><circle cx="96" cy="531" fill="#3cb44B" r="3.5" stroke-width="0" /><circle cx="135" cy="494" fill="#3cb44B" r="3.5" stroke-width="0" /><circle cx="127" cy="485" fill="#3cb44B" r="3.5" stroke-width="0" /><circle cx="107" cy="481" fill="#3cb44B" r="3.5" stroke-width="0" /><circle cx="156" cy="475" fill="#3cb44B" r="3.5" stroke-width="0" /><circle cx="75" cy="468" fill="#3cb44B" r="3.5" stroke-width="0" /><circle cx="75" cy="462" fill="#3cb44B" r="3.5" stroke-width="0" /><circle cx="103" cy="452" fill="#3cb44B" r="3.5" stroke-width="0" /><circle cx="140" cy="439" fill="#3cb44B" r="3.5" stroke-width="0" /><circle cx="190" cy="427" fill="#3cb44B" r="3.5" stroke-width="0" /><circle cx="229" cy="423" fill="#3cb44B" r="3.5" stroke-width="0" /><circle cx="170" cy="419" fill="#3cb44B" r="3.5" stroke-width="0" /><circle cx="132" cy="418" fill="#3cb44B" r="3.5" stroke-width="0" /><circle cx="121" cy="415" fill="#3cb44B" r="3.5" stroke-width="0" /><circle cx="115" cy="413" fill="#3cb44B" r="3.5" stroke-width="0" /><circle cx="290" cy="400" fill="#3cb44B" r="3.5" stroke-width="0" /><circle cx="226" cy="397" fill="#3cb44B" r="3.5" stroke-width="0" /><circle cx="248" cy="393" fill="#3cb44B" r="3.5" stroke-width="0" /><circle cx="274" cy="385" fill="#3cb44B" r="3.5" stroke-width="0" /><circle cx="209" cy="384" fill="#3cb44B" r="3.5" stroke-width="0" /><circle cx="170" cy="379" fill="#3cb44B" r="3.5" stroke-width="0" /><circle cx="271" cy="379" fill="#3cb44B" r="3.5" stroke-width="0" /><circle cx="199" cy="367" fill="#3cb44B" r="3.5" stroke-width="0" /><circle cx="251" cy="350" fill="#3cb44B" r="3.5" stroke-width="0" /><circle cx="318" cy="339" fill="#3cb44B" r="3.5" stroke-width="0" /><circle cx="299" cy="308" fill="#3cb44B" r="3.5" stroke-width="0" /><circle cx="221" cy="304" fill="#3cb44B" r="3.5" stroke-width="0" /><circle cx="316" cy="296" fill="#3cb44B" r="3.5" stroke-width="0" /><circle cx="353" cy="269" fill="#3cb44B" r="3.5" stroke-width="0" /><circle cx="325" cy="255" fill="#3cb44B" r="3.5" stroke-width="0" /><circle cx="339" cy="219" fill="#3cb44B" r="3.5" stroke-width="0" /><circle cx="315" cy="209" fill="#3cb44B" r="3.5" stroke-width="0" /><circle cx="474" cy="205" fill="#3cb44B" r="3.5" stroke-width="0" /><circle cx="338" cy="174" fill="#3cb44B" r="3.5" stroke-width="0" /><circle cx="403" cy="156" fill="#3cb44B" r="3.5" stroke-width="0" /><circle cx="517" cy="151" fill="#3cb44B" r="3.5" stroke-width="0" /><circle cx="443" cy="133" fill="#3cb44B" r="3.5" stroke-width="0" /><circle cx="488" cy="114" fill="#3cb44B" r="3.5" stroke-width="0" /><circle cx="575" cy="114" fill="#3cb44B" r="3.5" stroke-width="0" /><circle cx="414" cy="113" fill="#3cb44B" r="3.5" stroke-width="0" /><circle cx="467" cy="96" fill="#3cb44B" r="3.5" stroke-width="0" /><circle cx="514" cy="95" fill="#3cb44B" r="3.5" stroke-width="0" /></g><g class="e9"><circle cx="82" cy="414" fill="#ff0000" r="3.5" stroke-width="0" /><circle cx="102" cy="325" fill="#ff0000" r="3.5" stroke-width="0" /><circle cx="88" cy="324" fill="#ff0000" r="3.5" stroke-width="0" /><circle cx="98" cy="307" fill="#ff0000" r="3.5" stroke-width="0" /><circle cx="180" cy="307" fill="#ff0000" r="3.5" stroke-width="0" /><circle cx="155" cy="303" fill="#ff0000" r="3.5" stroke-width="0" /><circle cx="91" cy="300" fill="#ff0000" r="3.5" stroke-width="0" /><circle cx="118" cy="272" fill="#ff0000" r="3.5" stroke-width="0" /><circle cx="169" cy="265" fill="#ff0000" r="3.5" stroke-width="0" /><circle cx="196" cy="262" fill="#ff0000" r="3.5" stroke-width="0" /><circle cx="133" cy="249" fill="#ff0000" r="3.5" stroke-width="0" /><circle cx="276" cy="233" fill="#ff0000" r="3.5" stroke-width="0" /><circle cx="205" cy="228" fill="#ff0000" r="3.5" stroke-width="0" /><circle cx="179" cy="226" fill="#ff0000" r="3.5" stroke-width="0" /><circle cx="227" cy="224" fill="#ff0000" r="3.5" stroke-width="0" /><circle cx="115" cy="223" fill="#ff0000" r="3.5" stroke-width="0" /><circle cx="198" cy="218" fill="#ff0000" r="3.5" stroke-width="0" /><circle cx="136" cy="217" fill="#ff0000" r="3.5" stroke-width="0" /><circle cx="244" cy="208" fill="#ff0000" r="3.5" stroke-width="0" /><circle cx="295" cy="206" fill="#ff0000" r="3.5" stroke-width="0" /><circle cx="148" cy="198" fill="#ff0000" r="3.5" stroke-width="0" /><circle cx="246" cy="198" fill="#ff0000" r="3.5" stroke-width="0" /><circle cx="243" cy="185" fill="#ff0000" r="3.5" stroke-width="0" /><circle cx="309" cy="185" fill="#ff0000" r="3.5" stroke-width="0" /><circle cx="307" cy="144" fill="#ff0000" r="3.5" stroke-width="0" /><circle cx="230" cy="142" fill="#ff0000" r="3.5" stroke-width="0" /><circle cx="362" cy="111" fill="#ff0000" r="3.5" stroke-width="0" /><circle cx="260" cy="106" fill="#ff0000" r="3.5" stroke-width="0" /><circle cx="297" cy="106" fill="#ff0000" r="3.5" stroke-width="0" /><circle cx="398" cy="102" fill="#ff0000" r="3.5" stroke-width="0" /><circle cx="301" cy="97" fill="#ff0000" r="3.5" stroke-width="0" /><circle cx="305" cy="82" fill="#ff0000" r="3.5" stroke-width="0" /><circle cx="284" cy="74" fill="#ff0000" r="3.5" stroke-width="0" /></g><g class="e10"><circle cx="96" cy="144" fill="#2b92db" r="3.5" stroke-width="0" /><circle cx="185" cy="138" fill="#2b92db" r="3.5" stroke-width="0" /><circle cx="128" cy="128" fill="#2b92db" r="3.5" stroke-width="0" /><circle cx="201" cy="95" fill="#2b92db" r="3.5" stroke-width="0" /><circle cx="93" cy="83" fill="#2b92db" r="3.5" stroke-width="0" /><circle cx="92" cy="82" fill="#2b92db" r="3.5" stroke-width="0" /><circle cx="96" cy="75" fill="#2b92db" r="3.5" stroke-width="0" /></g></g></g></svg>