<?xml version="1.0" encoding="utf-8" ?>
<svg baseProfile="full" height="1140px" style="font-size:15;font-family:Arial, san-serif;font-weight:bold;stroke:black;stroke-width:0;fill:#444444" version="1.1" width="1140px" xmlns="http://www.w3.org/2000/svg" xmlns:ev="http://www.w3.org/2001/xml-events" xmlns:xlink="http://www.w3.org/1999/xlink"><defs><clipPath id="areadografico"><rect height="1000" width="1000" x="70" y="70" /></clipPath></defs><g class="master"><g class="poligonos"><polygon clip-path="url(#areadografico)" fill="#000000" fill-opacity="0.1" points="1069,1070 1069,405 405,1070" /><polygon clip-path="url(#areadografico)" fill="#ffffff" fill-opacity="0.1" points="405,1070 -261,1070 1069,-261 1069,405" /><polygon clip-path="url(#areadografico)" fill="#000000" fill-opacity="0.1" points="70,70 70,738 738,70" /></g><g class="linhas"><line fill-opacity="0.3" stroke="#999999" stroke-width="1" x1="1070" x2="1070" y1="1070" y2="70" /><line fill-opacity="0.3" stroke="#999999" stroke-width="1" x1="70" x2="1070" y1="70" y2="70" /><line fill-opacity="0.3" stroke="#999999" stroke-width="1" x1="970" x2="970" y1="1070" y2="70" /><line fill-opacity="0.3" stroke="#999999" stroke-width="1" x1="70" x2="1070" y1="170" y2="170" /><line fill-opacity="0.3" stroke="#999999" stroke-width="1" x1="870" x2="870" y1="1070" y2="70" /><line fill-opacity="0.3" stroke="#999999" stroke-width="1" x1="70" x2="1070" y1="270" y2="270" /><line fill-opacity="0.3" stroke="#999999" stroke-width="1" x1="770" x2="770" y1="1070" y2="70" /><line fill-opacity="0.3" stroke="#999999" stroke-width="1" x1="70" x2="1070" y1="370" y2="370" /><line fill-opacity="0.3" stroke="#999999" stroke-width="1" x1="670" x2="670" y1="1070" y2="70" /><line fill-opacity="0.3" stroke="#999999" stroke-width="1" x1="70" x2="1070" y1="470" y2="470" /><line fill-opacity="0.3" stroke="#999999" stroke-width="1" x1="570" x2="570" y1="1070" y2="70" /><line fill-opacity="0.3" stroke="#999999" stroke-width="1" x1="70" x2="1070" y1="570" y2="570" /><line fill-opacity="0.3" stroke="#999999" stroke-width="1" x1="470" x2="470" y1="1070" y2="70" /><line fill-opacity="0.3" stroke="#999999" stroke-width="1" x1="70" x2="1070" y1="670" y2="670" /><line fill-opacity="0.3" stroke="#999999" stroke-width="1" x1="370" x2="370" y1="1070" y2="70" /><line fill-opacity="0.3" stroke="#999999" stroke-width="1" x1="70" x2="1070" y1="770" y2="770" /><line fill-opacity="0.3" stroke="#999999" stroke-width="1" x1="270" x2="270" y1="1070" y2="70" /><line fill-opacity="0.3" stroke="#999999" stroke-width="1" x1="70" x2="1070" y1="870" y2="870" /><line fill-opacity="0.3" stroke="#999999" stroke-width="1" x1="170" x2="170" y1="1070" y2="70" /><line fill-opacity="0.3" stroke="#999999" stroke-width="1" x1="70" x2="1070" y1="970" y2="970" /><line fill-opacity="0.3" stroke="#000000" stroke-width="1" x1="70" x2="70" y1="1071" y2="69" /><line fill-opacity="0.3" stroke="#000000" stroke-width="1" x1="69" x2="1071" y1="1070" y2="1070" /></g><g class="textos"><text x="1050" y="1110">1000</text><text x="10" y="71">1000</text><text x="950" y="1110">900</text><text x="10" y="171">900</text><text x="850" y="1110">800</text><text x="10" y="271">800</text><text x="750" y="1110">700</text><text x="10" y="371">700</text><text x="650" y="1110">600</text><text x="10" y="471">600</text><text x="550" y="1110">500</text><text x="10" y="571">500</text><text x="450" y="1110">400</text><text x="10" y="671">400</text><text x="350" y="1110">300</text><text x="10" y="771">300</text><text x="250" y="1110">200</text><text x="10" y="871">200</text><text x="150" y="1110">100</text><text x="10" y="971">100</text><text x="50" y="1111">0</text><text x="9" y="1071">0</text></g><g class="especies"><g class="e0"><circle cx="808" cy="1068" fill="#3cb44B" r="3.5" stroke-width="0" /><circle cx="835" cy="1043" fill="#3cb44B" r="3.5" stroke-width="0" /><circle cx="821" cy="1042" fill="#3cb44B" r="3.5" stroke-width="0" /><circle cx="810" cy="1038" fill="#3cb44B" r="3.5" stroke-width="0" /><circle cx="841" cy="1028" fill="#3cb44B" r="3.5" stroke-width="0" /><circle cx="846" cy="1026" fill="#3cb44B" r="3.5" stroke-width="0" /><circle cx="770" cy="1022" fill="#3cb44B" r="3.5" stroke-width="0" /><circle cx="818" cy="1019" fill="#3cb44B" r="3.5" stroke-width="0" /><circle cx="831" cy="1016" fill="#3cb44B" r="3.5" stroke-width="0" /><circle cx="812" cy="1012" fill="#3cb44B" r="3.5" stroke-width="0" /><circle cx="807" cy="1011" fill="#3cb44B" r="3.5" stroke-width="0" /><circle cx="808" cy="999" fill="#3cb44B" r="3.5" stroke-width="0" /><circle cx="864" cy="992" fill="#3cb44B" r="3.5" stroke-width="0" /><circle cx="858" cy="989" fill="#3cb44B" r="3.5" stroke-width="0" /><circle cx="787" cy="984" fill="#3cb44B" r="3.5" stroke-width="0" /><circle cx="865" cy="977" fill="#3cb44B" r="3.5" stroke-width="0" /><circle cx="847" cy="974" fill="#3cb44B" r="3.5" stroke-width="0" /><circle cx="772" cy="970" fill="#3cb44B" r="3.5" stroke-width="0" /><circle cx="810" cy="970" fill="#3cb44B" r="3.5" stroke-width="0" /><circle cx="816" cy="962" fill="#3cb44B" r="3.5" stroke-width="0" /><circle cx="850" cy="947" fill="#3cb44B" r="3.5" stroke-width="0" /><circle cx="851" cy="947" fill="#3cb44B" r="3.5" stroke-width="0" /><circle cx="837" cy="946" fill="#3cb44B" r="3.5" stroke-width="0" /><circle cx="806" cy="944" fill="#3cb44B" r="3.5" stroke-width="0" /><circle cx="856" cy="940" fill="#3cb44B" r="3.5" stroke-width="0" /><circle cx="838" cy="939" fill="#3cb44B" r="3.5" stroke-width="0" /><circle cx="750" cy="935" fill="#3cb44B" r="3.5" stroke-width="0" /><circle cx="816" cy="934" fill="#3cb44B" r="3.5" stroke-width="0" /><circle cx="835" cy="933" fill="#3cb44B" r="3.5" stroke-width="0" /><circle cx="803" cy="929" fill="#3cb44B" r="3.5" stroke-width="0" /><circle cx="824" cy="929" fill="#3cb44B" r="3.5" stroke-width="0" /><circle cx="815" cy="923" fill="#3cb44B" r="3.5" stroke-width="0" /><circle cx="898" cy="923" fill="#3cb44B" r="3.5" stroke-width="0" /><circle cx="817" cy="918" fill="#3cb44B" r="3.5" stroke-width="0" /><circle cx="849" cy="915" fill="#3cb44B" r="3.5" stroke-width="0" /><circle cx="780" cy="914" fill="#3cb44B" r="3.5" stroke-width="0" /><circle cx="850" cy="911" fill="#3cb44B" r="3.5" stroke-width="0" /><circle cx="828" cy="909" fill="#3cb44B" r="3.5" stroke-width="0" /><circle cx="795" cy="908" fill="#3cb44B" r="3.5" stroke-width="0" /><circle cx="822" cy="903" fill="#3cb44B" r="3.5" stroke-width="0" /><circle cx="808" cy="899" fill="#3cb44B" r="3.5" stroke-width="0" /><circle cx="866" cy="895" fill="#3cb44B" r="3.5" stroke-width="0" /><circle cx="752" cy="894" fill="#3cb44B" r="3.5" stroke-width="0" /><circle cx="875" cy="888" fill="#3cb44B" r="3.5" stroke-width="0" /><circle cx="779" cy="885" fill="#3cb44B" r="3.5" stroke-width="0" /><circle cx="789" cy="878" fill="#3cb44B" r="3.5" stroke-width="0" /><circle cx="737" cy="877" fill="#3cb44B" r="3.5" stroke-width="0" /><circle cx="823" cy="874" fill="#3cb44B" r="3.5" stroke-width="0" /><circle cx="802" cy="873" fill="#3cb44B" r="3.5" stroke-width="0" /><circle cx="844" cy="871" fill="#3cb44B" r="3.5" stroke-width="0" /><circle cx="801" cy="865" fill="#3cb44B" r="3.5" stroke-width="0" /><circle cx="802" cy="863" fill="#3cb44B" r="3.5" stroke-width="0" /><circle cx="805" cy="856" fill="#3cb44B" r="3.5" stroke-width="0" /><circle cx="778" cy="848" fill="#3cb44B" r="3.5" stroke-width="0" /><circle cx="808" cy="846" fill="#3cb44B" r="3.5" stroke-width="0" /><circle cx="818" cy="844" fill="#3cb44B" r="3.5" stroke-width="0" /><circle cx="838" cy="837" fill="#3cb44B" r="3.5" stroke-width="0" /><circle cx="761" cy="836" fill="#3cb44B" r="3.5" stroke-width="0" /><circle cx="793" cy="835" fill="#3cb44B" r="3.5" stroke-width="0" /><circle cx="794" cy="834" fill="#3cb44B" r="3.5" stroke-width="0" /><circle cx="791" cy="832" fill="#3cb44B" r="3.5" stroke-width="0" /><circle cx="794" cy="825" fill="#3cb44B" r="3.5" stroke-width="0" /><circle cx="805" cy="821" fill="#3cb44B" r="3.5" stroke-width="0" /><circle cx="837" cy="819" fill="#3cb44B" r="3.5" stroke-width="0" /><circle cx="817" cy="815" fill="#3cb44B" r="3.5" stroke-width="0" /><circle cx="789" cy="810" fill="#3cb44B" r="3.5" stroke-width="0" /><circle cx="817" cy="809" fill="#3cb44B" r="3.5" stroke-width="0" /><circle cx="759" cy="800" fill="#3cb44B" r="3.5" stroke-width="0" /><circle cx="752" cy="797" fill="#3cb44B" r="3.5" stroke-width="0" /><circle cx="867" cy="797" fill="#3cb44B" r="3.5" stroke-width="0" /><circle cx="839" cy="793" fill="#3cb44B" r="3.5" stroke-width="0" /><circle cx="838" cy="790" fill="#3cb44B" r="3.5" stroke-width="0" /><circle cx="825" cy="788" fill="#3cb44B" r="3.5" stroke-width="0" /><circle cx="837" cy="787" fill="#3cb44B" r="3.5" stroke-width="0" /><circle cx="807" cy="785" fill="#3cb44B" r="3.5" stroke-width="0" /><circle cx="782" cy="782" fill="#3cb44B" r="3.5" stroke-width="0" /><circle cx="781" cy="771" fill="#3cb44B" r="3.5" stroke-width="0" /><circle cx="877" cy="770" fill="#3cb44B" r="3.5" stroke-width="0" /><circle cx="884" cy="768" fill="#3cb44B" r="3.5" stroke-width="0" /><circle cx="822" cy="767" fill="#3cb44B" r="3.5" stroke-width="0" /><circle cx="826" cy="766" fill="#3cb44B" r="3.5" stroke-width="0" /><circle cx="860" cy="762" fill="#3cb44B" r="3.5" stroke-width="0" /><circle cx="795" cy="761" fill="#3cb44B" r="3.5" stroke-width="0" /><circle cx="749" cy="759" fill="#3cb44B" r="3.5" stroke-width="0" /><circle cx="825" cy="756" fill="#3cb44B" r="3.5" stroke-width="0" /><circle cx="820" cy="753" fill="#3cb44B" r="3.5" stroke-width="0" /><circle cx="818" cy="747" fill="#3cb44B" r="3.5" stroke-width="0" /><circle cx="838" cy="744" fill="#3cb44B" r="3.5" stroke-width="0" /><circle cx="827" cy="743" fill="#3cb44B" r="3.5" stroke-width="0" /><circle cx="817" cy="741" fill="#3cb44B" r="3.5" stroke-width="0" /><circle cx="791" cy="738" fill="#3cb44B" r="3.5" stroke-width="0" /><circle cx="798" cy="738" fill="#3cb44B" r="3.5" stroke-width="0" /><circle cx="779" cy="736" fill="#3cb44B" r="3.5" stroke-width="0" /><circle cx="892" cy="735" fill="#3cb44B" r="3.5" stroke-width="0" /><circle cx="819" cy="733" fill="#3cb44B" r="3.5" stroke-width="0" /><circle cx="805" cy="732" fill="#3cb44B" r="3.5" stroke-width="0" /><circle cx="745" cy="731" fill="#3cb44B" r="3.5" stroke-width="0" /><circle cx="903" cy="731" fill="#3cb44B" r="3.5" stroke-width="0" /><circle cx="844" cy="730" fill="#3cb44B" r="3.5" stroke-width="0" /><circle cx="816" cy="729" fill="#3cb44B" r="3.5" stroke-width="0" /><circle cx="780" cy="728" fill="#3cb44B" r="3.5" stroke-width="0" /><circle cx="839" cy="726" fill="#3cb44B" r="3.5" stroke-width="0" /><circle cx="792" cy="716" fill="#3cb44B" r="3.5" stroke-width="0" /><circle cx="858" cy="715" fill="#3cb44B" r="3.5" stroke-width="0" /><circle cx="768" cy="712" fill="#3cb44B" r="3.5" stroke-width="0" /><circle cx="795" cy="712" fill="#3cb44B" r="3.5" stroke-width="0" /><circle cx="804" cy="709" fill="#3cb44B" r="3.5" stroke-width="0" /><circle cx="788" cy="708" fill="#3cb44B" r="3.5" stroke-width="0" /><circle cx="874" cy="707" fill="#3cb44B" r="3.5" stroke-width="0" /><circle cx="834" cy="697" fill="#3cb44B" r="3.5" stroke-width="0" /><circle cx="845" cy="693" fill="#3cb44B" r="3.5" stroke-width="0" /><circle cx="863" cy="693" fill="#3cb44B" r="3.5" stroke-width="0" /><circle cx="821" cy="690" fill="#3cb44B" r="3.5" stroke-width="0" /><circle cx="825" cy="687" fill="#3cb44B" r="3.5" stroke-width="0" /><circle cx="793" cy="684" fill="#3cb44B" r="3.5" stroke-width="0" /><circle cx="816" cy="681" fill="#3cb44B" r="3.5" stroke-width="0" /><circle cx="874" cy="677" fill="#3cb44B" r="3.5" stroke-width="0" /><circle cx="881" cy="677" fill="#3cb44B" r="3.5" stroke-width="0" /><circle cx="874" cy="676" fill="#3cb44B" r="3.5" stroke-width="0" /><circle cx="837" cy="675" fill="#3cb44B" r="3.5" stroke-width="0" /><circle cx="812" cy="673" fill="#3cb44B" r="3.5" stroke-width="0" /><circle cx="845" cy="663" fill="#3cb44B" r="3.5" stroke-width="0" /><circle cx="906" cy="654" fill="#3cb44B" r="3.5" stroke-width="0" /><circle cx="844" cy="639" fill="#3cb44B" r="3.5" stroke-width="0" /><circle cx="849" cy="637" fill="#3cb44B" r="3.5" stroke-width="0" /><circle cx="875" cy="627" fill="#3cb44B" r="3.5" stroke-width="0" /><circle cx="874" cy="615" fill="#3cb44B" r="3.5" stroke-width="0" /></g><g class="e1"><circle cx="310" cy="1045" fill="#ff0000" r="3.5" stroke-width="0" /><circle cx="369" cy="1039" fill="#ff0000" r="3.5" stroke-width="0" /><circle cx="287" cy="1030" fill="#ff0000" r="3.5" stroke-width="0" /><circle cx="316" cy="1029" fill="#ff0000" r="3.5" stroke-width="0" /><circle cx="285" cy="1023" fill="#ff0000" r="3.5" stroke-width="0" /><circle cx="334" cy="1018" fill="#ff0000" r="3.5" stroke-width="0" /><circle cx="333" cy="1017" fill="#ff0000" r="3.5" stroke-width="0" /><circle cx="300" cy="1014" fill="#ff0000" r="3.5" stroke-width="0" /><circle cx="320" cy="1010" fill="#ff0000" r="3.5" stroke-width="0" /><circle cx="297" cy="1001" fill="#ff0000" r="3.5" stroke-width="0" /><circle cx="351" cy="1000" fill="#ff0000" r="3.5" stroke-width="0" /><circle cx="338" cy="991" fill="#ff0000" r="3.5" stroke-width="0" /><circle cx="312" cy="990" fill="#ff0000" r="3.5" stroke-width="0" /><circle cx="309" cy="988" fill="#ff0000" r="3.5" stroke-width="0" /><circle cx="390" cy="981" fill="#ff0000" r="3.5" stroke-width="0" /><circle cx="424" cy="981" fill="#ff0000" r="3.5" stroke-width="0" /><circle cx="338" cy="973" fill="#ff0000" r="3.5" stroke-width="0" /><circle cx="368" cy="972" fill="#ff0000" r="3.5" stroke-width="0" /><circle cx="251" cy="968" fill="#ff0000" r="3.5" stroke-width="0" /><circle cx="310" cy="958" fill="#ff0000" r="3.5" stroke-width="0" /><circle cx="331" cy="954" fill="#ff0000" r="3.5" stroke-width="0" /><circle cx="377" cy="945" fill="#ff0000" r="3.5" stroke-width="0" /><circle cx="322" cy="944" fill="#ff0000" r="3.5" stroke-width="0" /><circle cx="266" cy="943" fill="#ff0000" r="3.5" stroke-width="0" /><circle cx="261" cy="936" fill="#ff0000" r="3.5" stroke-width="0" /><circle cx="329" cy="928" fill="#ff0000" r="3.5" stroke-width="0" /><circle cx="304" cy="922" fill="#ff0000" r="3.5" stroke-width="0" /><circle cx="333" cy="922" fill="#ff0000" r="3.5" stroke-width="0" /><circle cx="279" cy="917" fill="#ff0000" r="3.5" stroke-width="0" /><circle cx="285" cy="916" fill="#ff0000" r="3.5" stroke-width="0" /><circle cx="340" cy="914" fill="#ff0000" r="3.5" stroke-width="0" /><circle cx="290" cy="913" fill="#ff0000" r="3.5" stroke-width="0" /><circle cx="295" cy="913" fill="#ff0000" r="3.5" stroke-width="0" /><circle cx="288" cy="912" fill="#ff0000" r="3.5" stroke-width="0" /><circle cx="362" cy="910" fill="#ff0000" r="3.5" stroke-width="0" /><circle cx="314" cy="909" fill="#ff0000" r="3.5" stroke-width="0" /><circle cx="371" cy="901" fill="#ff0000" r="3.5" stroke-width="0" /><circle cx="348" cy="899" fill="#ff0000" r="3.5" stroke-width="0" /><circle cx="374" cy="894" fill="#ff0000" r="3.5" stroke-width="0" /><circle cx="315" cy="889" fill="#ff0000" r="3.5" stroke-width="0" /><circle cx="322" cy="888" fill="#ff0000" r="3.5" stroke-width="0" /><circle cx="320" cy="887" fill="#ff0000" r="3.5" stroke-width="0" /><circle cx="349" cy="881" fill="#ff0000" r="3.5" stroke-width="0" /><circle cx="325" cy="880" fill="#ff0000" r="3.5" stroke-width="0" /><circle cx="365" cy="875" fill="#ff0000" r="3.5" stroke-width="0" /><circle cx="396" cy="867" fill="#ff0000" r="3.5" stroke-width="0" /><circle cx="296" cy="859" fill="#ff0000" r="3.5" stroke-width="0" /><circle cx="345" cy="853" fill="#ff0000" r="3.5" stroke-width="0" /><circle cx="392" cy="849" fill="#ff0000" r="3.5" stroke-width="0" /><circle cx="335" cy="845" fill="#ff0000" r="3.5" stroke-width="0" /><circle cx="272" cy="842" fill="#ff0000" r="3.5" stroke-width="0" /><circle cx="270" cy="840" fill="#ff0000" r="3.5" stroke-width="0" /><circle cx="376" cy="840" fill="#ff0000" r="3.5" stroke-width="0" /><circle cx="460" cy="834" fill="#ff0000" r="3.5" stroke-width="0" /><circle cx="398" cy="829" fill="#ff0000" r="3.5" stroke-width="0" /><circle cx="341" cy="824" fill="#ff0000" r="3.5" stroke-width="0" /><circle cx="382" cy="824" fill="#ff0000" r="3.5" stroke-width="0" /><circle cx="252" cy="817" fill="#ff0000" r="3.5" stroke-width="0" /><circle cx="308" cy="800" fill="#ff0000" r="3.5" stroke-width="0" /><circle cx="263" cy="798" fill="#ff0000" r="3.5" stroke-width="0" /><circle cx="286" cy="795" fill="#ff0000" r="3.5" stroke-width="0" /><circle cx="289" cy="795" fill="#ff0000" r="3.5" stroke-width="0" /><circle cx="353" cy="793" fill="#ff0000" r="3.5" stroke-width="0" /><circle cx="335" cy="789" fill="#ff0000" r="3.5" stroke-width="0" /><circle cx="335" cy="785" fill="#ff0000" r="3.5" stroke-width="0" /><circle cx="408" cy="784" fill="#ff0000" r="3.5" stroke-width="0" /><circle cx="324" cy="782" fill="#ff0000" r="3.5" stroke-width="0" /><circle cx="212" cy="781" fill="#ff0000" r="3.5" stroke-width="0" /><circle cx="316" cy="781" fill="#ff0000" r="3.5" stroke-width="0" /><circle cx="318" cy="778" fill="#ff0000" r="3.5" stroke-width="0" /><circle cx="300" cy="775" fill="#ff0000" r="3.5" stroke-width="0" /><circle cx="338" cy="773" fill="#ff0000" r="3.5" stroke-width="0" /><circle cx="262" cy="771" fill="#ff0000" r="3.5" stroke-width="0" /><circle cx="328" cy="767" fill="#ff0000" r="3.5" stroke-width="0" /><circle cx="200" cy="764" fill="#ff0000" r="3.5" stroke-width="0" /><circle cx="367" cy="761" fill="#ff0000" r="3.5" stroke-width="0" /><circle cx="327" cy="757" fill="#ff0000" r="3.5" stroke-width="0" /><circle cx="340" cy="751" fill="#ff0000" r="3.5" stroke-width="0" /><circle cx="299" cy="744" fill="#ff0000" r="3.5" stroke-width="0" /><circle cx="330" cy="741" fill="#ff0000" r="3.5" stroke-width="0" /><circle cx="366" cy="741" fill="#ff0000" r="3.5" stroke-width="0" /><circle cx="378" cy="741" fill="#ff0000" r="3.5" stroke-width="0" /><circle cx="314" cy="734" fill="#ff0000" r="3.5" stroke-width="0" /><circle cx="326" cy="732" fill="#ff0000" r="3.5" stroke-width="0" /><circle cx="390" cy="725" fill="#ff0000" r="3.5" stroke-width="0" /><circle cx="391" cy="723" fill="#ff0000" r="3.5" stroke-width="0" /><circle cx="259" cy="722" fill="#ff0000" r="3.5" stroke-width="0" /><circle cx="262" cy="722" fill="#ff0000" r="3.5" stroke-width="0" /><circle cx="223" cy="720" fill="#ff0000" r="3.5" stroke-width="0" /><circle cx="339" cy="716" fill="#ff0000" r="3.5" stroke-width="0" /><circle cx="373" cy="716" fill="#ff0000" r="3.5" stroke-width="0" /><circle cx="323" cy="714" fill="#ff0000" r="3.5" stroke-width="0" /><circle cx="760" cy="709" fill="#ff0000" r="3.5" stroke-width="0" /><circle cx="281" cy="707" fill="#ff0000" r="3.5" stroke-width="0" /><circle cx="275" cy="706" fill="#ff0000" r="3.5" stroke-width="0" /><circle cx="288" cy="704" fill="#ff0000" r="3.5" stroke-width="0" /><circle cx="291" cy="704" fill="#ff0000" r="3.5" stroke-width="0" /><circle cx="150" cy="702" fill="#ff0000" r="3.5" stroke-width="0" /><circle cx="336" cy="702" fill="#ff0000" r="3.5" stroke-width="0" /><circle cx="336" cy="699" fill="#ff0000" r="3.5" stroke-width="0" /><circle cx="755" cy="697" fill="#ff0000" r="3.5" stroke-width="0" /><circle cx="305" cy="692" fill="#ff0000" r="3.5" stroke-width="0" /><circle cx="283" cy="691" fill="#ff0000" r="3.5" stroke-width="0" /><circle cx="335" cy="691" fill="#ff0000" r="3.5" stroke-width="0" /><circle cx="751" cy="691" fill="#ff0000" r="3.5" stroke-width="0" /><circle cx="278" cy="690" fill="#ff0000" r="3.5" stroke-width="0" /><circle cx="334" cy="689" fill="#ff0000" r="3.5" stroke-width="0" /><circle cx="412" cy="686" fill="#ff0000" r="3.5" stroke-width="0" /><circle cx="292" cy="684" fill="#ff0000" r="3.5" stroke-width="0" /><circle cx="357" cy="684" fill="#ff0000" r="3.5" stroke-width="0" /><circle cx="359" cy="680" fill="#ff0000" r="3.5" stroke-width="0" /><circle cx="341" cy="673" fill="#ff0000" r="3.5" stroke-width="0" /><circle cx="782" cy="672" fill="#ff0000" r="3.5" stroke-width="0" /><circle cx="315" cy="671" fill="#ff0000" r="3.5" stroke-width="0" /><circle cx="309" cy="666" fill="#ff0000" r="3.5" stroke-width="0" /><circle cx="233" cy="662" fill="#ff0000" r="3.5" stroke-width="0" /><circle cx="300" cy="661" fill="#ff0000" r="3.5" stroke-width="0" /><circle cx="746" cy="661" fill="#ff0000" r="3.5" stroke-width="0" /><circle cx="786" cy="661" fill="#ff0000" r="3.5" stroke-width="0" /><circle cx="301" cy="660" fill="#ff0000" r="3.5" stroke-width="0" /><circle cx="355" cy="658" fill="#ff0000" r="3.5" stroke-width="0" /><circle cx="291" cy="656" fill="#ff0000" r="3.5" stroke-width="0" /><circle cx="361" cy="656" fill="#ff0000" r="3.5" stroke-width="0" /><circle cx="272" cy="655" fill="#ff0000" r="3.5" stroke-width="0" /><circle cx="730" cy="654" fill="#ff0000" r="3.5" stroke-width="0" /><circle cx="349" cy="653" fill="#ff0000" r="3.5" stroke-width="0" /><circle cx="325" cy="650" fill="#ff0000" r="3.5" stroke-width="0" /><circle cx="391" cy="646" fill="#ff0000" r="3.5" stroke-width="0" /><circle cx="380" cy="642" fill="#ff0000" r="3.5" stroke-width="0" /><circle cx="276" cy="638" fill="#ff0000" r="3.5" stroke-width="0" /><circle cx="364" cy="638" fill="#ff0000" r="3.5" stroke-width="0" /><circle cx="374" cy="637" fill="#ff0000" r="3.5" stroke-width="0" /><circle cx="301" cy="636" fill="#ff0000" r="3.5" stroke-width="0" /><circle cx="332" cy="635" fill="#ff0000" r="3.5" stroke-width="0" /><circle cx="751" cy="635" fill="#ff0000" r="3.5" stroke-width="0" /><circle cx="834" cy="634" fill="#ff0000" r="3.5" stroke-width="0" /><circle cx="322" cy="631" fill="#ff0000" r="3.5" stroke-width="0" /><circle cx="260" cy="628" fill="#ff0000" r="3.5" stroke-width="0" /><circle cx="797" cy="627" fill="#ff0000" r="3.5" stroke-width="0" /><circle cx="767" cy="626" fill="#ff0000" r="3.5" stroke-width="0" /><circle cx="776" cy="625" fill="#ff0000" r="3.5" stroke-width="0" /><circle cx="344" cy="623" fill="#ff0000" r="3.5" stroke-width="0" /><circle cx="398" cy="623" fill="#ff0000" r="3.5" stroke-width="0" /><circle cx="350" cy="621" fill="#ff0000" r="3.5" stroke-width="0" /><circle cx="819" cy="619" fill="#ff0000" r="3.5" stroke-width="0" /><circle cx="344" cy="617" fill="#ff0000" r="3.5" stroke-width="0" /><circle cx="812" cy="617" fill="#ff0000" r="3.5" stroke-width="0" /><circle cx="752" cy="616" fill="#ff0000" r="3.5" stroke-width="0" /><circle cx="230" cy="614" fill="#ff0000" r="3.5" stroke-width="0" /><circle cx="338" cy="614" fill="#ff0000" r="3.5" stroke-width="0" /><circle cx="358" cy="613" fill="#ff0000" r="3.5" stroke-width="0" /><circle cx="260" cy="612" fill="#ff0000" r="3.5" stroke-width="0" /><circle cx="789" cy="611" fill="#ff0000" r="3.5" stroke-width="0" /><circle cx="839" cy="610" fill="#ff0000" r="3.5" stroke-width="0" /><circle cx="334" cy="608" fill="#ff0000" r="3.5" stroke-width="0" /><circle cx="295" cy="606" fill="#ff0000" r="3.5" stroke-width="0" /><circle cx="295" cy="604" fill="#ff0000" r="3.5" stroke-width="0" /><circle cx="856" cy="604" fill="#ff0000" r="3.5" stroke-width="0" /><circle cx="370" cy="603" fill="#ff0000" r="3.5" stroke-width="0" /><circle cx="856" cy="600" fill="#ff0000" r="3.5" stroke-width="0" /><circle cx="778" cy="599" fill="#ff0000" r="3.5" stroke-width="0" /><circle cx="281" cy="597" fill="#ff0000" r="3.5" stroke-width="0" /><circle cx="306" cy="596" fill="#ff0000" r="3.5" stroke-width="0" /><circle cx="855" cy="594" fill="#ff0000" r="3.5" stroke-width="0" /><circle cx="396" cy="592" fill="#ff0000" r="3.5" stroke-width="0" /><circle cx="356" cy="590" fill="#ff0000" r="3.5" stroke-width="0" /><circle cx="312" cy="586" fill="#ff0000" r="3.5" stroke-width="0" /><circle cx="286" cy="585" fill="#ff0000" r="3.5" stroke-width="0" /><circle cx="377" cy="584" fill="#ff0000" r="3.5" stroke-width="0" /><circle cx="280" cy="579" fill="#ff0000" r="3.5" stroke-width="0" /><circle cx="299" cy="579" fill="#ff0000" r="3.5" stroke-width="0" /><circle cx="336" cy="579" fill="#ff0000" r="3.5" stroke-width="0" /><circle cx="801" cy="579" fill="#ff0000" r="3.5" stroke-width="0" /><circle cx="372" cy="572" fill="#ff0000" r="3.5" stroke-width="0" /><circle cx="824" cy="572" fill="#ff0000" r="3.5" stroke-width="0" /><circle cx="861" cy="570" fill="#ff0000" r="3.5" stroke-width="0" /><circle cx="311" cy="568" fill="#ff0000" r="3.5" stroke-width="0" /><circle cx="387" cy="567" fill="#ff0000" r="3.5" stroke-width="0" /><circle cx="868" cy="562" fill="#ff0000" r="3.5" stroke-width="0" /><circle cx="288" cy="559" fill="#ff0000" r="3.5" stroke-width="0" /><circle cx="311" cy="559" fill="#ff0000" r="3.5" stroke-width="0" /><circle cx="313" cy="558" fill="#ff0000" r="3.5" stroke-width="0" /><circle cx="318" cy="556" fill="#ff0000" r="3.5" stroke-width="0" /><circle cx="328" cy="556" fill="#ff0000" r="3.5" stroke-width="0" /><circle cx="346" cy="556" fill="#ff0000" r="3.5" stroke-width="0" /><circle cx="281" cy="554" fill="#ff0000" r="3.5" stroke-width="0" /><circle cx="361" cy="550" fill="#ff0000" r="3.5" stroke-width="0" /><circle cx="292" cy="547" fill="#ff0000" r="3.5" stroke-width="0" /><circle cx="301" cy="547" fill="#ff0000" r="3.5" stroke-width="0" /><circle cx="356" cy="547" fill="#ff0000" r="3.5" stroke-width="0" /><circle cx="809" cy="544" fill="#ff0000" r="3.5" stroke-width="0" /><circle cx="851" cy="544" fill="#ff0000" r="3.5" stroke-width="0" /><circle cx="354" cy="543" fill="#ff0000" r="3.5" stroke-width="0" /><circle cx="354" cy="543" fill="#ff0000" r="3.5" stroke-width="0" /><circle cx="755" cy="541" fill="#ff0000" r="3.5" stroke-width="0" /><circle cx="894" cy="541" fill="#ff0000" r="3.5" stroke-width="0" /><circle cx="808" cy="540" fill="#ff0000" r="3.5" stroke-width="0" /><circle cx="747" cy="539" fill="#ff0000" r="3.5" stroke-width="0" /><circle cx="895" cy="539" fill="#ff0000" r="3.5" stroke-width="0" /><circle cx="852" cy="537" fill="#ff0000" r="3.5" stroke-width="0" /><circle cx="336" cy="536" fill="#ff0000" r="3.5" stroke-width="0" /><circle cx="846" cy="536" fill="#ff0000" r="3.5" stroke-width="0" /><circle cx="315" cy="531" fill="#ff0000" r="3.5" stroke-width="0" /><circle cx="780" cy="531" fill="#ff0000" r="3.5" stroke-width="0" /><circle cx="811" cy="529" fill="#ff0000" r="3.5" stroke-width="0" /><circle cx="819" cy="529" fill="#ff0000" r="3.5" stroke-width="0" /><circle cx="313" cy="528" fill="#ff0000" r="3.5" stroke-width="0" /><circle cx="779" cy="526" fill="#ff0000" r="3.5" stroke-width="0" /><circle cx="840" cy="521" fill="#ff0000" r="3.5" stroke-width="0" /><circle cx="847" cy="521" fill="#ff0000" r="3.5" stroke-width="0" /><circle cx="824" cy="520" fill="#ff0000" r="3.5" stroke-width="0" /><circle cx="853" cy="517" fill="#ff0000" r="3.5" stroke-width="0" /><circle cx="355" cy="515" fill="#ff0000" r="3.5" stroke-width="0" /><circle cx="358" cy="515" fill="#ff0000" r="3.5" stroke-width="0" /><circle cx="745" cy="515" fill="#ff0000" r="3.5" stroke-width="0" /><circle cx="350" cy="514" fill="#ff0000" r="3.5" stroke-width="0" /><circle cx="898" cy="514" fill="#ff0000" r="3.5" stroke-width="0" /><circle cx="369" cy="512" fill="#ff0000" r="3.5" stroke-width="0" /><circle cx="855" cy="511" fill="#ff0000" r="3.5" stroke-width="0" /><circle cx="324" cy="509" fill="#ff0000" r="3.5" stroke-width="0" /><circle cx="762" cy="509" fill="#ff0000" r="3.5" stroke-width="0" /><circle cx="900" cy="508" fill="#ff0000" r="3.5" stroke-width="0" /><circle cx="829" cy="505" fill="#ff0000" r="3.5" stroke-width="0" /><circle cx="886" cy="504" fill="#ff0000" r="3.5" stroke-width="0" /><circle cx="377" cy="501" fill="#ff0000" r="3.5" stroke-width="0" /><circle cx="891" cy="501" fill="#ff0000" r="3.5" stroke-width="0" /><circle cx="317" cy="500" fill="#ff0000" r="3.5" stroke-width="0" /><circle cx="781" cy="499" fill="#ff0000" r="3.5" stroke-width="0" /><circle cx="844" cy="499" fill="#ff0000" r="3.5" stroke-width="0" /><circle cx="863" cy="499" fill="#ff0000" r="3.5" stroke-width="0" /><circle cx="824" cy="497" fill="#ff0000" r="3.5" stroke-width="0" /><circle cx="313" cy="496" fill="#ff0000" r="3.5" stroke-width="0" /><circle cx="337" cy="496" fill="#ff0000" r="3.5" stroke-width="0" /><circle cx="341" cy="494" fill="#ff0000" r="3.5" stroke-width="0" /><circle cx="834" cy="492" fill="#ff0000" r="3.5" stroke-width="0" /><circle cx="352" cy="489" fill="#ff0000" r="3.5" stroke-width="0" /><circle cx="358" cy="488" fill="#ff0000" r="3.5" stroke-width="0" /><circle cx="797" cy="488" fill="#ff0000" r="3.5" stroke-width="0" /><circle cx="771" cy="486" fill="#ff0000" r="3.5" stroke-width="0" /><circle cx="830" cy="486" fill="#ff0000" r="3.5" stroke-width="0" /><circle cx="817" cy="485" fill="#ff0000" r="3.5" stroke-width="0" /><circle cx="924" cy="484" fill="#ff0000" r="3.5" stroke-width="0" /><circle cx="815" cy="483" fill="#ff0000" r="3.5" stroke-width="0" /><circle cx="866" cy="481" fill="#ff0000" r="3.5" stroke-width="0" /><circle cx="825" cy="480" fill="#ff0000" r="3.5" stroke-width="0" /><circle cx="850" cy="480" fill="#ff0000" r="3.5" stroke-width="0" /><circle cx="375" cy="478" fill="#ff0000" r="3.5" stroke-width="0" /><circle cx="803" cy="477" fill="#ff0000" r="3.5" stroke-width="0" /><circle cx="891" cy="470" fill="#ff0000" r="3.5" stroke-width="0" /><circle cx="769" cy="469" fill="#ff0000" r="3.5" stroke-width="0" /><circle cx="784" cy="469" fill="#ff0000" r="3.5" stroke-width="0" /><circle cx="834" cy="469" fill="#ff0000" r="3.5" stroke-width="0" /><circle cx="839" cy="469" fill="#ff0000" r="3.5" stroke-width="0" /><circle cx="361" cy="468" fill="#ff0000" r="3.5" stroke-width="0" /><circle cx="851" cy="468" fill="#ff0000" r="3.5" stroke-width="0" /><circle cx="348" cy="463" fill="#ff0000" r="3.5" stroke-width="0" /><circle cx="406" cy="463" fill="#ff0000" r="3.5" stroke-width="0" /><circle cx="795" cy="461" fill="#ff0000" r="3.5" stroke-width="0" /><circle cx="833" cy="459" fill="#ff0000" r="3.5" stroke-width="0" /><circle cx="848" cy="458" fill="#ff0000" r="3.5" stroke-width="0" /><circle cx="834" cy="454" fill="#ff0000" r="3.5" stroke-width="0" /><circle cx="803" cy="453" fill="#ff0000" r="3.5" stroke-width="0" /><circle cx="737" cy="452" fill="#ff0000" r="3.5" stroke-width="0" /><circle cx="764" cy="451" fill="#ff0000" r="3.5" stroke-width="0" /><circle cx="877" cy="447" fill="#ff0000" r="3.5" stroke-width="0" /><circle cx="871" cy="445" fill="#ff0000" r="3.5" stroke-width="0" /><circle cx="771" cy="443" fill="#ff0000" r="3.5" stroke-width="0" /><circle cx="907" cy="441" fill="#ff0000" r="3.5" stroke-width="0" /><circle cx="774" cy="440" fill="#ff0000" r="3.5" stroke-width="0" /><circle cx="853" cy="440" fill="#ff0000" r="3.5" stroke-width="0" /><circle cx="749" cy="433" fill="#ff0000" r="3.5" stroke-width="0" /><circle cx="797" cy="432" fill="#ff0000" r="3.5" stroke-width="0" /><circle cx="379" cy="431" fill="#ff0000" r="3.5" stroke-width="0" /><circle cx="807" cy="429" fill="#ff0000" r="3.5" stroke-width="0" /><circle cx="816" cy="427" fill="#ff0000" r="3.5" stroke-width="0" /><circle cx="851" cy="427" fill="#ff0000" r="3.5" stroke-width="0" /><circle cx="772" cy="424" fill="#ff0000" r="3.5" stroke-width="0" /><circle cx="426" cy="410" fill="#ff0000" r="3.5" stroke-width="0" /><circle cx="792" cy="406" fill="#ff0000" r="3.5" stroke-width="0" /><circle cx="409" cy="404" fill="#ff0000" r="3.5" stroke-width="0" /><circle cx="812" cy="404" fill="#ff0000" r="3.5" stroke-width="0" /><circle cx="826" cy="400" fill="#ff0000" r="3.5" stroke-width="0" /><circle cx="761" cy="398" fill="#ff0000" r="3.5" stroke-width="0" /><circle cx="793" cy="398" fill="#ff0000" r="3.5" stroke-width="0" /><circle cx="884" cy="398" fill="#ff0000" r="3.5" stroke-width="0" /><circle cx="838" cy="397" fill="#ff0000" r="3.5" stroke-width="0" /><circle cx="829" cy="392" fill="#ff0000" r="3.5" stroke-width="0" /><circle cx="893" cy="391" fill="#ff0000" r="3.5" stroke-width="0" /><circle cx="763" cy="388" fill="#ff0000" r="3.5" stroke-width="0" /><circle cx="786" cy="385" fill="#ff0000" r="3.5" stroke-width="0" /><circle cx="773" cy="382" fill="#ff0000" r="3.5" stroke-width="0" /><circle cx="818" cy="381" fill="#ff0000" r="3.5" stroke-width="0" /><circle cx="867" cy="381" fill="#ff0000" r="3.5" stroke-width="0" /><circle cx="901" cy="381" fill="#ff0000" r="3.5" stroke-width="0" /><circle cx="854" cy="380" fill="#ff0000" r="3.5" stroke-width="0" /><circle cx="870" cy="377" fill="#ff0000" r="3.5" stroke-width="0" /><circle cx="838" cy="367" fill="#ff0000" r="3.5" stroke-width="0" /><circle cx="810" cy="366" fill="#ff0000" r="3.5" stroke-width="0" /><circle cx="825" cy="363" fill="#ff0000" r="3.5" stroke-width="0" /><circle cx="880" cy="356" fill="#ff0000" r="3.5" stroke-width="0" /><circle cx="846" cy="354" fill="#ff0000" r="3.5" stroke-width="0" /><circle cx="778" cy="352" fill="#ff0000" r="3.5" stroke-width="0" /><circle cx="775" cy="351" fill="#ff0000" r="3.5" stroke-width="0" /><circle cx="805" cy="350" fill="#ff0000" r="3.5" stroke-width="0" /><circle cx="829" cy="349" fill="#ff0000" r="3.5" stroke-width="0" /><circle cx="849" cy="345" fill="#ff0000" r="3.5" stroke-width="0" /><circle cx="859" cy="341" fill="#ff0000" r="3.5" stroke-width="0" /><circle cx="773" cy="340" fill="#ff0000" r="3.5" stroke-width="0" /><circle cx="750" cy="337" fill="#ff0000" r="3.5" stroke-width="0" /><circle cx="766" cy="333" fill="#ff0000" r="3.5" stroke-width="0" /><circle cx="862" cy="333" fill="#ff0000" r="3.5" stroke-width="0" /><circle cx="748" cy="331" fill="#ff0000" r="3.5" stroke-width="0" /><circle cx="759" cy="330" fill="#ff0000" r="3.5" stroke-width="0" /><circle cx="788" cy="329" fill="#ff0000" r="3.5" stroke-width="0" /><circle cx="765" cy="326" fill="#ff0000" r="3.5" stroke-width="0" /><circle cx="882" cy="322" fill="#ff0000" r="3.5" stroke-width="0" /><circle cx="879" cy="312" fill="#ff0000" r="3.5" stroke-width="0" /><circle cx="781" cy="311" fill="#ff0000" r="3.5" stroke-width="0" /><circle cx="829" cy="308" fill="#ff0000" r="3.5" stroke-width="0" /><circle cx="741" cy="302" fill="#ff0000" r="3.5" stroke-width="0" /><circle cx="846" cy="302" fill="#ff0000" r="3.5" stroke-width="0" /><circle cx="828" cy="299" fill="#ff0000" r="3.5" stroke-width="0" /><circle cx="834" cy="297" fill="#ff0000" r="3.5" stroke-width="0" /><circle cx="862" cy="297" fill="#ff0000" r="3.5" stroke-width="0" /><circle cx="824" cy="296" fill="#ff0000" r="3.5" stroke-width="0" /><circle cx="884" cy="295" fill="#ff0000" r="3.5" stroke-width="0" /><circle cx="724" cy="294" fill="#ff0000" r="3.5" stroke-width="0" /><circle cx="831" cy="293" fill="#ff0000" r="3.5" stroke-width="0" /><circle cx="765" cy="292" fill="#ff0000" r="3.5" stroke-width="0" /><circle cx="919" cy="289" fill="#ff0000" r="3.5" stroke-width="0" /><circle cx="809" cy="288" fill="#ff0000" r="3.5" stroke-width="0" /><circle cx="787" cy="285" fill="#ff0000" r="3.5" stroke-width="0" /><circle cx="848" cy="282" fill="#ff0000" r="3.5" stroke-width="0" /><circle cx="780" cy="266" fill="#ff0000" r="3.5" stroke-width="0" /><circle cx="794" cy="259" fill="#ff0000" r="3.5" stroke-width="0" /><circle cx="769" cy="258" fill="#ff0000" r="3.5" stroke-width="0" /><circle cx="746" cy="256" fill="#ff0000" r="3.5" stroke-width="0" /><circle cx="914" cy="252" fill="#ff0000" r="3.5" stroke-width="0" /><circle cx="841" cy="245" fill="#ff0000" r="3.5" stroke-width="0" /><circle cx="881" cy="244" fill="#ff0000" r="3.5" stroke-width="0" /><circle cx="766" cy="240" fill="#ff0000" r="3.5" stroke-width="0" /><circle cx="827" cy="240" fill="#ff0000" r="3.5" stroke-width="0" /><circle cx="795" cy="239" fill="#ff0000" r="3.5" stroke-width="0" /><circle cx="776" cy="238" fill="#ff0000" r="3.5" stroke-width="0" /><circle cx="836" cy="238" fill="#ff0000" r="3.5" stroke-width="0" /><circle cx="795" cy="226" fill="#ff0000" r="3.5" stroke-width="0" /><circle cx="782" cy="223" fill="#ff0000" r="3.5" stroke-width="0" /><circle cx="823" cy="223" fill="#ff0000" r="3.5" stroke-width="0" /><circle cx="730" cy="219" fill="#ff0000" r="3.5" stroke-width="0" /><circle cx="818" cy="212" fill="#ff0000" r="3.5" stroke-width="0" /><circle cx="786" cy="210" fill="#ff0000" r="3.5" stroke-width="0" /><circle cx="759" cy="208" fill="#ff0000" r="3.5" stroke-width="0" /><circle cx="843" cy="205" fill="#ff0000" r="3.5" stroke-width="0" /><circle cx="869" cy="203" fill="#ff0000" r="3.5" stroke-width="0" /><circle cx="859" cy="202" fill="#ff0000" r="3.5" stroke-width="0" /><circle cx="860" cy="199" fill="#ff0000" r="3.5" stroke-width="0" /><circle cx="814" cy="197" fill="#ff0000" r="3.5" stroke-width="0" /><circle cx="843" cy="197" fill="#ff0000" r="3.5" stroke-width="0" /><circle cx="885" cy="194" fill="#ff0000" r="3.5" stroke-width="0" /><circle cx="869" cy="192" fill="#ff0000" r="3.5" stroke-width="0" /><circle cx="875" cy="192" fill="#ff0000" r="3.5" stroke-width="0" /><circle cx="805" cy="188" fill="#ff0000" r="3.5" stroke-width="0" /><circle cx="809" cy="184" fill="#ff0000" r="3.5" stroke-width="0" /><circle cx="855" cy="184" fill="#ff0000" r="3.5" stroke-width="0" /><circle cx="853" cy="183" fill="#ff0000" r="3.5" stroke-width="0" /><circle cx="824" cy="178" fill="#ff0000" r="3.5" stroke-width="0" /><circle cx="786" cy="174" fill="#ff0000" r="3.5" stroke-width="0" /><circle cx="812" cy="173" fill="#ff0000" r="3.5" stroke-width="0" /><circle cx="843" cy="168" fill="#ff0000" r="3.5" stroke-width="0" /><circle cx="846" cy="164" fill="#ff0000" r="3.5" stroke-width="0" /><circle cx="774" cy="161" fill="#ff0000" r="3.5" stroke-width="0" /><circle cx="790" cy="160" fill="#ff0000" r="3.5" stroke-width="0" /><circle cx="800" cy="155" fill="#ff0000" r="3.5" stroke-width="0" /><circle cx="857" cy="152" fill="#ff0000" r="3.5" stroke-width="0" /><circle cx="785" cy="151" fill="#ff0000" r="3.5" stroke-width="0" /><circle cx="839" cy="144" fill="#ff0000" r="3.5" stroke-width="0" /><circle cx="805" cy="136" fill="#ff0000" r="3.5" stroke-width="0" /><circle cx="843" cy="131" fill="#ff0000" r="3.5" stroke-width="0" /><circle cx="914" cy="124" fill="#ff0000" r="3.5" stroke-width="0" /><circle cx="847" cy="123" fill="#ff0000" r="3.5" stroke-width="0" /><circle cx="763" cy="122" fill="#ff0000" r="3.5" stroke-width="0" /><circle cx="798" cy="121" fill="#ff0000" r="3.5" stroke-width="0" /><circle cx="771" cy="120" fill="#ff0000" r="3.5" stroke-width="0" /><circle cx="780" cy="114" fill="#ff0000" r="3.5" stroke-width="0" /><circle cx="867" cy="105" fill="#ff0000" r="3.5" stroke-width="0" /><circle cx="851" cy="104" fill="#ff0000" r="3.5" stroke-width="0" /><circle cx="786" cy="92" fill="#ff0000" r="3.5" stroke-width="0" /><circle cx="888" cy="91" fill="#ff0000" r="3.5" stroke-width="0" /><circle cx="824" cy="77" fill="#ff0000" r="3.5" stroke-width="0" /></g><g class="e2"><circle cx="269" cy="536" fill="#2b92db" r="3.5" stroke-width="0" /><circle cx="250" cy="533" fill="#2b92db" r="3.5" stroke-width="0" /><circle cx="228" cy="525" fill="#2b92db" r="3.5" stroke-width="0" /><circle cx="234" cy="502" fill="#2b92db" r="3.5" stroke-width="0" /><circle cx="283" cy="502" fill="#2b92db" r="3.5" stroke-width="0" /><circle cx="299" cy="497" fill="#2b92db" r="3.5" stroke-width="0" /><circle cx="264" cy="480" fill="#2b92db" r="3.5" stroke-width="0" /><circle cx="317" cy="467" fill="#2b92db" r="3.5" stroke-width="0" /><circle cx="326" cy="464" fill="#2b92db" r="3.5" stroke-width="0" /><circle cx="294" cy="457" fill="#2b92db" r="3.5" stroke-width="0" /><circle cx="347" cy="454" fill="#2b92db" r="3.5" stroke-width="0" /><circle cx="333" cy="451" fill="#2b92db" r="3.5" stroke-width="0" /><circle cx="247" cy="450" fill="#2b92db" r="3.5" stroke-width="0" /><circle cx="342" cy="449" fill="#2b92db" r="3.5" stroke-width="0" /><circle cx="305" cy="447" fill="#2b92db" r="3.5" stroke-width="0" /><circle cx="310" cy="446" fill="#2b92db" r="3.5" stroke-width="0" /><circle cx="315" cy="440" fill="#2b92db" r="3.5" stroke-width="0" /><circle cx="292" cy="437" fill="#2b92db" r="3.5" stroke-width="0" /><circle cx="335" cy="437" fill="#2b92db" r="3.5" stroke-width="0" /><circle cx="280" cy="435" fill="#2b92db" r="3.5" stroke-width="0" /><circle cx="318" cy="434" fill="#2b92db" r="3.5" stroke-width="0" /><circle cx="275" cy="430" fill="#2b92db" r="3.5" stroke-width="0" /><circle cx="318" cy="425" fill="#2b92db" r="3.5" stroke-width="0" /><circle cx="380" cy="419" fill="#2b92db" r="3.5" stroke-width="0" /><circle cx="321" cy="415" fill="#2b92db" r="3.5" stroke-width="0" /><circle cx="348" cy="413" fill="#2b92db" r="3.5" stroke-width="0" /><circle cx="396" cy="411" fill="#2b92db" r="3.5" stroke-width="0" /><circle cx="363" cy="410" fill="#2b92db" r="3.5" stroke-width="0" /><circle cx="289" cy="409" fill="#2b92db" r="3.5" stroke-width="0" /><circle cx="324" cy="407" fill="#2b92db" r="3.5" stroke-width="0" /><circle cx="313" cy="406" fill="#2b92db" r="3.5" stroke-width="0" /><circle cx="285" cy="405" fill="#2b92db" r="3.5" stroke-width="0" /><circle cx="338" cy="405" fill="#2b92db" r="3.5" stroke-width="0" /><circle cx="348" cy="405" fill="#2b92db" r="3.5" stroke-width="0" /><circle cx="357" cy="403" fill="#2b92db" r="3.5" stroke-width="0" /><circle cx="275" cy="400" fill="#2b92db" r="3.5" stroke-width="0" /><circle cx="362" cy="396" fill="#2b92db" r="3.5" stroke-width="0" /><circle cx="337" cy="392" fill="#2b92db" r="3.5" stroke-width="0" /><circle cx="264" cy="391" fill="#2b92db" r="3.5" stroke-width="0" /><circle cx="311" cy="391" fill="#2b92db" r="3.5" stroke-width="0" /><circle cx="334" cy="389" fill="#2b92db" r="3.5" stroke-width="0" /><circle cx="358" cy="387" fill="#2b92db" r="3.5" stroke-width="0" /><circle cx="331" cy="380" fill="#2b92db" r="3.5" stroke-width="0" /><circle cx="362" cy="380" fill="#2b92db" r="3.5" stroke-width="0" /><circle cx="379" cy="380" fill="#2b92db" r="3.5" stroke-width="0" /><circle cx="234" cy="376" fill="#2b92db" r="3.5" stroke-width="0" /><circle cx="281" cy="376" fill="#2b92db" r="3.5" stroke-width="0" /><circle cx="297" cy="376" fill="#2b92db" r="3.5" stroke-width="0" /><circle cx="355" cy="375" fill="#2b92db" r="3.5" stroke-width="0" /><circle cx="380" cy="374" fill="#2b92db" r="3.5" stroke-width="0" /><circle cx="336" cy="371" fill="#2b92db" r="3.5" stroke-width="0" /><circle cx="290" cy="365" fill="#2b92db" r="3.5" stroke-width="0" /><circle cx="320" cy="364" fill="#2b92db" r="3.5" stroke-width="0" /><circle cx="356" cy="364" fill="#2b92db" r="3.5" stroke-width="0" /><circle cx="406" cy="360" fill="#2b92db" r="3.5" stroke-width="0" /><circle cx="307" cy="359" fill="#2b92db" r="3.5" stroke-width="0" /><circle cx="416" cy="359" fill="#2b92db" r="3.5" stroke-width="0" /><circle cx="265" cy="357" fill="#2b92db" r="3.5" stroke-width="0" /><circle cx="310" cy="357" fill="#2b92db" r="3.5" stroke-width="0" /><circle cx="377" cy="350" fill="#2b92db" r="3.5" stroke-width="0" /><circle cx="270" cy="347" fill="#2b92db" r="3.5" stroke-width="0" /><circle cx="377" cy="344" fill="#2b92db" r="3.5" stroke-width="0" /><circle cx="390" cy="344" fill="#2b92db" r="3.5" stroke-width="0" /><circle cx="384" cy="343" fill="#2b92db" r="3.5" stroke-width="0" /><circle cx="381" cy="341" fill="#2b92db" r="3.5" stroke-width="0" /><circle cx="287" cy="336" fill="#2b92db" r="3.5" stroke-width="0" /><circle cx="328" cy="335" fill="#2b92db" r="3.5" stroke-width="0" /><circle cx="223" cy="333" fill="#2b92db" r="3.5" stroke-width="0" /><circle cx="281" cy="328" fill="#2b92db" r="3.5" stroke-width="0" /><circle cx="319" cy="326" fill="#2b92db" r="3.5" stroke-width="0" /><circle cx="337" cy="326" fill="#2b92db" r="3.5" stroke-width="0" /><circle cx="359" cy="316" fill="#2b92db" r="3.5" stroke-width="0" /><circle cx="296" cy="315" fill="#2b92db" r="3.5" stroke-width="0" /><circle cx="350" cy="312" fill="#2b92db" r="3.5" stroke-width="0" /><circle cx="385" cy="305" fill="#2b92db" r="3.5" stroke-width="0" /><circle cx="349" cy="303" fill="#2b92db" r="3.5" stroke-width="0" /><circle cx="389" cy="301" fill="#2b92db" r="3.5" stroke-width="0" /><circle cx="347" cy="299" fill="#2b92db" r="3.5" stroke-width="0" /><circle cx="293" cy="289" fill="#2b92db" r="3.5" stroke-width="0" /><circle cx="372" cy="288" fill="#2b92db" r="3.5" stroke-width="0" /><circle cx="204" cy="287" fill="#2b92db" r="3.5" stroke-width="0" /><circle cx="275" cy="286" fill="#2b92db" r="3.5" stroke-width="0" /><circle cx="297" cy="284" fill="#2b92db" r="3.5" stroke-width="0" /><circle cx="282" cy="283" fill="#2b92db" r="3.5" stroke-width="0" /><circle cx="353" cy="282" fill="#2b92db" r="3.5" stroke-width="0" /><circle cx="360" cy="279" fill="#2b92db" r="3.5" stroke-width="0" /><circle cx="344" cy="278" fill="#2b92db" r="3.5" stroke-width="0" /><circle cx="329" cy="274" fill="#2b92db" r="3.5" stroke-width="0" /><circle cx="249" cy="266" fill="#2b92db" r="3.5" stroke-width="0" /><circle cx="263" cy="266" fill="#2b92db" r="3.5" stroke-width="0" /><circle cx="319" cy="266" fill="#2b92db" r="3.5" stroke-width="0" /><circle cx="302" cy="265" fill="#2b92db" r="3.5" stroke-width="0" /><circle cx="311" cy="263" fill="#2b92db" r="3.5" stroke-width="0" /><circle cx="282" cy="258" fill="#2b92db" r="3.5" stroke-width="0" /><circle cx="337" cy="258" fill="#2b92db" r="3.5" stroke-width="0" /><circle cx="400" cy="257" fill="#2b92db" r="3.5" stroke-width="0" /><circle cx="364" cy="254" fill="#2b92db" r="3.5" stroke-width="0" /><circle cx="242" cy="250" fill="#2b92db" r="3.5" stroke-width="0" /><circle cx="319" cy="248" fill="#2b92db" r="3.5" stroke-width="0" /><circle cx="320" cy="247" fill="#2b92db" r="3.5" stroke-width="0" /><circle cx="267" cy="246" fill="#2b92db" r="3.5" stroke-width="0" /><circle cx="325" cy="246" fill="#2b92db" r="3.5" stroke-width="0" /><circle cx="319" cy="242" fill="#2b92db" r="3.5" stroke-width="0" /><circle cx="342" cy="239" fill="#2b92db" r="3.5" stroke-width="0" /><circle cx="331" cy="238" fill="#2b92db" r="3.5" stroke-width="0" /><circle cx="295" cy="236" fill="#2b92db" r="3.5" stroke-width="0" /><circle cx="299" cy="224" fill="#2b92db" r="3.5" stroke-width="0" /><circle cx="333" cy="223" fill="#2b92db" r="3.5" stroke-width="0" /><circle cx="298" cy="219" fill="#2b92db" r="3.5" stroke-width="0" /><circle cx="332" cy="216" fill="#2b92db" r="3.5" stroke-width="0" /><circle cx="340" cy="215" fill="#2b92db" r="3.5" stroke-width="0" /><circle cx="392" cy="215" fill="#2b92db" r="3.5" stroke-width="0" /><circle cx="373" cy="213" fill="#2b92db" r="3.5" stroke-width="0" /><circle cx="280" cy="212" fill="#2b92db" r="3.5" stroke-width="0" /><circle cx="371" cy="210" fill="#2b92db" r="3.5" stroke-width="0" /><circle cx="222" cy="207" fill="#2b92db" r="3.5" stroke-width="0" /><circle cx="327" cy="207" fill="#2b92db" r="3.5" stroke-width="0" /><circle cx="365" cy="203" fill="#2b92db" r="3.5" stroke-width="0" /><circle cx="292" cy="197" fill="#2b92db" r="3.5" stroke-width="0" /><circle cx="296" cy="197" fill="#2b92db" r="3.5" stroke-width="0" /><circle cx="298" cy="193" fill="#2b92db" r="3.5" stroke-width="0" /><circle cx="345" cy="192" fill="#2b92db" r="3.5" stroke-width="0" /><circle cx="392" cy="191" fill="#2b92db" r="3.5" stroke-width="0" /><circle cx="366" cy="188" fill="#2b92db" r="3.5" stroke-width="0" /><circle cx="351" cy="186" fill="#2b92db" r="3.5" stroke-width="0" /><circle cx="303" cy="178" fill="#2b92db" r="3.5" stroke-width="0" /><circle cx="319" cy="173" fill="#2b92db" r="3.5" stroke-width="0" /><circle cx="327" cy="169" fill="#2b92db" r="3.5" stroke-width="0" /><circle cx="357" cy="169" fill="#2b92db" r="3.5" stroke-width="0" /><circle cx="314" cy="149" fill="#2b92db" r="3.5" stroke-width="0" /><circle cx="342" cy="142" fill="#2b92db" r="3.5" stroke-width="0" /><circle cx="353" cy="142" fill="#2b92db" r="3.5" stroke-width="0" /><circle cx="390" cy="140" fill="#2b92db" r="3.5" stroke-width="0" /><circle cx="305" cy="135" fill="#2b92db" r="3.5" stroke-width="0" /><circle cx="372" cy="135" fill="#2b92db" r="3.5" stroke-width="0" /><circle cx="336" cy="129" fill="#2b92db" r="3.5" stroke-width="0" /><circle cx="386" cy="127" fill="#2b92db" r="3.5" stroke-width="0" /><circle cx="263" cy="124" fill="#2b92db" r="3.5" stroke-width="0" /><circle cx="302" cy="120" fill="#2b92db" r="3.5" stroke-width="0" /><circle cx="291" cy="119" fill="#2b92db" r="3.5" stroke-width="0" /><circle cx="220" cy="103" fill="#2b92db" r="3.5" stroke-width="0" /><circle cx="347" cy="102" fill="#2b92db" r="3.5" stroke-width="0" /><circle cx="353" cy="99" fill="#2b92db" r="3.5" stroke-width="0" /><circle cx="281" cy="98" fill="#2b92db" r="3.5" stroke-width="0" /><circle cx="309" cy="94" fill="#2b92db" r="3.5" stroke-width="0" /><circle cx="353" cy="88" fill="#2b92db" r="3.5" stroke-width="0" /><circle cx="232" cy="87" fill="#2b92db" r="3.5" stroke-width="0" /><circle cx="286" cy="86" fill="#2b92db" r="3.5" stroke-width="0" /><circle cx="364" cy="86" fill="#2b92db" r="3.5" stroke-width="0" /><circle cx="321" cy="82" fill="#2b92db" r="3.5" stroke-width="0" /><circle cx="302" cy="81" fill="#2b92db" r="3.5" stroke-width="0" /><circle cx="263" cy="78" fill="#2b92db" r="3.5" stroke-width="0" /></g></g></g></svg>