<?xml version="1.0" encoding="utf-8" ?>
<svg baseProfile="full" height="1140px" style="font-size:15;font-family:Arial, san-serif;font-weight:bold;stroke:black;stroke-width:0;fill:#444444" version="1.1" width="1140px" xmlns="http://www.w3.org/2000/svg" xmlns:ev="http://www.w3.org/2001/xml-events" xmlns:xlink="http://www.w3.org/1999/xlink"><defs><clipPath id="areadografico"><rect height="1000" width="1000" x="70" y="70" /></clipPath></defs><g class="master"><g class="poligonos"><polygon clip-path="url(#areadografico)" fill="#000000" fill-opacity="0.1" points="1069,1070 1069,405 405,1070" /><polygon clip-path="url(#areadografico)" fill="#ffffff" fill-opacity="0.1" points="405,1070 -261,1070 1069,-261 1069,405" /><polygon clip-path="url(#areadografico)" fill="#000000" fill-opacity="0.1" points="70,70 70,738 738,70" /></g><g class="linhas"><line fill-opacity="0.3" stroke="#999999" stroke-width="1" x1="1070" x2="1070" y1="1070" y2="70" /><line fill-opacity="0.3" stroke="#999999" stroke-width="1" x1="70" x2="1070" y1="70" y2="70" /><line fill-opacity="0.3" stroke="#999999" stroke-width="1" x1="970" x2="970" y1="1070" y2="70" /><line fill-opacity="0.3" stroke="#999999" stroke-width="1" x1="70" x2="1070" y1="170" y2="170" /><line fill-opacity="0.3" stroke="#999999" stroke-width="1" x1="870" x2="870" y1="1070" y2="70" /><line fill-opacity="0.3" stroke="#999999" stroke-width="1" x1="70" x2="1070" y1="270" y2="270" /><line fill-opacity="0.3" stroke="#999999" stroke-width="1" x1="770" x2="770" y1="1070" y2="70" /><line fill-opacity="0.3" stroke="#999999" stroke-width="1" x1="70" x2="1070" y1="370" y2="370" /><line fill-opacity="0.3" stroke="#999999" stroke-width="1" x1="670" x2="670" y1="1070" y2="70" /><line fill-opacity="0.3" stroke="#999999" stroke-width="1" x1="70" x2="1070" y1="470" y2="470" /><line fill-opacity="0.3" stroke="#999999" stroke-width="1" x1="570" x2="570" y1="1070" y2="70" /><line fill-opacity="0.3" stroke="#999999" stroke-width="1" x1="70" x2="1070" y1="570" y2="570" /><line fill-opacity="0.3" stroke="#999999" stroke-width="1" x1="470" x2="470" y1="1070" y2="70" /><line fill-opacity="0.3" stroke="#999999" stroke-width="1" x1="70" x2="1070" y1="670" y2="670" /><line fill-opacity="0.3" stroke="#999999" stroke-width="1" x1="370" x2="370" y1="1070" y2="70" /><line fill-opacity="0.3" stroke="#999999" stroke-width="1" x1="70" x2="1070" y1="770" y2="770" /><line fill-opacity="0.3" stroke="#999999" stroke-width="1" x1="270" x2="270" y1="1070" y2="70" /><line fill-opacity="0.3" stroke="#999999" stroke-width="1" x1="70" x2="1070" y1="870" y2="870" /><line fill-opacity="0.3" stroke="#999999" stroke-width="1" x1="170" x2="170" y1="1070" y2="70" /><line fill-opacity="0.3" stroke="#999999" stroke-width="1" x1="70" x2="1070" y1="970" y2="970" /><line fill-opacity="0.3" stroke="#000000" stroke-width="1" x1="70" x2="70" y1="1071" y2="69" /><line fill-opacity="0.3" stroke="#000000" stroke-width="1" x1="69" x2="1071" y1="1070" y2="1070" /></g><g class="textos"><text x="1050" y="1110">1000</text><text x="10" y="71">1000</text><text x="950" y="1110">900</text><text x="10" y="171">900</text><text x="850" y="1110">800</text><text x="10" y="271">800</text><text x="750" y="1110">700</text><text x="10" y="371">700</text><text x="650" y="1110">600</text><text x="10" y="471">600</text><text x="550" y="1110">500</text><text x="10" y="571">500</text><text x="450" y="1110">400</text><text x="10" y="671">400</text><text x="350" y="1110">300</text><text x="10" y="771">300</text><text x="250" y="1110">200</text><text x="10" y="871">200</text><text x="150" y="1110">100</text><text x="10" y="971">100</text><text x="50" y="1111">0</text><text x="9" y="1071">0</text></g><g class="especies"><g class="e0"><circle cx="849" cy="1058" fill="#3cb44B" r="3.5" stroke-width="0" /><circle cx="823" cy="1022" fill="#3cb44B" r="3.5" stroke-width="0" /><circle cx="790" cy="1006" fill="#3cb44B" r="3.5" stroke-width="0" /><circle cx="892" cy="984" fill="#3cb44B" r="3.5" stroke-width="0" /><circle cx="767" cy="948" fill="#3cb44B" r="3.5" stroke-width="0" /><circle cx="828" cy="916" fill="#3cb44B" r="3.5" stroke-width="0" /><circle cx="863" cy="901" fill="#3cb44B" r="3.5" stroke-width="0" /><circle cx="794" cy="890" fill="#3cb44B" r="3.5" stroke-width="0" /><circle cx="822" cy="890" fill="#3cb44B" r="3.5" stroke-width="0" /><circle cx="703" cy="860" fill="#3cb44B" r="3.5" stroke-width="0" /><circle cx="649" cy="832" fill="#3cb44B" r="3.5" stroke-width="0" /><circle cx="852" cy="810" fill="#3cb44B" r="3.5" stroke-width="0" /><circle cx="756" cy="774" fill="#3cb44B" r="3.5" stroke-width="0" /><circle cx="871" cy="769" fill="#3cb44B" r="3.5" stroke-width="0" /><circle cx="837" cy="743" fill="#3cb44B" r="3.5" stroke-width="0" /><circle cx="796" cy="741" fill="#3cb44B" r="3.5" stroke-width="0" /><circle cx="900" cy="733" fill="#3cb44B" r="3.5" stroke-width="0" /><circle cx="798" cy="727" fill="#3cb44B" r="3.5" stroke-width="0" /><circle cx="834" cy="718" fill="#3cb44B" r="3.5" stroke-width="0" /><circle cx="842" cy="711" fill="#3cb44B" r="3.5" stroke-width="0" /><circle cx="824" cy="687" fill="#3cb44B" r="3.5" stroke-width="0" /><circle cx="858" cy="647" fill="#3cb44B" r="3.5" stroke-width="0" /><circle cx="895" cy="646" fill="#3cb44B" r="3.5" stroke-width="0" /></g><g class="e1"><circle cx="394" cy="1049" fill="#ff0000" r="3.5" stroke-width="0" /><circle cx="383" cy="1027" fill="#ff0000" r="3.5" stroke-width="0" /><circle cx="234" cy="972" fill="#ff0000" r="3.5" stroke-width="0" /><circle cx="248" cy="960" fill="#ff0000" r="3.5" stroke-width="0" /><circle cx="382" cy="934" fill="#ff0000" r="3.5" stroke-width="0" /><circle cx="254" cy="916" fill="#ff0000" r="3.5" stroke-width="0" /><circle cx="279" cy="864" fill="#ff0000" r="3.5" stroke-width="0" /><circle cx="306" cy="841" fill="#ff0000" r="3.5" stroke-width="0" /><circle cx="234" cy="835" fill="#ff0000" r="3.5" stroke-width="0" /><circle cx="289" cy="794" fill="#ff0000" r="3.5" stroke-width="0" /><circle cx="395" cy="782" fill="#ff0000" r="3.5" stroke-width="0" /><circle cx="259" cy="753" fill="#ff0000" r="3.5" stroke-width="0" /><circle cx="717" cy="741" fill="#ff0000" r="3.5" stroke-width="0" /><circle cx="371" cy="729" fill="#ff0000" r="3.5" stroke-width="0" /><circle cx="316" cy="719" fill="#ff0000" r="3.5" stroke-width="0" /><circle cx="292" cy="715" fill="#ff0000" r="3.5" stroke-width="0" /><circle cx="363" cy="714" fill="#ff0000" r="3.5" stroke-width="0" /><circle cx="377" cy="702" fill="#ff0000" r="3.5" stroke-width="0" /><circle cx="472" cy="702" fill="#ff0000" r="3.5" stroke-width="0" /><circle cx="323" cy="695" fill="#ff0000" r="3.5" stroke-width="0" /><circle cx="191" cy="690" fill="#ff0000" r="3.5" stroke-width="0" /><circle cx="326" cy="646" fill="#ff0000" r="3.5" stroke-width="0" /><circle cx="735" cy="645" fill="#ff0000" r="3.5" stroke-width="0" /><circle cx="276" cy="644" fill="#ff0000" r="3.5" stroke-width="0" /><circle cx="379" cy="641" fill="#ff0000" r="3.5" stroke-width="0" /><circle cx="637" cy="641" fill="#ff0000" r="3.5" stroke-width="0" /><circle cx="821" cy="608" fill="#ff0000" r="3.5" stroke-width="0" /><circle cx="727" cy="603" fill="#ff0000" r="3.5" stroke-width="0" /><circle cx="453" cy="601" fill="#ff0000" r="3.5" stroke-width="0" /><circle cx="358" cy="573" fill="#ff0000" r="3.5" stroke-width="0" /><circle cx="292" cy="572" fill="#ff0000" r="3.5" stroke-width="0" /><circle cx="365" cy="572" fill="#ff0000" r="3.5" stroke-width="0" /><circle cx="307" cy="571" fill="#ff0000" r="3.5" stroke-width="0" /><circle cx="405" cy="568" fill="#ff0000" r="3.5" stroke-width="0" /><circle cx="294" cy="567" fill="#ff0000" r="3.5" stroke-width="0" /><circle cx="774" cy="561" fill="#ff0000" r="3.5" stroke-width="0" /><circle cx="868" cy="559" fill="#ff0000" r="3.5" stroke-width="0" /><circle cx="432" cy="528" fill="#ff0000" r="3.5" stroke-width="0" /><circle cx="305" cy="524" fill="#ff0000" r="3.5" stroke-width="0" /><circle cx="799" cy="495" fill="#ff0000" r="3.5" stroke-width="0" /><circle cx="332" cy="492" fill="#ff0000" r="3.5" stroke-width="0" /><circle cx="843" cy="479" fill="#ff0000" r="3.5" stroke-width="0" /><circle cx="839" cy="471" fill="#ff0000" r="3.5" stroke-width="0" /><circle cx="891" cy="457" fill="#ff0000" r="3.5" stroke-width="0" /><circle cx="903" cy="453" fill="#ff0000" r="3.5" stroke-width="0" /><circle cx="776" cy="440" fill="#ff0000" r="3.5" stroke-width="0" /><circle cx="844" cy="436" fill="#ff0000" r="3.5" stroke-width="0" /><circle cx="885" cy="408" fill="#ff0000" r="3.5" stroke-width="0" /><circle cx="836" cy="397" fill="#ff0000" r="3.5" stroke-width="0" /><circle cx="865" cy="395" fill="#ff0000" r="3.5" stroke-width="0" /><circle cx="902" cy="381" fill="#ff0000" r="3.5" stroke-width="0" /><circle cx="850" cy="371" fill="#ff0000" r="3.5" stroke-width="0" /><circle cx="724" cy="354" fill="#ff0000" r="3.5" stroke-width="0" /><circle cx="741" cy="343" fill="#ff0000" r="3.5" stroke-width="0" /><circle cx="952" cy="343" fill="#ff0000" r="3.5" stroke-width="0" /><circle cx="853" cy="337" fill="#ff0000" r="3.5" stroke-width="0" /><circle cx="764" cy="336" fill="#ff0000" r="3.5" stroke-width="0" /><circle cx="783" cy="327" fill="#ff0000" r="3.5" stroke-width="0" /><circle cx="745" cy="322" fill="#ff0000" r="3.5" stroke-width="0" /><circle cx="867" cy="319" fill="#ff0000" r="3.5" stroke-width="0" /><circle cx="890" cy="319" fill="#ff0000" r="3.5" stroke-width="0" /><circle cx="732" cy="293" fill="#ff0000" r="3.5" stroke-width="0" /><circle cx="812" cy="275" fill="#ff0000" r="3.5" stroke-width="0" /><circle cx="847" cy="248" fill="#ff0000" r="3.5" stroke-width="0" /><circle cx="887" cy="240" fill="#ff0000" r="3.5" stroke-width="0" /><circle cx="845" cy="230" fill="#ff0000" r="3.5" stroke-width="0" /><circle cx="856" cy="221" fill="#ff0000" r="3.5" stroke-width="0" /><circle cx="888" cy="194" fill="#ff0000" r="3.5" stroke-width="0" /><circle cx="672" cy="181" fill="#ff0000" r="3.5" stroke-width="0" /><circle cx="913" cy="143" fill="#ff0000" r="3.5" stroke-width="0" /><circle cx="778" cy="142" fill="#ff0000" r="3.5" stroke-width="0" /><circle cx="880" cy="138" fill="#ff0000" r="3.5" stroke-width="0" /><circle cx="941" cy="128" fill="#ff0000" r="3.5" stroke-width="0" /><circle cx="777" cy="115" fill="#ff0000" r="3.5" stroke-width="0" /><circle cx="957" cy="105" fill="#ff0000" r="3.5" stroke-width="0" /></g><g class="e2"><circle cx="119" cy="594" fill="#2b92db" r="3.5" stroke-width="0" /><circle cx="247" cy="550" fill="#2b92db" r="3.5" stroke-width="0" /><circle cx="256" cy="520" fill="#2b92db" r="3.5" stroke-width="0" /><circle cx="276" cy="519" fill="#2b92db" r="3.5" stroke-width="0" /><circle cx="290" cy="506" fill="#2b92db" r="3.5" stroke-width="0" /><circle cx="209" cy="503" fill="#2b92db" r="3.5" stroke-width="0" /><circle cx="329" cy="464" fill="#2b92db" r="3.5" stroke-width="0" /><circle cx="198" cy="460" fill="#2b92db" r="3.5" stroke-width="0" /><circle cx="256" cy="443" fill="#2b92db" r="3.5" stroke-width="0" /><circle cx="214" cy="440" fill="#2b92db" r="3.5" stroke-width="0" /><circle cx="323" cy="432" fill="#2b92db" r="3.5" stroke-width="0" /><circle cx="331" cy="424" fill="#2b92db" r="3.5" stroke-width="0" /><circle cx="247" cy="413" fill="#2b92db" r="3.5" stroke-width="0" /><circle cx="345" cy="361" fill="#2b92db" r="3.5" stroke-width="0" /><circle cx="276" cy="360" fill="#2b92db" r="3.5" stroke-width="0" /><circle cx="361" cy="348" fill="#2b92db" r="3.5" stroke-width="0" /><circle cx="350" cy="330" fill="#2b92db" r="3.5" stroke-width="0" /><circle cx="354" cy="322" fill="#2b92db" r="3.5" stroke-width="0" /><circle cx="357" cy="300" fill="#2b92db" r="3.5" stroke-width="0" /><circle cx="354" cy="276" fill="#2b92db" r="3.5" stroke-width="0" /><circle cx="331" cy="265" fill="#2b92db" r="3.5" stroke-width="0" /><circle cx="322" cy="248" fill="#2b92db" r="3.5" stroke-width="0" /><circle cx="257" cy="200" fill="#2b92db" r="3.5" stroke-width="0" /><circle cx="190" cy="172" fill="#2b92db" r="3.5" stroke-width="0" /><circle cx="632" cy="161" fill="#2b92db" r="3.5" stroke-width="0" /><circle cx="327" cy="134" fill="#2b92db" r="3.5" stroke-width="0" /></g></g></g></svg>