<?xml version="1.0" encoding="utf-8" ?>
<svg baseProfile="full" height="1140px" style="font-size:15;font-family:Arial, san-serif;font-weight:bold;stroke:black;stroke-width:0;fill:#444444" version="1.1" width="1140px" xmlns="http://www.w3.org/2000/svg" xmlns:ev="http://www.w3.org/2001/xml-events" xmlns:xlink="http://www.w3.org/1999/xlink"><defs><clipPath id="areadografico"><rect height="1000" width="1000" x="70" y="70" /></clipPath></defs><g class="master"><g class="poligonos"><polygon clip-path="url(#areadografico)" fill="#000000" fill-opacity="0.1" points="1069,1070 1069,785 785,1070" /><polygon clip-path="url(#areadografico)" fill="#ffffff" fill-opacity="0.1" points="785,1070 499,1070 1069,499 1069,785" /><polygon clip-path="url(#areadografico)" fill="#000000" fill-opacity="0.1" points="499,1070 214,1070 1069,214 1069,499" /><polygon clip-path="url(#areadografico)" fill="#ffffff" fill-opacity="0.1" points="214,1070 -72,1070 1069,-72 1069,214" /><polygon clip-path="url(#areadografico)" fill="#000000" fill-opacity="0.1" points="-72,1070 -358,1070 1069,-358 1069,-72" /><polygon clip-path="url(#areadografico)" fill="#ffffff" fill-opacity="0.1" points="-358,1070 -643,1070 1069,-643 1069,-358" /><polygon clip-path="url(#areadografico)" fill="#000000" fill-opacity="0.1" points="70,70 70,356 356,70" /></g><g class="linhas"><line fill-opacity="0.3" stroke="#999999" stroke-width="1" x1="1070" x2="1070" y1="1070" y2="70" /><line fill-opacity="0.3" stroke="#999999" stroke-width="1" x1="70" x2="1070" y1="70" y2="70" /><line fill-opacity="0.3" stroke="#999999" stroke-width="1" x1="970" x2="970" y1="1070" y2="70" /><line fill-opacity="0.3" stroke="#999999" stroke-width="1" x1="70" x2="1070" y1="170" y2="170" /><line fill-opacity="0.3" stroke="#999999" stroke-width="1" x1="870" x2="870" y1="1070" y2="70" /><line fill-opacity="0.3" stroke="#999999" stroke-width="1" x1="70" x2="1070" y1="270" y2="270" /><line fill-opacity="0.3" stroke="#999999" stroke-width="1" x1="770" x2="770" y1="1070" y2="70" /><line fill-opacity="0.3" stroke="#999999" stroke-width="1" x1="70" x2="1070" y1="370" y2="370" /><line fill-opacity="0.3" stroke="#999999" stroke-width="1" x1="670" x2="670" y1="1070" y2="70" /><line fill-opacity="0.3" stroke="#999999" stroke-width="1" x1="70" x2="1070" y1="470" y2="470" /><line fill-opacity="0.3" stroke="#999999" stroke-width="1" x1="570" x2="570" y1="1070" y2="70" /><line fill-opacity="0.3" stroke="#999999" stroke-width="1" x1="70" x2="1070" y1="570" y2="570" /><line fill-opacity="0.3" stroke="#999999" stroke-width="1" x1="470" x2="470" y1="1070" y2="70" /><line fill-opacity="0.3" stroke="#999999" stroke-width="1" x1="70" x2="1070" y1="670" y2="670" /><line fill-opacity="0.3" stroke="#999999" stroke-width="1" x1="370" x2="370" y1="1070" y2="70" /><line fill-opacity="0.3" stroke="#999999" stroke-width="1" x1="70" x2="1070" y1="770" y2="770" /><line fill-opacity="0.3" stroke="#999999" stroke-width="1" x1="270" x2="270" y1="1070" y2="70" /><line fill-opacity="0.3" stroke="#999999" stroke-width="1" x1="70" x2="1070" y1="870" y2="870" /><line fill-opacity="0.3" stroke="#999999" stroke-width="1" x1="170" x2="170" y1="1070" y2="70" /><line fill-opacity="0.3" stroke="#999999" stroke-width="1" x1="70" x2="1070" y1="970" y2="970" /><line fill-opacity="0.3" stroke="#000000" stroke-width="1" x1="70" x2="70" y1="1071" y2="69" /><line fill-opacity="0.3" stroke="#000000" stroke-width="1" x1="69" x2="1071" y1="1070" y2="1070" /></g><g class="textos"><text x="1050" y="1110">1000</text><text x="10" y="71">1000</text><text x="950" y="1110">900</text><text x="10" y="171">900</text><text x="850" y="1110">800</text><text x="10" y="271">800</text><text x="750" y="1110">700</text><text x="10" y="371">700</text><text x="650" y="1110">600</text><text x="10" y="471">600</text><text x="550" y="1110">500</text><text x="10" y="571">500</text><text x="450" y="1110">400</text><text x="10" y="671">400</text><text x="350" y="1110">300</text><text x="10" y="771">300</text><text x="250" y="1110">200</text><text x="10" y="871">200</text><text x="150" y="1110">100</text><text x="10" y="971">100</text><text x="50" y="1111">0</text><text x="9" y="1071">0</text></g><g class="especies"><g class="e0"><circle cx="844" cy="1017" fill="#3cb44B" r="3.5" stroke-width="0" /><circle cx="888" cy="1013" fill="#3cb44B" r="3.5" stroke-width="0" /></g><g class="e1"><circle cx="788" cy="1059" fill="#ff0000" r="3.5" stroke-width="0" /><circle cx="774" cy="1040" fill="#ff0000" r="3.5" stroke-width="0" /><circle cx="765" cy="1038" fill="#ff0000" r="3.5" stroke-width="0" /><circle cx="705" cy="1033" fill="#ff0000" r="3.5" stroke-width="0" /><circle cx="821" cy="1031" fill="#ff0000" r="3.5" stroke-width="0" /><circle cx="743" cy="1022" fill="#ff0000" r="3.5" stroke-width="0" /><circle cx="766" cy="966" fill="#ff0000" r="3.5" stroke-width="0" /><circle cx="887" cy="952" fill="#ff0000" r="3.5" stroke-width="0" /><circle cx="867" cy="946" fill="#ff0000" r="3.5" stroke-width="0" /><circle cx="779" cy="942" fill="#ff0000" r="3.5" stroke-width="0" /><circle cx="884" cy="933" fill="#ff0000" r="3.5" stroke-width="0" /><circle cx="757" cy="927" fill="#ff0000" r="3.5" stroke-width="0" /><circle cx="868" cy="925" fill="#ff0000" r="3.5" stroke-width="0" /><circle cx="770" cy="917" fill="#ff0000" r="3.5" stroke-width="0" /><circle cx="740" cy="909" fill="#ff0000" r="3.5" stroke-width="0" /><circle cx="846" cy="905" fill="#ff0000" r="3.5" stroke-width="0" /><circle cx="758" cy="883" fill="#ff0000" r="3.5" stroke-width="0" /><circle cx="823" cy="844" fill="#ff0000" r="3.5" stroke-width="0" /><circle cx="791" cy="839" fill="#ff0000" r="3.5" stroke-width="0" /><circle cx="874" cy="831" fill="#ff0000" r="3.5" stroke-width="0" /><circle cx="775" cy="826" fill="#ff0000" r="3.5" stroke-width="0" /><circle cx="782" cy="820" fill="#ff0000" r="3.5" stroke-width="0" /><circle cx="864" cy="786" fill="#ff0000" r="3.5" stroke-width="0" /><circle cx="889" cy="771" fill="#ff0000" r="3.5" stroke-width="0" /><circle cx="858" cy="763" fill="#ff0000" r="3.5" stroke-width="0" /><circle cx="903" cy="744" fill="#ff0000" r="3.5" stroke-width="0" /><circle cx="943" cy="728" fill="#ff0000" r="3.5" stroke-width="0" /></g><g class="e2"><circle cx="287" cy="1042" fill="#2b92db" r="3.5" stroke-width="0" /><circle cx="275" cy="1010" fill="#2b92db" r="3.5" stroke-width="0" /><circle cx="320" cy="1009" fill="#2b92db" r="3.5" stroke-width="0" /><circle cx="321" cy="983" fill="#2b92db" r="3.5" stroke-width="0" /><circle cx="482" cy="980" fill="#2b92db" r="3.5" stroke-width="0" /><circle cx="399" cy="963" fill="#2b92db" r="3.5" stroke-width="0" /><circle cx="339" cy="951" fill="#2b92db" r="3.5" stroke-width="0" /><circle cx="755" cy="783" fill="#2b92db" r="3.5" stroke-width="0" /><circle cx="814" cy="719" fill="#2b92db" r="3.5" stroke-width="0" /><circle cx="808" cy="689" fill="#2b92db" r="3.5" stroke-width="0" /><circle cx="829" cy="679" fill="#2b92db" r="3.5" stroke-width="0" /><circle cx="884" cy="669" fill="#2b92db" r="3.5" stroke-width="0" /><circle cx="809" cy="668" fill="#2b92db" r="3.5" stroke-width="0" /><circle cx="825" cy="665" fill="#2b92db" r="3.5" stroke-width="0" /><circle cx="887" cy="641" fill="#2b92db" r="3.5" stroke-width="0" /><circle cx="827" cy="636" fill="#2b92db" r="3.5" stroke-width="0" /><circle cx="752" cy="621" fill="#2b92db" r="3.5" stroke-width="0" /><circle cx="821" cy="615" fill="#2b92db" r="3.5" stroke-width="0" /><circle cx="790" cy="583" fill="#2b92db" r="3.5" stroke-width="0" /><circle cx="853" cy="580" fill="#2b92db" r="3.5" stroke-width="0" /><circle cx="917" cy="568" fill="#2b92db" r="3.5" stroke-width="0" /><circle cx="923" cy="565" fill="#2b92db" r="3.5" stroke-width="0" /><circle cx="882" cy="559" fill="#2b92db" r="3.5" stroke-width="0" /><circle cx="808" cy="555" fill="#2b92db" r="3.5" stroke-width="0" /><circle cx="862" cy="534" fill="#2b92db" r="3.5" stroke-width="0" /><circle cx="874" cy="530" fill="#2b92db" r="3.5" stroke-width="0" /><circle cx="851" cy="521" fill="#2b92db" r="3.5" stroke-width="0" /><circle cx="857" cy="516" fill="#2b92db" r="3.5" stroke-width="0" /><circle cx="813" cy="504" fill="#2b92db" r="3.5" stroke-width="0" /><circle cx="814" cy="482" fill="#2b92db" r="3.5" stroke-width="0" /><circle cx="851" cy="463" fill="#2b92db" r="3.5" stroke-width="0" /><circle cx="853" cy="438" fill="#2b92db" r="3.5" stroke-width="0" /></g><g class="e3"><circle cx="237" cy="984" fill="#911eb4" r="3.5" stroke-width="0" /><circle cx="292" cy="964" fill="#911eb4" r="3.5" stroke-width="0" /><circle cx="318" cy="958" fill="#911eb4" r="3.5" stroke-width="0" /><circle cx="269" cy="954" fill="#911eb4" r="3.5" stroke-width="0" /><circle cx="324" cy="953" fill="#911eb4" r="3.5" stroke-width="0" /><circle cx="283" cy="893" fill="#911eb4" r="3.5" stroke-width="0" /><circle cx="308" cy="859" fill="#911eb4" r="3.5" stroke-width="0" /><circle cx="292" cy="852" fill="#911eb4" r="3.5" stroke-width="0" /><circle cx="273" cy="845" fill="#911eb4" r="3.5" stroke-width="0" /><circle cx="382" cy="845" fill="#911eb4" r="3.5" stroke-width="0" /><circle cx="298" cy="838" fill="#911eb4" r="3.5" stroke-width="0" /><circle cx="243" cy="830" fill="#911eb4" r="3.5" stroke-width="0" /><circle cx="417" cy="825" fill="#911eb4" r="3.5" stroke-width="0" /><circle cx="350" cy="805" fill="#911eb4" r="3.5" stroke-width="0" /><circle cx="286" cy="795" fill="#911eb4" r="3.5" stroke-width="0" /><circle cx="348" cy="788" fill="#911eb4" r="3.5" stroke-width="0" /><circle cx="349" cy="784" fill="#911eb4" r="3.5" stroke-width="0" /><circle cx="305" cy="759" fill="#911eb4" r="3.5" stroke-width="0" /><circle cx="354" cy="746" fill="#911eb4" r="3.5" stroke-width="0" /><circle cx="330" cy="735" fill="#911eb4" r="3.5" stroke-width="0" /><circle cx="328" cy="726" fill="#911eb4" r="3.5" stroke-width="0" /><circle cx="302" cy="723" fill="#911eb4" r="3.5" stroke-width="0" /><circle cx="322" cy="709" fill="#911eb4" r="3.5" stroke-width="0" /><circle cx="351" cy="709" fill="#911eb4" r="3.5" stroke-width="0" /><circle cx="320" cy="679" fill="#911eb4" r="3.5" stroke-width="0" /><circle cx="382" cy="648" fill="#911eb4" r="3.5" stroke-width="0" /><circle cx="700" cy="427" fill="#911eb4" r="3.5" stroke-width="0" /><circle cx="822" cy="419" fill="#911eb4" r="3.5" stroke-width="0" /><circle cx="839" cy="417" fill="#911eb4" r="3.5" stroke-width="0" /><circle cx="808" cy="415" fill="#911eb4" r="3.5" stroke-width="0" /><circle cx="804" cy="394" fill="#911eb4" r="3.5" stroke-width="0" /><circle cx="889" cy="387" fill="#911eb4" r="3.5" stroke-width="0" /><circle cx="819" cy="385" fill="#911eb4" r="3.5" stroke-width="0" /><circle cx="875" cy="376" fill="#911eb4" r="3.5" stroke-width="0" /><circle cx="804" cy="366" fill="#911eb4" r="3.5" stroke-width="0" /><circle cx="857" cy="363" fill="#911eb4" r="3.5" stroke-width="0" /><circle cx="806" cy="354" fill="#911eb4" r="3.5" stroke-width="0" /><circle cx="860" cy="341" fill="#911eb4" r="3.5" stroke-width="0" /><circle cx="765" cy="323" fill="#911eb4" r="3.5" stroke-width="0" /><circle cx="781" cy="298" fill="#911eb4" r="3.5" stroke-width="0" /><circle cx="764" cy="296" fill="#911eb4" r="3.5" stroke-width="0" /><circle cx="876" cy="291" fill="#911eb4" r="3.5" stroke-width="0" /><circle cx="782" cy="276" fill="#911eb4" r="3.5" stroke-width="0" /><circle cx="816" cy="275" fill="#911eb4" r="3.5" stroke-width="0" /><circle cx="846" cy="272" fill="#911eb4" r="3.5" stroke-width="0" /><circle cx="897" cy="272" fill="#911eb4" r="3.5" stroke-width="0" /><circle cx="835" cy="267" fill="#911eb4" r="3.5" stroke-width="0" /><circle cx="874" cy="266" fill="#911eb4" r="3.5" stroke-width="0" /><circle cx="774" cy="255" fill="#911eb4" r="3.5" stroke-width="0" /><circle cx="835" cy="168" fill="#911eb4" r="3.5" stroke-width="0" /></g><g class="e4"><circle cx="294" cy="700" fill="#3cb44B" r="3.5" stroke-width="0" /><circle cx="238" cy="697" fill="#3cb44B" r="3.5" stroke-width="0" /><circle cx="233" cy="678" fill="#3cb44B" r="3.5" stroke-width="0" /><circle cx="287" cy="663" fill="#3cb44B" r="3.5" stroke-width="0" /><circle cx="291" cy="650" fill="#3cb44B" r="3.5" stroke-width="0" /><circle cx="296" cy="644" fill="#3cb44B" r="3.5" stroke-width="0" /><circle cx="270" cy="636" fill="#3cb44B" r="3.5" stroke-width="0" /><circle cx="281" cy="632" fill="#3cb44B" r="3.5" stroke-width="0" /><circle cx="305" cy="621" fill="#3cb44B" r="3.5" stroke-width="0" /><circle cx="230" cy="613" fill="#3cb44B" r="3.5" stroke-width="0" /><circle cx="351" cy="609" fill="#3cb44B" r="3.5" stroke-width="0" /><circle cx="324" cy="594" fill="#3cb44B" r="3.5" stroke-width="0" /><circle cx="331" cy="577" fill="#3cb44B" r="3.5" stroke-width="0" /><circle cx="395" cy="568" fill="#3cb44B" r="3.5" stroke-width="0" /><circle cx="324" cy="563" fill="#3cb44B" r="3.5" stroke-width="0" /><circle cx="320" cy="560" fill="#3cb44B" r="3.5" stroke-width="0" /><circle cx="342" cy="548" fill="#3cb44B" r="3.5" stroke-width="0" /><circle cx="282" cy="536" fill="#3cb44B" r="3.5" stroke-width="0" /><circle cx="292" cy="519" fill="#3cb44B" r="3.5" stroke-width="0" /><circle cx="270" cy="515" fill="#3cb44B" r="3.5" stroke-width="0" /><circle cx="400" cy="488" fill="#3cb44B" r="3.5" stroke-width="0" /><circle cx="337" cy="483" fill="#3cb44B" r="3.5" stroke-width="0" /><circle cx="290" cy="467" fill="#3cb44B" r="3.5" stroke-width="0" /><circle cx="346" cy="461" fill="#3cb44B" r="3.5" stroke-width="0" /><circle cx="328" cy="448" fill="#3cb44B" r="3.5" stroke-width="0" /><circle cx="341" cy="420" fill="#3cb44B" r="3.5" stroke-width="0" /><circle cx="367" cy="415" fill="#3cb44B" r="3.5" stroke-width="0" /><circle cx="380" cy="348" fill="#3cb44B" r="3.5" stroke-width="0" /><circle cx="793" cy="178" fill="#3cb44B" r="3.5" stroke-width="0" /><circle cx="795" cy="176" fill="#3cb44B" r="3.5" stroke-width="0" /><circle cx="820" cy="106" fill="#3cb44B" r="3.5" stroke-width="0" /><circle cx="772" cy="83" fill="#3cb44B" r="3.5" stroke-width="0" /></g><g class="e5"><circle cx="211" cy="491" fill="#ff0000" r="3.5" stroke-width="0" /><circle cx="245" cy="438" fill="#ff0000" r="3.5" stroke-width="0" /><circle cx="250" cy="405" fill="#ff0000" r="3.5" stroke-width="0" /><circle cx="237" cy="384" fill="#ff0000" r="3.5" stroke-width="0" /><circle cx="297" cy="379" fill="#ff0000" r="3.5" stroke-width="0" /><circle cx="271" cy="348" fill="#ff0000" r="3.5" stroke-width="0" /><circle cx="271" cy="342" fill="#ff0000" r="3.5" stroke-width="0" /><circle cx="327" cy="335" fill="#ff0000" r="3.5" stroke-width="0" /><circle cx="310" cy="332" fill="#ff0000" r="3.5" stroke-width="0" /><circle cx="277" cy="327" fill="#ff0000" r="3.5" stroke-width="0" /><circle cx="345" cy="294" fill="#ff0000" r="3.5" stroke-width="0" /><circle cx="334" cy="291" fill="#ff0000" r="3.5" stroke-width="0" /><circle cx="220" cy="242" fill="#ff0000" r="3.5" stroke-width="0" /><circle cx="345" cy="237" fill="#ff0000" r="3.5" stroke-width="0" /><circle cx="406" cy="202" fill="#ff0000" r="3.5" stroke-width="0" /><circle cx="309" cy="183" fill="#ff0000" r="3.5" stroke-width="0" /><circle cx="315" cy="183" fill="#ff0000" r="3.5" stroke-width="0" /><circle cx="311" cy="145" fill="#ff0000" r="3.5" stroke-width="0" /><circle cx="337" cy="138" fill="#ff0000" r="3.5" stroke-width="0" /></g><g class="e6" /></g></g></svg>