<?xml version="1.0" encoding="utf-8" ?>
<svg baseProfile="full" height="1140px" style="font-size:15;font-family:Arial, san-serif;font-weight:bold;stroke:black;stroke-width:0;fill:#444444" version="1.1" width="1140px" xmlns="http://www.w3.org/2000/svg" xmlns:ev="http://www.w3.org/2001/xml-events" xmlns:xlink="http://www.w3.org/1999/xlink"><defs><clipPath id="areadografico"><rect height="1000" width="1000" x="70" y="70" /></clipPath></defs><g class="master"><g class="poligonos"><polygon clip-path="url(#areadografico)" fill="#000000" fill-opacity="0.1" points="1069,1070 1069,785 785,1070" /><polygon clip-path="url(#areadografico)" fill="#ffffff" fill-opacity="0.1" points="785,1070 499,1070 1069,499 1069,785" /><polygon clip-path="url(#areadografico)" fill="#000000" fill-opacity="0.1" points="499,1070 214,1070 1069,214 1069,499" /><polygon clip-path="url(#areadografico)" fill="#ffffff" fill-opacity="0.1" points="214,1070 -72,1070 1069,-72 1069,214" /><polygon clip-path="url(#areadografico)" fill="#000000" fill-opacity="0.1" points="-72,1070 -358,1070 1069,-358 1069,-72" /><polygon clip-path="url(#areadografico)" fill="#ffffff" fill-opacity="0.1" points="-358,1070 -643,1070 1069,-643 1069,-358" /><polygon clip-path="url(#areadografico)" fill="#000000" fill-opacity="0.1" points="70,70 70,356 356,70" /></g><g class="linhas"><line fill-opacity="0.3" stroke="#999999" stroke-width="1" x1="1070" x2="1070" y1="1070" y2="70" /><line fill-opacity="0.3" stroke="#999999" stroke-width="1" x1="70" x2="1070" y1="70" y2="70" /><line fill-opacity="0.3" stroke="#999999" stroke-width="1" x1="970" x2="970" y1="1070" y2="70" /><line fill-opacity="0.3" stroke="#999999" stroke-width="1" x1="70" x2="1070" y1="170" y2="170" /><line fill-opacity="0.3" stroke="#999999" stroke-width="1" x1="870" x2="870" y1="1070" y2="70" /><line fill-opacity="0.3" stroke="#999999" stroke-width="1" x1="70" x2="1070" y1="270" y2="270" /><line fill-opacity="0.3" stroke="#999999" stroke-width="1" x1="770" x2="770" y1="1070" y2="70" /><line fill-opacity="0.3" stroke="#999999" stroke-width="1" x1="70" x2="1070" y1="370" y2="370" /><line fill-opacity="0.3" stroke="#999999" stroke-width="1" x1="670" x2="670" y1="1070" y2="70" /><line fill-opacity="0.3" stroke="#999999" stroke-width="1" x1="70" x2="1070" y1="470" y2="470" /><line fill-opacity="0.3" stroke="#999999" stroke-width="1" x1="570" x2="570" y1="1070" y2="70" /><line fill-opacity="0.3" stroke="#999999" stroke-width="1" x1="70" x2="1070" y1="570" y2="570" /><line fill-opacity="0.3" stroke="#999999" stroke-width="1" x1="470" x2="470" y1="1070" y2="70" /><line fill-opacity="0.3" stroke="#999999" stroke-width="1" x1="70" x2="1070" y1="670" y2="670" /><line fill-opacity="0.3" stroke="#999999" stroke-width="1" x1="370" x2="370" y1="1070" y2="70" /><line fill-opacity="0.3" stroke="#999999" stroke-width="1" x1="70" x2="1070" y1="770" y2="770" /><line fill-opacity="0.3" stroke="#999999" stroke-width="1" x1="270" x2="270" y1="1070" y2="70" /><line fill-opacity="0.3" stroke="#999999" stroke-width="1" x1="70" x2="1070" y1="870" y2="870" /><line fill-opacity="0.3" stroke="#999999" stroke-width="1" x1="170" x2="170" y1="1070" y2="70" /><line fill-opacity="0.3" stroke="#999999" stroke-width="1" x1="70" x2="1070" y1="970" y2="970" /><line fill-opacity="0.3" stroke="#000000" stroke-width="1" x1="70" x2="70" y1="1071" y2="69" /><line fill-opacity="0.3" stroke="#000000" stroke-width="1" x1="69" x2="1071" y1="1070" y2="1070" /></g><g class="textos"><text x="1050" y="1110">1000</text><text x="10" y="71">1000</text><text x="950" y="1110">900</text><text x="10" y="171">900</text><text x="850" y="1110">800</text><text x="10" y="271">800</text><text x="750" y="1110">700</text><text x="10" y="371">700</text><text x="650" y="1110">600</text><text x="10" y="471">600</text><text x="550" y="1110">500</text><text x="10" y="571">500</text><text x="450" y="1110">400</text><text x="10" y="671">400</text><text x="350" y="1110">300</text><text x="10" y="771">300</text><text x="250" y="1110">200</text><text x="10" y="871">200</text><text x="150" y="1110">100</text><text x="10" y="971">100</text><text x="50" y="1111">0</text><text x="9" y="1071">0</text></g><g class="especies"><g class="e0" /><g class="e1"><circle cx="822" cy="774" fill="#ff0000" r="3.5" stroke-width="0" /><circle cx="817" cy="768" fill="#ff0000" r="3.5" stroke-width="0" /><circle cx="827" cy="755" fill="#ff0000" r="3.5" stroke-width="0" /></g><g class="e2"><circle cx="817" cy="748" fill="#2b92db" r="3.5" stroke-width="0" /><circle cx="817" cy="741" fill="#2b92db" r="3.5" stroke-width="0" /><circle cx="817" cy="737" fill="#2b92db" r="3.5" stroke-width="0" /><circle cx="804" cy="734" fill="#2b92db" r="3.5" stroke-width="0" /><circle cx="809" cy="733" fill="#2b92db" r="3.5" stroke-width="0" /><circle cx="822" cy="732" fill="#2b92db" r="3.5" stroke-width="0" /><circle cx="818" cy="727" fill="#2b92db" r="3.5" stroke-width="0" /><circle cx="820" cy="724" fill="#2b92db" r="3.5" stroke-width="0" /><circle cx="826" cy="724" fill="#2b92db" r="3.5" stroke-width="0" /><circle cx="829" cy="722" fill="#2b92db" r="3.5" stroke-width="0" /><circle cx="812" cy="716" fill="#2b92db" r="3.5" stroke-width="0" /><circle cx="829" cy="716" fill="#2b92db" r="3.5" stroke-width="0" /><circle cx="812" cy="714" fill="#2b92db" r="3.5" stroke-width="0" /><circle cx="823" cy="702" fill="#2b92db" r="3.5" stroke-width="0" /><circle cx="837" cy="701" fill="#2b92db" r="3.5" stroke-width="0" /><circle cx="829" cy="700" fill="#2b92db" r="3.5" stroke-width="0" /><circle cx="818" cy="698" fill="#2b92db" r="3.5" stroke-width="0" /><circle cx="831" cy="697" fill="#2b92db" r="3.5" stroke-width="0" /><circle cx="807" cy="696" fill="#2b92db" r="3.5" stroke-width="0" /><circle cx="822" cy="696" fill="#2b92db" r="3.5" stroke-width="0" /><circle cx="824" cy="694" fill="#2b92db" r="3.5" stroke-width="0" /><circle cx="819" cy="687" fill="#2b92db" r="3.5" stroke-width="0" /><circle cx="820" cy="687" fill="#2b92db" r="3.5" stroke-width="0" /><circle cx="804" cy="685" fill="#2b92db" r="3.5" stroke-width="0" /><circle cx="819" cy="683" fill="#2b92db" r="3.5" stroke-width="0" /><circle cx="815" cy="682" fill="#2b92db" r="3.5" stroke-width="0" /><circle cx="817" cy="680" fill="#2b92db" r="3.5" stroke-width="0" /><circle cx="821" cy="678" fill="#2b92db" r="3.5" stroke-width="0" /><circle cx="832" cy="678" fill="#2b92db" r="3.5" stroke-width="0" /><circle cx="811" cy="677" fill="#2b92db" r="3.5" stroke-width="0" /><circle cx="801" cy="676" fill="#2b92db" r="3.5" stroke-width="0" /><circle cx="819" cy="675" fill="#2b92db" r="3.5" stroke-width="0" /><circle cx="815" cy="673" fill="#2b92db" r="3.5" stroke-width="0" /><circle cx="830" cy="673" fill="#2b92db" r="3.5" stroke-width="0" /><circle cx="811" cy="672" fill="#2b92db" r="3.5" stroke-width="0" /><circle cx="820" cy="672" fill="#2b92db" r="3.5" stroke-width="0" /><circle cx="822" cy="672" fill="#2b92db" r="3.5" stroke-width="0" /><circle cx="837" cy="670" fill="#2b92db" r="3.5" stroke-width="0" /><circle cx="828" cy="669" fill="#2b92db" r="3.5" stroke-width="0" /><circle cx="808" cy="659" fill="#2b92db" r="3.5" stroke-width="0" /><circle cx="818" cy="659" fill="#2b92db" r="3.5" stroke-width="0" /><circle cx="829" cy="659" fill="#2b92db" r="3.5" stroke-width="0" /><circle cx="821" cy="658" fill="#2b92db" r="3.5" stroke-width="0" /><circle cx="813" cy="657" fill="#2b92db" r="3.5" stroke-width="0" /><circle cx="823" cy="656" fill="#2b92db" r="3.5" stroke-width="0" /><circle cx="821" cy="655" fill="#2b92db" r="3.5" stroke-width="0" /><circle cx="816" cy="654" fill="#2b92db" r="3.5" stroke-width="0" /><circle cx="830" cy="653" fill="#2b92db" r="3.5" stroke-width="0" /><circle cx="827" cy="652" fill="#2b92db" r="3.5" stroke-width="0" /><circle cx="816" cy="650" fill="#2b92db" r="3.5" stroke-width="0" /><circle cx="826" cy="648" fill="#2b92db" r="3.5" stroke-width="0" /><circle cx="810" cy="647" fill="#2b92db" r="3.5" stroke-width="0" /><circle cx="812" cy="647" fill="#2b92db" r="3.5" stroke-width="0" /><circle cx="826" cy="647" fill="#2b92db" r="3.5" stroke-width="0" /><circle cx="836" cy="646" fill="#2b92db" r="3.5" stroke-width="0" /><circle cx="825" cy="645" fill="#2b92db" r="3.5" stroke-width="0" /><circle cx="826" cy="645" fill="#2b92db" r="3.5" stroke-width="0" /><circle cx="835" cy="645" fill="#2b92db" r="3.5" stroke-width="0" /><circle cx="840" cy="645" fill="#2b92db" r="3.5" stroke-width="0" /><circle cx="815" cy="644" fill="#2b92db" r="3.5" stroke-width="0" /><circle cx="831" cy="643" fill="#2b92db" r="3.5" stroke-width="0" /><circle cx="809" cy="642" fill="#2b92db" r="3.5" stroke-width="0" /><circle cx="822" cy="642" fill="#2b92db" r="3.5" stroke-width="0" /><circle cx="817" cy="641" fill="#2b92db" r="3.5" stroke-width="0" /><circle cx="817" cy="638" fill="#2b92db" r="3.5" stroke-width="0" /><circle cx="835" cy="637" fill="#2b92db" r="3.5" stroke-width="0" /><circle cx="813" cy="633" fill="#2b92db" r="3.5" stroke-width="0" /><circle cx="831" cy="633" fill="#2b92db" r="3.5" stroke-width="0" /><circle cx="810" cy="631" fill="#2b92db" r="3.5" stroke-width="0" /><circle cx="809" cy="630" fill="#2b92db" r="3.5" stroke-width="0" /><circle cx="826" cy="628" fill="#2b92db" r="3.5" stroke-width="0" /><circle cx="821" cy="627" fill="#2b92db" r="3.5" stroke-width="0" /><circle cx="799" cy="625" fill="#2b92db" r="3.5" stroke-width="0" /><circle cx="828" cy="624" fill="#2b92db" r="3.5" stroke-width="0" /><circle cx="818" cy="623" fill="#2b92db" r="3.5" stroke-width="0" /><circle cx="829" cy="623" fill="#2b92db" r="3.5" stroke-width="0" /><circle cx="823" cy="622" fill="#2b92db" r="3.5" stroke-width="0" /><circle cx="827" cy="621" fill="#2b92db" r="3.5" stroke-width="0" /><circle cx="818" cy="618" fill="#2b92db" r="3.5" stroke-width="0" /><circle cx="819" cy="618" fill="#2b92db" r="3.5" stroke-width="0" /><circle cx="822" cy="618" fill="#2b92db" r="3.5" stroke-width="0" /><circle cx="810" cy="616" fill="#2b92db" r="3.5" stroke-width="0" /><circle cx="832" cy="615" fill="#2b92db" r="3.5" stroke-width="0" /><circle cx="812" cy="613" fill="#2b92db" r="3.5" stroke-width="0" /><circle cx="827" cy="613" fill="#2b92db" r="3.5" stroke-width="0" /><circle cx="815" cy="612" fill="#2b92db" r="3.5" stroke-width="0" /><circle cx="811" cy="611" fill="#2b92db" r="3.5" stroke-width="0" /><circle cx="822" cy="611" fill="#2b92db" r="3.5" stroke-width="0" /><circle cx="824" cy="609" fill="#2b92db" r="3.5" stroke-width="0" /><circle cx="802" cy="608" fill="#2b92db" r="3.5" stroke-width="0" /><circle cx="818" cy="606" fill="#2b92db" r="3.5" stroke-width="0" /><circle cx="820" cy="606" fill="#2b92db" r="3.5" stroke-width="0" /><circle cx="815" cy="605" fill="#2b92db" r="3.5" stroke-width="0" /><circle cx="823" cy="605" fill="#2b92db" r="3.5" stroke-width="0" /><circle cx="839" cy="605" fill="#2b92db" r="3.5" stroke-width="0" /><circle cx="805" cy="604" fill="#2b92db" r="3.5" stroke-width="0" /><circle cx="807" cy="604" fill="#2b92db" r="3.5" stroke-width="0" /><circle cx="826" cy="604" fill="#2b92db" r="3.5" stroke-width="0" /><circle cx="824" cy="601" fill="#2b92db" r="3.5" stroke-width="0" /><circle cx="838" cy="601" fill="#2b92db" r="3.5" stroke-width="0" /><circle cx="821" cy="600" fill="#2b92db" r="3.5" stroke-width="0" /><circle cx="813" cy="598" fill="#2b92db" r="3.5" stroke-width="0" /><circle cx="825" cy="598" fill="#2b92db" r="3.5" stroke-width="0" /><circle cx="828" cy="598" fill="#2b92db" r="3.5" stroke-width="0" /><circle cx="802" cy="597" fill="#2b92db" r="3.5" stroke-width="0" /><circle cx="810" cy="597" fill="#2b92db" r="3.5" stroke-width="0" /><circle cx="819" cy="596" fill="#2b92db" r="3.5" stroke-width="0" /><circle cx="829" cy="596" fill="#2b92db" r="3.5" stroke-width="0" /><circle cx="831" cy="596" fill="#2b92db" r="3.5" stroke-width="0" /><circle cx="806" cy="595" fill="#2b92db" r="3.5" stroke-width="0" /><circle cx="820" cy="592" fill="#2b92db" r="3.5" stroke-width="0" /><circle cx="820" cy="591" fill="#2b92db" r="3.5" stroke-width="0" /><circle cx="809" cy="589" fill="#2b92db" r="3.5" stroke-width="0" /><circle cx="824" cy="589" fill="#2b92db" r="3.5" stroke-width="0" /><circle cx="844" cy="588" fill="#2b92db" r="3.5" stroke-width="0" /><circle cx="797" cy="587" fill="#2b92db" r="3.5" stroke-width="0" /><circle cx="827" cy="587" fill="#2b92db" r="3.5" stroke-width="0" /><circle cx="838" cy="587" fill="#2b92db" r="3.5" stroke-width="0" /><circle cx="824" cy="586" fill="#2b92db" r="3.5" stroke-width="0" /><circle cx="842" cy="586" fill="#2b92db" r="3.5" stroke-width="0" /><circle cx="817" cy="585" fill="#2b92db" r="3.5" stroke-width="0" /><circle cx="805" cy="584" fill="#2b92db" r="3.5" stroke-width="0" /><circle cx="812" cy="584" fill="#2b92db" r="3.5" stroke-width="0" /><circle cx="809" cy="583" fill="#2b92db" r="3.5" stroke-width="0" /><circle cx="815" cy="583" fill="#2b92db" r="3.5" stroke-width="0" /><circle cx="819" cy="583" fill="#2b92db" r="3.5" stroke-width="0" /><circle cx="834" cy="583" fill="#2b92db" r="3.5" stroke-width="0" /><circle cx="795" cy="582" fill="#2b92db" r="3.5" stroke-width="0" /><circle cx="819" cy="582" fill="#2b92db" r="3.5" stroke-width="0" /><circle cx="814" cy="581" fill="#2b92db" r="3.5" stroke-width="0" /><circle cx="839" cy="581" fill="#2b92db" r="3.5" stroke-width="0" /><circle cx="802" cy="580" fill="#2b92db" r="3.5" stroke-width="0" /><circle cx="830" cy="580" fill="#2b92db" r="3.5" stroke-width="0" /><circle cx="797" cy="579" fill="#2b92db" r="3.5" stroke-width="0" /><circle cx="802" cy="578" fill="#2b92db" r="3.5" stroke-width="0" /><circle cx="810" cy="578" fill="#2b92db" r="3.5" stroke-width="0" /><circle cx="822" cy="578" fill="#2b92db" r="3.5" stroke-width="0" /><circle cx="830" cy="578" fill="#2b92db" r="3.5" stroke-width="0" /><circle cx="823" cy="577" fill="#2b92db" r="3.5" stroke-width="0" /><circle cx="824" cy="577" fill="#2b92db" r="3.5" stroke-width="0" /><circle cx="830" cy="575" fill="#2b92db" r="3.5" stroke-width="0" /><circle cx="822" cy="574" fill="#2b92db" r="3.5" stroke-width="0" /><circle cx="827" cy="573" fill="#2b92db" r="3.5" stroke-width="0" /><circle cx="818" cy="572" fill="#2b92db" r="3.5" stroke-width="0" /><circle cx="815" cy="571" fill="#2b92db" r="3.5" stroke-width="0" /><circle cx="815" cy="570" fill="#2b92db" r="3.5" stroke-width="0" /><circle cx="817" cy="570" fill="#2b92db" r="3.5" stroke-width="0" /><circle cx="826" cy="569" fill="#2b92db" r="3.5" stroke-width="0" /><circle cx="823" cy="568" fill="#2b92db" r="3.5" stroke-width="0" /><circle cx="844" cy="568" fill="#2b92db" r="3.5" stroke-width="0" /><circle cx="794" cy="567" fill="#2b92db" r="3.5" stroke-width="0" /><circle cx="814" cy="566" fill="#2b92db" r="3.5" stroke-width="0" /><circle cx="823" cy="566" fill="#2b92db" r="3.5" stroke-width="0" /><circle cx="828" cy="566" fill="#2b92db" r="3.5" stroke-width="0" /><circle cx="803" cy="565" fill="#2b92db" r="3.5" stroke-width="0" /><circle cx="814" cy="565" fill="#2b92db" r="3.5" stroke-width="0" /><circle cx="826" cy="565" fill="#2b92db" r="3.5" stroke-width="0" /><circle cx="826" cy="562" fill="#2b92db" r="3.5" stroke-width="0" /><circle cx="817" cy="561" fill="#2b92db" r="3.5" stroke-width="0" /><circle cx="849" cy="559" fill="#2b92db" r="3.5" stroke-width="0" /><circle cx="805" cy="557" fill="#2b92db" r="3.5" stroke-width="0" /><circle cx="813" cy="557" fill="#2b92db" r="3.5" stroke-width="0" /><circle cx="820" cy="557" fill="#2b92db" r="3.5" stroke-width="0" /><circle cx="818" cy="554" fill="#2b92db" r="3.5" stroke-width="0" /><circle cx="821" cy="554" fill="#2b92db" r="3.5" stroke-width="0" /><circle cx="825" cy="554" fill="#2b92db" r="3.5" stroke-width="0" /><circle cx="832" cy="553" fill="#2b92db" r="3.5" stroke-width="0" /><circle cx="808" cy="552" fill="#2b92db" r="3.5" stroke-width="0" /><circle cx="820" cy="552" fill="#2b92db" r="3.5" stroke-width="0" /><circle cx="793" cy="550" fill="#2b92db" r="3.5" stroke-width="0" /><circle cx="815" cy="549" fill="#2b92db" r="3.5" stroke-width="0" /><circle cx="828" cy="549" fill="#2b92db" r="3.5" stroke-width="0" /><circle cx="827" cy="548" fill="#2b92db" r="3.5" stroke-width="0" /><circle cx="806" cy="547" fill="#2b92db" r="3.5" stroke-width="0" /><circle cx="818" cy="547" fill="#2b92db" r="3.5" stroke-width="0" /><circle cx="802" cy="545" fill="#2b92db" r="3.5" stroke-width="0" /><circle cx="809" cy="545" fill="#2b92db" r="3.5" stroke-width="0" /><circle cx="828" cy="545" fill="#2b92db" r="3.5" stroke-width="0" /><circle cx="809" cy="544" fill="#2b92db" r="3.5" stroke-width="0" /><circle cx="828" cy="544" fill="#2b92db" r="3.5" stroke-width="0" /><circle cx="827" cy="543" fill="#2b92db" r="3.5" stroke-width="0" /><circle cx="831" cy="542" fill="#2b92db" r="3.5" stroke-width="0" /><circle cx="816" cy="541" fill="#2b92db" r="3.5" stroke-width="0" /><circle cx="836" cy="541" fill="#2b92db" r="3.5" stroke-width="0" /><circle cx="822" cy="540" fill="#2b92db" r="3.5" stroke-width="0" /><circle cx="832" cy="540" fill="#2b92db" r="3.5" stroke-width="0" /><circle cx="814" cy="539" fill="#2b92db" r="3.5" stroke-width="0" /><circle cx="827" cy="539" fill="#2b92db" r="3.5" stroke-width="0" /><circle cx="825" cy="538" fill="#2b92db" r="3.5" stroke-width="0" /><circle cx="812" cy="537" fill="#2b92db" r="3.5" stroke-width="0" /><circle cx="802" cy="535" fill="#2b92db" r="3.5" stroke-width="0" /><circle cx="807" cy="535" fill="#2b92db" r="3.5" stroke-width="0" /><circle cx="831" cy="535" fill="#2b92db" r="3.5" stroke-width="0" /><circle cx="839" cy="535" fill="#2b92db" r="3.5" stroke-width="0" /><circle cx="825" cy="534" fill="#2b92db" r="3.5" stroke-width="0" /><circle cx="827" cy="534" fill="#2b92db" r="3.5" stroke-width="0" /><circle cx="819" cy="533" fill="#2b92db" r="3.5" stroke-width="0" /><circle cx="823" cy="532" fill="#2b92db" r="3.5" stroke-width="0" /><circle cx="800" cy="531" fill="#2b92db" r="3.5" stroke-width="0" /><circle cx="820" cy="529" fill="#2b92db" r="3.5" stroke-width="0" /><circle cx="815" cy="528" fill="#2b92db" r="3.5" stroke-width="0" /><circle cx="817" cy="528" fill="#2b92db" r="3.5" stroke-width="0" /><circle cx="823" cy="527" fill="#2b92db" r="3.5" stroke-width="0" /><circle cx="811" cy="524" fill="#2b92db" r="3.5" stroke-width="0" /><circle cx="821" cy="524" fill="#2b92db" r="3.5" stroke-width="0" /><circle cx="839" cy="523" fill="#2b92db" r="3.5" stroke-width="0" /><circle cx="820" cy="522" fill="#2b92db" r="3.5" stroke-width="0" /><circle cx="826" cy="521" fill="#2b92db" r="3.5" stroke-width="0" /><circle cx="818" cy="520" fill="#2b92db" r="3.5" stroke-width="0" /><circle cx="805" cy="519" fill="#2b92db" r="3.5" stroke-width="0" /><circle cx="822" cy="519" fill="#2b92db" r="3.5" stroke-width="0" /><circle cx="838" cy="519" fill="#2b92db" r="3.5" stroke-width="0" /><circle cx="842" cy="519" fill="#2b92db" r="3.5" stroke-width="0" /><circle cx="813" cy="518" fill="#2b92db" r="3.5" stroke-width="0" /><circle cx="819" cy="518" fill="#2b92db" r="3.5" stroke-width="0" /><circle cx="811" cy="517" fill="#2b92db" r="3.5" stroke-width="0" /><circle cx="802" cy="516" fill="#2b92db" r="3.5" stroke-width="0" /><circle cx="825" cy="516" fill="#2b92db" r="3.5" stroke-width="0" /><circle cx="830" cy="515" fill="#2b92db" r="3.5" stroke-width="0" /><circle cx="837" cy="515" fill="#2b92db" r="3.5" stroke-width="0" /><circle cx="840" cy="512" fill="#2b92db" r="3.5" stroke-width="0" /><circle cx="814" cy="510" fill="#2b92db" r="3.5" stroke-width="0" /><circle cx="816" cy="510" fill="#2b92db" r="3.5" stroke-width="0" /><circle cx="825" cy="509" fill="#2b92db" r="3.5" stroke-width="0" /><circle cx="823" cy="508" fill="#2b92db" r="3.5" stroke-width="0" /><circle cx="813" cy="507" fill="#2b92db" r="3.5" stroke-width="0" /><circle cx="825" cy="507" fill="#2b92db" r="3.5" stroke-width="0" /><circle cx="831" cy="507" fill="#2b92db" r="3.5" stroke-width="0" /><circle cx="836" cy="507" fill="#2b92db" r="3.5" stroke-width="0" /><circle cx="831" cy="504" fill="#2b92db" r="3.5" stroke-width="0" /><circle cx="837" cy="504" fill="#2b92db" r="3.5" stroke-width="0" /><circle cx="815" cy="503" fill="#2b92db" r="3.5" stroke-width="0" /><circle cx="828" cy="502" fill="#2b92db" r="3.5" stroke-width="0" /><circle cx="802" cy="498" fill="#2b92db" r="3.5" stroke-width="0" /><circle cx="820" cy="497" fill="#2b92db" r="3.5" stroke-width="0" /><circle cx="807" cy="495" fill="#2b92db" r="3.5" stroke-width="0" /><circle cx="828" cy="495" fill="#2b92db" r="3.5" stroke-width="0" /><circle cx="811" cy="493" fill="#2b92db" r="3.5" stroke-width="0" /><circle cx="811" cy="493" fill="#2b92db" r="3.5" stroke-width="0" /><circle cx="817" cy="493" fill="#2b92db" r="3.5" stroke-width="0" /><circle cx="830" cy="492" fill="#2b92db" r="3.5" stroke-width="0" /><circle cx="804" cy="489" fill="#2b92db" r="3.5" stroke-width="0" /><circle cx="806" cy="489" fill="#2b92db" r="3.5" stroke-width="0" /><circle cx="828" cy="489" fill="#2b92db" r="3.5" stroke-width="0" /><circle cx="809" cy="488" fill="#2b92db" r="3.5" stroke-width="0" /><circle cx="825" cy="488" fill="#2b92db" r="3.5" stroke-width="0" /><circle cx="833" cy="488" fill="#2b92db" r="3.5" stroke-width="0" /><circle cx="807" cy="486" fill="#2b92db" r="3.5" stroke-width="0" /><circle cx="811" cy="486" fill="#2b92db" r="3.5" stroke-width="0" /><circle cx="811" cy="485" fill="#2b92db" r="3.5" stroke-width="0" /><circle cx="806" cy="480" fill="#2b92db" r="3.5" stroke-width="0" /><circle cx="829" cy="480" fill="#2b92db" r="3.5" stroke-width="0" /><circle cx="828" cy="479" fill="#2b92db" r="3.5" stroke-width="0" /><circle cx="817" cy="477" fill="#2b92db" r="3.5" stroke-width="0" /><circle cx="819" cy="477" fill="#2b92db" r="3.5" stroke-width="0" /><circle cx="825" cy="477" fill="#2b92db" r="3.5" stroke-width="0" /><circle cx="817" cy="469" fill="#2b92db" r="3.5" stroke-width="0" /><circle cx="820" cy="469" fill="#2b92db" r="3.5" stroke-width="0" /><circle cx="834" cy="453" fill="#2b92db" r="3.5" stroke-width="0" /><circle cx="850" cy="452" fill="#2b92db" r="3.5" stroke-width="0" /></g><g class="e3"><circle cx="317" cy="805" fill="#911eb4" r="3.5" stroke-width="0" /><circle cx="315" cy="792" fill="#911eb4" r="3.5" stroke-width="0" /><circle cx="318" cy="749" fill="#911eb4" r="3.5" stroke-width="0" /><circle cx="325" cy="745" fill="#911eb4" r="3.5" stroke-width="0" /><circle cx="306" cy="740" fill="#911eb4" r="3.5" stroke-width="0" /><circle cx="290" cy="729" fill="#911eb4" r="3.5" stroke-width="0" /><circle cx="314" cy="729" fill="#911eb4" r="3.5" stroke-width="0" /><circle cx="318" cy="729" fill="#911eb4" r="3.5" stroke-width="0" /><circle cx="343" cy="721" fill="#911eb4" r="3.5" stroke-width="0" /><circle cx="334" cy="717" fill="#911eb4" r="3.5" stroke-width="0" /><circle cx="323" cy="714" fill="#911eb4" r="3.5" stroke-width="0" /><circle cx="329" cy="711" fill="#911eb4" r="3.5" stroke-width="0" /><circle cx="326" cy="705" fill="#911eb4" r="3.5" stroke-width="0" /><circle cx="321" cy="698" fill="#911eb4" r="3.5" stroke-width="0" /><circle cx="314" cy="692" fill="#911eb4" r="3.5" stroke-width="0" /><circle cx="317" cy="688" fill="#911eb4" r="3.5" stroke-width="0" /><circle cx="326" cy="684" fill="#911eb4" r="3.5" stroke-width="0" /><circle cx="324" cy="679" fill="#911eb4" r="3.5" stroke-width="0" /><circle cx="332" cy="678" fill="#911eb4" r="3.5" stroke-width="0" /><circle cx="324" cy="676" fill="#911eb4" r="3.5" stroke-width="0" /><circle cx="334" cy="676" fill="#911eb4" r="3.5" stroke-width="0" /><circle cx="330" cy="675" fill="#911eb4" r="3.5" stroke-width="0" /><circle cx="329" cy="671" fill="#911eb4" r="3.5" stroke-width="0" /><circle cx="350" cy="654" fill="#911eb4" r="3.5" stroke-width="0" /><circle cx="803" cy="480" fill="#911eb4" r="3.5" stroke-width="0" /><circle cx="800" cy="472" fill="#911eb4" r="3.5" stroke-width="0" /><circle cx="801" cy="472" fill="#911eb4" r="3.5" stroke-width="0" /><circle cx="810" cy="472" fill="#911eb4" r="3.5" stroke-width="0" /><circle cx="811" cy="471" fill="#911eb4" r="3.5" stroke-width="0" /><circle cx="810" cy="470" fill="#911eb4" r="3.5" stroke-width="0" /><circle cx="813" cy="469" fill="#911eb4" r="3.5" stroke-width="0" /><circle cx="815" cy="466" fill="#911eb4" r="3.5" stroke-width="0" /><circle cx="802" cy="464" fill="#911eb4" r="3.5" stroke-width="0" /><circle cx="818" cy="461" fill="#911eb4" r="3.5" stroke-width="0" /><circle cx="808" cy="459" fill="#911eb4" r="3.5" stroke-width="0" /><circle cx="814" cy="459" fill="#911eb4" r="3.5" stroke-width="0" /><circle cx="819" cy="459" fill="#911eb4" r="3.5" stroke-width="0" /><circle cx="809" cy="457" fill="#911eb4" r="3.5" stroke-width="0" /><circle cx="804" cy="456" fill="#911eb4" r="3.5" stroke-width="0" /><circle cx="811" cy="456" fill="#911eb4" r="3.5" stroke-width="0" /><circle cx="822" cy="454" fill="#911eb4" r="3.5" stroke-width="0" /><circle cx="814" cy="453" fill="#911eb4" r="3.5" stroke-width="0" /><circle cx="819" cy="449" fill="#911eb4" r="3.5" stroke-width="0" /><circle cx="834" cy="448" fill="#911eb4" r="3.5" stroke-width="0" /><circle cx="834" cy="443" fill="#911eb4" r="3.5" stroke-width="0" /><circle cx="824" cy="441" fill="#911eb4" r="3.5" stroke-width="0" /><circle cx="821" cy="425" fill="#911eb4" r="3.5" stroke-width="0" /><circle cx="824" cy="425" fill="#911eb4" r="3.5" stroke-width="0" /><circle cx="815" cy="424" fill="#911eb4" r="3.5" stroke-width="0" /><circle cx="822" cy="424" fill="#911eb4" r="3.5" stroke-width="0" /><circle cx="837" cy="421" fill="#911eb4" r="3.5" stroke-width="0" /><circle cx="815" cy="417" fill="#911eb4" r="3.5" stroke-width="0" /><circle cx="818" cy="413" fill="#911eb4" r="3.5" stroke-width="0" /><circle cx="817" cy="410" fill="#911eb4" r="3.5" stroke-width="0" /><circle cx="810" cy="407" fill="#911eb4" r="3.5" stroke-width="0" /><circle cx="823" cy="406" fill="#911eb4" r="3.5" stroke-width="0" /><circle cx="818" cy="403" fill="#911eb4" r="3.5" stroke-width="0" /><circle cx="816" cy="402" fill="#911eb4" r="3.5" stroke-width="0" /><circle cx="834" cy="390" fill="#911eb4" r="3.5" stroke-width="0" /><circle cx="814" cy="388" fill="#911eb4" r="3.5" stroke-width="0" /><circle cx="832" cy="386" fill="#911eb4" r="3.5" stroke-width="0" /></g><g class="e4"><circle cx="304" cy="684" fill="#3cb44B" r="3.5" stroke-width="0" /><circle cx="316" cy="680" fill="#3cb44B" r="3.5" stroke-width="0" /><circle cx="319" cy="678" fill="#3cb44B" r="3.5" stroke-width="0" /><circle cx="309" cy="675" fill="#3cb44B" r="3.5" stroke-width="0" /><circle cx="311" cy="674" fill="#3cb44B" r="3.5" stroke-width="0" /><circle cx="314" cy="672" fill="#3cb44B" r="3.5" stroke-width="0" /><circle cx="320" cy="672" fill="#3cb44B" r="3.5" stroke-width="0" /><circle cx="313" cy="671" fill="#3cb44B" r="3.5" stroke-width="0" /><circle cx="305" cy="668" fill="#3cb44B" r="3.5" stroke-width="0" /><circle cx="323" cy="668" fill="#3cb44B" r="3.5" stroke-width="0" /><circle cx="325" cy="668" fill="#3cb44B" r="3.5" stroke-width="0" /><circle cx="320" cy="665" fill="#3cb44B" r="3.5" stroke-width="0" /><circle cx="310" cy="664" fill="#3cb44B" r="3.5" stroke-width="0" /><circle cx="300" cy="661" fill="#3cb44B" r="3.5" stroke-width="0" /><circle cx="314" cy="661" fill="#3cb44B" r="3.5" stroke-width="0" /><circle cx="302" cy="660" fill="#3cb44B" r="3.5" stroke-width="0" /><circle cx="336" cy="656" fill="#3cb44B" r="3.5" stroke-width="0" /><circle cx="318" cy="655" fill="#3cb44B" r="3.5" stroke-width="0" /><circle cx="328" cy="655" fill="#3cb44B" r="3.5" stroke-width="0" /><circle cx="312" cy="654" fill="#3cb44B" r="3.5" stroke-width="0" /><circle cx="332" cy="651" fill="#3cb44B" r="3.5" stroke-width="0" /><circle cx="330" cy="650" fill="#3cb44B" r="3.5" stroke-width="0" /><circle cx="315" cy="649" fill="#3cb44B" r="3.5" stroke-width="0" /><circle cx="326" cy="649" fill="#3cb44B" r="3.5" stroke-width="0" /><circle cx="304" cy="648" fill="#3cb44B" r="3.5" stroke-width="0" /><circle cx="315" cy="648" fill="#3cb44B" r="3.5" stroke-width="0" /><circle cx="310" cy="647" fill="#3cb44B" r="3.5" stroke-width="0" /><circle cx="312" cy="645" fill="#3cb44B" r="3.5" stroke-width="0" /><circle cx="315" cy="645" fill="#3cb44B" r="3.5" stroke-width="0" /><circle cx="321" cy="645" fill="#3cb44B" r="3.5" stroke-width="0" /><circle cx="322" cy="643" fill="#3cb44B" r="3.5" stroke-width="0" /><circle cx="334" cy="642" fill="#3cb44B" r="3.5" stroke-width="0" /><circle cx="303" cy="641" fill="#3cb44B" r="3.5" stroke-width="0" /><circle cx="315" cy="640" fill="#3cb44B" r="3.5" stroke-width="0" /><circle cx="322" cy="639" fill="#3cb44B" r="3.5" stroke-width="0" /><circle cx="324" cy="639" fill="#3cb44B" r="3.5" stroke-width="0" /><circle cx="313" cy="638" fill="#3cb44B" r="3.5" stroke-width="0" /><circle cx="315" cy="635" fill="#3cb44B" r="3.5" stroke-width="0" /><circle cx="333" cy="631" fill="#3cb44B" r="3.5" stroke-width="0" /><circle cx="317" cy="628" fill="#3cb44B" r="3.5" stroke-width="0" /><circle cx="307" cy="627" fill="#3cb44B" r="3.5" stroke-width="0" /><circle cx="319" cy="625" fill="#3cb44B" r="3.5" stroke-width="0" /><circle cx="346" cy="624" fill="#3cb44B" r="3.5" stroke-width="0" /><circle cx="313" cy="622" fill="#3cb44B" r="3.5" stroke-width="0" /><circle cx="331" cy="622" fill="#3cb44B" r="3.5" stroke-width="0" /><circle cx="307" cy="621" fill="#3cb44B" r="3.5" stroke-width="0" /><circle cx="317" cy="619" fill="#3cb44B" r="3.5" stroke-width="0" /><circle cx="302" cy="617" fill="#3cb44B" r="3.5" stroke-width="0" /><circle cx="305" cy="616" fill="#3cb44B" r="3.5" stroke-width="0" /><circle cx="311" cy="616" fill="#3cb44B" r="3.5" stroke-width="0" /><circle cx="332" cy="616" fill="#3cb44B" r="3.5" stroke-width="0" /><circle cx="314" cy="615" fill="#3cb44B" r="3.5" stroke-width="0" /><circle cx="301" cy="614" fill="#3cb44B" r="3.5" stroke-width="0" /><circle cx="315" cy="614" fill="#3cb44B" r="3.5" stroke-width="0" /><circle cx="301" cy="613" fill="#3cb44B" r="3.5" stroke-width="0" /><circle cx="311" cy="613" fill="#3cb44B" r="3.5" stroke-width="0" /><circle cx="325" cy="613" fill="#3cb44B" r="3.5" stroke-width="0" /><circle cx="306" cy="612" fill="#3cb44B" r="3.5" stroke-width="0" /><circle cx="322" cy="612" fill="#3cb44B" r="3.5" stroke-width="0" /><circle cx="338" cy="612" fill="#3cb44B" r="3.5" stroke-width="0" /><circle cx="320" cy="611" fill="#3cb44B" r="3.5" stroke-width="0" /><circle cx="322" cy="611" fill="#3cb44B" r="3.5" stroke-width="0" /><circle cx="311" cy="609" fill="#3cb44B" r="3.5" stroke-width="0" /><circle cx="331" cy="609" fill="#3cb44B" r="3.5" stroke-width="0" /><circle cx="303" cy="608" fill="#3cb44B" r="3.5" stroke-width="0" /><circle cx="300" cy="607" fill="#3cb44B" r="3.5" stroke-width="0" /><circle cx="329" cy="607" fill="#3cb44B" r="3.5" stroke-width="0" /><circle cx="329" cy="607" fill="#3cb44B" r="3.5" stroke-width="0" /><circle cx="301" cy="605" fill="#3cb44B" r="3.5" stroke-width="0" /><circle cx="326" cy="604" fill="#3cb44B" r="3.5" stroke-width="0" /><circle cx="331" cy="604" fill="#3cb44B" r="3.5" stroke-width="0" /><circle cx="317" cy="603" fill="#3cb44B" r="3.5" stroke-width="0" /><circle cx="320" cy="603" fill="#3cb44B" r="3.5" stroke-width="0" /><circle cx="316" cy="601" fill="#3cb44B" r="3.5" stroke-width="0" /><circle cx="325" cy="601" fill="#3cb44B" r="3.5" stroke-width="0" /><circle cx="321" cy="600" fill="#3cb44B" r="3.5" stroke-width="0" /><circle cx="322" cy="600" fill="#3cb44B" r="3.5" stroke-width="0" /><circle cx="327" cy="600" fill="#3cb44B" r="3.5" stroke-width="0" /><circle cx="319" cy="599" fill="#3cb44B" r="3.5" stroke-width="0" /><circle cx="320" cy="599" fill="#3cb44B" r="3.5" stroke-width="0" /><circle cx="319" cy="597" fill="#3cb44B" r="3.5" stroke-width="0" /><circle cx="324" cy="597" fill="#3cb44B" r="3.5" stroke-width="0" /><circle cx="324" cy="597" fill="#3cb44B" r="3.5" stroke-width="0" /><circle cx="318" cy="595" fill="#3cb44B" r="3.5" stroke-width="0" /><circle cx="322" cy="595" fill="#3cb44B" r="3.5" stroke-width="0" /><circle cx="325" cy="595" fill="#3cb44B" r="3.5" stroke-width="0" /><circle cx="329" cy="595" fill="#3cb44B" r="3.5" stroke-width="0" /><circle cx="303" cy="593" fill="#3cb44B" r="3.5" stroke-width="0" /><circle cx="313" cy="593" fill="#3cb44B" r="3.5" stroke-width="0" /><circle cx="331" cy="592" fill="#3cb44B" r="3.5" stroke-width="0" /><circle cx="305" cy="590" fill="#3cb44B" r="3.5" stroke-width="0" /><circle cx="315" cy="590" fill="#3cb44B" r="3.5" stroke-width="0" /><circle cx="318" cy="590" fill="#3cb44B" r="3.5" stroke-width="0" /><circle cx="322" cy="590" fill="#3cb44B" r="3.5" stroke-width="0" /><circle cx="330" cy="590" fill="#3cb44B" r="3.5" stroke-width="0" /><circle cx="294" cy="589" fill="#3cb44B" r="3.5" stroke-width="0" /><circle cx="318" cy="589" fill="#3cb44B" r="3.5" stroke-width="0" /><circle cx="310" cy="588" fill="#3cb44B" r="3.5" stroke-width="0" /><circle cx="319" cy="587" fill="#3cb44B" r="3.5" stroke-width="0" /><circle cx="300" cy="586" fill="#3cb44B" r="3.5" stroke-width="0" /><circle cx="305" cy="586" fill="#3cb44B" r="3.5" stroke-width="0" /><circle cx="317" cy="586" fill="#3cb44B" r="3.5" stroke-width="0" /><circle cx="322" cy="586" fill="#3cb44B" r="3.5" stroke-width="0" /><circle cx="312" cy="585" fill="#3cb44B" r="3.5" stroke-width="0" /><circle cx="313" cy="584" fill="#3cb44B" r="3.5" stroke-width="0" /><circle cx="313" cy="581" fill="#3cb44B" r="3.5" stroke-width="0" /><circle cx="315" cy="581" fill="#3cb44B" r="3.5" stroke-width="0" /><circle cx="305" cy="580" fill="#3cb44B" r="3.5" stroke-width="0" /><circle cx="329" cy="579" fill="#3cb44B" r="3.5" stroke-width="0" /><circle cx="327" cy="578" fill="#3cb44B" r="3.5" stroke-width="0" /><circle cx="313" cy="576" fill="#3cb44B" r="3.5" stroke-width="0" /><circle cx="328" cy="575" fill="#3cb44B" r="3.5" stroke-width="0" /><circle cx="314" cy="574" fill="#3cb44B" r="3.5" stroke-width="0" /><circle cx="311" cy="573" fill="#3cb44B" r="3.5" stroke-width="0" /><circle cx="329" cy="573" fill="#3cb44B" r="3.5" stroke-width="0" /><circle cx="334" cy="573" fill="#3cb44B" r="3.5" stroke-width="0" /><circle cx="310" cy="572" fill="#3cb44B" r="3.5" stroke-width="0" /><circle cx="323" cy="572" fill="#3cb44B" r="3.5" stroke-width="0" /><circle cx="333" cy="572" fill="#3cb44B" r="3.5" stroke-width="0" /><circle cx="329" cy="571" fill="#3cb44B" r="3.5" stroke-width="0" /><circle cx="330" cy="571" fill="#3cb44B" r="3.5" stroke-width="0" /><circle cx="334" cy="571" fill="#3cb44B" r="3.5" stroke-width="0" /><circle cx="344" cy="571" fill="#3cb44B" r="3.5" stroke-width="0" /><circle cx="318" cy="570" fill="#3cb44B" r="3.5" stroke-width="0" /><circle cx="329" cy="570" fill="#3cb44B" r="3.5" stroke-width="0" /><circle cx="336" cy="570" fill="#3cb44B" r="3.5" stroke-width="0" /><circle cx="311" cy="569" fill="#3cb44B" r="3.5" stroke-width="0" /><circle cx="321" cy="569" fill="#3cb44B" r="3.5" stroke-width="0" /><circle cx="310" cy="568" fill="#3cb44B" r="3.5" stroke-width="0" /><circle cx="318" cy="568" fill="#3cb44B" r="3.5" stroke-width="0" /><circle cx="321" cy="568" fill="#3cb44B" r="3.5" stroke-width="0" /><circle cx="313" cy="567" fill="#3cb44B" r="3.5" stroke-width="0" /><circle cx="304" cy="566" fill="#3cb44B" r="3.5" stroke-width="0" /><circle cx="327" cy="566" fill="#3cb44B" r="3.5" stroke-width="0" /><circle cx="323" cy="565" fill="#3cb44B" r="3.5" stroke-width="0" /><circle cx="324" cy="565" fill="#3cb44B" r="3.5" stroke-width="0" /><circle cx="335" cy="564" fill="#3cb44B" r="3.5" stroke-width="0" /><circle cx="309" cy="563" fill="#3cb44B" r="3.5" stroke-width="0" /><circle cx="293" cy="562" fill="#3cb44B" r="3.5" stroke-width="0" /><circle cx="325" cy="562" fill="#3cb44B" r="3.5" stroke-width="0" /><circle cx="294" cy="561" fill="#3cb44B" r="3.5" stroke-width="0" /><circle cx="312" cy="561" fill="#3cb44B" r="3.5" stroke-width="0" /><circle cx="307" cy="560" fill="#3cb44B" r="3.5" stroke-width="0" /><circle cx="336" cy="559" fill="#3cb44B" r="3.5" stroke-width="0" /><circle cx="315" cy="558" fill="#3cb44B" r="3.5" stroke-width="0" /><circle cx="323" cy="558" fill="#3cb44B" r="3.5" stroke-width="0" /><circle cx="328" cy="558" fill="#3cb44B" r="3.5" stroke-width="0" /><circle cx="315" cy="557" fill="#3cb44B" r="3.5" stroke-width="0" /><circle cx="324" cy="556" fill="#3cb44B" r="3.5" stroke-width="0" /><circle cx="329" cy="556" fill="#3cb44B" r="3.5" stroke-width="0" /><circle cx="312" cy="555" fill="#3cb44B" r="3.5" stroke-width="0" /><circle cx="313" cy="555" fill="#3cb44B" r="3.5" stroke-width="0" /><circle cx="316" cy="555" fill="#3cb44B" r="3.5" stroke-width="0" /><circle cx="307" cy="554" fill="#3cb44B" r="3.5" stroke-width="0" /><circle cx="321" cy="554" fill="#3cb44B" r="3.5" stroke-width="0" /><circle cx="329" cy="554" fill="#3cb44B" r="3.5" stroke-width="0" /><circle cx="337" cy="554" fill="#3cb44B" r="3.5" stroke-width="0" /><circle cx="322" cy="553" fill="#3cb44B" r="3.5" stroke-width="0" /><circle cx="325" cy="552" fill="#3cb44B" r="3.5" stroke-width="0" /><circle cx="320" cy="551" fill="#3cb44B" r="3.5" stroke-width="0" /><circle cx="325" cy="551" fill="#3cb44B" r="3.5" stroke-width="0" /><circle cx="328" cy="550" fill="#3cb44B" r="3.5" stroke-width="0" /><circle cx="316" cy="549" fill="#3cb44B" r="3.5" stroke-width="0" /><circle cx="332" cy="549" fill="#3cb44B" r="3.5" stroke-width="0" /><circle cx="333" cy="549" fill="#3cb44B" r="3.5" stroke-width="0" /><circle cx="337" cy="549" fill="#3cb44B" r="3.5" stroke-width="0" /><circle cx="310" cy="548" fill="#3cb44B" r="3.5" stroke-width="0" /><circle cx="305" cy="546" fill="#3cb44B" r="3.5" stroke-width="0" /><circle cx="313" cy="545" fill="#3cb44B" r="3.5" stroke-width="0" /><circle cx="320" cy="545" fill="#3cb44B" r="3.5" stroke-width="0" /><circle cx="328" cy="543" fill="#3cb44B" r="3.5" stroke-width="0" /><circle cx="296" cy="542" fill="#3cb44B" r="3.5" stroke-width="0" /><circle cx="309" cy="542" fill="#3cb44B" r="3.5" stroke-width="0" /><circle cx="313" cy="542" fill="#3cb44B" r="3.5" stroke-width="0" /><circle cx="324" cy="540" fill="#3cb44B" r="3.5" stroke-width="0" /><circle cx="331" cy="540" fill="#3cb44B" r="3.5" stroke-width="0" /><circle cx="331" cy="540" fill="#3cb44B" r="3.5" stroke-width="0" /><circle cx="318" cy="539" fill="#3cb44B" r="3.5" stroke-width="0" /><circle cx="322" cy="539" fill="#3cb44B" r="3.5" stroke-width="0" /><circle cx="332" cy="539" fill="#3cb44B" r="3.5" stroke-width="0" /><circle cx="313" cy="538" fill="#3cb44B" r="3.5" stroke-width="0" /><circle cx="306" cy="536" fill="#3cb44B" r="3.5" stroke-width="0" /><circle cx="321" cy="534" fill="#3cb44B" r="3.5" stroke-width="0" /><circle cx="311" cy="532" fill="#3cb44B" r="3.5" stroke-width="0" /><circle cx="324" cy="532" fill="#3cb44B" r="3.5" stroke-width="0" /><circle cx="330" cy="530" fill="#3cb44B" r="3.5" stroke-width="0" /><circle cx="301" cy="529" fill="#3cb44B" r="3.5" stroke-width="0" /><circle cx="319" cy="529" fill="#3cb44B" r="3.5" stroke-width="0" /><circle cx="319" cy="526" fill="#3cb44B" r="3.5" stroke-width="0" /><circle cx="315" cy="525" fill="#3cb44B" r="3.5" stroke-width="0" /><circle cx="330" cy="525" fill="#3cb44B" r="3.5" stroke-width="0" /><circle cx="345" cy="525" fill="#3cb44B" r="3.5" stroke-width="0" /><circle cx="318" cy="524" fill="#3cb44B" r="3.5" stroke-width="0" /><circle cx="323" cy="524" fill="#3cb44B" r="3.5" stroke-width="0" /><circle cx="327" cy="524" fill="#3cb44B" r="3.5" stroke-width="0" /><circle cx="331" cy="523" fill="#3cb44B" r="3.5" stroke-width="0" /><circle cx="303" cy="522" fill="#3cb44B" r="3.5" stroke-width="0" /><circle cx="315" cy="522" fill="#3cb44B" r="3.5" stroke-width="0" /><circle cx="313" cy="521" fill="#3cb44B" r="3.5" stroke-width="0" /><circle cx="326" cy="521" fill="#3cb44B" r="3.5" stroke-width="0" /><circle cx="311" cy="520" fill="#3cb44B" r="3.5" stroke-width="0" /><circle cx="327" cy="518" fill="#3cb44B" r="3.5" stroke-width="0" /><circle cx="307" cy="517" fill="#3cb44B" r="3.5" stroke-width="0" /><circle cx="326" cy="517" fill="#3cb44B" r="3.5" stroke-width="0" /><circle cx="330" cy="517" fill="#3cb44B" r="3.5" stroke-width="0" /><circle cx="316" cy="516" fill="#3cb44B" r="3.5" stroke-width="0" /><circle cx="322" cy="516" fill="#3cb44B" r="3.5" stroke-width="0" /><circle cx="304" cy="514" fill="#3cb44B" r="3.5" stroke-width="0" /><circle cx="316" cy="514" fill="#3cb44B" r="3.5" stroke-width="0" /><circle cx="288" cy="511" fill="#3cb44B" r="3.5" stroke-width="0" /><circle cx="310" cy="509" fill="#3cb44B" r="3.5" stroke-width="0" /><circle cx="310" cy="509" fill="#3cb44B" r="3.5" stroke-width="0" /><circle cx="326" cy="505" fill="#3cb44B" r="3.5" stroke-width="0" /><circle cx="304" cy="504" fill="#3cb44B" r="3.5" stroke-width="0" /><circle cx="331" cy="504" fill="#3cb44B" r="3.5" stroke-width="0" /><circle cx="297" cy="501" fill="#3cb44B" r="3.5" stroke-width="0" /><circle cx="320" cy="501" fill="#3cb44B" r="3.5" stroke-width="0" /><circle cx="339" cy="500" fill="#3cb44B" r="3.5" stroke-width="0" /><circle cx="301" cy="498" fill="#3cb44B" r="3.5" stroke-width="0" /><circle cx="331" cy="497" fill="#3cb44B" r="3.5" stroke-width="0" /><circle cx="321" cy="493" fill="#3cb44B" r="3.5" stroke-width="0" /><circle cx="320" cy="492" fill="#3cb44B" r="3.5" stroke-width="0" /><circle cx="327" cy="492" fill="#3cb44B" r="3.5" stroke-width="0" /><circle cx="331" cy="492" fill="#3cb44B" r="3.5" stroke-width="0" /><circle cx="319" cy="491" fill="#3cb44B" r="3.5" stroke-width="0" /><circle cx="331" cy="490" fill="#3cb44B" r="3.5" stroke-width="0" /><circle cx="324" cy="489" fill="#3cb44B" r="3.5" stroke-width="0" /><circle cx="326" cy="489" fill="#3cb44B" r="3.5" stroke-width="0" /><circle cx="302" cy="488" fill="#3cb44B" r="3.5" stroke-width="0" /><circle cx="327" cy="486" fill="#3cb44B" r="3.5" stroke-width="0" /><circle cx="301" cy="483" fill="#3cb44B" r="3.5" stroke-width="0" /><circle cx="314" cy="483" fill="#3cb44B" r="3.5" stroke-width="0" /><circle cx="322" cy="483" fill="#3cb44B" r="3.5" stroke-width="0" /><circle cx="324" cy="481" fill="#3cb44B" r="3.5" stroke-width="0" /><circle cx="306" cy="480" fill="#3cb44B" r="3.5" stroke-width="0" /><circle cx="307" cy="480" fill="#3cb44B" r="3.5" stroke-width="0" /><circle cx="319" cy="480" fill="#3cb44B" r="3.5" stroke-width="0" /><circle cx="325" cy="477" fill="#3cb44B" r="3.5" stroke-width="0" /><circle cx="313" cy="471" fill="#3cb44B" r="3.5" stroke-width="0" /><circle cx="323" cy="471" fill="#3cb44B" r="3.5" stroke-width="0" /><circle cx="329" cy="469" fill="#3cb44B" r="3.5" stroke-width="0" /><circle cx="310" cy="467" fill="#3cb44B" r="3.5" stroke-width="0" /><circle cx="335" cy="467" fill="#3cb44B" r="3.5" stroke-width="0" /><circle cx="312" cy="464" fill="#3cb44B" r="3.5" stroke-width="0" /><circle cx="322" cy="464" fill="#3cb44B" r="3.5" stroke-width="0" /><circle cx="313" cy="461" fill="#3cb44B" r="3.5" stroke-width="0" /><circle cx="317" cy="459" fill="#3cb44B" r="3.5" stroke-width="0" /><circle cx="318" cy="459" fill="#3cb44B" r="3.5" stroke-width="0" /><circle cx="321" cy="459" fill="#3cb44B" r="3.5" stroke-width="0" /><circle cx="333" cy="455" fill="#3cb44B" r="3.5" stroke-width="0" /><circle cx="318" cy="452" fill="#3cb44B" r="3.5" stroke-width="0" /><circle cx="311" cy="451" fill="#3cb44B" r="3.5" stroke-width="0" /><circle cx="321" cy="451" fill="#3cb44B" r="3.5" stroke-width="0" /><circle cx="315" cy="447" fill="#3cb44B" r="3.5" stroke-width="0" /><circle cx="323" cy="447" fill="#3cb44B" r="3.5" stroke-width="0" /><circle cx="322" cy="444" fill="#3cb44B" r="3.5" stroke-width="0" /><circle cx="327" cy="441" fill="#3cb44B" r="3.5" stroke-width="0" /><circle cx="322" cy="440" fill="#3cb44B" r="3.5" stroke-width="0" /><circle cx="310" cy="436" fill="#3cb44B" r="3.5" stroke-width="0" /><circle cx="310" cy="436" fill="#3cb44B" r="3.5" stroke-width="0" /><circle cx="320" cy="435" fill="#3cb44B" r="3.5" stroke-width="0" /><circle cx="327" cy="430" fill="#3cb44B" r="3.5" stroke-width="0" /><circle cx="305" cy="427" fill="#3cb44B" r="3.5" stroke-width="0" /><circle cx="306" cy="425" fill="#3cb44B" r="3.5" stroke-width="0" /><circle cx="327" cy="422" fill="#3cb44B" r="3.5" stroke-width="0" /><circle cx="322" cy="420" fill="#3cb44B" r="3.5" stroke-width="0" /><circle cx="331" cy="417" fill="#3cb44B" r="3.5" stroke-width="0" /><circle cx="325" cy="416" fill="#3cb44B" r="3.5" stroke-width="0" /><circle cx="321" cy="415" fill="#3cb44B" r="3.5" stroke-width="0" /><circle cx="317" cy="412" fill="#3cb44B" r="3.5" stroke-width="0" /><circle cx="325" cy="404" fill="#3cb44B" r="3.5" stroke-width="0" /><circle cx="320" cy="400" fill="#3cb44B" r="3.5" stroke-width="0" /></g><g class="e5"><circle cx="311" cy="395" fill="#ff0000" r="3.5" stroke-width="0" /><circle cx="304" cy="394" fill="#ff0000" r="3.5" stroke-width="0" /><circle cx="322" cy="362" fill="#ff0000" r="3.5" stroke-width="0" /><circle cx="333" cy="356" fill="#ff0000" r="3.5" stroke-width="0" /></g><g class="e6" /></g></g></svg>