<?xml version="1.0" encoding="utf-8" ?>
<svg baseProfile="full" height="1140px" style="font-size:15;font-family:Arial, san-serif;font-weight:bold;stroke:black;stroke-width:0;fill:#444444" version="1.1" width="1140px" xmlns="http://www.w3.org/2000/svg" xmlns:ev="http://www.w3.org/2001/xml-events" xmlns:xlink="http://www.w3.org/1999/xlink"><defs><clipPath id="areadografico"><rect height="1000" width="1000" x="70" y="70" /></clipPath></defs><g class="master"><g class="poligonos"><polygon clip-path="url(#areadografico)" fill="#000000" fill-opacity="0.1" points="1069,1070 1069,890 890,1070" /><polygon clip-path="url(#areadografico)" fill="#ffffff" fill-opacity="0.1" points="890,1070 709,1070 1069,709 1069,890" /><polygon clip-path="url(#areadografico)" fill="#000000" fill-opacity="0.1" points="709,1070 528,1070 1069,528 1069,709" /><polygon clip-path="url(#areadografico)" fill="#ffffff" fill-opacity="0.1" points="528,1070 347,1070 1069,347 1069,528" /><polygon clip-path="url(#areadografico)" fill="#000000" fill-opacity="0.1" points="347,1070 166,1070 1069,166 1069,347" /><polygon clip-path="url(#areadografico)" fill="#ffffff" fill-opacity="0.1" points="166,1070 -15,1070 1069,-15 1069,166" /><polygon clip-path="url(#areadografico)" fill="#000000" fill-opacity="0.1" points="-15,1070 -196,1070 1069,-196 1069,-15" /><polygon clip-path="url(#areadografico)" fill="#ffffff" fill-opacity="0.1" points="-196,1070 -377,1070 1069,-377 1069,-196" /><polygon clip-path="url(#areadografico)" fill="#000000" fill-opacity="0.1" points="-377,1070 -558,1070 1069,-558 1069,-377" /><polygon clip-path="url(#areadografico)" fill="#ffffff" fill-opacity="0.1" points="-558,1070 -739,1070 1069,-739 1069,-558" /><polygon clip-path="url(#areadografico)" fill="#000000" fill-opacity="0.1" points="70,70 70,260 260,70" /></g><g class="linhas"><line fill-opacity="0.3" stroke="#999999" stroke-width="1" x1="1070" x2="1070" y1="1070" y2="70" /><line fill-opacity="0.3" stroke="#999999" stroke-width="1" x1="70" x2="1070" y1="70" y2="70" /><line fill-opacity="0.3" stroke="#999999" stroke-width="1" x1="970" x2="970" y1="1070" y2="70" /><line fill-opacity="0.3" stroke="#999999" stroke-width="1" x1="70" x2="1070" y1="170" y2="170" /><line fill-opacity="0.3" stroke="#999999" stroke-width="1" x1="870" x2="870" y1="1070" y2="70" /><line fill-opacity="0.3" stroke="#999999" stroke-width="1" x1="70" x2="1070" y1="270" y2="270" /><line fill-opacity="0.3" stroke="#999999" stroke-width="1" x1="770" x2="770" y1="1070" y2="70" /><line fill-opacity="0.3" stroke="#999999" stroke-width="1" x1="70" x2="1070" y1="370" y2="370" /><line fill-opacity="0.3" stroke="#999999" stroke-width="1" x1="670" x2="670" y1="1070" y2="70" /><line fill-opacity="0.3" stroke="#999999" stroke-width="1" x1="70" x2="1070" y1="470" y2="470" /><line fill-opacity="0.3" stroke="#999999" stroke-width="1" x1="570" x2="570" y1="1070" y2="70" /><line fill-opacity="0.3" stroke="#999999" stroke-width="1" x1="70" x2="1070" y1="570" y2="570" /><line fill-opacity="0.3" stroke="#999999" stroke-width="1" x1="470" x2="470" y1="1070" y2="70" /><line fill-opacity="0.3" stroke="#999999" stroke-width="1" x1="70" x2="1070" y1="670" y2="670" /><line fill-opacity="0.3" stroke="#999999" stroke-width="1" x1="370" x2="370" y1="1070" y2="70" /><line fill-opacity="0.3" stroke="#999999" stroke-width="1" x1="70" x2="1070" y1="770" y2="770" /><line fill-opacity="0.3" stroke="#999999" stroke-width="1" x1="270" x2="270" y1="1070" y2="70" /><line fill-opacity="0.3" stroke="#999999" stroke-width="1" x1="70" x2="1070" y1="870" y2="870" /><line fill-opacity="0.3" stroke="#999999" stroke-width="1" x1="170" x2="170" y1="1070" y2="70" /><line fill-opacity="0.3" stroke="#999999" stroke-width="1" x1="70" x2="1070" y1="970" y2="970" /><line fill-opacity="0.3" stroke="#000000" stroke-width="1" x1="70" x2="70" y1="1071" y2="69" /><line fill-opacity="0.3" stroke="#000000" stroke-width="1" x1="69" x2="1071" y1="1070" y2="1070" /></g><g class="textos"><text x="1050" y="1110">1000</text><text x="10" y="71">1000</text><text x="950" y="1110">900</text><text x="10" y="171">900</text><text x="850" y="1110">800</text><text x="10" y="271">800</text><text x="750" y="1110">700</text><text x="10" y="371">700</text><text x="650" y="1110">600</text><text x="10" y="471">600</text><text x="550" y="1110">500</text><text x="10" y="571">500</text><text x="450" y="1110">400</text><text x="10" y="671">400</text><text x="350" y="1110">300</text><text x="10" y="771">300</text><text x="250" y="1110">200</text><text x="10" y="871">200</text><text x="150" y="1110">100</text><text x="10" y="971">100</text><text x="50" y="1111">0</text><text x="9" y="1071">0</text></g><g class="especies"><g class="e0"><circle cx="920" cy="1068" fill="#3cb44B" r="3.5" stroke-width="0" /><circle cx="943" cy="1050" fill="#3cb44B" r="3.5" stroke-width="0" /></g><g class="e1"><circle cx="801" cy="1045" fill="#ff0000" r="3.5" stroke-width="0" /><circle cx="784" cy="1041" fill="#ff0000" r="3.5" stroke-width="0" /><circle cx="776" cy="1039" fill="#ff0000" r="3.5" stroke-width="0" /><circle cx="749" cy="1032" fill="#ff0000" r="3.5" stroke-width="0" /><circle cx="789" cy="1032" fill="#ff0000" r="3.5" stroke-width="0" /><circle cx="759" cy="1027" fill="#ff0000" r="3.5" stroke-width="0" /><circle cx="908" cy="1027" fill="#ff0000" r="3.5" stroke-width="0" /><circle cx="861" cy="1025" fill="#ff0000" r="3.5" stroke-width="0" /><circle cx="776" cy="1021" fill="#ff0000" r="3.5" stroke-width="0" /><circle cx="781" cy="1019" fill="#ff0000" r="3.5" stroke-width="0" /><circle cx="805" cy="1011" fill="#ff0000" r="3.5" stroke-width="0" /><circle cx="905" cy="1005" fill="#ff0000" r="3.5" stroke-width="0" /><circle cx="833" cy="997" fill="#ff0000" r="3.5" stroke-width="0" /><circle cx="876" cy="993" fill="#ff0000" r="3.5" stroke-width="0" /><circle cx="809" cy="988" fill="#ff0000" r="3.5" stroke-width="0" /><circle cx="854" cy="983" fill="#ff0000" r="3.5" stroke-width="0" /><circle cx="852" cy="949" fill="#ff0000" r="3.5" stroke-width="0" /><circle cx="880" cy="945" fill="#ff0000" r="3.5" stroke-width="0" /><circle cx="892" cy="938" fill="#ff0000" r="3.5" stroke-width="0" /><circle cx="919" cy="936" fill="#ff0000" r="3.5" stroke-width="0" /><circle cx="870" cy="918" fill="#ff0000" r="3.5" stroke-width="0" /><circle cx="884" cy="911" fill="#ff0000" r="3.5" stroke-width="0" /><circle cx="894" cy="910" fill="#ff0000" r="3.5" stroke-width="0" /><circle cx="950" cy="907" fill="#ff0000" r="3.5" stroke-width="0" /><circle cx="962" cy="833" fill="#ff0000" r="3.5" stroke-width="0" /></g><g class="e2"><circle cx="749" cy="1024" fill="#2b92db" r="3.5" stroke-width="0" /><circle cx="752" cy="1012" fill="#2b92db" r="3.5" stroke-width="0" /><circle cx="761" cy="1007" fill="#2b92db" r="3.5" stroke-width="0" /><circle cx="736" cy="996" fill="#2b92db" r="3.5" stroke-width="0" /><circle cx="644" cy="976" fill="#2b92db" r="3.5" stroke-width="0" /><circle cx="805" cy="956" fill="#2b92db" r="3.5" stroke-width="0" /><circle cx="804" cy="954" fill="#2b92db" r="3.5" stroke-width="0" /><circle cx="756" cy="947" fill="#2b92db" r="3.5" stroke-width="0" /><circle cx="788" cy="944" fill="#2b92db" r="3.5" stroke-width="0" /><circle cx="792" cy="923" fill="#2b92db" r="3.5" stroke-width="0" /><circle cx="784" cy="921" fill="#2b92db" r="3.5" stroke-width="0" /><circle cx="760" cy="902" fill="#2b92db" r="3.5" stroke-width="0" /><circle cx="805" cy="902" fill="#2b92db" r="3.5" stroke-width="0" /><circle cx="793" cy="898" fill="#2b92db" r="3.5" stroke-width="0" /><circle cx="858" cy="898" fill="#2b92db" r="3.5" stroke-width="0" /><circle cx="780" cy="897" fill="#2b92db" r="3.5" stroke-width="0" /><circle cx="824" cy="894" fill="#2b92db" r="3.5" stroke-width="0" /><circle cx="779" cy="888" fill="#2b92db" r="3.5" stroke-width="0" /><circle cx="801" cy="888" fill="#2b92db" r="3.5" stroke-width="0" /><circle cx="781" cy="887" fill="#2b92db" r="3.5" stroke-width="0" /><circle cx="835" cy="876" fill="#2b92db" r="3.5" stroke-width="0" /><circle cx="818" cy="874" fill="#2b92db" r="3.5" stroke-width="0" /><circle cx="770" cy="872" fill="#2b92db" r="3.5" stroke-width="0" /><circle cx="881" cy="859" fill="#2b92db" r="3.5" stroke-width="0" /><circle cx="757" cy="849" fill="#2b92db" r="3.5" stroke-width="0" /><circle cx="818" cy="847" fill="#2b92db" r="3.5" stroke-width="0" /><circle cx="793" cy="844" fill="#2b92db" r="3.5" stroke-width="0" /><circle cx="818" cy="842" fill="#2b92db" r="3.5" stroke-width="0" /><circle cx="861" cy="839" fill="#2b92db" r="3.5" stroke-width="0" /><circle cx="846" cy="838" fill="#2b92db" r="3.5" stroke-width="0" /><circle cx="859" cy="837" fill="#2b92db" r="3.5" stroke-width="0" /><circle cx="827" cy="832" fill="#2b92db" r="3.5" stroke-width="0" /><circle cx="803" cy="817" fill="#2b92db" r="3.5" stroke-width="0" /><circle cx="839" cy="817" fill="#2b92db" r="3.5" stroke-width="0" /><circle cx="817" cy="815" fill="#2b92db" r="3.5" stroke-width="0" /><circle cx="824" cy="808" fill="#2b92db" r="3.5" stroke-width="0" /><circle cx="827" cy="807" fill="#2b92db" r="3.5" stroke-width="0" /><circle cx="846" cy="803" fill="#2b92db" r="3.5" stroke-width="0" /><circle cx="851" cy="802" fill="#2b92db" r="3.5" stroke-width="0" /><circle cx="870" cy="801" fill="#2b92db" r="3.5" stroke-width="0" /><circle cx="907" cy="798" fill="#2b92db" r="3.5" stroke-width="0" /><circle cx="816" cy="794" fill="#2b92db" r="3.5" stroke-width="0" /><circle cx="848" cy="787" fill="#2b92db" r="3.5" stroke-width="0" /><circle cx="819" cy="785" fill="#2b92db" r="3.5" stroke-width="0" /><circle cx="884" cy="785" fill="#2b92db" r="3.5" stroke-width="0" /><circle cx="934" cy="750" fill="#2b92db" r="3.5" stroke-width="0" /><circle cx="864" cy="742" fill="#2b92db" r="3.5" stroke-width="0" /><circle cx="954" cy="739" fill="#2b92db" r="3.5" stroke-width="0" /><circle cx="884" cy="723" fill="#2b92db" r="3.5" stroke-width="0" /></g><g class="e3"><circle cx="728" cy="841" fill="#911eb4" r="3.5" stroke-width="0" /><circle cx="692" cy="836" fill="#911eb4" r="3.5" stroke-width="0" /><circle cx="725" cy="832" fill="#911eb4" r="3.5" stroke-width="0" /><circle cx="732" cy="832" fill="#911eb4" r="3.5" stroke-width="0" /><circle cx="741" cy="813" fill="#911eb4" r="3.5" stroke-width="0" /><circle cx="756" cy="801" fill="#911eb4" r="3.5" stroke-width="0" /><circle cx="670" cy="788" fill="#911eb4" r="3.5" stroke-width="0" /><circle cx="793" cy="783" fill="#911eb4" r="3.5" stroke-width="0" /><circle cx="791" cy="767" fill="#911eb4" r="3.5" stroke-width="0" /><circle cx="821" cy="764" fill="#911eb4" r="3.5" stroke-width="0" /><circle cx="809" cy="753" fill="#911eb4" r="3.5" stroke-width="0" /><circle cx="805" cy="751" fill="#911eb4" r="3.5" stroke-width="0" /><circle cx="825" cy="750" fill="#911eb4" r="3.5" stroke-width="0" /><circle cx="775" cy="744" fill="#911eb4" r="3.5" stroke-width="0" /><circle cx="751" cy="743" fill="#911eb4" r="3.5" stroke-width="0" /><circle cx="754" cy="724" fill="#911eb4" r="3.5" stroke-width="0" /><circle cx="809" cy="723" fill="#911eb4" r="3.5" stroke-width="0" /><circle cx="813" cy="723" fill="#911eb4" r="3.5" stroke-width="0" /><circle cx="739" cy="719" fill="#911eb4" r="3.5" stroke-width="0" /><circle cx="860" cy="716" fill="#911eb4" r="3.5" stroke-width="0" /><circle cx="800" cy="713" fill="#911eb4" r="3.5" stroke-width="0" /><circle cx="860" cy="711" fill="#911eb4" r="3.5" stroke-width="0" /><circle cx="808" cy="710" fill="#911eb4" r="3.5" stroke-width="0" /><circle cx="731" cy="709" fill="#911eb4" r="3.5" stroke-width="0" /><circle cx="820" cy="706" fill="#911eb4" r="3.5" stroke-width="0" /><circle cx="764" cy="703" fill="#911eb4" r="3.5" stroke-width="0" /><circle cx="758" cy="700" fill="#911eb4" r="3.5" stroke-width="0" /><circle cx="874" cy="700" fill="#911eb4" r="3.5" stroke-width="0" /><circle cx="885" cy="698" fill="#911eb4" r="3.5" stroke-width="0" /><circle cx="809" cy="697" fill="#911eb4" r="3.5" stroke-width="0" /><circle cx="755" cy="695" fill="#911eb4" r="3.5" stroke-width="0" /><circle cx="774" cy="695" fill="#911eb4" r="3.5" stroke-width="0" /><circle cx="774" cy="695" fill="#911eb4" r="3.5" stroke-width="0" /><circle cx="835" cy="695" fill="#911eb4" r="3.5" stroke-width="0" /><circle cx="843" cy="677" fill="#911eb4" r="3.5" stroke-width="0" /><circle cx="817" cy="673" fill="#911eb4" r="3.5" stroke-width="0" /><circle cx="830" cy="673" fill="#911eb4" r="3.5" stroke-width="0" /><circle cx="848" cy="673" fill="#911eb4" r="3.5" stroke-width="0" /><circle cx="767" cy="671" fill="#911eb4" r="3.5" stroke-width="0" /><circle cx="775" cy="663" fill="#911eb4" r="3.5" stroke-width="0" /><circle cx="841" cy="663" fill="#911eb4" r="3.5" stroke-width="0" /><circle cx="860" cy="662" fill="#911eb4" r="3.5" stroke-width="0" /><circle cx="893" cy="662" fill="#911eb4" r="3.5" stroke-width="0" /><circle cx="848" cy="656" fill="#911eb4" r="3.5" stroke-width="0" /><circle cx="915" cy="655" fill="#911eb4" r="3.5" stroke-width="0" /><circle cx="914" cy="650" fill="#911eb4" r="3.5" stroke-width="0" /><circle cx="827" cy="647" fill="#911eb4" r="3.5" stroke-width="0" /><circle cx="893" cy="646" fill="#911eb4" r="3.5" stroke-width="0" /><circle cx="805" cy="629" fill="#911eb4" r="3.5" stroke-width="0" /><circle cx="815" cy="628" fill="#911eb4" r="3.5" stroke-width="0" /><circle cx="854" cy="628" fill="#911eb4" r="3.5" stroke-width="0" /><circle cx="832" cy="615" fill="#911eb4" r="3.5" stroke-width="0" /><circle cx="843" cy="608" fill="#911eb4" r="3.5" stroke-width="0" /><circle cx="845" cy="592" fill="#911eb4" r="3.5" stroke-width="0" /><circle cx="953" cy="583" fill="#911eb4" r="3.5" stroke-width="0" /><circle cx="876" cy="578" fill="#911eb4" r="3.5" stroke-width="0" /><circle cx="878" cy="565" fill="#911eb4" r="3.5" stroke-width="0" /><circle cx="881" cy="562" fill="#911eb4" r="3.5" stroke-width="0" /></g><g class="e4"><circle cx="343" cy="1070" fill="#3cb44B" r="3.5" stroke-width="0" /><circle cx="276" cy="1068" fill="#3cb44B" r="3.5" stroke-width="0" /><circle cx="339" cy="1068" fill="#3cb44B" r="3.5" stroke-width="0" /><circle cx="349" cy="1057" fill="#3cb44B" r="3.5" stroke-width="0" /><circle cx="329" cy="1056" fill="#3cb44B" r="3.5" stroke-width="0" /><circle cx="331" cy="1055" fill="#3cb44B" r="3.5" stroke-width="0" /><circle cx="293" cy="1054" fill="#3cb44B" r="3.5" stroke-width="0" /><circle cx="292" cy="1043" fill="#3cb44B" r="3.5" stroke-width="0" /><circle cx="212" cy="1034" fill="#3cb44B" r="3.5" stroke-width="0" /><circle cx="273" cy="1023" fill="#3cb44B" r="3.5" stroke-width="0" /><circle cx="320" cy="1021" fill="#3cb44B" r="3.5" stroke-width="0" /><circle cx="356" cy="1015" fill="#3cb44B" r="3.5" stroke-width="0" /><circle cx="279" cy="1012" fill="#3cb44B" r="3.5" stroke-width="0" /><circle cx="300" cy="996" fill="#3cb44B" r="3.5" stroke-width="0" /><circle cx="271" cy="993" fill="#3cb44B" r="3.5" stroke-width="0" /><circle cx="393" cy="991" fill="#3cb44B" r="3.5" stroke-width="0" /><circle cx="308" cy="965" fill="#3cb44B" r="3.5" stroke-width="0" /><circle cx="317" cy="962" fill="#3cb44B" r="3.5" stroke-width="0" /><circle cx="416" cy="962" fill="#3cb44B" r="3.5" stroke-width="0" /><circle cx="306" cy="958" fill="#3cb44B" r="3.5" stroke-width="0" /><circle cx="408" cy="957" fill="#3cb44B" r="3.5" stroke-width="0" /><circle cx="398" cy="947" fill="#3cb44B" r="3.5" stroke-width="0" /><circle cx="424" cy="946" fill="#3cb44B" r="3.5" stroke-width="0" /><circle cx="317" cy="942" fill="#3cb44B" r="3.5" stroke-width="0" /><circle cx="355" cy="935" fill="#3cb44B" r="3.5" stroke-width="0" /><circle cx="389" cy="917" fill="#3cb44B" r="3.5" stroke-width="0" /><circle cx="342" cy="895" fill="#3cb44B" r="3.5" stroke-width="0" /><circle cx="362" cy="895" fill="#3cb44B" r="3.5" stroke-width="0" /><circle cx="379" cy="881" fill="#3cb44B" r="3.5" stroke-width="0" /><circle cx="384" cy="875" fill="#3cb44B" r="3.5" stroke-width="0" /><circle cx="399" cy="873" fill="#3cb44B" r="3.5" stroke-width="0" /><circle cx="368" cy="869" fill="#3cb44B" r="3.5" stroke-width="0" /><circle cx="407" cy="853" fill="#3cb44B" r="3.5" stroke-width="0" /><circle cx="434" cy="826" fill="#3cb44B" r="3.5" stroke-width="0" /><circle cx="750" cy="663" fill="#3cb44B" r="3.5" stroke-width="0" /><circle cx="763" cy="652" fill="#3cb44B" r="3.5" stroke-width="0" /><circle cx="777" cy="630" fill="#3cb44B" r="3.5" stroke-width="0" /><circle cx="751" cy="629" fill="#3cb44B" r="3.5" stroke-width="0" /><circle cx="656" cy="600" fill="#3cb44B" r="3.5" stroke-width="0" /><circle cx="722" cy="600" fill="#3cb44B" r="3.5" stroke-width="0" /><circle cx="805" cy="599" fill="#3cb44B" r="3.5" stroke-width="0" /><circle cx="792" cy="591" fill="#3cb44B" r="3.5" stroke-width="0" /><circle cx="788" cy="589" fill="#3cb44B" r="3.5" stroke-width="0" /><circle cx="762" cy="579" fill="#3cb44B" r="3.5" stroke-width="0" /><circle cx="829" cy="579" fill="#3cb44B" r="3.5" stroke-width="0" /><circle cx="801" cy="576" fill="#3cb44B" r="3.5" stroke-width="0" /><circle cx="741" cy="569" fill="#3cb44B" r="3.5" stroke-width="0" /><circle cx="835" cy="568" fill="#3cb44B" r="3.5" stroke-width="0" /><circle cx="751" cy="558" fill="#3cb44B" r="3.5" stroke-width="0" /><circle cx="806" cy="558" fill="#3cb44B" r="3.5" stroke-width="0" /><circle cx="784" cy="548" fill="#3cb44B" r="3.5" stroke-width="0" /><circle cx="775" cy="546" fill="#3cb44B" r="3.5" stroke-width="0" /><circle cx="799" cy="546" fill="#3cb44B" r="3.5" stroke-width="0" /><circle cx="801" cy="545" fill="#3cb44B" r="3.5" stroke-width="0" /><circle cx="774" cy="537" fill="#3cb44B" r="3.5" stroke-width="0" /><circle cx="766" cy="535" fill="#3cb44B" r="3.5" stroke-width="0" /><circle cx="831" cy="532" fill="#3cb44B" r="3.5" stroke-width="0" /><circle cx="777" cy="531" fill="#3cb44B" r="3.5" stroke-width="0" /><circle cx="794" cy="531" fill="#3cb44B" r="3.5" stroke-width="0" /><circle cx="778" cy="529" fill="#3cb44B" r="3.5" stroke-width="0" /><circle cx="842" cy="525" fill="#3cb44B" r="3.5" stroke-width="0" /><circle cx="837" cy="520" fill="#3cb44B" r="3.5" stroke-width="0" /><circle cx="813" cy="519" fill="#3cb44B" r="3.5" stroke-width="0" /><circle cx="797" cy="513" fill="#3cb44B" r="3.5" stroke-width="0" /><circle cx="867" cy="513" fill="#3cb44B" r="3.5" stroke-width="0" /><circle cx="892" cy="507" fill="#3cb44B" r="3.5" stroke-width="0" /><circle cx="861" cy="506" fill="#3cb44B" r="3.5" stroke-width="0" /><circle cx="795" cy="505" fill="#3cb44B" r="3.5" stroke-width="0" /><circle cx="762" cy="497" fill="#3cb44B" r="3.5" stroke-width="0" /><circle cx="814" cy="495" fill="#3cb44B" r="3.5" stroke-width="0" /><circle cx="851" cy="482" fill="#3cb44B" r="3.5" stroke-width="0" /><circle cx="793" cy="480" fill="#3cb44B" r="3.5" stroke-width="0" /><circle cx="904" cy="469" fill="#3cb44B" r="3.5" stroke-width="0" /><circle cx="792" cy="458" fill="#3cb44B" r="3.5" stroke-width="0" /><circle cx="862" cy="458" fill="#3cb44B" r="3.5" stroke-width="0" /><circle cx="805" cy="444" fill="#3cb44B" r="3.5" stroke-width="0" /><circle cx="905" cy="433" fill="#3cb44B" r="3.5" stroke-width="0" /><circle cx="858" cy="429" fill="#3cb44B" r="3.5" stroke-width="0" /><circle cx="904" cy="425" fill="#3cb44B" r="3.5" stroke-width="0" /><circle cx="818" cy="421" fill="#3cb44B" r="3.5" stroke-width="0" /><circle cx="897" cy="419" fill="#3cb44B" r="3.5" stroke-width="0" /><circle cx="844" cy="404" fill="#3cb44B" r="3.5" stroke-width="0" /><circle cx="890" cy="404" fill="#3cb44B" r="3.5" stroke-width="0" /><circle cx="841" cy="402" fill="#3cb44B" r="3.5" stroke-width="0" /><circle cx="904" cy="366" fill="#3cb44B" r="3.5" stroke-width="0" /><circle cx="907" cy="365" fill="#3cb44B" r="3.5" stroke-width="0" /><circle cx="917" cy="360" fill="#3cb44B" r="3.5" stroke-width="0" /><circle cx="958" cy="323" fill="#3cb44B" r="3.5" stroke-width="0" /><circle cx="962" cy="284" fill="#3cb44B" r="3.5" stroke-width="0" /></g><g class="e5"><circle cx="257" cy="947" fill="#ff0000" r="3.5" stroke-width="0" /><circle cx="240" cy="942" fill="#ff0000" r="3.5" stroke-width="0" /><circle cx="298" cy="931" fill="#ff0000" r="3.5" stroke-width="0" /><circle cx="269" cy="929" fill="#ff0000" r="3.5" stroke-width="0" /><circle cx="243" cy="924" fill="#ff0000" r="3.5" stroke-width="0" /><circle cx="283" cy="917" fill="#ff0000" r="3.5" stroke-width="0" /><circle cx="264" cy="910" fill="#ff0000" r="3.5" stroke-width="0" /><circle cx="270" cy="902" fill="#ff0000" r="3.5" stroke-width="0" /><circle cx="320" cy="900" fill="#ff0000" r="3.5" stroke-width="0" /><circle cx="315" cy="893" fill="#ff0000" r="3.5" stroke-width="0" /><circle cx="315" cy="893" fill="#ff0000" r="3.5" stroke-width="0" /><circle cx="286" cy="891" fill="#ff0000" r="3.5" stroke-width="0" /><circle cx="297" cy="888" fill="#ff0000" r="3.5" stroke-width="0" /><circle cx="339" cy="888" fill="#ff0000" r="3.5" stroke-width="0" /><circle cx="282" cy="885" fill="#ff0000" r="3.5" stroke-width="0" /><circle cx="278" cy="878" fill="#ff0000" r="3.5" stroke-width="0" /><circle cx="361" cy="872" fill="#ff0000" r="3.5" stroke-width="0" /><circle cx="367" cy="862" fill="#ff0000" r="3.5" stroke-width="0" /><circle cx="355" cy="855" fill="#ff0000" r="3.5" stroke-width="0" /><circle cx="274" cy="847" fill="#ff0000" r="3.5" stroke-width="0" /><circle cx="237" cy="841" fill="#ff0000" r="3.5" stroke-width="0" /><circle cx="377" cy="823" fill="#ff0000" r="3.5" stroke-width="0" /><circle cx="241" cy="822" fill="#ff0000" r="3.5" stroke-width="0" /><circle cx="243" cy="819" fill="#ff0000" r="3.5" stroke-width="0" /><circle cx="274" cy="814" fill="#ff0000" r="3.5" stroke-width="0" /><circle cx="270" cy="811" fill="#ff0000" r="3.5" stroke-width="0" /><circle cx="371" cy="809" fill="#ff0000" r="3.5" stroke-width="0" /><circle cx="342" cy="808" fill="#ff0000" r="3.5" stroke-width="0" /><circle cx="388" cy="803" fill="#ff0000" r="3.5" stroke-width="0" /><circle cx="320" cy="798" fill="#ff0000" r="3.5" stroke-width="0" /><circle cx="376" cy="793" fill="#ff0000" r="3.5" stroke-width="0" /><circle cx="391" cy="788" fill="#ff0000" r="3.5" stroke-width="0" /><circle cx="346" cy="785" fill="#ff0000" r="3.5" stroke-width="0" /><circle cx="302" cy="774" fill="#ff0000" r="3.5" stroke-width="0" /><circle cx="301" cy="772" fill="#ff0000" r="3.5" stroke-width="0" /><circle cx="334" cy="772" fill="#ff0000" r="3.5" stroke-width="0" /><circle cx="315" cy="763" fill="#ff0000" r="3.5" stroke-width="0" /><circle cx="307" cy="762" fill="#ff0000" r="3.5" stroke-width="0" /><circle cx="359" cy="729" fill="#ff0000" r="3.5" stroke-width="0" /><circle cx="347" cy="723" fill="#ff0000" r="3.5" stroke-width="0" /><circle cx="369" cy="711" fill="#ff0000" r="3.5" stroke-width="0" /><circle cx="431" cy="707" fill="#ff0000" r="3.5" stroke-width="0" /><circle cx="433" cy="698" fill="#ff0000" r="3.5" stroke-width="0" /><circle cx="465" cy="631" fill="#ff0000" r="3.5" stroke-width="0" /><circle cx="693" cy="541" fill="#ff0000" r="3.5" stroke-width="0" /><circle cx="748" cy="456" fill="#ff0000" r="3.5" stroke-width="0" /><circle cx="751" cy="454" fill="#ff0000" r="3.5" stroke-width="0" /><circle cx="798" cy="435" fill="#ff0000" r="3.5" stroke-width="0" /><circle cx="771" cy="432" fill="#ff0000" r="3.5" stroke-width="0" /><circle cx="791" cy="427" fill="#ff0000" r="3.5" stroke-width="0" /><circle cx="812" cy="423" fill="#ff0000" r="3.5" stroke-width="0" /><circle cx="811" cy="419" fill="#ff0000" r="3.5" stroke-width="0" /><circle cx="809" cy="418" fill="#ff0000" r="3.5" stroke-width="0" /><circle cx="764" cy="410" fill="#ff0000" r="3.5" stroke-width="0" /><circle cx="789" cy="405" fill="#ff0000" r="3.5" stroke-width="0" /><circle cx="831" cy="397" fill="#ff0000" r="3.5" stroke-width="0" /><circle cx="771" cy="395" fill="#ff0000" r="3.5" stroke-width="0" /><circle cx="757" cy="392" fill="#ff0000" r="3.5" stroke-width="0" /><circle cx="768" cy="389" fill="#ff0000" r="3.5" stroke-width="0" /><circle cx="791" cy="381" fill="#ff0000" r="3.5" stroke-width="0" /><circle cx="834" cy="379" fill="#ff0000" r="3.5" stroke-width="0" /><circle cx="809" cy="376" fill="#ff0000" r="3.5" stroke-width="0" /><circle cx="812" cy="375" fill="#ff0000" r="3.5" stroke-width="0" /><circle cx="827" cy="375" fill="#ff0000" r="3.5" stroke-width="0" /><circle cx="808" cy="373" fill="#ff0000" r="3.5" stroke-width="0" /><circle cx="825" cy="368" fill="#ff0000" r="3.5" stroke-width="0" /><circle cx="753" cy="367" fill="#ff0000" r="3.5" stroke-width="0" /><circle cx="830" cy="360" fill="#ff0000" r="3.5" stroke-width="0" /><circle cx="823" cy="352" fill="#ff0000" r="3.5" stroke-width="0" /><circle cx="774" cy="335" fill="#ff0000" r="3.5" stroke-width="0" /><circle cx="749" cy="334" fill="#ff0000" r="3.5" stroke-width="0" /><circle cx="737" cy="330" fill="#ff0000" r="3.5" stroke-width="0" /><circle cx="846" cy="327" fill="#ff0000" r="3.5" stroke-width="0" /><circle cx="794" cy="323" fill="#ff0000" r="3.5" stroke-width="0" /><circle cx="903" cy="323" fill="#ff0000" r="3.5" stroke-width="0" /><circle cx="852" cy="321" fill="#ff0000" r="3.5" stroke-width="0" /><circle cx="769" cy="317" fill="#ff0000" r="3.5" stroke-width="0" /><circle cx="788" cy="310" fill="#ff0000" r="3.5" stroke-width="0" /><circle cx="782" cy="304" fill="#ff0000" r="3.5" stroke-width="0" /><circle cx="859" cy="304" fill="#ff0000" r="3.5" stroke-width="0" /><circle cx="875" cy="298" fill="#ff0000" r="3.5" stroke-width="0" /><circle cx="794" cy="296" fill="#ff0000" r="3.5" stroke-width="0" /><circle cx="800" cy="295" fill="#ff0000" r="3.5" stroke-width="0" /><circle cx="847" cy="292" fill="#ff0000" r="3.5" stroke-width="0" /><circle cx="837" cy="287" fill="#ff0000" r="3.5" stroke-width="0" /><circle cx="832" cy="283" fill="#ff0000" r="3.5" stroke-width="0" /><circle cx="818" cy="281" fill="#ff0000" r="3.5" stroke-width="0" /><circle cx="806" cy="277" fill="#ff0000" r="3.5" stroke-width="0" /><circle cx="851" cy="276" fill="#ff0000" r="3.5" stroke-width="0" /><circle cx="839" cy="261" fill="#ff0000" r="3.5" stroke-width="0" /><circle cx="824" cy="259" fill="#ff0000" r="3.5" stroke-width="0" /><circle cx="838" cy="256" fill="#ff0000" r="3.5" stroke-width="0" /><circle cx="861" cy="255" fill="#ff0000" r="3.5" stroke-width="0" /><circle cx="879" cy="228" fill="#ff0000" r="3.5" stroke-width="0" /><circle cx="856" cy="211" fill="#ff0000" r="3.5" stroke-width="0" /><circle cx="859" cy="208" fill="#ff0000" r="3.5" stroke-width="0" /><circle cx="896" cy="194" fill="#ff0000" r="3.5" stroke-width="0" /><circle cx="910" cy="178" fill="#ff0000" r="3.5" stroke-width="0" /></g><g class="e6"><circle cx="137" cy="861" fill="#2b92db" r="3.5" stroke-width="0" /><circle cx="186" cy="831" fill="#2b92db" r="3.5" stroke-width="0" /><circle cx="246" cy="808" fill="#2b92db" r="3.5" stroke-width="0" /><circle cx="239" cy="804" fill="#2b92db" r="3.5" stroke-width="0" /><circle cx="243" cy="802" fill="#2b92db" r="3.5" stroke-width="0" /><circle cx="194" cy="798" fill="#2b92db" r="3.5" stroke-width="0" /><circle cx="239" cy="783" fill="#2b92db" r="3.5" stroke-width="0" /><circle cx="269" cy="771" fill="#2b92db" r="3.5" stroke-width="0" /><circle cx="242" cy="767" fill="#2b92db" r="3.5" stroke-width="0" /><circle cx="269" cy="759" fill="#2b92db" r="3.5" stroke-width="0" /><circle cx="297" cy="745" fill="#2b92db" r="3.5" stroke-width="0" /><circle cx="306" cy="742" fill="#2b92db" r="3.5" stroke-width="0" /><circle cx="275" cy="741" fill="#2b92db" r="3.5" stroke-width="0" /><circle cx="313" cy="723" fill="#2b92db" r="3.5" stroke-width="0" /><circle cx="277" cy="714" fill="#2b92db" r="3.5" stroke-width="0" /><circle cx="329" cy="714" fill="#2b92db" r="3.5" stroke-width="0" /><circle cx="297" cy="713" fill="#2b92db" r="3.5" stroke-width="0" /><circle cx="277" cy="711" fill="#2b92db" r="3.5" stroke-width="0" /><circle cx="328" cy="703" fill="#2b92db" r="3.5" stroke-width="0" /><circle cx="331" cy="699" fill="#2b92db" r="3.5" stroke-width="0" /><circle cx="325" cy="692" fill="#2b92db" r="3.5" stroke-width="0" /><circle cx="323" cy="684" fill="#2b92db" r="3.5" stroke-width="0" /><circle cx="246" cy="681" fill="#2b92db" r="3.5" stroke-width="0" /><circle cx="259" cy="679" fill="#2b92db" r="3.5" stroke-width="0" /><circle cx="329" cy="679" fill="#2b92db" r="3.5" stroke-width="0" /><circle cx="302" cy="678" fill="#2b92db" r="3.5" stroke-width="0" /><circle cx="321" cy="676" fill="#2b92db" r="3.5" stroke-width="0" /><circle cx="324" cy="658" fill="#2b92db" r="3.5" stroke-width="0" /><circle cx="353" cy="655" fill="#2b92db" r="3.5" stroke-width="0" /><circle cx="320" cy="652" fill="#2b92db" r="3.5" stroke-width="0" /><circle cx="341" cy="652" fill="#2b92db" r="3.5" stroke-width="0" /><circle cx="342" cy="651" fill="#2b92db" r="3.5" stroke-width="0" /><circle cx="396" cy="651" fill="#2b92db" r="3.5" stroke-width="0" /><circle cx="306" cy="650" fill="#2b92db" r="3.5" stroke-width="0" /><circle cx="368" cy="648" fill="#2b92db" r="3.5" stroke-width="0" /><circle cx="378" cy="643" fill="#2b92db" r="3.5" stroke-width="0" /><circle cx="294" cy="640" fill="#2b92db" r="3.5" stroke-width="0" /><circle cx="317" cy="636" fill="#2b92db" r="3.5" stroke-width="0" /><circle cx="384" cy="636" fill="#2b92db" r="3.5" stroke-width="0" /><circle cx="320" cy="635" fill="#2b92db" r="3.5" stroke-width="0" /><circle cx="350" cy="632" fill="#2b92db" r="3.5" stroke-width="0" /><circle cx="281" cy="625" fill="#2b92db" r="3.5" stroke-width="0" /><circle cx="313" cy="623" fill="#2b92db" r="3.5" stroke-width="0" /><circle cx="370" cy="618" fill="#2b92db" r="3.5" stroke-width="0" /><circle cx="369" cy="616" fill="#2b92db" r="3.5" stroke-width="0" /><circle cx="282" cy="615" fill="#2b92db" r="3.5" stroke-width="0" /><circle cx="292" cy="614" fill="#2b92db" r="3.5" stroke-width="0" /><circle cx="361" cy="614" fill="#2b92db" r="3.5" stroke-width="0" /><circle cx="346" cy="612" fill="#2b92db" r="3.5" stroke-width="0" /><circle cx="369" cy="601" fill="#2b92db" r="3.5" stroke-width="0" /><circle cx="350" cy="589" fill="#2b92db" r="3.5" stroke-width="0" /><circle cx="343" cy="586" fill="#2b92db" r="3.5" stroke-width="0" /><circle cx="361" cy="584" fill="#2b92db" r="3.5" stroke-width="0" /><circle cx="469" cy="584" fill="#2b92db" r="3.5" stroke-width="0" /><circle cx="296" cy="580" fill="#2b92db" r="3.5" stroke-width="0" /><circle cx="311" cy="577" fill="#2b92db" r="3.5" stroke-width="0" /><circle cx="320" cy="576" fill="#2b92db" r="3.5" stroke-width="0" /><circle cx="304" cy="575" fill="#2b92db" r="3.5" stroke-width="0" /><circle cx="315" cy="568" fill="#2b92db" r="3.5" stroke-width="0" /><circle cx="326" cy="567" fill="#2b92db" r="3.5" stroke-width="0" /><circle cx="380" cy="564" fill="#2b92db" r="3.5" stroke-width="0" /><circle cx="319" cy="563" fill="#2b92db" r="3.5" stroke-width="0" /><circle cx="339" cy="559" fill="#2b92db" r="3.5" stroke-width="0" /><circle cx="359" cy="557" fill="#2b92db" r="3.5" stroke-width="0" /><circle cx="365" cy="556" fill="#2b92db" r="3.5" stroke-width="0" /><circle cx="445" cy="546" fill="#2b92db" r="3.5" stroke-width="0" /><circle cx="371" cy="539" fill="#2b92db" r="3.5" stroke-width="0" /><circle cx="341" cy="536" fill="#2b92db" r="3.5" stroke-width="0" /><circle cx="375" cy="499" fill="#2b92db" r="3.5" stroke-width="0" /><circle cx="407" cy="491" fill="#2b92db" r="3.5" stroke-width="0" /><circle cx="412" cy="486" fill="#2b92db" r="3.5" stroke-width="0" /><circle cx="407" cy="482" fill="#2b92db" r="3.5" stroke-width="0" /><circle cx="775" cy="271" fill="#2b92db" r="3.5" stroke-width="0" /><circle cx="783" cy="255" fill="#2b92db" r="3.5" stroke-width="0" /><circle cx="731" cy="252" fill="#2b92db" r="3.5" stroke-width="0" /><circle cx="739" cy="223" fill="#2b92db" r="3.5" stroke-width="0" /><circle cx="745" cy="221" fill="#2b92db" r="3.5" stroke-width="0" /><circle cx="697" cy="218" fill="#2b92db" r="3.5" stroke-width="0" /><circle cx="838" cy="215" fill="#2b92db" r="3.5" stroke-width="0" /><circle cx="838" cy="207" fill="#2b92db" r="3.5" stroke-width="0" /><circle cx="807" cy="206" fill="#2b92db" r="3.5" stroke-width="0" /><circle cx="780" cy="196" fill="#2b92db" r="3.5" stroke-width="0" /><circle cx="750" cy="190" fill="#2b92db" r="3.5" stroke-width="0" /><circle cx="788" cy="179" fill="#2b92db" r="3.5" stroke-width="0" /><circle cx="821" cy="179" fill="#2b92db" r="3.5" stroke-width="0" /><circle cx="784" cy="174" fill="#2b92db" r="3.5" stroke-width="0" /><circle cx="798" cy="153" fill="#2b92db" r="3.5" stroke-width="0" /><circle cx="879" cy="147" fill="#2b92db" r="3.5" stroke-width="0" /><circle cx="824" cy="141" fill="#2b92db" r="3.5" stroke-width="0" /><circle cx="829" cy="125" fill="#2b92db" r="3.5" stroke-width="0" /><circle cx="844" cy="124" fill="#2b92db" r="3.5" stroke-width="0" /><circle cx="813" cy="117" fill="#2b92db" r="3.5" stroke-width="0" /><circle cx="868" cy="115" fill="#2b92db" r="3.5" stroke-width="0" /><circle cx="904" cy="103" fill="#2b92db" r="3.5" stroke-width="0" /><circle cx="851" cy="101" fill="#2b92db" r="3.5" stroke-width="0" /><circle cx="819" cy="89" fill="#2b92db" r="3.5" stroke-width="0" /><circle cx="878" cy="81" fill="#2b92db" r="3.5" stroke-width="0" /></g><g class="e7"><circle cx="223" cy="633" fill="#911eb4" r="3.5" stroke-width="0" /><circle cx="229" cy="632" fill="#911eb4" r="3.5" stroke-width="0" /><circle cx="231" cy="595" fill="#911eb4" r="3.5" stroke-width="0" /><circle cx="276" cy="594" fill="#911eb4" r="3.5" stroke-width="0" /><circle cx="255" cy="577" fill="#911eb4" r="3.5" stroke-width="0" /><circle cx="268" cy="572" fill="#911eb4" r="3.5" stroke-width="0" /><circle cx="234" cy="567" fill="#911eb4" r="3.5" stroke-width="0" /><circle cx="245" cy="559" fill="#911eb4" r="3.5" stroke-width="0" /><circle cx="225" cy="556" fill="#911eb4" r="3.5" stroke-width="0" /><circle cx="292" cy="555" fill="#911eb4" r="3.5" stroke-width="0" /><circle cx="319" cy="550" fill="#911eb4" r="3.5" stroke-width="0" /><circle cx="329" cy="534" fill="#911eb4" r="3.5" stroke-width="0" /><circle cx="219" cy="528" fill="#911eb4" r="3.5" stroke-width="0" /><circle cx="330" cy="521" fill="#911eb4" r="3.5" stroke-width="0" /><circle cx="319" cy="517" fill="#911eb4" r="3.5" stroke-width="0" /><circle cx="330" cy="513" fill="#911eb4" r="3.5" stroke-width="0" /><circle cx="293" cy="511" fill="#911eb4" r="3.5" stroke-width="0" /><circle cx="297" cy="507" fill="#911eb4" r="3.5" stroke-width="0" /><circle cx="293" cy="502" fill="#911eb4" r="3.5" stroke-width="0" /><circle cx="202" cy="501" fill="#911eb4" r="3.5" stroke-width="0" /><circle cx="277" cy="500" fill="#911eb4" r="3.5" stroke-width="0" /><circle cx="319" cy="498" fill="#911eb4" r="3.5" stroke-width="0" /><circle cx="356" cy="497" fill="#911eb4" r="3.5" stroke-width="0" /><circle cx="327" cy="492" fill="#911eb4" r="3.5" stroke-width="0" /><circle cx="377" cy="490" fill="#911eb4" r="3.5" stroke-width="0" /><circle cx="305" cy="489" fill="#911eb4" r="3.5" stroke-width="0" /><circle cx="361" cy="486" fill="#911eb4" r="3.5" stroke-width="0" /><circle cx="230" cy="485" fill="#911eb4" r="3.5" stroke-width="0" /><circle cx="355" cy="485" fill="#911eb4" r="3.5" stroke-width="0" /><circle cx="384" cy="485" fill="#911eb4" r="3.5" stroke-width="0" /><circle cx="353" cy="484" fill="#911eb4" r="3.5" stroke-width="0" /><circle cx="279" cy="483" fill="#911eb4" r="3.5" stroke-width="0" /><circle cx="306" cy="480" fill="#911eb4" r="3.5" stroke-width="0" /><circle cx="260" cy="476" fill="#911eb4" r="3.5" stroke-width="0" /><circle cx="298" cy="465" fill="#911eb4" r="3.5" stroke-width="0" /><circle cx="365" cy="465" fill="#911eb4" r="3.5" stroke-width="0" /><circle cx="308" cy="463" fill="#911eb4" r="3.5" stroke-width="0" /><circle cx="352" cy="463" fill="#911eb4" r="3.5" stroke-width="0" /><circle cx="326" cy="452" fill="#911eb4" r="3.5" stroke-width="0" /><circle cx="327" cy="448" fill="#911eb4" r="3.5" stroke-width="0" /><circle cx="420" cy="439" fill="#911eb4" r="3.5" stroke-width="0" /><circle cx="281" cy="436" fill="#911eb4" r="3.5" stroke-width="0" /><circle cx="285" cy="434" fill="#911eb4" r="3.5" stroke-width="0" /><circle cx="342" cy="431" fill="#911eb4" r="3.5" stroke-width="0" /><circle cx="347" cy="428" fill="#911eb4" r="3.5" stroke-width="0" /><circle cx="291" cy="418" fill="#911eb4" r="3.5" stroke-width="0" /><circle cx="292" cy="418" fill="#911eb4" r="3.5" stroke-width="0" /><circle cx="300" cy="418" fill="#911eb4" r="3.5" stroke-width="0" /><circle cx="350" cy="417" fill="#911eb4" r="3.5" stroke-width="0" /><circle cx="317" cy="414" fill="#911eb4" r="3.5" stroke-width="0" /><circle cx="409" cy="412" fill="#911eb4" r="3.5" stroke-width="0" /><circle cx="331" cy="408" fill="#911eb4" r="3.5" stroke-width="0" /><circle cx="329" cy="387" fill="#911eb4" r="3.5" stroke-width="0" /><circle cx="311" cy="385" fill="#911eb4" r="3.5" stroke-width="0" /><circle cx="369" cy="385" fill="#911eb4" r="3.5" stroke-width="0" /><circle cx="428" cy="383" fill="#911eb4" r="3.5" stroke-width="0" /><circle cx="370" cy="377" fill="#911eb4" r="3.5" stroke-width="0" /><circle cx="404" cy="366" fill="#911eb4" r="3.5" stroke-width="0" /><circle cx="375" cy="351" fill="#911eb4" r="3.5" stroke-width="0" /><circle cx="393" cy="342" fill="#911eb4" r="3.5" stroke-width="0" /><circle cx="411" cy="339" fill="#911eb4" r="3.5" stroke-width="0" /><circle cx="367" cy="326" fill="#911eb4" r="3.5" stroke-width="0" /><circle cx="446" cy="252" fill="#911eb4" r="3.5" stroke-width="0" /><circle cx="674" cy="190" fill="#911eb4" r="3.5" stroke-width="0" /><circle cx="716" cy="117" fill="#911eb4" r="3.5" stroke-width="0" /><circle cx="781" cy="81" fill="#911eb4" r="3.5" stroke-width="0" /></g><g class="e8"><circle cx="153" cy="511" fill="#3cb44B" r="3.5" stroke-width="0" /><circle cx="211" cy="418" fill="#3cb44B" r="3.5" stroke-width="0" /><circle cx="274" cy="410" fill="#3cb44B" r="3.5" stroke-width="0" /><circle cx="246" cy="397" fill="#3cb44B" r="3.5" stroke-width="0" /><circle cx="260" cy="393" fill="#3cb44B" r="3.5" stroke-width="0" /><circle cx="267" cy="391" fill="#3cb44B" r="3.5" stroke-width="0" /><circle cx="293" cy="391" fill="#3cb44B" r="3.5" stroke-width="0" /><circle cx="310" cy="380" fill="#3cb44B" r="3.5" stroke-width="0" /><circle cx="273" cy="376" fill="#3cb44B" r="3.5" stroke-width="0" /><circle cx="293" cy="375" fill="#3cb44B" r="3.5" stroke-width="0" /><circle cx="263" cy="362" fill="#3cb44B" r="3.5" stroke-width="0" /><circle cx="313" cy="362" fill="#3cb44B" r="3.5" stroke-width="0" /><circle cx="257" cy="359" fill="#3cb44B" r="3.5" stroke-width="0" /><circle cx="282" cy="356" fill="#3cb44B" r="3.5" stroke-width="0" /><circle cx="279" cy="355" fill="#3cb44B" r="3.5" stroke-width="0" /><circle cx="331" cy="346" fill="#3cb44B" r="3.5" stroke-width="0" /><circle cx="286" cy="341" fill="#3cb44B" r="3.5" stroke-width="0" /><circle cx="265" cy="340" fill="#3cb44B" r="3.5" stroke-width="0" /><circle cx="273" cy="340" fill="#3cb44B" r="3.5" stroke-width="0" /><circle cx="267" cy="335" fill="#3cb44B" r="3.5" stroke-width="0" /><circle cx="282" cy="325" fill="#3cb44B" r="3.5" stroke-width="0" /><circle cx="241" cy="324" fill="#3cb44B" r="3.5" stroke-width="0" /><circle cx="354" cy="323" fill="#3cb44B" r="3.5" stroke-width="0" /><circle cx="206" cy="321" fill="#3cb44B" r="3.5" stroke-width="0" /><circle cx="320" cy="320" fill="#3cb44B" r="3.5" stroke-width="0" /><circle cx="310" cy="311" fill="#3cb44B" r="3.5" stroke-width="0" /><circle cx="261" cy="308" fill="#3cb44B" r="3.5" stroke-width="0" /><circle cx="267" cy="301" fill="#3cb44B" r="3.5" stroke-width="0" /><circle cx="356" cy="297" fill="#3cb44B" r="3.5" stroke-width="0" /><circle cx="279" cy="295" fill="#3cb44B" r="3.5" stroke-width="0" /><circle cx="370" cy="288" fill="#3cb44B" r="3.5" stroke-width="0" /><circle cx="245" cy="285" fill="#3cb44B" r="3.5" stroke-width="0" /><circle cx="274" cy="284" fill="#3cb44B" r="3.5" stroke-width="0" /><circle cx="245" cy="282" fill="#3cb44B" r="3.5" stroke-width="0" /><circle cx="394" cy="274" fill="#3cb44B" r="3.5" stroke-width="0" /><circle cx="283" cy="267" fill="#3cb44B" r="3.5" stroke-width="0" /><circle cx="368" cy="259" fill="#3cb44B" r="3.5" stroke-width="0" /><circle cx="393" cy="254" fill="#3cb44B" r="3.5" stroke-width="0" /><circle cx="313" cy="249" fill="#3cb44B" r="3.5" stroke-width="0" /><circle cx="268" cy="248" fill="#3cb44B" r="3.5" stroke-width="0" /><circle cx="378" cy="248" fill="#3cb44B" r="3.5" stroke-width="0" /><circle cx="276" cy="237" fill="#3cb44B" r="3.5" stroke-width="0" /><circle cx="361" cy="236" fill="#3cb44B" r="3.5" stroke-width="0" /><circle cx="288" cy="226" fill="#3cb44B" r="3.5" stroke-width="0" /><circle cx="322" cy="226" fill="#3cb44B" r="3.5" stroke-width="0" /><circle cx="333" cy="218" fill="#3cb44B" r="3.5" stroke-width="0" /><circle cx="332" cy="217" fill="#3cb44B" r="3.5" stroke-width="0" /><circle cx="333" cy="216" fill="#3cb44B" r="3.5" stroke-width="0" /><circle cx="336" cy="212" fill="#3cb44B" r="3.5" stroke-width="0" /><circle cx="331" cy="210" fill="#3cb44B" r="3.5" stroke-width="0" /><circle cx="338" cy="207" fill="#3cb44B" r="3.5" stroke-width="0" /><circle cx="342" cy="192" fill="#3cb44B" r="3.5" stroke-width="0" /><circle cx="365" cy="189" fill="#3cb44B" r="3.5" stroke-width="0" /><circle cx="369" cy="159" fill="#3cb44B" r="3.5" stroke-width="0" /><circle cx="400" cy="156" fill="#3cb44B" r="3.5" stroke-width="0" /><circle cx="399" cy="121" fill="#3cb44B" r="3.5" stroke-width="0" /><circle cx="453" cy="114" fill="#3cb44B" r="3.5" stroke-width="0" /></g><g class="e9"><circle cx="224" cy="260" fill="#ff0000" r="3.5" stroke-width="0" /><circle cx="261" cy="249" fill="#ff0000" r="3.5" stroke-width="0" /><circle cx="232" cy="208" fill="#ff0000" r="3.5" stroke-width="0" /><circle cx="242" cy="197" fill="#ff0000" r="3.5" stroke-width="0" /><circle cx="268" cy="194" fill="#ff0000" r="3.5" stroke-width="0" /><circle cx="267" cy="193" fill="#ff0000" r="3.5" stroke-width="0" /><circle cx="283" cy="180" fill="#ff0000" r="3.5" stroke-width="0" /><circle cx="258" cy="162" fill="#ff0000" r="3.5" stroke-width="0" /><circle cx="260" cy="138" fill="#ff0000" r="3.5" stroke-width="0" /><circle cx="339" cy="134" fill="#ff0000" r="3.5" stroke-width="0" /><circle cx="370" cy="101" fill="#ff0000" r="3.5" stroke-width="0" /><circle cx="318" cy="100" fill="#ff0000" r="3.5" stroke-width="0" /><circle cx="249" cy="90" fill="#ff0000" r="3.5" stroke-width="0" /></g><g class="e10"><circle cx="193" cy="104" fill="#2b92db" r="3.5" stroke-width="0" /><circle cx="167" cy="103" fill="#2b92db" r="3.5" stroke-width="0" /><circle cx="232" cy="78" fill="#2b92db" r="3.5" stroke-width="0" /></g></g></g></svg>