<?xml version="1.0" encoding="utf-8" ?>
<svg baseProfile="full" height="1140px" style="font-size:15;font-family:Arial, san-serif;font-weight:bold;stroke:black;stroke-width:0;fill:#444444" version="1.1" width="1140px" xmlns="http://www.w3.org/2000/svg" xmlns:ev="http://www.w3.org/2001/xml-events" xmlns:xlink="http://www.w3.org/1999/xlink"><defs><clipPath id="areadografico"><rect height="1000" width="1000" x="70" y="70" /></clipPath></defs><g class="master"><g class="poligonos"><polygon clip-path="url(#areadografico)" fill="#000000" fill-opacity="0.1" points="1069,1070 1069,890 890,1070" /><polygon clip-path="url(#areadografico)" fill="#ffffff" fill-opacity="0.1" points="890,1070 709,1070 1069,709 1069,890" /><polygon clip-path="url(#areadografico)" fill="#000000" fill-opacity="0.1" points="709,1070 528,1070 1069,528 1069,709" /><polygon clip-path="url(#areadografico)" fill="#ffffff" fill-opacity="0.1" points="528,1070 347,1070 1069,347 1069,528" /><polygon clip-path="url(#areadografico)" fill="#000000" fill-opacity="0.1" points="347,1070 166,1070 1069,166 1069,347" /><polygon clip-path="url(#areadografico)" fill="#ffffff" fill-opacity="0.1" points="166,1070 -15,1070 1069,-15 1069,166" /><polygon clip-path="url(#areadografico)" fill="#000000" fill-opacity="0.1" points="-15,1070 -196,1070 1069,-196 1069,-15" /><polygon clip-path="url(#areadografico)" fill="#ffffff" fill-opacity="0.1" points="-196,1070 -377,1070 1069,-377 1069,-196" /><polygon clip-path="url(#areadografico)" fill="#000000" fill-opacity="0.1" points="-377,1070 -558,1070 1069,-558 1069,-377" /><polygon clip-path="url(#areadografico)" fill="#ffffff" fill-opacity="0.1" points="-558,1070 -739,1070 1069,-739 1069,-558" /><polygon clip-path="url(#areadografico)" fill="#000000" fill-opacity="0.1" points="70,70 70,260 260,70" /></g><g class="linhas"><line fill-opacity="0.3" stroke="#999999" stroke-width="1" x1="1070" x2="1070" y1="1070" y2="70" /><line fill-opacity="0.3" stroke="#999999" stroke-width="1" x1="70" x2="1070" y1="70" y2="70" /><line fill-opacity="0.3" stroke="#999999" stroke-width="1" x1="970" x2="970" y1="1070" y2="70" /><line fill-opacity="0.3" stroke="#999999" stroke-width="1" x1="70" x2="1070" y1="170" y2="170" /><line fill-opacity="0.3" stroke="#999999" stroke-width="1" x1="870" x2="870" y1="1070" y2="70" /><line fill-opacity="0.3" stroke="#999999" stroke-width="1" x1="70" x2="1070" y1="270" y2="270" /><line fill-opacity="0.3" stroke="#999999" stroke-width="1" x1="770" x2="770" y1="1070" y2="70" /><line fill-opacity="0.3" stroke="#999999" stroke-width="1" x1="70" x2="1070" y1="370" y2="370" /><line fill-opacity="0.3" stroke="#999999" stroke-width="1" x1="670" x2="670" y1="1070" y2="70" /><line fill-opacity="0.3" stroke="#999999" stroke-width="1" x1="70" x2="1070" y1="470" y2="470" /><line fill-opacity="0.3" stroke="#999999" stroke-width="1" x1="570" x2="570" y1="1070" y2="70" /><line fill-opacity="0.3" stroke="#999999" stroke-width="1" x1="70" x2="1070" y1="570" y2="570" /><line fill-opacity="0.3" stroke="#999999" stroke-width="1" x1="470" x2="470" y1="1070" y2="70" /><line fill-opacity="0.3" stroke="#999999" stroke-width="1" x1="70" x2="1070" y1="670" y2="670" /><line fill-opacity="0.3" stroke="#999999" stroke-width="1" x1="370" x2="370" y1="1070" y2="70" /><line fill-opacity="0.3" stroke="#999999" stroke-width="1" x1="70" x2="1070" y1="770" y2="770" /><line fill-opacity="0.3" stroke="#999999" stroke-width="1" x1="270" x2="270" y1="1070" y2="70" /><line fill-opacity="0.3" stroke="#999999" stroke-width="1" x1="70" x2="1070" y1="870" y2="870" /><line fill-opacity="0.3" stroke="#999999" stroke-width="1" x1="170" x2="170" y1="1070" y2="70" /><line fill-opacity="0.3" stroke="#999999" stroke-width="1" x1="70" x2="1070" y1="970" y2="970" /><line fill-opacity="0.3" stroke="#000000" stroke-width="1" x1="70" x2="70" y1="1071" y2="69" /><line fill-opacity="0.3" stroke="#000000" stroke-width="1" x1="69" x2="1071" y1="1070" y2="1070" /></g><g class="textos"><text x="1050" y="1110">1000</text><text x="10" y="71">1000</text><text x="950" y="1110">900</text><text x="10" y="171">900</text><text x="850" y="1110">800</text><text x="10" y="271">800</text><text x="750" y="1110">700</text><text x="10" y="371">700</text><text x="650" y="1110">600</text><text x="10" y="471">600</text><text x="550" y="1110">500</text><text x="10" y="571">500</text><text x="450" y="1110">400</text><text x="10" y="671">400</text><text x="350" y="1110">300</text><text x="10" y="771">300</text><text x="250" y="1110">200</text><text x="10" y="871">200</text><text x="150" y="1110">100</text><text x="10" y="971">100</text><text x="50" y="1111">0</text><text x="9" y="1071">0</text></g><g class="especies"><g class="e0" /><g class="e1"><circle cx="826" cy="1063" fill="#ff0000" r="3.5" stroke-width="0" /><circle cx="852" cy="1063" fill="#ff0000" r="3.5" stroke-width="0" /><circle cx="774" cy="1049" fill="#ff0000" r="3.5" stroke-width="0" /><circle cx="885" cy="1048" fill="#ff0000" r="3.5" stroke-width="0" /><circle cx="834" cy="1046" fill="#ff0000" r="3.5" stroke-width="0" /><circle cx="765" cy="1035" fill="#ff0000" r="3.5" stroke-width="0" /><circle cx="821" cy="1033" fill="#ff0000" r="3.5" stroke-width="0" /><circle cx="858" cy="1033" fill="#ff0000" r="3.5" stroke-width="0" /><circle cx="821" cy="1022" fill="#ff0000" r="3.5" stroke-width="0" /><circle cx="848" cy="1003" fill="#ff0000" r="3.5" stroke-width="0" /><circle cx="872" cy="985" fill="#ff0000" r="3.5" stroke-width="0" /><circle cx="824" cy="978" fill="#ff0000" r="3.5" stroke-width="0" /><circle cx="864" cy="969" fill="#ff0000" r="3.5" stroke-width="0" /><circle cx="894" cy="966" fill="#ff0000" r="3.5" stroke-width="0" /><circle cx="884" cy="944" fill="#ff0000" r="3.5" stroke-width="0" /></g><g class="e2"><circle cx="785" cy="973" fill="#2b92db" r="3.5" stroke-width="0" /><circle cx="759" cy="963" fill="#2b92db" r="3.5" stroke-width="0" /><circle cx="741" cy="961" fill="#2b92db" r="3.5" stroke-width="0" /><circle cx="757" cy="955" fill="#2b92db" r="3.5" stroke-width="0" /><circle cx="805" cy="951" fill="#2b92db" r="3.5" stroke-width="0" /><circle cx="801" cy="939" fill="#2b92db" r="3.5" stroke-width="0" /><circle cx="804" cy="938" fill="#2b92db" r="3.5" stroke-width="0" /><circle cx="805" cy="922" fill="#2b92db" r="3.5" stroke-width="0" /><circle cx="782" cy="899" fill="#2b92db" r="3.5" stroke-width="0" /><circle cx="788" cy="898" fill="#2b92db" r="3.5" stroke-width="0" /><circle cx="857" cy="895" fill="#2b92db" r="3.5" stroke-width="0" /><circle cx="883" cy="876" fill="#2b92db" r="3.5" stroke-width="0" /><circle cx="857" cy="870" fill="#2b92db" r="3.5" stroke-width="0" /><circle cx="797" cy="859" fill="#2b92db" r="3.5" stroke-width="0" /><circle cx="832" cy="853" fill="#2b92db" r="3.5" stroke-width="0" /><circle cx="768" cy="846" fill="#2b92db" r="3.5" stroke-width="0" /><circle cx="830" cy="839" fill="#2b92db" r="3.5" stroke-width="0" /><circle cx="856" cy="836" fill="#2b92db" r="3.5" stroke-width="0" /><circle cx="797" cy="833" fill="#2b92db" r="3.5" stroke-width="0" /><circle cx="843" cy="826" fill="#2b92db" r="3.5" stroke-width="0" /><circle cx="933" cy="813" fill="#2b92db" r="3.5" stroke-width="0" /><circle cx="808" cy="808" fill="#2b92db" r="3.5" stroke-width="0" /><circle cx="844" cy="800" fill="#2b92db" r="3.5" stroke-width="0" /><circle cx="833" cy="799" fill="#2b92db" r="3.5" stroke-width="0" /><circle cx="914" cy="794" fill="#2b92db" r="3.5" stroke-width="0" /><circle cx="821" cy="789" fill="#2b92db" r="3.5" stroke-width="0" /><circle cx="930" cy="789" fill="#2b92db" r="3.5" stroke-width="0" /><circle cx="830" cy="774" fill="#2b92db" r="3.5" stroke-width="0" /><circle cx="834" cy="772" fill="#2b92db" r="3.5" stroke-width="0" /><circle cx="869" cy="770" fill="#2b92db" r="3.5" stroke-width="0" /><circle cx="927" cy="725" fill="#2b92db" r="3.5" stroke-width="0" /></g><g class="e3"><circle cx="368" cy="1051" fill="#911eb4" r="3.5" stroke-width="0" /><circle cx="762" cy="770" fill="#911eb4" r="3.5" stroke-width="0" /><circle cx="823" cy="761" fill="#911eb4" r="3.5" stroke-width="0" /><circle cx="763" cy="759" fill="#911eb4" r="3.5" stroke-width="0" /><circle cx="823" cy="756" fill="#911eb4" r="3.5" stroke-width="0" /><circle cx="851" cy="738" fill="#911eb4" r="3.5" stroke-width="0" /><circle cx="837" cy="732" fill="#911eb4" r="3.5" stroke-width="0" /><circle cx="813" cy="729" fill="#911eb4" r="3.5" stroke-width="0" /><circle cx="841" cy="721" fill="#911eb4" r="3.5" stroke-width="0" /><circle cx="802" cy="716" fill="#911eb4" r="3.5" stroke-width="0" /><circle cx="808" cy="711" fill="#911eb4" r="3.5" stroke-width="0" /><circle cx="786" cy="709" fill="#911eb4" r="3.5" stroke-width="0" /><circle cx="821" cy="700" fill="#911eb4" r="3.5" stroke-width="0" /><circle cx="860" cy="694" fill="#911eb4" r="3.5" stroke-width="0" /><circle cx="774" cy="693" fill="#911eb4" r="3.5" stroke-width="0" /><circle cx="822" cy="684" fill="#911eb4" r="3.5" stroke-width="0" /><circle cx="787" cy="682" fill="#911eb4" r="3.5" stroke-width="0" /><circle cx="758" cy="669" fill="#911eb4" r="3.5" stroke-width="0" /><circle cx="824" cy="668" fill="#911eb4" r="3.5" stroke-width="0" /><circle cx="845" cy="668" fill="#911eb4" r="3.5" stroke-width="0" /><circle cx="778" cy="649" fill="#911eb4" r="3.5" stroke-width="0" /><circle cx="900" cy="627" fill="#911eb4" r="3.5" stroke-width="0" /><circle cx="906" cy="626" fill="#911eb4" r="3.5" stroke-width="0" /><circle cx="842" cy="600" fill="#911eb4" r="3.5" stroke-width="0" /><circle cx="842" cy="576" fill="#911eb4" r="3.5" stroke-width="0" /><circle cx="878" cy="548" fill="#911eb4" r="3.5" stroke-width="0" /><circle cx="912" cy="531" fill="#911eb4" r="3.5" stroke-width="0" /></g><g class="e4"><circle cx="314" cy="1051" fill="#3cb44B" r="3.5" stroke-width="0" /><circle cx="255" cy="1050" fill="#3cb44B" r="3.5" stroke-width="0" /><circle cx="291" cy="1034" fill="#3cb44B" r="3.5" stroke-width="0" /><circle cx="349" cy="1028" fill="#3cb44B" r="3.5" stroke-width="0" /><circle cx="255" cy="1007" fill="#3cb44B" r="3.5" stroke-width="0" /><circle cx="318" cy="1004" fill="#3cb44B" r="3.5" stroke-width="0" /><circle cx="290" cy="1003" fill="#3cb44B" r="3.5" stroke-width="0" /><circle cx="352" cy="998" fill="#3cb44B" r="3.5" stroke-width="0" /><circle cx="376" cy="989" fill="#3cb44B" r="3.5" stroke-width="0" /><circle cx="276" cy="985" fill="#3cb44B" r="3.5" stroke-width="0" /><circle cx="354" cy="985" fill="#3cb44B" r="3.5" stroke-width="0" /><circle cx="313" cy="973" fill="#3cb44B" r="3.5" stroke-width="0" /><circle cx="345" cy="949" fill="#3cb44B" r="3.5" stroke-width="0" /><circle cx="312" cy="941" fill="#3cb44B" r="3.5" stroke-width="0" /><circle cx="372" cy="923" fill="#3cb44B" r="3.5" stroke-width="0" /><circle cx="396" cy="922" fill="#3cb44B" r="3.5" stroke-width="0" /><circle cx="320" cy="919" fill="#3cb44B" r="3.5" stroke-width="0" /><circle cx="351" cy="917" fill="#3cb44B" r="3.5" stroke-width="0" /><circle cx="385" cy="892" fill="#3cb44B" r="3.5" stroke-width="0" /><circle cx="372" cy="870" fill="#3cb44B" r="3.5" stroke-width="0" /><circle cx="748" cy="666" fill="#3cb44B" r="3.5" stroke-width="0" /><circle cx="767" cy="648" fill="#3cb44B" r="3.5" stroke-width="0" /><circle cx="761" cy="636" fill="#3cb44B" r="3.5" stroke-width="0" /><circle cx="752" cy="629" fill="#3cb44B" r="3.5" stroke-width="0" /><circle cx="791" cy="613" fill="#3cb44B" r="3.5" stroke-width="0" /><circle cx="761" cy="610" fill="#3cb44B" r="3.5" stroke-width="0" /><circle cx="804" cy="608" fill="#3cb44B" r="3.5" stroke-width="0" /><circle cx="808" cy="596" fill="#3cb44B" r="3.5" stroke-width="0" /><circle cx="800" cy="586" fill="#3cb44B" r="3.5" stroke-width="0" /><circle cx="833" cy="577" fill="#3cb44B" r="3.5" stroke-width="0" /><circle cx="842" cy="574" fill="#3cb44B" r="3.5" stroke-width="0" /><circle cx="810" cy="570" fill="#3cb44B" r="3.5" stroke-width="0" /><circle cx="833" cy="570" fill="#3cb44B" r="3.5" stroke-width="0" /><circle cx="836" cy="568" fill="#3cb44B" r="3.5" stroke-width="0" /><circle cx="819" cy="562" fill="#3cb44B" r="3.5" stroke-width="0" /><circle cx="856" cy="559" fill="#3cb44B" r="3.5" stroke-width="0" /><circle cx="819" cy="556" fill="#3cb44B" r="3.5" stroke-width="0" /><circle cx="776" cy="551" fill="#3cb44B" r="3.5" stroke-width="0" /><circle cx="772" cy="550" fill="#3cb44B" r="3.5" stroke-width="0" /><circle cx="804" cy="549" fill="#3cb44B" r="3.5" stroke-width="0" /><circle cx="827" cy="546" fill="#3cb44B" r="3.5" stroke-width="0" /><circle cx="792" cy="537" fill="#3cb44B" r="3.5" stroke-width="0" /><circle cx="757" cy="534" fill="#3cb44B" r="3.5" stroke-width="0" /><circle cx="813" cy="523" fill="#3cb44B" r="3.5" stroke-width="0" /><circle cx="857" cy="521" fill="#3cb44B" r="3.5" stroke-width="0" /><circle cx="824" cy="512" fill="#3cb44B" r="3.5" stroke-width="0" /><circle cx="853" cy="511" fill="#3cb44B" r="3.5" stroke-width="0" /><circle cx="814" cy="510" fill="#3cb44B" r="3.5" stroke-width="0" /><circle cx="884" cy="507" fill="#3cb44B" r="3.5" stroke-width="0" /><circle cx="868" cy="502" fill="#3cb44B" r="3.5" stroke-width="0" /><circle cx="772" cy="500" fill="#3cb44B" r="3.5" stroke-width="0" /><circle cx="817" cy="500" fill="#3cb44B" r="3.5" stroke-width="0" /><circle cx="823" cy="499" fill="#3cb44B" r="3.5" stroke-width="0" /><circle cx="816" cy="487" fill="#3cb44B" r="3.5" stroke-width="0" /><circle cx="876" cy="483" fill="#3cb44B" r="3.5" stroke-width="0" /><circle cx="852" cy="479" fill="#3cb44B" r="3.5" stroke-width="0" /><circle cx="818" cy="478" fill="#3cb44B" r="3.5" stroke-width="0" /><circle cx="821" cy="476" fill="#3cb44B" r="3.5" stroke-width="0" /><circle cx="896" cy="474" fill="#3cb44B" r="3.5" stroke-width="0" /><circle cx="813" cy="471" fill="#3cb44B" r="3.5" stroke-width="0" /><circle cx="790" cy="464" fill="#3cb44B" r="3.5" stroke-width="0" /><circle cx="786" cy="456" fill="#3cb44B" r="3.5" stroke-width="0" /><circle cx="797" cy="455" fill="#3cb44B" r="3.5" stroke-width="0" /><circle cx="842" cy="455" fill="#3cb44B" r="3.5" stroke-width="0" /><circle cx="823" cy="449" fill="#3cb44B" r="3.5" stroke-width="0" /><circle cx="888" cy="440" fill="#3cb44B" r="3.5" stroke-width="0" /><circle cx="831" cy="411" fill="#3cb44B" r="3.5" stroke-width="0" /><circle cx="842" cy="403" fill="#3cb44B" r="3.5" stroke-width="0" /><circle cx="865" cy="390" fill="#3cb44B" r="3.5" stroke-width="0" /><circle cx="902" cy="366" fill="#3cb44B" r="3.5" stroke-width="0" /><circle cx="920" cy="356" fill="#3cb44B" r="3.5" stroke-width="0" /></g><g class="e5"><circle cx="236" cy="950" fill="#ff0000" r="3.5" stroke-width="0" /><circle cx="302" cy="933" fill="#ff0000" r="3.5" stroke-width="0" /><circle cx="300" cy="924" fill="#ff0000" r="3.5" stroke-width="0" /><circle cx="299" cy="917" fill="#ff0000" r="3.5" stroke-width="0" /><circle cx="296" cy="911" fill="#ff0000" r="3.5" stroke-width="0" /><circle cx="338" cy="896" fill="#ff0000" r="3.5" stroke-width="0" /><circle cx="308" cy="892" fill="#ff0000" r="3.5" stroke-width="0" /><circle cx="287" cy="890" fill="#ff0000" r="3.5" stroke-width="0" /><circle cx="334" cy="884" fill="#ff0000" r="3.5" stroke-width="0" /><circle cx="322" cy="878" fill="#ff0000" r="3.5" stroke-width="0" /><circle cx="333" cy="865" fill="#ff0000" r="3.5" stroke-width="0" /><circle cx="233" cy="862" fill="#ff0000" r="3.5" stroke-width="0" /><circle cx="283" cy="848" fill="#ff0000" r="3.5" stroke-width="0" /><circle cx="292" cy="846" fill="#ff0000" r="3.5" stroke-width="0" /><circle cx="342" cy="842" fill="#ff0000" r="3.5" stroke-width="0" /><circle cx="346" cy="842" fill="#ff0000" r="3.5" stroke-width="0" /><circle cx="352" cy="840" fill="#ff0000" r="3.5" stroke-width="0" /><circle cx="309" cy="834" fill="#ff0000" r="3.5" stroke-width="0" /><circle cx="321" cy="833" fill="#ff0000" r="3.5" stroke-width="0" /><circle cx="306" cy="822" fill="#ff0000" r="3.5" stroke-width="0" /><circle cx="366" cy="817" fill="#ff0000" r="3.5" stroke-width="0" /><circle cx="358" cy="810" fill="#ff0000" r="3.5" stroke-width="0" /><circle cx="328" cy="808" fill="#ff0000" r="3.5" stroke-width="0" /><circle cx="371" cy="805" fill="#ff0000" r="3.5" stroke-width="0" /><circle cx="341" cy="804" fill="#ff0000" r="3.5" stroke-width="0" /><circle cx="342" cy="769" fill="#ff0000" r="3.5" stroke-width="0" /><circle cx="296" cy="765" fill="#ff0000" r="3.5" stroke-width="0" /><circle cx="312" cy="757" fill="#ff0000" r="3.5" stroke-width="0" /><circle cx="376" cy="744" fill="#ff0000" r="3.5" stroke-width="0" /><circle cx="325" cy="743" fill="#ff0000" r="3.5" stroke-width="0" /><circle cx="359" cy="738" fill="#ff0000" r="3.5" stroke-width="0" /><circle cx="348" cy="719" fill="#ff0000" r="3.5" stroke-width="0" /><circle cx="369" cy="719" fill="#ff0000" r="3.5" stroke-width="0" /><circle cx="399" cy="713" fill="#ff0000" r="3.5" stroke-width="0" /><circle cx="378" cy="707" fill="#ff0000" r="3.5" stroke-width="0" /><circle cx="416" cy="688" fill="#ff0000" r="3.5" stroke-width="0" /><circle cx="390" cy="673" fill="#ff0000" r="3.5" stroke-width="0" /><circle cx="710" cy="517" fill="#ff0000" r="3.5" stroke-width="0" /><circle cx="746" cy="484" fill="#ff0000" r="3.5" stroke-width="0" /><circle cx="760" cy="456" fill="#ff0000" r="3.5" stroke-width="0" /><circle cx="745" cy="455" fill="#ff0000" r="3.5" stroke-width="0" /><circle cx="759" cy="448" fill="#ff0000" r="3.5" stroke-width="0" /><circle cx="789" cy="436" fill="#ff0000" r="3.5" stroke-width="0" /><circle cx="777" cy="431" fill="#ff0000" r="3.5" stroke-width="0" /><circle cx="768" cy="426" fill="#ff0000" r="3.5" stroke-width="0" /><circle cx="762" cy="422" fill="#ff0000" r="3.5" stroke-width="0" /><circle cx="796" cy="403" fill="#ff0000" r="3.5" stroke-width="0" /><circle cx="831" cy="378" fill="#ff0000" r="3.5" stroke-width="0" /><circle cx="762" cy="377" fill="#ff0000" r="3.5" stroke-width="0" /><circle cx="738" cy="376" fill="#ff0000" r="3.5" stroke-width="0" /><circle cx="796" cy="367" fill="#ff0000" r="3.5" stroke-width="0" /><circle cx="808" cy="365" fill="#ff0000" r="3.5" stroke-width="0" /><circle cx="813" cy="365" fill="#ff0000" r="3.5" stroke-width="0" /><circle cx="815" cy="352" fill="#ff0000" r="3.5" stroke-width="0" /><circle cx="782" cy="339" fill="#ff0000" r="3.5" stroke-width="0" /><circle cx="870" cy="332" fill="#ff0000" r="3.5" stroke-width="0" /><circle cx="770" cy="321" fill="#ff0000" r="3.5" stroke-width="0" /><circle cx="843" cy="316" fill="#ff0000" r="3.5" stroke-width="0" /><circle cx="856" cy="313" fill="#ff0000" r="3.5" stroke-width="0" /><circle cx="838" cy="302" fill="#ff0000" r="3.5" stroke-width="0" /><circle cx="864" cy="302" fill="#ff0000" r="3.5" stroke-width="0" /><circle cx="831" cy="301" fill="#ff0000" r="3.5" stroke-width="0" /><circle cx="826" cy="278" fill="#ff0000" r="3.5" stroke-width="0" /><circle cx="833" cy="246" fill="#ff0000" r="3.5" stroke-width="0" /><circle cx="859" cy="230" fill="#ff0000" r="3.5" stroke-width="0" /><circle cx="876" cy="226" fill="#ff0000" r="3.5" stroke-width="0" /><circle cx="872" cy="212" fill="#ff0000" r="3.5" stroke-width="0" /><circle cx="925" cy="150" fill="#ff0000" r="3.5" stroke-width="0" /></g><g class="e6"><circle cx="253" cy="777" fill="#2b92db" r="3.5" stroke-width="0" /><circle cx="270" cy="767" fill="#2b92db" r="3.5" stroke-width="0" /><circle cx="239" cy="752" fill="#2b92db" r="3.5" stroke-width="0" /><circle cx="264" cy="722" fill="#2b92db" r="3.5" stroke-width="0" /><circle cx="254" cy="698" fill="#2b92db" r="3.5" stroke-width="0" /><circle cx="293" cy="698" fill="#2b92db" r="3.5" stroke-width="0" /><circle cx="318" cy="695" fill="#2b92db" r="3.5" stroke-width="0" /><circle cx="321" cy="678" fill="#2b92db" r="3.5" stroke-width="0" /><circle cx="358" cy="677" fill="#2b92db" r="3.5" stroke-width="0" /><circle cx="285" cy="670" fill="#2b92db" r="3.5" stroke-width="0" /><circle cx="347" cy="663" fill="#2b92db" r="3.5" stroke-width="0" /><circle cx="330" cy="661" fill="#2b92db" r="3.5" stroke-width="0" /><circle cx="305" cy="655" fill="#2b92db" r="3.5" stroke-width="0" /><circle cx="296" cy="650" fill="#2b92db" r="3.5" stroke-width="0" /><circle cx="268" cy="640" fill="#2b92db" r="3.5" stroke-width="0" /><circle cx="315" cy="638" fill="#2b92db" r="3.5" stroke-width="0" /><circle cx="302" cy="637" fill="#2b92db" r="3.5" stroke-width="0" /><circle cx="308" cy="637" fill="#2b92db" r="3.5" stroke-width="0" /><circle cx="342" cy="632" fill="#2b92db" r="3.5" stroke-width="0" /><circle cx="365" cy="631" fill="#2b92db" r="3.5" stroke-width="0" /><circle cx="283" cy="630" fill="#2b92db" r="3.5" stroke-width="0" /><circle cx="347" cy="630" fill="#2b92db" r="3.5" stroke-width="0" /><circle cx="375" cy="629" fill="#2b92db" r="3.5" stroke-width="0" /><circle cx="257" cy="618" fill="#2b92db" r="3.5" stroke-width="0" /><circle cx="340" cy="613" fill="#2b92db" r="3.5" stroke-width="0" /><circle cx="333" cy="605" fill="#2b92db" r="3.5" stroke-width="0" /><circle cx="377" cy="603" fill="#2b92db" r="3.5" stroke-width="0" /><circle cx="344" cy="593" fill="#2b92db" r="3.5" stroke-width="0" /><circle cx="321" cy="577" fill="#2b92db" r="3.5" stroke-width="0" /><circle cx="310" cy="575" fill="#2b92db" r="3.5" stroke-width="0" /><circle cx="357" cy="575" fill="#2b92db" r="3.5" stroke-width="0" /><circle cx="352" cy="574" fill="#2b92db" r="3.5" stroke-width="0" /><circle cx="383" cy="525" fill="#2b92db" r="3.5" stroke-width="0" /><circle cx="351" cy="523" fill="#2b92db" r="3.5" stroke-width="0" /><circle cx="363" cy="512" fill="#2b92db" r="3.5" stroke-width="0" /><circle cx="796" cy="251" fill="#2b92db" r="3.5" stroke-width="0" /><circle cx="797" cy="206" fill="#2b92db" r="3.5" stroke-width="0" /><circle cx="803" cy="204" fill="#2b92db" r="3.5" stroke-width="0" /><circle cx="832" cy="204" fill="#2b92db" r="3.5" stroke-width="0" /><circle cx="777" cy="200" fill="#2b92db" r="3.5" stroke-width="0" /><circle cx="808" cy="200" fill="#2b92db" r="3.5" stroke-width="0" /><circle cx="799" cy="195" fill="#2b92db" r="3.5" stroke-width="0" /><circle cx="784" cy="180" fill="#2b92db" r="3.5" stroke-width="0" /><circle cx="811" cy="179" fill="#2b92db" r="3.5" stroke-width="0" /><circle cx="822" cy="176" fill="#2b92db" r="3.5" stroke-width="0" /><circle cx="768" cy="173" fill="#2b92db" r="3.5" stroke-width="0" /><circle cx="801" cy="173" fill="#2b92db" r="3.5" stroke-width="0" /><circle cx="827" cy="157" fill="#2b92db" r="3.5" stroke-width="0" /><circle cx="815" cy="138" fill="#2b92db" r="3.5" stroke-width="0" /><circle cx="871" cy="138" fill="#2b92db" r="3.5" stroke-width="0" /><circle cx="773" cy="111" fill="#2b92db" r="3.5" stroke-width="0" /><circle cx="789" cy="109" fill="#2b92db" r="3.5" stroke-width="0" /><circle cx="823" cy="109" fill="#2b92db" r="3.5" stroke-width="0" /><circle cx="796" cy="108" fill="#2b92db" r="3.5" stroke-width="0" /><circle cx="829" cy="88" fill="#2b92db" r="3.5" stroke-width="0" /><circle cx="823" cy="81" fill="#2b92db" r="3.5" stroke-width="0" /><circle cx="830" cy="76" fill="#2b92db" r="3.5" stroke-width="0" /></g><g class="e7"><circle cx="263" cy="591" fill="#911eb4" r="3.5" stroke-width="0" /><circle cx="251" cy="558" fill="#911eb4" r="3.5" stroke-width="0" /><circle cx="282" cy="554" fill="#911eb4" r="3.5" stroke-width="0" /><circle cx="303" cy="554" fill="#911eb4" r="3.5" stroke-width="0" /><circle cx="308" cy="552" fill="#911eb4" r="3.5" stroke-width="0" /><circle cx="311" cy="551" fill="#911eb4" r="3.5" stroke-width="0" /><circle cx="284" cy="530" fill="#911eb4" r="3.5" stroke-width="0" /><circle cx="293" cy="527" fill="#911eb4" r="3.5" stroke-width="0" /><circle cx="293" cy="525" fill="#911eb4" r="3.5" stroke-width="0" /><circle cx="323" cy="520" fill="#911eb4" r="3.5" stroke-width="0" /><circle cx="285" cy="516" fill="#911eb4" r="3.5" stroke-width="0" /><circle cx="339" cy="509" fill="#911eb4" r="3.5" stroke-width="0" /><circle cx="217" cy="502" fill="#911eb4" r="3.5" stroke-width="0" /><circle cx="322" cy="498" fill="#911eb4" r="3.5" stroke-width="0" /><circle cx="307" cy="491" fill="#911eb4" r="3.5" stroke-width="0" /><circle cx="270" cy="489" fill="#911eb4" r="3.5" stroke-width="0" /><circle cx="236" cy="487" fill="#911eb4" r="3.5" stroke-width="0" /><circle cx="313" cy="482" fill="#911eb4" r="3.5" stroke-width="0" /><circle cx="287" cy="472" fill="#911eb4" r="3.5" stroke-width="0" /><circle cx="282" cy="471" fill="#911eb4" r="3.5" stroke-width="0" /><circle cx="332" cy="468" fill="#911eb4" r="3.5" stroke-width="0" /><circle cx="287" cy="446" fill="#911eb4" r="3.5" stroke-width="0" /><circle cx="370" cy="441" fill="#911eb4" r="3.5" stroke-width="0" /><circle cx="360" cy="437" fill="#911eb4" r="3.5" stroke-width="0" /><circle cx="303" cy="435" fill="#911eb4" r="3.5" stroke-width="0" /><circle cx="298" cy="433" fill="#911eb4" r="3.5" stroke-width="0" /><circle cx="366" cy="428" fill="#911eb4" r="3.5" stroke-width="0" /><circle cx="343" cy="418" fill="#911eb4" r="3.5" stroke-width="0" /><circle cx="296" cy="414" fill="#911eb4" r="3.5" stroke-width="0" /><circle cx="378" cy="393" fill="#911eb4" r="3.5" stroke-width="0" /><circle cx="307" cy="390" fill="#911eb4" r="3.5" stroke-width="0" /><circle cx="351" cy="381" fill="#911eb4" r="3.5" stroke-width="0" /><circle cx="334" cy="362" fill="#911eb4" r="3.5" stroke-width="0" /><circle cx="360" cy="356" fill="#911eb4" r="3.5" stroke-width="0" /><circle cx="364" cy="356" fill="#911eb4" r="3.5" stroke-width="0" /><circle cx="357" cy="349" fill="#911eb4" r="3.5" stroke-width="0" /></g><g class="e8"><circle cx="307" cy="371" fill="#3cb44B" r="3.5" stroke-width="0" /><circle cx="298" cy="366" fill="#3cb44B" r="3.5" stroke-width="0" /><circle cx="240" cy="357" fill="#3cb44B" r="3.5" stroke-width="0" /><circle cx="339" cy="352" fill="#3cb44B" r="3.5" stroke-width="0" /><circle cx="338" cy="343" fill="#3cb44B" r="3.5" stroke-width="0" /><circle cx="290" cy="324" fill="#3cb44B" r="3.5" stroke-width="0" /><circle cx="262" cy="322" fill="#3cb44B" r="3.5" stroke-width="0" /><circle cx="256" cy="317" fill="#3cb44B" r="3.5" stroke-width="0" /><circle cx="323" cy="312" fill="#3cb44B" r="3.5" stroke-width="0" /><circle cx="272" cy="300" fill="#3cb44B" r="3.5" stroke-width="0" /><circle cx="296" cy="294" fill="#3cb44B" r="3.5" stroke-width="0" /><circle cx="322" cy="283" fill="#3cb44B" r="3.5" stroke-width="0" /><circle cx="337" cy="279" fill="#3cb44B" r="3.5" stroke-width="0" /><circle cx="286" cy="269" fill="#3cb44B" r="3.5" stroke-width="0" /><circle cx="337" cy="265" fill="#3cb44B" r="3.5" stroke-width="0" /><circle cx="340" cy="258" fill="#3cb44B" r="3.5" stroke-width="0" /><circle cx="377" cy="253" fill="#3cb44B" r="3.5" stroke-width="0" /><circle cx="303" cy="246" fill="#3cb44B" r="3.5" stroke-width="0" /><circle cx="308" cy="227" fill="#3cb44B" r="3.5" stroke-width="0" /><circle cx="289" cy="223" fill="#3cb44B" r="3.5" stroke-width="0" /><circle cx="396" cy="220" fill="#3cb44B" r="3.5" stroke-width="0" /><circle cx="331" cy="214" fill="#3cb44B" r="3.5" stroke-width="0" /><circle cx="312" cy="208" fill="#3cb44B" r="3.5" stroke-width="0" /><circle cx="391" cy="181" fill="#3cb44B" r="3.5" stroke-width="0" /><circle cx="420" cy="144" fill="#3cb44B" r="3.5" stroke-width="0" /></g><g class="e9"><circle cx="160" cy="346" fill="#ff0000" r="3.5" stroke-width="0" /><circle cx="258" cy="226" fill="#ff0000" r="3.5" stroke-width="0" /><circle cx="247" cy="202" fill="#ff0000" r="3.5" stroke-width="0" /><circle cx="265" cy="194" fill="#ff0000" r="3.5" stroke-width="0" /><circle cx="311" cy="194" fill="#ff0000" r="3.5" stroke-width="0" /><circle cx="256" cy="186" fill="#ff0000" r="3.5" stroke-width="0" /><circle cx="310" cy="155" fill="#ff0000" r="3.5" stroke-width="0" /><circle cx="300" cy="148" fill="#ff0000" r="3.5" stroke-width="0" /><circle cx="237" cy="147" fill="#ff0000" r="3.5" stroke-width="0" /><circle cx="361" cy="139" fill="#ff0000" r="3.5" stroke-width="0" /><circle cx="359" cy="100" fill="#ff0000" r="3.5" stroke-width="0" /><circle cx="371" cy="98" fill="#ff0000" r="3.5" stroke-width="0" /><circle cx="292" cy="93" fill="#ff0000" r="3.5" stroke-width="0" /><circle cx="326" cy="86" fill="#ff0000" r="3.5" stroke-width="0" /><circle cx="307" cy="71" fill="#ff0000" r="3.5" stroke-width="0" /></g><g class="e10" /></g></g></svg>