<?xml version="1.0" encoding="utf-8" ?>
<svg baseProfile="full" height="1140px" style="font-size:15;font-family:Arial, san-serif;font-weight:bold;stroke:black;stroke-width:0;fill:#444444" version="1.1" width="1140px" xmlns="http://www.w3.org/2000/svg" xmlns:ev="http://www.w3.org/2001/xml-events" xmlns:xlink="http://www.w3.org/1999/xlink"><defs><clipPath id="areadografico"><rect height="1000" width="1000" x="70" y="70" /></clipPath></defs><g class="master"><g class="poligonos"><polygon clip-path="url(#areadografico)" fill="#000000" fill-opacity="0.1" points="1069,1070 1069,405 405,1070" /><polygon clip-path="url(#areadografico)" fill="#ffffff" fill-opacity="0.1" points="405,1070 -261,1070 1069,-261 1069,405" /><polygon clip-path="url(#areadografico)" fill="#000000" fill-opacity="0.1" points="70,70 70,738 738,70" /></g><g class="linhas"><line fill-opacity="0.3" stroke="#999999" stroke-width="1" x1="1070" x2="1070" y1="1070" y2="70" /><line fill-opacity="0.3" stroke="#999999" stroke-width="1" x1="70" x2="1070" y1="70" y2="70" /><line fill-opacity="0.3" stroke="#999999" stroke-width="1" x1="970" x2="970" y1="1070" y2="70" /><line fill-opacity="0.3" stroke="#999999" stroke-width="1" x1="70" x2="1070" y1="170" y2="170" /><line fill-opacity="0.3" stroke="#999999" stroke-width="1" x1="870" x2="870" y1="1070" y2="70" /><line fill-opacity="0.3" stroke="#999999" stroke-width="1" x1="70" x2="1070" y1="270" y2="270" /><line fill-opacity="0.3" stroke="#999999" stroke-width="1" x1="770" x2="770" y1="1070" y2="70" /><line fill-opacity="0.3" stroke="#999999" stroke-width="1" x1="70" x2="1070" y1="370" y2="370" /><line fill-opacity="0.3" stroke="#999999" stroke-width="1" x1="670" x2="670" y1="1070" y2="70" /><line fill-opacity="0.3" stroke="#999999" stroke-width="1" x1="70" x2="1070" y1="470" y2="470" /><line fill-opacity="0.3" stroke="#999999" stroke-width="1" x1="570" x2="570" y1="1070" y2="70" /><line fill-opacity="0.3" stroke="#999999" stroke-width="1" x1="70" x2="1070" y1="570" y2="570" /><line fill-opacity="0.3" stroke="#999999" stroke-width="1" x1="470" x2="470" y1="1070" y2="70" /><line fill-opacity="0.3" stroke="#999999" stroke-width="1" x1="70" x2="1070" y1="670" y2="670" /><line fill-opacity="0.3" stroke="#999999" stroke-width="1" x1="370" x2="370" y1="1070" y2="70" /><line fill-opacity="0.3" stroke="#999999" stroke-width="1" x1="70" x2="1070" y1="770" y2="770" /><line fill-opacity="0.3" stroke="#999999" stroke-width="1" x1="270" x2="270" y1="1070" y2="70" /><line fill-opacity="0.3" stroke="#999999" stroke-width="1" x1="70" x2="1070" y1="870" y2="870" /><line fill-opacity="0.3" stroke="#999999" stroke-width="1" x1="170" x2="170" y1="1070" y2="70" /><line fill-opacity="0.3" stroke="#999999" stroke-width="1" x1="70" x2="1070" y1="970" y2="970" /><line fill-opacity="0.3" stroke="#000000" stroke-width="1" x1="70" x2="70" y1="1071" y2="69" /><line fill-opacity="0.3" stroke="#000000" stroke-width="1" x1="69" x2="1071" y1="1070" y2="1070" /></g><g class="textos"><text x="1050" y="1110">1000</text><text x="10" y="71">1000</text><text x="950" y="1110">900</text><text x="10" y="171">900</text><text x="850" y="1110">800</text><text x="10" y="271">800</text><text x="750" y="1110">700</text><text x="10" y="371">700</text><text x="650" y="1110">600</text><text x="10" y="471">600</text><text x="550" y="1110">500</text><text x="10" y="571">500</text><text x="450" y="1110">400</text><text x="10" y="671">400</text><text x="350" y="1110">300</text><text x="10" y="771">300</text><text x="250" y="1110">200</text><text x="10" y="871">200</text><text x="150" y="1110">100</text><text x="10" y="971">100</text><text x="50" y="1111">0</text><text x="9" y="1071">0</text></g><g class="especies"><g class="e0"><circle cx="703" cy="1017" fill="#3cb44B" r="3.5" stroke-width="0" /><circle cx="984" cy="1015" fill="#3cb44B" r="3.5" stroke-width="0" /><circle cx="856" cy="1011" fill="#3cb44B" r="3.5" stroke-width="0" /><circle cx="795" cy="939" fill="#3cb44B" r="3.5" stroke-width="0" /><circle cx="819" cy="922" fill="#3cb44B" r="3.5" stroke-width="0" /><circle cx="832" cy="867" fill="#3cb44B" r="3.5" stroke-width="0" /><circle cx="758" cy="840" fill="#3cb44B" r="3.5" stroke-width="0" /><circle cx="823" cy="839" fill="#3cb44B" r="3.5" stroke-width="0" /><circle cx="750" cy="826" fill="#3cb44B" r="3.5" stroke-width="0" /><circle cx="800" cy="825" fill="#3cb44B" r="3.5" stroke-width="0" /><circle cx="894" cy="818" fill="#3cb44B" r="3.5" stroke-width="0" /><circle cx="860" cy="807" fill="#3cb44B" r="3.5" stroke-width="0" /><circle cx="722" cy="805" fill="#3cb44B" r="3.5" stroke-width="0" /><circle cx="727" cy="798" fill="#3cb44B" r="3.5" stroke-width="0" /><circle cx="771" cy="772" fill="#3cb44B" r="3.5" stroke-width="0" /><circle cx="858" cy="763" fill="#3cb44B" r="3.5" stroke-width="0" /><circle cx="740" cy="746" fill="#3cb44B" r="3.5" stroke-width="0" /><circle cx="845" cy="745" fill="#3cb44B" r="3.5" stroke-width="0" /><circle cx="795" cy="737" fill="#3cb44B" r="3.5" stroke-width="0" /><circle cx="812" cy="724" fill="#3cb44B" r="3.5" stroke-width="0" /><circle cx="850" cy="718" fill="#3cb44B" r="3.5" stroke-width="0" /><circle cx="871" cy="654" fill="#3cb44B" r="3.5" stroke-width="0" /><circle cx="879" cy="651" fill="#3cb44B" r="3.5" stroke-width="0" /><circle cx="873" cy="634" fill="#3cb44B" r="3.5" stroke-width="0" /><circle cx="876" cy="633" fill="#3cb44B" r="3.5" stroke-width="0" /></g><g class="e1"><circle cx="361" cy="1059" fill="#ff0000" r="3.5" stroke-width="0" /><circle cx="360" cy="1056" fill="#ff0000" r="3.5" stroke-width="0" /><circle cx="319" cy="1052" fill="#ff0000" r="3.5" stroke-width="0" /><circle cx="357" cy="1031" fill="#ff0000" r="3.5" stroke-width="0" /><circle cx="309" cy="1022" fill="#ff0000" r="3.5" stroke-width="0" /><circle cx="352" cy="1013" fill="#ff0000" r="3.5" stroke-width="0" /><circle cx="268" cy="1007" fill="#ff0000" r="3.5" stroke-width="0" /><circle cx="283" cy="965" fill="#ff0000" r="3.5" stroke-width="0" /><circle cx="309" cy="961" fill="#ff0000" r="3.5" stroke-width="0" /><circle cx="289" cy="957" fill="#ff0000" r="3.5" stroke-width="0" /><circle cx="295" cy="954" fill="#ff0000" r="3.5" stroke-width="0" /><circle cx="351" cy="945" fill="#ff0000" r="3.5" stroke-width="0" /><circle cx="277" cy="924" fill="#ff0000" r="3.5" stroke-width="0" /><circle cx="193" cy="907" fill="#ff0000" r="3.5" stroke-width="0" /><circle cx="258" cy="900" fill="#ff0000" r="3.5" stroke-width="0" /><circle cx="313" cy="877" fill="#ff0000" r="3.5" stroke-width="0" /><circle cx="319" cy="859" fill="#ff0000" r="3.5" stroke-width="0" /><circle cx="359" cy="828" fill="#ff0000" r="3.5" stroke-width="0" /><circle cx="365" cy="801" fill="#ff0000" r="3.5" stroke-width="0" /><circle cx="360" cy="776" fill="#ff0000" r="3.5" stroke-width="0" /><circle cx="277" cy="774" fill="#ff0000" r="3.5" stroke-width="0" /><circle cx="273" cy="764" fill="#ff0000" r="3.5" stroke-width="0" /><circle cx="292" cy="754" fill="#ff0000" r="3.5" stroke-width="0" /><circle cx="206" cy="734" fill="#ff0000" r="3.5" stroke-width="0" /><circle cx="268" cy="716" fill="#ff0000" r="3.5" stroke-width="0" /><circle cx="748" cy="711" fill="#ff0000" r="3.5" stroke-width="0" /><circle cx="310" cy="709" fill="#ff0000" r="3.5" stroke-width="0" /><circle cx="755" cy="701" fill="#ff0000" r="3.5" stroke-width="0" /><circle cx="325" cy="700" fill="#ff0000" r="3.5" stroke-width="0" /><circle cx="200" cy="694" fill="#ff0000" r="3.5" stroke-width="0" /><circle cx="214" cy="673" fill="#ff0000" r="3.5" stroke-width="0" /><circle cx="395" cy="666" fill="#ff0000" r="3.5" stroke-width="0" /><circle cx="344" cy="665" fill="#ff0000" r="3.5" stroke-width="0" /><circle cx="807" cy="661" fill="#ff0000" r="3.5" stroke-width="0" /><circle cx="304" cy="653" fill="#ff0000" r="3.5" stroke-width="0" /><circle cx="229" cy="646" fill="#ff0000" r="3.5" stroke-width="0" /><circle cx="286" cy="642" fill="#ff0000" r="3.5" stroke-width="0" /><circle cx="737" cy="640" fill="#ff0000" r="3.5" stroke-width="0" /><circle cx="315" cy="630" fill="#ff0000" r="3.5" stroke-width="0" /><circle cx="860" cy="614" fill="#ff0000" r="3.5" stroke-width="0" /><circle cx="802" cy="598" fill="#ff0000" r="3.5" stroke-width="0" /><circle cx="758" cy="587" fill="#ff0000" r="3.5" stroke-width="0" /><circle cx="368" cy="583" fill="#ff0000" r="3.5" stroke-width="0" /><circle cx="727" cy="582" fill="#ff0000" r="3.5" stroke-width="0" /><circle cx="328" cy="577" fill="#ff0000" r="3.5" stroke-width="0" /><circle cx="318" cy="571" fill="#ff0000" r="3.5" stroke-width="0" /><circle cx="834" cy="571" fill="#ff0000" r="3.5" stroke-width="0" /><circle cx="904" cy="553" fill="#ff0000" r="3.5" stroke-width="0" /><circle cx="787" cy="550" fill="#ff0000" r="3.5" stroke-width="0" /><circle cx="867" cy="545" fill="#ff0000" r="3.5" stroke-width="0" /><circle cx="819" cy="524" fill="#ff0000" r="3.5" stroke-width="0" /><circle cx="347" cy="521" fill="#ff0000" r="3.5" stroke-width="0" /><circle cx="850" cy="512" fill="#ff0000" r="3.5" stroke-width="0" /><circle cx="860" cy="493" fill="#ff0000" r="3.5" stroke-width="0" /><circle cx="882" cy="484" fill="#ff0000" r="3.5" stroke-width="0" /><circle cx="721" cy="476" fill="#ff0000" r="3.5" stroke-width="0" /><circle cx="348" cy="471" fill="#ff0000" r="3.5" stroke-width="0" /><circle cx="797" cy="464" fill="#ff0000" r="3.5" stroke-width="0" /><circle cx="771" cy="463" fill="#ff0000" r="3.5" stroke-width="0" /><circle cx="853" cy="441" fill="#ff0000" r="3.5" stroke-width="0" /><circle cx="385" cy="430" fill="#ff0000" r="3.5" stroke-width="0" /><circle cx="777" cy="428" fill="#ff0000" r="3.5" stroke-width="0" /><circle cx="885" cy="416" fill="#ff0000" r="3.5" stroke-width="0" /><circle cx="859" cy="371" fill="#ff0000" r="3.5" stroke-width="0" /><circle cx="681" cy="363" fill="#ff0000" r="3.5" stroke-width="0" /><circle cx="804" cy="362" fill="#ff0000" r="3.5" stroke-width="0" /><circle cx="827" cy="356" fill="#ff0000" r="3.5" stroke-width="0" /><circle cx="793" cy="346" fill="#ff0000" r="3.5" stroke-width="0" /><circle cx="910" cy="326" fill="#ff0000" r="3.5" stroke-width="0" /><circle cx="858" cy="313" fill="#ff0000" r="3.5" stroke-width="0" /><circle cx="815" cy="308" fill="#ff0000" r="3.5" stroke-width="0" /><circle cx="740" cy="304" fill="#ff0000" r="3.5" stroke-width="0" /><circle cx="893" cy="297" fill="#ff0000" r="3.5" stroke-width="0" /><circle cx="782" cy="292" fill="#ff0000" r="3.5" stroke-width="0" /><circle cx="836" cy="287" fill="#ff0000" r="3.5" stroke-width="0" /><circle cx="773" cy="277" fill="#ff0000" r="3.5" stroke-width="0" /><circle cx="813" cy="264" fill="#ff0000" r="3.5" stroke-width="0" /><circle cx="849" cy="234" fill="#ff0000" r="3.5" stroke-width="0" /><circle cx="762" cy="218" fill="#ff0000" r="3.5" stroke-width="0" /><circle cx="727" cy="212" fill="#ff0000" r="3.5" stroke-width="0" /><circle cx="786" cy="193" fill="#ff0000" r="3.5" stroke-width="0" /><circle cx="819" cy="163" fill="#ff0000" r="3.5" stroke-width="0" /><circle cx="796" cy="149" fill="#ff0000" r="3.5" stroke-width="0" /><circle cx="881" cy="145" fill="#ff0000" r="3.5" stroke-width="0" /><circle cx="838" cy="138" fill="#ff0000" r="3.5" stroke-width="0" /><circle cx="758" cy="97" fill="#ff0000" r="3.5" stroke-width="0" /><circle cx="767" cy="91" fill="#ff0000" r="3.5" stroke-width="0" /><circle cx="815" cy="83" fill="#ff0000" r="3.5" stroke-width="0" /><circle cx="834" cy="80" fill="#ff0000" r="3.5" stroke-width="0" /></g><g class="e2"><circle cx="217" cy="558" fill="#2b92db" r="3.5" stroke-width="0" /><circle cx="255" cy="495" fill="#2b92db" r="3.5" stroke-width="0" /><circle cx="261" cy="417" fill="#2b92db" r="3.5" stroke-width="0" /><circle cx="308" cy="411" fill="#2b92db" r="3.5" stroke-width="0" /><circle cx="334" cy="397" fill="#2b92db" r="3.5" stroke-width="0" /><circle cx="417" cy="377" fill="#2b92db" r="3.5" stroke-width="0" /><circle cx="376" cy="376" fill="#2b92db" r="3.5" stroke-width="0" /><circle cx="326" cy="368" fill="#2b92db" r="3.5" stroke-width="0" /><circle cx="348" cy="358" fill="#2b92db" r="3.5" stroke-width="0" /><circle cx="360" cy="344" fill="#2b92db" r="3.5" stroke-width="0" /><circle cx="341" cy="335" fill="#2b92db" r="3.5" stroke-width="0" /><circle cx="377" cy="322" fill="#2b92db" r="3.5" stroke-width="0" /><circle cx="290" cy="313" fill="#2b92db" r="3.5" stroke-width="0" /><circle cx="265" cy="304" fill="#2b92db" r="3.5" stroke-width="0" /><circle cx="332" cy="298" fill="#2b92db" r="3.5" stroke-width="0" /><circle cx="362" cy="278" fill="#2b92db" r="3.5" stroke-width="0" /><circle cx="297" cy="269" fill="#2b92db" r="3.5" stroke-width="0" /><circle cx="222" cy="262" fill="#2b92db" r="3.5" stroke-width="0" /><circle cx="251" cy="256" fill="#2b92db" r="3.5" stroke-width="0" /><circle cx="348" cy="185" fill="#2b92db" r="3.5" stroke-width="0" /><circle cx="280" cy="168" fill="#2b92db" r="3.5" stroke-width="0" /><circle cx="366" cy="154" fill="#2b92db" r="3.5" stroke-width="0" /><circle cx="334" cy="136" fill="#2b92db" r="3.5" stroke-width="0" /><circle cx="303" cy="132" fill="#2b92db" r="3.5" stroke-width="0" /><circle cx="313" cy="124" fill="#2b92db" r="3.5" stroke-width="0" /><circle cx="333" cy="108" fill="#2b92db" r="3.5" stroke-width="0" /><circle cx="279" cy="91" fill="#2b92db" r="3.5" stroke-width="0" /><circle cx="293" cy="90" fill="#2b92db" r="3.5" stroke-width="0" /></g></g></g></svg>