<?xml version="1.0" encoding="utf-8" ?>
<svg baseProfile="full" height="1140px" style="font-size:15;font-family:Arial, san-serif;font-weight:bold;stroke:black;stroke-width:0;fill:#444444" version="1.1" width="1140px" xmlns="http://www.w3.org/2000/svg" xmlns:ev="http://www.w3.org/2001/xml-events" xmlns:xlink="http://www.w3.org/1999/xlink"><defs><clipPath id="areadografico"><rect height="1000" width="1000" x="70" y="70" /></clipPath></defs><g class="master"><g class="poligonos"><polygon clip-path="url(#areadografico)" fill="#000000" fill-opacity="0.1" points="1069,1070 1069,849 849,1070" /><polygon clip-path="url(#areadografico)" fill="#ffffff" fill-opacity="0.1" points="849,1070 627,1070 1069,627 1069,849" /><polygon clip-path="url(#areadografico)" fill="#000000" fill-opacity="0.1" points="627,1070 405,1070 1069,405 1069,627" /><polygon clip-path="url(#areadografico)" fill="#ffffff" fill-opacity="0.1" points="405,1070 183,1070 1069,183 1069,405" /><polygon clip-path="url(#areadografico)" fill="#000000" fill-opacity="0.1" points="183,1070 -39,1070 1069,-39 1069,183" /><polygon clip-path="url(#areadografico)" fill="#ffffff" fill-opacity="0.1" points="-39,1070 -261,1070 1069,-261 1069,-39" /><polygon clip-path="url(#areadografico)" fill="#000000" fill-opacity="0.1" points="-261,1070 -483,1070 1069,-483 1069,-261" /><polygon clip-path="url(#areadografico)" fill="#ffffff" fill-opacity="0.1" points="-483,1070 -705,1070 1069,-705 1069,-483" /><polygon clip-path="url(#areadografico)" fill="#000000" fill-opacity="0.1" points="70,70 70,294 294,70" /></g><g class="linhas"><line fill-opacity="0.3" stroke="#999999" stroke-width="1" x1="1070" x2="1070" y1="1070" y2="70" /><line fill-opacity="0.3" stroke="#999999" stroke-width="1" x1="70" x2="1070" y1="70" y2="70" /><line fill-opacity="0.3" stroke="#999999" stroke-width="1" x1="970" x2="970" y1="1070" y2="70" /><line fill-opacity="0.3" stroke="#999999" stroke-width="1" x1="70" x2="1070" y1="170" y2="170" /><line fill-opacity="0.3" stroke="#999999" stroke-width="1" x1="870" x2="870" y1="1070" y2="70" /><line fill-opacity="0.3" stroke="#999999" stroke-width="1" x1="70" x2="1070" y1="270" y2="270" /><line fill-opacity="0.3" stroke="#999999" stroke-width="1" x1="770" x2="770" y1="1070" y2="70" /><line fill-opacity="0.3" stroke="#999999" stroke-width="1" x1="70" x2="1070" y1="370" y2="370" /><line fill-opacity="0.3" stroke="#999999" stroke-width="1" x1="670" x2="670" y1="1070" y2="70" /><line fill-opacity="0.3" stroke="#999999" stroke-width="1" x1="70" x2="1070" y1="470" y2="470" /><line fill-opacity="0.3" stroke="#999999" stroke-width="1" x1="570" x2="570" y1="1070" y2="70" /><line fill-opacity="0.3" stroke="#999999" stroke-width="1" x1="70" x2="1070" y1="570" y2="570" /><line fill-opacity="0.3" stroke="#999999" stroke-width="1" x1="470" x2="470" y1="1070" y2="70" /><line fill-opacity="0.3" stroke="#999999" stroke-width="1" x1="70" x2="1070" y1="670" y2="670" /><line fill-opacity="0.3" stroke="#999999" stroke-width="1" x1="370" x2="370" y1="1070" y2="70" /><line fill-opacity="0.3" stroke="#999999" stroke-width="1" x1="70" x2="1070" y1="770" y2="770" /><line fill-opacity="0.3" stroke="#999999" stroke-width="1" x1="270" x2="270" y1="1070" y2="70" /><line fill-opacity="0.3" stroke="#999999" stroke-width="1" x1="70" x2="1070" y1="870" y2="870" /><line fill-opacity="0.3" stroke="#999999" stroke-width="1" x1="170" x2="170" y1="1070" y2="70" /><line fill-opacity="0.3" stroke="#999999" stroke-width="1" x1="70" x2="1070" y1="970" y2="970" /><line fill-opacity="0.3" stroke="#000000" stroke-width="1" x1="70" x2="70" y1="1071" y2="69" /><line fill-opacity="0.3" stroke="#000000" stroke-width="1" x1="69" x2="1071" y1="1070" y2="1070" /></g><g class="textos"><text x="1050" y="1110">1000</text><text x="10" y="71">1000</text><text x="950" y="1110">900</text><text x="10" y="171">900</text><text x="850" y="1110">800</text><text x="10" y="271">800</text><text x="750" y="1110">700</text><text x="10" y="371">700</text><text x="650" y="1110">600</text><text x="10" y="471">600</text><text x="550" y="1110">500</text><text x="10" y="571">500</text><text x="450" y="1110">400</text><text x="10" y="671">400</text><text x="350" y="1110">300</text><text x="10" y="771">300</text><text x="250" y="1110">200</text><text x="10" y="871">200</text><text x="150" y="1110">100</text><text x="10" y="971">100</text><text x="50" y="1111">0</text><text x="9" y="1071">0</text></g><g class="especies"><g class="e0" /><g class="e1"><circle cx="794" cy="908" fill="#ff0000" r="3.5" stroke-width="0" /><circle cx="845" cy="867" fill="#ff0000" r="3.5" stroke-width="0" /><circle cx="851" cy="853" fill="#ff0000" r="3.5" stroke-width="0" /></g><g class="e2"><circle cx="823" cy="868" fill="#2b92db" r="3.5" stroke-width="0" /><circle cx="808" cy="861" fill="#2b92db" r="3.5" stroke-width="0" /><circle cx="770" cy="859" fill="#2b92db" r="3.5" stroke-width="0" /><circle cx="860" cy="816" fill="#2b92db" r="3.5" stroke-width="0" /><circle cx="849" cy="795" fill="#2b92db" r="3.5" stroke-width="0" /><circle cx="824" cy="791" fill="#2b92db" r="3.5" stroke-width="0" /><circle cx="837" cy="786" fill="#2b92db" r="3.5" stroke-width="0" /><circle cx="813" cy="776" fill="#2b92db" r="3.5" stroke-width="0" /><circle cx="782" cy="768" fill="#2b92db" r="3.5" stroke-width="0" /><circle cx="807" cy="768" fill="#2b92db" r="3.5" stroke-width="0" /><circle cx="826" cy="762" fill="#2b92db" r="3.5" stroke-width="0" /><circle cx="818" cy="755" fill="#2b92db" r="3.5" stroke-width="0" /><circle cx="826" cy="723" fill="#2b92db" r="3.5" stroke-width="0" /><circle cx="804" cy="719" fill="#2b92db" r="3.5" stroke-width="0" /><circle cx="805" cy="717" fill="#2b92db" r="3.5" stroke-width="0" /><circle cx="819" cy="689" fill="#2b92db" r="3.5" stroke-width="0" /><circle cx="856" cy="669" fill="#2b92db" r="3.5" stroke-width="0" /></g><g class="e3"><circle cx="792" cy="645" fill="#911eb4" r="3.5" stroke-width="0" /><circle cx="816" cy="629" fill="#911eb4" r="3.5" stroke-width="0" /><circle cx="778" cy="628" fill="#911eb4" r="3.5" stroke-width="0" /><circle cx="829" cy="622" fill="#911eb4" r="3.5" stroke-width="0" /><circle cx="802" cy="618" fill="#911eb4" r="3.5" stroke-width="0" /><circle cx="846" cy="585" fill="#911eb4" r="3.5" stroke-width="0" /><circle cx="844" cy="584" fill="#911eb4" r="3.5" stroke-width="0" /><circle cx="825" cy="579" fill="#911eb4" r="3.5" stroke-width="0" /><circle cx="792" cy="573" fill="#911eb4" r="3.5" stroke-width="0" /><circle cx="813" cy="571" fill="#911eb4" r="3.5" stroke-width="0" /><circle cx="846" cy="557" fill="#911eb4" r="3.5" stroke-width="0" /><circle cx="893" cy="556" fill="#911eb4" r="3.5" stroke-width="0" /><circle cx="773" cy="533" fill="#911eb4" r="3.5" stroke-width="0" /><circle cx="811" cy="530" fill="#911eb4" r="3.5" stroke-width="0" /><circle cx="825" cy="510" fill="#911eb4" r="3.5" stroke-width="0" /><circle cx="797" cy="500" fill="#911eb4" r="3.5" stroke-width="0" /><circle cx="814" cy="488" fill="#911eb4" r="3.5" stroke-width="0" /><circle cx="807" cy="477" fill="#911eb4" r="3.5" stroke-width="0" /><circle cx="856" cy="457" fill="#911eb4" r="3.5" stroke-width="0" /><circle cx="818" cy="446" fill="#911eb4" r="3.5" stroke-width="0" /></g><g class="e4"><circle cx="323" cy="922" fill="#3cb44B" r="3.5" stroke-width="0" /><circle cx="338" cy="853" fill="#3cb44B" r="3.5" stroke-width="0" /><circle cx="318" cy="831" fill="#3cb44B" r="3.5" stroke-width="0" /><circle cx="309" cy="797" fill="#3cb44B" r="3.5" stroke-width="0" /><circle cx="349" cy="795" fill="#3cb44B" r="3.5" stroke-width="0" /><circle cx="335" cy="788" fill="#3cb44B" r="3.5" stroke-width="0" /><circle cx="314" cy="785" fill="#3cb44B" r="3.5" stroke-width="0" /><circle cx="340" cy="777" fill="#3cb44B" r="3.5" stroke-width="0" /><circle cx="341" cy="756" fill="#3cb44B" r="3.5" stroke-width="0" /><circle cx="327" cy="743" fill="#3cb44B" r="3.5" stroke-width="0" /><circle cx="324" cy="734" fill="#3cb44B" r="3.5" stroke-width="0" /><circle cx="324" cy="731" fill="#3cb44B" r="3.5" stroke-width="0" /><circle cx="348" cy="731" fill="#3cb44B" r="3.5" stroke-width="0" /><circle cx="309" cy="724" fill="#3cb44B" r="3.5" stroke-width="0" /><circle cx="357" cy="715" fill="#3cb44B" r="3.5" stroke-width="0" /><circle cx="828" cy="420" fill="#3cb44B" r="3.5" stroke-width="0" /><circle cx="828" cy="388" fill="#3cb44B" r="3.5" stroke-width="0" /><circle cx="829" cy="388" fill="#3cb44B" r="3.5" stroke-width="0" /><circle cx="813" cy="369" fill="#3cb44B" r="3.5" stroke-width="0" /><circle cx="793" cy="354" fill="#3cb44B" r="3.5" stroke-width="0" /><circle cx="864" cy="296" fill="#3cb44B" r="3.5" stroke-width="0" /><circle cx="802" cy="230" fill="#3cb44B" r="3.5" stroke-width="0" /><circle cx="819" cy="227" fill="#3cb44B" r="3.5" stroke-width="0" /></g><g class="e5"><circle cx="297" cy="720" fill="#ff0000" r="3.5" stroke-width="0" /><circle cx="331" cy="686" fill="#ff0000" r="3.5" stroke-width="0" /><circle cx="317" cy="681" fill="#ff0000" r="3.5" stroke-width="0" /><circle cx="318" cy="677" fill="#ff0000" r="3.5" stroke-width="0" /><circle cx="353" cy="652" fill="#ff0000" r="3.5" stroke-width="0" /><circle cx="327" cy="635" fill="#ff0000" r="3.5" stroke-width="0" /><circle cx="316" cy="634" fill="#ff0000" r="3.5" stroke-width="0" /><circle cx="267" cy="631" fill="#ff0000" r="3.5" stroke-width="0" /><circle cx="314" cy="626" fill="#ff0000" r="3.5" stroke-width="0" /><circle cx="315" cy="621" fill="#ff0000" r="3.5" stroke-width="0" /><circle cx="340" cy="597" fill="#ff0000" r="3.5" stroke-width="0" /><circle cx="362" cy="588" fill="#ff0000" r="3.5" stroke-width="0" /><circle cx="276" cy="587" fill="#ff0000" r="3.5" stroke-width="0" /><circle cx="270" cy="576" fill="#ff0000" r="3.5" stroke-width="0" /><circle cx="297" cy="567" fill="#ff0000" r="3.5" stroke-width="0" /><circle cx="292" cy="561" fill="#ff0000" r="3.5" stroke-width="0" /><circle cx="288" cy="551" fill="#ff0000" r="3.5" stroke-width="0" /><circle cx="313" cy="540" fill="#ff0000" r="3.5" stroke-width="0" /><circle cx="304" cy="527" fill="#ff0000" r="3.5" stroke-width="0" /><circle cx="316" cy="526" fill="#ff0000" r="3.5" stroke-width="0" /><circle cx="341" cy="502" fill="#ff0000" r="3.5" stroke-width="0" /><circle cx="316" cy="497" fill="#ff0000" r="3.5" stroke-width="0" /><circle cx="329" cy="494" fill="#ff0000" r="3.5" stroke-width="0" /><circle cx="365" cy="494" fill="#ff0000" r="3.5" stroke-width="0" /><circle cx="808" cy="206" fill="#ff0000" r="3.5" stroke-width="0" /><circle cx="794" cy="141" fill="#ff0000" r="3.5" stroke-width="0" /></g><g class="e6"><circle cx="293" cy="485" fill="#2b92db" r="3.5" stroke-width="0" /><circle cx="302" cy="480" fill="#2b92db" r="3.5" stroke-width="0" /><circle cx="298" cy="444" fill="#2b92db" r="3.5" stroke-width="0" /><circle cx="331" cy="421" fill="#2b92db" r="3.5" stroke-width="0" /><circle cx="327" cy="409" fill="#2b92db" r="3.5" stroke-width="0" /><circle cx="270" cy="391" fill="#2b92db" r="3.5" stroke-width="0" /><circle cx="332" cy="374" fill="#2b92db" r="3.5" stroke-width="0" /><circle cx="277" cy="347" fill="#2b92db" r="3.5" stroke-width="0" /><circle cx="321" cy="341" fill="#2b92db" r="3.5" stroke-width="0" /><circle cx="326" cy="308" fill="#2b92db" r="3.5" stroke-width="0" /><circle cx="316" cy="295" fill="#2b92db" r="3.5" stroke-width="0" /></g><g class="e7" /><g class="e8" /></g></g></svg>