<?xml version="1.0" encoding="utf-8" ?>
<svg baseProfile="full" height="1140px" style="font-size:15;font-family:Arial, san-serif;font-weight:bold;stroke:black;stroke-width:0;fill:#444444" version="1.1" width="1140px" xmlns="http://www.w3.org/2000/svg" xmlns:ev="http://www.w3.org/2001/xml-events" xmlns:xlink="http://www.w3.org/1999/xlink"><defs><clipPath id="areadografico"><rect height="1000" width="1000" x="70" y="70" /></clipPath></defs><g class="master"><g class="poligonos"><polygon clip-path="url(#areadografico)" fill="#000000" fill-opacity="0.1" points="1069,1070 1069,785 785,1070" /><polygon clip-path="url(#areadografico)" fill="#ffffff" fill-opacity="0.1" points="785,1070 499,1070 1069,499 1069,785" /><polygon clip-path="url(#areadografico)" fill="#000000" fill-opacity="0.1" points="499,1070 214,1070 1069,214 1069,499" /><polygon clip-path="url(#areadografico)" fill="#ffffff" fill-opacity="0.1" points="214,1070 -72,1070 1069,-72 1069,214" /><polygon clip-path="url(#areadografico)" fill="#000000" fill-opacity="0.1" points="-72,1070 -358,1070 1069,-358 1069,-72" /><polygon clip-path="url(#areadografico)" fill="#ffffff" fill-opacity="0.1" points="-358,1070 -643,1070 1069,-643 1069,-358" /><polygon clip-path="url(#areadografico)" fill="#000000" fill-opacity="0.1" points="70,70 70,356 356,70" /></g><g class="linhas"><line fill-opacity="0.3" stroke="#999999" stroke-width="1" x1="1070" x2="1070" y1="1070" y2="70" /><line fill-opacity="0.3" stroke="#999999" stroke-width="1" x1="70" x2="1070" y1="70" y2="70" /><line fill-opacity="0.3" stroke="#999999" stroke-width="1" x1="970" x2="970" y1="1070" y2="70" /><line fill-opacity="0.3" stroke="#999999" stroke-width="1" x1="70" x2="1070" y1="170" y2="170" /><line fill-opacity="0.3" stroke="#999999" stroke-width="1" x1="870" x2="870" y1="1070" y2="70" /><line fill-opacity="0.3" stroke="#999999" stroke-width="1" x1="70" x2="1070" y1="270" y2="270" /><line fill-opacity="0.3" stroke="#999999" stroke-width="1" x1="770" x2="770" y1="1070" y2="70" /><line fill-opacity="0.3" stroke="#999999" stroke-width="1" x1="70" x2="1070" y1="370" y2="370" /><line fill-opacity="0.3" stroke="#999999" stroke-width="1" x1="670" x2="670" y1="1070" y2="70" /><line fill-opacity="0.3" stroke="#999999" stroke-width="1" x1="70" x2="1070" y1="470" y2="470" /><line fill-opacity="0.3" stroke="#999999" stroke-width="1" x1="570" x2="570" y1="1070" y2="70" /><line fill-opacity="0.3" stroke="#999999" stroke-width="1" x1="70" x2="1070" y1="570" y2="570" /><line fill-opacity="0.3" stroke="#999999" stroke-width="1" x1="470" x2="470" y1="1070" y2="70" /><line fill-opacity="0.3" stroke="#999999" stroke-width="1" x1="70" x2="1070" y1="670" y2="670" /><line fill-opacity="0.3" stroke="#999999" stroke-width="1" x1="370" x2="370" y1="1070" y2="70" /><line fill-opacity="0.3" stroke="#999999" stroke-width="1" x1="70" x2="1070" y1="770" y2="770" /><line fill-opacity="0.3" stroke="#999999" stroke-width="1" x1="270" x2="270" y1="1070" y2="70" /><line fill-opacity="0.3" stroke="#999999" stroke-width="1" x1="70" x2="1070" y1="870" y2="870" /><line fill-opacity="0.3" stroke="#999999" stroke-width="1" x1="170" x2="170" y1="1070" y2="70" /><line fill-opacity="0.3" stroke="#999999" stroke-width="1" x1="70" x2="1070" y1="970" y2="970" /><line fill-opacity="0.3" stroke="#000000" stroke-width="1" x1="70" x2="70" y1="1071" y2="69" /><line fill-opacity="0.3" stroke="#000000" stroke-width="1" x1="69" x2="1071" y1="1070" y2="1070" /></g><g class="textos"><text x="1050" y="1110">1000</text><text x="10" y="71">1000</text><text x="950" y="1110">900</text><text x="10" y="171">900</text><text x="850" y="1110">800</text><text x="10" y="271">800</text><text x="750" y="1110">700</text><text x="10" y="371">700</text><text x="650" y="1110">600</text><text x="10" y="471">600</text><text x="550" y="1110">500</text><text x="10" y="571">500</text><text x="450" y="1110">400</text><text x="10" y="671">400</text><text x="350" y="1110">300</text><text x="10" y="771">300</text><text x="250" y="1110">200</text><text x="10" y="871">200</text><text x="150" y="1110">100</text><text x="10" y="971">100</text><text x="50" y="1111">0</text><text x="9" y="1071">0</text></g><g class="especies"><g class="e0"><circle cx="873" cy="1031" fill="#3cb44B" r="3.5" stroke-width="0" /><circle cx="931" cy="1031" fill="#3cb44B" r="3.5" stroke-width="0" /><circle cx="838" cy="1021" fill="#3cb44B" r="3.5" stroke-width="0" /><circle cx="855" cy="1006" fill="#3cb44B" r="3.5" stroke-width="0" /><circle cx="895" cy="986" fill="#3cb44B" r="3.5" stroke-width="0" /><circle cx="899" cy="970" fill="#3cb44B" r="3.5" stroke-width="0" /></g><g class="e1"><circle cx="802" cy="999" fill="#ff0000" r="3.5" stroke-width="0" /><circle cx="817" cy="993" fill="#ff0000" r="3.5" stroke-width="0" /><circle cx="834" cy="990" fill="#ff0000" r="3.5" stroke-width="0" /><circle cx="770" cy="983" fill="#ff0000" r="3.5" stroke-width="0" /><circle cx="803" cy="981" fill="#ff0000" r="3.5" stroke-width="0" /><circle cx="819" cy="978" fill="#ff0000" r="3.5" stroke-width="0" /><circle cx="782" cy="977" fill="#ff0000" r="3.5" stroke-width="0" /><circle cx="785" cy="975" fill="#ff0000" r="3.5" stroke-width="0" /><circle cx="846" cy="972" fill="#ff0000" r="3.5" stroke-width="0" /><circle cx="746" cy="952" fill="#ff0000" r="3.5" stroke-width="0" /><circle cx="787" cy="940" fill="#ff0000" r="3.5" stroke-width="0" /><circle cx="751" cy="925" fill="#ff0000" r="3.5" stroke-width="0" /><circle cx="743" cy="911" fill="#ff0000" r="3.5" stroke-width="0" /><circle cx="807" cy="904" fill="#ff0000" r="3.5" stroke-width="0" /><circle cx="793" cy="901" fill="#ff0000" r="3.5" stroke-width="0" /><circle cx="804" cy="895" fill="#ff0000" r="3.5" stroke-width="0" /><circle cx="762" cy="891" fill="#ff0000" r="3.5" stroke-width="0" /><circle cx="874" cy="881" fill="#ff0000" r="3.5" stroke-width="0" /><circle cx="818" cy="880" fill="#ff0000" r="3.5" stroke-width="0" /><circle cx="888" cy="879" fill="#ff0000" r="3.5" stroke-width="0" /><circle cx="892" cy="877" fill="#ff0000" r="3.5" stroke-width="0" /><circle cx="775" cy="873" fill="#ff0000" r="3.5" stroke-width="0" /><circle cx="885" cy="871" fill="#ff0000" r="3.5" stroke-width="0" /><circle cx="894" cy="866" fill="#ff0000" r="3.5" stroke-width="0" /><circle cx="802" cy="863" fill="#ff0000" r="3.5" stroke-width="0" /><circle cx="771" cy="860" fill="#ff0000" r="3.5" stroke-width="0" /><circle cx="840" cy="854" fill="#ff0000" r="3.5" stroke-width="0" /><circle cx="766" cy="852" fill="#ff0000" r="3.5" stroke-width="0" /><circle cx="775" cy="849" fill="#ff0000" r="3.5" stroke-width="0" /><circle cx="826" cy="848" fill="#ff0000" r="3.5" stroke-width="0" /><circle cx="878" cy="847" fill="#ff0000" r="3.5" stroke-width="0" /><circle cx="735" cy="842" fill="#ff0000" r="3.5" stroke-width="0" /><circle cx="778" cy="840" fill="#ff0000" r="3.5" stroke-width="0" /><circle cx="786" cy="838" fill="#ff0000" r="3.5" stroke-width="0" /><circle cx="800" cy="829" fill="#ff0000" r="3.5" stroke-width="0" /><circle cx="821" cy="826" fill="#ff0000" r="3.5" stroke-width="0" /><circle cx="886" cy="823" fill="#ff0000" r="3.5" stroke-width="0" /><circle cx="792" cy="814" fill="#ff0000" r="3.5" stroke-width="0" /><circle cx="838" cy="811" fill="#ff0000" r="3.5" stroke-width="0" /><circle cx="835" cy="807" fill="#ff0000" r="3.5" stroke-width="0" /><circle cx="786" cy="798" fill="#ff0000" r="3.5" stroke-width="0" /><circle cx="887" cy="797" fill="#ff0000" r="3.5" stroke-width="0" /><circle cx="825" cy="788" fill="#ff0000" r="3.5" stroke-width="0" /><circle cx="829" cy="788" fill="#ff0000" r="3.5" stroke-width="0" /><circle cx="872" cy="782" fill="#ff0000" r="3.5" stroke-width="0" /><circle cx="860" cy="779" fill="#ff0000" r="3.5" stroke-width="0" /><circle cx="804" cy="773" fill="#ff0000" r="3.5" stroke-width="0" /><circle cx="831" cy="770" fill="#ff0000" r="3.5" stroke-width="0" /><circle cx="817" cy="769" fill="#ff0000" r="3.5" stroke-width="0" /><circle cx="828" cy="769" fill="#ff0000" r="3.5" stroke-width="0" /><circle cx="880" cy="767" fill="#ff0000" r="3.5" stroke-width="0" /><circle cx="884" cy="758" fill="#ff0000" r="3.5" stroke-width="0" /><circle cx="914" cy="751" fill="#ff0000" r="3.5" stroke-width="0" /><circle cx="826" cy="749" fill="#ff0000" r="3.5" stroke-width="0" /><circle cx="858" cy="726" fill="#ff0000" r="3.5" stroke-width="0" /><circle cx="869" cy="711" fill="#ff0000" r="3.5" stroke-width="0" /></g><g class="e2"><circle cx="346" cy="1070" fill="#2b92db" r="3.5" stroke-width="0" /><circle cx="271" cy="1068" fill="#2b92db" r="3.5" stroke-width="0" /><circle cx="394" cy="1063" fill="#2b92db" r="3.5" stroke-width="0" /><circle cx="340" cy="1060" fill="#2b92db" r="3.5" stroke-width="0" /><circle cx="360" cy="1056" fill="#2b92db" r="3.5" stroke-width="0" /><circle cx="272" cy="1029" fill="#2b92db" r="3.5" stroke-width="0" /><circle cx="349" cy="1023" fill="#2b92db" r="3.5" stroke-width="0" /><circle cx="314" cy="1013" fill="#2b92db" r="3.5" stroke-width="0" /><circle cx="351" cy="989" fill="#2b92db" r="3.5" stroke-width="0" /><circle cx="391" cy="977" fill="#2b92db" r="3.5" stroke-width="0" /><circle cx="343" cy="944" fill="#2b92db" r="3.5" stroke-width="0" /><circle cx="366" cy="942" fill="#2b92db" r="3.5" stroke-width="0" /><circle cx="407" cy="915" fill="#2b92db" r="3.5" stroke-width="0" /><circle cx="416" cy="872" fill="#2b92db" r="3.5" stroke-width="0" /><circle cx="776" cy="785" fill="#2b92db" r="3.5" stroke-width="0" /><circle cx="784" cy="770" fill="#2b92db" r="3.5" stroke-width="0" /><circle cx="813" cy="755" fill="#2b92db" r="3.5" stroke-width="0" /><circle cx="790" cy="752" fill="#2b92db" r="3.5" stroke-width="0" /><circle cx="817" cy="738" fill="#2b92db" r="3.5" stroke-width="0" /><circle cx="813" cy="736" fill="#2b92db" r="3.5" stroke-width="0" /><circle cx="824" cy="728" fill="#2b92db" r="3.5" stroke-width="0" /><circle cx="756" cy="726" fill="#2b92db" r="3.5" stroke-width="0" /><circle cx="767" cy="720" fill="#2b92db" r="3.5" stroke-width="0" /><circle cx="813" cy="717" fill="#2b92db" r="3.5" stroke-width="0" /><circle cx="836" cy="715" fill="#2b92db" r="3.5" stroke-width="0" /><circle cx="780" cy="714" fill="#2b92db" r="3.5" stroke-width="0" /><circle cx="806" cy="709" fill="#2b92db" r="3.5" stroke-width="0" /><circle cx="816" cy="702" fill="#2b92db" r="3.5" stroke-width="0" /><circle cx="779" cy="698" fill="#2b92db" r="3.5" stroke-width="0" /><circle cx="773" cy="696" fill="#2b92db" r="3.5" stroke-width="0" /><circle cx="779" cy="694" fill="#2b92db" r="3.5" stroke-width="0" /><circle cx="770" cy="690" fill="#2b92db" r="3.5" stroke-width="0" /><circle cx="851" cy="690" fill="#2b92db" r="3.5" stroke-width="0" /><circle cx="859" cy="688" fill="#2b92db" r="3.5" stroke-width="0" /><circle cx="875" cy="684" fill="#2b92db" r="3.5" stroke-width="0" /><circle cx="805" cy="683" fill="#2b92db" r="3.5" stroke-width="0" /><circle cx="830" cy="679" fill="#2b92db" r="3.5" stroke-width="0" /><circle cx="813" cy="677" fill="#2b92db" r="3.5" stroke-width="0" /><circle cx="830" cy="677" fill="#2b92db" r="3.5" stroke-width="0" /><circle cx="844" cy="675" fill="#2b92db" r="3.5" stroke-width="0" /><circle cx="841" cy="670" fill="#2b92db" r="3.5" stroke-width="0" /><circle cx="797" cy="668" fill="#2b92db" r="3.5" stroke-width="0" /><circle cx="761" cy="665" fill="#2b92db" r="3.5" stroke-width="0" /><circle cx="814" cy="663" fill="#2b92db" r="3.5" stroke-width="0" /><circle cx="784" cy="662" fill="#2b92db" r="3.5" stroke-width="0" /><circle cx="805" cy="662" fill="#2b92db" r="3.5" stroke-width="0" /><circle cx="811" cy="659" fill="#2b92db" r="3.5" stroke-width="0" /><circle cx="801" cy="651" fill="#2b92db" r="3.5" stroke-width="0" /><circle cx="792" cy="649" fill="#2b92db" r="3.5" stroke-width="0" /><circle cx="796" cy="649" fill="#2b92db" r="3.5" stroke-width="0" /><circle cx="875" cy="638" fill="#2b92db" r="3.5" stroke-width="0" /><circle cx="879" cy="637" fill="#2b92db" r="3.5" stroke-width="0" /><circle cx="823" cy="635" fill="#2b92db" r="3.5" stroke-width="0" /><circle cx="838" cy="635" fill="#2b92db" r="3.5" stroke-width="0" /><circle cx="813" cy="631" fill="#2b92db" r="3.5" stroke-width="0" /><circle cx="761" cy="621" fill="#2b92db" r="3.5" stroke-width="0" /><circle cx="766" cy="618" fill="#2b92db" r="3.5" stroke-width="0" /><circle cx="870" cy="616" fill="#2b92db" r="3.5" stroke-width="0" /><circle cx="874" cy="611" fill="#2b92db" r="3.5" stroke-width="0" /><circle cx="794" cy="610" fill="#2b92db" r="3.5" stroke-width="0" /><circle cx="763" cy="609" fill="#2b92db" r="3.5" stroke-width="0" /><circle cx="829" cy="603" fill="#2b92db" r="3.5" stroke-width="0" /><circle cx="838" cy="603" fill="#2b92db" r="3.5" stroke-width="0" /><circle cx="780" cy="601" fill="#2b92db" r="3.5" stroke-width="0" /><circle cx="790" cy="600" fill="#2b92db" r="3.5" stroke-width="0" /><circle cx="861" cy="597" fill="#2b92db" r="3.5" stroke-width="0" /><circle cx="835" cy="585" fill="#2b92db" r="3.5" stroke-width="0" /><circle cx="787" cy="583" fill="#2b92db" r="3.5" stroke-width="0" /><circle cx="813" cy="583" fill="#2b92db" r="3.5" stroke-width="0" /><circle cx="792" cy="578" fill="#2b92db" r="3.5" stroke-width="0" /><circle cx="828" cy="577" fill="#2b92db" r="3.5" stroke-width="0" /><circle cx="740" cy="576" fill="#2b92db" r="3.5" stroke-width="0" /><circle cx="805" cy="575" fill="#2b92db" r="3.5" stroke-width="0" /><circle cx="784" cy="572" fill="#2b92db" r="3.5" stroke-width="0" /><circle cx="861" cy="571" fill="#2b92db" r="3.5" stroke-width="0" /><circle cx="841" cy="569" fill="#2b92db" r="3.5" stroke-width="0" /><circle cx="773" cy="567" fill="#2b92db" r="3.5" stroke-width="0" /><circle cx="844" cy="558" fill="#2b92db" r="3.5" stroke-width="0" /><circle cx="885" cy="555" fill="#2b92db" r="3.5" stroke-width="0" /><circle cx="785" cy="554" fill="#2b92db" r="3.5" stroke-width="0" /><circle cx="787" cy="552" fill="#2b92db" r="3.5" stroke-width="0" /><circle cx="737" cy="551" fill="#2b92db" r="3.5" stroke-width="0" /><circle cx="800" cy="549" fill="#2b92db" r="3.5" stroke-width="0" /><circle cx="883" cy="549" fill="#2b92db" r="3.5" stroke-width="0" /><circle cx="809" cy="544" fill="#2b92db" r="3.5" stroke-width="0" /><circle cx="865" cy="543" fill="#2b92db" r="3.5" stroke-width="0" /><circle cx="882" cy="540" fill="#2b92db" r="3.5" stroke-width="0" /><circle cx="908" cy="539" fill="#2b92db" r="3.5" stroke-width="0" /><circle cx="785" cy="534" fill="#2b92db" r="3.5" stroke-width="0" /><circle cx="865" cy="534" fill="#2b92db" r="3.5" stroke-width="0" /><circle cx="826" cy="527" fill="#2b92db" r="3.5" stroke-width="0" /><circle cx="857" cy="525" fill="#2b92db" r="3.5" stroke-width="0" /><circle cx="805" cy="523" fill="#2b92db" r="3.5" stroke-width="0" /><circle cx="881" cy="518" fill="#2b92db" r="3.5" stroke-width="0" /><circle cx="817" cy="511" fill="#2b92db" r="3.5" stroke-width="0" /><circle cx="850" cy="511" fill="#2b92db" r="3.5" stroke-width="0" /><circle cx="870" cy="511" fill="#2b92db" r="3.5" stroke-width="0" /><circle cx="811" cy="510" fill="#2b92db" r="3.5" stroke-width="0" /><circle cx="834" cy="510" fill="#2b92db" r="3.5" stroke-width="0" /><circle cx="818" cy="507" fill="#2b92db" r="3.5" stroke-width="0" /><circle cx="812" cy="501" fill="#2b92db" r="3.5" stroke-width="0" /><circle cx="861" cy="500" fill="#2b92db" r="3.5" stroke-width="0" /><circle cx="795" cy="493" fill="#2b92db" r="3.5" stroke-width="0" /><circle cx="923" cy="493" fill="#2b92db" r="3.5" stroke-width="0" /><circle cx="823" cy="484" fill="#2b92db" r="3.5" stroke-width="0" /><circle cx="823" cy="481" fill="#2b92db" r="3.5" stroke-width="0" /><circle cx="817" cy="479" fill="#2b92db" r="3.5" stroke-width="0" /><circle cx="816" cy="477" fill="#2b92db" r="3.5" stroke-width="0" /><circle cx="843" cy="455" fill="#2b92db" r="3.5" stroke-width="0" /><circle cx="922" cy="383" fill="#2b92db" r="3.5" stroke-width="0" /></g><g class="e3"><circle cx="258" cy="992" fill="#911eb4" r="3.5" stroke-width="0" /><circle cx="284" cy="979" fill="#911eb4" r="3.5" stroke-width="0" /><circle cx="278" cy="965" fill="#911eb4" r="3.5" stroke-width="0" /><circle cx="302" cy="963" fill="#911eb4" r="3.5" stroke-width="0" /><circle cx="297" cy="949" fill="#911eb4" r="3.5" stroke-width="0" /><circle cx="255" cy="938" fill="#911eb4" r="3.5" stroke-width="0" /><circle cx="342" cy="929" fill="#911eb4" r="3.5" stroke-width="0" /><circle cx="339" cy="922" fill="#911eb4" r="3.5" stroke-width="0" /><circle cx="317" cy="914" fill="#911eb4" r="3.5" stroke-width="0" /><circle cx="281" cy="894" fill="#911eb4" r="3.5" stroke-width="0" /><circle cx="296" cy="891" fill="#911eb4" r="3.5" stroke-width="0" /><circle cx="346" cy="890" fill="#911eb4" r="3.5" stroke-width="0" /><circle cx="335" cy="888" fill="#911eb4" r="3.5" stroke-width="0" /><circle cx="291" cy="884" fill="#911eb4" r="3.5" stroke-width="0" /><circle cx="291" cy="879" fill="#911eb4" r="3.5" stroke-width="0" /><circle cx="345" cy="878" fill="#911eb4" r="3.5" stroke-width="0" /><circle cx="339" cy="871" fill="#911eb4" r="3.5" stroke-width="0" /><circle cx="270" cy="869" fill="#911eb4" r="3.5" stroke-width="0" /><circle cx="315" cy="868" fill="#911eb4" r="3.5" stroke-width="0" /><circle cx="353" cy="867" fill="#911eb4" r="3.5" stroke-width="0" /><circle cx="214" cy="855" fill="#911eb4" r="3.5" stroke-width="0" /><circle cx="301" cy="854" fill="#911eb4" r="3.5" stroke-width="0" /><circle cx="418" cy="848" fill="#911eb4" r="3.5" stroke-width="0" /><circle cx="272" cy="831" fill="#911eb4" r="3.5" stroke-width="0" /><circle cx="320" cy="830" fill="#911eb4" r="3.5" stroke-width="0" /><circle cx="327" cy="825" fill="#911eb4" r="3.5" stroke-width="0" /><circle cx="300" cy="824" fill="#911eb4" r="3.5" stroke-width="0" /><circle cx="214" cy="820" fill="#911eb4" r="3.5" stroke-width="0" /><circle cx="281" cy="819" fill="#911eb4" r="3.5" stroke-width="0" /><circle cx="351" cy="812" fill="#911eb4" r="3.5" stroke-width="0" /><circle cx="378" cy="811" fill="#911eb4" r="3.5" stroke-width="0" /><circle cx="356" cy="809" fill="#911eb4" r="3.5" stroke-width="0" /><circle cx="333" cy="807" fill="#911eb4" r="3.5" stroke-width="0" /><circle cx="370" cy="805" fill="#911eb4" r="3.5" stroke-width="0" /><circle cx="334" cy="800" fill="#911eb4" r="3.5" stroke-width="0" /><circle cx="338" cy="800" fill="#911eb4" r="3.5" stroke-width="0" /><circle cx="297" cy="793" fill="#911eb4" r="3.5" stroke-width="0" /><circle cx="372" cy="783" fill="#911eb4" r="3.5" stroke-width="0" /><circle cx="343" cy="782" fill="#911eb4" r="3.5" stroke-width="0" /><circle cx="373" cy="781" fill="#911eb4" r="3.5" stroke-width="0" /><circle cx="332" cy="780" fill="#911eb4" r="3.5" stroke-width="0" /><circle cx="299" cy="779" fill="#911eb4" r="3.5" stroke-width="0" /><circle cx="318" cy="775" fill="#911eb4" r="3.5" stroke-width="0" /><circle cx="313" cy="773" fill="#911eb4" r="3.5" stroke-width="0" /><circle cx="266" cy="768" fill="#911eb4" r="3.5" stroke-width="0" /><circle cx="307" cy="767" fill="#911eb4" r="3.5" stroke-width="0" /><circle cx="324" cy="767" fill="#911eb4" r="3.5" stroke-width="0" /><circle cx="406" cy="766" fill="#911eb4" r="3.5" stroke-width="0" /><circle cx="324" cy="759" fill="#911eb4" r="3.5" stroke-width="0" /><circle cx="351" cy="759" fill="#911eb4" r="3.5" stroke-width="0" /><circle cx="343" cy="756" fill="#911eb4" r="3.5" stroke-width="0" /><circle cx="305" cy="753" fill="#911eb4" r="3.5" stroke-width="0" /><circle cx="358" cy="752" fill="#911eb4" r="3.5" stroke-width="0" /><circle cx="288" cy="751" fill="#911eb4" r="3.5" stroke-width="0" /><circle cx="305" cy="749" fill="#911eb4" r="3.5" stroke-width="0" /><circle cx="318" cy="743" fill="#911eb4" r="3.5" stroke-width="0" /><circle cx="356" cy="728" fill="#911eb4" r="3.5" stroke-width="0" /><circle cx="308" cy="727" fill="#911eb4" r="3.5" stroke-width="0" /><circle cx="326" cy="719" fill="#911eb4" r="3.5" stroke-width="0" /><circle cx="397" cy="715" fill="#911eb4" r="3.5" stroke-width="0" /><circle cx="296" cy="711" fill="#911eb4" r="3.5" stroke-width="0" /><circle cx="294" cy="710" fill="#911eb4" r="3.5" stroke-width="0" /><circle cx="361" cy="710" fill="#911eb4" r="3.5" stroke-width="0" /><circle cx="401" cy="703" fill="#911eb4" r="3.5" stroke-width="0" /><circle cx="327" cy="697" fill="#911eb4" r="3.5" stroke-width="0" /><circle cx="376" cy="687" fill="#911eb4" r="3.5" stroke-width="0" /><circle cx="365" cy="666" fill="#911eb4" r="3.5" stroke-width="0" /><circle cx="739" cy="521" fill="#911eb4" r="3.5" stroke-width="0" /><circle cx="723" cy="501" fill="#911eb4" r="3.5" stroke-width="0" /><circle cx="750" cy="492" fill="#911eb4" r="3.5" stroke-width="0" /><circle cx="782" cy="491" fill="#911eb4" r="3.5" stroke-width="0" /><circle cx="781" cy="489" fill="#911eb4" r="3.5" stroke-width="0" /><circle cx="794" cy="477" fill="#911eb4" r="3.5" stroke-width="0" /><circle cx="806" cy="470" fill="#911eb4" r="3.5" stroke-width="0" /><circle cx="784" cy="455" fill="#911eb4" r="3.5" stroke-width="0" /><circle cx="797" cy="448" fill="#911eb4" r="3.5" stroke-width="0" /><circle cx="760" cy="441" fill="#911eb4" r="3.5" stroke-width="0" /><circle cx="797" cy="438" fill="#911eb4" r="3.5" stroke-width="0" /><circle cx="779" cy="436" fill="#911eb4" r="3.5" stroke-width="0" /><circle cx="793" cy="435" fill="#911eb4" r="3.5" stroke-width="0" /><circle cx="805" cy="430" fill="#911eb4" r="3.5" stroke-width="0" /><circle cx="829" cy="425" fill="#911eb4" r="3.5" stroke-width="0" /><circle cx="798" cy="423" fill="#911eb4" r="3.5" stroke-width="0" /><circle cx="766" cy="422" fill="#911eb4" r="3.5" stroke-width="0" /><circle cx="814" cy="418" fill="#911eb4" r="3.5" stroke-width="0" /><circle cx="789" cy="410" fill="#911eb4" r="3.5" stroke-width="0" /><circle cx="808" cy="407" fill="#911eb4" r="3.5" stroke-width="0" /><circle cx="822" cy="407" fill="#911eb4" r="3.5" stroke-width="0" /><circle cx="785" cy="403" fill="#911eb4" r="3.5" stroke-width="0" /><circle cx="785" cy="402" fill="#911eb4" r="3.5" stroke-width="0" /><circle cx="878" cy="400" fill="#911eb4" r="3.5" stroke-width="0" /><circle cx="881" cy="391" fill="#911eb4" r="3.5" stroke-width="0" /><circle cx="796" cy="390" fill="#911eb4" r="3.5" stroke-width="0" /><circle cx="830" cy="385" fill="#911eb4" r="3.5" stroke-width="0" /><circle cx="823" cy="383" fill="#911eb4" r="3.5" stroke-width="0" /><circle cx="841" cy="383" fill="#911eb4" r="3.5" stroke-width="0" /><circle cx="747" cy="382" fill="#911eb4" r="3.5" stroke-width="0" /><circle cx="863" cy="382" fill="#911eb4" r="3.5" stroke-width="0" /><circle cx="899" cy="382" fill="#911eb4" r="3.5" stroke-width="0" /><circle cx="769" cy="381" fill="#911eb4" r="3.5" stroke-width="0" /><circle cx="877" cy="381" fill="#911eb4" r="3.5" stroke-width="0" /><circle cx="811" cy="380" fill="#911eb4" r="3.5" stroke-width="0" /><circle cx="866" cy="371" fill="#911eb4" r="3.5" stroke-width="0" /><circle cx="819" cy="369" fill="#911eb4" r="3.5" stroke-width="0" /><circle cx="843" cy="368" fill="#911eb4" r="3.5" stroke-width="0" /><circle cx="777" cy="367" fill="#911eb4" r="3.5" stroke-width="0" /><circle cx="831" cy="363" fill="#911eb4" r="3.5" stroke-width="0" /><circle cx="796" cy="361" fill="#911eb4" r="3.5" stroke-width="0" /><circle cx="743" cy="359" fill="#911eb4" r="3.5" stroke-width="0" /><circle cx="881" cy="348" fill="#911eb4" r="3.5" stroke-width="0" /><circle cx="730" cy="347" fill="#911eb4" r="3.5" stroke-width="0" /><circle cx="812" cy="344" fill="#911eb4" r="3.5" stroke-width="0" /><circle cx="788" cy="343" fill="#911eb4" r="3.5" stroke-width="0" /><circle cx="802" cy="325" fill="#911eb4" r="3.5" stroke-width="0" /><circle cx="816" cy="317" fill="#911eb4" r="3.5" stroke-width="0" /><circle cx="895" cy="315" fill="#911eb4" r="3.5" stroke-width="0" /><circle cx="858" cy="313" fill="#911eb4" r="3.5" stroke-width="0" /><circle cx="799" cy="307" fill="#911eb4" r="3.5" stroke-width="0" /><circle cx="891" cy="307" fill="#911eb4" r="3.5" stroke-width="0" /><circle cx="841" cy="298" fill="#911eb4" r="3.5" stroke-width="0" /><circle cx="885" cy="298" fill="#911eb4" r="3.5" stroke-width="0" /><circle cx="757" cy="295" fill="#911eb4" r="3.5" stroke-width="0" /><circle cx="856" cy="295" fill="#911eb4" r="3.5" stroke-width="0" /><circle cx="780" cy="294" fill="#911eb4" r="3.5" stroke-width="0" /><circle cx="814" cy="294" fill="#911eb4" r="3.5" stroke-width="0" /><circle cx="860" cy="286" fill="#911eb4" r="3.5" stroke-width="0" /><circle cx="872" cy="284" fill="#911eb4" r="3.5" stroke-width="0" /><circle cx="803" cy="281" fill="#911eb4" r="3.5" stroke-width="0" /><circle cx="845" cy="272" fill="#911eb4" r="3.5" stroke-width="0" /><circle cx="777" cy="271" fill="#911eb4" r="3.5" stroke-width="0" /><circle cx="811" cy="256" fill="#911eb4" r="3.5" stroke-width="0" /><circle cx="791" cy="255" fill="#911eb4" r="3.5" stroke-width="0" /><circle cx="844" cy="255" fill="#911eb4" r="3.5" stroke-width="0" /><circle cx="772" cy="253" fill="#911eb4" r="3.5" stroke-width="0" /><circle cx="873" cy="253" fill="#911eb4" r="3.5" stroke-width="0" /><circle cx="785" cy="247" fill="#911eb4" r="3.5" stroke-width="0" /><circle cx="759" cy="246" fill="#911eb4" r="3.5" stroke-width="0" /><circle cx="773" cy="245" fill="#911eb4" r="3.5" stroke-width="0" /><circle cx="862" cy="236" fill="#911eb4" r="3.5" stroke-width="0" /><circle cx="816" cy="225" fill="#911eb4" r="3.5" stroke-width="0" /><circle cx="843" cy="198" fill="#911eb4" r="3.5" stroke-width="0" /><circle cx="854" cy="176" fill="#911eb4" r="3.5" stroke-width="0" /><circle cx="877" cy="167" fill="#911eb4" r="3.5" stroke-width="0" /><circle cx="856" cy="159" fill="#911eb4" r="3.5" stroke-width="0" /></g><g class="e4"><circle cx="255" cy="737" fill="#3cb44B" r="3.5" stroke-width="0" /><circle cx="234" cy="694" fill="#3cb44B" r="3.5" stroke-width="0" /><circle cx="288" cy="671" fill="#3cb44B" r="3.5" stroke-width="0" /><circle cx="315" cy="664" fill="#3cb44B" r="3.5" stroke-width="0" /><circle cx="331" cy="658" fill="#3cb44B" r="3.5" stroke-width="0" /><circle cx="318" cy="654" fill="#3cb44B" r="3.5" stroke-width="0" /><circle cx="338" cy="648" fill="#3cb44B" r="3.5" stroke-width="0" /><circle cx="332" cy="646" fill="#3cb44B" r="3.5" stroke-width="0" /><circle cx="346" cy="632" fill="#3cb44B" r="3.5" stroke-width="0" /><circle cx="236" cy="631" fill="#3cb44B" r="3.5" stroke-width="0" /><circle cx="297" cy="629" fill="#3cb44B" r="3.5" stroke-width="0" /><circle cx="309" cy="627" fill="#3cb44B" r="3.5" stroke-width="0" /><circle cx="248" cy="623" fill="#3cb44B" r="3.5" stroke-width="0" /><circle cx="317" cy="623" fill="#3cb44B" r="3.5" stroke-width="0" /><circle cx="274" cy="620" fill="#3cb44B" r="3.5" stroke-width="0" /><circle cx="309" cy="620" fill="#3cb44B" r="3.5" stroke-width="0" /><circle cx="328" cy="620" fill="#3cb44B" r="3.5" stroke-width="0" /><circle cx="342" cy="619" fill="#3cb44B" r="3.5" stroke-width="0" /><circle cx="346" cy="617" fill="#3cb44B" r="3.5" stroke-width="0" /><circle cx="293" cy="616" fill="#3cb44B" r="3.5" stroke-width="0" /><circle cx="324" cy="615" fill="#3cb44B" r="3.5" stroke-width="0" /><circle cx="347" cy="614" fill="#3cb44B" r="3.5" stroke-width="0" /><circle cx="281" cy="605" fill="#3cb44B" r="3.5" stroke-width="0" /><circle cx="297" cy="603" fill="#3cb44B" r="3.5" stroke-width="0" /><circle cx="307" cy="603" fill="#3cb44B" r="3.5" stroke-width="0" /><circle cx="379" cy="601" fill="#3cb44B" r="3.5" stroke-width="0" /><circle cx="330" cy="599" fill="#3cb44B" r="3.5" stroke-width="0" /><circle cx="263" cy="595" fill="#3cb44B" r="3.5" stroke-width="0" /><circle cx="286" cy="594" fill="#3cb44B" r="3.5" stroke-width="0" /><circle cx="319" cy="591" fill="#3cb44B" r="3.5" stroke-width="0" /><circle cx="349" cy="583" fill="#3cb44B" r="3.5" stroke-width="0" /><circle cx="322" cy="582" fill="#3cb44B" r="3.5" stroke-width="0" /><circle cx="351" cy="581" fill="#3cb44B" r="3.5" stroke-width="0" /><circle cx="319" cy="580" fill="#3cb44B" r="3.5" stroke-width="0" /><circle cx="360" cy="574" fill="#3cb44B" r="3.5" stroke-width="0" /><circle cx="295" cy="556" fill="#3cb44B" r="3.5" stroke-width="0" /><circle cx="351" cy="553" fill="#3cb44B" r="3.5" stroke-width="0" /><circle cx="291" cy="548" fill="#3cb44B" r="3.5" stroke-width="0" /><circle cx="318" cy="545" fill="#3cb44B" r="3.5" stroke-width="0" /><circle cx="305" cy="544" fill="#3cb44B" r="3.5" stroke-width="0" /><circle cx="326" cy="536" fill="#3cb44B" r="3.5" stroke-width="0" /><circle cx="255" cy="535" fill="#3cb44B" r="3.5" stroke-width="0" /><circle cx="306" cy="534" fill="#3cb44B" r="3.5" stroke-width="0" /><circle cx="292" cy="532" fill="#3cb44B" r="3.5" stroke-width="0" /><circle cx="315" cy="531" fill="#3cb44B" r="3.5" stroke-width="0" /><circle cx="267" cy="528" fill="#3cb44B" r="3.5" stroke-width="0" /><circle cx="304" cy="526" fill="#3cb44B" r="3.5" stroke-width="0" /><circle cx="312" cy="519" fill="#3cb44B" r="3.5" stroke-width="0" /><circle cx="265" cy="518" fill="#3cb44B" r="3.5" stroke-width="0" /><circle cx="281" cy="516" fill="#3cb44B" r="3.5" stroke-width="0" /><circle cx="238" cy="515" fill="#3cb44B" r="3.5" stroke-width="0" /><circle cx="306" cy="510" fill="#3cb44B" r="3.5" stroke-width="0" /><circle cx="222" cy="509" fill="#3cb44B" r="3.5" stroke-width="0" /><circle cx="294" cy="502" fill="#3cb44B" r="3.5" stroke-width="0" /><circle cx="263" cy="496" fill="#3cb44B" r="3.5" stroke-width="0" /><circle cx="352" cy="495" fill="#3cb44B" r="3.5" stroke-width="0" /><circle cx="275" cy="490" fill="#3cb44B" r="3.5" stroke-width="0" /><circle cx="259" cy="487" fill="#3cb44B" r="3.5" stroke-width="0" /><circle cx="444" cy="485" fill="#3cb44B" r="3.5" stroke-width="0" /><circle cx="280" cy="484" fill="#3cb44B" r="3.5" stroke-width="0" /><circle cx="302" cy="482" fill="#3cb44B" r="3.5" stroke-width="0" /><circle cx="289" cy="472" fill="#3cb44B" r="3.5" stroke-width="0" /><circle cx="290" cy="468" fill="#3cb44B" r="3.5" stroke-width="0" /><circle cx="318" cy="467" fill="#3cb44B" r="3.5" stroke-width="0" /><circle cx="290" cy="463" fill="#3cb44B" r="3.5" stroke-width="0" /><circle cx="263" cy="461" fill="#3cb44B" r="3.5" stroke-width="0" /><circle cx="298" cy="461" fill="#3cb44B" r="3.5" stroke-width="0" /><circle cx="274" cy="460" fill="#3cb44B" r="3.5" stroke-width="0" /><circle cx="360" cy="454" fill="#3cb44B" r="3.5" stroke-width="0" /><circle cx="365" cy="452" fill="#3cb44B" r="3.5" stroke-width="0" /><circle cx="332" cy="450" fill="#3cb44B" r="3.5" stroke-width="0" /><circle cx="370" cy="445" fill="#3cb44B" r="3.5" stroke-width="0" /><circle cx="307" cy="442" fill="#3cb44B" r="3.5" stroke-width="0" /><circle cx="356" cy="430" fill="#3cb44B" r="3.5" stroke-width="0" /><circle cx="324" cy="428" fill="#3cb44B" r="3.5" stroke-width="0" /><circle cx="368" cy="425" fill="#3cb44B" r="3.5" stroke-width="0" /><circle cx="328" cy="423" fill="#3cb44B" r="3.5" stroke-width="0" /><circle cx="365" cy="421" fill="#3cb44B" r="3.5" stroke-width="0" /><circle cx="393" cy="420" fill="#3cb44B" r="3.5" stroke-width="0" /><circle cx="335" cy="419" fill="#3cb44B" r="3.5" stroke-width="0" /><circle cx="329" cy="418" fill="#3cb44B" r="3.5" stroke-width="0" /><circle cx="395" cy="418" fill="#3cb44B" r="3.5" stroke-width="0" /><circle cx="303" cy="409" fill="#3cb44B" r="3.5" stroke-width="0" /><circle cx="313" cy="401" fill="#3cb44B" r="3.5" stroke-width="0" /><circle cx="385" cy="401" fill="#3cb44B" r="3.5" stroke-width="0" /><circle cx="400" cy="398" fill="#3cb44B" r="3.5" stroke-width="0" /><circle cx="348" cy="396" fill="#3cb44B" r="3.5" stroke-width="0" /><circle cx="340" cy="393" fill="#3cb44B" r="3.5" stroke-width="0" /><circle cx="365" cy="389" fill="#3cb44B" r="3.5" stroke-width="0" /><circle cx="366" cy="386" fill="#3cb44B" r="3.5" stroke-width="0" /><circle cx="368" cy="377" fill="#3cb44B" r="3.5" stroke-width="0" /><circle cx="339" cy="375" fill="#3cb44B" r="3.5" stroke-width="0" /><circle cx="385" cy="373" fill="#3cb44B" r="3.5" stroke-width="0" /><circle cx="379" cy="368" fill="#3cb44B" r="3.5" stroke-width="0" /><circle cx="381" cy="367" fill="#3cb44B" r="3.5" stroke-width="0" /><circle cx="398" cy="336" fill="#3cb44B" r="3.5" stroke-width="0" /><circle cx="413" cy="335" fill="#3cb44B" r="3.5" stroke-width="0" /><circle cx="769" cy="195" fill="#3cb44B" r="3.5" stroke-width="0" /><circle cx="799" cy="191" fill="#3cb44B" r="3.5" stroke-width="0" /><circle cx="790" cy="152" fill="#3cb44B" r="3.5" stroke-width="0" /><circle cx="738" cy="150" fill="#3cb44B" r="3.5" stroke-width="0" /><circle cx="818" cy="145" fill="#3cb44B" r="3.5" stroke-width="0" /><circle cx="816" cy="144" fill="#3cb44B" r="3.5" stroke-width="0" /><circle cx="837" cy="135" fill="#3cb44B" r="3.5" stroke-width="0" /><circle cx="782" cy="131" fill="#3cb44B" r="3.5" stroke-width="0" /><circle cx="759" cy="130" fill="#3cb44B" r="3.5" stroke-width="0" /><circle cx="772" cy="120" fill="#3cb44B" r="3.5" stroke-width="0" /><circle cx="819" cy="119" fill="#3cb44B" r="3.5" stroke-width="0" /><circle cx="822" cy="117" fill="#3cb44B" r="3.5" stroke-width="0" /><circle cx="839" cy="108" fill="#3cb44B" r="3.5" stroke-width="0" /><circle cx="834" cy="102" fill="#3cb44B" r="3.5" stroke-width="0" /><circle cx="874" cy="72" fill="#3cb44B" r="3.5" stroke-width="0" /></g><g class="e5"><circle cx="244" cy="453" fill="#ff0000" r="3.5" stroke-width="0" /><circle cx="241" cy="449" fill="#ff0000" r="3.5" stroke-width="0" /><circle cx="264" cy="425" fill="#ff0000" r="3.5" stroke-width="0" /><circle cx="306" cy="396" fill="#ff0000" r="3.5" stroke-width="0" /><circle cx="286" cy="394" fill="#ff0000" r="3.5" stroke-width="0" /><circle cx="282" cy="392" fill="#ff0000" r="3.5" stroke-width="0" /><circle cx="271" cy="383" fill="#ff0000" r="3.5" stroke-width="0" /><circle cx="322" cy="380" fill="#ff0000" r="3.5" stroke-width="0" /><circle cx="279" cy="359" fill="#ff0000" r="3.5" stroke-width="0" /><circle cx="288" cy="356" fill="#ff0000" r="3.5" stroke-width="0" /><circle cx="263" cy="353" fill="#ff0000" r="3.5" stroke-width="0" /><circle cx="268" cy="343" fill="#ff0000" r="3.5" stroke-width="0" /><circle cx="264" cy="342" fill="#ff0000" r="3.5" stroke-width="0" /><circle cx="348" cy="336" fill="#ff0000" r="3.5" stroke-width="0" /><circle cx="264" cy="335" fill="#ff0000" r="3.5" stroke-width="0" /><circle cx="326" cy="333" fill="#ff0000" r="3.5" stroke-width="0" /><circle cx="268" cy="331" fill="#ff0000" r="3.5" stroke-width="0" /><circle cx="367" cy="327" fill="#ff0000" r="3.5" stroke-width="0" /><circle cx="289" cy="326" fill="#ff0000" r="3.5" stroke-width="0" /><circle cx="307" cy="325" fill="#ff0000" r="3.5" stroke-width="0" /><circle cx="300" cy="320" fill="#ff0000" r="3.5" stroke-width="0" /><circle cx="297" cy="319" fill="#ff0000" r="3.5" stroke-width="0" /><circle cx="287" cy="318" fill="#ff0000" r="3.5" stroke-width="0" /><circle cx="364" cy="313" fill="#ff0000" r="3.5" stroke-width="0" /><circle cx="291" cy="307" fill="#ff0000" r="3.5" stroke-width="0" /><circle cx="350" cy="304" fill="#ff0000" r="3.5" stroke-width="0" /><circle cx="389" cy="304" fill="#ff0000" r="3.5" stroke-width="0" /><circle cx="307" cy="299" fill="#ff0000" r="3.5" stroke-width="0" /><circle cx="292" cy="297" fill="#ff0000" r="3.5" stroke-width="0" /><circle cx="251" cy="291" fill="#ff0000" r="3.5" stroke-width="0" /><circle cx="325" cy="287" fill="#ff0000" r="3.5" stroke-width="0" /><circle cx="363" cy="287" fill="#ff0000" r="3.5" stroke-width="0" /><circle cx="282" cy="285" fill="#ff0000" r="3.5" stroke-width="0" /><circle cx="344" cy="285" fill="#ff0000" r="3.5" stroke-width="0" /><circle cx="293" cy="283" fill="#ff0000" r="3.5" stroke-width="0" /><circle cx="280" cy="278" fill="#ff0000" r="3.5" stroke-width="0" /><circle cx="273" cy="274" fill="#ff0000" r="3.5" stroke-width="0" /><circle cx="271" cy="273" fill="#ff0000" r="3.5" stroke-width="0" /><circle cx="331" cy="270" fill="#ff0000" r="3.5" stroke-width="0" /><circle cx="382" cy="265" fill="#ff0000" r="3.5" stroke-width="0" /><circle cx="254" cy="260" fill="#ff0000" r="3.5" stroke-width="0" /><circle cx="323" cy="256" fill="#ff0000" r="3.5" stroke-width="0" /><circle cx="314" cy="252" fill="#ff0000" r="3.5" stroke-width="0" /><circle cx="292" cy="250" fill="#ff0000" r="3.5" stroke-width="0" /><circle cx="325" cy="245" fill="#ff0000" r="3.5" stroke-width="0" /><circle cx="282" cy="239" fill="#ff0000" r="3.5" stroke-width="0" /><circle cx="317" cy="234" fill="#ff0000" r="3.5" stroke-width="0" /><circle cx="293" cy="226" fill="#ff0000" r="3.5" stroke-width="0" /><circle cx="317" cy="225" fill="#ff0000" r="3.5" stroke-width="0" /><circle cx="348" cy="222" fill="#ff0000" r="3.5" stroke-width="0" /><circle cx="390" cy="219" fill="#ff0000" r="3.5" stroke-width="0" /><circle cx="380" cy="216" fill="#ff0000" r="3.5" stroke-width="0" /><circle cx="372" cy="207" fill="#ff0000" r="3.5" stroke-width="0" /><circle cx="400" cy="206" fill="#ff0000" r="3.5" stroke-width="0" /><circle cx="318" cy="200" fill="#ff0000" r="3.5" stroke-width="0" /><circle cx="348" cy="183" fill="#ff0000" r="3.5" stroke-width="0" /><circle cx="314" cy="180" fill="#ff0000" r="3.5" stroke-width="0" /><circle cx="332" cy="177" fill="#ff0000" r="3.5" stroke-width="0" /><circle cx="389" cy="168" fill="#ff0000" r="3.5" stroke-width="0" /><circle cx="338" cy="160" fill="#ff0000" r="3.5" stroke-width="0" /><circle cx="310" cy="154" fill="#ff0000" r="3.5" stroke-width="0" /><circle cx="279" cy="153" fill="#ff0000" r="3.5" stroke-width="0" /><circle cx="305" cy="144" fill="#ff0000" r="3.5" stroke-width="0" /><circle cx="376" cy="144" fill="#ff0000" r="3.5" stroke-width="0" /><circle cx="330" cy="138" fill="#ff0000" r="3.5" stroke-width="0" /><circle cx="315" cy="132" fill="#ff0000" r="3.5" stroke-width="0" /><circle cx="357" cy="108" fill="#ff0000" r="3.5" stroke-width="0" /><circle cx="344" cy="107" fill="#ff0000" r="3.5" stroke-width="0" /><circle cx="344" cy="100" fill="#ff0000" r="3.5" stroke-width="0" /><circle cx="397" cy="81" fill="#ff0000" r="3.5" stroke-width="0" /></g><g class="e6"><circle cx="243" cy="170" fill="#2b92db" r="3.5" stroke-width="0" /><circle cx="274" cy="113" fill="#2b92db" r="3.5" stroke-width="0" /><circle cx="289" cy="101" fill="#2b92db" r="3.5" stroke-width="0" /><circle cx="305" cy="86" fill="#2b92db" r="3.5" stroke-width="0" /><circle cx="254" cy="81" fill="#2b92db" r="3.5" stroke-width="0" /><circle cx="289" cy="76" fill="#2b92db" r="3.5" stroke-width="0" /></g></g></g></svg>