<?xml version="1.0" encoding="utf-8" ?>
<svg baseProfile="full" height="1140px" style="font-size:15;font-family:Arial, san-serif;font-weight:bold;stroke:black;stroke-width:0;fill:#444444" version="1.1" width="1140px" xmlns="http://www.w3.org/2000/svg" xmlns:ev="http://www.w3.org/2001/xml-events" xmlns:xlink="http://www.w3.org/1999/xlink"><defs><clipPath id="areadografico"><rect height="1000" width="1000" x="70" y="70" /></clipPath></defs><g class="master"><g class="poligonos"><polygon clip-path="url(#areadografico)" fill="#000000" fill-opacity="0.1" points="1069,1070 1069,785 785,1070" /><polygon clip-path="url(#areadografico)" fill="#ffffff" fill-opacity="0.1" points="785,1070 499,1070 1069,499 1069,785" /><polygon clip-path="url(#areadografico)" fill="#000000" fill-opacity="0.1" points="499,1070 214,1070 1069,214 1069,499" /><polygon clip-path="url(#areadografico)" fill="#ffffff" fill-opacity="0.1" points="214,1070 -72,1070 1069,-72 1069,214" /><polygon clip-path="url(#areadografico)" fill="#000000" fill-opacity="0.1" points="-72,1070 -358,1070 1069,-358 1069,-72" /><polygon clip-path="url(#areadografico)" fill="#ffffff" fill-opacity="0.1" points="-358,1070 -643,1070 1069,-643 1069,-358" /><polygon clip-path="url(#areadografico)" fill="#000000" fill-opacity="0.1" points="70,70 70,356 356,70" /></g><g class="linhas"><line fill-opacity="0.3" stroke="#999999" stroke-width="1" x1="1070" x2="1070" y1="1070" y2="70" /><line fill-opacity="0.3" stroke="#999999" stroke-width="1" x1="70" x2="1070" y1="70" y2="70" /><line fill-opacity="0.3" stroke="#999999" stroke-width="1" x1="970" x2="970" y1="1070" y2="70" /><line fill-opacity="0.3" stroke="#999999" stroke-width="1" x1="70" x2="1070" y1="170" y2="170" /><line fill-opacity="0.3" stroke="#999999" stroke-width="1" x1="870" x2="870" y1="1070" y2="70" /><line fill-opacity="0.3" stroke="#999999" stroke-width="1" x1="70" x2="1070" y1="270" y2="270" /><line fill-opacity="0.3" stroke="#999999" stroke-width="1" x1="770" x2="770" y1="1070" y2="70" /><line fill-opacity="0.3" stroke="#999999" stroke-width="1" x1="70" x2="1070" y1="370" y2="370" /><line fill-opacity="0.3" stroke="#999999" stroke-width="1" x1="670" x2="670" y1="1070" y2="70" /><line fill-opacity="0.3" stroke="#999999" stroke-width="1" x1="70" x2="1070" y1="470" y2="470" /><line fill-opacity="0.3" stroke="#999999" stroke-width="1" x1="570" x2="570" y1="1070" y2="70" /><line fill-opacity="0.3" stroke="#999999" stroke-width="1" x1="70" x2="1070" y1="570" y2="570" /><line fill-opacity="0.3" stroke="#999999" stroke-width="1" x1="470" x2="470" y1="1070" y2="70" /><line fill-opacity="0.3" stroke="#999999" stroke-width="1" x1="70" x2="1070" y1="670" y2="670" /><line fill-opacity="0.3" stroke="#999999" stroke-width="1" x1="370" x2="370" y1="1070" y2="70" /><line fill-opacity="0.3" stroke="#999999" stroke-width="1" x1="70" x2="1070" y1="770" y2="770" /><line fill-opacity="0.3" stroke="#999999" stroke-width="1" x1="270" x2="270" y1="1070" y2="70" /><line fill-opacity="0.3" stroke="#999999" stroke-width="1" x1="70" x2="1070" y1="870" y2="870" /><line fill-opacity="0.3" stroke="#999999" stroke-width="1" x1="170" x2="170" y1="1070" y2="70" /><line fill-opacity="0.3" stroke="#999999" stroke-width="1" x1="70" x2="1070" y1="970" y2="970" /><line fill-opacity="0.3" stroke="#000000" stroke-width="1" x1="70" x2="70" y1="1071" y2="69" /><line fill-opacity="0.3" stroke="#000000" stroke-width="1" x1="69" x2="1071" y1="1070" y2="1070" /></g><g class="textos"><text x="1050" y="1110">1000</text><text x="10" y="71">1000</text><text x="950" y="1110">900</text><text x="10" y="171">900</text><text x="850" y="1110">800</text><text x="10" y="271">800</text><text x="750" y="1110">700</text><text x="10" y="371">700</text><text x="650" y="1110">600</text><text x="10" y="471">600</text><text x="550" y="1110">500</text><text x="10" y="571">500</text><text x="450" y="1110">400</text><text x="10" y="671">400</text><text x="350" y="1110">300</text><text x="10" y="771">300</text><text x="250" y="1110">200</text><text x="10" y="871">200</text><text x="150" y="1110">100</text><text x="10" y="971">100</text><text x="50" y="1111">0</text><text x="9" y="1071">0</text></g><g class="especies"><g class="e0"><circle cx="840" cy="1024" fill="#3cb44B" r="3.5" stroke-width="0" /></g><g class="e1"><circle cx="760" cy="987" fill="#ff0000" r="3.5" stroke-width="0" /><circle cx="777" cy="929" fill="#ff0000" r="3.5" stroke-width="0" /><circle cx="782" cy="928" fill="#ff0000" r="3.5" stroke-width="0" /><circle cx="811" cy="922" fill="#ff0000" r="3.5" stroke-width="0" /><circle cx="904" cy="907" fill="#ff0000" r="3.5" stroke-width="0" /><circle cx="782" cy="898" fill="#ff0000" r="3.5" stroke-width="0" /><circle cx="786" cy="837" fill="#ff0000" r="3.5" stroke-width="0" /><circle cx="976" cy="795" fill="#ff0000" r="3.5" stroke-width="0" /><circle cx="814" cy="774" fill="#ff0000" r="3.5" stroke-width="0" /><circle cx="820" cy="768" fill="#ff0000" r="3.5" stroke-width="0" /></g><g class="e2"><circle cx="434" cy="1066" fill="#2b92db" r="3.5" stroke-width="0" /><circle cx="322" cy="1065" fill="#2b92db" r="3.5" stroke-width="0" /><circle cx="462" cy="1021" fill="#2b92db" r="3.5" stroke-width="0" /><circle cx="390" cy="1010" fill="#2b92db" r="3.5" stroke-width="0" /><circle cx="421" cy="991" fill="#2b92db" r="3.5" stroke-width="0" /><circle cx="799" cy="738" fill="#2b92db" r="3.5" stroke-width="0" /><circle cx="858" cy="682" fill="#2b92db" r="3.5" stroke-width="0" /><circle cx="872" cy="682" fill="#2b92db" r="3.5" stroke-width="0" /><circle cx="720" cy="677" fill="#2b92db" r="3.5" stroke-width="0" /><circle cx="818" cy="655" fill="#2b92db" r="3.5" stroke-width="0" /><circle cx="859" cy="641" fill="#2b92db" r="3.5" stroke-width="0" /><circle cx="960" cy="594" fill="#2b92db" r="3.5" stroke-width="0" /><circle cx="867" cy="579" fill="#2b92db" r="3.5" stroke-width="0" /><circle cx="735" cy="571" fill="#2b92db" r="3.5" stroke-width="0" /><circle cx="860" cy="570" fill="#2b92db" r="3.5" stroke-width="0" /><circle cx="768" cy="526" fill="#2b92db" r="3.5" stroke-width="0" /><circle cx="897" cy="427" fill="#2b92db" r="3.5" stroke-width="0" /><circle cx="883" cy="420" fill="#2b92db" r="3.5" stroke-width="0" /></g><g class="e3"><circle cx="282" cy="968" fill="#911eb4" r="3.5" stroke-width="0" /><circle cx="311" cy="951" fill="#911eb4" r="3.5" stroke-width="0" /><circle cx="315" cy="911" fill="#911eb4" r="3.5" stroke-width="0" /><circle cx="376" cy="773" fill="#911eb4" r="3.5" stroke-width="0" /><circle cx="327" cy="739" fill="#911eb4" r="3.5" stroke-width="0" /><circle cx="274" cy="731" fill="#911eb4" r="3.5" stroke-width="0" /><circle cx="318" cy="730" fill="#911eb4" r="3.5" stroke-width="0" /><circle cx="407" cy="685" fill="#911eb4" r="3.5" stroke-width="0" /><circle cx="770" cy="471" fill="#911eb4" r="3.5" stroke-width="0" /><circle cx="791" cy="440" fill="#911eb4" r="3.5" stroke-width="0" /><circle cx="871" cy="405" fill="#911eb4" r="3.5" stroke-width="0" /><circle cx="805" cy="393" fill="#911eb4" r="3.5" stroke-width="0" /><circle cx="848" cy="370" fill="#911eb4" r="3.5" stroke-width="0" /><circle cx="782" cy="352" fill="#911eb4" r="3.5" stroke-width="0" /><circle cx="886" cy="291" fill="#911eb4" r="3.5" stroke-width="0" /><circle cx="760" cy="271" fill="#911eb4" r="3.5" stroke-width="0" /><circle cx="858" cy="259" fill="#911eb4" r="3.5" stroke-width="0" /><circle cx="801" cy="245" fill="#911eb4" r="3.5" stroke-width="0" /><circle cx="816" cy="206" fill="#911eb4" r="3.5" stroke-width="0" /></g><g class="e4"><circle cx="249" cy="686" fill="#3cb44B" r="3.5" stroke-width="0" /><circle cx="295" cy="673" fill="#3cb44B" r="3.5" stroke-width="0" /><circle cx="337" cy="652" fill="#3cb44B" r="3.5" stroke-width="0" /><circle cx="294" cy="633" fill="#3cb44B" r="3.5" stroke-width="0" /><circle cx="366" cy="620" fill="#3cb44B" r="3.5" stroke-width="0" /><circle cx="377" cy="618" fill="#3cb44B" r="3.5" stroke-width="0" /><circle cx="327" cy="524" fill="#3cb44B" r="3.5" stroke-width="0" /><circle cx="260" cy="502" fill="#3cb44B" r="3.5" stroke-width="0" /><circle cx="377" cy="495" fill="#3cb44B" r="3.5" stroke-width="0" /><circle cx="387" cy="494" fill="#3cb44B" r="3.5" stroke-width="0" /><circle cx="349" cy="422" fill="#3cb44B" r="3.5" stroke-width="0" /><circle cx="326" cy="405" fill="#3cb44B" r="3.5" stroke-width="0" /><circle cx="411" cy="378" fill="#3cb44B" r="3.5" stroke-width="0" /><circle cx="780" cy="84" fill="#3cb44B" r="3.5" stroke-width="0" /></g><g class="e5"><circle cx="250" cy="443" fill="#ff0000" r="3.5" stroke-width="0" /><circle cx="214" cy="413" fill="#ff0000" r="3.5" stroke-width="0" /><circle cx="369" cy="321" fill="#ff0000" r="3.5" stroke-width="0" /><circle cx="233" cy="240" fill="#ff0000" r="3.5" stroke-width="0" /><circle cx="290" cy="199" fill="#ff0000" r="3.5" stroke-width="0" /><circle cx="369" cy="103" fill="#ff0000" r="3.5" stroke-width="0" /></g><g class="e6"><circle cx="289" cy="107" fill="#2b92db" r="3.5" stroke-width="0" /></g></g></g></svg>