<?xml version="1.0" encoding="utf-8" ?>
<svg baseProfile="full" height="1140px" style="font-size:15;font-family:Arial, san-serif;font-weight:bold;stroke:black;stroke-width:0;fill:#444444" version="1.1" width="1140px" xmlns="http://www.w3.org/2000/svg" xmlns:ev="http://www.w3.org/2001/xml-events" xmlns:xlink="http://www.w3.org/1999/xlink"><defs><clipPath id="areadografico"><rect height="1000" width="1000" x="70" y="70" /></clipPath></defs><g class="master"><g class="poligonos"><polygon clip-path="url(#areadografico)" fill="#000000" fill-opacity="0.1" points="1069,1070 1069,672 672,1070" /><polygon clip-path="url(#areadografico)" fill="#ffffff" fill-opacity="0.1" points="672,1070 273,1070 1069,273 1069,672" /><polygon clip-path="url(#areadografico)" fill="#000000" fill-opacity="0.1" points="273,1070 -126,1070 1069,-126 1069,273" /><polygon clip-path="url(#areadografico)" fill="#ffffff" fill-opacity="0.1" points="-126,1070 -524,1070 1069,-524 1069,-126" /><polygon clip-path="url(#areadografico)" fill="#000000" fill-opacity="0.1" points="70,70 70,475 475,70" /></g><g class="linhas"><line fill-opacity="0.3" stroke="#999999" stroke-width="1" x1="1070" x2="1070" y1="1070" y2="70" /><line fill-opacity="0.3" stroke="#999999" stroke-width="1" x1="70" x2="1070" y1="70" y2="70" /><line fill-opacity="0.3" stroke="#999999" stroke-width="1" x1="970" x2="970" y1="1070" y2="70" /><line fill-opacity="0.3" stroke="#999999" stroke-width="1" x1="70" x2="1070" y1="170" y2="170" /><line fill-opacity="0.3" stroke="#999999" stroke-width="1" x1="870" x2="870" y1="1070" y2="70" /><line fill-opacity="0.3" stroke="#999999" stroke-width="1" x1="70" x2="1070" y1="270" y2="270" /><line fill-opacity="0.3" stroke="#999999" stroke-width="1" x1="770" x2="770" y1="1070" y2="70" /><line fill-opacity="0.3" stroke="#999999" stroke-width="1" x1="70" x2="1070" y1="370" y2="370" /><line fill-opacity="0.3" stroke="#999999" stroke-width="1" x1="670" x2="670" y1="1070" y2="70" /><line fill-opacity="0.3" stroke="#999999" stroke-width="1" x1="70" x2="1070" y1="470" y2="470" /><line fill-opacity="0.3" stroke="#999999" stroke-width="1" x1="570" x2="570" y1="1070" y2="70" /><line fill-opacity="0.3" stroke="#999999" stroke-width="1" x1="70" x2="1070" y1="570" y2="570" /><line fill-opacity="0.3" stroke="#999999" stroke-width="1" x1="470" x2="470" y1="1070" y2="70" /><line fill-opacity="0.3" stroke="#999999" stroke-width="1" x1="70" x2="1070" y1="670" y2="670" /><line fill-opacity="0.3" stroke="#999999" stroke-width="1" x1="370" x2="370" y1="1070" y2="70" /><line fill-opacity="0.3" stroke="#999999" stroke-width="1" x1="70" x2="1070" y1="770" y2="770" /><line fill-opacity="0.3" stroke="#999999" stroke-width="1" x1="270" x2="270" y1="1070" y2="70" /><line fill-opacity="0.3" stroke="#999999" stroke-width="1" x1="70" x2="1070" y1="870" y2="870" /><line fill-opacity="0.3" stroke="#999999" stroke-width="1" x1="170" x2="170" y1="1070" y2="70" /><line fill-opacity="0.3" stroke="#999999" stroke-width="1" x1="70" x2="1070" y1="970" y2="970" /><line fill-opacity="0.3" stroke="#000000" stroke-width="1" x1="70" x2="70" y1="1071" y2="69" /><line fill-opacity="0.3" stroke="#000000" stroke-width="1" x1="69" x2="1071" y1="1070" y2="1070" /></g><g class="textos"><text x="1050" y="1110">1000</text><text x="10" y="71">1000</text><text x="950" y="1110">900</text><text x="10" y="171">900</text><text x="850" y="1110">800</text><text x="10" y="271">800</text><text x="750" y="1110">700</text><text x="10" y="371">700</text><text x="650" y="1110">600</text><text x="10" y="471">600</text><text x="550" y="1110">500</text><text x="10" y="571">500</text><text x="450" y="1110">400</text><text x="10" y="671">400</text><text x="350" y="1110">300</text><text x="10" y="771">300</text><text x="250" y="1110">200</text><text x="10" y="871">200</text><text x="150" y="1110">100</text><text x="10" y="971">100</text><text x="50" y="1111">0</text><text x="9" y="1071">0</text></g><g class="especies"><g class="e0"><circle cx="853" cy="1068" fill="#3cb44B" r="3.5" stroke-width="0" /><circle cx="825" cy="1057" fill="#3cb44B" r="3.5" stroke-width="0" /><circle cx="865" cy="1039" fill="#3cb44B" r="3.5" stroke-width="0" /><circle cx="984" cy="1035" fill="#3cb44B" r="3.5" stroke-width="0" /><circle cx="895" cy="1030" fill="#3cb44B" r="3.5" stroke-width="0" /><circle cx="766" cy="1013" fill="#3cb44B" r="3.5" stroke-width="0" /><circle cx="1024" cy="1009" fill="#3cb44B" r="3.5" stroke-width="0" /><circle cx="879" cy="1004" fill="#3cb44B" r="3.5" stroke-width="0" /><circle cx="898" cy="1002" fill="#3cb44B" r="3.5" stroke-width="0" /><circle cx="974" cy="985" fill="#3cb44B" r="3.5" stroke-width="0" /><circle cx="826" cy="965" fill="#3cb44B" r="3.5" stroke-width="0" /><circle cx="913" cy="965" fill="#3cb44B" r="3.5" stroke-width="0" /><circle cx="899" cy="959" fill="#3cb44B" r="3.5" stroke-width="0" /><circle cx="821" cy="940" fill="#3cb44B" r="3.5" stroke-width="0" /><circle cx="900" cy="935" fill="#3cb44B" r="3.5" stroke-width="0" /><circle cx="851" cy="920" fill="#3cb44B" r="3.5" stroke-width="0" /><circle cx="852" cy="915" fill="#3cb44B" r="3.5" stroke-width="0" /><circle cx="904" cy="893" fill="#3cb44B" r="3.5" stroke-width="0" /><circle cx="892" cy="886" fill="#3cb44B" r="3.5" stroke-width="0" /><circle cx="936" cy="882" fill="#3cb44B" r="3.5" stroke-width="0" /><circle cx="954" cy="876" fill="#3cb44B" r="3.5" stroke-width="0" /><circle cx="1049" cy="839" fill="#3cb44B" r="3.5" stroke-width="0" /><circle cx="945" cy="835" fill="#3cb44B" r="3.5" stroke-width="0" /><circle cx="1018" cy="781" fill="#3cb44B" r="3.5" stroke-width="0" /><circle cx="991" cy="751" fill="#3cb44B" r="3.5" stroke-width="0" /></g><g class="e1"><circle cx="443" cy="1068" fill="#ff0000" r="3.5" stroke-width="0" /><circle cx="415" cy="1065" fill="#ff0000" r="3.5" stroke-width="0" /><circle cx="625" cy="1063" fill="#ff0000" r="3.5" stroke-width="0" /><circle cx="383" cy="1062" fill="#ff0000" r="3.5" stroke-width="0" /><circle cx="554" cy="1062" fill="#ff0000" r="3.5" stroke-width="0" /><circle cx="314" cy="1054" fill="#ff0000" r="3.5" stroke-width="0" /><circle cx="465" cy="1052" fill="#ff0000" r="3.5" stroke-width="0" /><circle cx="605" cy="1019" fill="#ff0000" r="3.5" stroke-width="0" /><circle cx="594" cy="1017" fill="#ff0000" r="3.5" stroke-width="0" /><circle cx="666" cy="1014" fill="#ff0000" r="3.5" stroke-width="0" /><circle cx="359" cy="1011" fill="#ff0000" r="3.5" stroke-width="0" /><circle cx="709" cy="1006" fill="#ff0000" r="3.5" stroke-width="0" /><circle cx="508" cy="1005" fill="#ff0000" r="3.5" stroke-width="0" /><circle cx="619" cy="1004" fill="#ff0000" r="3.5" stroke-width="0" /><circle cx="356" cy="1000" fill="#ff0000" r="3.5" stroke-width="0" /><circle cx="728" cy="998" fill="#ff0000" r="3.5" stroke-width="0" /><circle cx="426" cy="996" fill="#ff0000" r="3.5" stroke-width="0" /><circle cx="738" cy="992" fill="#ff0000" r="3.5" stroke-width="0" /><circle cx="435" cy="988" fill="#ff0000" r="3.5" stroke-width="0" /><circle cx="419" cy="978" fill="#ff0000" r="3.5" stroke-width="0" /><circle cx="601" cy="978" fill="#ff0000" r="3.5" stroke-width="0" /><circle cx="745" cy="967" fill="#ff0000" r="3.5" stroke-width="0" /><circle cx="762" cy="967" fill="#ff0000" r="3.5" stroke-width="0" /><circle cx="578" cy="964" fill="#ff0000" r="3.5" stroke-width="0" /><circle cx="767" cy="963" fill="#ff0000" r="3.5" stroke-width="0" /><circle cx="576" cy="962" fill="#ff0000" r="3.5" stroke-width="0" /><circle cx="744" cy="958" fill="#ff0000" r="3.5" stroke-width="0" /><circle cx="472" cy="949" fill="#ff0000" r="3.5" stroke-width="0" /><circle cx="563" cy="939" fill="#ff0000" r="3.5" stroke-width="0" /><circle cx="585" cy="937" fill="#ff0000" r="3.5" stroke-width="0" /><circle cx="749" cy="912" fill="#ff0000" r="3.5" stroke-width="0" /><circle cx="690" cy="911" fill="#ff0000" r="3.5" stroke-width="0" /><circle cx="778" cy="897" fill="#ff0000" r="3.5" stroke-width="0" /><circle cx="788" cy="891" fill="#ff0000" r="3.5" stroke-width="0" /><circle cx="478" cy="887" fill="#ff0000" r="3.5" stroke-width="0" /><circle cx="834" cy="879" fill="#ff0000" r="3.5" stroke-width="0" /><circle cx="622" cy="865" fill="#ff0000" r="3.5" stroke-width="0" /><circle cx="516" cy="863" fill="#ff0000" r="3.5" stroke-width="0" /><circle cx="642" cy="857" fill="#ff0000" r="3.5" stroke-width="0" /><circle cx="606" cy="853" fill="#ff0000" r="3.5" stroke-width="0" /><circle cx="868" cy="848" fill="#ff0000" r="3.5" stroke-width="0" /><circle cx="879" cy="848" fill="#ff0000" r="3.5" stroke-width="0" /><circle cx="773" cy="844" fill="#ff0000" r="3.5" stroke-width="0" /><circle cx="668" cy="833" fill="#ff0000" r="3.5" stroke-width="0" /><circle cx="770" cy="833" fill="#ff0000" r="3.5" stroke-width="0" /><circle cx="687" cy="830" fill="#ff0000" r="3.5" stroke-width="0" /><circle cx="912" cy="827" fill="#ff0000" r="3.5" stroke-width="0" /><circle cx="742" cy="826" fill="#ff0000" r="3.5" stroke-width="0" /><circle cx="760" cy="826" fill="#ff0000" r="3.5" stroke-width="0" /><circle cx="903" cy="819" fill="#ff0000" r="3.5" stroke-width="0" /><circle cx="729" cy="814" fill="#ff0000" r="3.5" stroke-width="0" /><circle cx="753" cy="812" fill="#ff0000" r="3.5" stroke-width="0" /><circle cx="848" cy="809" fill="#ff0000" r="3.5" stroke-width="0" /><circle cx="551" cy="802" fill="#ff0000" r="3.5" stroke-width="0" /><circle cx="573" cy="801" fill="#ff0000" r="3.5" stroke-width="0" /><circle cx="849" cy="801" fill="#ff0000" r="3.5" stroke-width="0" /><circle cx="718" cy="784" fill="#ff0000" r="3.5" stroke-width="0" /><circle cx="846" cy="776" fill="#ff0000" r="3.5" stroke-width="0" /><circle cx="835" cy="768" fill="#ff0000" r="3.5" stroke-width="0" /><circle cx="944" cy="761" fill="#ff0000" r="3.5" stroke-width="0" /><circle cx="931" cy="760" fill="#ff0000" r="3.5" stroke-width="0" /><circle cx="679" cy="759" fill="#ff0000" r="3.5" stroke-width="0" /><circle cx="968" cy="759" fill="#ff0000" r="3.5" stroke-width="0" /><circle cx="895" cy="756" fill="#ff0000" r="3.5" stroke-width="0" /><circle cx="650" cy="752" fill="#ff0000" r="3.5" stroke-width="0" /><circle cx="637" cy="750" fill="#ff0000" r="3.5" stroke-width="0" /><circle cx="733" cy="749" fill="#ff0000" r="3.5" stroke-width="0" /><circle cx="671" cy="747" fill="#ff0000" r="3.5" stroke-width="0" /><circle cx="675" cy="739" fill="#ff0000" r="3.5" stroke-width="0" /><circle cx="807" cy="729" fill="#ff0000" r="3.5" stroke-width="0" /><circle cx="867" cy="729" fill="#ff0000" r="3.5" stroke-width="0" /><circle cx="868" cy="729" fill="#ff0000" r="3.5" stroke-width="0" /><circle cx="706" cy="727" fill="#ff0000" r="3.5" stroke-width="0" /><circle cx="834" cy="723" fill="#ff0000" r="3.5" stroke-width="0" /><circle cx="744" cy="715" fill="#ff0000" r="3.5" stroke-width="0" /><circle cx="934" cy="713" fill="#ff0000" r="3.5" stroke-width="0" /><circle cx="666" cy="701" fill="#ff0000" r="3.5" stroke-width="0" /><circle cx="666" cy="693" fill="#ff0000" r="3.5" stroke-width="0" /><circle cx="674" cy="691" fill="#ff0000" r="3.5" stroke-width="0" /><circle cx="824" cy="688" fill="#ff0000" r="3.5" stroke-width="0" /><circle cx="921" cy="684" fill="#ff0000" r="3.5" stroke-width="0" /><circle cx="987" cy="681" fill="#ff0000" r="3.5" stroke-width="0" /><circle cx="887" cy="672" fill="#ff0000" r="3.5" stroke-width="0" /><circle cx="750" cy="671" fill="#ff0000" r="3.5" stroke-width="0" /><circle cx="732" cy="667" fill="#ff0000" r="3.5" stroke-width="0" /><circle cx="833" cy="661" fill="#ff0000" r="3.5" stroke-width="0" /><circle cx="936" cy="657" fill="#ff0000" r="3.5" stroke-width="0" /><circle cx="770" cy="646" fill="#ff0000" r="3.5" stroke-width="0" /><circle cx="914" cy="645" fill="#ff0000" r="3.5" stroke-width="0" /><circle cx="824" cy="633" fill="#ff0000" r="3.5" stroke-width="0" /><circle cx="937" cy="629" fill="#ff0000" r="3.5" stroke-width="0" /><circle cx="986" cy="628" fill="#ff0000" r="3.5" stroke-width="0" /><circle cx="812" cy="624" fill="#ff0000" r="3.5" stroke-width="0" /><circle cx="874" cy="624" fill="#ff0000" r="3.5" stroke-width="0" /><circle cx="967" cy="620" fill="#ff0000" r="3.5" stroke-width="0" /><circle cx="757" cy="619" fill="#ff0000" r="3.5" stroke-width="0" /><circle cx="802" cy="619" fill="#ff0000" r="3.5" stroke-width="0" /><circle cx="1062" cy="616" fill="#ff0000" r="3.5" stroke-width="0" /><circle cx="880" cy="612" fill="#ff0000" r="3.5" stroke-width="0" /><circle cx="790" cy="596" fill="#ff0000" r="3.5" stroke-width="0" /><circle cx="889" cy="596" fill="#ff0000" r="3.5" stroke-width="0" /><circle cx="808" cy="585" fill="#ff0000" r="3.5" stroke-width="0" /><circle cx="814" cy="562" fill="#ff0000" r="3.5" stroke-width="0" /><circle cx="882" cy="562" fill="#ff0000" r="3.5" stroke-width="0" /><circle cx="947" cy="552" fill="#ff0000" r="3.5" stroke-width="0" /><circle cx="1026" cy="541" fill="#ff0000" r="3.5" stroke-width="0" /><circle cx="887" cy="538" fill="#ff0000" r="3.5" stroke-width="0" /><circle cx="890" cy="532" fill="#ff0000" r="3.5" stroke-width="0" /><circle cx="893" cy="505" fill="#ff0000" r="3.5" stroke-width="0" /><circle cx="882" cy="502" fill="#ff0000" r="3.5" stroke-width="0" /><circle cx="885" cy="500" fill="#ff0000" r="3.5" stroke-width="0" /><circle cx="1048" cy="498" fill="#ff0000" r="3.5" stroke-width="0" /><circle cx="1036" cy="497" fill="#ff0000" r="3.5" stroke-width="0" /><circle cx="948" cy="489" fill="#ff0000" r="3.5" stroke-width="0" /><circle cx="912" cy="461" fill="#ff0000" r="3.5" stroke-width="0" /><circle cx="910" cy="445" fill="#ff0000" r="3.5" stroke-width="0" /><circle cx="950" cy="441" fill="#ff0000" r="3.5" stroke-width="0" /><circle cx="1050" cy="441" fill="#ff0000" r="3.5" stroke-width="0" /><circle cx="917" cy="438" fill="#ff0000" r="3.5" stroke-width="0" /><circle cx="943" cy="427" fill="#ff0000" r="3.5" stroke-width="0" /><circle cx="921" cy="425" fill="#ff0000" r="3.5" stroke-width="0" /><circle cx="992" cy="408" fill="#ff0000" r="3.5" stroke-width="0" /></g><g class="e2"><circle cx="153" cy="1032" fill="#2b92db" r="3.5" stroke-width="0" /><circle cx="103" cy="1030" fill="#2b92db" r="3.5" stroke-width="0" /><circle cx="199" cy="1021" fill="#2b92db" r="3.5" stroke-width="0" /><circle cx="248" cy="1021" fill="#2b92db" r="3.5" stroke-width="0" /><circle cx="154" cy="990" fill="#2b92db" r="3.5" stroke-width="0" /><circle cx="325" cy="989" fill="#2b92db" r="3.5" stroke-width="0" /><circle cx="141" cy="986" fill="#2b92db" r="3.5" stroke-width="0" /><circle cx="250" cy="983" fill="#2b92db" r="3.5" stroke-width="0" /><circle cx="324" cy="980" fill="#2b92db" r="3.5" stroke-width="0" /><circle cx="219" cy="971" fill="#2b92db" r="3.5" stroke-width="0" /><circle cx="131" cy="969" fill="#2b92db" r="3.5" stroke-width="0" /><circle cx="295" cy="969" fill="#2b92db" r="3.5" stroke-width="0" /><circle cx="87" cy="951" fill="#2b92db" r="3.5" stroke-width="0" /><circle cx="265" cy="924" fill="#2b92db" r="3.5" stroke-width="0" /><circle cx="329" cy="923" fill="#2b92db" r="3.5" stroke-width="0" /><circle cx="144" cy="915" fill="#2b92db" r="3.5" stroke-width="0" /><circle cx="308" cy="909" fill="#2b92db" r="3.5" stroke-width="0" /><circle cx="280" cy="908" fill="#2b92db" r="3.5" stroke-width="0" /><circle cx="267" cy="904" fill="#2b92db" r="3.5" stroke-width="0" /><circle cx="262" cy="902" fill="#2b92db" r="3.5" stroke-width="0" /><circle cx="215" cy="872" fill="#2b92db" r="3.5" stroke-width="0" /><circle cx="241" cy="856" fill="#2b92db" r="3.5" stroke-width="0" /><circle cx="272" cy="849" fill="#2b92db" r="3.5" stroke-width="0" /><circle cx="438" cy="841" fill="#2b92db" r="3.5" stroke-width="0" /><circle cx="197" cy="840" fill="#2b92db" r="3.5" stroke-width="0" /><circle cx="455" cy="835" fill="#2b92db" r="3.5" stroke-width="0" /><circle cx="198" cy="822" fill="#2b92db" r="3.5" stroke-width="0" /><circle cx="505" cy="819" fill="#2b92db" r="3.5" stroke-width="0" /><circle cx="146" cy="818" fill="#2b92db" r="3.5" stroke-width="0" /><circle cx="314" cy="818" fill="#2b92db" r="3.5" stroke-width="0" /><circle cx="327" cy="795" fill="#2b92db" r="3.5" stroke-width="0" /><circle cx="294" cy="787" fill="#2b92db" r="3.5" stroke-width="0" /><circle cx="512" cy="785" fill="#2b92db" r="3.5" stroke-width="0" /><circle cx="251" cy="784" fill="#2b92db" r="3.5" stroke-width="0" /><circle cx="514" cy="780" fill="#2b92db" r="3.5" stroke-width="0" /><circle cx="286" cy="778" fill="#2b92db" r="3.5" stroke-width="0" /><circle cx="357" cy="772" fill="#2b92db" r="3.5" stroke-width="0" /><circle cx="500" cy="765" fill="#2b92db" r="3.5" stroke-width="0" /><circle cx="387" cy="763" fill="#2b92db" r="3.5" stroke-width="0" /><circle cx="400" cy="763" fill="#2b92db" r="3.5" stroke-width="0" /><circle cx="235" cy="750" fill="#2b92db" r="3.5" stroke-width="0" /><circle cx="443" cy="745" fill="#2b92db" r="3.5" stroke-width="0" /><circle cx="355" cy="741" fill="#2b92db" r="3.5" stroke-width="0" /><circle cx="534" cy="732" fill="#2b92db" r="3.5" stroke-width="0" /><circle cx="245" cy="730" fill="#2b92db" r="3.5" stroke-width="0" /><circle cx="268" cy="721" fill="#2b92db" r="3.5" stroke-width="0" /><circle cx="456" cy="720" fill="#2b92db" r="3.5" stroke-width="0" /><circle cx="573" cy="716" fill="#2b92db" r="3.5" stroke-width="0" /><circle cx="598" cy="709" fill="#2b92db" r="3.5" stroke-width="0" /><circle cx="297" cy="708" fill="#2b92db" r="3.5" stroke-width="0" /><circle cx="605" cy="706" fill="#2b92db" r="3.5" stroke-width="0" /><circle cx="498" cy="702" fill="#2b92db" r="3.5" stroke-width="0" /><circle cx="488" cy="701" fill="#2b92db" r="3.5" stroke-width="0" /><circle cx="614" cy="696" fill="#2b92db" r="3.5" stroke-width="0" /><circle cx="278" cy="693" fill="#2b92db" r="3.5" stroke-width="0" /><circle cx="522" cy="690" fill="#2b92db" r="3.5" stroke-width="0" /><circle cx="512" cy="686" fill="#2b92db" r="3.5" stroke-width="0" /><circle cx="430" cy="683" fill="#2b92db" r="3.5" stroke-width="0" /><circle cx="591" cy="668" fill="#2b92db" r="3.5" stroke-width="0" /><circle cx="504" cy="635" fill="#2b92db" r="3.5" stroke-width="0" /><circle cx="560" cy="630" fill="#2b92db" r="3.5" stroke-width="0" /><circle cx="344" cy="629" fill="#2b92db" r="3.5" stroke-width="0" /><circle cx="515" cy="623" fill="#2b92db" r="3.5" stroke-width="0" /><circle cx="657" cy="620" fill="#2b92db" r="3.5" stroke-width="0" /><circle cx="336" cy="610" fill="#2b92db" r="3.5" stroke-width="0" /><circle cx="416" cy="601" fill="#2b92db" r="3.5" stroke-width="0" /><circle cx="457" cy="584" fill="#2b92db" r="3.5" stroke-width="0" /><circle cx="632" cy="583" fill="#2b92db" r="3.5" stroke-width="0" /><circle cx="527" cy="578" fill="#2b92db" r="3.5" stroke-width="0" /><circle cx="625" cy="578" fill="#2b92db" r="3.5" stroke-width="0" /><circle cx="465" cy="576" fill="#2b92db" r="3.5" stroke-width="0" /><circle cx="446" cy="567" fill="#2b92db" r="3.5" stroke-width="0" /><circle cx="509" cy="565" fill="#2b92db" r="3.5" stroke-width="0" /><circle cx="528" cy="564" fill="#2b92db" r="3.5" stroke-width="0" /><circle cx="672" cy="564" fill="#2b92db" r="3.5" stroke-width="0" /><circle cx="636" cy="561" fill="#2b92db" r="3.5" stroke-width="0" /><circle cx="697" cy="559" fill="#2b92db" r="3.5" stroke-width="0" /><circle cx="581" cy="547" fill="#2b92db" r="3.5" stroke-width="0" /><circle cx="492" cy="540" fill="#2b92db" r="3.5" stroke-width="0" /><circle cx="545" cy="536" fill="#2b92db" r="3.5" stroke-width="0" /><circle cx="623" cy="520" fill="#2b92db" r="3.5" stroke-width="0" /><circle cx="542" cy="519" fill="#2b92db" r="3.5" stroke-width="0" /><circle cx="790" cy="510" fill="#2b92db" r="3.5" stroke-width="0" /><circle cx="807" cy="509" fill="#2b92db" r="3.5" stroke-width="0" /><circle cx="740" cy="507" fill="#2b92db" r="3.5" stroke-width="0" /><circle cx="644" cy="503" fill="#2b92db" r="3.5" stroke-width="0" /><circle cx="522" cy="502" fill="#2b92db" r="3.5" stroke-width="0" /><circle cx="833" cy="500" fill="#2b92db" r="3.5" stroke-width="0" /><circle cx="617" cy="485" fill="#2b92db" r="3.5" stroke-width="0" /><circle cx="499" cy="482" fill="#2b92db" r="3.5" stroke-width="0" /><circle cx="599" cy="479" fill="#2b92db" r="3.5" stroke-width="0" /><circle cx="714" cy="477" fill="#2b92db" r="3.5" stroke-width="0" /><circle cx="640" cy="474" fill="#2b92db" r="3.5" stroke-width="0" /><circle cx="484" cy="466" fill="#2b92db" r="3.5" stroke-width="0" /><circle cx="780" cy="463" fill="#2b92db" r="3.5" stroke-width="0" /><circle cx="763" cy="458" fill="#2b92db" r="3.5" stroke-width="0" /><circle cx="888" cy="454" fill="#2b92db" r="3.5" stroke-width="0" /><circle cx="815" cy="444" fill="#2b92db" r="3.5" stroke-width="0" /><circle cx="550" cy="440" fill="#2b92db" r="3.5" stroke-width="0" /><circle cx="695" cy="430" fill="#2b92db" r="3.5" stroke-width="0" /><circle cx="679" cy="426" fill="#2b92db" r="3.5" stroke-width="0" /><circle cx="637" cy="423" fill="#2b92db" r="3.5" stroke-width="0" /><circle cx="863" cy="420" fill="#2b92db" r="3.5" stroke-width="0" /><circle cx="884" cy="414" fill="#2b92db" r="3.5" stroke-width="0" /><circle cx="880" cy="398" fill="#2b92db" r="3.5" stroke-width="0" /><circle cx="553" cy="396" fill="#2b92db" r="3.5" stroke-width="0" /><circle cx="943" cy="395" fill="#2b92db" r="3.5" stroke-width="0" /><circle cx="764" cy="394" fill="#2b92db" r="3.5" stroke-width="0" /><circle cx="809" cy="385" fill="#2b92db" r="3.5" stroke-width="0" /><circle cx="814" cy="385" fill="#2b92db" r="3.5" stroke-width="0" /><circle cx="816" cy="384" fill="#2b92db" r="3.5" stroke-width="0" /><circle cx="807" cy="382" fill="#2b92db" r="3.5" stroke-width="0" /><circle cx="872" cy="382" fill="#2b92db" r="3.5" stroke-width="0" /><circle cx="775" cy="376" fill="#2b92db" r="3.5" stroke-width="0" /><circle cx="752" cy="375" fill="#2b92db" r="3.5" stroke-width="0" /><circle cx="621" cy="374" fill="#2b92db" r="3.5" stroke-width="0" /><circle cx="756" cy="374" fill="#2b92db" r="3.5" stroke-width="0" /><circle cx="660" cy="373" fill="#2b92db" r="3.5" stroke-width="0" /><circle cx="914" cy="370" fill="#2b92db" r="3.5" stroke-width="0" /><circle cx="765" cy="365" fill="#2b92db" r="3.5" stroke-width="0" /><circle cx="815" cy="350" fill="#2b92db" r="3.5" stroke-width="0" /><circle cx="918" cy="341" fill="#2b92db" r="3.5" stroke-width="0" /><circle cx="1010" cy="330" fill="#2b92db" r="3.5" stroke-width="0" /><circle cx="829" cy="324" fill="#2b92db" r="3.5" stroke-width="0" /><circle cx="779" cy="315" fill="#2b92db" r="3.5" stroke-width="0" /><circle cx="717" cy="313" fill="#2b92db" r="3.5" stroke-width="0" /><circle cx="927" cy="313" fill="#2b92db" r="3.5" stroke-width="0" /><circle cx="817" cy="294" fill="#2b92db" r="3.5" stroke-width="0" /><circle cx="782" cy="277" fill="#2b92db" r="3.5" stroke-width="0" /><circle cx="902" cy="277" fill="#2b92db" r="3.5" stroke-width="0" /><circle cx="741" cy="268" fill="#2b92db" r="3.5" stroke-width="0" /><circle cx="877" cy="265" fill="#2b92db" r="3.5" stroke-width="0" /><circle cx="768" cy="250" fill="#2b92db" r="3.5" stroke-width="0" /><circle cx="726" cy="243" fill="#2b92db" r="3.5" stroke-width="0" /><circle cx="928" cy="241" fill="#2b92db" r="3.5" stroke-width="0" /><circle cx="881" cy="240" fill="#2b92db" r="3.5" stroke-width="0" /><circle cx="857" cy="235" fill="#2b92db" r="3.5" stroke-width="0" /><circle cx="994" cy="211" fill="#2b92db" r="3.5" stroke-width="0" /><circle cx="843" cy="201" fill="#2b92db" r="3.5" stroke-width="0" /><circle cx="892" cy="200" fill="#2b92db" r="3.5" stroke-width="0" /><circle cx="955" cy="178" fill="#2b92db" r="3.5" stroke-width="0" /><circle cx="861" cy="164" fill="#2b92db" r="3.5" stroke-width="0" /><circle cx="791" cy="158" fill="#2b92db" r="3.5" stroke-width="0" /><circle cx="1016" cy="149" fill="#2b92db" r="3.5" stroke-width="0" /><circle cx="901" cy="142" fill="#2b92db" r="3.5" stroke-width="0" /><circle cx="932" cy="77" fill="#2b92db" r="3.5" stroke-width="0" /><circle cx="878" cy="72" fill="#2b92db" r="3.5" stroke-width="0" /></g><g class="e3"><circle cx="111" cy="753" fill="#911eb4" r="3.5" stroke-width="0" /><circle cx="149" cy="752" fill="#911eb4" r="3.5" stroke-width="0" /><circle cx="75" cy="731" fill="#911eb4" r="3.5" stroke-width="0" /><circle cx="162" cy="725" fill="#911eb4" r="3.5" stroke-width="0" /><circle cx="99" cy="717" fill="#911eb4" r="3.5" stroke-width="0" /><circle cx="223" cy="703" fill="#911eb4" r="3.5" stroke-width="0" /><circle cx="210" cy="702" fill="#911eb4" r="3.5" stroke-width="0" /><circle cx="234" cy="678" fill="#911eb4" r="3.5" stroke-width="0" /><circle cx="70" cy="673" fill="#911eb4" r="3.5" stroke-width="0" /><circle cx="287" cy="649" fill="#911eb4" r="3.5" stroke-width="0" /><circle cx="81" cy="629" fill="#911eb4" r="3.5" stroke-width="0" /><circle cx="162" cy="628" fill="#911eb4" r="3.5" stroke-width="0" /><circle cx="269" cy="628" fill="#911eb4" r="3.5" stroke-width="0" /><circle cx="75" cy="626" fill="#911eb4" r="3.5" stroke-width="0" /><circle cx="186" cy="622" fill="#911eb4" r="3.5" stroke-width="0" /><circle cx="287" cy="621" fill="#911eb4" r="3.5" stroke-width="0" /><circle cx="85" cy="606" fill="#911eb4" r="3.5" stroke-width="0" /><circle cx="98" cy="591" fill="#911eb4" r="3.5" stroke-width="0" /><circle cx="158" cy="587" fill="#911eb4" r="3.5" stroke-width="0" /><circle cx="357" cy="585" fill="#911eb4" r="3.5" stroke-width="0" /><circle cx="79" cy="583" fill="#911eb4" r="3.5" stroke-width="0" /><circle cx="287" cy="581" fill="#911eb4" r="3.5" stroke-width="0" /><circle cx="302" cy="575" fill="#911eb4" r="3.5" stroke-width="0" /><circle cx="253" cy="574" fill="#911eb4" r="3.5" stroke-width="0" /><circle cx="324" cy="572" fill="#911eb4" r="3.5" stroke-width="0" /><circle cx="174" cy="565" fill="#911eb4" r="3.5" stroke-width="0" /><circle cx="189" cy="561" fill="#911eb4" r="3.5" stroke-width="0" /><circle cx="395" cy="548" fill="#911eb4" r="3.5" stroke-width="0" /><circle cx="262" cy="546" fill="#911eb4" r="3.5" stroke-width="0" /><circle cx="375" cy="544" fill="#911eb4" r="3.5" stroke-width="0" /><circle cx="247" cy="535" fill="#911eb4" r="3.5" stroke-width="0" /><circle cx="90" cy="533" fill="#911eb4" r="3.5" stroke-width="0" /><circle cx="308" cy="531" fill="#911eb4" r="3.5" stroke-width="0" /><circle cx="191" cy="529" fill="#911eb4" r="3.5" stroke-width="0" /><circle cx="323" cy="518" fill="#911eb4" r="3.5" stroke-width="0" /><circle cx="395" cy="516" fill="#911eb4" r="3.5" stroke-width="0" /><circle cx="263" cy="514" fill="#911eb4" r="3.5" stroke-width="0" /><circle cx="199" cy="512" fill="#911eb4" r="3.5" stroke-width="0" /><circle cx="279" cy="511" fill="#911eb4" r="3.5" stroke-width="0" /><circle cx="189" cy="508" fill="#911eb4" r="3.5" stroke-width="0" /><circle cx="413" cy="505" fill="#911eb4" r="3.5" stroke-width="0" /><circle cx="246" cy="498" fill="#911eb4" r="3.5" stroke-width="0" /><circle cx="153" cy="494" fill="#911eb4" r="3.5" stroke-width="0" /><circle cx="286" cy="489" fill="#911eb4" r="3.5" stroke-width="0" /><circle cx="337" cy="483" fill="#911eb4" r="3.5" stroke-width="0" /><circle cx="144" cy="481" fill="#911eb4" r="3.5" stroke-width="0" /><circle cx="218" cy="479" fill="#911eb4" r="3.5" stroke-width="0" /><circle cx="126" cy="474" fill="#911eb4" r="3.5" stroke-width="0" /><circle cx="369" cy="473" fill="#911eb4" r="3.5" stroke-width="0" /><circle cx="236" cy="463" fill="#911eb4" r="3.5" stroke-width="0" /><circle cx="106" cy="462" fill="#911eb4" r="3.5" stroke-width="0" /><circle cx="374" cy="462" fill="#911eb4" r="3.5" stroke-width="0" /><circle cx="315" cy="444" fill="#911eb4" r="3.5" stroke-width="0" /><circle cx="236" cy="442" fill="#911eb4" r="3.5" stroke-width="0" /><circle cx="214" cy="432" fill="#911eb4" r="3.5" stroke-width="0" /><circle cx="224" cy="430" fill="#911eb4" r="3.5" stroke-width="0" /><circle cx="246" cy="421" fill="#911eb4" r="3.5" stroke-width="0" /><circle cx="482" cy="414" fill="#911eb4" r="3.5" stroke-width="0" /><circle cx="213" cy="401" fill="#911eb4" r="3.5" stroke-width="0" /><circle cx="179" cy="399" fill="#911eb4" r="3.5" stroke-width="0" /><circle cx="445" cy="396" fill="#911eb4" r="3.5" stroke-width="0" /><circle cx="443" cy="393" fill="#911eb4" r="3.5" stroke-width="0" /><circle cx="461" cy="384" fill="#911eb4" r="3.5" stroke-width="0" /><circle cx="166" cy="383" fill="#911eb4" r="3.5" stroke-width="0" /><circle cx="186" cy="378" fill="#911eb4" r="3.5" stroke-width="0" /><circle cx="253" cy="376" fill="#911eb4" r="3.5" stroke-width="0" /><circle cx="334" cy="376" fill="#911eb4" r="3.5" stroke-width="0" /><circle cx="502" cy="372" fill="#911eb4" r="3.5" stroke-width="0" /><circle cx="469" cy="370" fill="#911eb4" r="3.5" stroke-width="0" /><circle cx="472" cy="362" fill="#911eb4" r="3.5" stroke-width="0" /><circle cx="577" cy="361" fill="#911eb4" r="3.5" stroke-width="0" /><circle cx="431" cy="360" fill="#911eb4" r="3.5" stroke-width="0" /><circle cx="323" cy="357" fill="#911eb4" r="3.5" stroke-width="0" /><circle cx="471" cy="353" fill="#911eb4" r="3.5" stroke-width="0" /><circle cx="253" cy="352" fill="#911eb4" r="3.5" stroke-width="0" /><circle cx="297" cy="349" fill="#911eb4" r="3.5" stroke-width="0" /><circle cx="365" cy="348" fill="#911eb4" r="3.5" stroke-width="0" /><circle cx="499" cy="346" fill="#911eb4" r="3.5" stroke-width="0" /><circle cx="586" cy="342" fill="#911eb4" r="3.5" stroke-width="0" /><circle cx="218" cy="337" fill="#911eb4" r="3.5" stroke-width="0" /><circle cx="226" cy="335" fill="#911eb4" r="3.5" stroke-width="0" /><circle cx="554" cy="335" fill="#911eb4" r="3.5" stroke-width="0" /><circle cx="607" cy="335" fill="#911eb4" r="3.5" stroke-width="0" /><circle cx="500" cy="334" fill="#911eb4" r="3.5" stroke-width="0" /><circle cx="379" cy="332" fill="#911eb4" r="3.5" stroke-width="0" /><circle cx="590" cy="328" fill="#911eb4" r="3.5" stroke-width="0" /><circle cx="326" cy="327" fill="#911eb4" r="3.5" stroke-width="0" /><circle cx="598" cy="322" fill="#911eb4" r="3.5" stroke-width="0" /><circle cx="494" cy="320" fill="#911eb4" r="3.5" stroke-width="0" /><circle cx="569" cy="314" fill="#911eb4" r="3.5" stroke-width="0" /><circle cx="419" cy="304" fill="#911eb4" r="3.5" stroke-width="0" /><circle cx="595" cy="301" fill="#911eb4" r="3.5" stroke-width="0" /><circle cx="501" cy="293" fill="#911eb4" r="3.5" stroke-width="0" /><circle cx="622" cy="288" fill="#911eb4" r="3.5" stroke-width="0" /><circle cx="429" cy="286" fill="#911eb4" r="3.5" stroke-width="0" /><circle cx="519" cy="281" fill="#911eb4" r="3.5" stroke-width="0" /><circle cx="597" cy="277" fill="#911eb4" r="3.5" stroke-width="0" /><circle cx="481" cy="276" fill="#911eb4" r="3.5" stroke-width="0" /><circle cx="501" cy="273" fill="#911eb4" r="3.5" stroke-width="0" /><circle cx="567" cy="259" fill="#911eb4" r="3.5" stroke-width="0" /><circle cx="498" cy="251" fill="#911eb4" r="3.5" stroke-width="0" /><circle cx="679" cy="242" fill="#911eb4" r="3.5" stroke-width="0" /><circle cx="617" cy="237" fill="#911eb4" r="3.5" stroke-width="0" /><circle cx="610" cy="235" fill="#911eb4" r="3.5" stroke-width="0" /><circle cx="324" cy="233" fill="#911eb4" r="3.5" stroke-width="0" /><circle cx="535" cy="233" fill="#911eb4" r="3.5" stroke-width="0" /><circle cx="545" cy="225" fill="#911eb4" r="3.5" stroke-width="0" /><circle cx="568" cy="225" fill="#911eb4" r="3.5" stroke-width="0" /><circle cx="710" cy="225" fill="#911eb4" r="3.5" stroke-width="0" /><circle cx="359" cy="222" fill="#911eb4" r="3.5" stroke-width="0" /><circle cx="660" cy="213" fill="#911eb4" r="3.5" stroke-width="0" /><circle cx="563" cy="211" fill="#911eb4" r="3.5" stroke-width="0" /><circle cx="361" cy="205" fill="#911eb4" r="3.5" stroke-width="0" /><circle cx="690" cy="202" fill="#911eb4" r="3.5" stroke-width="0" /><circle cx="498" cy="198" fill="#911eb4" r="3.5" stroke-width="0" /><circle cx="574" cy="178" fill="#911eb4" r="3.5" stroke-width="0" /><circle cx="681" cy="175" fill="#911eb4" r="3.5" stroke-width="0" /><circle cx="448" cy="164" fill="#911eb4" r="3.5" stroke-width="0" /><circle cx="555" cy="158" fill="#911eb4" r="3.5" stroke-width="0" /><circle cx="700" cy="148" fill="#911eb4" r="3.5" stroke-width="0" /><circle cx="768" cy="137" fill="#911eb4" r="3.5" stroke-width="0" /><circle cx="574" cy="119" fill="#911eb4" r="3.5" stroke-width="0" /><circle cx="836" cy="100" fill="#911eb4" r="3.5" stroke-width="0" /><circle cx="516" cy="93" fill="#911eb4" r="3.5" stroke-width="0" /><circle cx="498" cy="89" fill="#911eb4" r="3.5" stroke-width="0" /><circle cx="704" cy="85" fill="#911eb4" r="3.5" stroke-width="0" /><circle cx="691" cy="78" fill="#911eb4" r="3.5" stroke-width="0" /><circle cx="511" cy="76" fill="#911eb4" r="3.5" stroke-width="0" /></g><g class="e4"><circle cx="132" cy="363" fill="#3cb44B" r="3.5" stroke-width="0" /><circle cx="168" cy="350" fill="#3cb44B" r="3.5" stroke-width="0" /><circle cx="78" cy="325" fill="#3cb44B" r="3.5" stroke-width="0" /><circle cx="77" cy="323" fill="#3cb44B" r="3.5" stroke-width="0" /><circle cx="116" cy="314" fill="#3cb44B" r="3.5" stroke-width="0" /><circle cx="193" cy="293" fill="#3cb44B" r="3.5" stroke-width="0" /><circle cx="227" cy="271" fill="#3cb44B" r="3.5" stroke-width="0" /><circle cx="141" cy="254" fill="#3cb44B" r="3.5" stroke-width="0" /><circle cx="193" cy="247" fill="#3cb44B" r="3.5" stroke-width="0" /><circle cx="255" cy="223" fill="#3cb44B" r="3.5" stroke-width="0" /><circle cx="320" cy="219" fill="#3cb44B" r="3.5" stroke-width="0" /><circle cx="300" cy="217" fill="#3cb44B" r="3.5" stroke-width="0" /><circle cx="202" cy="202" fill="#3cb44B" r="3.5" stroke-width="0" /><circle cx="247" cy="196" fill="#3cb44B" r="3.5" stroke-width="0" /><circle cx="151" cy="186" fill="#3cb44B" r="3.5" stroke-width="0" /><circle cx="360" cy="161" fill="#3cb44B" r="3.5" stroke-width="0" /><circle cx="385" cy="160" fill="#3cb44B" r="3.5" stroke-width="0" /><circle cx="262" cy="158" fill="#3cb44B" r="3.5" stroke-width="0" /><circle cx="143" cy="154" fill="#3cb44B" r="3.5" stroke-width="0" /><circle cx="208" cy="154" fill="#3cb44B" r="3.5" stroke-width="0" /><circle cx="389" cy="149" fill="#3cb44B" r="3.5" stroke-width="0" /><circle cx="254" cy="136" fill="#3cb44B" r="3.5" stroke-width="0" /><circle cx="314" cy="120" fill="#3cb44B" r="3.5" stroke-width="0" /><circle cx="442" cy="85" fill="#3cb44B" r="3.5" stroke-width="0" /><circle cx="111" cy="84" fill="#3cb44B" r="3.5" stroke-width="0" /><circle cx="239" cy="75" fill="#3cb44B" r="3.5" stroke-width="0" /></g></g></g></svg>