<?xml version="1.0" encoding="utf-8" ?>
<svg baseProfile="full" height="1140px" style="font-size:15;font-family:Arial, san-serif;font-weight:bold;stroke:black;stroke-width:0;fill:#444444" version="1.1" width="1140px" xmlns="http://www.w3.org/2000/svg" xmlns:ev="http://www.w3.org/2001/xml-events" xmlns:xlink="http://www.w3.org/1999/xlink"><defs><clipPath id="areadografico"><rect height="1000" width="1000" x="70" y="70" /></clipPath></defs><g class="master"><g class="poligonos"><polygon clip-path="url(#areadografico)" fill="#000000" fill-opacity="0.1" points="1069,1070 1069,785 785,1070" /><polygon clip-path="url(#areadografico)" fill="#ffffff" fill-opacity="0.1" points="785,1070 499,1070 1069,499 1069,785" /><polygon clip-path="url(#areadografico)" fill="#000000" fill-opacity="0.1" points="499,1070 214,1070 1069,214 1069,499" /><polygon clip-path="url(#areadografico)" fill="#ffffff" fill-opacity="0.1" points="214,1070 -72,1070 1069,-72 1069,214" /><polygon clip-path="url(#areadografico)" fill="#000000" fill-opacity="0.1" points="-72,1070 -358,1070 1069,-358 1069,-72" /><polygon clip-path="url(#areadografico)" fill="#ffffff" fill-opacity="0.1" points="-358,1070 -643,1070 1069,-643 1069,-358" /><polygon clip-path="url(#areadografico)" fill="#000000" fill-opacity="0.1" points="70,70 70,356 356,70" /></g><g class="linhas"><line fill-opacity="0.3" stroke="#999999" stroke-width="1" x1="1070" x2="1070" y1="1070" y2="70" /><line fill-opacity="0.3" stroke="#999999" stroke-width="1" x1="70" x2="1070" y1="70" y2="70" /><line fill-opacity="0.3" stroke="#999999" stroke-width="1" x1="970" x2="970" y1="1070" y2="70" /><line fill-opacity="0.3" stroke="#999999" stroke-width="1" x1="70" x2="1070" y1="170" y2="170" /><line fill-opacity="0.3" stroke="#999999" stroke-width="1" x1="870" x2="870" y1="1070" y2="70" /><line fill-opacity="0.3" stroke="#999999" stroke-width="1" x1="70" x2="1070" y1="270" y2="270" /><line fill-opacity="0.3" stroke="#999999" stroke-width="1" x1="770" x2="770" y1="1070" y2="70" /><line fill-opacity="0.3" stroke="#999999" stroke-width="1" x1="70" x2="1070" y1="370" y2="370" /><line fill-opacity="0.3" stroke="#999999" stroke-width="1" x1="670" x2="670" y1="1070" y2="70" /><line fill-opacity="0.3" stroke="#999999" stroke-width="1" x1="70" x2="1070" y1="470" y2="470" /><line fill-opacity="0.3" stroke="#999999" stroke-width="1" x1="570" x2="570" y1="1070" y2="70" /><line fill-opacity="0.3" stroke="#999999" stroke-width="1" x1="70" x2="1070" y1="570" y2="570" /><line fill-opacity="0.3" stroke="#999999" stroke-width="1" x1="470" x2="470" y1="1070" y2="70" /><line fill-opacity="0.3" stroke="#999999" stroke-width="1" x1="70" x2="1070" y1="670" y2="670" /><line fill-opacity="0.3" stroke="#999999" stroke-width="1" x1="370" x2="370" y1="1070" y2="70" /><line fill-opacity="0.3" stroke="#999999" stroke-width="1" x1="70" x2="1070" y1="770" y2="770" /><line fill-opacity="0.3" stroke="#999999" stroke-width="1" x1="270" x2="270" y1="1070" y2="70" /><line fill-opacity="0.3" stroke="#999999" stroke-width="1" x1="70" x2="1070" y1="870" y2="870" /><line fill-opacity="0.3" stroke="#999999" stroke-width="1" x1="170" x2="170" y1="1070" y2="70" /><line fill-opacity="0.3" stroke="#999999" stroke-width="1" x1="70" x2="1070" y1="970" y2="970" /><line fill-opacity="0.3" stroke="#000000" stroke-width="1" x1="70" x2="70" y1="1071" y2="69" /><line fill-opacity="0.3" stroke="#000000" stroke-width="1" x1="69" x2="1071" y1="1070" y2="1070" /></g><g class="textos"><text x="1050" y="1110">1000</text><text x="10" y="71">1000</text><text x="950" y="1110">900</text><text x="10" y="171">900</text><text x="850" y="1110">800</text><text x="10" y="271">800</text><text x="750" y="1110">700</text><text x="10" y="371">700</text><text x="650" y="1110">600</text><text x="10" y="471">600</text><text x="550" y="1110">500</text><text x="10" y="571">500</text><text x="450" y="1110">400</text><text x="10" y="671">400</text><text x="350" y="1110">300</text><text x="10" y="771">300</text><text x="250" y="1110">200</text><text x="10" y="871">200</text><text x="150" y="1110">100</text><text x="10" y="971">100</text><text x="50" y="1111">0</text><text x="9" y="1071">0</text></g><g class="especies"><g class="e0" /><g class="e1"><circle cx="832" cy="901" fill="#ff0000" r="3.5" stroke-width="0" /><circle cx="799" cy="887" fill="#ff0000" r="3.5" stroke-width="0" /><circle cx="821" cy="868" fill="#ff0000" r="3.5" stroke-width="0" /><circle cx="810" cy="847" fill="#ff0000" r="3.5" stroke-width="0" /><circle cx="858" cy="765" fill="#ff0000" r="3.5" stroke-width="0" /><circle cx="819" cy="757" fill="#ff0000" r="3.5" stroke-width="0" /><circle cx="898" cy="754" fill="#ff0000" r="3.5" stroke-width="0" /></g><g class="e2"><circle cx="785" cy="736" fill="#2b92db" r="3.5" stroke-width="0" /><circle cx="828" cy="731" fill="#2b92db" r="3.5" stroke-width="0" /><circle cx="742" cy="713" fill="#2b92db" r="3.5" stroke-width="0" /><circle cx="840" cy="703" fill="#2b92db" r="3.5" stroke-width="0" /><circle cx="856" cy="697" fill="#2b92db" r="3.5" stroke-width="0" /><circle cx="800" cy="691" fill="#2b92db" r="3.5" stroke-width="0" /><circle cx="827" cy="644" fill="#2b92db" r="3.5" stroke-width="0" /><circle cx="824" cy="634" fill="#2b92db" r="3.5" stroke-width="0" /><circle cx="839" cy="619" fill="#2b92db" r="3.5" stroke-width="0" /><circle cx="809" cy="617" fill="#2b92db" r="3.5" stroke-width="0" /><circle cx="787" cy="605" fill="#2b92db" r="3.5" stroke-width="0" /><circle cx="816" cy="591" fill="#2b92db" r="3.5" stroke-width="0" /><circle cx="785" cy="588" fill="#2b92db" r="3.5" stroke-width="0" /><circle cx="791" cy="584" fill="#2b92db" r="3.5" stroke-width="0" /><circle cx="827" cy="583" fill="#2b92db" r="3.5" stroke-width="0" /><circle cx="799" cy="578" fill="#2b92db" r="3.5" stroke-width="0" /><circle cx="785" cy="530" fill="#2b92db" r="3.5" stroke-width="0" /><circle cx="770" cy="515" fill="#2b92db" r="3.5" stroke-width="0" /><circle cx="900" cy="504" fill="#2b92db" r="3.5" stroke-width="0" /><circle cx="844" cy="489" fill="#2b92db" r="3.5" stroke-width="0" /><circle cx="851" cy="458" fill="#2b92db" r="3.5" stroke-width="0" /><circle cx="874" cy="455" fill="#2b92db" r="3.5" stroke-width="0" /><circle cx="876" cy="454" fill="#2b92db" r="3.5" stroke-width="0" /><circle cx="903" cy="390" fill="#2b92db" r="3.5" stroke-width="0" /></g><g class="e3"><circle cx="296" cy="850" fill="#911eb4" r="3.5" stroke-width="0" /><circle cx="328" cy="812" fill="#911eb4" r="3.5" stroke-width="0" /><circle cx="310" cy="780" fill="#911eb4" r="3.5" stroke-width="0" /><circle cx="352" cy="741" fill="#911eb4" r="3.5" stroke-width="0" /><circle cx="369" cy="730" fill="#911eb4" r="3.5" stroke-width="0" /><circle cx="312" cy="708" fill="#911eb4" r="3.5" stroke-width="0" /><circle cx="356" cy="675" fill="#911eb4" r="3.5" stroke-width="0" /><circle cx="393" cy="662" fill="#911eb4" r="3.5" stroke-width="0" /><circle cx="359" cy="654" fill="#911eb4" r="3.5" stroke-width="0" /><circle cx="806" cy="445" fill="#911eb4" r="3.5" stroke-width="0" /><circle cx="818" cy="428" fill="#911eb4" r="3.5" stroke-width="0" /><circle cx="800" cy="375" fill="#911eb4" r="3.5" stroke-width="0" /><circle cx="846" cy="358" fill="#911eb4" r="3.5" stroke-width="0" /><circle cx="802" cy="348" fill="#911eb4" r="3.5" stroke-width="0" /><circle cx="803" cy="331" fill="#911eb4" r="3.5" stroke-width="0" /><circle cx="818" cy="331" fill="#911eb4" r="3.5" stroke-width="0" /><circle cx="808" cy="300" fill="#911eb4" r="3.5" stroke-width="0" /><circle cx="778" cy="282" fill="#911eb4" r="3.5" stroke-width="0" /><circle cx="868" cy="246" fill="#911eb4" r="3.5" stroke-width="0" /><circle cx="805" cy="232" fill="#911eb4" r="3.5" stroke-width="0" /><circle cx="819" cy="230" fill="#911eb4" r="3.5" stroke-width="0" /><circle cx="847" cy="227" fill="#911eb4" r="3.5" stroke-width="0" /><circle cx="837" cy="193" fill="#911eb4" r="3.5" stroke-width="0" /></g><g class="e4"><circle cx="261" cy="730" fill="#3cb44B" r="3.5" stroke-width="0" /><circle cx="316" cy="671" fill="#3cb44B" r="3.5" stroke-width="0" /><circle cx="316" cy="651" fill="#3cb44B" r="3.5" stroke-width="0" /><circle cx="270" cy="647" fill="#3cb44B" r="3.5" stroke-width="0" /><circle cx="319" cy="643" fill="#3cb44B" r="3.5" stroke-width="0" /><circle cx="297" cy="590" fill="#3cb44B" r="3.5" stroke-width="0" /><circle cx="287" cy="580" fill="#3cb44B" r="3.5" stroke-width="0" /><circle cx="288" cy="580" fill="#3cb44B" r="3.5" stroke-width="0" /><circle cx="349" cy="575" fill="#3cb44B" r="3.5" stroke-width="0" /><circle cx="322" cy="558" fill="#3cb44B" r="3.5" stroke-width="0" /><circle cx="275" cy="543" fill="#3cb44B" r="3.5" stroke-width="0" /><circle cx="310" cy="496" fill="#3cb44B" r="3.5" stroke-width="0" /><circle cx="324" cy="495" fill="#3cb44B" r="3.5" stroke-width="0" /><circle cx="347" cy="494" fill="#3cb44B" r="3.5" stroke-width="0" /><circle cx="288" cy="492" fill="#3cb44B" r="3.5" stroke-width="0" /><circle cx="357" cy="486" fill="#3cb44B" r="3.5" stroke-width="0" /><circle cx="295" cy="460" fill="#3cb44B" r="3.5" stroke-width="0" /><circle cx="307" cy="454" fill="#3cb44B" r="3.5" stroke-width="0" /><circle cx="321" cy="447" fill="#3cb44B" r="3.5" stroke-width="0" /><circle cx="349" cy="443" fill="#3cb44B" r="3.5" stroke-width="0" /><circle cx="356" cy="416" fill="#3cb44B" r="3.5" stroke-width="0" /><circle cx="304" cy="410" fill="#3cb44B" r="3.5" stroke-width="0" /><circle cx="351" cy="391" fill="#3cb44B" r="3.5" stroke-width="0" /><circle cx="830" cy="138" fill="#3cb44B" r="3.5" stroke-width="0" /></g><g class="e5"><circle cx="241" cy="445" fill="#ff0000" r="3.5" stroke-width="0" /><circle cx="314" cy="319" fill="#ff0000" r="3.5" stroke-width="0" /><circle cx="336" cy="308" fill="#ff0000" r="3.5" stroke-width="0" /><circle cx="316" cy="301" fill="#ff0000" r="3.5" stroke-width="0" /><circle cx="334" cy="285" fill="#ff0000" r="3.5" stroke-width="0" /><circle cx="346" cy="266" fill="#ff0000" r="3.5" stroke-width="0" /><circle cx="342" cy="264" fill="#ff0000" r="3.5" stroke-width="0" /><circle cx="299" cy="259" fill="#ff0000" r="3.5" stroke-width="0" /><circle cx="298" cy="236" fill="#ff0000" r="3.5" stroke-width="0" /><circle cx="330" cy="206" fill="#ff0000" r="3.5" stroke-width="0" /><circle cx="349" cy="206" fill="#ff0000" r="3.5" stroke-width="0" /><circle cx="339" cy="191" fill="#ff0000" r="3.5" stroke-width="0" /><circle cx="379" cy="183" fill="#ff0000" r="3.5" stroke-width="0" /><circle cx="341" cy="161" fill="#ff0000" r="3.5" stroke-width="0" /><circle cx="297" cy="131" fill="#ff0000" r="3.5" stroke-width="0" /></g><g class="e6" /></g></g></svg>