<?xml version="1.0" encoding="utf-8" ?>
<svg baseProfile="full" height="1140px" style="font-size:15;font-family:Arial, san-serif;font-weight:bold;stroke:black;stroke-width:0;fill:#444444" version="1.1" width="1140px" xmlns="http://www.w3.org/2000/svg" xmlns:ev="http://www.w3.org/2001/xml-events" xmlns:xlink="http://www.w3.org/1999/xlink"><defs><clipPath id="areadografico"><rect height="1000" width="1000" x="70" y="70" /></clipPath></defs><g class="master"><g class="poligonos"><polygon clip-path="url(#areadografico)" fill="#000000" fill-opacity="0.1" points="70,1070 70,570 569,571 570,70 1069,71 1069,71 1069,571 569,571 570,1070" /><polygon clip-path="url(#areadografico)" fill="#ffffff" fill-opacity="0.1" points="570,1070 570,570 1069,571 1069,1070" /><polygon clip-path="url(#areadografico)" fill="#ffffff" fill-opacity="0.1" points="70,570 570,570 569,71 70,71" /></g><g class="linhas"><line fill-opacity="0.3" stroke="#999999" stroke-width="1" x1="1070" x2="1070" y1="1070" y2="70" /><line fill-opacity="0.3" stroke="#999999" stroke-width="1" x1="70" x2="1070" y1="70" y2="70" /><line fill-opacity="0.3" stroke="#999999" stroke-width="1" x1="970" x2="970" y1="1070" y2="70" /><line fill-opacity="0.3" stroke="#999999" stroke-width="1" x1="70" x2="1070" y1="170" y2="170" /><line fill-opacity="0.3" stroke="#999999" stroke-width="1" x1="870" x2="870" y1="1070" y2="70" /><line fill-opacity="0.3" stroke="#999999" stroke-width="1" x1="70" x2="1070" y1="270" y2="270" /><line fill-opacity="0.3" stroke="#999999" stroke-width="1" x1="770" x2="770" y1="1070" y2="70" /><line fill-opacity="0.3" stroke="#999999" stroke-width="1" x1="70" x2="1070" y1="370" y2="370" /><line fill-opacity="0.3" stroke="#999999" stroke-width="1" x1="670" x2="670" y1="1070" y2="70" /><line fill-opacity="0.3" stroke="#999999" stroke-width="1" x1="70" x2="1070" y1="470" y2="470" /><line fill-opacity="0.3" stroke="#999999" stroke-width="1" x1="570" x2="570" y1="1070" y2="70" /><line fill-opacity="0.3" stroke="#999999" stroke-width="1" x1="70" x2="1070" y1="570" y2="570" /><line fill-opacity="0.3" stroke="#999999" stroke-width="1" x1="470" x2="470" y1="1070" y2="70" /><line fill-opacity="0.3" stroke="#999999" stroke-width="1" x1="70" x2="1070" y1="670" y2="670" /><line fill-opacity="0.3" stroke="#999999" stroke-width="1" x1="370" x2="370" y1="1070" y2="70" /><line fill-opacity="0.3" stroke="#999999" stroke-width="1" x1="70" x2="1070" y1="770" y2="770" /><line fill-opacity="0.3" stroke="#999999" stroke-width="1" x1="270" x2="270" y1="1070" y2="70" /><line fill-opacity="0.3" stroke="#999999" stroke-width="1" x1="70" x2="1070" y1="870" y2="870" /><line fill-opacity="0.3" stroke="#999999" stroke-width="1" x1="170" x2="170" y1="1070" y2="70" /><line fill-opacity="0.3" stroke="#999999" stroke-width="1" x1="70" x2="1070" y1="970" y2="970" /><line fill-opacity="0.3" stroke="#000000" stroke-width="1" x1="70" x2="70" y1="1071" y2="69" /><line fill-opacity="0.3" stroke="#000000" stroke-width="1" x1="69" x2="1071" y1="1070" y2="1070" /></g><g class="textos"><text x="1050" y="1110">1000</text><text x="10" y="71">1000</text><text x="950" y="1110">900</text><text x="10" y="171">900</text><text x="850" y="1110">800</text><text x="10" y="271">800</text><text x="750" y="1110">700</text><text x="10" y="371">700</text><text x="650" y="1110">600</text><text x="10" y="471">600</text><text x="550" y="1110">500</text><text x="10" y="571">500</text><text x="450" y="1110">400</text><text x="10" y="671">400</text><text x="350" y="1110">300</text><text x="10" y="771">300</text><text x="250" y="1110">200</text><text x="10" y="871">200</text><text x="150" y="1110">100</text><text x="10" y="971">100</text><text x="50" y="1111">0</text><text x="9" y="1071">0</text></g><g class="especies"><g class="e0"><circle cx="563" cy="917" fill="#ff0000" r="3.5" stroke-width="0" /><circle cx="556" cy="913" fill="#ff0000" r="3.5" stroke-width="0" /><circle cx="547" cy="908" fill="#ff0000" r="3.5" stroke-width="0" /><circle cx="541" cy="904" fill="#ff0000" r="3.5" stroke-width="0" /><circle cx="535" cy="900" fill="#ff0000" r="3.5" stroke-width="0" /><circle cx="527" cy="895" fill="#ff0000" r="3.5" stroke-width="0" /><circle cx="519" cy="890" fill="#ff0000" r="3.5" stroke-width="0" /><circle cx="514" cy="886" fill="#ff0000" r="3.5" stroke-width="0" /><circle cx="506" cy="881" fill="#ff0000" r="3.5" stroke-width="0" /><circle cx="499" cy="876" fill="#ff0000" r="3.5" stroke-width="0" /><circle cx="492" cy="871" fill="#ff0000" r="3.5" stroke-width="0" /><circle cx="485" cy="866" fill="#ff0000" r="3.5" stroke-width="0" /><circle cx="478" cy="861" fill="#ff0000" r="3.5" stroke-width="0" /><circle cx="472" cy="856" fill="#ff0000" r="3.5" stroke-width="0" /><circle cx="463" cy="850" fill="#ff0000" r="3.5" stroke-width="0" /><circle cx="457" cy="845" fill="#ff0000" r="3.5" stroke-width="0" /><circle cx="449" cy="839" fill="#ff0000" r="3.5" stroke-width="0" /><circle cx="443" cy="834" fill="#ff0000" r="3.5" stroke-width="0" /><circle cx="436" cy="828" fill="#ff0000" r="3.5" stroke-width="0" /><circle cx="429" cy="822" fill="#ff0000" r="3.5" stroke-width="0" /><circle cx="422" cy="816" fill="#ff0000" r="3.5" stroke-width="0" /><circle cx="415" cy="810" fill="#ff0000" r="3.5" stroke-width="0" /><circle cx="408" cy="804" fill="#ff0000" r="3.5" stroke-width="0" /><circle cx="401" cy="797" fill="#ff0000" r="3.5" stroke-width="0" /><circle cx="394" cy="791" fill="#ff0000" r="3.5" stroke-width="0" /><circle cx="387" cy="784" fill="#ff0000" r="3.5" stroke-width="0" /><circle cx="380" cy="778" fill="#ff0000" r="3.5" stroke-width="0" /><circle cx="373" cy="771" fill="#ff0000" r="3.5" stroke-width="0" /><circle cx="368" cy="766" fill="#ff0000" r="3.5" stroke-width="0" /><circle cx="361" cy="759" fill="#ff0000" r="3.5" stroke-width="0" /><circle cx="355" cy="752" fill="#ff0000" r="3.5" stroke-width="0" /><circle cx="348" cy="745" fill="#ff0000" r="3.5" stroke-width="0" /><circle cx="342" cy="738" fill="#ff0000" r="3.5" stroke-width="0" /><circle cx="335" cy="731" fill="#ff0000" r="3.5" stroke-width="0" /><circle cx="329" cy="724" fill="#ff0000" r="3.5" stroke-width="0" /><circle cx="323" cy="717" fill="#ff0000" r="3.5" stroke-width="0" /><circle cx="317" cy="710" fill="#ff0000" r="3.5" stroke-width="0" /><circle cx="311" cy="703" fill="#ff0000" r="3.5" stroke-width="0" /><circle cx="305" cy="696" fill="#ff0000" r="3.5" stroke-width="0" /><circle cx="300" cy="689" fill="#ff0000" r="3.5" stroke-width="0" /><circle cx="294" cy="682" fill="#ff0000" r="3.5" stroke-width="0" /><circle cx="289" cy="675" fill="#ff0000" r="3.5" stroke-width="0" /><circle cx="284" cy="668" fill="#ff0000" r="3.5" stroke-width="0" /><circle cx="278" cy="661" fill="#ff0000" r="3.5" stroke-width="0" /><circle cx="273" cy="654" fill="#ff0000" r="3.5" stroke-width="0" /><circle cx="268" cy="647" fill="#ff0000" r="3.5" stroke-width="0" /><circle cx="263" cy="640" fill="#ff0000" r="3.5" stroke-width="0" /><circle cx="258" cy="633" fill="#ff0000" r="3.5" stroke-width="0" /><circle cx="254" cy="626" fill="#ff0000" r="3.5" stroke-width="0" /><circle cx="249" cy="619" fill="#ff0000" r="3.5" stroke-width="0" /><circle cx="244" cy="612" fill="#ff0000" r="3.5" stroke-width="0" /><circle cx="240" cy="605" fill="#ff0000" r="3.5" stroke-width="0" /><circle cx="235" cy="598" fill="#ff0000" r="3.5" stroke-width="0" /><circle cx="231" cy="591" fill="#ff0000" r="3.5" stroke-width="0" /><circle cx="227" cy="584" fill="#ff0000" r="3.5" stroke-width="0" /><circle cx="223" cy="577" fill="#ff0000" r="3.5" stroke-width="0" /></g><g class="e1"><circle cx="1020" cy="1050" fill="#2b92db" r="3.5" stroke-width="0" /><circle cx="1027" cy="1050" fill="#2b92db" r="3.5" stroke-width="0" /><circle cx="1034" cy="1050" fill="#2b92db" r="3.5" stroke-width="0" /><circle cx="1041" cy="1050" fill="#2b92db" r="3.5" stroke-width="0" /><circle cx="1048" cy="1050" fill="#2b92db" r="3.5" stroke-width="0" /><circle cx="1001" cy="1049" fill="#2b92db" r="3.5" stroke-width="0" /><circle cx="1008" cy="1049" fill="#2b92db" r="3.5" stroke-width="0" /><circle cx="1015" cy="1049" fill="#2b92db" r="3.5" stroke-width="0" /><circle cx="983" cy="1048" fill="#2b92db" r="3.5" stroke-width="0" /><circle cx="990" cy="1048" fill="#2b92db" r="3.5" stroke-width="0" /><circle cx="969" cy="1047" fill="#2b92db" r="3.5" stroke-width="0" /><circle cx="976" cy="1047" fill="#2b92db" r="3.5" stroke-width="0" /><circle cx="960" cy="1046" fill="#2b92db" r="3.5" stroke-width="0" /><circle cx="967" cy="1046" fill="#2b92db" r="3.5" stroke-width="0" /><circle cx="953" cy="1045" fill="#2b92db" r="3.5" stroke-width="0" /><circle cx="941" cy="1044" fill="#2b92db" r="3.5" stroke-width="0" /><circle cx="931" cy="1043" fill="#2b92db" r="3.5" stroke-width="0" /><circle cx="938" cy="1043" fill="#2b92db" r="3.5" stroke-width="0" /><circle cx="929" cy="1042" fill="#2b92db" r="3.5" stroke-width="0" /><circle cx="921" cy="1041" fill="#2b92db" r="3.5" stroke-width="0" /><circle cx="913" cy="1040" fill="#2b92db" r="3.5" stroke-width="0" /><circle cx="906" cy="1039" fill="#2b92db" r="3.5" stroke-width="0" /><circle cx="900" cy="1038" fill="#2b92db" r="3.5" stroke-width="0" /><circle cx="895" cy="1037" fill="#2b92db" r="3.5" stroke-width="0" /><circle cx="879" cy="1035" fill="#2b92db" r="3.5" stroke-width="0" /><circle cx="875" cy="1034" fill="#2b92db" r="3.5" stroke-width="0" /><circle cx="871" cy="1033" fill="#2b92db" r="3.5" stroke-width="0" /><circle cx="858" cy="1031" fill="#2b92db" r="3.5" stroke-width="0" /><circle cx="855" cy="1030" fill="#2b92db" r="3.5" stroke-width="0" /><circle cx="852" cy="1029" fill="#2b92db" r="3.5" stroke-width="0" /><circle cx="841" cy="1027" fill="#2b92db" r="3.5" stroke-width="0" /><circle cx="831" cy="1025" fill="#2b92db" r="3.5" stroke-width="0" /><circle cx="829" cy="1024" fill="#2b92db" r="3.5" stroke-width="0" /><circle cx="819" cy="1022" fill="#2b92db" r="3.5" stroke-width="0" /><circle cx="810" cy="1020" fill="#2b92db" r="3.5" stroke-width="0" /><circle cx="803" cy="1018" fill="#2b92db" r="3.5" stroke-width="0" /><circle cx="802" cy="1017" fill="#2b92db" r="3.5" stroke-width="0" /><circle cx="794" cy="1015" fill="#2b92db" r="3.5" stroke-width="0" /><circle cx="787" cy="1013" fill="#2b92db" r="3.5" stroke-width="0" /><circle cx="780" cy="1011" fill="#2b92db" r="3.5" stroke-width="0" /><circle cx="774" cy="1009" fill="#2b92db" r="3.5" stroke-width="0" /><circle cx="762" cy="1006" fill="#2b92db" r="3.5" stroke-width="0" /><circle cx="755" cy="1004" fill="#2b92db" r="3.5" stroke-width="0" /><circle cx="750" cy="1002" fill="#2b92db" r="3.5" stroke-width="0" /><circle cx="745" cy="1000" fill="#2b92db" r="3.5" stroke-width="0" /><circle cx="734" cy="997" fill="#2b92db" r="3.5" stroke-width="0" /><circle cx="731" cy="995" fill="#2b92db" r="3.5" stroke-width="0" /><circle cx="721" cy="992" fill="#2b92db" r="3.5" stroke-width="0" /><circle cx="717" cy="990" fill="#2b92db" r="3.5" stroke-width="0" /><circle cx="708" cy="987" fill="#2b92db" r="3.5" stroke-width="0" /><circle cx="699" cy="984" fill="#2b92db" r="3.5" stroke-width="0" /><circle cx="696" cy="982" fill="#2b92db" r="3.5" stroke-width="0" /><circle cx="688" cy="979" fill="#2b92db" r="3.5" stroke-width="0" /><circle cx="681" cy="976" fill="#2b92db" r="3.5" stroke-width="0" /><circle cx="674" cy="973" fill="#2b92db" r="3.5" stroke-width="0" /><circle cx="667" cy="970" fill="#2b92db" r="3.5" stroke-width="0" /><circle cx="660" cy="967" fill="#2b92db" r="3.5" stroke-width="0" /><circle cx="653" cy="964" fill="#2b92db" r="3.5" stroke-width="0" /><circle cx="644" cy="960" fill="#2b92db" r="3.5" stroke-width="0" /><circle cx="640" cy="958" fill="#2b92db" r="3.5" stroke-width="0" /><circle cx="631" cy="954" fill="#2b92db" r="3.5" stroke-width="0" /><circle cx="626" cy="951" fill="#2b92db" r="3.5" stroke-width="0" /><circle cx="617" cy="947" fill="#2b92db" r="3.5" stroke-width="0" /><circle cx="612" cy="944" fill="#2b92db" r="3.5" stroke-width="0" /><circle cx="603" cy="940" fill="#2b92db" r="3.5" stroke-width="0" /><circle cx="596" cy="936" fill="#2b92db" r="3.5" stroke-width="0" /><circle cx="591" cy="933" fill="#2b92db" r="3.5" stroke-width="0" /><circle cx="584" cy="929" fill="#2b92db" r="3.5" stroke-width="0" /><circle cx="577" cy="925" fill="#2b92db" r="3.5" stroke-width="0" /><circle cx="570" cy="921" fill="#2b92db" r="3.5" stroke-width="0" /></g><g class="e2"><circle cx="219" cy="570" fill="#911eb4" r="3.5" stroke-width="0" /><circle cx="215" cy="563" fill="#911eb4" r="3.5" stroke-width="0" /><circle cx="211" cy="556" fill="#911eb4" r="3.5" stroke-width="0" /><circle cx="207" cy="549" fill="#911eb4" r="3.5" stroke-width="0" /><circle cx="203" cy="542" fill="#911eb4" r="3.5" stroke-width="0" /><circle cx="199" cy="535" fill="#911eb4" r="3.5" stroke-width="0" /><circle cx="196" cy="528" fill="#911eb4" r="3.5" stroke-width="0" /><circle cx="192" cy="521" fill="#911eb4" r="3.5" stroke-width="0" /><circle cx="189" cy="514" fill="#911eb4" r="3.5" stroke-width="0" /><circle cx="185" cy="507" fill="#911eb4" r="3.5" stroke-width="0" /><circle cx="182" cy="500" fill="#911eb4" r="3.5" stroke-width="0" /><circle cx="179" cy="494" fill="#911eb4" r="3.5" stroke-width="0" /><circle cx="176" cy="487" fill="#911eb4" r="3.5" stroke-width="0" /><circle cx="173" cy="480" fill="#911eb4" r="3.5" stroke-width="0" /><circle cx="170" cy="473" fill="#911eb4" r="3.5" stroke-width="0" /><circle cx="167" cy="466" fill="#911eb4" r="3.5" stroke-width="0" /><circle cx="164" cy="459" fill="#911eb4" r="3.5" stroke-width="0" /><circle cx="161" cy="452" fill="#911eb4" r="3.5" stroke-width="0" /><circle cx="158" cy="445" fill="#911eb4" r="3.5" stroke-width="0" /><circle cx="155" cy="438" fill="#911eb4" r="3.5" stroke-width="0" /><circle cx="153" cy="431" fill="#911eb4" r="3.5" stroke-width="0" /><circle cx="150" cy="424" fill="#911eb4" r="3.5" stroke-width="0" /><circle cx="147" cy="417" fill="#911eb4" r="3.5" stroke-width="0" /><circle cx="145" cy="410" fill="#911eb4" r="3.5" stroke-width="0" /><circle cx="142" cy="403" fill="#911eb4" r="3.5" stroke-width="0" /><circle cx="140" cy="396" fill="#911eb4" r="3.5" stroke-width="0" /><circle cx="138" cy="389" fill="#911eb4" r="3.5" stroke-width="0" /><circle cx="135" cy="382" fill="#911eb4" r="3.5" stroke-width="0" /><circle cx="133" cy="375" fill="#911eb4" r="3.5" stroke-width="0" /><circle cx="131" cy="368" fill="#911eb4" r="3.5" stroke-width="0" /><circle cx="129" cy="361" fill="#911eb4" r="3.5" stroke-width="0" /><circle cx="127" cy="354" fill="#911eb4" r="3.5" stroke-width="0" /><circle cx="125" cy="347" fill="#911eb4" r="3.5" stroke-width="0" /><circle cx="123" cy="340" fill="#911eb4" r="3.5" stroke-width="0" /><circle cx="121" cy="333" fill="#911eb4" r="3.5" stroke-width="0" /><circle cx="119" cy="326" fill="#911eb4" r="3.5" stroke-width="0" /><circle cx="118" cy="319" fill="#911eb4" r="3.5" stroke-width="0" /><circle cx="116" cy="312" fill="#911eb4" r="3.5" stroke-width="0" /><circle cx="114" cy="305" fill="#911eb4" r="3.5" stroke-width="0" /><circle cx="113" cy="298" fill="#911eb4" r="3.5" stroke-width="0" /><circle cx="111" cy="291" fill="#911eb4" r="3.5" stroke-width="0" /><circle cx="110" cy="284" fill="#911eb4" r="3.5" stroke-width="0" /><circle cx="108" cy="277" fill="#911eb4" r="3.5" stroke-width="0" /><circle cx="107" cy="270" fill="#911eb4" r="3.5" stroke-width="0" /><circle cx="106" cy="263" fill="#911eb4" r="3.5" stroke-width="0" /><circle cx="104" cy="256" fill="#911eb4" r="3.5" stroke-width="0" /><circle cx="103" cy="249" fill="#911eb4" r="3.5" stroke-width="0" /><circle cx="102" cy="242" fill="#911eb4" r="3.5" stroke-width="0" /><circle cx="101" cy="235" fill="#911eb4" r="3.5" stroke-width="0" /><circle cx="100" cy="228" fill="#911eb4" r="3.5" stroke-width="0" /><circle cx="99" cy="222" fill="#911eb4" r="3.5" stroke-width="0" /><circle cx="98" cy="215" fill="#911eb4" r="3.5" stroke-width="0" /><circle cx="97" cy="208" fill="#911eb4" r="3.5" stroke-width="0" /><circle cx="96" cy="201" fill="#911eb4" r="3.5" stroke-width="0" /><circle cx="96" cy="194" fill="#911eb4" r="3.5" stroke-width="0" /><circle cx="95" cy="187" fill="#911eb4" r="3.5" stroke-width="0" /><circle cx="94" cy="180" fill="#911eb4" r="3.5" stroke-width="0" /><circle cx="94" cy="173" fill="#911eb4" r="3.5" stroke-width="0" /><circle cx="93" cy="166" fill="#911eb4" r="3.5" stroke-width="0" /><circle cx="92" cy="159" fill="#911eb4" r="3.5" stroke-width="0" /><circle cx="92" cy="152" fill="#911eb4" r="3.5" stroke-width="0" /><circle cx="92" cy="145" fill="#911eb4" r="3.5" stroke-width="0" /><circle cx="91" cy="138" fill="#911eb4" r="3.5" stroke-width="0" /><circle cx="91" cy="131" fill="#911eb4" r="3.5" stroke-width="0" /><circle cx="91" cy="124" fill="#911eb4" r="3.5" stroke-width="0" /><circle cx="90" cy="117" fill="#911eb4" r="3.5" stroke-width="0" /><circle cx="90" cy="110" fill="#911eb4" r="3.5" stroke-width="0" /><circle cx="90" cy="103" fill="#911eb4" r="3.5" stroke-width="0" /><circle cx="90" cy="96" fill="#911eb4" r="3.5" stroke-width="0" /></g></g></g></svg>