<?xml version="1.0" encoding="utf-8" ?>
<svg baseProfile="full" height="1140px" style="font-size:15;font-family:Arial, san-serif;font-weight:bold;stroke:black;stroke-width:0;fill:#444444" version="1.1" width="1140px" xmlns="http://www.w3.org/2000/svg" xmlns:ev="http://www.w3.org/2001/xml-events" xmlns:xlink="http://www.w3.org/1999/xlink"><defs><clipPath id="areadografico"><rect height="1000" width="1000" x="70" y="70" /></clipPath></defs><g class="master"><g class="poligonos"><polygon clip-path="url(#areadografico)" fill="#000000" fill-opacity="0.1" points="70,1070 70,870 269,871 270,670 469,671 470,470 669,471 670,270 869,271 870,70 1069,71 1069,71 1069,271 869,271 869,471 669,471 669,671 469,671 469,871 269,871 270,1070" /><polygon clip-path="url(#areadografico)" fill="#ffffff" fill-opacity="0.1" points="270,1070 270,870 469,871 470,670 669,671 670,470 869,471 870,270 1069,271 1069,271 1069,471 869,471 869,671 669,671 669,871 469,871 470,1070" /><polygon clip-path="url(#areadografico)" fill="#ffffff" fill-opacity="0.1" points="70,870 270,870 269,671 470,670 469,471 670,470 669,271 870,270 869,71 869,71 669,71 669,271 469,271 469,471 269,471 269,671 70,670" /><polygon clip-path="url(#areadografico)" fill="#000000" fill-opacity="0.1" points="470,1070 470,870 669,871 670,670 869,671 870,470 1069,471 1069,471 1069,671 869,671 869,871 669,871 670,1070" /><polygon clip-path="url(#areadografico)" fill="#000000" fill-opacity="0.1" points="70,670 270,670 269,471 470,470 469,271 670,270 669,71 669,71 469,71 469,271 269,271 269,471 70,470" /><polygon clip-path="url(#areadografico)" fill="#ffffff" fill-opacity="0.1" points="670,1070 670,870 869,871 870,670 1069,671 1069,671 1069,871 869,871 870,1070" /><polygon clip-path="url(#areadografico)" fill="#ffffff" fill-opacity="0.1" points="70,470 270,470 269,271 470,270 469,71 469,71 269,71 269,271 70,270" /><polygon clip-path="url(#areadografico)" fill="#000000" fill-opacity="0.1" points="870,1070 870,870 1069,871 1069,1070" /><polygon clip-path="url(#areadografico)" fill="#000000" fill-opacity="0.1" points="70,270 270,270 269,71 70,71" /></g><g class="linhas"><line fill-opacity="0.3" stroke="#999999" stroke-width="1" x1="1070" x2="1070" y1="1070" y2="70" /><line fill-opacity="0.3" stroke="#999999" stroke-width="1" x1="70" x2="1070" y1="70" y2="70" /><line fill-opacity="0.3" stroke="#999999" stroke-width="1" x1="970" x2="970" y1="1070" y2="70" /><line fill-opacity="0.3" stroke="#999999" stroke-width="1" x1="70" x2="1070" y1="170" y2="170" /><line fill-opacity="0.3" stroke="#999999" stroke-width="1" x1="870" x2="870" y1="1070" y2="70" /><line fill-opacity="0.3" stroke="#999999" stroke-width="1" x1="70" x2="1070" y1="270" y2="270" /><line fill-opacity="0.3" stroke="#999999" stroke-width="1" x1="770" x2="770" y1="1070" y2="70" /><line fill-opacity="0.3" stroke="#999999" stroke-width="1" x1="70" x2="1070" y1="370" y2="370" /><line fill-opacity="0.3" stroke="#999999" stroke-width="1" x1="670" x2="670" y1="1070" y2="70" /><line fill-opacity="0.3" stroke="#999999" stroke-width="1" x1="70" x2="1070" y1="470" y2="470" /><line fill-opacity="0.3" stroke="#999999" stroke-width="1" x1="570" x2="570" y1="1070" y2="70" /><line fill-opacity="0.3" stroke="#999999" stroke-width="1" x1="70" x2="1070" y1="570" y2="570" /><line fill-opacity="0.3" stroke="#999999" stroke-width="1" x1="470" x2="470" y1="1070" y2="70" /><line fill-opacity="0.3" stroke="#999999" stroke-width="1" x1="70" x2="1070" y1="670" y2="670" /><line fill-opacity="0.3" stroke="#999999" stroke-width="1" x1="370" x2="370" y1="1070" y2="70" /><line fill-opacity="0.3" stroke="#999999" stroke-width="1" x1="70" x2="1070" y1="770" y2="770" /><line fill-opacity="0.3" stroke="#999999" stroke-width="1" x1="270" x2="270" y1="1070" y2="70" /><line fill-opacity="0.3" stroke="#999999" stroke-width="1" x1="70" x2="1070" y1="870" y2="870" /><line fill-opacity="0.3" stroke="#999999" stroke-width="1" x1="170" x2="170" y1="1070" y2="70" /><line fill-opacity="0.3" stroke="#999999" stroke-width="1" x1="70" x2="1070" y1="970" y2="970" /><line fill-opacity="0.3" stroke="#000000" stroke-width="1" x1="70" x2="70" y1="1071" y2="69" /><line fill-opacity="0.3" stroke="#000000" stroke-width="1" x1="69" x2="1071" y1="1070" y2="1070" /></g><g class="textos"><text x="1050" y="1110">1000</text><text x="10" y="71">1000</text><text x="950" y="1110">900</text><text x="10" y="171">900</text><text x="850" y="1110">800</text><text x="10" y="271">800</text><text x="750" y="1110">700</text><text x="10" y="371">700</text><text x="650" y="1110">600</text><text x="10" y="471">600</text><text x="550" y="1110">500</text><text x="10" y="571">500</text><text x="450" y="1110">400</text><text x="10" y="671">400</text><text x="350" y="1110">300</text><text x="10" y="771">300</text><text x="250" y="1110">200</text><text x="10" y="871">200</text><text x="150" y="1110">100</text><text x="10" y="971">100</text><text x="50" y="1111">0</text><text x="9" y="1071">0</text></g><g class="especies"><g class="e0"><circle cx="467" cy="853" fill="#ff0000" r="3.5" stroke-width="0" /><circle cx="464" cy="850" fill="#ff0000" r="3.5" stroke-width="0" /><circle cx="458" cy="846" fill="#ff0000" r="3.5" stroke-width="0" /><circle cx="455" cy="843" fill="#ff0000" r="3.5" stroke-width="0" /><circle cx="450" cy="839" fill="#ff0000" r="3.5" stroke-width="0" /><circle cx="445" cy="835" fill="#ff0000" r="3.5" stroke-width="0" /><circle cx="438" cy="830" fill="#ff0000" r="3.5" stroke-width="0" /><circle cx="434" cy="826" fill="#ff0000" r="3.5" stroke-width="0" /><circle cx="430" cy="823" fill="#ff0000" r="3.5" stroke-width="0" /><circle cx="425" cy="819" fill="#ff0000" r="3.5" stroke-width="0" /><circle cx="420" cy="814" fill="#ff0000" r="3.5" stroke-width="0" /><circle cx="415" cy="810" fill="#ff0000" r="3.5" stroke-width="0" /><circle cx="410" cy="806" fill="#ff0000" r="3.5" stroke-width="0" /><circle cx="406" cy="802" fill="#ff0000" r="3.5" stroke-width="0" /><circle cx="401" cy="797" fill="#ff0000" r="3.5" stroke-width="0" /><circle cx="396" cy="793" fill="#ff0000" r="3.5" stroke-width="0" /><circle cx="391" cy="788" fill="#ff0000" r="3.5" stroke-width="0" /><circle cx="387" cy="784" fill="#ff0000" r="3.5" stroke-width="0" /><circle cx="381" cy="779" fill="#ff0000" r="3.5" stroke-width="0" /><circle cx="377" cy="775" fill="#ff0000" r="3.5" stroke-width="0" /><circle cx="372" cy="770" fill="#ff0000" r="3.5" stroke-width="0" /><circle cx="369" cy="767" fill="#ff0000" r="3.5" stroke-width="0" /><circle cx="364" cy="762" fill="#ff0000" r="3.5" stroke-width="0" /><circle cx="360" cy="757" fill="#ff0000" r="3.5" stroke-width="0" /><circle cx="355" cy="752" fill="#ff0000" r="3.5" stroke-width="0" /><circle cx="351" cy="748" fill="#ff0000" r="3.5" stroke-width="0" /><circle cx="346" cy="743" fill="#ff0000" r="3.5" stroke-width="0" /><circle cx="342" cy="738" fill="#ff0000" r="3.5" stroke-width="0" /><circle cx="337" cy="733" fill="#ff0000" r="3.5" stroke-width="0" /><circle cx="333" cy="728" fill="#ff0000" r="3.5" stroke-width="0" /><circle cx="329" cy="724" fill="#ff0000" r="3.5" stroke-width="0" /><circle cx="325" cy="719" fill="#ff0000" r="3.5" stroke-width="0" /><circle cx="320" cy="714" fill="#ff0000" r="3.5" stroke-width="0" /><circle cx="316" cy="709" fill="#ff0000" r="3.5" stroke-width="0" /><circle cx="313" cy="705" fill="#ff0000" r="3.5" stroke-width="0" /><circle cx="309" cy="700" fill="#ff0000" r="3.5" stroke-width="0" /><circle cx="305" cy="695" fill="#ff0000" r="3.5" stroke-width="0" /><circle cx="301" cy="690" fill="#ff0000" r="3.5" stroke-width="0" /><circle cx="297" cy="685" fill="#ff0000" r="3.5" stroke-width="0" /><circle cx="293" cy="681" fill="#ff0000" r="3.5" stroke-width="0" /><circle cx="290" cy="676" fill="#ff0000" r="3.5" stroke-width="0" /><circle cx="286" cy="671" fill="#ff0000" r="3.5" stroke-width="0" /></g><g class="e1"><circle cx="492" cy="871" fill="#2b92db" r="3.5" stroke-width="0" /><circle cx="488" cy="868" fill="#2b92db" r="3.5" stroke-width="0" /><circle cx="482" cy="864" fill="#2b92db" r="3.5" stroke-width="0" /><circle cx="477" cy="860" fill="#2b92db" r="3.5" stroke-width="0" /><circle cx="473" cy="857" fill="#2b92db" r="3.5" stroke-width="0" /></g><g class="e2"><circle cx="282" cy="666" fill="#911eb4" r="3.5" stroke-width="0" /><circle cx="279" cy="662" fill="#911eb4" r="3.5" stroke-width="0" /><circle cx="275" cy="657" fill="#911eb4" r="3.5" stroke-width="0" /><circle cx="272" cy="652" fill="#911eb4" r="3.5" stroke-width="0" /></g><g class="e3"><circle cx="669" cy="971" fill="#3cb44B" r="3.5" stroke-width="0" /><circle cx="665" cy="969" fill="#3cb44B" r="3.5" stroke-width="0" /><circle cx="660" cy="967" fill="#3cb44B" r="3.5" stroke-width="0" /><circle cx="656" cy="965" fill="#3cb44B" r="3.5" stroke-width="0" /><circle cx="648" cy="962" fill="#3cb44B" r="3.5" stroke-width="0" /><circle cx="645" cy="960" fill="#3cb44B" r="3.5" stroke-width="0" /><circle cx="639" cy="958" fill="#3cb44B" r="3.5" stroke-width="0" /><circle cx="636" cy="956" fill="#3cb44B" r="3.5" stroke-width="0" /><circle cx="629" cy="953" fill="#3cb44B" r="3.5" stroke-width="0" /><circle cx="626" cy="951" fill="#3cb44B" r="3.5" stroke-width="0" /><circle cx="622" cy="949" fill="#3cb44B" r="3.5" stroke-width="0" /><circle cx="615" cy="946" fill="#3cb44B" r="3.5" stroke-width="0" /><circle cx="612" cy="944" fill="#3cb44B" r="3.5" stroke-width="0" /><circle cx="605" cy="941" fill="#3cb44B" r="3.5" stroke-width="0" /><circle cx="602" cy="939" fill="#3cb44B" r="3.5" stroke-width="0" /><circle cx="596" cy="936" fill="#3cb44B" r="3.5" stroke-width="0" /><circle cx="593" cy="934" fill="#3cb44B" r="3.5" stroke-width="0" /><circle cx="587" cy="931" fill="#3cb44B" r="3.5" stroke-width="0" /><circle cx="581" cy="928" fill="#3cb44B" r="3.5" stroke-width="0" /><circle cx="578" cy="926" fill="#3cb44B" r="3.5" stroke-width="0" /><circle cx="572" cy="923" fill="#3cb44B" r="3.5" stroke-width="0" /><circle cx="567" cy="920" fill="#3cb44B" r="3.5" stroke-width="0" /><circle cx="562" cy="917" fill="#3cb44B" r="3.5" stroke-width="0" /><circle cx="557" cy="914" fill="#3cb44B" r="3.5" stroke-width="0" /><circle cx="554" cy="912" fill="#3cb44B" r="3.5" stroke-width="0" /><circle cx="549" cy="909" fill="#3cb44B" r="3.5" stroke-width="0" /><circle cx="545" cy="906" fill="#3cb44B" r="3.5" stroke-width="0" /><circle cx="540" cy="903" fill="#3cb44B" r="3.5" stroke-width="0" /><circle cx="534" cy="900" fill="#3cb44B" r="3.5" stroke-width="0" /><circle cx="530" cy="897" fill="#3cb44B" r="3.5" stroke-width="0" /><circle cx="526" cy="894" fill="#3cb44B" r="3.5" stroke-width="0" /><circle cx="519" cy="890" fill="#3cb44B" r="3.5" stroke-width="0" /><circle cx="517" cy="888" fill="#3cb44B" r="3.5" stroke-width="0" /><circle cx="510" cy="884" fill="#3cb44B" r="3.5" stroke-width="0" /><circle cx="506" cy="881" fill="#3cb44B" r="3.5" stroke-width="0" /><circle cx="502" cy="878" fill="#3cb44B" r="3.5" stroke-width="0" /><circle cx="496" cy="874" fill="#3cb44B" r="3.5" stroke-width="0" /></g><g class="e4"><circle cx="268" cy="647" fill="#ff0000" r="3.5" stroke-width="0" /><circle cx="265" cy="643" fill="#ff0000" r="3.5" stroke-width="0" /><circle cx="262" cy="638" fill="#ff0000" r="3.5" stroke-width="0" /><circle cx="258" cy="633" fill="#ff0000" r="3.5" stroke-width="0" /><circle cx="255" cy="628" fill="#ff0000" r="3.5" stroke-width="0" /><circle cx="252" cy="623" fill="#ff0000" r="3.5" stroke-width="0" /><circle cx="249" cy="619" fill="#ff0000" r="3.5" stroke-width="0" /><circle cx="246" cy="614" fill="#ff0000" r="3.5" stroke-width="0" /><circle cx="242" cy="609" fill="#ff0000" r="3.5" stroke-width="0" /><circle cx="239" cy="604" fill="#ff0000" r="3.5" stroke-width="0" /><circle cx="237" cy="600" fill="#ff0000" r="3.5" stroke-width="0" /><circle cx="234" cy="595" fill="#ff0000" r="3.5" stroke-width="0" /><circle cx="230" cy="590" fill="#ff0000" r="3.5" stroke-width="0" /><circle cx="227" cy="585" fill="#ff0000" r="3.5" stroke-width="0" /><circle cx="225" cy="581" fill="#ff0000" r="3.5" stroke-width="0" /><circle cx="222" cy="576" fill="#ff0000" r="3.5" stroke-width="0" /><circle cx="219" cy="571" fill="#ff0000" r="3.5" stroke-width="0" /><circle cx="216" cy="566" fill="#ff0000" r="3.5" stroke-width="0" /><circle cx="213" cy="561" fill="#ff0000" r="3.5" stroke-width="0" /><circle cx="211" cy="557" fill="#ff0000" r="3.5" stroke-width="0" /><circle cx="208" cy="552" fill="#ff0000" r="3.5" stroke-width="0" /><circle cx="206" cy="547" fill="#ff0000" r="3.5" stroke-width="0" /><circle cx="203" cy="542" fill="#ff0000" r="3.5" stroke-width="0" /><circle cx="201" cy="538" fill="#ff0000" r="3.5" stroke-width="0" /><circle cx="198" cy="533" fill="#ff0000" r="3.5" stroke-width="0" /><circle cx="196" cy="528" fill="#ff0000" r="3.5" stroke-width="0" /><circle cx="193" cy="523" fill="#ff0000" r="3.5" stroke-width="0" /><circle cx="191" cy="518" fill="#ff0000" r="3.5" stroke-width="0" /><circle cx="189" cy="514" fill="#ff0000" r="3.5" stroke-width="0" /><circle cx="186" cy="509" fill="#ff0000" r="3.5" stroke-width="0" /><circle cx="184" cy="504" fill="#ff0000" r="3.5" stroke-width="0" /><circle cx="181" cy="499" fill="#ff0000" r="3.5" stroke-width="0" /><circle cx="180" cy="495" fill="#ff0000" r="3.5" stroke-width="0" /><circle cx="177" cy="490" fill="#ff0000" r="3.5" stroke-width="0" /><circle cx="175" cy="485" fill="#ff0000" r="3.5" stroke-width="0" /><circle cx="173" cy="480" fill="#ff0000" r="3.5" stroke-width="0" /><circle cx="171" cy="476" fill="#ff0000" r="3.5" stroke-width="0" /><circle cx="169" cy="471" fill="#ff0000" r="3.5" stroke-width="0" /></g><g class="e5"><circle cx="866" cy="1032" fill="#2b92db" r="3.5" stroke-width="0" /><circle cx="861" cy="1031" fill="#2b92db" r="3.5" stroke-width="0" /><circle cx="856" cy="1030" fill="#2b92db" r="3.5" stroke-width="0" /><circle cx="850" cy="1029" fill="#2b92db" r="3.5" stroke-width="0" /><circle cx="846" cy="1028" fill="#2b92db" r="3.5" stroke-width="0" /><circle cx="842" cy="1027" fill="#2b92db" r="3.5" stroke-width="0" /><circle cx="838" cy="1026" fill="#2b92db" r="3.5" stroke-width="0" /><circle cx="826" cy="1024" fill="#2b92db" r="3.5" stroke-width="0" /><circle cx="830" cy="1024" fill="#2b92db" r="3.5" stroke-width="0" /><circle cx="818" cy="1022" fill="#2b92db" r="3.5" stroke-width="0" /><circle cx="815" cy="1021" fill="#2b92db" r="3.5" stroke-width="0" /><circle cx="812" cy="1020" fill="#2b92db" r="3.5" stroke-width="0" /><circle cx="809" cy="1019" fill="#2b92db" r="3.5" stroke-width="0" /><circle cx="799" cy="1017" fill="#2b92db" r="3.5" stroke-width="0" /><circle cx="796" cy="1016" fill="#2b92db" r="3.5" stroke-width="0" /><circle cx="794" cy="1015" fill="#2b92db" r="3.5" stroke-width="0" /><circle cx="791" cy="1014" fill="#2b92db" r="3.5" stroke-width="0" /><circle cx="782" cy="1012" fill="#2b92db" r="3.5" stroke-width="0" /><circle cx="780" cy="1011" fill="#2b92db" r="3.5" stroke-width="0" /><circle cx="772" cy="1009" fill="#2b92db" r="3.5" stroke-width="0" /><circle cx="770" cy="1008" fill="#2b92db" r="3.5" stroke-width="0" /><circle cx="762" cy="1006" fill="#2b92db" r="3.5" stroke-width="0" /><circle cx="760" cy="1005" fill="#2b92db" r="3.5" stroke-width="0" /><circle cx="752" cy="1003" fill="#2b92db" r="3.5" stroke-width="0" /><circle cx="751" cy="1002" fill="#2b92db" r="3.5" stroke-width="0" /><circle cx="743" cy="1000" fill="#2b92db" r="3.5" stroke-width="0" /><circle cx="742" cy="999" fill="#2b92db" r="3.5" stroke-width="0" /><circle cx="735" cy="997" fill="#2b92db" r="3.5" stroke-width="0" /><circle cx="730" cy="995" fill="#2b92db" r="3.5" stroke-width="0" /><circle cx="728" cy="994" fill="#2b92db" r="3.5" stroke-width="0" /><circle cx="722" cy="992" fill="#2b92db" r="3.5" stroke-width="0" /><circle cx="716" cy="990" fill="#2b92db" r="3.5" stroke-width="0" /><circle cx="710" cy="988" fill="#2b92db" r="3.5" stroke-width="0" /><circle cx="705" cy="986" fill="#2b92db" r="3.5" stroke-width="0" /><circle cx="704" cy="985" fill="#2b92db" r="3.5" stroke-width="0" /><circle cx="698" cy="983" fill="#2b92db" r="3.5" stroke-width="0" /><circle cx="693" cy="981" fill="#2b92db" r="3.5" stroke-width="0" /><circle cx="688" cy="979" fill="#2b92db" r="3.5" stroke-width="0" /><circle cx="683" cy="977" fill="#2b92db" r="3.5" stroke-width="0" /><circle cx="678" cy="975" fill="#2b92db" r="3.5" stroke-width="0" /><circle cx="674" cy="973" fill="#2b92db" r="3.5" stroke-width="0" /></g><g class="e6"><circle cx="167" cy="466" fill="#911eb4" r="3.5" stroke-width="0" /><circle cx="165" cy="461" fill="#911eb4" r="3.5" stroke-width="0" /><circle cx="163" cy="456" fill="#911eb4" r="3.5" stroke-width="0" /><circle cx="161" cy="452" fill="#911eb4" r="3.5" stroke-width="0" /><circle cx="159" cy="447" fill="#911eb4" r="3.5" stroke-width="0" /><circle cx="157" cy="442" fill="#911eb4" r="3.5" stroke-width="0" /><circle cx="155" cy="437" fill="#911eb4" r="3.5" stroke-width="0" /><circle cx="153" cy="433" fill="#911eb4" r="3.5" stroke-width="0" /><circle cx="151" cy="428" fill="#911eb4" r="3.5" stroke-width="0" /><circle cx="150" cy="423" fill="#911eb4" r="3.5" stroke-width="0" /><circle cx="148" cy="418" fill="#911eb4" r="3.5" stroke-width="0" /><circle cx="146" cy="413" fill="#911eb4" r="3.5" stroke-width="0" /><circle cx="145" cy="409" fill="#911eb4" r="3.5" stroke-width="0" /><circle cx="143" cy="404" fill="#911eb4" r="3.5" stroke-width="0" /><circle cx="141" cy="399" fill="#911eb4" r="3.5" stroke-width="0" /><circle cx="139" cy="394" fill="#911eb4" r="3.5" stroke-width="0" /><circle cx="138" cy="390" fill="#911eb4" r="3.5" stroke-width="0" /><circle cx="136" cy="385" fill="#911eb4" r="3.5" stroke-width="0" /><circle cx="135" cy="380" fill="#911eb4" r="3.5" stroke-width="0" /><circle cx="133" cy="375" fill="#911eb4" r="3.5" stroke-width="0" /><circle cx="132" cy="371" fill="#911eb4" r="3.5" stroke-width="0" /><circle cx="131" cy="366" fill="#911eb4" r="3.5" stroke-width="0" /><circle cx="129" cy="361" fill="#911eb4" r="3.5" stroke-width="0" /><circle cx="128" cy="356" fill="#911eb4" r="3.5" stroke-width="0" /><circle cx="126" cy="351" fill="#911eb4" r="3.5" stroke-width="0" /><circle cx="125" cy="347" fill="#911eb4" r="3.5" stroke-width="0" /><circle cx="124" cy="342" fill="#911eb4" r="3.5" stroke-width="0" /><circle cx="122" cy="337" fill="#911eb4" r="3.5" stroke-width="0" /><circle cx="121" cy="332" fill="#911eb4" r="3.5" stroke-width="0" /><circle cx="120" cy="328" fill="#911eb4" r="3.5" stroke-width="0" /><circle cx="119" cy="323" fill="#911eb4" r="3.5" stroke-width="0" /><circle cx="117" cy="318" fill="#911eb4" r="3.5" stroke-width="0" /><circle cx="116" cy="313" fill="#911eb4" r="3.5" stroke-width="0" /><circle cx="115" cy="309" fill="#911eb4" r="3.5" stroke-width="0" /><circle cx="114" cy="304" fill="#911eb4" r="3.5" stroke-width="0" /><circle cx="113" cy="299" fill="#911eb4" r="3.5" stroke-width="0" /><circle cx="112" cy="294" fill="#911eb4" r="3.5" stroke-width="0" /><circle cx="111" cy="289" fill="#911eb4" r="3.5" stroke-width="0" /><circle cx="110" cy="285" fill="#911eb4" r="3.5" stroke-width="0" /><circle cx="109" cy="280" fill="#911eb4" r="3.5" stroke-width="0" /><circle cx="108" cy="275" fill="#911eb4" r="3.5" stroke-width="0" /></g><g class="e7"><circle cx="1020" cy="1050" fill="#3cb44B" r="3.5" stroke-width="0" /><circle cx="1025" cy="1050" fill="#3cb44B" r="3.5" stroke-width="0" /><circle cx="1030" cy="1050" fill="#3cb44B" r="3.5" stroke-width="0" /><circle cx="1034" cy="1050" fill="#3cb44B" r="3.5" stroke-width="0" /><circle cx="1039" cy="1050" fill="#3cb44B" r="3.5" stroke-width="0" /><circle cx="1044" cy="1050" fill="#3cb44B" r="3.5" stroke-width="0" /><circle cx="1049" cy="1050" fill="#3cb44B" r="3.5" stroke-width="0" /><circle cx="999" cy="1049" fill="#3cb44B" r="3.5" stroke-width="0" /><circle cx="1004" cy="1049" fill="#3cb44B" r="3.5" stroke-width="0" /><circle cx="1009" cy="1049" fill="#3cb44B" r="3.5" stroke-width="0" /><circle cx="1014" cy="1049" fill="#3cb44B" r="3.5" stroke-width="0" /><circle cx="1018" cy="1049" fill="#3cb44B" r="3.5" stroke-width="0" /><circle cx="984" cy="1048" fill="#3cb44B" r="3.5" stroke-width="0" /><circle cx="989" cy="1048" fill="#3cb44B" r="3.5" stroke-width="0" /><circle cx="994" cy="1048" fill="#3cb44B" r="3.5" stroke-width="0" /><circle cx="971" cy="1047" fill="#3cb44B" r="3.5" stroke-width="0" /><circle cx="975" cy="1047" fill="#3cb44B" r="3.5" stroke-width="0" /><circle cx="980" cy="1047" fill="#3cb44B" r="3.5" stroke-width="0" /><circle cx="962" cy="1046" fill="#3cb44B" r="3.5" stroke-width="0" /><circle cx="967" cy="1046" fill="#3cb44B" r="3.5" stroke-width="0" /><circle cx="950" cy="1045" fill="#3cb44B" r="3.5" stroke-width="0" /><circle cx="955" cy="1045" fill="#3cb44B" r="3.5" stroke-width="0" /><circle cx="941" cy="1044" fill="#3cb44B" r="3.5" stroke-width="0" /><circle cx="946" cy="1044" fill="#3cb44B" r="3.5" stroke-width="0" /><circle cx="934" cy="1043" fill="#3cb44B" r="3.5" stroke-width="0" /><circle cx="938" cy="1043" fill="#3cb44B" r="3.5" stroke-width="0" /><circle cx="927" cy="1042" fill="#3cb44B" r="3.5" stroke-width="0" /><circle cx="917" cy="1041" fill="#3cb44B" r="3.5" stroke-width="0" /><circle cx="922" cy="1041" fill="#3cb44B" r="3.5" stroke-width="0" /><circle cx="912" cy="1040" fill="#3cb44B" r="3.5" stroke-width="0" /><circle cx="903" cy="1039" fill="#3cb44B" r="3.5" stroke-width="0" /><circle cx="908" cy="1039" fill="#3cb44B" r="3.5" stroke-width="0" /><circle cx="900" cy="1038" fill="#3cb44B" r="3.5" stroke-width="0" /><circle cx="892" cy="1037" fill="#3cb44B" r="3.5" stroke-width="0" /><circle cx="885" cy="1036" fill="#3cb44B" r="3.5" stroke-width="0" /><circle cx="879" cy="1035" fill="#3cb44B" r="3.5" stroke-width="0" /><circle cx="873" cy="1034" fill="#3cb44B" r="3.5" stroke-width="0" /><circle cx="878" cy="1034" fill="#3cb44B" r="3.5" stroke-width="0" /><circle cx="871" cy="1033" fill="#3cb44B" r="3.5" stroke-width="0" /></g><g class="e8"><circle cx="107" cy="270" fill="#ff0000" r="3.5" stroke-width="0" /><circle cx="106" cy="266" fill="#ff0000" r="3.5" stroke-width="0" /><circle cx="105" cy="261" fill="#ff0000" r="3.5" stroke-width="0" /><circle cx="104" cy="256" fill="#ff0000" r="3.5" stroke-width="0" /><circle cx="104" cy="251" fill="#ff0000" r="3.5" stroke-width="0" /><circle cx="103" cy="246" fill="#ff0000" r="3.5" stroke-width="0" /><circle cx="102" cy="242" fill="#ff0000" r="3.5" stroke-width="0" /><circle cx="101" cy="237" fill="#ff0000" r="3.5" stroke-width="0" /><circle cx="101" cy="232" fill="#ff0000" r="3.5" stroke-width="0" /><circle cx="100" cy="227" fill="#ff0000" r="3.5" stroke-width="0" /><circle cx="99" cy="223" fill="#ff0000" r="3.5" stroke-width="0" /><circle cx="99" cy="218" fill="#ff0000" r="3.5" stroke-width="0" /><circle cx="98" cy="213" fill="#ff0000" r="3.5" stroke-width="0" /><circle cx="97" cy="208" fill="#ff0000" r="3.5" stroke-width="0" /><circle cx="97" cy="204" fill="#ff0000" r="3.5" stroke-width="0" /><circle cx="96" cy="199" fill="#ff0000" r="3.5" stroke-width="0" /><circle cx="96" cy="194" fill="#ff0000" r="3.5" stroke-width="0" /><circle cx="95" cy="189" fill="#ff0000" r="3.5" stroke-width="0" /><circle cx="95" cy="184" fill="#ff0000" r="3.5" stroke-width="0" /><circle cx="94" cy="180" fill="#ff0000" r="3.5" stroke-width="0" /><circle cx="94" cy="175" fill="#ff0000" r="3.5" stroke-width="0" /><circle cx="93" cy="170" fill="#ff0000" r="3.5" stroke-width="0" /><circle cx="93" cy="165" fill="#ff0000" r="3.5" stroke-width="0" /><circle cx="93" cy="161" fill="#ff0000" r="3.5" stroke-width="0" /><circle cx="92" cy="156" fill="#ff0000" r="3.5" stroke-width="0" /><circle cx="92" cy="151" fill="#ff0000" r="3.5" stroke-width="0" /><circle cx="92" cy="146" fill="#ff0000" r="3.5" stroke-width="0" /><circle cx="91" cy="141" fill="#ff0000" r="3.5" stroke-width="0" /><circle cx="91" cy="137" fill="#ff0000" r="3.5" stroke-width="0" /><circle cx="91" cy="132" fill="#ff0000" r="3.5" stroke-width="0" /><circle cx="91" cy="127" fill="#ff0000" r="3.5" stroke-width="0" /><circle cx="91" cy="122" fill="#ff0000" r="3.5" stroke-width="0" /><circle cx="90" cy="118" fill="#ff0000" r="3.5" stroke-width="0" /><circle cx="90" cy="113" fill="#ff0000" r="3.5" stroke-width="0" /><circle cx="90" cy="108" fill="#ff0000" r="3.5" stroke-width="0" /><circle cx="90" cy="103" fill="#ff0000" r="3.5" stroke-width="0" /><circle cx="90" cy="99" fill="#ff0000" r="3.5" stroke-width="0" /><circle cx="90" cy="94" fill="#ff0000" r="3.5" stroke-width="0" /></g></g></g></svg>