<?xml version="1.0" standalone="no"?>
<!DOCTYPE svg PUBLIC "-//W3C//DTD SVG 20010904//EN"
 "http://www.w3.org/TR/2001/REC-SVG-20010904/DTD/svg10.dtd">
<svg version="1.0" xmlns="http://www.w3.org/2000/svg"
 width="512.000000pt" height="512.000000pt" viewBox="0 0 512.000000 512.000000"
 preserveAspectRatio="xMidYMid meet">
<metadata>
Created by potrace 1.14, written by Peter Selinger 2001-2017
</metadata>
<g transform="translate(0.000000,512.000000) scale(0.100000,-0.100000)"
fill="#000000" stroke="none">
<path d="M1429 5013 c-15 -17 -26 -185 -15 -227 3 -13 15 -26 26 -29 36 -9 43
16 38 137 -6 136 -16 160 -49 119z"/>
<path d="M866 4925 c-3 -8 7 -29 21 -47 45 -55 250 -258 261 -258 6 0 18 7 27
17 16 15 7 26 -127 160 -137 138 -169 160 -182 128z"/>
<path d="M1577 4584 c-1 -1 -20 -4 -42 -6 -57 -7 -126 -40 -174 -83 -44 -40
-103 -131 -115 -178 -8 -33 -9 -3271 0 -3347 3 -30 10 -59 15 -65 5 -5 9 -17
9 -27 0 -31 116 -135 189 -170 l66 -31 1315 0 1315 0 66 30 c36 17 85 47 107
68 51 46 101 144 107 210 11 107 5 2878 -5 2891 -8 9 -73 12 -253 13 -263 2
-350 11 -399 45 -45 30 -104 111 -118 160 -6 24 -13 134 -14 259 -2 120 -6
220 -9 224 -6 5 -2053 13 -2060 7z m1988 -76 c2 -2 6 -86 9 -188 3 -102 8
-196 11 -210 3 -14 7 -34 9 -45 20 -105 141 -216 261 -240 17 -3 134 -8 260
-11 127 -3 235 -6 240 -8 7 -3 10 -465 10 -1427 l0 -1424 -27 -46 c-31 -53
-81 -99 -141 -131 l-42 -23 -1315 0 -1315 0 -48 23 c-63 31 -109 78 -143 149
l-29 58 1 1651 0 1651 27 54 c33 67 63 100 125 136 l47 28 235 5 c250 5 1820
4 1825 -2z"/>
<path d="M1705 3491 c-3 -6 3 -32 14 -58 11 -26 30 -83 42 -126 12 -44 29 -81
37 -85 15 -5 45 8 44 20 0 17 46 132 55 135 5 2 20 -32 33 -74 20 -63 29 -79
47 -81 27 -4 33 7 75 134 36 112 40 139 18 140 -27 1 -38 -16 -59 -86 -12 -38
-25 -71 -29 -74 -5 -3 -18 25 -30 63 -12 37 -28 76 -36 86 -21 29 -42 5 -66
-76 -26 -85 -43 -102 -54 -49 -2 14 -13 48 -22 75 -10 28 -19 51 -19 51 -1 8
-45 12 -50 5z"/>
<path d="M2143 3493 c-10 -4 -13 -39 -13 -133 0 -119 1 -128 20 -133 27 -7 33
5 34 69 2 60 26 90 58 73 15 -8 31 -53 27 -75 -9 -48 12 -80 44 -68 15 5 13
82 -4 146 -11 43 -44 58 -90 41 -32 -12 -37 -5 -33 44 2 31 -14 45 -43 36z"/>
<path d="M2374 3485 c-9 -23 3 -45 25 -45 23 0 35 28 20 46 -15 18 -38 18 -45
-1z"/>
<path d="M2504 3446 c-3 -13 -14 -26 -25 -29 -25 -7 -24 -37 1 -44 15 -4 20
-14 21 -42 1 -58 8 -85 26 -98 23 -18 58 -16 78 3 18 18 11 30 -20 36 -16 3
-20 12 -21 51 -2 43 0 47 22 47 33 0 33 37 0 46 -13 3 -28 16 -35 30 -14 31
-39 31 -47 0z"/>
<path d="M3175 3423 c-27 -7 -45 -23 -45 -40 0 -11 9 -13 36 -9 34 6 82 -9 69
-22 -3 -3 -24 -7 -47 -8 -69 -3 -101 -61 -57 -105 17 -17 29 -20 62 -15 57 8
58 8 89 0 21 -5 29 -2 34 11 4 9 2 20 -5 24 -6 4 -14 25 -17 47 -3 21 -7 49
-10 61 -7 36 -66 66 -109 56z m58 -127 c7 -17 -11 -36 -34 -36 -22 0 -33 16
-25 35 7 19 52 19 59 1z"/>
<path d="M2379 3403 c-1 -10 -2 -53 -3 -95 -1 -66 2 -78 17 -82 26 -6 39 27
36 97 -2 69 -12 97 -34 97 -8 0 -16 -8 -16 -17z"/>
<path d="M2694 3408 c-64 -31 -63 -147 2 -177 49 -22 124 -8 124 24 0 9 -13
13 -45 13 -46 0 -80 16 -69 33 3 5 24 8 47 8 76 -2 76 -2 72 34 -8 60 -74 93
-131 65z m65 -37 c22 -14 6 -39 -24 -35 -37 4 -43 13 -21 30 23 16 26 17 45 5z"/>
<path d="M2879 3407 c-7 -115 -2 -243 10 -254 18 -19 36 -11 37 15 1 12 2 34
3 49 1 21 4 24 13 15 17 -17 79 -15 104 3 28 19 48 69 40 99 -11 44 -55 86
-89 86 -18 0 -39 -4 -47 -9 -8 -6 -19 -7 -25 -3 -19 12 -45 12 -46 -1z m141
-56 c14 -27 13 -47 -6 -65 -24 -24 -61 -20 -80 9 -15 23 -15 27 0 50 21 31 70
35 86 6z"/>
<path d="M3363 3407 c-7 -11 -5 -189 2 -226 11 -57 41 -51 47 9 3 34 5 35 46
37 60 4 77 16 94 68 13 39 13 48 1 72 -8 16 -18 32 -23 37 -13 13 -159 15
-167 3z m130 -53 c25 -25 29 -56 8 -77 -14 -14 -58 -12 -76 3 -31 26 -9 100
29 100 7 0 25 -12 39 -26z"/>
<path d="M3629 3391 c-20 -20 -29 -40 -29 -61 0 -38 24 -86 50 -100 45 -24
130 -8 130 26 0 11 -12 14 -50 13 -44 -2 -89 15 -76 29 3 2 33 7 68 9 35 3 64
7 66 8 2 2 -3 18 -11 38 -30 71 -98 88 -148 38z m82 -21 c40 -22 5 -45 -41
-28 -24 9 -24 10 -6 24 24 17 22 17 47 4z"/>
<path d="M3843 3412 c-9 -5 -12 -36 -12 -94 0 -69 4 -88 16 -93 23 -8 30 3 36
55 6 62 13 74 47 87 31 12 35 19 21 41 -6 10 -13 11 -35 1 -20 -10 -29 -10
-38 -1 -14 14 -19 14 -35 4z"/>
<path d="M1728 2862 c-29 -3 -40 -34 -17 -48 8 -5 1229 -10 1337 -5 26 1 40
27 23 44 -9 9 -175 12 -664 12 -359 0 -664 -1 -679 -3z"/>
<path d="M3358 2862 c-43 -3 -48 -5 -48 -28 0 -22 4 -24 48 -25 132 -3 509 -4
547 -1 45 4 60 18 44 43 -7 11 -56 14 -276 14 -147 0 -289 -1 -315 -3z"/>
<path d="M1701 2533 c-7 -16 -7 -24 2 -30 16 -10 879 -11 900 -1 20 10 22 33
5 45 -7 4 -212 8 -455 8 l-442 0 -10 -22z"/>
<path d="M2928 2552 c-49 -3 -58 -6 -58 -22 0 -10 9 -22 21 -25 36 -12 629 -9
641 3 19 19 0 42 -34 43 -75 3 -517 4 -570 1z"/>
<path d="M3765 2550 c-37 -6 -46 -37 -14 -48 19 -7 94 -9 175 -3 25 1 36 21
24 41 -8 13 -131 20 -185 10z"/>
<path d="M1717 2192 c-13 -3 -17 -11 -15 -30 l3 -27 233 1 c244 1 264 4 242
44 -7 13 -41 15 -227 15 -120 0 -226 -1 -236 -3z"/>
<path d="M2372 2191 c-8 -5 -12 -17 -10 -27 5 -27 56 -29 610 -29 413 0 469 2
483 16 15 14 15 17 -1 30 -14 12 -107 14 -543 16 -289 1 -532 -1 -539 -6z"/>
<path d="M1740 1820 c-37 -5 -54 -35 -28 -51 7 -5 185 -8 395 -8 325 0 383 2
394 15 10 12 9 18 -3 31 -14 13 -62 16 -370 17 -194 1 -369 -1 -388 -4z"/>
<path d="M2790 1818 c-25 -9 -27 -45 -2 -52 31 -10 202 1 217 14 18 15 20 40
3 41 -52 5 -201 3 -218 -3z"/>
<path d="M3731 4537 c-24 -24 -13 -37 188 -217 46 -41 89 -79 95 -85 192 -176
279 -246 299 -243 13 2 23 11 25 24 3 21 -28 54 -203 209 -49 44 -112 101
-140 126 -27 25 -68 61 -89 80 -22 19 -46 42 -55 52 -18 21 -80 61 -97 63 -7
1 -17 -3 -23 -9z"/>
<path d="M820 4388 c-23 -8 -26 -30 -7 -46 12 -10 198 -15 223 -5 17 6 18 39
2 49 -17 10 -192 12 -218 2z"/>
<path d="M1030 4178 c-13 -13 -32 -43 -43 -68 -19 -41 -21 -68 -24 -320 -7
-574 -6 -3087 1 -3133 15 -101 70 -178 160 -225 l51 -27 1380 0 1380 0 58 28
c60 30 93 66 83 92 -8 23 -30 18 -94 -18 l-57 -32 -1360 -2 c-1294 -2 -1362
-1 -1400 16 -51 23 -93 65 -116 117 -18 39 -19 120 -21 1730 -3 1666 -3 1690
17 1734 11 25 26 51 33 59 18 18 11 65 -10 69 -9 2 -26 -7 -38 -20z"/>
<path d="M731 3919 c-42 -46 -58 -95 -62 -195 -1 -49 -3 -818 -3 -1709 -1
-1536 0 -1623 17 -1672 23 -65 81 -131 143 -163 l49 -25 1379 -3 1378 -2 54
24 c91 42 126 94 73 111 -12 4 -31 -3 -52 -19 -71 -55 -7 -52 -1457 -51 -1241
1 -1348 2 -1380 18 -52 25 -85 57 -112 107 l-23 45 0 1705 0 1705 34 61 c34
62 36 94 6 94 -9 0 -29 -14 -44 -31z"/>
</g>
</svg>
