<?xml version="1.0" encoding="utf-8" ?>
<svg baseProfile="full" height="1140px" style="font-size:15;font-family:Arial, san-serif;font-weight:bold;stroke:black;stroke-width:0;fill:#444444" version="1.1" width="1140px" xmlns="http://www.w3.org/2000/svg" xmlns:ev="http://www.w3.org/2001/xml-events" xmlns:xlink="http://www.w3.org/1999/xlink"><defs><clipPath id="areadografico"><rect height="1000" width="1000" x="70" y="70" /></clipPath></defs><g class="master"><g class="poligonos"><polygon clip-path="url(#areadografico)" fill="#000000" fill-opacity="0.1" points="70,1070 70,820 319,821 320,570 569,571 570,320 819,321 820,70 1069,71 1069,71 1069,321 819,321 819,571 569,571 569,821 319,821 320,1070" /><polygon clip-path="url(#areadografico)" fill="#ffffff" fill-opacity="0.1" points="320,1070 320,820 569,821 570,570 819,571 820,320 1069,321 1069,321 1069,571 819,571 819,821 569,821 570,1070" /><polygon clip-path="url(#areadografico)" fill="#000000" fill-opacity="0.1" points="70,820 320,820 319,571 570,570 569,321 820,320 819,71 819,71 569,71 569,321 319,321 319,571 70,570" /><polygon clip-path="url(#areadografico)" fill="#ffffff" fill-opacity="0.1" points="570,1070 570,820 819,821 820,570 1069,571 1069,571 1069,821 819,821 820,1070" /><polygon clip-path="url(#areadografico)" fill="#000000" fill-opacity="0.1" points="70,570 320,570 319,321 570,320 569,71 569,71 319,71 319,321 70,320" /><polygon clip-path="url(#areadografico)" fill="#ffffff" fill-opacity="0.1" points="820,1070 820,820 1069,821 1069,1070" /><polygon clip-path="url(#areadografico)" fill="#000000" fill-opacity="0.1" points="70,320 320,320 319,71 70,71" /></g><g class="linhas"><line fill-opacity="0.3" stroke="#999999" stroke-width="1" x1="1070" x2="1070" y1="1070" y2="70" /><line fill-opacity="0.3" stroke="#999999" stroke-width="1" x1="70" x2="1070" y1="70" y2="70" /><line fill-opacity="0.3" stroke="#999999" stroke-width="1" x1="970" x2="970" y1="1070" y2="70" /><line fill-opacity="0.3" stroke="#999999" stroke-width="1" x1="70" x2="1070" y1="170" y2="170" /><line fill-opacity="0.3" stroke="#999999" stroke-width="1" x1="870" x2="870" y1="1070" y2="70" /><line fill-opacity="0.3" stroke="#999999" stroke-width="1" x1="70" x2="1070" y1="270" y2="270" /><line fill-opacity="0.3" stroke="#999999" stroke-width="1" x1="770" x2="770" y1="1070" y2="70" /><line fill-opacity="0.3" stroke="#999999" stroke-width="1" x1="70" x2="1070" y1="370" y2="370" /><line fill-opacity="0.3" stroke="#999999" stroke-width="1" x1="670" x2="670" y1="1070" y2="70" /><line fill-opacity="0.3" stroke="#999999" stroke-width="1" x1="70" x2="1070" y1="470" y2="470" /><line fill-opacity="0.3" stroke="#999999" stroke-width="1" x1="570" x2="570" y1="1070" y2="70" /><line fill-opacity="0.3" stroke="#999999" stroke-width="1" x1="70" x2="1070" y1="570" y2="570" /><line fill-opacity="0.3" stroke="#999999" stroke-width="1" x1="470" x2="470" y1="1070" y2="70" /><line fill-opacity="0.3" stroke="#999999" stroke-width="1" x1="70" x2="1070" y1="670" y2="670" /><line fill-opacity="0.3" stroke="#999999" stroke-width="1" x1="370" x2="370" y1="1070" y2="70" /><line fill-opacity="0.3" stroke="#999999" stroke-width="1" x1="70" x2="1070" y1="770" y2="770" /><line fill-opacity="0.3" stroke="#999999" stroke-width="1" x1="270" x2="270" y1="1070" y2="70" /><line fill-opacity="0.3" stroke="#999999" stroke-width="1" x1="70" x2="1070" y1="870" y2="870" /><line fill-opacity="0.3" stroke="#999999" stroke-width="1" x1="170" x2="170" y1="1070" y2="70" /><line fill-opacity="0.3" stroke="#999999" stroke-width="1" x1="70" x2="1070" y1="970" y2="970" /><line fill-opacity="0.3" stroke="#000000" stroke-width="1" x1="70" x2="70" y1="1071" y2="69" /><line fill-opacity="0.3" stroke="#000000" stroke-width="1" x1="69" x2="1071" y1="1070" y2="1070" /></g><g class="textos"><text x="1050" y="1110">1000</text><text x="10" y="71">1000</text><text x="950" y="1110">900</text><text x="10" y="171">900</text><text x="850" y="1110">800</text><text x="10" y="271">800</text><text x="750" y="1110">700</text><text x="10" y="371">700</text><text x="650" y="1110">600</text><text x="10" y="471">600</text><text x="550" y="1110">500</text><text x="10" y="571">500</text><text x="450" y="1110">400</text><text x="10" y="671">400</text><text x="350" y="1110">300</text><text x="10" y="771">300</text><text x="250" y="1110">200</text><text x="10" y="871">200</text><text x="150" y="1110">100</text><text x="10" y="971">100</text><text x="50" y="1111">0</text><text x="9" y="1071">0</text></g><g class="especies"><g class="e0"><circle cx="227" cy="971" fill="#3cb44B" r="3.5" stroke-width="0" /><circle cx="111" cy="941" fill="#3cb44B" r="3.5" stroke-width="0" /><circle cx="145" cy="877" fill="#3cb44B" r="3.5" stroke-width="0" /><circle cx="233" cy="841" fill="#3cb44B" r="3.5" stroke-width="0" /><circle cx="487" cy="740" fill="#3cb44B" r="3.5" stroke-width="0" /><circle cx="686" cy="473" fill="#3cb44B" r="3.5" stroke-width="0" /><circle cx="636" cy="452" fill="#3cb44B" r="3.5" stroke-width="0" /><circle cx="752" cy="363" fill="#3cb44B" r="3.5" stroke-width="0" /><circle cx="598" cy="350" fill="#3cb44B" r="3.5" stroke-width="0" /><circle cx="589" cy="346" fill="#3cb44B" r="3.5" stroke-width="0" /><circle cx="870" cy="296" fill="#3cb44B" r="3.5" stroke-width="0" /><circle cx="923" cy="218" fill="#3cb44B" r="3.5" stroke-width="0" /><circle cx="920" cy="74" fill="#3cb44B" r="3.5" stroke-width="0" /></g><g class="e1"><circle cx="511" cy="1034" fill="#ff0000" r="3.5" stroke-width="0" /><circle cx="326" cy="848" fill="#ff0000" r="3.5" stroke-width="0" /><circle cx="651" cy="704" fill="#ff0000" r="3.5" stroke-width="0" /><circle cx="579" cy="702" fill="#ff0000" r="3.5" stroke-width="0" /><circle cx="823" cy="566" fill="#ff0000" r="3.5" stroke-width="0" /><circle cx="872" cy="426" fill="#ff0000" r="3.5" stroke-width="0" /><circle cx="1038" cy="374" fill="#ff0000" r="3.5" stroke-width="0" /><circle cx="957" cy="347" fill="#ff0000" r="3.5" stroke-width="0" /></g><g class="e2"><circle cx="317" cy="762" fill="#2b92db" r="3.5" stroke-width="0" /><circle cx="124" cy="755" fill="#2b92db" r="3.5" stroke-width="0" /><circle cx="524" cy="554" fill="#2b92db" r="3.5" stroke-width="0" /><circle cx="425" cy="463" fill="#2b92db" r="3.5" stroke-width="0" /><circle cx="710" cy="255" fill="#2b92db" r="3.5" stroke-width="0" /><circle cx="718" cy="252" fill="#2b92db" r="3.5" stroke-width="0" /><circle cx="685" cy="160" fill="#2b92db" r="3.5" stroke-width="0" /></g><g class="e3"><circle cx="763" cy="1048" fill="#911eb4" r="3.5" stroke-width="0" /><circle cx="612" cy="1028" fill="#911eb4" r="3.5" stroke-width="0" /><circle cx="589" cy="1020" fill="#911eb4" r="3.5" stroke-width="0" /><circle cx="743" cy="932" fill="#911eb4" r="3.5" stroke-width="0" /><circle cx="697" cy="896" fill="#911eb4" r="3.5" stroke-width="0" /><circle cx="718" cy="874" fill="#911eb4" r="3.5" stroke-width="0" /><circle cx="694" cy="871" fill="#911eb4" r="3.5" stroke-width="0" /><circle cx="1052" cy="694" fill="#911eb4" r="3.5" stroke-width="0" /></g><g class="e4"><circle cx="261" cy="502" fill="#3cb44B" r="3.5" stroke-width="0" /><circle cx="191" cy="487" fill="#3cb44B" r="3.5" stroke-width="0" /><circle cx="110" cy="399" fill="#3cb44B" r="3.5" stroke-width="0" /><circle cx="149" cy="321" fill="#3cb44B" r="3.5" stroke-width="0" /><circle cx="224" cy="321" fill="#3cb44B" r="3.5" stroke-width="0" /><circle cx="351" cy="272" fill="#3cb44B" r="3.5" stroke-width="0" /><circle cx="410" cy="204" fill="#3cb44B" r="3.5" stroke-width="0" /></g><g class="e5"><circle cx="1048" cy="1033" fill="#ff0000" r="3.5" stroke-width="0" /><circle cx="1011" cy="964" fill="#ff0000" r="3.5" stroke-width="0" /><circle cx="969" cy="955" fill="#ff0000" r="3.5" stroke-width="0" /><circle cx="1041" cy="936" fill="#ff0000" r="3.5" stroke-width="0" /><circle cx="829" cy="835" fill="#ff0000" r="3.5" stroke-width="0" /></g><g class="e6"><circle cx="258" cy="285" fill="#2b92db" r="3.5" stroke-width="0" /><circle cx="222" cy="120" fill="#2b92db" r="3.5" stroke-width="0" /></g></g></g></svg>