<?xml version="1.0" encoding="utf-8" ?>
<svg baseProfile="full" height="1140px" style="font-size:15;font-family:Arial, san-serif;font-weight:bold;stroke:black;stroke-width:0;fill:#444444" version="1.1" width="1140px" xmlns="http://www.w3.org/2000/svg" xmlns:ev="http://www.w3.org/2001/xml-events" xmlns:xlink="http://www.w3.org/1999/xlink"><defs><clipPath id="areadografico"><rect height="1000" width="1000" x="70" y="70" /></clipPath></defs><g class="master"><g class="poligonos"><polygon clip-path="url(#areadografico)" fill="#000000" fill-opacity="0.1" points="70,1070 70,570 569,571 570,70 1069,71 1069,71 1069,571 569,571 570,1070" /><polygon clip-path="url(#areadografico)" fill="#ffffff" fill-opacity="0.1" points="570,1070 570,570 1069,571 1069,1070" /><polygon clip-path="url(#areadografico)" fill="#000000" fill-opacity="0.1" points="70,570 570,570 569,71 70,71" /></g><g class="linhas"><line fill-opacity="0.3" stroke="#999999" stroke-width="1" x1="1070" x2="1070" y1="1070" y2="70" /><line fill-opacity="0.3" stroke="#999999" stroke-width="1" x1="70" x2="1070" y1="70" y2="70" /><line fill-opacity="0.3" stroke="#999999" stroke-width="1" x1="970" x2="970" y1="1070" y2="70" /><line fill-opacity="0.3" stroke="#999999" stroke-width="1" x1="70" x2="1070" y1="170" y2="170" /><line fill-opacity="0.3" stroke="#999999" stroke-width="1" x1="870" x2="870" y1="1070" y2="70" /><line fill-opacity="0.3" stroke="#999999" stroke-width="1" x1="70" x2="1070" y1="270" y2="270" /><line fill-opacity="0.3" stroke="#999999" stroke-width="1" x1="770" x2="770" y1="1070" y2="70" /><line fill-opacity="0.3" stroke="#999999" stroke-width="1" x1="70" x2="1070" y1="370" y2="370" /><line fill-opacity="0.3" stroke="#999999" stroke-width="1" x1="670" x2="670" y1="1070" y2="70" /><line fill-opacity="0.3" stroke="#999999" stroke-width="1" x1="70" x2="1070" y1="470" y2="470" /><line fill-opacity="0.3" stroke="#999999" stroke-width="1" x1="570" x2="570" y1="1070" y2="70" /><line fill-opacity="0.3" stroke="#999999" stroke-width="1" x1="70" x2="1070" y1="570" y2="570" /><line fill-opacity="0.3" stroke="#999999" stroke-width="1" x1="470" x2="470" y1="1070" y2="70" /><line fill-opacity="0.3" stroke="#999999" stroke-width="1" x1="70" x2="1070" y1="670" y2="670" /><line fill-opacity="0.3" stroke="#999999" stroke-width="1" x1="370" x2="370" y1="1070" y2="70" /><line fill-opacity="0.3" stroke="#999999" stroke-width="1" x1="70" x2="1070" y1="770" y2="770" /><line fill-opacity="0.3" stroke="#999999" stroke-width="1" x1="270" x2="270" y1="1070" y2="70" /><line fill-opacity="0.3" stroke="#999999" stroke-width="1" x1="70" x2="1070" y1="870" y2="870" /><line fill-opacity="0.3" stroke="#999999" stroke-width="1" x1="170" x2="170" y1="1070" y2="70" /><line fill-opacity="0.3" stroke="#999999" stroke-width="1" x1="70" x2="1070" y1="970" y2="970" /><line fill-opacity="0.3" stroke="#000000" stroke-width="1" x1="70" x2="70" y1="1071" y2="69" /><line fill-opacity="0.3" stroke="#000000" stroke-width="1" x1="69" x2="1071" y1="1070" y2="1070" /></g><g class="textos"><text x="1050" y="1110">1000</text><text x="10" y="71">1000</text><text x="950" y="1110">900</text><text x="10" y="171">900</text><text x="850" y="1110">800</text><text x="10" y="271">800</text><text x="750" y="1110">700</text><text x="10" y="371">700</text><text x="650" y="1110">600</text><text x="10" y="471">600</text><text x="550" y="1110">500</text><text x="10" y="571">500</text><text x="450" y="1110">400</text><text x="10" y="671">400</text><text x="350" y="1110">300</text><text x="10" y="771">300</text><text x="250" y="1110">200</text><text x="10" y="871">200</text><text x="150" y="1110">100</text><text x="10" y="971">100</text><text x="50" y="1111">0</text><text x="9" y="1071">0</text></g><g class="especies"><g class="e0"><circle cx="299" cy="1062" fill="#3cb44B" r="3.5" stroke-width="0" /><circle cx="350" cy="1036" fill="#3cb44B" r="3.5" stroke-width="0" /><circle cx="504" cy="1034" fill="#3cb44B" r="3.5" stroke-width="0" /><circle cx="536" cy="1033" fill="#3cb44B" r="3.5" stroke-width="0" /><circle cx="549" cy="1033" fill="#3cb44B" r="3.5" stroke-width="0" /><circle cx="211" cy="1025" fill="#3cb44B" r="3.5" stroke-width="0" /><circle cx="171" cy="1022" fill="#3cb44B" r="3.5" stroke-width="0" /><circle cx="200" cy="1021" fill="#3cb44B" r="3.5" stroke-width="0" /><circle cx="319" cy="1011" fill="#3cb44B" r="3.5" stroke-width="0" /><circle cx="322" cy="1010" fill="#3cb44B" r="3.5" stroke-width="0" /><circle cx="399" cy="1000" fill="#3cb44B" r="3.5" stroke-width="0" /><circle cx="559" cy="977" fill="#3cb44B" r="3.5" stroke-width="0" /><circle cx="301" cy="960" fill="#3cb44B" r="3.5" stroke-width="0" /><circle cx="116" cy="951" fill="#3cb44B" r="3.5" stroke-width="0" /><circle cx="107" cy="940" fill="#3cb44B" r="3.5" stroke-width="0" /><circle cx="366" cy="939" fill="#3cb44B" r="3.5" stroke-width="0" /><circle cx="408" cy="921" fill="#3cb44B" r="3.5" stroke-width="0" /><circle cx="313" cy="910" fill="#3cb44B" r="3.5" stroke-width="0" /><circle cx="522" cy="906" fill="#3cb44B" r="3.5" stroke-width="0" /><circle cx="115" cy="905" fill="#3cb44B" r="3.5" stroke-width="0" /><circle cx="247" cy="898" fill="#3cb44B" r="3.5" stroke-width="0" /><circle cx="453" cy="862" fill="#3cb44B" r="3.5" stroke-width="0" /><circle cx="185" cy="845" fill="#3cb44B" r="3.5" stroke-width="0" /><circle cx="476" cy="841" fill="#3cb44B" r="3.5" stroke-width="0" /><circle cx="230" cy="834" fill="#3cb44B" r="3.5" stroke-width="0" /><circle cx="227" cy="833" fill="#3cb44B" r="3.5" stroke-width="0" /><circle cx="216" cy="829" fill="#3cb44B" r="3.5" stroke-width="0" /><circle cx="410" cy="828" fill="#3cb44B" r="3.5" stroke-width="0" /><circle cx="204" cy="815" fill="#3cb44B" r="3.5" stroke-width="0" /><circle cx="172" cy="811" fill="#3cb44B" r="3.5" stroke-width="0" /><circle cx="121" cy="810" fill="#3cb44B" r="3.5" stroke-width="0" /><circle cx="285" cy="806" fill="#3cb44B" r="3.5" stroke-width="0" /><circle cx="70" cy="804" fill="#3cb44B" r="3.5" stroke-width="0" /><circle cx="354" cy="803" fill="#3cb44B" r="3.5" stroke-width="0" /><circle cx="519" cy="803" fill="#3cb44B" r="3.5" stroke-width="0" /><circle cx="126" cy="802" fill="#3cb44B" r="3.5" stroke-width="0" /><circle cx="211" cy="794" fill="#3cb44B" r="3.5" stroke-width="0" /><circle cx="520" cy="784" fill="#3cb44B" r="3.5" stroke-width="0" /><circle cx="299" cy="779" fill="#3cb44B" r="3.5" stroke-width="0" /><circle cx="280" cy="760" fill="#3cb44B" r="3.5" stroke-width="0" /><circle cx="187" cy="753" fill="#3cb44B" r="3.5" stroke-width="0" /><circle cx="393" cy="746" fill="#3cb44B" r="3.5" stroke-width="0" /><circle cx="270" cy="736" fill="#3cb44B" r="3.5" stroke-width="0" /><circle cx="315" cy="713" fill="#3cb44B" r="3.5" stroke-width="0" /><circle cx="420" cy="704" fill="#3cb44B" r="3.5" stroke-width="0" /><circle cx="133" cy="693" fill="#3cb44B" r="3.5" stroke-width="0" /><circle cx="335" cy="689" fill="#3cb44B" r="3.5" stroke-width="0" /><circle cx="427" cy="682" fill="#3cb44B" r="3.5" stroke-width="0" /><circle cx="478" cy="682" fill="#3cb44B" r="3.5" stroke-width="0" /><circle cx="74" cy="670" fill="#3cb44B" r="3.5" stroke-width="0" /><circle cx="486" cy="669" fill="#3cb44B" r="3.5" stroke-width="0" /><circle cx="361" cy="660" fill="#3cb44B" r="3.5" stroke-width="0" /><circle cx="325" cy="649" fill="#3cb44B" r="3.5" stroke-width="0" /><circle cx="198" cy="639" fill="#3cb44B" r="3.5" stroke-width="0" /><circle cx="493" cy="629" fill="#3cb44B" r="3.5" stroke-width="0" /><circle cx="162" cy="618" fill="#3cb44B" r="3.5" stroke-width="0" /><circle cx="449" cy="613" fill="#3cb44B" r="3.5" stroke-width="0" /><circle cx="105" cy="612" fill="#3cb44B" r="3.5" stroke-width="0" /><circle cx="232" cy="611" fill="#3cb44B" r="3.5" stroke-width="0" /><circle cx="403" cy="606" fill="#3cb44B" r="3.5" stroke-width="0" /><circle cx="328" cy="605" fill="#3cb44B" r="3.5" stroke-width="0" /><circle cx="233" cy="591" fill="#3cb44B" r="3.5" stroke-width="0" /><circle cx="160" cy="579" fill="#3cb44B" r="3.5" stroke-width="0" /><circle cx="366" cy="575" fill="#3cb44B" r="3.5" stroke-width="0" /><circle cx="701" cy="568" fill="#3cb44B" r="3.5" stroke-width="0" /><circle cx="757" cy="566" fill="#3cb44B" r="3.5" stroke-width="0" /><circle cx="833" cy="556" fill="#3cb44B" r="3.5" stroke-width="0" /><circle cx="714" cy="552" fill="#3cb44B" r="3.5" stroke-width="0" /><circle cx="897" cy="537" fill="#3cb44B" r="3.5" stroke-width="0" /><circle cx="963" cy="532" fill="#3cb44B" r="3.5" stroke-width="0" /><circle cx="1006" cy="528" fill="#3cb44B" r="3.5" stroke-width="0" /><circle cx="998" cy="527" fill="#3cb44B" r="3.5" stroke-width="0" /><circle cx="683" cy="526" fill="#3cb44B" r="3.5" stroke-width="0" /><circle cx="817" cy="520" fill="#3cb44B" r="3.5" stroke-width="0" /><circle cx="911" cy="520" fill="#3cb44B" r="3.5" stroke-width="0" /><circle cx="688" cy="516" fill="#3cb44B" r="3.5" stroke-width="0" /><circle cx="886" cy="515" fill="#3cb44B" r="3.5" stroke-width="0" /><circle cx="716" cy="514" fill="#3cb44B" r="3.5" stroke-width="0" /><circle cx="708" cy="512" fill="#3cb44B" r="3.5" stroke-width="0" /><circle cx="850" cy="509" fill="#3cb44B" r="3.5" stroke-width="0" /><circle cx="683" cy="508" fill="#3cb44B" r="3.5" stroke-width="0" /><circle cx="669" cy="499" fill="#3cb44B" r="3.5" stroke-width="0" /><circle cx="571" cy="498" fill="#3cb44B" r="3.5" stroke-width="0" /><circle cx="740" cy="498" fill="#3cb44B" r="3.5" stroke-width="0" /><circle cx="688" cy="492" fill="#3cb44B" r="3.5" stroke-width="0" /><circle cx="1049" cy="487" fill="#3cb44B" r="3.5" stroke-width="0" /><circle cx="822" cy="477" fill="#3cb44B" r="3.5" stroke-width="0" /><circle cx="979" cy="463" fill="#3cb44B" r="3.5" stroke-width="0" /><circle cx="910" cy="460" fill="#3cb44B" r="3.5" stroke-width="0" /><circle cx="1016" cy="449" fill="#3cb44B" r="3.5" stroke-width="0" /><circle cx="723" cy="439" fill="#3cb44B" r="3.5" stroke-width="0" /><circle cx="773" cy="436" fill="#3cb44B" r="3.5" stroke-width="0" /><circle cx="596" cy="417" fill="#3cb44B" r="3.5" stroke-width="0" /><circle cx="580" cy="407" fill="#3cb44B" r="3.5" stroke-width="0" /><circle cx="667" cy="405" fill="#3cb44B" r="3.5" stroke-width="0" /><circle cx="840" cy="399" fill="#3cb44B" r="3.5" stroke-width="0" /><circle cx="753" cy="388" fill="#3cb44B" r="3.5" stroke-width="0" /><circle cx="588" cy="382" fill="#3cb44B" r="3.5" stroke-width="0" /><circle cx="690" cy="377" fill="#3cb44B" r="3.5" stroke-width="0" /><circle cx="625" cy="367" fill="#3cb44B" r="3.5" stroke-width="0" /><circle cx="738" cy="356" fill="#3cb44B" r="3.5" stroke-width="0" /><circle cx="654" cy="341" fill="#3cb44B" r="3.5" stroke-width="0" /><circle cx="1002" cy="338" fill="#3cb44B" r="3.5" stroke-width="0" /><circle cx="975" cy="330" fill="#3cb44B" r="3.5" stroke-width="0" /><circle cx="765" cy="315" fill="#3cb44B" r="3.5" stroke-width="0" /><circle cx="791" cy="300" fill="#3cb44B" r="3.5" stroke-width="0" /><circle cx="724" cy="289" fill="#3cb44B" r="3.5" stroke-width="0" /><circle cx="734" cy="269" fill="#3cb44B" r="3.5" stroke-width="0" /><circle cx="892" cy="269" fill="#3cb44B" r="3.5" stroke-width="0" /><circle cx="788" cy="268" fill="#3cb44B" r="3.5" stroke-width="0" /><circle cx="705" cy="260" fill="#3cb44B" r="3.5" stroke-width="0" /><circle cx="835" cy="248" fill="#3cb44B" r="3.5" stroke-width="0" /><circle cx="728" cy="243" fill="#3cb44B" r="3.5" stroke-width="0" /><circle cx="655" cy="240" fill="#3cb44B" r="3.5" stroke-width="0" /><circle cx="823" cy="235" fill="#3cb44B" r="3.5" stroke-width="0" /><circle cx="952" cy="233" fill="#3cb44B" r="3.5" stroke-width="0" /><circle cx="1027" cy="231" fill="#3cb44B" r="3.5" stroke-width="0" /><circle cx="880" cy="225" fill="#3cb44B" r="3.5" stroke-width="0" /><circle cx="862" cy="210" fill="#3cb44B" r="3.5" stroke-width="0" /><circle cx="842" cy="197" fill="#3cb44B" r="3.5" stroke-width="0" /><circle cx="1023" cy="192" fill="#3cb44B" r="3.5" stroke-width="0" /><circle cx="917" cy="191" fill="#3cb44B" r="3.5" stroke-width="0" /><circle cx="797" cy="190" fill="#3cb44B" r="3.5" stroke-width="0" /><circle cx="947" cy="184" fill="#3cb44B" r="3.5" stroke-width="0" /><circle cx="879" cy="169" fill="#3cb44B" r="3.5" stroke-width="0" /><circle cx="1065" cy="169" fill="#3cb44B" r="3.5" stroke-width="0" /><circle cx="596" cy="164" fill="#3cb44B" r="3.5" stroke-width="0" /><circle cx="947" cy="163" fill="#3cb44B" r="3.5" stroke-width="0" /><circle cx="611" cy="158" fill="#3cb44B" r="3.5" stroke-width="0" /><circle cx="647" cy="148" fill="#3cb44B" r="3.5" stroke-width="0" /><circle cx="807" cy="137" fill="#3cb44B" r="3.5" stroke-width="0" /><circle cx="975" cy="131" fill="#3cb44B" r="3.5" stroke-width="0" /><circle cx="671" cy="127" fill="#3cb44B" r="3.5" stroke-width="0" /><circle cx="780" cy="126" fill="#3cb44B" r="3.5" stroke-width="0" /><circle cx="836" cy="114" fill="#3cb44B" r="3.5" stroke-width="0" /><circle cx="851" cy="113" fill="#3cb44B" r="3.5" stroke-width="0" /><circle cx="731" cy="110" fill="#3cb44B" r="3.5" stroke-width="0" /><circle cx="974" cy="106" fill="#3cb44B" r="3.5" stroke-width="0" /><circle cx="874" cy="95" fill="#3cb44B" r="3.5" stroke-width="0" /><circle cx="898" cy="88" fill="#3cb44B" r="3.5" stroke-width="0" /><circle cx="878" cy="80" fill="#3cb44B" r="3.5" stroke-width="0" /><circle cx="755" cy="73" fill="#3cb44B" r="3.5" stroke-width="0" /></g><g class="e1"><circle cx="633" cy="1044" fill="#ff0000" r="3.5" stroke-width="0" /><circle cx="824" cy="1044" fill="#ff0000" r="3.5" stroke-width="0" /><circle cx="878" cy="1042" fill="#ff0000" r="3.5" stroke-width="0" /><circle cx="733" cy="1035" fill="#ff0000" r="3.5" stroke-width="0" /><circle cx="728" cy="1021" fill="#ff0000" r="3.5" stroke-width="0" /><circle cx="961" cy="1007" fill="#ff0000" r="3.5" stroke-width="0" /><circle cx="909" cy="982" fill="#ff0000" r="3.5" stroke-width="0" /><circle cx="968" cy="979" fill="#ff0000" r="3.5" stroke-width="0" /><circle cx="851" cy="978" fill="#ff0000" r="3.5" stroke-width="0" /><circle cx="689" cy="977" fill="#ff0000" r="3.5" stroke-width="0" /><circle cx="855" cy="975" fill="#ff0000" r="3.5" stroke-width="0" /><circle cx="814" cy="968" fill="#ff0000" r="3.5" stroke-width="0" /><circle cx="888" cy="967" fill="#ff0000" r="3.5" stroke-width="0" /><circle cx="713" cy="963" fill="#ff0000" r="3.5" stroke-width="0" /><circle cx="694" cy="958" fill="#ff0000" r="3.5" stroke-width="0" /><circle cx="733" cy="935" fill="#ff0000" r="3.5" stroke-width="0" /><circle cx="727" cy="921" fill="#ff0000" r="3.5" stroke-width="0" /><circle cx="994" cy="921" fill="#ff0000" r="3.5" stroke-width="0" /><circle cx="726" cy="919" fill="#ff0000" r="3.5" stroke-width="0" /><circle cx="754" cy="910" fill="#ff0000" r="3.5" stroke-width="0" /><circle cx="763" cy="908" fill="#ff0000" r="3.5" stroke-width="0" /><circle cx="848" cy="899" fill="#ff0000" r="3.5" stroke-width="0" /><circle cx="780" cy="896" fill="#ff0000" r="3.5" stroke-width="0" /><circle cx="927" cy="883" fill="#ff0000" r="3.5" stroke-width="0" /><circle cx="789" cy="876" fill="#ff0000" r="3.5" stroke-width="0" /><circle cx="680" cy="864" fill="#ff0000" r="3.5" stroke-width="0" /><circle cx="630" cy="852" fill="#ff0000" r="3.5" stroke-width="0" /><circle cx="893" cy="846" fill="#ff0000" r="3.5" stroke-width="0" /><circle cx="952" cy="832" fill="#ff0000" r="3.5" stroke-width="0" /><circle cx="1017" cy="826" fill="#ff0000" r="3.5" stroke-width="0" /><circle cx="912" cy="825" fill="#ff0000" r="3.5" stroke-width="0" /><circle cx="595" cy="797" fill="#ff0000" r="3.5" stroke-width="0" /><circle cx="585" cy="783" fill="#ff0000" r="3.5" stroke-width="0" /><circle cx="646" cy="764" fill="#ff0000" r="3.5" stroke-width="0" /><circle cx="656" cy="749" fill="#ff0000" r="3.5" stroke-width="0" /><circle cx="919" cy="749" fill="#ff0000" r="3.5" stroke-width="0" /><circle cx="790" cy="746" fill="#ff0000" r="3.5" stroke-width="0" /><circle cx="796" cy="734" fill="#ff0000" r="3.5" stroke-width="0" /><circle cx="578" cy="730" fill="#ff0000" r="3.5" stroke-width="0" /><circle cx="752" cy="725" fill="#ff0000" r="3.5" stroke-width="0" /><circle cx="696" cy="722" fill="#ff0000" r="3.5" stroke-width="0" /><circle cx="794" cy="703" fill="#ff0000" r="3.5" stroke-width="0" /><circle cx="926" cy="703" fill="#ff0000" r="3.5" stroke-width="0" /><circle cx="1005" cy="698" fill="#ff0000" r="3.5" stroke-width="0" /><circle cx="1069" cy="686" fill="#ff0000" r="3.5" stroke-width="0" /><circle cx="934" cy="685" fill="#ff0000" r="3.5" stroke-width="0" /><circle cx="760" cy="677" fill="#ff0000" r="3.5" stroke-width="0" /><circle cx="1041" cy="673" fill="#ff0000" r="3.5" stroke-width="0" /><circle cx="912" cy="667" fill="#ff0000" r="3.5" stroke-width="0" /><circle cx="724" cy="665" fill="#ff0000" r="3.5" stroke-width="0" /><circle cx="791" cy="660" fill="#ff0000" r="3.5" stroke-width="0" /><circle cx="861" cy="659" fill="#ff0000" r="3.5" stroke-width="0" /><circle cx="930" cy="649" fill="#ff0000" r="3.5" stroke-width="0" /><circle cx="892" cy="646" fill="#ff0000" r="3.5" stroke-width="0" /><circle cx="878" cy="637" fill="#ff0000" r="3.5" stroke-width="0" /><circle cx="702" cy="621" fill="#ff0000" r="3.5" stroke-width="0" /><circle cx="835" cy="620" fill="#ff0000" r="3.5" stroke-width="0" /><circle cx="575" cy="618" fill="#ff0000" r="3.5" stroke-width="0" /><circle cx="847" cy="616" fill="#ff0000" r="3.5" stroke-width="0" /><circle cx="1023" cy="607" fill="#ff0000" r="3.5" stroke-width="0" /><circle cx="654" cy="606" fill="#ff0000" r="3.5" stroke-width="0" /><circle cx="828" cy="602" fill="#ff0000" r="3.5" stroke-width="0" /><circle cx="1061" cy="587" fill="#ff0000" r="3.5" stroke-width="0" /><circle cx="630" cy="583" fill="#ff0000" r="3.5" stroke-width="0" /><circle cx="937" cy="575" fill="#ff0000" r="3.5" stroke-width="0" /><circle cx="999" cy="574" fill="#ff0000" r="3.5" stroke-width="0" /><circle cx="1047" cy="573" fill="#ff0000" r="3.5" stroke-width="0" /></g><g class="e2"><circle cx="333" cy="566" fill="#2b92db" r="3.5" stroke-width="0" /><circle cx="272" cy="562" fill="#2b92db" r="3.5" stroke-width="0" /><circle cx="215" cy="545" fill="#2b92db" r="3.5" stroke-width="0" /><circle cx="569" cy="541" fill="#2b92db" r="3.5" stroke-width="0" /><circle cx="510" cy="539" fill="#2b92db" r="3.5" stroke-width="0" /><circle cx="382" cy="536" fill="#2b92db" r="3.5" stroke-width="0" /><circle cx="351" cy="530" fill="#2b92db" r="3.5" stroke-width="0" /><circle cx="129" cy="527" fill="#2b92db" r="3.5" stroke-width="0" /><circle cx="545" cy="521" fill="#2b92db" r="3.5" stroke-width="0" /><circle cx="283" cy="519" fill="#2b92db" r="3.5" stroke-width="0" /><circle cx="461" cy="519" fill="#2b92db" r="3.5" stroke-width="0" /><circle cx="508" cy="485" fill="#2b92db" r="3.5" stroke-width="0" /><circle cx="265" cy="481" fill="#2b92db" r="3.5" stroke-width="0" /><circle cx="493" cy="477" fill="#2b92db" r="3.5" stroke-width="0" /><circle cx="442" cy="474" fill="#2b92db" r="3.5" stroke-width="0" /><circle cx="213" cy="473" fill="#2b92db" r="3.5" stroke-width="0" /><circle cx="361" cy="463" fill="#2b92db" r="3.5" stroke-width="0" /><circle cx="152" cy="460" fill="#2b92db" r="3.5" stroke-width="0" /><circle cx="443" cy="459" fill="#2b92db" r="3.5" stroke-width="0" /><circle cx="400" cy="453" fill="#2b92db" r="3.5" stroke-width="0" /><circle cx="167" cy="452" fill="#2b92db" r="3.5" stroke-width="0" /><circle cx="369" cy="440" fill="#2b92db" r="3.5" stroke-width="0" /><circle cx="189" cy="427" fill="#2b92db" r="3.5" stroke-width="0" /><circle cx="369" cy="423" fill="#2b92db" r="3.5" stroke-width="0" /><circle cx="192" cy="422" fill="#2b92db" r="3.5" stroke-width="0" /><circle cx="390" cy="411" fill="#2b92db" r="3.5" stroke-width="0" /><circle cx="79" cy="410" fill="#2b92db" r="3.5" stroke-width="0" /><circle cx="479" cy="407" fill="#2b92db" r="3.5" stroke-width="0" /><circle cx="319" cy="406" fill="#2b92db" r="3.5" stroke-width="0" /><circle cx="446" cy="399" fill="#2b92db" r="3.5" stroke-width="0" /><circle cx="257" cy="395" fill="#2b92db" r="3.5" stroke-width="0" /><circle cx="485" cy="391" fill="#2b92db" r="3.5" stroke-width="0" /><circle cx="463" cy="388" fill="#2b92db" r="3.5" stroke-width="0" /><circle cx="113" cy="362" fill="#2b92db" r="3.5" stroke-width="0" /><circle cx="384" cy="360" fill="#2b92db" r="3.5" stroke-width="0" /><circle cx="536" cy="353" fill="#2b92db" r="3.5" stroke-width="0" /><circle cx="87" cy="348" fill="#2b92db" r="3.5" stroke-width="0" /><circle cx="486" cy="344" fill="#2b92db" r="3.5" stroke-width="0" /><circle cx="243" cy="343" fill="#2b92db" r="3.5" stroke-width="0" /><circle cx="228" cy="342" fill="#2b92db" r="3.5" stroke-width="0" /><circle cx="300" cy="338" fill="#2b92db" r="3.5" stroke-width="0" /><circle cx="101" cy="337" fill="#2b92db" r="3.5" stroke-width="0" /><circle cx="271" cy="331" fill="#2b92db" r="3.5" stroke-width="0" /><circle cx="470" cy="330" fill="#2b92db" r="3.5" stroke-width="0" /><circle cx="72" cy="329" fill="#2b92db" r="3.5" stroke-width="0" /><circle cx="234" cy="324" fill="#2b92db" r="3.5" stroke-width="0" /><circle cx="566" cy="322" fill="#2b92db" r="3.5" stroke-width="0" /><circle cx="176" cy="321" fill="#2b92db" r="3.5" stroke-width="0" /><circle cx="418" cy="319" fill="#2b92db" r="3.5" stroke-width="0" /><circle cx="185" cy="300" fill="#2b92db" r="3.5" stroke-width="0" /><circle cx="335" cy="298" fill="#2b92db" r="3.5" stroke-width="0" /><circle cx="388" cy="297" fill="#2b92db" r="3.5" stroke-width="0" /><circle cx="216" cy="290" fill="#2b92db" r="3.5" stroke-width="0" /><circle cx="342" cy="286" fill="#2b92db" r="3.5" stroke-width="0" /><circle cx="276" cy="283" fill="#2b92db" r="3.5" stroke-width="0" /><circle cx="187" cy="274" fill="#2b92db" r="3.5" stroke-width="0" /><circle cx="426" cy="264" fill="#2b92db" r="3.5" stroke-width="0" /><circle cx="398" cy="228" fill="#2b92db" r="3.5" stroke-width="0" /><circle cx="215" cy="227" fill="#2b92db" r="3.5" stroke-width="0" /><circle cx="410" cy="225" fill="#2b92db" r="3.5" stroke-width="0" /><circle cx="263" cy="218" fill="#2b92db" r="3.5" stroke-width="0" /><circle cx="524" cy="215" fill="#2b92db" r="3.5" stroke-width="0" /><circle cx="521" cy="213" fill="#2b92db" r="3.5" stroke-width="0" /><circle cx="181" cy="212" fill="#2b92db" r="3.5" stroke-width="0" /><circle cx="256" cy="212" fill="#2b92db" r="3.5" stroke-width="0" /><circle cx="255" cy="206" fill="#2b92db" r="3.5" stroke-width="0" /><circle cx="343" cy="202" fill="#2b92db" r="3.5" stroke-width="0" /><circle cx="309" cy="197" fill="#2b92db" r="3.5" stroke-width="0" /><circle cx="116" cy="190" fill="#2b92db" r="3.5" stroke-width="0" /><circle cx="231" cy="190" fill="#2b92db" r="3.5" stroke-width="0" /><circle cx="395" cy="179" fill="#2b92db" r="3.5" stroke-width="0" /><circle cx="408" cy="170" fill="#2b92db" r="3.5" stroke-width="0" /><circle cx="147" cy="165" fill="#2b92db" r="3.5" stroke-width="0" /><circle cx="165" cy="162" fill="#2b92db" r="3.5" stroke-width="0" /><circle cx="458" cy="162" fill="#2b92db" r="3.5" stroke-width="0" /><circle cx="263" cy="160" fill="#2b92db" r="3.5" stroke-width="0" /><circle cx="441" cy="153" fill="#2b92db" r="3.5" stroke-width="0" /><circle cx="320" cy="152" fill="#2b92db" r="3.5" stroke-width="0" /><circle cx="349" cy="147" fill="#2b92db" r="3.5" stroke-width="0" /><circle cx="336" cy="145" fill="#2b92db" r="3.5" stroke-width="0" /><circle cx="564" cy="132" fill="#2b92db" r="3.5" stroke-width="0" /><circle cx="317" cy="129" fill="#2b92db" r="3.5" stroke-width="0" /><circle cx="339" cy="129" fill="#2b92db" r="3.5" stroke-width="0" /><circle cx="261" cy="123" fill="#2b92db" r="3.5" stroke-width="0" /><circle cx="544" cy="120" fill="#2b92db" r="3.5" stroke-width="0" /><circle cx="304" cy="113" fill="#2b92db" r="3.5" stroke-width="0" /><circle cx="507" cy="98" fill="#2b92db" r="3.5" stroke-width="0" /><circle cx="136" cy="87" fill="#2b92db" r="3.5" stroke-width="0" /><circle cx="167" cy="83" fill="#2b92db" r="3.5" stroke-width="0" /><circle cx="305" cy="81" fill="#2b92db" r="3.5" stroke-width="0" /><circle cx="536" cy="80" fill="#2b92db" r="3.5" stroke-width="0" /></g></g></g></svg>