<?xml version="1.0" encoding="utf-8" ?>
<svg baseProfile="full" height="1140px" style="font-size:15;font-family:Arial, san-serif;font-weight:bold;stroke:black;stroke-width:0;fill:#444444" version="1.1" width="1140px" xmlns="http://www.w3.org/2000/svg" xmlns:ev="http://www.w3.org/2001/xml-events" xmlns:xlink="http://www.w3.org/1999/xlink"><defs><clipPath id="areadografico"><rect height="1000" width="1000" x="70" y="70" /></clipPath></defs><g class="master"><g class="poligonos"><polygon clip-path="url(#areadografico)" fill="#000000" fill-opacity="0.1" points="1069,1070 1069,785 784,1070" /><polygon clip-path="url(#areadografico)" fill="#ffffff" fill-opacity="0.1" points="785,1070 498,1070 1069,499 1069,785" /><polygon clip-path="url(#areadografico)" fill="#000000" fill-opacity="0.1" points="499,1070 213,1070 1069,214 1069,499" /><polygon clip-path="url(#areadografico)" fill="#ffffff" fill-opacity="0.1" points="214,1070 -73,1070 1069,-72 1069,214" /><polygon clip-path="url(#areadografico)" fill="#000000" fill-opacity="0.1" points="-72,1070 -359,1070 1069,-358 1069,-72" /><polygon clip-path="url(#areadografico)" fill="#ffffff" fill-opacity="0.1" points="-358,1070 -644,1070 1069,-643 1069,-358" /><polygon clip-path="url(#areadografico)" fill="#000000" fill-opacity="0.1" points="70,71 70,356 355,71" /></g><g class="linhas"><line fill-opacity="0.3" stroke="#999999" stroke-width="1" x1="1070" x2="1070" y1="1070" y2="70" /><line fill-opacity="0.3" stroke="#999999" stroke-width="1" x1="70" x2="1070" y1="70" y2="70" /><line fill-opacity="0.3" stroke="#999999" stroke-width="1" x1="970" x2="970" y1="1070" y2="70" /><line fill-opacity="0.3" stroke="#999999" stroke-width="1" x1="70" x2="1070" y1="170" y2="170" /><line fill-opacity="0.3" stroke="#999999" stroke-width="1" x1="870" x2="870" y1="1070" y2="70" /><line fill-opacity="0.3" stroke="#999999" stroke-width="1" x1="70" x2="1070" y1="270" y2="270" /><line fill-opacity="0.3" stroke="#999999" stroke-width="1" x1="770" x2="770" y1="1070" y2="70" /><line fill-opacity="0.3" stroke="#999999" stroke-width="1" x1="70" x2="1070" y1="370" y2="370" /><line fill-opacity="0.3" stroke="#999999" stroke-width="1" x1="670" x2="670" y1="1070" y2="70" /><line fill-opacity="0.3" stroke="#999999" stroke-width="1" x1="70" x2="1070" y1="470" y2="470" /><line fill-opacity="0.3" stroke="#999999" stroke-width="1" x1="570" x2="570" y1="1070" y2="70" /><line fill-opacity="0.3" stroke="#999999" stroke-width="1" x1="70" x2="1070" y1="570" y2="570" /><line fill-opacity="0.3" stroke="#999999" stroke-width="1" x1="470" x2="470" y1="1070" y2="70" /><line fill-opacity="0.3" stroke="#999999" stroke-width="1" x1="70" x2="1070" y1="670" y2="670" /><line fill-opacity="0.3" stroke="#999999" stroke-width="1" x1="370" x2="370" y1="1070" y2="70" /><line fill-opacity="0.3" stroke="#999999" stroke-width="1" x1="70" x2="1070" y1="770" y2="770" /><line fill-opacity="0.3" stroke="#999999" stroke-width="1" x1="270" x2="270" y1="1070" y2="70" /><line fill-opacity="0.3" stroke="#999999" stroke-width="1" x1="70" x2="1070" y1="870" y2="870" /><line fill-opacity="0.3" stroke="#999999" stroke-width="1" x1="170" x2="170" y1="1070" y2="70" /><line fill-opacity="0.3" stroke="#999999" stroke-width="1" x1="70" x2="1070" y1="970" y2="970" /><line fill-opacity="0.3" stroke="#000000" stroke-width="1" x1="70" x2="70" y1="1071" y2="69" /><line fill-opacity="0.3" stroke="#000000" stroke-width="1" x1="69" x2="1071" y1="1070" y2="1070" /></g><g class="textos"><text x="1050" y="1110">1000</text><text x="10" y="71">1000</text><text x="950" y="1110">900</text><text x="10" y="171">900</text><text x="850" y="1110">800</text><text x="10" y="271">800</text><text x="750" y="1110">700</text><text x="10" y="371">700</text><text x="650" y="1110">600</text><text x="10" y="471">600</text><text x="550" y="1110">500</text><text x="10" y="571">500</text><text x="450" y="1110">400</text><text x="10" y="671">400</text><text x="350" y="1110">300</text><text x="10" y="771">300</text><text x="250" y="1110">200</text><text x="10" y="871">200</text><text x="150" y="1110">100</text><text x="10" y="971">100</text><text x="50" y="1111">0</text><text x="9" y="1071">0</text></g><g class="especies"><g class="e0"><circle cx="851" cy="1029" fill="#ff0000" r="3.5" stroke-width="0" /><circle cx="1025" cy="1050" fill="#ff0000" r="3.5" stroke-width="0" /><circle cx="966" cy="1046" fill="#ff0000" r="3.5" stroke-width="0" /><circle cx="943" cy="1044" fill="#ff0000" r="3.5" stroke-width="0" /><circle cx="949" cy="1045" fill="#ff0000" r="3.5" stroke-width="0" /><circle cx="921" cy="1041" fill="#ff0000" r="3.5" stroke-width="0" /><circle cx="979" cy="1047" fill="#ff0000" r="3.5" stroke-width="0" /><circle cx="915" cy="1040" fill="#ff0000" r="3.5" stroke-width="0" /><circle cx="908" cy="1039" fill="#ff0000" r="3.5" stroke-width="0" /><circle cx="935" cy="1043" fill="#ff0000" r="3.5" stroke-width="0" /><circle cx="993" cy="1048" fill="#ff0000" r="3.5" stroke-width="0" /><circle cx="863" cy="1032" fill="#ff0000" r="3.5" stroke-width="0" /><circle cx="871" cy="1033" fill="#ff0000" r="3.5" stroke-width="0" /></g><g class="e1"><circle cx="725" cy="993" fill="#2b92db" r="3.5" stroke-width="0" /><circle cx="659" cy="967" fill="#2b92db" r="3.5" stroke-width="0" /><circle cx="798" cy="1016" fill="#2b92db" r="3.5" stroke-width="0" /><circle cx="633" cy="955" fill="#2b92db" r="3.5" stroke-width="0" /><circle cx="651" cy="963" fill="#2b92db" r="3.5" stroke-width="0" /><circle cx="641" cy="959" fill="#2b92db" r="3.5" stroke-width="0" /><circle cx="782" cy="1012" fill="#2b92db" r="3.5" stroke-width="0" /><circle cx="700" cy="984" fill="#2b92db" r="3.5" stroke-width="0" /><circle cx="683" cy="977" fill="#2b92db" r="3.5" stroke-width="0" /><circle cx="625" cy="951" fill="#2b92db" r="3.5" stroke-width="0" /><circle cx="791" cy="1014" fill="#2b92db" r="3.5" stroke-width="0" /><circle cx="635" cy="956" fill="#2b92db" r="3.5" stroke-width="0" /><circle cx="667" cy="970" fill="#2b92db" r="3.5" stroke-width="0" /><circle cx="821" cy="1022" fill="#2b92db" r="3.5" stroke-width="0" /><circle cx="800" cy="1017" fill="#2b92db" r="3.5" stroke-width="0" /><circle cx="738" cy="998" fill="#2b92db" r="3.5" stroke-width="0" /><circle cx="803" cy="1018" fill="#2b92db" r="3.5" stroke-width="0" /><circle cx="671" cy="972" fill="#2b92db" r="3.5" stroke-width="0" /><circle cx="708" cy="987" fill="#2b92db" r="3.5" stroke-width="0" /><circle cx="661" cy="968" fill="#2b92db" r="3.5" stroke-width="0" /></g><g class="e2"><circle cx="581" cy="928" fill="#911eb4" r="3.5" stroke-width="0" /><circle cx="591" cy="933" fill="#911eb4" r="3.5" stroke-width="0" /><circle cx="491" cy="870" fill="#911eb4" r="3.5" stroke-width="0" /><circle cx="611" cy="944" fill="#911eb4" r="3.5" stroke-width="0" /><circle cx="560" cy="916" fill="#911eb4" r="3.5" stroke-width="0" /><circle cx="619" cy="948" fill="#911eb4" r="3.5" stroke-width="0" /><circle cx="453" cy="842" fill="#911eb4" r="3.5" stroke-width="0" /><circle cx="552" cy="911" fill="#911eb4" r="3.5" stroke-width="0" /><circle cx="547" cy="908" fill="#911eb4" r="3.5" stroke-width="0" /><circle cx="510" cy="884" fill="#911eb4" r="3.5" stroke-width="0" /><circle cx="589" cy="932" fill="#911eb4" r="3.5" stroke-width="0" /><circle cx="602" cy="939" fill="#911eb4" r="3.5" stroke-width="0" /><circle cx="530" cy="897" fill="#911eb4" r="3.5" stroke-width="0" /><circle cx="463" cy="850" fill="#911eb4" r="3.5" stroke-width="0" /><circle cx="576" cy="925" fill="#911eb4" r="3.5" stroke-width="0" /><circle cx="504" cy="880" fill="#911eb4" r="3.5" stroke-width="0" /><circle cx="566" cy="919" fill="#911eb4" r="3.5" stroke-width="0" /><circle cx="531" cy="898" fill="#911eb4" r="3.5" stroke-width="0" /><circle cx="575" cy="924" fill="#911eb4" r="3.5" stroke-width="0" /><circle cx="585" cy="930" fill="#911eb4" r="3.5" stroke-width="0" /><circle cx="600" cy="938" fill="#911eb4" r="3.5" stroke-width="0" /><circle cx="564" cy="918" fill="#911eb4" r="3.5" stroke-width="0" /><circle cx="546" cy="907" fill="#911eb4" r="3.5" stroke-width="0" /><circle cx="557" cy="914" fill="#911eb4" r="3.5" stroke-width="0" /><circle cx="462" cy="849" fill="#911eb4" r="3.5" stroke-width="0" /><circle cx="527" cy="895" fill="#911eb4" r="3.5" stroke-width="0" /><circle cx="502" cy="878" fill="#911eb4" r="3.5" stroke-width="0" /></g><g class="e3"><circle cx="425" cy="819" fill="#3cb44B" r="3.5" stroke-width="0" /><circle cx="410" cy="806" fill="#3cb44B" r="3.5" stroke-width="0" /><circle cx="342" cy="738" fill="#3cb44B" r="3.5" stroke-width="0" /><circle cx="305" cy="696" fill="#3cb44B" r="3.5" stroke-width="0" /><circle cx="390" cy="787" fill="#3cb44B" r="3.5" stroke-width="0" /><circle cx="336" cy="732" fill="#3cb44B" r="3.5" stroke-width="0" /><circle cx="359" cy="756" fill="#3cb44B" r="3.5" stroke-width="0" /><circle cx="340" cy="736" fill="#3cb44B" r="3.5" stroke-width="0" /><circle cx="346" cy="743" fill="#3cb44B" r="3.5" stroke-width="0" /><circle cx="312" cy="704" fill="#3cb44B" r="3.5" stroke-width="0" /><circle cx="343" cy="739" fill="#3cb44B" r="3.5" stroke-width="0" /><circle cx="383" cy="780" fill="#3cb44B" r="3.5" stroke-width="0" /><circle cx="337" cy="733" fill="#3cb44B" r="3.5" stroke-width="0" /><circle cx="351" cy="748" fill="#3cb44B" r="3.5" stroke-width="0" /><circle cx="434" cy="826" fill="#3cb44B" r="3.5" stroke-width="0" /><circle cx="316" cy="709" fill="#3cb44B" r="3.5" stroke-width="0" /></g><g class="e4"><circle cx="235" cy="597" fill="#ff0000" r="3.5" stroke-width="0" /><circle cx="291" cy="678" fill="#ff0000" r="3.5" stroke-width="0" /><circle cx="204" cy="544" fill="#ff0000" r="3.5" stroke-width="0" /><circle cx="250" cy="621" fill="#ff0000" r="3.5" stroke-width="0" /><circle cx="211" cy="556" fill="#ff0000" r="3.5" stroke-width="0" /><circle cx="248" cy="618" fill="#ff0000" r="3.5" stroke-width="0" /><circle cx="295" cy="683" fill="#ff0000" r="3.5" stroke-width="0" /><circle cx="205" cy="545" fill="#ff0000" r="3.5" stroke-width="0" /><circle cx="196" cy="528" fill="#ff0000" r="3.5" stroke-width="0" /><circle cx="282" cy="666" fill="#ff0000" r="3.5" stroke-width="0" /><circle cx="197" cy="531" fill="#ff0000" r="3.5" stroke-width="0" /><circle cx="259" cy="634" fill="#ff0000" r="3.5" stroke-width="0" /><circle cx="246" cy="615" fill="#ff0000" r="3.5" stroke-width="0" /><circle cx="228" cy="586" fill="#ff0000" r="3.5" stroke-width="0" /><circle cx="239" cy="603" fill="#ff0000" r="3.5" stroke-width="0" /><circle cx="261" cy="637" fill="#ff0000" r="3.5" stroke-width="0" /><circle cx="241" cy="607" fill="#ff0000" r="3.5" stroke-width="0" /><circle cx="283" cy="667" fill="#ff0000" r="3.5" stroke-width="0" /></g><g class="e5"><circle cx="116" cy="310" fill="#2b92db" r="3.5" stroke-width="0" /><circle cx="155" cy="437" fill="#2b92db" r="3.5" stroke-width="0" /><circle cx="140" cy="397" fill="#2b92db" r="3.5" stroke-width="0" /><circle cx="176" cy="488" fill="#2b92db" r="3.5" stroke-width="0" /><circle cx="128" cy="356" fill="#2b92db" r="3.5" stroke-width="0" /><circle cx="153" cy="432" fill="#2b92db" r="3.5" stroke-width="0" /><circle cx="170" cy="474" fill="#2b92db" r="3.5" stroke-width="0" /><circle cx="177" cy="490" fill="#2b92db" r="3.5" stroke-width="0" /><circle cx="166" cy="465" fill="#2b92db" r="3.5" stroke-width="0" /><circle cx="117" cy="318" fill="#2b92db" r="3.5" stroke-width="0" /><circle cx="188" cy="513" fill="#2b92db" r="3.5" stroke-width="0" /><circle cx="179" cy="494" fill="#2b92db" r="3.5" stroke-width="0" /><circle cx="148" cy="418" fill="#2b92db" r="3.5" stroke-width="0" /><circle cx="150" cy="423" fill="#2b92db" r="3.5" stroke-width="0" /><circle cx="136" cy="385" fill="#2b92db" r="3.5" stroke-width="0" /><circle cx="131" cy="367" fill="#2b92db" r="3.5" stroke-width="0" /><circle cx="118" cy="322" fill="#2b92db" r="3.5" stroke-width="0" /><circle cx="168" cy="468" fill="#2b92db" r="3.5" stroke-width="0" /><circle cx="167" cy="467" fill="#2b92db" r="3.5" stroke-width="0" /><circle cx="145" cy="409" fill="#2b92db" r="3.5" stroke-width="0" /><circle cx="143" cy="405" fill="#2b92db" r="3.5" stroke-width="0" /><circle cx="135" cy="382" fill="#2b92db" r="3.5" stroke-width="0" /><circle cx="133" cy="375" fill="#2b92db" r="3.5" stroke-width="0" /><circle cx="119" cy="326" fill="#2b92db" r="3.5" stroke-width="0" /></g><g class="e6"><circle cx="90" cy="101" fill="#911eb4" r="3.5" stroke-width="0" /><circle cx="94" cy="181" fill="#911eb4" r="3.5" stroke-width="0" /><circle cx="103" cy="248" fill="#911eb4" r="3.5" stroke-width="0" /><circle cx="100" cy="227" fill="#911eb4" r="3.5" stroke-width="0" /><circle cx="115" cy="309" fill="#911eb4" r="3.5" stroke-width="0" /><circle cx="91" cy="129" fill="#911eb4" r="3.5" stroke-width="0" /><circle cx="111" cy="288" fill="#911eb4" r="3.5" stroke-width="0" /><circle cx="93" cy="164" fill="#911eb4" r="3.5" stroke-width="0" /><circle cx="101" cy="238" fill="#911eb4" r="3.5" stroke-width="0" /><circle cx="114" cy="304" fill="#911eb4" r="3.5" stroke-width="0" /><circle cx="108" cy="277" fill="#911eb4" r="3.5" stroke-width="0" /><circle cx="109" cy="282" fill="#911eb4" r="3.5" stroke-width="0" /><circle cx="92" cy="151" fill="#911eb4" r="3.5" stroke-width="0" /><circle cx="105" cy="260" fill="#911eb4" r="3.5" stroke-width="0" /><circle cx="97" cy="208" fill="#911eb4" r="3.5" stroke-width="0" /><circle cx="107" cy="268" fill="#911eb4" r="3.5" stroke-width="0" /><circle cx="102" cy="244" fill="#911eb4" r="3.5" stroke-width="0" /></g></g></g></svg>