<?xml version="1.0" encoding="utf-8" ?>
<svg baseProfile="full" height="1140px" style="font-size:15;font-family:Arial, san-serif;font-weight:bold;stroke:black;stroke-width:0;fill:#444444" version="1.1" width="1140px" xmlns="http://www.w3.org/2000/svg" xmlns:ev="http://www.w3.org/2001/xml-events" xmlns:xlink="http://www.w3.org/1999/xlink"><defs><clipPath id="areadografico"><rect height="1000" width="1000" x="70" y="70" /></clipPath></defs><g class="master"><g class="poligonos"><polygon clip-path="url(#areadografico)" fill="#000000" fill-opacity="0.1" points="1069,1070 1069,405 404,1070" /><polygon clip-path="url(#areadografico)" fill="#ffffff" fill-opacity="0.1" points="405,1070 -262,1070 1069,-261 1069,405" /><polygon clip-path="url(#areadografico)" fill="#000000" fill-opacity="0.1" points="70,71 70,738 737,71" /></g><g class="linhas"><line fill-opacity="0.3" stroke="#999999" stroke-width="1" x1="1070" x2="1070" y1="1070" y2="70" /><line fill-opacity="0.3" stroke="#999999" stroke-width="1" x1="70" x2="1070" y1="70" y2="70" /><line fill-opacity="0.3" stroke="#999999" stroke-width="1" x1="970" x2="970" y1="1070" y2="70" /><line fill-opacity="0.3" stroke="#999999" stroke-width="1" x1="70" x2="1070" y1="170" y2="170" /><line fill-opacity="0.3" stroke="#999999" stroke-width="1" x1="870" x2="870" y1="1070" y2="70" /><line fill-opacity="0.3" stroke="#999999" stroke-width="1" x1="70" x2="1070" y1="270" y2="270" /><line fill-opacity="0.3" stroke="#999999" stroke-width="1" x1="770" x2="770" y1="1070" y2="70" /><line fill-opacity="0.3" stroke="#999999" stroke-width="1" x1="70" x2="1070" y1="370" y2="370" /><line fill-opacity="0.3" stroke="#999999" stroke-width="1" x1="670" x2="670" y1="1070" y2="70" /><line fill-opacity="0.3" stroke="#999999" stroke-width="1" x1="70" x2="1070" y1="470" y2="470" /><line fill-opacity="0.3" stroke="#999999" stroke-width="1" x1="570" x2="570" y1="1070" y2="70" /><line fill-opacity="0.3" stroke="#999999" stroke-width="1" x1="70" x2="1070" y1="570" y2="570" /><line fill-opacity="0.3" stroke="#999999" stroke-width="1" x1="470" x2="470" y1="1070" y2="70" /><line fill-opacity="0.3" stroke="#999999" stroke-width="1" x1="70" x2="1070" y1="670" y2="670" /><line fill-opacity="0.3" stroke="#999999" stroke-width="1" x1="370" x2="370" y1="1070" y2="70" /><line fill-opacity="0.3" stroke="#999999" stroke-width="1" x1="70" x2="1070" y1="770" y2="770" /><line fill-opacity="0.3" stroke="#999999" stroke-width="1" x1="270" x2="270" y1="1070" y2="70" /><line fill-opacity="0.3" stroke="#999999" stroke-width="1" x1="70" x2="1070" y1="870" y2="870" /><line fill-opacity="0.3" stroke="#999999" stroke-width="1" x1="170" x2="170" y1="1070" y2="70" /><line fill-opacity="0.3" stroke="#999999" stroke-width="1" x1="70" x2="1070" y1="970" y2="970" /><line fill-opacity="0.3" stroke="#000000" stroke-width="1" x1="70" x2="70" y1="1071" y2="69" /><line fill-opacity="0.3" stroke="#000000" stroke-width="1" x1="69" x2="1071" y1="1070" y2="1070" /></g><g class="textos"><text x="1050" y="1110">1000</text><text x="10" y="71">1000</text><text x="950" y="1110">900</text><text x="10" y="171">900</text><text x="850" y="1110">800</text><text x="10" y="271">800</text><text x="750" y="1110">700</text><text x="10" y="371">700</text><text x="650" y="1110">600</text><text x="10" y="471">600</text><text x="550" y="1110">500</text><text x="10" y="571">500</text><text x="450" y="1110">400</text><text x="10" y="671">400</text><text x="350" y="1110">300</text><text x="10" y="771">300</text><text x="250" y="1110">200</text><text x="10" y="871">200</text><text x="150" y="1110">100</text><text x="10" y="971">100</text><text x="50" y="1111">0</text><text x="9" y="1071">0</text></g><g class="especies"><g class="e0"><circle cx="687" cy="979" fill="#ff0000" r="3.5" stroke-width="0" /><circle cx="824" cy="1023" fill="#ff0000" r="3.5" stroke-width="0" /><circle cx="885" cy="1036" fill="#ff0000" r="3.5" stroke-width="0" /><circle cx="562" cy="917" fill="#ff0000" r="3.5" stroke-width="0" /><circle cx="859" cy="1031" fill="#ff0000" r="3.5" stroke-width="0" /><circle cx="828" cy="1024" fill="#ff0000" r="3.5" stroke-width="0" /><circle cx="913" cy="1040" fill="#ff0000" r="3.5" stroke-width="0" /><circle cx="855" cy="1030" fill="#ff0000" r="3.5" stroke-width="0" /><circle cx="571" cy="922" fill="#ff0000" r="3.5" stroke-width="0" /><circle cx="918" cy="1041" fill="#ff0000" r="3.5" stroke-width="0" /><circle cx="771" cy="1009" fill="#ff0000" r="3.5" stroke-width="0" /><circle cx="683" cy="977" fill="#ff0000" r="3.5" stroke-width="0" /><circle cx="662" cy="968" fill="#ff0000" r="3.5" stroke-width="0" /><circle cx="767" cy="1007" fill="#ff0000" r="3.5" stroke-width="0" /><circle cx="866" cy="1032" fill="#ff0000" r="3.5" stroke-width="0" /><circle cx="961" cy="1046" fill="#ff0000" r="3.5" stroke-width="0" /><circle cx="608" cy="942" fill="#ff0000" r="3.5" stroke-width="0" /><circle cx="806" cy="1018" fill="#ff0000" r="3.5" stroke-width="0" /><circle cx="813" cy="1020" fill="#ff0000" r="3.5" stroke-width="0" /><circle cx="1011" cy="1049" fill="#ff0000" r="3.5" stroke-width="0" /><circle cx="881" cy="1035" fill="#ff0000" r="3.5" stroke-width="0" /><circle cx="787" cy="1013" fill="#ff0000" r="3.5" stroke-width="0" /><circle cx="715" cy="990" fill="#ff0000" r="3.5" stroke-width="0" /><circle cx="669" cy="971" fill="#ff0000" r="3.5" stroke-width="0" /><circle cx="637" cy="957" fill="#ff0000" r="3.5" stroke-width="0" /><circle cx="923" cy="1042" fill="#ff0000" r="3.5" stroke-width="0" /><circle cx="724" cy="993" fill="#ff0000" r="3.5" stroke-width="0" /><circle cx="1035" cy="1050" fill="#ff0000" r="3.5" stroke-width="0" /><circle cx="734" cy="997" fill="#ff0000" r="3.5" stroke-width="0" /><circle cx="846" cy="1028" fill="#ff0000" r="3.5" stroke-width="0" /><circle cx="640" cy="958" fill="#ff0000" r="3.5" stroke-width="0" /><circle cx="602" cy="939" fill="#ff0000" r="3.5" stroke-width="0" /><circle cx="585" cy="930" fill="#ff0000" r="3.5" stroke-width="0" /><circle cx="701" cy="984" fill="#ff0000" r="3.5" stroke-width="0" /><circle cx="594" cy="935" fill="#ff0000" r="3.5" stroke-width="0" /><circle cx="809" cy="1019" fill="#ff0000" r="3.5" stroke-width="0" /><circle cx="789" cy="1014" fill="#ff0000" r="3.5" stroke-width="0" /><circle cx="567" cy="920" fill="#ff0000" r="3.5" stroke-width="0" /><circle cx="611" cy="944" fill="#ff0000" r="3.5" stroke-width="0" /><circle cx="690" cy="980" fill="#ff0000" r="3.5" stroke-width="0" /><circle cx="650" cy="963" fill="#ff0000" r="3.5" stroke-width="0" /><circle cx="839" cy="1027" fill="#ff0000" r="3.5" stroke-width="0" /><circle cx="676" cy="974" fill="#ff0000" r="3.5" stroke-width="0" /><circle cx="906" cy="1039" fill="#ff0000" r="3.5" stroke-width="0" /><circle cx="936" cy="1043" fill="#ff0000" r="3.5" stroke-width="0" /><circle cx="743" cy="1000" fill="#ff0000" r="3.5" stroke-width="0" /><circle cx="996" cy="1048" fill="#ff0000" r="3.5" stroke-width="0" /><circle cx="896" cy="1038" fill="#ff0000" r="3.5" stroke-width="0" /><circle cx="617" cy="947" fill="#ff0000" r="3.5" stroke-width="0" /><circle cx="848" cy="1029" fill="#ff0000" r="3.5" stroke-width="0" /><circle cx="574" cy="924" fill="#ff0000" r="3.5" stroke-width="0" /><circle cx="561" cy="916" fill="#ff0000" r="3.5" stroke-width="0" /><circle cx="872" cy="1033" fill="#ff0000" r="3.5" stroke-width="0" /><circle cx="678" cy="975" fill="#ff0000" r="3.5" stroke-width="0" /><circle cx="974" cy="1047" fill="#ff0000" r="3.5" stroke-width="0" /><circle cx="706" cy="986" fill="#ff0000" r="3.5" stroke-width="0" /><circle cx="599" cy="937" fill="#ff0000" r="3.5" stroke-width="0" /><circle cx="642" cy="959" fill="#ff0000" r="3.5" stroke-width="0" /><circle cx="877" cy="1034" fill="#ff0000" r="3.5" stroke-width="0" /><circle cx="758" cy="1005" fill="#ff0000" r="3.5" stroke-width="0" /><circle cx="752" cy="1003" fill="#ff0000" r="3.5" stroke-width="0" /><circle cx="722" cy="992" fill="#ff0000" r="3.5" stroke-width="0" /><circle cx="818" cy="1022" fill="#ff0000" r="3.5" stroke-width="0" /></g><g class="e1"><circle cx="396" cy="793" fill="#2b92db" r="3.5" stroke-width="0" /><circle cx="378" cy="776" fill="#2b92db" r="3.5" stroke-width="0" /><circle cx="469" cy="854" fill="#2b92db" r="3.5" stroke-width="0" /><circle cx="258" cy="633" fill="#2b92db" r="3.5" stroke-width="0" /><circle cx="305" cy="695" fill="#2b92db" r="3.5" stroke-width="0" /><circle cx="310" cy="702" fill="#2b92db" r="3.5" stroke-width="0" /><circle cx="331" cy="726" fill="#2b92db" r="3.5" stroke-width="0" /><circle cx="549" cy="909" fill="#2b92db" r="3.5" stroke-width="0" /><circle cx="446" cy="836" fill="#2b92db" r="3.5" stroke-width="0" /><circle cx="489" cy="869" fill="#2b92db" r="3.5" stroke-width="0" /><circle cx="441" cy="832" fill="#2b92db" r="3.5" stroke-width="0" /><circle cx="473" cy="857" fill="#2b92db" r="3.5" stroke-width="0" /><circle cx="465" cy="851" fill="#2b92db" r="3.5" stroke-width="0" /><circle cx="353" cy="750" fill="#2b92db" r="3.5" stroke-width="0" /><circle cx="242" cy="609" fill="#2b92db" r="3.5" stroke-width="0" /><circle cx="391" cy="788" fill="#2b92db" r="3.5" stroke-width="0" /><circle cx="554" cy="912" fill="#2b92db" r="3.5" stroke-width="0" /><circle cx="262" cy="639" fill="#2b92db" r="3.5" stroke-width="0" /><circle cx="286" cy="671" fill="#2b92db" r="3.5" stroke-width="0" /><circle cx="470" cy="855" fill="#2b92db" r="3.5" stroke-width="0" /><circle cx="557" cy="914" fill="#2b92db" r="3.5" stroke-width="0" /><circle cx="433" cy="825" fill="#2b92db" r="3.5" stroke-width="0" /><circle cx="405" cy="801" fill="#2b92db" r="3.5" stroke-width="0" /><circle cx="241" cy="607" fill="#2b92db" r="3.5" stroke-width="0" /><circle cx="559" cy="915" fill="#2b92db" r="3.5" stroke-width="0" /><circle cx="397" cy="794" fill="#2b92db" r="3.5" stroke-width="0" /><circle cx="444" cy="835" fill="#2b92db" r="3.5" stroke-width="0" /><circle cx="337" cy="733" fill="#2b92db" r="3.5" stroke-width="0" /><circle cx="497" cy="875" fill="#2b92db" r="3.5" stroke-width="0" /><circle cx="227" cy="585" fill="#2b92db" r="3.5" stroke-width="0" /><circle cx="421" cy="815" fill="#2b92db" r="3.5" stroke-width="0" /><circle cx="550" cy="910" fill="#2b92db" r="3.5" stroke-width="0" /><circle cx="515" cy="887" fill="#2b92db" r="3.5" stroke-width="0" /><circle cx="329" cy="724" fill="#2b92db" r="3.5" stroke-width="0" /><circle cx="323" cy="717" fill="#2b92db" r="3.5" stroke-width="0" /><circle cx="344" cy="741" fill="#2b92db" r="3.5" stroke-width="0" /><circle cx="481" cy="863" fill="#2b92db" r="3.5" stroke-width="0" /><circle cx="376" cy="774" fill="#2b92db" r="3.5" stroke-width="0" /><circle cx="377" cy="775" fill="#2b92db" r="3.5" stroke-width="0" /><circle cx="316" cy="709" fill="#2b92db" r="3.5" stroke-width="0" /><circle cx="403" cy="799" fill="#2b92db" r="3.5" stroke-width="0" /><circle cx="239" cy="604" fill="#2b92db" r="3.5" stroke-width="0" /><circle cx="537" cy="901" fill="#2b92db" r="3.5" stroke-width="0" /><circle cx="235" cy="598" fill="#2b92db" r="3.5" stroke-width="0" /><circle cx="556" cy="913" fill="#2b92db" r="3.5" stroke-width="0" /><circle cx="485" cy="866" fill="#2b92db" r="3.5" stroke-width="0" /><circle cx="475" cy="859" fill="#2b92db" r="3.5" stroke-width="0" /><circle cx="479" cy="862" fill="#2b92db" r="3.5" stroke-width="0" /><circle cx="238" cy="602" fill="#2b92db" r="3.5" stroke-width="0" /><circle cx="250" cy="620" fill="#2b92db" r="3.5" stroke-width="0" /><circle cx="354" cy="751" fill="#2b92db" r="3.5" stroke-width="0" /><circle cx="509" cy="883" fill="#2b92db" r="3.5" stroke-width="0" /><circle cx="492" cy="871" fill="#2b92db" r="3.5" stroke-width="0" /><circle cx="527" cy="895" fill="#2b92db" r="3.5" stroke-width="0" /><circle cx="490" cy="870" fill="#2b92db" r="3.5" stroke-width="0" /><circle cx="356" cy="753" fill="#2b92db" r="3.5" stroke-width="0" /><circle cx="443" cy="834" fill="#2b92db" r="3.5" stroke-width="0" /><circle cx="545" cy="906" fill="#2b92db" r="3.5" stroke-width="0" /><circle cx="408" cy="804" fill="#2b92db" r="3.5" stroke-width="0" /><circle cx="437" cy="829" fill="#2b92db" r="3.5" stroke-width="0" /><circle cx="417" cy="812" fill="#2b92db" r="3.5" stroke-width="0" /><circle cx="229" cy="587" fill="#2b92db" r="3.5" stroke-width="0" /><circle cx="395" cy="792" fill="#2b92db" r="3.5" stroke-width="0" /><circle cx="400" cy="796" fill="#2b92db" r="3.5" stroke-width="0" /><circle cx="553" cy="911" fill="#2b92db" r="3.5" stroke-width="0" /><circle cx="462" cy="849" fill="#2b92db" r="3.5" stroke-width="0" /><circle cx="355" cy="752" fill="#2b92db" r="3.5" stroke-width="0" /><circle cx="466" cy="852" fill="#2b92db" r="3.5" stroke-width="0" /><circle cx="427" cy="820" fill="#2b92db" r="3.5" stroke-width="0" /><circle cx="384" cy="781" fill="#2b92db" r="3.5" stroke-width="0" /><circle cx="541" cy="904" fill="#2b92db" r="3.5" stroke-width="0" /><circle cx="516" cy="888" fill="#2b92db" r="3.5" stroke-width="0" /><circle cx="280" cy="663" fill="#2b92db" r="3.5" stroke-width="0" /><circle cx="387" cy="784" fill="#2b92db" r="3.5" stroke-width="0" /><circle cx="285" cy="670" fill="#2b92db" r="3.5" stroke-width="0" /><circle cx="249" cy="619" fill="#2b92db" r="3.5" stroke-width="0" /><circle cx="328" cy="723" fill="#2b92db" r="3.5" stroke-width="0" /><circle cx="447" cy="837" fill="#2b92db" r="3.5" stroke-width="0" /><circle cx="364" cy="762" fill="#2b92db" r="3.5" stroke-width="0" /><circle cx="244" cy="612" fill="#2b92db" r="3.5" stroke-width="0" /><circle cx="324" cy="718" fill="#2b92db" r="3.5" stroke-width="0" /></g><g class="e2"><circle cx="194" cy="524" fill="#911eb4" r="3.5" stroke-width="0" /><circle cx="187" cy="510" fill="#911eb4" r="3.5" stroke-width="0" /><circle cx="175" cy="484" fill="#911eb4" r="3.5" stroke-width="0" /><circle cx="111" cy="288" fill="#911eb4" r="3.5" stroke-width="0" /><circle cx="217" cy="568" fill="#911eb4" r="3.5" stroke-width="0" /><circle cx="154" cy="434" fill="#911eb4" r="3.5" stroke-width="0" /><circle cx="143" cy="405" fill="#911eb4" r="3.5" stroke-width="0" /><circle cx="94" cy="181" fill="#911eb4" r="3.5" stroke-width="0" /><circle cx="105" cy="261" fill="#911eb4" r="3.5" stroke-width="0" /><circle cx="91" cy="126" fill="#911eb4" r="3.5" stroke-width="0" /><circle cx="123" cy="341" fill="#911eb4" r="3.5" stroke-width="0" /><circle cx="98" cy="212" fill="#911eb4" r="3.5" stroke-width="0" /><circle cx="92" cy="153" fill="#911eb4" r="3.5" stroke-width="0" /><circle cx="176" cy="488" fill="#911eb4" r="3.5" stroke-width="0" /><circle cx="145" cy="409" fill="#911eb4" r="3.5" stroke-width="0" /><circle cx="207" cy="550" fill="#911eb4" r="3.5" stroke-width="0" /><circle cx="103" cy="245" fill="#911eb4" r="3.5" stroke-width="0" /><circle cx="146" cy="414" fill="#911eb4" r="3.5" stroke-width="0" /><circle cx="130" cy="363" fill="#911eb4" r="3.5" stroke-width="0" /><circle cx="155" cy="436" fill="#911eb4" r="3.5" stroke-width="0" /><circle cx="220" cy="573" fill="#911eb4" r="3.5" stroke-width="0" /><circle cx="202" cy="540" fill="#911eb4" r="3.5" stroke-width="0" /><circle cx="95" cy="191" fill="#911eb4" r="3.5" stroke-width="0" /><circle cx="108" cy="277" fill="#911eb4" r="3.5" stroke-width="0" /><circle cx="204" cy="543" fill="#911eb4" r="3.5" stroke-width="0" /><circle cx="102" cy="240" fill="#911eb4" r="3.5" stroke-width="0" /><circle cx="120" cy="328" fill="#911eb4" r="3.5" stroke-width="0" /><circle cx="119" cy="326" fill="#911eb4" r="3.5" stroke-width="0" /><circle cx="112" cy="296" fill="#911eb4" r="3.5" stroke-width="0" /><circle cx="126" cy="349" fill="#911eb4" r="3.5" stroke-width="0" /><circle cx="163" cy="457" fill="#911eb4" r="3.5" stroke-width="0" /><circle cx="109" cy="278" fill="#911eb4" r="3.5" stroke-width="0" /><circle cx="90" cy="95" fill="#911eb4" r="3.5" stroke-width="0" /><circle cx="210" cy="554" fill="#911eb4" r="3.5" stroke-width="0" /><circle cx="219" cy="570" fill="#911eb4" r="3.5" stroke-width="0" /><circle cx="189" cy="514" fill="#911eb4" r="3.5" stroke-width="0" /><circle cx="209" cy="553" fill="#911eb4" r="3.5" stroke-width="0" /><circle cx="93" cy="163" fill="#911eb4" r="3.5" stroke-width="0" /><circle cx="115" cy="307" fill="#911eb4" r="3.5" stroke-width="0" /><circle cx="152" cy="430" fill="#911eb4" r="3.5" stroke-width="0" /><circle cx="96" cy="199" fill="#911eb4" r="3.5" stroke-width="0" /><circle cx="149" cy="420" fill="#911eb4" r="3.5" stroke-width="0" /><circle cx="134" cy="376" fill="#911eb4" r="3.5" stroke-width="0" /><circle cx="221" cy="574" fill="#911eb4" r="3.5" stroke-width="0" /><circle cx="128" cy="358" fill="#911eb4" r="3.5" stroke-width="0" /><circle cx="188" cy="512" fill="#911eb4" r="3.5" stroke-width="0" /><circle cx="132" cy="371" fill="#911eb4" r="3.5" stroke-width="0" /><circle cx="150" cy="424" fill="#911eb4" r="3.5" stroke-width="0" /><circle cx="169" cy="471" fill="#911eb4" r="3.5" stroke-width="0" /><circle cx="225" cy="581" fill="#911eb4" r="3.5" stroke-width="0" /><circle cx="173" cy="481" fill="#911eb4" r="3.5" stroke-width="0" /><circle cx="99" cy="219" fill="#911eb4" r="3.5" stroke-width="0" /><circle cx="160" cy="449" fill="#911eb4" r="3.5" stroke-width="0" /><circle cx="122" cy="334" fill="#911eb4" r="3.5" stroke-width="0" /><circle cx="137" cy="387" fill="#911eb4" r="3.5" stroke-width="0" /><circle cx="156" cy="439" fill="#911eb4" r="3.5" stroke-width="0" /><circle cx="205" cy="546" fill="#911eb4" r="3.5" stroke-width="0" /><circle cx="147" cy="415" fill="#911eb4" r="3.5" stroke-width="0" /><circle cx="124" cy="343" fill="#911eb4" r="3.5" stroke-width="0" /><circle cx="142" cy="401" fill="#911eb4" r="3.5" stroke-width="0" /><circle cx="148" cy="418" fill="#911eb4" r="3.5" stroke-width="0" /><circle cx="206" cy="547" fill="#911eb4" r="3.5" stroke-width="0" /><circle cx="196" cy="529" fill="#911eb4" r="3.5" stroke-width="0" /><circle cx="216" cy="565" fill="#911eb4" r="3.5" stroke-width="0" /><circle cx="136" cy="383" fill="#911eb4" r="3.5" stroke-width="0" /><circle cx="127" cy="355" fill="#911eb4" r="3.5" stroke-width="0" /><circle cx="100" cy="225" fill="#911eb4" r="3.5" stroke-width="0" /><circle cx="180" cy="496" fill="#911eb4" r="3.5" stroke-width="0" /><circle cx="164" cy="459" fill="#911eb4" r="3.5" stroke-width="0" /><circle cx="177" cy="489" fill="#911eb4" r="3.5" stroke-width="0" /><circle cx="121" cy="331" fill="#911eb4" r="3.5" stroke-width="0" /></g></g></g></svg>