<?xml version="1.0" encoding="utf-8" ?>
<svg baseProfile="full" height="1140px" style="font-size:15;font-family:Arial, san-serif;font-weight:bold;stroke:black;stroke-width:0;fill:#444444" version="1.1" width="1140px" xmlns="http://www.w3.org/2000/svg" xmlns:ev="http://www.w3.org/2001/xml-events" xmlns:xlink="http://www.w3.org/1999/xlink"><defs><clipPath id="areadografico"><rect height="1000" width="1000" x="70" y="70" /></clipPath></defs><g class="master"><g class="poligonos"><polygon clip-path="url(#areadografico)" fill="#000000" fill-opacity="0.1" points="1069,1070 1069,785 784,1070" /><polygon clip-path="url(#areadografico)" fill="#ffffff" fill-opacity="0.1" points="785,1070 498,1070 1069,499 1069,785" /><polygon clip-path="url(#areadografico)" fill="#000000" fill-opacity="0.1" points="499,1070 213,1070 1069,214 1069,499" /><polygon clip-path="url(#areadografico)" fill="#ffffff" fill-opacity="0.1" points="214,1070 -73,1070 1069,-72 1069,214" /><polygon clip-path="url(#areadografico)" fill="#000000" fill-opacity="0.1" points="-72,1070 -359,1070 1069,-358 1069,-72" /><polygon clip-path="url(#areadografico)" fill="#ffffff" fill-opacity="0.1" points="-358,1070 -644,1070 1069,-643 1069,-358" /><polygon clip-path="url(#areadografico)" fill="#000000" fill-opacity="0.1" points="70,71 70,356 355,71" /></g><g class="linhas"><line fill-opacity="0.3" stroke="#999999" stroke-width="1" x1="1070" x2="1070" y1="1070" y2="70" /><line fill-opacity="0.3" stroke="#999999" stroke-width="1" x1="70" x2="1070" y1="70" y2="70" /><line fill-opacity="0.3" stroke="#999999" stroke-width="1" x1="970" x2="970" y1="1070" y2="70" /><line fill-opacity="0.3" stroke="#999999" stroke-width="1" x1="70" x2="1070" y1="170" y2="170" /><line fill-opacity="0.3" stroke="#999999" stroke-width="1" x1="870" x2="870" y1="1070" y2="70" /><line fill-opacity="0.3" stroke="#999999" stroke-width="1" x1="70" x2="1070" y1="270" y2="270" /><line fill-opacity="0.3" stroke="#999999" stroke-width="1" x1="770" x2="770" y1="1070" y2="70" /><line fill-opacity="0.3" stroke="#999999" stroke-width="1" x1="70" x2="1070" y1="370" y2="370" /><line fill-opacity="0.3" stroke="#999999" stroke-width="1" x1="670" x2="670" y1="1070" y2="70" /><line fill-opacity="0.3" stroke="#999999" stroke-width="1" x1="70" x2="1070" y1="470" y2="470" /><line fill-opacity="0.3" stroke="#999999" stroke-width="1" x1="570" x2="570" y1="1070" y2="70" /><line fill-opacity="0.3" stroke="#999999" stroke-width="1" x1="70" x2="1070" y1="570" y2="570" /><line fill-opacity="0.3" stroke="#999999" stroke-width="1" x1="470" x2="470" y1="1070" y2="70" /><line fill-opacity="0.3" stroke="#999999" stroke-width="1" x1="70" x2="1070" y1="670" y2="670" /><line fill-opacity="0.3" stroke="#999999" stroke-width="1" x1="370" x2="370" y1="1070" y2="70" /><line fill-opacity="0.3" stroke="#999999" stroke-width="1" x1="70" x2="1070" y1="770" y2="770" /><line fill-opacity="0.3" stroke="#999999" stroke-width="1" x1="270" x2="270" y1="1070" y2="70" /><line fill-opacity="0.3" stroke="#999999" stroke-width="1" x1="70" x2="1070" y1="870" y2="870" /><line fill-opacity="0.3" stroke="#999999" stroke-width="1" x1="170" x2="170" y1="1070" y2="70" /><line fill-opacity="0.3" stroke="#999999" stroke-width="1" x1="70" x2="1070" y1="970" y2="970" /><line fill-opacity="0.3" stroke="#000000" stroke-width="1" x1="70" x2="70" y1="1071" y2="69" /><line fill-opacity="0.3" stroke="#000000" stroke-width="1" x1="69" x2="1071" y1="1070" y2="1070" /></g><g class="textos"><text x="1050" y="1110">1000</text><text x="10" y="71">1000</text><text x="950" y="1110">900</text><text x="10" y="171">900</text><text x="850" y="1110">800</text><text x="10" y="271">800</text><text x="750" y="1110">700</text><text x="10" y="371">700</text><text x="650" y="1110">600</text><text x="10" y="471">600</text><text x="550" y="1110">500</text><text x="10" y="571">500</text><text x="450" y="1110">400</text><text x="10" y="671">400</text><text x="350" y="1110">300</text><text x="10" y="771">300</text><text x="250" y="1110">200</text><text x="10" y="871">200</text><text x="150" y="1110">100</text><text x="10" y="971">100</text><text x="50" y="1111">0</text><text x="9" y="1071">0</text></g><g class="especies"><g class="e0"><circle cx="834" cy="1025" fill="#ff0000" r="3.5" stroke-width="0" /><circle cx="1029" cy="1050" fill="#ff0000" r="3.5" stroke-width="0" /><circle cx="895" cy="1037" fill="#ff0000" r="3.5" stroke-width="0" /><circle cx="986" cy="1048" fill="#ff0000" r="3.5" stroke-width="0" /><circle cx="882" cy="1035" fill="#ff0000" r="3.5" stroke-width="0" /><circle cx="835" cy="1026" fill="#ff0000" r="3.5" stroke-width="0" /><circle cx="843" cy="1027" fill="#ff0000" r="3.5" stroke-width="0" /><circle cx="968" cy="1046" fill="#ff0000" r="3.5" stroke-width="0" /><circle cx="926" cy="1042" fill="#ff0000" r="3.5" stroke-width="0" /><circle cx="1007" cy="1049" fill="#ff0000" r="3.5" stroke-width="0" /><circle cx="932" cy="1043" fill="#ff0000" r="3.5" stroke-width="0" /><circle cx="919" cy="1041" fill="#ff0000" r="3.5" stroke-width="0" /><circle cx="942" cy="1044" fill="#ff0000" r="3.5" stroke-width="0" /><circle cx="848" cy="1029" fill="#ff0000" r="3.5" stroke-width="0" /></g><g class="e1"><circle cx="760" cy="1005" fill="#2b92db" r="3.5" stroke-width="0" /><circle cx="730" cy="995" fill="#2b92db" r="3.5" stroke-width="0" /><circle cx="753" cy="1003" fill="#2b92db" r="3.5" stroke-width="0" /><circle cx="678" cy="975" fill="#2b92db" r="3.5" stroke-width="0" /><circle cx="821" cy="1022" fill="#2b92db" r="3.5" stroke-width="0" /><circle cx="665" cy="969" fill="#2b92db" r="3.5" stroke-width="0" /><circle cx="657" cy="966" fill="#2b92db" r="3.5" stroke-width="0" /><circle cx="621" cy="949" fill="#2b92db" r="3.5" stroke-width="0" /><circle cx="653" cy="964" fill="#2b92db" r="3.5" stroke-width="0" /><circle cx="735" cy="997" fill="#2b92db" r="3.5" stroke-width="0" /></g><g class="e2"><circle cx="494" cy="873" fill="#911eb4" r="3.5" stroke-width="0" /><circle cx="556" cy="913" fill="#911eb4" r="3.5" stroke-width="0" /><circle cx="566" cy="919" fill="#911eb4" r="3.5" stroke-width="0" /><circle cx="557" cy="914" fill="#911eb4" r="3.5" stroke-width="0" /><circle cx="524" cy="893" fill="#911eb4" r="3.5" stroke-width="0" /><circle cx="617" cy="947" fill="#911eb4" r="3.5" stroke-width="0" /><circle cx="457" cy="845" fill="#911eb4" r="3.5" stroke-width="0" /><circle cx="586" cy="930" fill="#911eb4" r="3.5" stroke-width="0" /></g><g class="e3"><circle cx="352" cy="749" fill="#3cb44B" r="3.5" stroke-width="0" /><circle cx="320" cy="713" fill="#3cb44B" r="3.5" stroke-width="0" /><circle cx="308" cy="699" fill="#3cb44B" r="3.5" stroke-width="0" /><circle cx="432" cy="825" fill="#3cb44B" r="3.5" stroke-width="0" /><circle cx="337" cy="733" fill="#3cb44B" r="3.5" stroke-width="0" /><circle cx="356" cy="753" fill="#3cb44B" r="3.5" stroke-width="0" /><circle cx="401" cy="797" fill="#3cb44B" r="3.5" stroke-width="0" /><circle cx="379" cy="777" fill="#3cb44B" r="3.5" stroke-width="0" /><circle cx="366" cy="764" fill="#3cb44B" r="3.5" stroke-width="0" /></g><g class="e4"><circle cx="234" cy="596" fill="#ff0000" r="3.5" stroke-width="0" /><circle cx="253" cy="625" fill="#ff0000" r="3.5" stroke-width="0" /><circle cx="207" cy="550" fill="#ff0000" r="3.5" stroke-width="0" /><circle cx="260" cy="636" fill="#ff0000" r="3.5" stroke-width="0" /><circle cx="265" cy="642" fill="#ff0000" r="3.5" stroke-width="0" /></g><g class="e5"><circle cx="146" cy="414" fill="#2b92db" r="3.5" stroke-width="0" /><circle cx="164" cy="460" fill="#2b92db" r="3.5" stroke-width="0" /><circle cx="156" cy="440" fill="#2b92db" r="3.5" stroke-width="0" /><circle cx="147" cy="416" fill="#2b92db" r="3.5" stroke-width="0" /><circle cx="135" cy="381" fill="#2b92db" r="3.5" stroke-width="0" /><circle cx="149" cy="421" fill="#2b92db" r="3.5" stroke-width="0" /><circle cx="171" cy="477" fill="#2b92db" r="3.5" stroke-width="0" /><circle cx="118" cy="320" fill="#2b92db" r="3.5" stroke-width="0" /><circle cx="127" cy="355" fill="#2b92db" r="3.5" stroke-width="0" /><circle cx="169" cy="471" fill="#2b92db" r="3.5" stroke-width="0" /><circle cx="145" cy="410" fill="#2b92db" r="3.5" stroke-width="0" /></g><g class="e6"><circle cx="91" cy="123" fill="#911eb4" r="3.5" stroke-width="0" /><circle cx="113" cy="299" fill="#911eb4" r="3.5" stroke-width="0" /><circle cx="93" cy="171" fill="#911eb4" r="3.5" stroke-width="0" /><circle cx="97" cy="205" fill="#911eb4" r="3.5" stroke-width="0" /><circle cx="115" cy="306" fill="#911eb4" r="3.5" stroke-width="0" /><circle cx="94" cy="176" fill="#911eb4" r="3.5" stroke-width="0" /><circle cx="105" cy="260" fill="#911eb4" r="3.5" stroke-width="0" /><circle cx="114" cy="305" fill="#911eb4" r="3.5" stroke-width="0" /></g></g></g></svg>