<?xml version="1.0" encoding="utf-8" ?>
<svg baseProfile="full" height="1140px" style="font-size:15;font-family:Arial, san-serif;font-weight:bold;stroke:black;stroke-width:0;fill:#444444" version="1.1" width="1140px" xmlns="http://www.w3.org/2000/svg" xmlns:ev="http://www.w3.org/2001/xml-events" xmlns:xlink="http://www.w3.org/1999/xlink"><defs><clipPath id="areadografico"><rect height="1000" width="1000" x="70" y="70" /></clipPath></defs><g class="master"><g class="poligonos"><polygon clip-path="url(#areadografico)" fill="#000000" fill-opacity="0.1" points="1069,1070 1069,871 870,1070" /><polygon clip-path="url(#areadografico)" fill="#ffffff" fill-opacity="0.1" points="871,1070 671,1070 1069,672 1069,871" /><polygon clip-path="url(#areadografico)" fill="#000000" fill-opacity="0.1" points="672,1070 471,1070 1069,472 1069,672" /><polygon clip-path="url(#areadografico)" fill="#ffffff" fill-opacity="0.1" points="472,1070 272,1070 1069,273 1069,472" /><polygon clip-path="url(#areadografico)" fill="#000000" fill-opacity="0.1" points="273,1070 73,1070 1069,74 1069,273" /><polygon clip-path="url(#areadografico)" fill="#ffffff" fill-opacity="0.1" points="74,1070 -127,1070 1069,-126 1069,74" /><polygon clip-path="url(#areadografico)" fill="#000000" fill-opacity="0.1" points="-126,1070 -326,1070 1069,-325 1069,-126" /><polygon clip-path="url(#areadografico)" fill="#ffffff" fill-opacity="0.1" points="-325,1070 -525,1070 1069,-524 1069,-325" /><polygon clip-path="url(#areadografico)" fill="#000000" fill-opacity="0.1" points="-524,1070 -725,1070 1069,-724 1069,-524" /><polygon clip-path="url(#areadografico)" fill="#ffffff" fill-opacity="0.1" points="70,71 70,276 275,71" /></g><g class="linhas"><line fill-opacity="0.3" stroke="#999999" stroke-width="1" x1="1070" x2="1070" y1="1070" y2="70" /><line fill-opacity="0.3" stroke="#999999" stroke-width="1" x1="70" x2="1070" y1="70" y2="70" /><line fill-opacity="0.3" stroke="#999999" stroke-width="1" x1="970" x2="970" y1="1070" y2="70" /><line fill-opacity="0.3" stroke="#999999" stroke-width="1" x1="70" x2="1070" y1="170" y2="170" /><line fill-opacity="0.3" stroke="#999999" stroke-width="1" x1="870" x2="870" y1="1070" y2="70" /><line fill-opacity="0.3" stroke="#999999" stroke-width="1" x1="70" x2="1070" y1="270" y2="270" /><line fill-opacity="0.3" stroke="#999999" stroke-width="1" x1="770" x2="770" y1="1070" y2="70" /><line fill-opacity="0.3" stroke="#999999" stroke-width="1" x1="70" x2="1070" y1="370" y2="370" /><line fill-opacity="0.3" stroke="#999999" stroke-width="1" x1="670" x2="670" y1="1070" y2="70" /><line fill-opacity="0.3" stroke="#999999" stroke-width="1" x1="70" x2="1070" y1="470" y2="470" /><line fill-opacity="0.3" stroke="#999999" stroke-width="1" x1="570" x2="570" y1="1070" y2="70" /><line fill-opacity="0.3" stroke="#999999" stroke-width="1" x1="70" x2="1070" y1="570" y2="570" /><line fill-opacity="0.3" stroke="#999999" stroke-width="1" x1="470" x2="470" y1="1070" y2="70" /><line fill-opacity="0.3" stroke="#999999" stroke-width="1" x1="70" x2="1070" y1="670" y2="670" /><line fill-opacity="0.3" stroke="#999999" stroke-width="1" x1="370" x2="370" y1="1070" y2="70" /><line fill-opacity="0.3" stroke="#999999" stroke-width="1" x1="70" x2="1070" y1="770" y2="770" /><line fill-opacity="0.3" stroke="#999999" stroke-width="1" x1="270" x2="270" y1="1070" y2="70" /><line fill-opacity="0.3" stroke="#999999" stroke-width="1" x1="70" x2="1070" y1="870" y2="870" /><line fill-opacity="0.3" stroke="#999999" stroke-width="1" x1="170" x2="170" y1="1070" y2="70" /><line fill-opacity="0.3" stroke="#999999" stroke-width="1" x1="70" x2="1070" y1="970" y2="970" /><line fill-opacity="0.3" stroke="#000000" stroke-width="1" x1="70" x2="70" y1="1071" y2="69" /><line fill-opacity="0.3" stroke="#000000" stroke-width="1" x1="69" x2="1071" y1="1070" y2="1070" /></g><g class="textos"><text x="1050" y="1110">1000</text><text x="10" y="71">1000</text><text x="950" y="1110">900</text><text x="10" y="171">900</text><text x="850" y="1110">800</text><text x="10" y="271">800</text><text x="750" y="1110">700</text><text x="10" y="371">700</text><text x="650" y="1110">600</text><text x="10" y="471">600</text><text x="550" y="1110">500</text><text x="10" y="571">500</text><text x="450" y="1110">400</text><text x="10" y="671">400</text><text x="350" y="1110">300</text><text x="10" y="771">300</text><text x="250" y="1110">200</text><text x="10" y="871">200</text><text x="150" y="1110">100</text><text x="10" y="971">100</text><text x="50" y="1111">0</text><text x="9" y="1071">0</text></g><g class="especies"><g class="e0"><circle cx="945" cy="1044" fill="#ff0000" r="3.5" stroke-width="0" /><circle cx="1038" cy="1050" fill="#ff0000" r="3.5" stroke-width="0" /><circle cx="1003" cy="1049" fill="#ff0000" r="3.5" stroke-width="0" /><circle cx="927" cy="1042" fill="#ff0000" r="3.5" stroke-width="0" /><circle cx="902" cy="1039" fill="#ff0000" r="3.5" stroke-width="0" /><circle cx="933" cy="1043" fill="#ff0000" r="3.5" stroke-width="0" /><circle cx="915" cy="1040" fill="#ff0000" r="3.5" stroke-width="0" /><circle cx="994" cy="1048" fill="#ff0000" r="3.5" stroke-width="0" /><circle cx="959" cy="1046" fill="#ff0000" r="3.5" stroke-width="0" /></g><g class="e1"><circle cx="780" cy="1011" fill="#2b92db" r="3.5" stroke-width="0" /><circle cx="787" cy="1013" fill="#2b92db" r="3.5" stroke-width="0" /><circle cx="896" cy="1038" fill="#2b92db" r="3.5" stroke-width="0" /><circle cx="807" cy="1019" fill="#2b92db" r="3.5" stroke-width="0" /><circle cx="853" cy="1030" fill="#2b92db" r="3.5" stroke-width="0" /><circle cx="768" cy="1008" fill="#2b92db" r="3.5" stroke-width="0" /><circle cx="824" cy="1023" fill="#2b92db" r="3.5" stroke-width="0" /><circle cx="814" cy="1021" fill="#2b92db" r="3.5" stroke-width="0" /><circle cx="834" cy="1025" fill="#2b92db" r="3.5" stroke-width="0" /><circle cx="811" cy="1020" fill="#2b92db" r="3.5" stroke-width="0" /><circle cx="877" cy="1034" fill="#2b92db" r="3.5" stroke-width="0" /><circle cx="766" cy="1007" fill="#2b92db" r="3.5" stroke-width="0" /><circle cx="748" cy="1001" fill="#2b92db" r="3.5" stroke-width="0" /></g><g class="e2"><circle cx="647" cy="961" fill="#911eb4" r="3.5" stroke-width="0" /><circle cx="626" cy="951" fill="#911eb4" r="3.5" stroke-width="0" /><circle cx="712" cy="989" fill="#911eb4" r="3.5" stroke-width="0" /><circle cx="722" cy="992" fill="#911eb4" r="3.5" stroke-width="0" /><circle cx="652" cy="964" fill="#911eb4" r="3.5" stroke-width="0" /><circle cx="649" cy="962" fill="#911eb4" r="3.5" stroke-width="0" /><circle cx="665" cy="969" fill="#911eb4" r="3.5" stroke-width="0" /><circle cx="718" cy="991" fill="#911eb4" r="3.5" stroke-width="0" /><circle cx="671" cy="972" fill="#911eb4" r="3.5" stroke-width="0" /></g><g class="e3"><circle cx="526" cy="894" fill="#3cb44B" r="3.5" stroke-width="0" /><circle cx="557" cy="914" fill="#3cb44B" r="3.5" stroke-width="0" /><circle cx="572" cy="923" fill="#3cb44B" r="3.5" stroke-width="0" /><circle cx="532" cy="898" fill="#3cb44B" r="3.5" stroke-width="0" /><circle cx="555" cy="913" fill="#3cb44B" r="3.5" stroke-width="0" /><circle cx="534" cy="900" fill="#3cb44B" r="3.5" stroke-width="0" /><circle cx="549" cy="909" fill="#3cb44B" r="3.5" stroke-width="0" /><circle cx="514" cy="886" fill="#3cb44B" r="3.5" stroke-width="0" /><circle cx="527" cy="895" fill="#3cb44B" r="3.5" stroke-width="0" /></g><g class="e4"><circle cx="478" cy="861" fill="#ff0000" r="3.5" stroke-width="0" /><circle cx="437" cy="829" fill="#ff0000" r="3.5" stroke-width="0" /><circle cx="465" cy="851" fill="#ff0000" r="3.5" stroke-width="0" /><circle cx="449" cy="839" fill="#ff0000" r="3.5" stroke-width="0" /><circle cx="453" cy="842" fill="#ff0000" r="3.5" stroke-width="0" /><circle cx="433" cy="825" fill="#ff0000" r="3.5" stroke-width="0" /><circle cx="379" cy="777" fill="#ff0000" r="3.5" stroke-width="0" /><circle cx="375" cy="773" fill="#ff0000" r="3.5" stroke-width="0" /><circle cx="467" cy="853" fill="#ff0000" r="3.5" stroke-width="0" /><circle cx="466" cy="852" fill="#ff0000" r="3.5" stroke-width="0" /><circle cx="388" cy="785" fill="#ff0000" r="3.5" stroke-width="0" /><circle cx="401" cy="797" fill="#ff0000" r="3.5" stroke-width="0" /><circle cx="442" cy="833" fill="#ff0000" r="3.5" stroke-width="0" /></g><g class="e5"><circle cx="339" cy="735" fill="#2b92db" r="3.5" stroke-width="0" /><circle cx="372" cy="770" fill="#2b92db" r="3.5" stroke-width="0" /><circle cx="281" cy="665" fill="#2b92db" r="3.5" stroke-width="0" /><circle cx="287" cy="673" fill="#2b92db" r="3.5" stroke-width="0" /><circle cx="348" cy="745" fill="#2b92db" r="3.5" stroke-width="0" /><circle cx="317" cy="710" fill="#2b92db" r="3.5" stroke-width="0" /><circle cx="361" cy="758" fill="#2b92db" r="3.5" stroke-width="0" /><circle cx="315" cy="708" fill="#2b92db" r="3.5" stroke-width="0" /><circle cx="312" cy="704" fill="#2b92db" r="3.5" stroke-width="0" /><circle cx="347" cy="744" fill="#2b92db" r="3.5" stroke-width="0" /><circle cx="288" cy="674" fill="#2b92db" r="3.5" stroke-width="0" /><circle cx="366" cy="764" fill="#2b92db" r="3.5" stroke-width="0" /><circle cx="318" cy="711" fill="#2b92db" r="3.5" stroke-width="0" /></g><g class="e6"><circle cx="204" cy="543" fill="#911eb4" r="3.5" stroke-width="0" /><circle cx="210" cy="555" fill="#911eb4" r="3.5" stroke-width="0" /><circle cx="227" cy="584" fill="#911eb4" r="3.5" stroke-width="0" /><circle cx="205" cy="545" fill="#911eb4" r="3.5" stroke-width="0" /><circle cx="222" cy="576" fill="#911eb4" r="3.5" stroke-width="0" /><circle cx="248" cy="618" fill="#911eb4" r="3.5" stroke-width="0" /><circle cx="271" cy="651" fill="#911eb4" r="3.5" stroke-width="0" /><circle cx="232" cy="592" fill="#911eb4" r="3.5" stroke-width="0" /><circle cx="265" cy="642" fill="#911eb4" r="3.5" stroke-width="0" /><circle cx="272" cy="652" fill="#911eb4" r="3.5" stroke-width="0" /><circle cx="223" cy="577" fill="#911eb4" r="3.5" stroke-width="0" /></g><g class="e7"><circle cx="193" cy="522" fill="#3cb44B" r="3.5" stroke-width="0" /><circle cx="176" cy="487" fill="#3cb44B" r="3.5" stroke-width="0" /><circle cx="164" cy="459" fill="#3cb44B" r="3.5" stroke-width="0" /><circle cx="202" cy="540" fill="#3cb44B" r="3.5" stroke-width="0" /><circle cx="191" cy="518" fill="#3cb44B" r="3.5" stroke-width="0" /><circle cx="195" cy="527" fill="#3cb44B" r="3.5" stroke-width="0" /><circle cx="143" cy="404" fill="#3cb44B" r="3.5" stroke-width="0" /><circle cx="186" cy="509" fill="#3cb44B" r="3.5" stroke-width="0" /><circle cx="169" cy="472" fill="#3cb44B" r="3.5" stroke-width="0" /><circle cx="194" cy="525" fill="#3cb44B" r="3.5" stroke-width="0" /></g><g class="e8"><circle cx="120" cy="327" fill="#ff0000" r="3.5" stroke-width="0" /><circle cx="115" cy="306" fill="#ff0000" r="3.5" stroke-width="0" /><circle cx="122" cy="335" fill="#ff0000" r="3.5" stroke-width="0" /><circle cx="104" cy="251" fill="#ff0000" r="3.5" stroke-width="0" /><circle cx="108" cy="275" fill="#ff0000" r="3.5" stroke-width="0" /><circle cx="107" cy="268" fill="#ff0000" r="3.5" stroke-width="0" /><circle cx="113" cy="299" fill="#ff0000" r="3.5" stroke-width="0" /><circle cx="137" cy="388" fill="#ff0000" r="3.5" stroke-width="0" /><circle cx="119" cy="324" fill="#ff0000" r="3.5" stroke-width="0" /><circle cx="134" cy="377" fill="#ff0000" r="3.5" stroke-width="0" /></g><g class="e9"><circle cx="93" cy="166" fill="#2b92db" r="3.5" stroke-width="0" /><circle cx="91" cy="126" fill="#2b92db" r="3.5" stroke-width="0" /><circle cx="94" cy="174" fill="#2b92db" r="3.5" stroke-width="0" /><circle cx="98" cy="216" fill="#2b92db" r="3.5" stroke-width="0" /><circle cx="100" cy="228" fill="#2b92db" r="3.5" stroke-width="0" /><circle cx="95" cy="190" fill="#2b92db" r="3.5" stroke-width="0" /><circle cx="90" cy="103" fill="#2b92db" r="3.5" stroke-width="0" /><circle cx="92" cy="148" fill="#2b92db" r="3.5" stroke-width="0" /></g></g></g></svg>