<?xml version="1.0" encoding="utf-8" ?>
<svg baseProfile="full" height="1140px" style="font-size:15;font-family:Arial, san-serif;font-weight:bold;stroke:black;stroke-width:0;fill:#444444" version="1.1" width="1140px" xmlns="http://www.w3.org/2000/svg" xmlns:ev="http://www.w3.org/2001/xml-events" xmlns:xlink="http://www.w3.org/1999/xlink"><defs><clipPath id="areadografico"><rect height="1000" width="1000" x="70" y="70" /></clipPath></defs><g class="master"><g class="poligonos"><polygon clip-path="url(#areadografico)" fill="#000000" fill-opacity="0.1" points="1069,1070 1069,822 821,1070" /><polygon clip-path="url(#areadografico)" fill="#ffffff" fill-opacity="0.1" points="822,1070 572,1070 1069,573 1069,822" /><polygon clip-path="url(#areadografico)" fill="#000000" fill-opacity="0.1" points="573,1070 323,1070 1069,324 1069,573" /><polygon clip-path="url(#areadografico)" fill="#ffffff" fill-opacity="0.1" points="324,1070 74,1070 1069,75 1069,324" /><polygon clip-path="url(#areadografico)" fill="#000000" fill-opacity="0.1" points="75,1070 -175,1070 1069,-174 1069,75" /><polygon clip-path="url(#areadografico)" fill="#ffffff" fill-opacity="0.1" points="-174,1070 -424,1070 1069,-423 1069,-174" /><polygon clip-path="url(#areadografico)" fill="#000000" fill-opacity="0.1" points="-423,1070 -673,1070 1069,-672 1069,-423" /><polygon clip-path="url(#areadografico)" fill="#ffffff" fill-opacity="0.1" points="70,71 70,328 327,71" /></g><g class="linhas"><line fill-opacity="0.3" stroke="#999999" stroke-width="1" x1="1070" x2="1070" y1="1070" y2="70" /><line fill-opacity="0.3" stroke="#999999" stroke-width="1" x1="70" x2="1070" y1="70" y2="70" /><line fill-opacity="0.3" stroke="#999999" stroke-width="1" x1="970" x2="970" y1="1070" y2="70" /><line fill-opacity="0.3" stroke="#999999" stroke-width="1" x1="70" x2="1070" y1="170" y2="170" /><line fill-opacity="0.3" stroke="#999999" stroke-width="1" x1="870" x2="870" y1="1070" y2="70" /><line fill-opacity="0.3" stroke="#999999" stroke-width="1" x1="70" x2="1070" y1="270" y2="270" /><line fill-opacity="0.3" stroke="#999999" stroke-width="1" x1="770" x2="770" y1="1070" y2="70" /><line fill-opacity="0.3" stroke="#999999" stroke-width="1" x1="70" x2="1070" y1="370" y2="370" /><line fill-opacity="0.3" stroke="#999999" stroke-width="1" x1="670" x2="670" y1="1070" y2="70" /><line fill-opacity="0.3" stroke="#999999" stroke-width="1" x1="70" x2="1070" y1="470" y2="470" /><line fill-opacity="0.3" stroke="#999999" stroke-width="1" x1="570" x2="570" y1="1070" y2="70" /><line fill-opacity="0.3" stroke="#999999" stroke-width="1" x1="70" x2="1070" y1="570" y2="570" /><line fill-opacity="0.3" stroke="#999999" stroke-width="1" x1="470" x2="470" y1="1070" y2="70" /><line fill-opacity="0.3" stroke="#999999" stroke-width="1" x1="70" x2="1070" y1="670" y2="670" /><line fill-opacity="0.3" stroke="#999999" stroke-width="1" x1="370" x2="370" y1="1070" y2="70" /><line fill-opacity="0.3" stroke="#999999" stroke-width="1" x1="70" x2="1070" y1="770" y2="770" /><line fill-opacity="0.3" stroke="#999999" stroke-width="1" x1="270" x2="270" y1="1070" y2="70" /><line fill-opacity="0.3" stroke="#999999" stroke-width="1" x1="70" x2="1070" y1="870" y2="870" /><line fill-opacity="0.3" stroke="#999999" stroke-width="1" x1="170" x2="170" y1="1070" y2="70" /><line fill-opacity="0.3" stroke="#999999" stroke-width="1" x1="70" x2="1070" y1="970" y2="970" /><line fill-opacity="0.3" stroke="#000000" stroke-width="1" x1="70" x2="70" y1="1071" y2="69" /><line fill-opacity="0.3" stroke="#000000" stroke-width="1" x1="69" x2="1071" y1="1070" y2="1070" /></g><g class="textos"><text x="1050" y="1110">1000</text><text x="10" y="71">1000</text><text x="950" y="1110">900</text><text x="10" y="171">900</text><text x="850" y="1110">800</text><text x="10" y="271">800</text><text x="750" y="1110">700</text><text x="10" y="371">700</text><text x="650" y="1110">600</text><text x="10" y="471">600</text><text x="550" y="1110">500</text><text x="10" y="571">500</text><text x="450" y="1110">400</text><text x="10" y="671">400</text><text x="350" y="1110">300</text><text x="10" y="771">300</text><text x="250" y="1110">200</text><text x="10" y="871">200</text><text x="150" y="1110">100</text><text x="10" y="971">100</text><text x="50" y="1111">0</text><text x="9" y="1071">0</text></g><g class="especies"><g class="e0"><circle cx="903" cy="1039" fill="#ff0000" r="3.5" stroke-width="0" /><circle cx="1034" cy="1050" fill="#ff0000" r="3.5" stroke-width="0" /><circle cx="994" cy="1048" fill="#ff0000" r="3.5" stroke-width="0" /><circle cx="1008" cy="1049" fill="#ff0000" r="3.5" stroke-width="0" /><circle cx="915" cy="1040" fill="#ff0000" r="3.5" stroke-width="0" /><circle cx="919" cy="1041" fill="#ff0000" r="3.5" stroke-width="0" /><circle cx="860" cy="1031" fill="#ff0000" r="3.5" stroke-width="0" /><circle cx="881" cy="1035" fill="#ff0000" r="3.5" stroke-width="0" /><circle cx="954" cy="1045" fill="#ff0000" r="3.5" stroke-width="0" /></g><g class="e1"><circle cx="818" cy="1022" fill="#2b92db" r="3.5" stroke-width="0" /><circle cx="791" cy="1014" fill="#2b92db" r="3.5" stroke-width="0" /><circle cx="757" cy="1004" fill="#2b92db" r="3.5" stroke-width="0" /><circle cx="809" cy="1019" fill="#2b92db" r="3.5" stroke-width="0" /><circle cx="837" cy="1026" fill="#2b92db" r="3.5" stroke-width="0" /><circle cx="688" cy="979" fill="#2b92db" r="3.5" stroke-width="0" /><circle cx="846" cy="1028" fill="#2b92db" r="3.5" stroke-width="0" /><circle cx="764" cy="1006" fill="#2b92db" r="3.5" stroke-width="0" /><circle cx="806" cy="1018" fill="#2b92db" r="3.5" stroke-width="0" /><circle cx="776" cy="1010" fill="#2b92db" r="3.5" stroke-width="0" /><circle cx="749" cy="1002" fill="#2b92db" r="3.5" stroke-width="0" /><circle cx="718" cy="991" fill="#2b92db" r="3.5" stroke-width="0" /><circle cx="679" cy="975" fill="#2b92db" r="3.5" stroke-width="0" /><circle cx="676" cy="974" fill="#2b92db" r="3.5" stroke-width="0" /><circle cx="774" cy="1009" fill="#2b92db" r="3.5" stroke-width="0" /><circle cx="798" cy="1016" fill="#2b92db" r="3.5" stroke-width="0" /><circle cx="746" cy="1001" fill="#2b92db" r="3.5" stroke-width="0" /></g><g class="e2"><circle cx="567" cy="920" fill="#911eb4" r="3.5" stroke-width="0" /><circle cx="530" cy="897" fill="#911eb4" r="3.5" stroke-width="0" /><circle cx="632" cy="954" fill="#911eb4" r="3.5" stroke-width="0" /><circle cx="633" cy="955" fill="#911eb4" r="3.5" stroke-width="0" /><circle cx="595" cy="935" fill="#911eb4" r="3.5" stroke-width="0" /><circle cx="616" cy="946" fill="#911eb4" r="3.5" stroke-width="0" /><circle cx="601" cy="939" fill="#911eb4" r="3.5" stroke-width="0" /><circle cx="637" cy="957" fill="#911eb4" r="3.5" stroke-width="0" /><circle cx="521" cy="891" fill="#911eb4" r="3.5" stroke-width="0" /><circle cx="577" cy="925" fill="#911eb4" r="3.5" stroke-width="0" /><circle cx="587" cy="931" fill="#911eb4" r="3.5" stroke-width="0" /><circle cx="607" cy="942" fill="#911eb4" r="3.5" stroke-width="0" /><circle cx="566" cy="919" fill="#911eb4" r="3.5" stroke-width="0" /><circle cx="667" cy="970" fill="#911eb4" r="3.5" stroke-width="0" /><circle cx="563" cy="917" fill="#911eb4" r="3.5" stroke-width="0" /><circle cx="551" cy="910" fill="#911eb4" r="3.5" stroke-width="0" /></g><g class="e3"><circle cx="479" cy="862" fill="#3cb44B" r="3.5" stroke-width="0" /><circle cx="405" cy="801" fill="#3cb44B" r="3.5" stroke-width="0" /><circle cx="495" cy="873" fill="#3cb44B" r="3.5" stroke-width="0" /><circle cx="424" cy="818" fill="#3cb44B" r="3.5" stroke-width="0" /><circle cx="397" cy="794" fill="#3cb44B" r="3.5" stroke-width="0" /><circle cx="417" cy="812" fill="#3cb44B" r="3.5" stroke-width="0" /><circle cx="488" cy="868" fill="#3cb44B" r="3.5" stroke-width="0" /><circle cx="445" cy="835" fill="#3cb44B" r="3.5" stroke-width="0" /><circle cx="457" cy="845" fill="#3cb44B" r="3.5" stroke-width="0" /><circle cx="432" cy="825" fill="#3cb44B" r="3.5" stroke-width="0" /><circle cx="453" cy="842" fill="#3cb44B" r="3.5" stroke-width="0" /><circle cx="492" cy="871" fill="#3cb44B" r="3.5" stroke-width="0" /><circle cx="502" cy="878" fill="#3cb44B" r="3.5" stroke-width="0" /><circle cx="477" cy="860" fill="#3cb44B" r="3.5" stroke-width="0" /></g><g class="e4"><circle cx="288" cy="674" fill="#ff0000" r="3.5" stroke-width="0" /><circle cx="347" cy="744" fill="#ff0000" r="3.5" stroke-width="0" /><circle cx="291" cy="678" fill="#ff0000" r="3.5" stroke-width="0" /><circle cx="270" cy="650" fill="#ff0000" r="3.5" stroke-width="0" /><circle cx="317" cy="710" fill="#ff0000" r="3.5" stroke-width="0" /><circle cx="286" cy="671" fill="#ff0000" r="3.5" stroke-width="0" /><circle cx="305" cy="695" fill="#ff0000" r="3.5" stroke-width="0" /><circle cx="312" cy="704" fill="#ff0000" r="3.5" stroke-width="0" /><circle cx="370" cy="768" fill="#ff0000" r="3.5" stroke-width="0" /><circle cx="272" cy="653" fill="#ff0000" r="3.5" stroke-width="0" /><circle cx="341" cy="737" fill="#ff0000" r="3.5" stroke-width="0" /><circle cx="332" cy="727" fill="#ff0000" r="3.5" stroke-width="0" /><circle cx="333" cy="728" fill="#ff0000" r="3.5" stroke-width="0" /></g><g class="e5"><circle cx="185" cy="507" fill="#2b92db" r="3.5" stroke-width="0" /><circle cx="212" cy="558" fill="#2b92db" r="3.5" stroke-width="0" /><circle cx="200" cy="537" fill="#2b92db" r="3.5" stroke-width="0" /><circle cx="179" cy="494" fill="#2b92db" r="3.5" stroke-width="0" /><circle cx="224" cy="579" fill="#2b92db" r="3.5" stroke-width="0" /><circle cx="229" cy="587" fill="#2b92db" r="3.5" stroke-width="0" /><circle cx="186" cy="509" fill="#2b92db" r="3.5" stroke-width="0" /><circle cx="195" cy="526" fill="#2b92db" r="3.5" stroke-width="0" /><circle cx="201" cy="538" fill="#2b92db" r="3.5" stroke-width="0" /><circle cx="219" cy="571" fill="#2b92db" r="3.5" stroke-width="0" /><circle cx="182" cy="501" fill="#2b92db" r="3.5" stroke-width="0" /><circle cx="239" cy="603" fill="#2b92db" r="3.5" stroke-width="0" /><circle cx="174" cy="483" fill="#2b92db" r="3.5" stroke-width="0" /><circle cx="206" cy="548" fill="#2b92db" r="3.5" stroke-width="0" /><circle cx="191" cy="518" fill="#2b92db" r="3.5" stroke-width="0" /><circle cx="189" cy="515" fill="#2b92db" r="3.5" stroke-width="0" /><circle cx="215" cy="564" fill="#2b92db" r="3.5" stroke-width="0" /><circle cx="194" cy="525" fill="#2b92db" r="3.5" stroke-width="0" /><circle cx="230" cy="590" fill="#2b92db" r="3.5" stroke-width="0" /><circle cx="184" cy="504" fill="#2b92db" r="3.5" stroke-width="0" /></g><g class="e6"><circle cx="120" cy="328" fill="#911eb4" r="3.5" stroke-width="0" /><circle cx="124" cy="345" fill="#911eb4" r="3.5" stroke-width="0" /><circle cx="136" cy="383" fill="#911eb4" r="3.5" stroke-width="0" /><circle cx="114" cy="303" fill="#911eb4" r="3.5" stroke-width="0" /><circle cx="115" cy="309" fill="#911eb4" r="3.5" stroke-width="0" /><circle cx="169" cy="472" fill="#911eb4" r="3.5" stroke-width="0" /><circle cx="111" cy="288" fill="#911eb4" r="3.5" stroke-width="0" /><circle cx="117" cy="317" fill="#911eb4" r="3.5" stroke-width="0" /><circle cx="140" cy="396" fill="#911eb4" r="3.5" stroke-width="0" /><circle cx="128" cy="359" fill="#911eb4" r="3.5" stroke-width="0" /><circle cx="141" cy="399" fill="#911eb4" r="3.5" stroke-width="0" /><circle cx="161" cy="453" fill="#911eb4" r="3.5" stroke-width="0" /><circle cx="149" cy="422" fill="#911eb4" r="3.5" stroke-width="0" /><circle cx="158" cy="444" fill="#911eb4" r="3.5" stroke-width="0" /><circle cx="147" cy="417" fill="#911eb4" r="3.5" stroke-width="0" /><circle cx="118" cy="322" fill="#911eb4" r="3.5" stroke-width="0" /><circle cx="135" cy="379" fill="#911eb4" r="3.5" stroke-width="0" /><circle cx="130" cy="364" fill="#911eb4" r="3.5" stroke-width="0" /><circle cx="166" cy="464" fill="#911eb4" r="3.5" stroke-width="0" /><circle cx="153" cy="431" fill="#911eb4" r="3.5" stroke-width="0" /><circle cx="134" cy="378" fill="#911eb4" r="3.5" stroke-width="0" /><circle cx="127" cy="354" fill="#911eb4" r="3.5" stroke-width="0" /><circle cx="125" cy="348" fill="#911eb4" r="3.5" stroke-width="0" /><circle cx="146" cy="413" fill="#911eb4" r="3.5" stroke-width="0" /><circle cx="167" cy="467" fill="#911eb4" r="3.5" stroke-width="0" /><circle cx="137" cy="386" fill="#911eb4" r="3.5" stroke-width="0" /></g><g class="e7"><circle cx="97" cy="205" fill="#3cb44B" r="3.5" stroke-width="0" /><circle cx="110" cy="284" fill="#3cb44B" r="3.5" stroke-width="0" /><circle cx="92" cy="157" fill="#3cb44B" r="3.5" stroke-width="0" /><circle cx="90" cy="99" fill="#3cb44B" r="3.5" stroke-width="0" /><circle cx="109" cy="280" fill="#3cb44B" r="3.5" stroke-width="0" /><circle cx="94" cy="172" fill="#3cb44B" r="3.5" stroke-width="0" /><circle cx="91" cy="138" fill="#3cb44B" r="3.5" stroke-width="0" /><circle cx="105" cy="258" fill="#3cb44B" r="3.5" stroke-width="0" /><circle cx="103" cy="249" fill="#3cb44B" r="3.5" stroke-width="0" /><circle cx="95" cy="185" fill="#3cb44B" r="3.5" stroke-width="0" /></g></g></g></svg>