<?xml version="1.0" encoding="utf-8" ?>
<svg baseProfile="full" height="1140px" style="font-size:15;font-family:Arial, san-serif;font-weight:bold;stroke:black;stroke-width:0;fill:#444444" version="1.1" width="1140px" xmlns="http://www.w3.org/2000/svg" xmlns:ev="http://www.w3.org/2001/xml-events" xmlns:xlink="http://www.w3.org/1999/xlink"><defs><clipPath id="areadografico"><rect height="1000" width="1000" x="70" y="70" /></clipPath></defs><g class="master"><g class="poligonos"><polygon clip-path="url(#areadografico)" fill="#000000" fill-opacity="0.1" points="1069,1070 1069,890 889,1070" /><polygon clip-path="url(#areadografico)" fill="#ffffff" fill-opacity="0.1" points="890,1070 708,1070 1069,709 1069,890" /><polygon clip-path="url(#areadografico)" fill="#000000" fill-opacity="0.1" points="709,1070 527,1070 1069,528 1069,709" /><polygon clip-path="url(#areadografico)" fill="#ffffff" fill-opacity="0.1" points="528,1070 346,1070 1069,347 1069,528" /><polygon clip-path="url(#areadografico)" fill="#000000" fill-opacity="0.1" points="347,1070 165,1070 1069,166 1069,347" /><polygon clip-path="url(#areadografico)" fill="#ffffff" fill-opacity="0.1" points="166,1070 -16,1070 1069,-15 1069,166" /><polygon clip-path="url(#areadografico)" fill="#000000" fill-opacity="0.1" points="-15,1070 -197,1070 1069,-196 1069,-15" /><polygon clip-path="url(#areadografico)" fill="#ffffff" fill-opacity="0.1" points="-196,1070 -378,1070 1069,-377 1069,-196" /><polygon clip-path="url(#areadografico)" fill="#000000" fill-opacity="0.1" points="-377,1070 -559,1070 1069,-558 1069,-377" /><polygon clip-path="url(#areadografico)" fill="#ffffff" fill-opacity="0.1" points="-558,1070 -740,1070 1069,-739 1069,-558" /><polygon clip-path="url(#areadografico)" fill="#000000" fill-opacity="0.1" points="70,71 70,260 259,71" /></g><g class="linhas"><line fill-opacity="0.3" stroke="#999999" stroke-width="1" x1="1070" x2="1070" y1="1070" y2="70" /><line fill-opacity="0.3" stroke="#999999" stroke-width="1" x1="70" x2="1070" y1="70" y2="70" /><line fill-opacity="0.3" stroke="#999999" stroke-width="1" x1="970" x2="970" y1="1070" y2="70" /><line fill-opacity="0.3" stroke="#999999" stroke-width="1" x1="70" x2="1070" y1="170" y2="170" /><line fill-opacity="0.3" stroke="#999999" stroke-width="1" x1="870" x2="870" y1="1070" y2="70" /><line fill-opacity="0.3" stroke="#999999" stroke-width="1" x1="70" x2="1070" y1="270" y2="270" /><line fill-opacity="0.3" stroke="#999999" stroke-width="1" x1="770" x2="770" y1="1070" y2="70" /><line fill-opacity="0.3" stroke="#999999" stroke-width="1" x1="70" x2="1070" y1="370" y2="370" /><line fill-opacity="0.3" stroke="#999999" stroke-width="1" x1="670" x2="670" y1="1070" y2="70" /><line fill-opacity="0.3" stroke="#999999" stroke-width="1" x1="70" x2="1070" y1="470" y2="470" /><line fill-opacity="0.3" stroke="#999999" stroke-width="1" x1="570" x2="570" y1="1070" y2="70" /><line fill-opacity="0.3" stroke="#999999" stroke-width="1" x1="70" x2="1070" y1="570" y2="570" /><line fill-opacity="0.3" stroke="#999999" stroke-width="1" x1="470" x2="470" y1="1070" y2="70" /><line fill-opacity="0.3" stroke="#999999" stroke-width="1" x1="70" x2="1070" y1="670" y2="670" /><line fill-opacity="0.3" stroke="#999999" stroke-width="1" x1="370" x2="370" y1="1070" y2="70" /><line fill-opacity="0.3" stroke="#999999" stroke-width="1" x1="70" x2="1070" y1="770" y2="770" /><line fill-opacity="0.3" stroke="#999999" stroke-width="1" x1="270" x2="270" y1="1070" y2="70" /><line fill-opacity="0.3" stroke="#999999" stroke-width="1" x1="70" x2="1070" y1="870" y2="870" /><line fill-opacity="0.3" stroke="#999999" stroke-width="1" x1="170" x2="170" y1="1070" y2="70" /><line fill-opacity="0.3" stroke="#999999" stroke-width="1" x1="70" x2="1070" y1="970" y2="970" /><line fill-opacity="0.3" stroke="#000000" stroke-width="1" x1="70" x2="70" y1="1071" y2="69" /><line fill-opacity="0.3" stroke="#000000" stroke-width="1" x1="69" x2="1071" y1="1070" y2="1070" /></g><g class="textos"><text x="1050" y="1110">1000</text><text x="10" y="71">1000</text><text x="950" y="1110">900</text><text x="10" y="171">900</text><text x="850" y="1110">800</text><text x="10" y="271">800</text><text x="750" y="1110">700</text><text x="10" y="371">700</text><text x="650" y="1110">600</text><text x="10" y="471">600</text><text x="550" y="1110">500</text><text x="10" y="571">500</text><text x="450" y="1110">400</text><text x="10" y="671">400</text><text x="350" y="1110">300</text><text x="10" y="771">300</text><text x="250" y="1110">200</text><text x="10" y="871">200</text><text x="150" y="1110">100</text><text x="10" y="971">100</text><text x="50" y="1111">0</text><text x="9" y="1071">0</text></g><g class="especies"><g class="e0"><circle cx="1020" cy="1050" fill="#ff0000" r="3.5" stroke-width="0" /><circle cx="1025" cy="1050" fill="#ff0000" r="3.5" stroke-width="0" /><circle cx="1031" cy="1050" fill="#ff0000" r="3.5" stroke-width="0" /><circle cx="1036" cy="1050" fill="#ff0000" r="3.5" stroke-width="0" /><circle cx="1041" cy="1050" fill="#ff0000" r="3.5" stroke-width="0" /><circle cx="1047" cy="1050" fill="#ff0000" r="3.5" stroke-width="0" /><circle cx="998" cy="1049" fill="#ff0000" r="3.5" stroke-width="0" /><circle cx="1003" cy="1049" fill="#ff0000" r="3.5" stroke-width="0" /><circle cx="1009" cy="1049" fill="#ff0000" r="3.5" stroke-width="0" /><circle cx="1014" cy="1049" fill="#ff0000" r="3.5" stroke-width="0" /><circle cx="1019" cy="1049" fill="#ff0000" r="3.5" stroke-width="0" /><circle cx="986" cy="1048" fill="#ff0000" r="3.5" stroke-width="0" /><circle cx="991" cy="1048" fill="#ff0000" r="3.5" stroke-width="0" /><circle cx="996" cy="1048" fill="#ff0000" r="3.5" stroke-width="0" /><circle cx="974" cy="1047" fill="#ff0000" r="3.5" stroke-width="0" /><circle cx="979" cy="1047" fill="#ff0000" r="3.5" stroke-width="0" /><circle cx="961" cy="1046" fill="#ff0000" r="3.5" stroke-width="0" /><circle cx="967" cy="1046" fill="#ff0000" r="3.5" stroke-width="0" /><circle cx="951" cy="1045" fill="#ff0000" r="3.5" stroke-width="0" /><circle cx="956" cy="1045" fill="#ff0000" r="3.5" stroke-width="0" /><circle cx="943" cy="1044" fill="#ff0000" r="3.5" stroke-width="0" /><circle cx="931" cy="1043" fill="#ff0000" r="3.5" stroke-width="0" /><circle cx="936" cy="1043" fill="#ff0000" r="3.5" stroke-width="0" /><circle cx="926" cy="1042" fill="#ff0000" r="3.5" stroke-width="0" /><circle cx="921" cy="1041" fill="#ff0000" r="3.5" stroke-width="0" /></g><g class="e1"><circle cx="916" cy="1041" fill="#2b92db" r="3.5" stroke-width="0" /><circle cx="913" cy="1040" fill="#2b92db" r="3.5" stroke-width="0" /><circle cx="904" cy="1039" fill="#2b92db" r="3.5" stroke-width="0" /><circle cx="896" cy="1038" fill="#2b92db" r="3.5" stroke-width="0" /><circle cx="890" cy="1037" fill="#2b92db" r="3.5" stroke-width="0" /><circle cx="895" cy="1037" fill="#2b92db" r="3.5" stroke-width="0" /><circle cx="888" cy="1036" fill="#2b92db" r="3.5" stroke-width="0" /><circle cx="883" cy="1035" fill="#2b92db" r="3.5" stroke-width="0" /><circle cx="877" cy="1034" fill="#2b92db" r="3.5" stroke-width="0" /><circle cx="871" cy="1033" fill="#2b92db" r="3.5" stroke-width="0" /><circle cx="867" cy="1032" fill="#2b92db" r="3.5" stroke-width="0" /><circle cx="862" cy="1031" fill="#2b92db" r="3.5" stroke-width="0" /><circle cx="857" cy="1030" fill="#2b92db" r="3.5" stroke-width="0" /><circle cx="844" cy="1028" fill="#2b92db" r="3.5" stroke-width="0" /><circle cx="840" cy="1027" fill="#2b92db" r="3.5" stroke-width="0" /><circle cx="836" cy="1026" fill="#2b92db" r="3.5" stroke-width="0" /><circle cx="834" cy="1025" fill="#2b92db" r="3.5" stroke-width="0" /><circle cx="830" cy="1024" fill="#2b92db" r="3.5" stroke-width="0" /><circle cx="818" cy="1022" fill="#2b92db" r="3.5" stroke-width="0" /><circle cx="816" cy="1021" fill="#2b92db" r="3.5" stroke-width="0" /><circle cx="813" cy="1020" fill="#2b92db" r="3.5" stroke-width="0" /><circle cx="804" cy="1018" fill="#2b92db" r="3.5" stroke-width="0" /><circle cx="802" cy="1017" fill="#2b92db" r="3.5" stroke-width="0" /><circle cx="792" cy="1015" fill="#2b92db" r="3.5" stroke-width="0" /><circle cx="790" cy="1014" fill="#2b92db" r="3.5" stroke-width="0" /><circle cx="782" cy="1012" fill="#2b92db" r="3.5" stroke-width="0" /><circle cx="780" cy="1011" fill="#2b92db" r="3.5" stroke-width="0" /><circle cx="772" cy="1009" fill="#2b92db" r="3.5" stroke-width="0" /></g><g class="e2"><circle cx="765" cy="1007" fill="#911eb4" r="3.5" stroke-width="0" /><circle cx="764" cy="1006" fill="#911eb4" r="3.5" stroke-width="0" /><circle cx="755" cy="1004" fill="#911eb4" r="3.5" stroke-width="0" /><circle cx="749" cy="1002" fill="#911eb4" r="3.5" stroke-width="0" /><circle cx="748" cy="1001" fill="#911eb4" r="3.5" stroke-width="0" /><circle cx="741" cy="999" fill="#911eb4" r="3.5" stroke-width="0" /><circle cx="735" cy="997" fill="#911eb4" r="3.5" stroke-width="0" /><circle cx="730" cy="995" fill="#911eb4" r="3.5" stroke-width="0" /><circle cx="723" cy="993" fill="#911eb4" r="3.5" stroke-width="0" /><circle cx="719" cy="991" fill="#911eb4" r="3.5" stroke-width="0" /><circle cx="712" cy="989" fill="#911eb4" r="3.5" stroke-width="0" /><circle cx="707" cy="987" fill="#911eb4" r="3.5" stroke-width="0" /><circle cx="703" cy="985" fill="#911eb4" r="3.5" stroke-width="0" /><circle cx="697" cy="983" fill="#911eb4" r="3.5" stroke-width="0" /><circle cx="692" cy="981" fill="#911eb4" r="3.5" stroke-width="0" /><circle cx="688" cy="979" fill="#911eb4" r="3.5" stroke-width="0" /><circle cx="684" cy="977" fill="#911eb4" r="3.5" stroke-width="0" /><circle cx="679" cy="975" fill="#911eb4" r="3.5" stroke-width="0" /><circle cx="671" cy="972" fill="#911eb4" r="3.5" stroke-width="0" /><circle cx="667" cy="970" fill="#911eb4" r="3.5" stroke-width="0" /><circle cx="662" cy="968" fill="#911eb4" r="3.5" stroke-width="0" /><circle cx="655" cy="965" fill="#911eb4" r="3.5" stroke-width="0" /><circle cx="651" cy="963" fill="#911eb4" r="3.5" stroke-width="0" /><circle cx="644" cy="960" fill="#911eb4" r="3.5" stroke-width="0" /><circle cx="640" cy="958" fill="#911eb4" r="3.5" stroke-width="0" /></g><g class="e3"><circle cx="633" cy="955" fill="#3cb44B" r="3.5" stroke-width="0" /><circle cx="630" cy="953" fill="#3cb44B" r="3.5" stroke-width="0" /><circle cx="624" cy="950" fill="#3cb44B" r="3.5" stroke-width="0" /><circle cx="617" cy="947" fill="#3cb44B" r="3.5" stroke-width="0" /><circle cx="614" cy="945" fill="#3cb44B" r="3.5" stroke-width="0" /><circle cx="608" cy="942" fill="#3cb44B" r="3.5" stroke-width="0" /><circle cx="601" cy="939" fill="#3cb44B" r="3.5" stroke-width="0" /><circle cx="596" cy="936" fill="#3cb44B" r="3.5" stroke-width="0" /><circle cx="590" cy="933" fill="#3cb44B" r="3.5" stroke-width="0" /><circle cx="585" cy="930" fill="#3cb44B" r="3.5" stroke-width="0" /><circle cx="582" cy="928" fill="#3cb44B" r="3.5" stroke-width="0" /><circle cx="574" cy="924" fill="#3cb44B" r="3.5" stroke-width="0" /><circle cx="569" cy="921" fill="#3cb44B" r="3.5" stroke-width="0" /><circle cx="564" cy="918" fill="#3cb44B" r="3.5" stroke-width="0" /><circle cx="559" cy="915" fill="#3cb44B" r="3.5" stroke-width="0" /><circle cx="554" cy="912" fill="#3cb44B" r="3.5" stroke-width="0" /><circle cx="549" cy="909" fill="#3cb44B" r="3.5" stroke-width="0" /><circle cx="542" cy="905" fill="#3cb44B" r="3.5" stroke-width="0" /><circle cx="538" cy="902" fill="#3cb44B" r="3.5" stroke-width="0" /><circle cx="533" cy="899" fill="#3cb44B" r="3.5" stroke-width="0" /><circle cx="527" cy="895" fill="#3cb44B" r="3.5" stroke-width="0" /></g><g class="e4"><circle cx="523" cy="892" fill="#ff0000" r="3.5" stroke-width="0" /><circle cx="516" cy="888" fill="#ff0000" r="3.5" stroke-width="0" /><circle cx="510" cy="884" fill="#ff0000" r="3.5" stroke-width="0" /><circle cx="506" cy="881" fill="#ff0000" r="3.5" stroke-width="0" /><circle cx="502" cy="878" fill="#ff0000" r="3.5" stroke-width="0" /><circle cx="494" cy="873" fill="#ff0000" r="3.5" stroke-width="0" /><circle cx="491" cy="870" fill="#ff0000" r="3.5" stroke-width="0" /><circle cx="485" cy="866" fill="#ff0000" r="3.5" stroke-width="0" /><circle cx="480" cy="862" fill="#ff0000" r="3.5" stroke-width="0" /><circle cx="474" cy="858" fill="#ff0000" r="3.5" stroke-width="0" /><circle cx="469" cy="854" fill="#ff0000" r="3.5" stroke-width="0" /><circle cx="464" cy="850" fill="#ff0000" r="3.5" stroke-width="0" /><circle cx="458" cy="846" fill="#ff0000" r="3.5" stroke-width="0" /><circle cx="453" cy="842" fill="#ff0000" r="3.5" stroke-width="0" /><circle cx="447" cy="837" fill="#ff0000" r="3.5" stroke-width="0" /><circle cx="442" cy="833" fill="#ff0000" r="3.5" stroke-width="0" /><circle cx="437" cy="829" fill="#ff0000" r="3.5" stroke-width="0" /><circle cx="431" cy="824" fill="#ff0000" r="3.5" stroke-width="0" /><circle cx="427" cy="820" fill="#ff0000" r="3.5" stroke-width="0" /><circle cx="421" cy="815" fill="#ff0000" r="3.5" stroke-width="0" /></g><g class="e5"><circle cx="415" cy="810" fill="#2b92db" r="3.5" stroke-width="0" /><circle cx="411" cy="806" fill="#2b92db" r="3.5" stroke-width="0" /><circle cx="405" cy="801" fill="#2b92db" r="3.5" stroke-width="0" /><circle cx="400" cy="796" fill="#2b92db" r="3.5" stroke-width="0" /><circle cx="394" cy="791" fill="#2b92db" r="3.5" stroke-width="0" /><circle cx="389" cy="786" fill="#2b92db" r="3.5" stroke-width="0" /><circle cx="383" cy="780" fill="#2b92db" r="3.5" stroke-width="0" /><circle cx="378" cy="776" fill="#2b92db" r="3.5" stroke-width="0" /><circle cx="373" cy="771" fill="#2b92db" r="3.5" stroke-width="0" /><circle cx="368" cy="766" fill="#2b92db" r="3.5" stroke-width="0" /><circle cx="363" cy="761" fill="#2b92db" r="3.5" stroke-width="0" /><circle cx="359" cy="756" fill="#2b92db" r="3.5" stroke-width="0" /><circle cx="353" cy="750" fill="#2b92db" r="3.5" stroke-width="0" /><circle cx="348" cy="745" fill="#2b92db" r="3.5" stroke-width="0" /><circle cx="344" cy="740" fill="#2b92db" r="3.5" stroke-width="0" /><circle cx="338" cy="734" fill="#2b92db" r="3.5" stroke-width="0" /><circle cx="334" cy="729" fill="#2b92db" r="3.5" stroke-width="0" /></g><g class="e6"><circle cx="329" cy="724" fill="#911eb4" r="3.5" stroke-width="0" /><circle cx="324" cy="718" fill="#911eb4" r="3.5" stroke-width="0" /><circle cx="320" cy="713" fill="#911eb4" r="3.5" stroke-width="0" /><circle cx="315" cy="708" fill="#911eb4" r="3.5" stroke-width="0" /><circle cx="310" cy="702" fill="#911eb4" r="3.5" stroke-width="0" /><circle cx="306" cy="697" fill="#911eb4" r="3.5" stroke-width="0" /><circle cx="302" cy="692" fill="#911eb4" r="3.5" stroke-width="0" /><circle cx="297" cy="686" fill="#911eb4" r="3.5" stroke-width="0" /><circle cx="293" cy="681" fill="#911eb4" r="3.5" stroke-width="0" /><circle cx="290" cy="676" fill="#911eb4" r="3.5" stroke-width="0" /><circle cx="285" cy="670" fill="#911eb4" r="3.5" stroke-width="0" /><circle cx="281" cy="665" fill="#911eb4" r="3.5" stroke-width="0" /><circle cx="278" cy="660" fill="#911eb4" r="3.5" stroke-width="0" /><circle cx="273" cy="654" fill="#911eb4" r="3.5" stroke-width="0" /><circle cx="270" cy="649" fill="#911eb4" r="3.5" stroke-width="0" /><circle cx="266" cy="644" fill="#911eb4" r="3.5" stroke-width="0" /><circle cx="262" cy="638" fill="#911eb4" r="3.5" stroke-width="0" /><circle cx="258" cy="633" fill="#911eb4" r="3.5" stroke-width="0" /><circle cx="255" cy="628" fill="#911eb4" r="3.5" stroke-width="0" /><circle cx="251" cy="622" fill="#911eb4" r="3.5" stroke-width="0" /></g><g class="e7"><circle cx="248" cy="617" fill="#3cb44B" r="3.5" stroke-width="0" /><circle cx="244" cy="612" fill="#3cb44B" r="3.5" stroke-width="0" /><circle cx="240" cy="606" fill="#3cb44B" r="3.5" stroke-width="0" /><circle cx="237" cy="601" fill="#3cb44B" r="3.5" stroke-width="0" /><circle cx="234" cy="596" fill="#3cb44B" r="3.5" stroke-width="0" /><circle cx="230" cy="590" fill="#3cb44B" r="3.5" stroke-width="0" /><circle cx="227" cy="585" fill="#3cb44B" r="3.5" stroke-width="0" /><circle cx="224" cy="580" fill="#3cb44B" r="3.5" stroke-width="0" /><circle cx="221" cy="574" fill="#3cb44B" r="3.5" stroke-width="0" /><circle cx="218" cy="569" fill="#3cb44B" r="3.5" stroke-width="0" /><circle cx="215" cy="564" fill="#3cb44B" r="3.5" stroke-width="0" /><circle cx="212" cy="558" fill="#3cb44B" r="3.5" stroke-width="0" /><circle cx="209" cy="553" fill="#3cb44B" r="3.5" stroke-width="0" /><circle cx="206" cy="548" fill="#3cb44B" r="3.5" stroke-width="0" /><circle cx="203" cy="542" fill="#3cb44B" r="3.5" stroke-width="0" /><circle cx="200" cy="537" fill="#3cb44B" r="3.5" stroke-width="0" /><circle cx="198" cy="532" fill="#3cb44B" r="3.5" stroke-width="0" /><circle cx="195" cy="526" fill="#3cb44B" r="3.5" stroke-width="0" /><circle cx="192" cy="521" fill="#3cb44B" r="3.5" stroke-width="0" /><circle cx="190" cy="516" fill="#3cb44B" r="3.5" stroke-width="0" /><circle cx="187" cy="510" fill="#3cb44B" r="3.5" stroke-width="0" /></g><g class="e8"><circle cx="184" cy="505" fill="#ff0000" r="3.5" stroke-width="0" /><circle cx="182" cy="500" fill="#ff0000" r="3.5" stroke-width="0" /><circle cx="179" cy="494" fill="#ff0000" r="3.5" stroke-width="0" /><circle cx="177" cy="489" fill="#ff0000" r="3.5" stroke-width="0" /><circle cx="175" cy="484" fill="#ff0000" r="3.5" stroke-width="0" /><circle cx="172" cy="478" fill="#ff0000" r="3.5" stroke-width="0" /><circle cx="170" cy="473" fill="#ff0000" r="3.5" stroke-width="0" /><circle cx="168" cy="468" fill="#ff0000" r="3.5" stroke-width="0" /><circle cx="165" cy="462" fill="#ff0000" r="3.5" stroke-width="0" /><circle cx="163" cy="457" fill="#ff0000" r="3.5" stroke-width="0" /><circle cx="161" cy="452" fill="#ff0000" r="3.5" stroke-width="0" /><circle cx="158" cy="446" fill="#ff0000" r="3.5" stroke-width="0" /><circle cx="156" cy="441" fill="#ff0000" r="3.5" stroke-width="0" /><circle cx="155" cy="436" fill="#ff0000" r="3.5" stroke-width="0" /><circle cx="152" cy="430" fill="#ff0000" r="3.5" stroke-width="0" /><circle cx="150" cy="425" fill="#ff0000" r="3.5" stroke-width="0" /><circle cx="149" cy="420" fill="#ff0000" r="3.5" stroke-width="0" /><circle cx="146" cy="414" fill="#ff0000" r="3.5" stroke-width="0" /><circle cx="145" cy="409" fill="#ff0000" r="3.5" stroke-width="0" /><circle cx="143" cy="404" fill="#ff0000" r="3.5" stroke-width="0" /><circle cx="141" cy="398" fill="#ff0000" r="3.5" stroke-width="0" /><circle cx="139" cy="393" fill="#ff0000" r="3.5" stroke-width="0" /><circle cx="137" cy="388" fill="#ff0000" r="3.5" stroke-width="0" /><circle cx="135" cy="382" fill="#ff0000" r="3.5" stroke-width="0" /><circle cx="134" cy="377" fill="#ff0000" r="3.5" stroke-width="0" /></g><g class="e9"><circle cx="132" cy="372" fill="#2b92db" r="3.5" stroke-width="0" /><circle cx="131" cy="366" fill="#2b92db" r="3.5" stroke-width="0" /><circle cx="129" cy="361" fill="#2b92db" r="3.5" stroke-width="0" /><circle cx="128" cy="356" fill="#2b92db" r="3.5" stroke-width="0" /><circle cx="126" cy="350" fill="#2b92db" r="3.5" stroke-width="0" /><circle cx="124" cy="345" fill="#2b92db" r="3.5" stroke-width="0" /><circle cx="123" cy="340" fill="#2b92db" r="3.5" stroke-width="0" /><circle cx="122" cy="334" fill="#2b92db" r="3.5" stroke-width="0" /><circle cx="120" cy="329" fill="#2b92db" r="3.5" stroke-width="0" /><circle cx="119" cy="324" fill="#2b92db" r="3.5" stroke-width="0" /><circle cx="117" cy="318" fill="#2b92db" r="3.5" stroke-width="0" /><circle cx="116" cy="313" fill="#2b92db" r="3.5" stroke-width="0" /><circle cx="115" cy="308" fill="#2b92db" r="3.5" stroke-width="0" /><circle cx="114" cy="302" fill="#2b92db" r="3.5" stroke-width="0" /><circle cx="113" cy="297" fill="#2b92db" r="3.5" stroke-width="0" /><circle cx="111" cy="292" fill="#2b92db" r="3.5" stroke-width="0" /><circle cx="110" cy="286" fill="#2b92db" r="3.5" stroke-width="0" /><circle cx="109" cy="281" fill="#2b92db" r="3.5" stroke-width="0" /><circle cx="108" cy="276" fill="#2b92db" r="3.5" stroke-width="0" /><circle cx="107" cy="270" fill="#2b92db" r="3.5" stroke-width="0" /><circle cx="106" cy="265" fill="#2b92db" r="3.5" stroke-width="0" /><circle cx="105" cy="260" fill="#2b92db" r="3.5" stroke-width="0" /><circle cx="104" cy="254" fill="#2b92db" r="3.5" stroke-width="0" /><circle cx="103" cy="249" fill="#2b92db" r="3.5" stroke-width="0" /><circle cx="102" cy="244" fill="#2b92db" r="3.5" stroke-width="0" /><circle cx="101" cy="238" fill="#2b92db" r="3.5" stroke-width="0" /><circle cx="101" cy="233" fill="#2b92db" r="3.5" stroke-width="0" /></g><g class="e10"><circle cx="100" cy="228" fill="#911eb4" r="3.5" stroke-width="0" /><circle cx="99" cy="222" fill="#911eb4" r="3.5" stroke-width="0" /><circle cx="98" cy="217" fill="#911eb4" r="3.5" stroke-width="0" /><circle cx="98" cy="212" fill="#911eb4" r="3.5" stroke-width="0" /><circle cx="97" cy="206" fill="#911eb4" r="3.5" stroke-width="0" /><circle cx="96" cy="201" fill="#911eb4" r="3.5" stroke-width="0" /><circle cx="96" cy="196" fill="#911eb4" r="3.5" stroke-width="0" /><circle cx="95" cy="190" fill="#911eb4" r="3.5" stroke-width="0" /><circle cx="95" cy="185" fill="#911eb4" r="3.5" stroke-width="0" /><circle cx="94" cy="180" fill="#911eb4" r="3.5" stroke-width="0" /><circle cx="94" cy="174" fill="#911eb4" r="3.5" stroke-width="0" /><circle cx="93" cy="169" fill="#911eb4" r="3.5" stroke-width="0" /><circle cx="93" cy="164" fill="#911eb4" r="3.5" stroke-width="0" /><circle cx="92" cy="158" fill="#911eb4" r="3.5" stroke-width="0" /><circle cx="92" cy="153" fill="#911eb4" r="3.5" stroke-width="0" /><circle cx="92" cy="148" fill="#911eb4" r="3.5" stroke-width="0" /><circle cx="91" cy="142" fill="#911eb4" r="3.5" stroke-width="0" /><circle cx="91" cy="137" fill="#911eb4" r="3.5" stroke-width="0" /><circle cx="91" cy="132" fill="#911eb4" r="3.5" stroke-width="0" /><circle cx="91" cy="126" fill="#911eb4" r="3.5" stroke-width="0" /><circle cx="91" cy="121" fill="#911eb4" r="3.5" stroke-width="0" /><circle cx="90" cy="116" fill="#911eb4" r="3.5" stroke-width="0" /><circle cx="90" cy="110" fill="#911eb4" r="3.5" stroke-width="0" /><circle cx="90" cy="105" fill="#911eb4" r="3.5" stroke-width="0" /><circle cx="90" cy="100" fill="#911eb4" r="3.5" stroke-width="0" /><circle cx="90" cy="94" fill="#911eb4" r="3.5" stroke-width="0" /></g></g></g></svg>