<?xml version="1.0" encoding="utf-8" ?>
<svg baseProfile="full" height="1140px" style="font-size:15;font-family:Arial, san-serif;font-weight:bold;stroke:black;stroke-width:0;fill:#444444" version="1.1" width="1140px" xmlns="http://www.w3.org/2000/svg" xmlns:ev="http://www.w3.org/2001/xml-events" xmlns:xlink="http://www.w3.org/1999/xlink"><defs><clipPath id="areadografico"><rect height="1000" width="1000" x="70" y="70" /></clipPath></defs><g class="master"><g class="poligonos"><polygon clip-path="url(#areadografico)" fill="#000000" fill-opacity="0.1" points="1069,1070 1069,822 821,1070" /><polygon clip-path="url(#areadografico)" fill="#ffffff" fill-opacity="0.1" points="822,1070 572,1070 1069,573 1069,822" /><polygon clip-path="url(#areadografico)" fill="#000000" fill-opacity="0.1" points="573,1070 323,1070 1069,324 1069,573" /><polygon clip-path="url(#areadografico)" fill="#ffffff" fill-opacity="0.1" points="324,1070 74,1070 1069,75 1069,324" /><polygon clip-path="url(#areadografico)" fill="#000000" fill-opacity="0.1" points="75,1070 -175,1070 1069,-174 1069,75" /><polygon clip-path="url(#areadografico)" fill="#ffffff" fill-opacity="0.1" points="-174,1070 -424,1070 1069,-423 1069,-174" /><polygon clip-path="url(#areadografico)" fill="#000000" fill-opacity="0.1" points="-423,1070 -673,1070 1069,-672 1069,-423" /><polygon clip-path="url(#areadografico)" fill="#ffffff" fill-opacity="0.1" points="70,71 70,328 327,71" /></g><g class="linhas"><line fill-opacity="0.3" stroke="#999999" stroke-width="1" x1="1070" x2="1070" y1="1070" y2="70" /><line fill-opacity="0.3" stroke="#999999" stroke-width="1" x1="70" x2="1070" y1="70" y2="70" /><line fill-opacity="0.3" stroke="#999999" stroke-width="1" x1="970" x2="970" y1="1070" y2="70" /><line fill-opacity="0.3" stroke="#999999" stroke-width="1" x1="70" x2="1070" y1="170" y2="170" /><line fill-opacity="0.3" stroke="#999999" stroke-width="1" x1="870" x2="870" y1="1070" y2="70" /><line fill-opacity="0.3" stroke="#999999" stroke-width="1" x1="70" x2="1070" y1="270" y2="270" /><line fill-opacity="0.3" stroke="#999999" stroke-width="1" x1="770" x2="770" y1="1070" y2="70" /><line fill-opacity="0.3" stroke="#999999" stroke-width="1" x1="70" x2="1070" y1="370" y2="370" /><line fill-opacity="0.3" stroke="#999999" stroke-width="1" x1="670" x2="670" y1="1070" y2="70" /><line fill-opacity="0.3" stroke="#999999" stroke-width="1" x1="70" x2="1070" y1="470" y2="470" /><line fill-opacity="0.3" stroke="#999999" stroke-width="1" x1="570" x2="570" y1="1070" y2="70" /><line fill-opacity="0.3" stroke="#999999" stroke-width="1" x1="70" x2="1070" y1="570" y2="570" /><line fill-opacity="0.3" stroke="#999999" stroke-width="1" x1="470" x2="470" y1="1070" y2="70" /><line fill-opacity="0.3" stroke="#999999" stroke-width="1" x1="70" x2="1070" y1="670" y2="670" /><line fill-opacity="0.3" stroke="#999999" stroke-width="1" x1="370" x2="370" y1="1070" y2="70" /><line fill-opacity="0.3" stroke="#999999" stroke-width="1" x1="70" x2="1070" y1="770" y2="770" /><line fill-opacity="0.3" stroke="#999999" stroke-width="1" x1="270" x2="270" y1="1070" y2="70" /><line fill-opacity="0.3" stroke="#999999" stroke-width="1" x1="70" x2="1070" y1="870" y2="870" /><line fill-opacity="0.3" stroke="#999999" stroke-width="1" x1="170" x2="170" y1="1070" y2="70" /><line fill-opacity="0.3" stroke="#999999" stroke-width="1" x1="70" x2="1070" y1="970" y2="970" /><line fill-opacity="0.3" stroke="#000000" stroke-width="1" x1="70" x2="70" y1="1071" y2="69" /><line fill-opacity="0.3" stroke="#000000" stroke-width="1" x1="69" x2="1071" y1="1070" y2="1070" /></g><g class="textos"><text x="1050" y="1110">1000</text><text x="10" y="71">1000</text><text x="950" y="1110">900</text><text x="10" y="171">900</text><text x="850" y="1110">800</text><text x="10" y="271">800</text><text x="750" y="1110">700</text><text x="10" y="371">700</text><text x="650" y="1110">600</text><text x="10" y="471">600</text><text x="550" y="1110">500</text><text x="10" y="571">500</text><text x="450" y="1110">400</text><text x="10" y="671">400</text><text x="350" y="1110">300</text><text x="10" y="771">300</text><text x="250" y="1110">200</text><text x="10" y="871">200</text><text x="150" y="1110">100</text><text x="10" y="971">100</text><text x="50" y="1111">0</text><text x="9" y="1071">0</text></g><g class="especies"><g class="e0"><circle cx="1020" cy="1050" fill="#ff0000" r="3.5" stroke-width="0" /><circle cx="1024" cy="1050" fill="#ff0000" r="3.5" stroke-width="0" /><circle cx="1029" cy="1050" fill="#ff0000" r="3.5" stroke-width="0" /><circle cx="1033" cy="1050" fill="#ff0000" r="3.5" stroke-width="0" /><circle cx="1038" cy="1050" fill="#ff0000" r="3.5" stroke-width="0" /><circle cx="1042" cy="1050" fill="#ff0000" r="3.5" stroke-width="0" /><circle cx="1047" cy="1050" fill="#ff0000" r="3.5" stroke-width="0" /><circle cx="997" cy="1049" fill="#ff0000" r="3.5" stroke-width="0" /><circle cx="1002" cy="1049" fill="#ff0000" r="3.5" stroke-width="0" /><circle cx="1006" cy="1049" fill="#ff0000" r="3.5" stroke-width="0" /><circle cx="1011" cy="1049" fill="#ff0000" r="3.5" stroke-width="0" /><circle cx="1015" cy="1049" fill="#ff0000" r="3.5" stroke-width="0" /><circle cx="981" cy="1048" fill="#ff0000" r="3.5" stroke-width="0" /><circle cx="985" cy="1048" fill="#ff0000" r="3.5" stroke-width="0" /><circle cx="989" cy="1048" fill="#ff0000" r="3.5" stroke-width="0" /><circle cx="994" cy="1048" fill="#ff0000" r="3.5" stroke-width="0" /><circle cx="970" cy="1047" fill="#ff0000" r="3.5" stroke-width="0" /><circle cx="975" cy="1047" fill="#ff0000" r="3.5" stroke-width="0" /><circle cx="979" cy="1047" fill="#ff0000" r="3.5" stroke-width="0" /><circle cx="961" cy="1046" fill="#ff0000" r="3.5" stroke-width="0" /><circle cx="965" cy="1046" fill="#ff0000" r="3.5" stroke-width="0" /><circle cx="949" cy="1045" fill="#ff0000" r="3.5" stroke-width="0" /><circle cx="953" cy="1045" fill="#ff0000" r="3.5" stroke-width="0" /><circle cx="939" cy="1044" fill="#ff0000" r="3.5" stroke-width="0" /><circle cx="943" cy="1044" fill="#ff0000" r="3.5" stroke-width="0" /><circle cx="947" cy="1044" fill="#ff0000" r="3.5" stroke-width="0" /><circle cx="935" cy="1043" fill="#ff0000" r="3.5" stroke-width="0" /><circle cx="923" cy="1042" fill="#ff0000" r="3.5" stroke-width="0" /><circle cx="928" cy="1042" fill="#ff0000" r="3.5" stroke-width="0" /><circle cx="917" cy="1041" fill="#ff0000" r="3.5" stroke-width="0" /><circle cx="922" cy="1041" fill="#ff0000" r="3.5" stroke-width="0" /><circle cx="912" cy="1040" fill="#ff0000" r="3.5" stroke-width="0" /><circle cx="903" cy="1039" fill="#ff0000" r="3.5" stroke-width="0" /><circle cx="907" cy="1039" fill="#ff0000" r="3.5" stroke-width="0" /><circle cx="899" cy="1038" fill="#ff0000" r="3.5" stroke-width="0" /><circle cx="891" cy="1037" fill="#ff0000" r="3.5" stroke-width="0" /><circle cx="884" cy="1036" fill="#ff0000" r="3.5" stroke-width="0" /><circle cx="888" cy="1036" fill="#ff0000" r="3.5" stroke-width="0" /><circle cx="881" cy="1035" fill="#ff0000" r="3.5" stroke-width="0" /><circle cx="875" cy="1034" fill="#ff0000" r="3.5" stroke-width="0" /><circle cx="868" cy="1033" fill="#ff0000" r="3.5" stroke-width="0" /><circle cx="863" cy="1032" fill="#ff0000" r="3.5" stroke-width="0" /><circle cx="867" cy="1032" fill="#ff0000" r="3.5" stroke-width="0" /><circle cx="862" cy="1031" fill="#ff0000" r="3.5" stroke-width="0" /></g><g class="e1"><circle cx="856" cy="1030" fill="#2b92db" r="3.5" stroke-width="0" /><circle cx="851" cy="1029" fill="#2b92db" r="3.5" stroke-width="0" /><circle cx="846" cy="1028" fill="#2b92db" r="3.5" stroke-width="0" /><circle cx="842" cy="1027" fill="#2b92db" r="3.5" stroke-width="0" /><circle cx="837" cy="1026" fill="#2b92db" r="3.5" stroke-width="0" /><circle cx="833" cy="1025" fill="#2b92db" r="3.5" stroke-width="0" /><circle cx="829" cy="1024" fill="#2b92db" r="3.5" stroke-width="0" /><circle cx="824" cy="1023" fill="#2b92db" r="3.5" stroke-width="0" /><circle cx="821" cy="1022" fill="#2b92db" r="3.5" stroke-width="0" /><circle cx="817" cy="1021" fill="#2b92db" r="3.5" stroke-width="0" /><circle cx="807" cy="1019" fill="#2b92db" r="3.5" stroke-width="0" /><circle cx="804" cy="1018" fill="#2b92db" r="3.5" stroke-width="0" /><circle cx="801" cy="1017" fill="#2b92db" r="3.5" stroke-width="0" /><circle cx="797" cy="1016" fill="#2b92db" r="3.5" stroke-width="0" /><circle cx="788" cy="1014" fill="#2b92db" r="3.5" stroke-width="0" /><circle cx="785" cy="1013" fill="#2b92db" r="3.5" stroke-width="0" /><circle cx="783" cy="1012" fill="#2b92db" r="3.5" stroke-width="0" /><circle cx="780" cy="1011" fill="#2b92db" r="3.5" stroke-width="0" /><circle cx="771" cy="1009" fill="#2b92db" r="3.5" stroke-width="0" /><circle cx="769" cy="1008" fill="#2b92db" r="3.5" stroke-width="0" /><circle cx="767" cy="1007" fill="#2b92db" r="3.5" stroke-width="0" /><circle cx="759" cy="1005" fill="#2b92db" r="3.5" stroke-width="0" /><circle cx="756" cy="1004" fill="#2b92db" r="3.5" stroke-width="0" /><circle cx="749" cy="1002" fill="#2b92db" r="3.5" stroke-width="0" /><circle cx="747" cy="1001" fill="#2b92db" r="3.5" stroke-width="0" /><circle cx="740" cy="999" fill="#2b92db" r="3.5" stroke-width="0" /><circle cx="738" cy="998" fill="#2b92db" r="3.5" stroke-width="0" /><circle cx="732" cy="996" fill="#2b92db" r="3.5" stroke-width="0" /><circle cx="731" cy="995" fill="#2b92db" r="3.5" stroke-width="0" /><circle cx="724" cy="993" fill="#2b92db" r="3.5" stroke-width="0" /><circle cx="718" cy="991" fill="#2b92db" r="3.5" stroke-width="0" /><circle cx="716" cy="990" fill="#2b92db" r="3.5" stroke-width="0" /><circle cx="710" cy="988" fill="#2b92db" r="3.5" stroke-width="0" /><circle cx="709" cy="987" fill="#2b92db" r="3.5" stroke-width="0" /><circle cx="704" cy="985" fill="#2b92db" r="3.5" stroke-width="0" /><circle cx="697" cy="983" fill="#2b92db" r="3.5" stroke-width="0" /><circle cx="692" cy="981" fill="#2b92db" r="3.5" stroke-width="0" /><circle cx="691" cy="980" fill="#2b92db" r="3.5" stroke-width="0" /><circle cx="682" cy="977" fill="#2b92db" r="3.5" stroke-width="0" /><circle cx="681" cy="976" fill="#2b92db" r="3.5" stroke-width="0" /><circle cx="676" cy="974" fill="#2b92db" r="3.5" stroke-width="0" /><circle cx="671" cy="972" fill="#2b92db" r="3.5" stroke-width="0" /></g><g class="e2"><circle cx="666" cy="970" fill="#911eb4" r="3.5" stroke-width="0" /><circle cx="661" cy="968" fill="#911eb4" r="3.5" stroke-width="0" /><circle cx="657" cy="966" fill="#911eb4" r="3.5" stroke-width="0" /><circle cx="652" cy="964" fill="#911eb4" r="3.5" stroke-width="0" /><circle cx="648" cy="962" fill="#911eb4" r="3.5" stroke-width="0" /><circle cx="645" cy="960" fill="#911eb4" r="3.5" stroke-width="0" /><circle cx="639" cy="958" fill="#911eb4" r="3.5" stroke-width="0" /><circle cx="636" cy="956" fill="#911eb4" r="3.5" stroke-width="0" /><circle cx="632" cy="954" fill="#911eb4" r="3.5" stroke-width="0" /><circle cx="625" cy="951" fill="#911eb4" r="3.5" stroke-width="0" /><circle cx="621" cy="949" fill="#911eb4" r="3.5" stroke-width="0" /><circle cx="618" cy="947" fill="#911eb4" r="3.5" stroke-width="0" /><circle cx="614" cy="945" fill="#911eb4" r="3.5" stroke-width="0" /><circle cx="610" cy="943" fill="#911eb4" r="3.5" stroke-width="0" /><circle cx="603" cy="940" fill="#911eb4" r="3.5" stroke-width="0" /><circle cx="600" cy="938" fill="#911eb4" r="3.5" stroke-width="0" /><circle cx="594" cy="935" fill="#911eb4" r="3.5" stroke-width="0" /><circle cx="590" cy="933" fill="#911eb4" r="3.5" stroke-width="0" /><circle cx="585" cy="930" fill="#911eb4" r="3.5" stroke-width="0" /><circle cx="581" cy="928" fill="#911eb4" r="3.5" stroke-width="0" /><circle cx="576" cy="925" fill="#911eb4" r="3.5" stroke-width="0" /><circle cx="572" cy="923" fill="#911eb4" r="3.5" stroke-width="0" /><circle cx="567" cy="920" fill="#911eb4" r="3.5" stroke-width="0" /><circle cx="565" cy="918" fill="#911eb4" r="3.5" stroke-width="0" /><circle cx="561" cy="916" fill="#911eb4" r="3.5" stroke-width="0" /><circle cx="556" cy="913" fill="#911eb4" r="3.5" stroke-width="0" /><circle cx="550" cy="910" fill="#911eb4" r="3.5" stroke-width="0" /><circle cx="546" cy="907" fill="#911eb4" r="3.5" stroke-width="0" /><circle cx="543" cy="905" fill="#911eb4" r="3.5" stroke-width="0" /><circle cx="536" cy="901" fill="#911eb4" r="3.5" stroke-width="0" /><circle cx="533" cy="899" fill="#911eb4" r="3.5" stroke-width="0" /><circle cx="529" cy="896" fill="#911eb4" r="3.5" stroke-width="0" /><circle cx="524" cy="893" fill="#911eb4" r="3.5" stroke-width="0" /><circle cx="520" cy="890" fill="#911eb4" r="3.5" stroke-width="0" /><circle cx="515" cy="887" fill="#911eb4" r="3.5" stroke-width="0" /><circle cx="511" cy="884" fill="#911eb4" r="3.5" stroke-width="0" /></g><g class="e3"><circle cx="506" cy="881" fill="#3cb44B" r="3.5" stroke-width="0" /><circle cx="501" cy="878" fill="#3cb44B" r="3.5" stroke-width="0" /><circle cx="498" cy="875" fill="#3cb44B" r="3.5" stroke-width="0" /><circle cx="493" cy="872" fill="#3cb44B" r="3.5" stroke-width="0" /><circle cx="487" cy="868" fill="#3cb44B" r="3.5" stroke-width="0" /><circle cx="483" cy="865" fill="#3cb44B" r="3.5" stroke-width="0" /><circle cx="480" cy="862" fill="#3cb44B" r="3.5" stroke-width="0" /><circle cx="476" cy="859" fill="#3cb44B" r="3.5" stroke-width="0" /><circle cx="470" cy="855" fill="#3cb44B" r="3.5" stroke-width="0" /><circle cx="466" cy="852" fill="#3cb44B" r="3.5" stroke-width="0" /><circle cx="461" cy="848" fill="#3cb44B" r="3.5" stroke-width="0" /><circle cx="457" cy="845" fill="#3cb44B" r="3.5" stroke-width="0" /><circle cx="452" cy="841" fill="#3cb44B" r="3.5" stroke-width="0" /><circle cx="448" cy="838" fill="#3cb44B" r="3.5" stroke-width="0" /><circle cx="445" cy="835" fill="#3cb44B" r="3.5" stroke-width="0" /><circle cx="438" cy="830" fill="#3cb44B" r="3.5" stroke-width="0" /><circle cx="435" cy="827" fill="#3cb44B" r="3.5" stroke-width="0" /><circle cx="430" cy="823" fill="#3cb44B" r="3.5" stroke-width="0" /><circle cx="427" cy="820" fill="#3cb44B" r="3.5" stroke-width="0" /><circle cx="421" cy="815" fill="#3cb44B" r="3.5" stroke-width="0" /><circle cx="417" cy="812" fill="#3cb44B" r="3.5" stroke-width="0" /><circle cx="412" cy="807" fill="#3cb44B" r="3.5" stroke-width="0" /><circle cx="408" cy="804" fill="#3cb44B" r="3.5" stroke-width="0" /><circle cx="403" cy="799" fill="#3cb44B" r="3.5" stroke-width="0" /><circle cx="400" cy="796" fill="#3cb44B" r="3.5" stroke-width="0" /><circle cx="395" cy="792" fill="#3cb44B" r="3.5" stroke-width="0" /><circle cx="390" cy="787" fill="#3cb44B" r="3.5" stroke-width="0" /><circle cx="386" cy="783" fill="#3cb44B" r="3.5" stroke-width="0" /><circle cx="382" cy="779" fill="#3cb44B" r="3.5" stroke-width="0" /><circle cx="377" cy="775" fill="#3cb44B" r="3.5" stroke-width="0" /></g><g class="e4"><circle cx="372" cy="770" fill="#ff0000" r="3.5" stroke-width="0" /><circle cx="369" cy="767" fill="#ff0000" r="3.5" stroke-width="0" /><circle cx="364" cy="762" fill="#ff0000" r="3.5" stroke-width="0" /><circle cx="361" cy="758" fill="#ff0000" r="3.5" stroke-width="0" /><circle cx="356" cy="753" fill="#ff0000" r="3.5" stroke-width="0" /><circle cx="352" cy="749" fill="#ff0000" r="3.5" stroke-width="0" /><circle cx="347" cy="744" fill="#ff0000" r="3.5" stroke-width="0" /><circle cx="344" cy="740" fill="#ff0000" r="3.5" stroke-width="0" /><circle cx="340" cy="736" fill="#ff0000" r="3.5" stroke-width="0" /><circle cx="335" cy="731" fill="#ff0000" r="3.5" stroke-width="0" /><circle cx="332" cy="727" fill="#ff0000" r="3.5" stroke-width="0" /><circle cx="327" cy="722" fill="#ff0000" r="3.5" stroke-width="0" /><circle cx="324" cy="718" fill="#ff0000" r="3.5" stroke-width="0" /><circle cx="320" cy="713" fill="#ff0000" r="3.5" stroke-width="0" /><circle cx="316" cy="709" fill="#ff0000" r="3.5" stroke-width="0" /><circle cx="312" cy="704" fill="#ff0000" r="3.5" stroke-width="0" /><circle cx="309" cy="700" fill="#ff0000" r="3.5" stroke-width="0" /><circle cx="305" cy="695" fill="#ff0000" r="3.5" stroke-width="0" /><circle cx="301" cy="691" fill="#ff0000" r="3.5" stroke-width="0" /><circle cx="298" cy="687" fill="#ff0000" r="3.5" stroke-width="0" /><circle cx="294" cy="682" fill="#ff0000" r="3.5" stroke-width="0" /><circle cx="291" cy="678" fill="#ff0000" r="3.5" stroke-width="0" /><circle cx="287" cy="673" fill="#ff0000" r="3.5" stroke-width="0" /><circle cx="284" cy="669" fill="#ff0000" r="3.5" stroke-width="0" /><circle cx="281" cy="664" fill="#ff0000" r="3.5" stroke-width="0" /><circle cx="278" cy="660" fill="#ff0000" r="3.5" stroke-width="0" /><circle cx="274" cy="655" fill="#ff0000" r="3.5" stroke-width="0" /><circle cx="271" cy="651" fill="#ff0000" r="3.5" stroke-width="0" /><circle cx="267" cy="646" fill="#ff0000" r="3.5" stroke-width="0" /><circle cx="265" cy="642" fill="#ff0000" r="3.5" stroke-width="0" /><circle cx="261" cy="637" fill="#ff0000" r="3.5" stroke-width="0" /></g><g class="e5"><circle cx="258" cy="633" fill="#2b92db" r="3.5" stroke-width="0" /><circle cx="256" cy="629" fill="#2b92db" r="3.5" stroke-width="0" /><circle cx="252" cy="624" fill="#2b92db" r="3.5" stroke-width="0" /><circle cx="250" cy="620" fill="#2b92db" r="3.5" stroke-width="0" /><circle cx="246" cy="615" fill="#2b92db" r="3.5" stroke-width="0" /><circle cx="244" cy="611" fill="#2b92db" r="3.5" stroke-width="0" /><circle cx="240" cy="606" fill="#2b92db" r="3.5" stroke-width="0" /><circle cx="238" cy="602" fill="#2b92db" r="3.5" stroke-width="0" /><circle cx="235" cy="597" fill="#2b92db" r="3.5" stroke-width="0" /><circle cx="232" cy="593" fill="#2b92db" r="3.5" stroke-width="0" /><circle cx="229" cy="588" fill="#2b92db" r="3.5" stroke-width="0" /><circle cx="227" cy="584" fill="#2b92db" r="3.5" stroke-width="0" /><circle cx="224" cy="579" fill="#2b92db" r="3.5" stroke-width="0" /><circle cx="222" cy="575" fill="#2b92db" r="3.5" stroke-width="0" /><circle cx="219" cy="571" fill="#2b92db" r="3.5" stroke-width="0" /><circle cx="216" cy="566" fill="#2b92db" r="3.5" stroke-width="0" /><circle cx="214" cy="562" fill="#2b92db" r="3.5" stroke-width="0" /><circle cx="211" cy="557" fill="#2b92db" r="3.5" stroke-width="0" /><circle cx="209" cy="553" fill="#2b92db" r="3.5" stroke-width="0" /><circle cx="206" cy="548" fill="#2b92db" r="3.5" stroke-width="0" /><circle cx="204" cy="544" fill="#2b92db" r="3.5" stroke-width="0" /><circle cx="201" cy="539" fill="#2b92db" r="3.5" stroke-width="0" /><circle cx="199" cy="535" fill="#2b92db" r="3.5" stroke-width="0" /><circle cx="197" cy="530" fill="#2b92db" r="3.5" stroke-width="0" /><circle cx="195" cy="526" fill="#2b92db" r="3.5" stroke-width="0" /><circle cx="193" cy="522" fill="#2b92db" r="3.5" stroke-width="0" /><circle cx="190" cy="517" fill="#2b92db" r="3.5" stroke-width="0" /><circle cx="188" cy="513" fill="#2b92db" r="3.5" stroke-width="0" /><circle cx="186" cy="508" fill="#2b92db" r="3.5" stroke-width="0" /><circle cx="184" cy="504" fill="#2b92db" r="3.5" stroke-width="0" /><circle cx="181" cy="499" fill="#2b92db" r="3.5" stroke-width="0" /><circle cx="180" cy="495" fill="#2b92db" r="3.5" stroke-width="0" /><circle cx="177" cy="490" fill="#2b92db" r="3.5" stroke-width="0" /><circle cx="175" cy="486" fill="#2b92db" r="3.5" stroke-width="0" /><circle cx="173" cy="481" fill="#2b92db" r="3.5" stroke-width="0" /><circle cx="171" cy="477" fill="#2b92db" r="3.5" stroke-width="0" /></g><g class="e6"><circle cx="169" cy="472" fill="#911eb4" r="3.5" stroke-width="0" /><circle cx="168" cy="468" fill="#911eb4" r="3.5" stroke-width="0" /><circle cx="166" cy="464" fill="#911eb4" r="3.5" stroke-width="0" /><circle cx="164" cy="459" fill="#911eb4" r="3.5" stroke-width="0" /><circle cx="162" cy="455" fill="#911eb4" r="3.5" stroke-width="0" /><circle cx="160" cy="450" fill="#911eb4" r="3.5" stroke-width="0" /><circle cx="158" cy="446" fill="#911eb4" r="3.5" stroke-width="0" /><circle cx="156" cy="441" fill="#911eb4" r="3.5" stroke-width="0" /><circle cx="155" cy="437" fill="#911eb4" r="3.5" stroke-width="0" /><circle cx="153" cy="432" fill="#911eb4" r="3.5" stroke-width="0" /><circle cx="151" cy="428" fill="#911eb4" r="3.5" stroke-width="0" /><circle cx="150" cy="423" fill="#911eb4" r="3.5" stroke-width="0" /><circle cx="148" cy="419" fill="#911eb4" r="3.5" stroke-width="0" /><circle cx="147" cy="415" fill="#911eb4" r="3.5" stroke-width="0" /><circle cx="145" cy="410" fill="#911eb4" r="3.5" stroke-width="0" /><circle cx="143" cy="406" fill="#911eb4" r="3.5" stroke-width="0" /><circle cx="142" cy="401" fill="#911eb4" r="3.5" stroke-width="0" /><circle cx="140" cy="397" fill="#911eb4" r="3.5" stroke-width="0" /><circle cx="139" cy="392" fill="#911eb4" r="3.5" stroke-width="0" /><circle cx="137" cy="388" fill="#911eb4" r="3.5" stroke-width="0" /><circle cx="136" cy="383" fill="#911eb4" r="3.5" stroke-width="0" /><circle cx="135" cy="379" fill="#911eb4" r="3.5" stroke-width="0" /><circle cx="133" cy="374" fill="#911eb4" r="3.5" stroke-width="0" /><circle cx="132" cy="370" fill="#911eb4" r="3.5" stroke-width="0" /><circle cx="130" cy="365" fill="#911eb4" r="3.5" stroke-width="0" /><circle cx="129" cy="361" fill="#911eb4" r="3.5" stroke-width="0" /><circle cx="128" cy="357" fill="#911eb4" r="3.5" stroke-width="0" /><circle cx="126" cy="352" fill="#911eb4" r="3.5" stroke-width="0" /><circle cx="125" cy="348" fill="#911eb4" r="3.5" stroke-width="0" /><circle cx="124" cy="343" fill="#911eb4" r="3.5" stroke-width="0" /><circle cx="123" cy="339" fill="#911eb4" r="3.5" stroke-width="0" /><circle cx="122" cy="334" fill="#911eb4" r="3.5" stroke-width="0" /><circle cx="120" cy="330" fill="#911eb4" r="3.5" stroke-width="0" /><circle cx="119" cy="325" fill="#911eb4" r="3.5" stroke-width="0" /><circle cx="118" cy="321" fill="#911eb4" r="3.5" stroke-width="0" /><circle cx="117" cy="316" fill="#911eb4" r="3.5" stroke-width="0" /><circle cx="116" cy="312" fill="#911eb4" r="3.5" stroke-width="0" /><circle cx="115" cy="307" fill="#911eb4" r="3.5" stroke-width="0" /><circle cx="114" cy="303" fill="#911eb4" r="3.5" stroke-width="0" /><circle cx="113" cy="299" fill="#911eb4" r="3.5" stroke-width="0" /><circle cx="112" cy="294" fill="#911eb4" r="3.5" stroke-width="0" /><circle cx="111" cy="290" fill="#911eb4" r="3.5" stroke-width="0" /></g><g class="e7"><circle cx="110" cy="285" fill="#3cb44B" r="3.5" stroke-width="0" /><circle cx="109" cy="281" fill="#3cb44B" r="3.5" stroke-width="0" /><circle cx="108" cy="276" fill="#3cb44B" r="3.5" stroke-width="0" /><circle cx="107" cy="272" fill="#3cb44B" r="3.5" stroke-width="0" /><circle cx="106" cy="267" fill="#3cb44B" r="3.5" stroke-width="0" /><circle cx="106" cy="263" fill="#3cb44B" r="3.5" stroke-width="0" /><circle cx="105" cy="258" fill="#3cb44B" r="3.5" stroke-width="0" /><circle cx="104" cy="254" fill="#3cb44B" r="3.5" stroke-width="0" /><circle cx="103" cy="250" fill="#3cb44B" r="3.5" stroke-width="0" /><circle cx="103" cy="245" fill="#3cb44B" r="3.5" stroke-width="0" /><circle cx="102" cy="241" fill="#3cb44B" r="3.5" stroke-width="0" /><circle cx="101" cy="236" fill="#3cb44B" r="3.5" stroke-width="0" /><circle cx="101" cy="232" fill="#3cb44B" r="3.5" stroke-width="0" /><circle cx="100" cy="227" fill="#3cb44B" r="3.5" stroke-width="0" /><circle cx="99" cy="223" fill="#3cb44B" r="3.5" stroke-width="0" /><circle cx="99" cy="218" fill="#3cb44B" r="3.5" stroke-width="0" /><circle cx="98" cy="214" fill="#3cb44B" r="3.5" stroke-width="0" /><circle cx="97" cy="209" fill="#3cb44B" r="3.5" stroke-width="0" /><circle cx="97" cy="205" fill="#3cb44B" r="3.5" stroke-width="0" /><circle cx="96" cy="200" fill="#3cb44B" r="3.5" stroke-width="0" /><circle cx="96" cy="196" fill="#3cb44B" r="3.5" stroke-width="0" /><circle cx="95" cy="192" fill="#3cb44B" r="3.5" stroke-width="0" /><circle cx="95" cy="187" fill="#3cb44B" r="3.5" stroke-width="0" /><circle cx="95" cy="183" fill="#3cb44B" r="3.5" stroke-width="0" /><circle cx="94" cy="178" fill="#3cb44B" r="3.5" stroke-width="0" /><circle cx="94" cy="174" fill="#3cb44B" r="3.5" stroke-width="0" /><circle cx="93" cy="169" fill="#3cb44B" r="3.5" stroke-width="0" /><circle cx="93" cy="165" fill="#3cb44B" r="3.5" stroke-width="0" /><circle cx="93" cy="160" fill="#3cb44B" r="3.5" stroke-width="0" /><circle cx="92" cy="156" fill="#3cb44B" r="3.5" stroke-width="0" /><circle cx="92" cy="151" fill="#3cb44B" r="3.5" stroke-width="0" /><circle cx="92" cy="147" fill="#3cb44B" r="3.5" stroke-width="0" /><circle cx="91" cy="143" fill="#3cb44B" r="3.5" stroke-width="0" /><circle cx="91" cy="138" fill="#3cb44B" r="3.5" stroke-width="0" /><circle cx="91" cy="134" fill="#3cb44B" r="3.5" stroke-width="0" /><circle cx="91" cy="129" fill="#3cb44B" r="3.5" stroke-width="0" /><circle cx="91" cy="125" fill="#3cb44B" r="3.5" stroke-width="0" /><circle cx="90" cy="120" fill="#3cb44B" r="3.5" stroke-width="0" /><circle cx="90" cy="116" fill="#3cb44B" r="3.5" stroke-width="0" /><circle cx="90" cy="111" fill="#3cb44B" r="3.5" stroke-width="0" /><circle cx="90" cy="107" fill="#3cb44B" r="3.5" stroke-width="0" /><circle cx="90" cy="102" fill="#3cb44B" r="3.5" stroke-width="0" /><circle cx="90" cy="98" fill="#3cb44B" r="3.5" stroke-width="0" /><circle cx="90" cy="93" fill="#3cb44B" r="3.5" stroke-width="0" /></g></g></g></svg>