<?xml version="1.0" encoding="utf-8" ?>
<svg baseProfile="full" height="1140px" style="font-size:15;font-family:Arial, san-serif;font-weight:bold;stroke:black;stroke-width:0;fill:#444444" version="1.1" width="1140px" xmlns="http://www.w3.org/2000/svg" xmlns:ev="http://www.w3.org/2001/xml-events" xmlns:xlink="http://www.w3.org/1999/xlink"><defs><clipPath id="areadografico"><rect height="1000" width="1000" x="70" y="70" /></clipPath></defs><g class="master"><g class="poligonos"><polygon clip-path="url(#areadografico)" fill="#000000" fill-opacity="0.1" points="1069,1070 1069,405 404,1070" /><polygon clip-path="url(#areadografico)" fill="#ffffff" fill-opacity="0.1" points="405,1070 -262,1070 1069,-261 1069,405" /><polygon clip-path="url(#areadografico)" fill="#000000" fill-opacity="0.1" points="70,71 70,738 737,71" /></g><g class="linhas"><line fill-opacity="0.3" stroke="#999999" stroke-width="1" x1="1070" x2="1070" y1="1070" y2="70" /><line fill-opacity="0.3" stroke="#999999" stroke-width="1" x1="70" x2="1070" y1="70" y2="70" /><line fill-opacity="0.3" stroke="#999999" stroke-width="1" x1="970" x2="970" y1="1070" y2="70" /><line fill-opacity="0.3" stroke="#999999" stroke-width="1" x1="70" x2="1070" y1="170" y2="170" /><line fill-opacity="0.3" stroke="#999999" stroke-width="1" x1="870" x2="870" y1="1070" y2="70" /><line fill-opacity="0.3" stroke="#999999" stroke-width="1" x1="70" x2="1070" y1="270" y2="270" /><line fill-opacity="0.3" stroke="#999999" stroke-width="1" x1="770" x2="770" y1="1070" y2="70" /><line fill-opacity="0.3" stroke="#999999" stroke-width="1" x1="70" x2="1070" y1="370" y2="370" /><line fill-opacity="0.3" stroke="#999999" stroke-width="1" x1="670" x2="670" y1="1070" y2="70" /><line fill-opacity="0.3" stroke="#999999" stroke-width="1" x1="70" x2="1070" y1="470" y2="470" /><line fill-opacity="0.3" stroke="#999999" stroke-width="1" x1="570" x2="570" y1="1070" y2="70" /><line fill-opacity="0.3" stroke="#999999" stroke-width="1" x1="70" x2="1070" y1="570" y2="570" /><line fill-opacity="0.3" stroke="#999999" stroke-width="1" x1="470" x2="470" y1="1070" y2="70" /><line fill-opacity="0.3" stroke="#999999" stroke-width="1" x1="70" x2="1070" y1="670" y2="670" /><line fill-opacity="0.3" stroke="#999999" stroke-width="1" x1="370" x2="370" y1="1070" y2="70" /><line fill-opacity="0.3" stroke="#999999" stroke-width="1" x1="70" x2="1070" y1="770" y2="770" /><line fill-opacity="0.3" stroke="#999999" stroke-width="1" x1="270" x2="270" y1="1070" y2="70" /><line fill-opacity="0.3" stroke="#999999" stroke-width="1" x1="70" x2="1070" y1="870" y2="870" /><line fill-opacity="0.3" stroke="#999999" stroke-width="1" x1="170" x2="170" y1="1070" y2="70" /><line fill-opacity="0.3" stroke="#999999" stroke-width="1" x1="70" x2="1070" y1="970" y2="970" /><line fill-opacity="0.3" stroke="#000000" stroke-width="1" x1="70" x2="70" y1="1071" y2="69" /><line fill-opacity="0.3" stroke="#000000" stroke-width="1" x1="69" x2="1071" y1="1070" y2="1070" /></g><g class="textos"><text x="1050" y="1110">1000</text><text x="10" y="71">1000</text><text x="950" y="1110">900</text><text x="10" y="171">900</text><text x="850" y="1110">800</text><text x="10" y="271">800</text><text x="750" y="1110">700</text><text x="10" y="371">700</text><text x="650" y="1110">600</text><text x="10" y="471">600</text><text x="550" y="1110">500</text><text x="10" y="571">500</text><text x="450" y="1110">400</text><text x="10" y="671">400</text><text x="350" y="1110">300</text><text x="10" y="771">300</text><text x="250" y="1110">200</text><text x="10" y="871">200</text><text x="150" y="1110">100</text><text x="10" y="971">100</text><text x="50" y="1111">0</text><text x="9" y="1071">0</text></g><g class="especies"><g class="e0"><circle cx="1020" cy="1050" fill="#ff0000" r="3.5" stroke-width="0" /><circle cx="1029" cy="1050" fill="#ff0000" r="3.5" stroke-width="0" /><circle cx="1039" cy="1050" fill="#ff0000" r="3.5" stroke-width="0" /><circle cx="1048" cy="1050" fill="#ff0000" r="3.5" stroke-width="0" /><circle cx="1004" cy="1049" fill="#ff0000" r="3.5" stroke-width="0" /><circle cx="1013" cy="1049" fill="#ff0000" r="3.5" stroke-width="0" /><circle cx="983" cy="1048" fill="#ff0000" r="3.5" stroke-width="0" /><circle cx="993" cy="1048" fill="#ff0000" r="3.5" stroke-width="0" /><circle cx="974" cy="1047" fill="#ff0000" r="3.5" stroke-width="0" /><circle cx="960" cy="1046" fill="#ff0000" r="3.5" stroke-width="0" /><circle cx="949" cy="1045" fill="#ff0000" r="3.5" stroke-width="0" /><circle cx="939" cy="1044" fill="#ff0000" r="3.5" stroke-width="0" /><circle cx="932" cy="1043" fill="#ff0000" r="3.5" stroke-width="0" /><circle cx="925" cy="1042" fill="#ff0000" r="3.5" stroke-width="0" /><circle cx="919" cy="1041" fill="#ff0000" r="3.5" stroke-width="0" /><circle cx="915" cy="1040" fill="#ff0000" r="3.5" stroke-width="0" /><circle cx="897" cy="1038" fill="#ff0000" r="3.5" stroke-width="0" /><circle cx="894" cy="1037" fill="#ff0000" r="3.5" stroke-width="0" /><circle cx="881" cy="1035" fill="#ff0000" r="3.5" stroke-width="0" /><circle cx="868" cy="1033" fill="#ff0000" r="3.5" stroke-width="0" /><circle cx="858" cy="1031" fill="#ff0000" r="3.5" stroke-width="0" /><circle cx="857" cy="1030" fill="#ff0000" r="3.5" stroke-width="0" /><circle cx="847" cy="1028" fill="#ff0000" r="3.5" stroke-width="0" /><circle cx="831" cy="1025" fill="#ff0000" r="3.5" stroke-width="0" /><circle cx="822" cy="1023" fill="#ff0000" r="3.5" stroke-width="0" /><circle cx="815" cy="1021" fill="#ff0000" r="3.5" stroke-width="0" /><circle cx="803" cy="1018" fill="#ff0000" r="3.5" stroke-width="0" /><circle cx="796" cy="1016" fill="#ff0000" r="3.5" stroke-width="0" /><circle cx="785" cy="1013" fill="#ff0000" r="3.5" stroke-width="0" /><circle cx="780" cy="1011" fill="#ff0000" r="3.5" stroke-width="0" /><circle cx="769" cy="1008" fill="#ff0000" r="3.5" stroke-width="0" /><circle cx="760" cy="1005" fill="#ff0000" r="3.5" stroke-width="0" /><circle cx="750" cy="1002" fill="#ff0000" r="3.5" stroke-width="0" /><circle cx="742" cy="999" fill="#ff0000" r="3.5" stroke-width="0" /><circle cx="729" cy="995" fill="#ff0000" r="3.5" stroke-width="0" /><circle cx="721" cy="992" fill="#ff0000" r="3.5" stroke-width="0" /><circle cx="714" cy="989" fill="#ff0000" r="3.5" stroke-width="0" /><circle cx="703" cy="985" fill="#ff0000" r="3.5" stroke-width="0" /><circle cx="696" cy="982" fill="#ff0000" r="3.5" stroke-width="0" /><circle cx="682" cy="977" fill="#ff0000" r="3.5" stroke-width="0" /><circle cx="676" cy="974" fill="#ff0000" r="3.5" stroke-width="0" /><circle cx="663" cy="969" fill="#ff0000" r="3.5" stroke-width="0" /><circle cx="654" cy="965" fill="#ff0000" r="3.5" stroke-width="0" /><circle cx="646" cy="961" fill="#ff0000" r="3.5" stroke-width="0" /><circle cx="638" cy="957" fill="#ff0000" r="3.5" stroke-width="0" /><circle cx="627" cy="952" fill="#ff0000" r="3.5" stroke-width="0" /><circle cx="620" cy="948" fill="#ff0000" r="3.5" stroke-width="0" /><circle cx="610" cy="943" fill="#ff0000" r="3.5" stroke-width="0" /><circle cx="600" cy="938" fill="#ff0000" r="3.5" stroke-width="0" /><circle cx="591" cy="933" fill="#ff0000" r="3.5" stroke-width="0" /><circle cx="582" cy="928" fill="#ff0000" r="3.5" stroke-width="0" /><circle cx="573" cy="923" fill="#ff0000" r="3.5" stroke-width="0" /><circle cx="563" cy="917" fill="#ff0000" r="3.5" stroke-width="0" /></g><g class="e1"><circle cx="552" cy="911" fill="#2b92db" r="3.5" stroke-width="0" /><circle cx="545" cy="906" fill="#2b92db" r="3.5" stroke-width="0" /><circle cx="535" cy="900" fill="#2b92db" r="3.5" stroke-width="0" /><circle cx="526" cy="894" fill="#2b92db" r="3.5" stroke-width="0" /><circle cx="515" cy="887" fill="#2b92db" r="3.5" stroke-width="0" /><circle cx="506" cy="881" fill="#2b92db" r="3.5" stroke-width="0" /><circle cx="498" cy="875" fill="#2b92db" r="3.5" stroke-width="0" /><circle cx="488" cy="868" fill="#2b92db" r="3.5" stroke-width="0" /><circle cx="478" cy="861" fill="#2b92db" r="3.5" stroke-width="0" /><circle cx="467" cy="853" fill="#2b92db" r="3.5" stroke-width="0" /><circle cx="460" cy="847" fill="#2b92db" r="3.5" stroke-width="0" /><circle cx="449" cy="839" fill="#2b92db" r="3.5" stroke-width="0" /><circle cx="440" cy="831" fill="#2b92db" r="3.5" stroke-width="0" /><circle cx="431" cy="824" fill="#2b92db" r="3.5" stroke-width="0" /><circle cx="422" cy="816" fill="#2b92db" r="3.5" stroke-width="0" /><circle cx="412" cy="807" fill="#2b92db" r="3.5" stroke-width="0" /><circle cx="403" cy="799" fill="#2b92db" r="3.5" stroke-width="0" /><circle cx="393" cy="790" fill="#2b92db" r="3.5" stroke-width="0" /><circle cx="384" cy="781" fill="#2b92db" r="3.5" stroke-width="0" /><circle cx="375" cy="773" fill="#2b92db" r="3.5" stroke-width="0" /><circle cx="366" cy="764" fill="#2b92db" r="3.5" stroke-width="0" /><circle cx="358" cy="755" fill="#2b92db" r="3.5" stroke-width="0" /><circle cx="349" cy="746" fill="#2b92db" r="3.5" stroke-width="0" /><circle cx="340" cy="736" fill="#2b92db" r="3.5" stroke-width="0" /><circle cx="332" cy="727" fill="#2b92db" r="3.5" stroke-width="0" /><circle cx="323" cy="717" fill="#2b92db" r="3.5" stroke-width="0" /><circle cx="315" cy="708" fill="#2b92db" r="3.5" stroke-width="0" /><circle cx="308" cy="699" fill="#2b92db" r="3.5" stroke-width="0" /><circle cx="300" cy="689" fill="#2b92db" r="3.5" stroke-width="0" /><circle cx="293" cy="680" fill="#2b92db" r="3.5" stroke-width="0" /><circle cx="286" cy="671" fill="#2b92db" r="3.5" stroke-width="0" /><circle cx="278" cy="661" fill="#2b92db" r="3.5" stroke-width="0" /><circle cx="272" cy="652" fill="#2b92db" r="3.5" stroke-width="0" /><circle cx="265" cy="642" fill="#2b92db" r="3.5" stroke-width="0" /><circle cx="258" cy="633" fill="#2b92db" r="3.5" stroke-width="0" /><circle cx="252" cy="624" fill="#2b92db" r="3.5" stroke-width="0" /><circle cx="246" cy="614" fill="#2b92db" r="3.5" stroke-width="0" /><circle cx="240" cy="605" fill="#2b92db" r="3.5" stroke-width="0" /><circle cx="234" cy="595" fill="#2b92db" r="3.5" stroke-width="0" /><circle cx="228" cy="586" fill="#2b92db" r="3.5" stroke-width="0" /></g><g class="e2"><circle cx="223" cy="577" fill="#911eb4" r="3.5" stroke-width="0" /><circle cx="217" cy="567" fill="#911eb4" r="3.5" stroke-width="0" /><circle cx="212" cy="558" fill="#911eb4" r="3.5" stroke-width="0" /><circle cx="207" cy="549" fill="#911eb4" r="3.5" stroke-width="0" /><circle cx="201" cy="539" fill="#911eb4" r="3.5" stroke-width="0" /><circle cx="197" cy="530" fill="#911eb4" r="3.5" stroke-width="0" /><circle cx="192" cy="520" fill="#911eb4" r="3.5" stroke-width="0" /><circle cx="187" cy="511" fill="#911eb4" r="3.5" stroke-width="0" /><circle cx="183" cy="502" fill="#911eb4" r="3.5" stroke-width="0" /><circle cx="178" cy="492" fill="#911eb4" r="3.5" stroke-width="0" /><circle cx="174" cy="483" fill="#911eb4" r="3.5" stroke-width="0" /><circle cx="170" cy="474" fill="#911eb4" r="3.5" stroke-width="0" /><circle cx="166" cy="464" fill="#911eb4" r="3.5" stroke-width="0" /><circle cx="162" cy="455" fill="#911eb4" r="3.5" stroke-width="0" /><circle cx="158" cy="445" fill="#911eb4" r="3.5" stroke-width="0" /><circle cx="155" cy="436" fill="#911eb4" r="3.5" stroke-width="0" /><circle cx="151" cy="427" fill="#911eb4" r="3.5" stroke-width="0" /><circle cx="147" cy="417" fill="#911eb4" r="3.5" stroke-width="0" /><circle cx="144" cy="408" fill="#911eb4" r="3.5" stroke-width="0" /><circle cx="141" cy="399" fill="#911eb4" r="3.5" stroke-width="0" /><circle cx="138" cy="389" fill="#911eb4" r="3.5" stroke-width="0" /><circle cx="135" cy="380" fill="#911eb4" r="3.5" stroke-width="0" /><circle cx="132" cy="370" fill="#911eb4" r="3.5" stroke-width="0" /><circle cx="129" cy="361" fill="#911eb4" r="3.5" stroke-width="0" /><circle cx="126" cy="352" fill="#911eb4" r="3.5" stroke-width="0" /><circle cx="124" cy="342" fill="#911eb4" r="3.5" stroke-width="0" /><circle cx="121" cy="333" fill="#911eb4" r="3.5" stroke-width="0" /><circle cx="119" cy="323" fill="#911eb4" r="3.5" stroke-width="0" /><circle cx="116" cy="314" fill="#911eb4" r="3.5" stroke-width="0" /><circle cx="114" cy="305" fill="#911eb4" r="3.5" stroke-width="0" /><circle cx="112" cy="295" fill="#911eb4" r="3.5" stroke-width="0" /><circle cx="110" cy="286" fill="#911eb4" r="3.5" stroke-width="0" /><circle cx="108" cy="277" fill="#911eb4" r="3.5" stroke-width="0" /><circle cx="106" cy="267" fill="#911eb4" r="3.5" stroke-width="0" /><circle cx="105" cy="258" fill="#911eb4" r="3.5" stroke-width="0" /><circle cx="103" cy="248" fill="#911eb4" r="3.5" stroke-width="0" /><circle cx="102" cy="239" fill="#911eb4" r="3.5" stroke-width="0" /><circle cx="100" cy="230" fill="#911eb4" r="3.5" stroke-width="0" /><circle cx="99" cy="220" fill="#911eb4" r="3.5" stroke-width="0" /><circle cx="98" cy="211" fill="#911eb4" r="3.5" stroke-width="0" /><circle cx="97" cy="202" fill="#911eb4" r="3.5" stroke-width="0" /><circle cx="95" cy="192" fill="#911eb4" r="3.5" stroke-width="0" /><circle cx="95" cy="183" fill="#911eb4" r="3.5" stroke-width="0" /><circle cx="94" cy="173" fill="#911eb4" r="3.5" stroke-width="0" /><circle cx="93" cy="164" fill="#911eb4" r="3.5" stroke-width="0" /><circle cx="92" cy="155" fill="#911eb4" r="3.5" stroke-width="0" /><circle cx="92" cy="145" fill="#911eb4" r="3.5" stroke-width="0" /><circle cx="91" cy="136" fill="#911eb4" r="3.5" stroke-width="0" /><circle cx="91" cy="127" fill="#911eb4" r="3.5" stroke-width="0" /><circle cx="90" cy="117" fill="#911eb4" r="3.5" stroke-width="0" /><circle cx="90" cy="108" fill="#911eb4" r="3.5" stroke-width="0" /><circle cx="90" cy="98" fill="#911eb4" r="3.5" stroke-width="0" /></g></g></g></svg>