<?xml version="1.0" encoding="utf-8" ?>
<svg baseProfile="full" height="1140px" style="font-size:15;font-family:Arial, san-serif;font-weight:bold;stroke:black;stroke-width:0;fill:#444444" version="1.1" width="1140px" xmlns="http://www.w3.org/2000/svg" xmlns:ev="http://www.w3.org/2001/xml-events" xmlns:xlink="http://www.w3.org/1999/xlink"><defs><clipPath id="areadografico"><rect height="1000" width="1000" x="70" y="70" /></clipPath></defs><g class="master"><g class="poligonos"><polygon clip-path="url(#areadografico)" fill="#000000" fill-opacity="0.1" points="1069,1070 1069,871 870,1070" /><polygon clip-path="url(#areadografico)" fill="#ffffff" fill-opacity="0.1" points="871,1070 671,1070 1069,672 1069,871" /><polygon clip-path="url(#areadografico)" fill="#000000" fill-opacity="0.1" points="672,1070 471,1070 1069,472 1069,672" /><polygon clip-path="url(#areadografico)" fill="#ffffff" fill-opacity="0.1" points="472,1070 272,1070 1069,273 1069,472" /><polygon clip-path="url(#areadografico)" fill="#000000" fill-opacity="0.1" points="273,1070 73,1070 1069,74 1069,273" /><polygon clip-path="url(#areadografico)" fill="#ffffff" fill-opacity="0.1" points="74,1070 -127,1070 1069,-126 1069,74" /><polygon clip-path="url(#areadografico)" fill="#000000" fill-opacity="0.1" points="-126,1070 -326,1070 1069,-325 1069,-126" /><polygon clip-path="url(#areadografico)" fill="#ffffff" fill-opacity="0.1" points="-325,1070 -525,1070 1069,-524 1069,-325" /><polygon clip-path="url(#areadografico)" fill="#000000" fill-opacity="0.1" points="-524,1070 -725,1070 1069,-724 1069,-524" /><polygon clip-path="url(#areadografico)" fill="#ffffff" fill-opacity="0.1" points="70,71 70,276 275,71" /></g><g class="linhas"><line fill-opacity="0.3" stroke="#999999" stroke-width="1" x1="1070" x2="1070" y1="1070" y2="70" /><line fill-opacity="0.3" stroke="#999999" stroke-width="1" x1="70" x2="1070" y1="70" y2="70" /><line fill-opacity="0.3" stroke="#999999" stroke-width="1" x1="970" x2="970" y1="1070" y2="70" /><line fill-opacity="0.3" stroke="#999999" stroke-width="1" x1="70" x2="1070" y1="170" y2="170" /><line fill-opacity="0.3" stroke="#999999" stroke-width="1" x1="870" x2="870" y1="1070" y2="70" /><line fill-opacity="0.3" stroke="#999999" stroke-width="1" x1="70" x2="1070" y1="270" y2="270" /><line fill-opacity="0.3" stroke="#999999" stroke-width="1" x1="770" x2="770" y1="1070" y2="70" /><line fill-opacity="0.3" stroke="#999999" stroke-width="1" x1="70" x2="1070" y1="370" y2="370" /><line fill-opacity="0.3" stroke="#999999" stroke-width="1" x1="670" x2="670" y1="1070" y2="70" /><line fill-opacity="0.3" stroke="#999999" stroke-width="1" x1="70" x2="1070" y1="470" y2="470" /><line fill-opacity="0.3" stroke="#999999" stroke-width="1" x1="570" x2="570" y1="1070" y2="70" /><line fill-opacity="0.3" stroke="#999999" stroke-width="1" x1="70" x2="1070" y1="570" y2="570" /><line fill-opacity="0.3" stroke="#999999" stroke-width="1" x1="470" x2="470" y1="1070" y2="70" /><line fill-opacity="0.3" stroke="#999999" stroke-width="1" x1="70" x2="1070" y1="670" y2="670" /><line fill-opacity="0.3" stroke="#999999" stroke-width="1" x1="370" x2="370" y1="1070" y2="70" /><line fill-opacity="0.3" stroke="#999999" stroke-width="1" x1="70" x2="1070" y1="770" y2="770" /><line fill-opacity="0.3" stroke="#999999" stroke-width="1" x1="270" x2="270" y1="1070" y2="70" /><line fill-opacity="0.3" stroke="#999999" stroke-width="1" x1="70" x2="1070" y1="870" y2="870" /><line fill-opacity="0.3" stroke="#999999" stroke-width="1" x1="170" x2="170" y1="1070" y2="70" /><line fill-opacity="0.3" stroke="#999999" stroke-width="1" x1="70" x2="1070" y1="970" y2="970" /><line fill-opacity="0.3" stroke="#000000" stroke-width="1" x1="70" x2="70" y1="1071" y2="69" /><line fill-opacity="0.3" stroke="#000000" stroke-width="1" x1="69" x2="1071" y1="1070" y2="1070" /></g><g class="textos"><text x="1050" y="1110">1000</text><text x="10" y="71">1000</text><text x="950" y="1110">900</text><text x="10" y="171">900</text><text x="850" y="1110">800</text><text x="10" y="271">800</text><text x="750" y="1110">700</text><text x="10" y="371">700</text><text x="650" y="1110">600</text><text x="10" y="471">600</text><text x="550" y="1110">500</text><text x="10" y="571">500</text><text x="450" y="1110">400</text><text x="10" y="671">400</text><text x="350" y="1110">300</text><text x="10" y="771">300</text><text x="250" y="1110">200</text><text x="10" y="871">200</text><text x="150" y="1110">100</text><text x="10" y="971">100</text><text x="50" y="1111">0</text><text x="9" y="1071">0</text></g><g class="especies"><g class="e0"><circle cx="1020" cy="1050" fill="#ff0000" r="3.5" stroke-width="0" /><circle cx="1005" cy="1049" fill="#ff0000" r="3.5" stroke-width="0" /><circle cx="977" cy="1047" fill="#ff0000" r="3.5" stroke-width="0" /><circle cx="936" cy="1043" fill="#ff0000" r="3.5" stroke-width="0" /></g><g class="e1"><circle cx="890" cy="1037" fill="#2b92db" r="3.5" stroke-width="0" /><circle cx="854" cy="1030" fill="#2b92db" r="3.5" stroke-width="0" /><circle cx="814" cy="1021" fill="#2b92db" r="3.5" stroke-width="0" /><circle cx="780" cy="1011" fill="#2b92db" r="3.5" stroke-width="0" /></g><g class="e2"><circle cx="737" cy="998" fill="#911eb4" r="3.5" stroke-width="0" /><circle cx="700" cy="984" fill="#911eb4" r="3.5" stroke-width="0" /><circle cx="662" cy="968" fill="#911eb4" r="3.5" stroke-width="0" /><circle cx="624" cy="950" fill="#911eb4" r="3.5" stroke-width="0" /></g><g class="e3"><circle cx="583" cy="929" fill="#3cb44B" r="3.5" stroke-width="0" /><circle cx="544" cy="906" fill="#3cb44B" r="3.5" stroke-width="0" /><circle cx="506" cy="881" fill="#3cb44B" r="3.5" stroke-width="0" /></g><g class="e4"><circle cx="468" cy="853" fill="#ff0000" r="3.5" stroke-width="0" /><circle cx="428" cy="821" fill="#ff0000" r="3.5" stroke-width="0" /><circle cx="389" cy="786" fill="#ff0000" r="3.5" stroke-width="0" /></g><g class="e5"><circle cx="353" cy="750" fill="#2b92db" r="3.5" stroke-width="0" /><circle cx="318" cy="711" fill="#2b92db" r="3.5" stroke-width="0" /><circle cx="287" cy="672" fill="#2b92db" r="3.5" stroke-width="0" /></g><g class="e6"><circle cx="258" cy="633" fill="#911eb4" r="3.5" stroke-width="0" /><circle cx="233" cy="594" fill="#911eb4" r="3.5" stroke-width="0" /><circle cx="210" cy="555" fill="#911eb4" r="3.5" stroke-width="0" /></g><g class="e7"><circle cx="190" cy="516" fill="#3cb44B" r="3.5" stroke-width="0" /><circle cx="172" cy="478" fill="#3cb44B" r="3.5" stroke-width="0" /><circle cx="156" cy="439" fill="#3cb44B" r="3.5" stroke-width="0" /></g><g class="e8"><circle cx="141" cy="400" fill="#ff0000" r="3.5" stroke-width="0" /><circle cx="129" cy="361" fill="#ff0000" r="3.5" stroke-width="0" /><circle cx="118" cy="322" fill="#ff0000" r="3.5" stroke-width="0" /><circle cx="110" cy="283" fill="#ff0000" r="3.5" stroke-width="0" /><circle cx="102" cy="244" fill="#ff0000" r="3.5" stroke-width="0" /></g><g class="e9"><circle cx="97" cy="206" fill="#2b92db" r="3.5" stroke-width="0" /><circle cx="93" cy="167" fill="#2b92db" r="3.5" stroke-width="0" /><circle cx="91" cy="128" fill="#2b92db" r="3.5" stroke-width="0" /></g></g></g></svg>