<?xml version="1.0" encoding="utf-8" ?>
<svg baseProfile="full" height="1140px" style="font-size:15;font-family:Arial, san-serif;font-weight:bold;stroke:black;stroke-width:0;fill:#444444" version="1.1" width="1140px" xmlns="http://www.w3.org/2000/svg" xmlns:ev="http://www.w3.org/2001/xml-events" xmlns:xlink="http://www.w3.org/1999/xlink"><defs><clipPath id="areadografico"><rect height="1000" width="1000" x="70" y="70" /></clipPath></defs><g class="master"><g class="poligonos"><polygon clip-path="url(#areadografico)" fill="#000000" fill-opacity="0.1" points="1069,1070 1069,890 889,1070" /><polygon clip-path="url(#areadografico)" fill="#ffffff" fill-opacity="0.1" points="890,1070 708,1070 1069,709 1069,890" /><polygon clip-path="url(#areadografico)" fill="#000000" fill-opacity="0.1" points="709,1070 527,1070 1069,528 1069,709" /><polygon clip-path="url(#areadografico)" fill="#ffffff" fill-opacity="0.1" points="528,1070 346,1070 1069,347 1069,528" /><polygon clip-path="url(#areadografico)" fill="#000000" fill-opacity="0.1" points="347,1070 165,1070 1069,166 1069,347" /><polygon clip-path="url(#areadografico)" fill="#ffffff" fill-opacity="0.1" points="166,1070 -16,1070 1069,-15 1069,166" /><polygon clip-path="url(#areadografico)" fill="#000000" fill-opacity="0.1" points="-15,1070 -197,1070 1069,-196 1069,-15" /><polygon clip-path="url(#areadografico)" fill="#ffffff" fill-opacity="0.1" points="-196,1070 -378,1070 1069,-377 1069,-196" /><polygon clip-path="url(#areadografico)" fill="#000000" fill-opacity="0.1" points="-377,1070 -559,1070 1069,-558 1069,-377" /><polygon clip-path="url(#areadografico)" fill="#ffffff" fill-opacity="0.1" points="-558,1070 -740,1070 1069,-739 1069,-558" /><polygon clip-path="url(#areadografico)" fill="#000000" fill-opacity="0.1" points="70,71 70,260 259,71" /></g><g class="linhas"><line fill-opacity="0.3" stroke="#999999" stroke-width="1" x1="1070" x2="1070" y1="1070" y2="70" /><line fill-opacity="0.3" stroke="#999999" stroke-width="1" x1="70" x2="1070" y1="70" y2="70" /><line fill-opacity="0.3" stroke="#999999" stroke-width="1" x1="970" x2="970" y1="1070" y2="70" /><line fill-opacity="0.3" stroke="#999999" stroke-width="1" x1="70" x2="1070" y1="170" y2="170" /><line fill-opacity="0.3" stroke="#999999" stroke-width="1" x1="870" x2="870" y1="1070" y2="70" /><line fill-opacity="0.3" stroke="#999999" stroke-width="1" x1="70" x2="1070" y1="270" y2="270" /><line fill-opacity="0.3" stroke="#999999" stroke-width="1" x1="770" x2="770" y1="1070" y2="70" /><line fill-opacity="0.3" stroke="#999999" stroke-width="1" x1="70" x2="1070" y1="370" y2="370" /><line fill-opacity="0.3" stroke="#999999" stroke-width="1" x1="670" x2="670" y1="1070" y2="70" /><line fill-opacity="0.3" stroke="#999999" stroke-width="1" x1="70" x2="1070" y1="470" y2="470" /><line fill-opacity="0.3" stroke="#999999" stroke-width="1" x1="570" x2="570" y1="1070" y2="70" /><line fill-opacity="0.3" stroke="#999999" stroke-width="1" x1="70" x2="1070" y1="570" y2="570" /><line fill-opacity="0.3" stroke="#999999" stroke-width="1" x1="470" x2="470" y1="1070" y2="70" /><line fill-opacity="0.3" stroke="#999999" stroke-width="1" x1="70" x2="1070" y1="670" y2="670" /><line fill-opacity="0.3" stroke="#999999" stroke-width="1" x1="370" x2="370" y1="1070" y2="70" /><line fill-opacity="0.3" stroke="#999999" stroke-width="1" x1="70" x2="1070" y1="770" y2="770" /><line fill-opacity="0.3" stroke="#999999" stroke-width="1" x1="270" x2="270" y1="1070" y2="70" /><line fill-opacity="0.3" stroke="#999999" stroke-width="1" x1="70" x2="1070" y1="870" y2="870" /><line fill-opacity="0.3" stroke="#999999" stroke-width="1" x1="170" x2="170" y1="1070" y2="70" /><line fill-opacity="0.3" stroke="#999999" stroke-width="1" x1="70" x2="1070" y1="970" y2="970" /><line fill-opacity="0.3" stroke="#000000" stroke-width="1" x1="70" x2="70" y1="1071" y2="69" /><line fill-opacity="0.3" stroke="#000000" stroke-width="1" x1="69" x2="1071" y1="1070" y2="1070" /></g><g class="textos"><text x="1050" y="1110">1000</text><text x="10" y="71">1000</text><text x="950" y="1110">900</text><text x="10" y="171">900</text><text x="850" y="1110">800</text><text x="10" y="271">800</text><text x="750" y="1110">700</text><text x="10" y="371">700</text><text x="650" y="1110">600</text><text x="10" y="471">600</text><text x="550" y="1110">500</text><text x="10" y="571">500</text><text x="450" y="1110">400</text><text x="10" y="671">400</text><text x="350" y="1110">300</text><text x="10" y="771">300</text><text x="250" y="1110">200</text><text x="10" y="871">200</text><text x="150" y="1110">100</text><text x="10" y="971">100</text><text x="50" y="1111">0</text><text x="9" y="1071">0</text></g><g class="especies"><g class="e0"><circle cx="1020" cy="1050" fill="#ff0000" r="3.5" stroke-width="0" /><circle cx="1026" cy="1050" fill="#ff0000" r="3.5" stroke-width="0" /><circle cx="1031" cy="1050" fill="#ff0000" r="3.5" stroke-width="0" /><circle cx="1037" cy="1050" fill="#ff0000" r="3.5" stroke-width="0" /><circle cx="1042" cy="1050" fill="#ff0000" r="3.5" stroke-width="0" /><circle cx="1048" cy="1050" fill="#ff0000" r="3.5" stroke-width="0" /><circle cx="999" cy="1049" fill="#ff0000" r="3.5" stroke-width="0" /><circle cx="1005" cy="1049" fill="#ff0000" r="3.5" stroke-width="0" /><circle cx="1010" cy="1049" fill="#ff0000" r="3.5" stroke-width="0" /><circle cx="1016" cy="1049" fill="#ff0000" r="3.5" stroke-width="0" /><circle cx="983" cy="1048" fill="#ff0000" r="3.5" stroke-width="0" /><circle cx="988" cy="1048" fill="#ff0000" r="3.5" stroke-width="0" /><circle cx="994" cy="1048" fill="#ff0000" r="3.5" stroke-width="0" /><circle cx="971" cy="1047" fill="#ff0000" r="3.5" stroke-width="0" /><circle cx="977" cy="1047" fill="#ff0000" r="3.5" stroke-width="0" /><circle cx="959" cy="1046" fill="#ff0000" r="3.5" stroke-width="0" /><circle cx="965" cy="1046" fill="#ff0000" r="3.5" stroke-width="0" /><circle cx="949" cy="1045" fill="#ff0000" r="3.5" stroke-width="0" /><circle cx="955" cy="1045" fill="#ff0000" r="3.5" stroke-width="0" /><circle cx="941" cy="1044" fill="#ff0000" r="3.5" stroke-width="0" /><circle cx="947" cy="1044" fill="#ff0000" r="3.5" stroke-width="0" /><circle cx="936" cy="1043" fill="#ff0000" r="3.5" stroke-width="0" /><circle cx="925" cy="1042" fill="#ff0000" r="3.5" stroke-width="0" /><circle cx="921" cy="1041" fill="#ff0000" r="3.5" stroke-width="0" /></g><g class="e1"><circle cx="916" cy="1041" fill="#2b92db" r="3.5" stroke-width="0" /><circle cx="913" cy="1040" fill="#2b92db" r="3.5" stroke-width="0" /><circle cx="904" cy="1039" fill="#2b92db" r="3.5" stroke-width="0" /><circle cx="897" cy="1038" fill="#2b92db" r="3.5" stroke-width="0" /><circle cx="890" cy="1037" fill="#2b92db" r="3.5" stroke-width="0" /><circle cx="884" cy="1036" fill="#2b92db" r="3.5" stroke-width="0" /><circle cx="879" cy="1035" fill="#2b92db" r="3.5" stroke-width="0" /><circle cx="873" cy="1034" fill="#2b92db" r="3.5" stroke-width="0" /><circle cx="868" cy="1033" fill="#2b92db" r="3.5" stroke-width="0" /><circle cx="863" cy="1032" fill="#2b92db" r="3.5" stroke-width="0" /><circle cx="859" cy="1031" fill="#2b92db" r="3.5" stroke-width="0" /><circle cx="854" cy="1030" fill="#2b92db" r="3.5" stroke-width="0" /><circle cx="850" cy="1029" fill="#2b92db" r="3.5" stroke-width="0" /><circle cx="846" cy="1028" fill="#2b92db" r="3.5" stroke-width="0" /><circle cx="843" cy="1027" fill="#2b92db" r="3.5" stroke-width="0" /><circle cx="831" cy="1025" fill="#2b92db" r="3.5" stroke-width="0" /><circle cx="828" cy="1024" fill="#2b92db" r="3.5" stroke-width="0" /><circle cx="825" cy="1023" fill="#2b92db" r="3.5" stroke-width="0" /><circle cx="814" cy="1021" fill="#2b92db" r="3.5" stroke-width="0" /><circle cx="812" cy="1020" fill="#2b92db" r="3.5" stroke-width="0" /><circle cx="803" cy="1018" fill="#2b92db" r="3.5" stroke-width="0" /><circle cx="801" cy="1017" fill="#2b92db" r="3.5" stroke-width="0" /><circle cx="798" cy="1016" fill="#2b92db" r="3.5" stroke-width="0" /><circle cx="790" cy="1014" fill="#2b92db" r="3.5" stroke-width="0" /><circle cx="781" cy="1012" fill="#2b92db" r="3.5" stroke-width="0" /><circle cx="780" cy="1011" fill="#2b92db" r="3.5" stroke-width="0" /><circle cx="773" cy="1009" fill="#2b92db" r="3.5" stroke-width="0" /></g><g class="e2"><circle cx="765" cy="1007" fill="#911eb4" r="3.5" stroke-width="0" /><circle cx="758" cy="1005" fill="#911eb4" r="3.5" stroke-width="0" /><circle cx="756" cy="1004" fill="#911eb4" r="3.5" stroke-width="0" /><circle cx="750" cy="1002" fill="#911eb4" r="3.5" stroke-width="0" /><circle cx="743" cy="1000" fill="#911eb4" r="3.5" stroke-width="0" /><circle cx="737" cy="998" fill="#911eb4" r="3.5" stroke-width="0" /><circle cx="736" cy="997" fill="#911eb4" r="3.5" stroke-width="0" /><circle cx="726" cy="994" fill="#911eb4" r="3.5" stroke-width="0" /><circle cx="721" cy="992" fill="#911eb4" r="3.5" stroke-width="0" /><circle cx="715" cy="990" fill="#911eb4" r="3.5" stroke-width="0" /><circle cx="710" cy="988" fill="#911eb4" r="3.5" stroke-width="0" /><circle cx="705" cy="986" fill="#911eb4" r="3.5" stroke-width="0" /><circle cx="700" cy="984" fill="#911eb4" r="3.5" stroke-width="0" /><circle cx="695" cy="982" fill="#911eb4" r="3.5" stroke-width="0" /><circle cx="691" cy="980" fill="#911eb4" r="3.5" stroke-width="0" /><circle cx="682" cy="977" fill="#911eb4" r="3.5" stroke-width="0" /><circle cx="678" cy="975" fill="#911eb4" r="3.5" stroke-width="0" /><circle cx="674" cy="973" fill="#911eb4" r="3.5" stroke-width="0" /><circle cx="666" cy="970" fill="#911eb4" r="3.5" stroke-width="0" /><circle cx="662" cy="968" fill="#911eb4" r="3.5" stroke-width="0" /><circle cx="654" cy="965" fill="#911eb4" r="3.5" stroke-width="0" /><circle cx="651" cy="963" fill="#911eb4" r="3.5" stroke-width="0" /><circle cx="644" cy="960" fill="#911eb4" r="3.5" stroke-width="0" /><circle cx="640" cy="958" fill="#911eb4" r="3.5" stroke-width="0" /></g><g class="e3"><circle cx="633" cy="955" fill="#3cb44B" r="3.5" stroke-width="0" /><circle cx="627" cy="952" fill="#3cb44B" r="3.5" stroke-width="0" /><circle cx="624" cy="950" fill="#3cb44B" r="3.5" stroke-width="0" /><circle cx="618" cy="947" fill="#3cb44B" r="3.5" stroke-width="0" /><circle cx="612" cy="944" fill="#3cb44B" r="3.5" stroke-width="0" /><circle cx="605" cy="941" fill="#3cb44B" r="3.5" stroke-width="0" /><circle cx="600" cy="938" fill="#3cb44B" r="3.5" stroke-width="0" /><circle cx="594" cy="935" fill="#3cb44B" r="3.5" stroke-width="0" /><circle cx="588" cy="932" fill="#3cb44B" r="3.5" stroke-width="0" /><circle cx="583" cy="929" fill="#3cb44B" r="3.5" stroke-width="0" /><circle cx="578" cy="926" fill="#3cb44B" r="3.5" stroke-width="0" /><circle cx="572" cy="923" fill="#3cb44B" r="3.5" stroke-width="0" /><circle cx="568" cy="920" fill="#3cb44B" r="3.5" stroke-width="0" /><circle cx="563" cy="917" fill="#3cb44B" r="3.5" stroke-width="0" /><circle cx="555" cy="913" fill="#3cb44B" r="3.5" stroke-width="0" /><circle cx="551" cy="910" fill="#3cb44B" r="3.5" stroke-width="0" /><circle cx="544" cy="906" fill="#3cb44B" r="3.5" stroke-width="0" /><circle cx="540" cy="903" fill="#3cb44B" r="3.5" stroke-width="0" /><circle cx="535" cy="900" fill="#3cb44B" r="3.5" stroke-width="0" /><circle cx="529" cy="896" fill="#3cb44B" r="3.5" stroke-width="0" /></g><g class="e4"><circle cx="522" cy="892" fill="#ff0000" r="3.5" stroke-width="0" /><circle cx="516" cy="888" fill="#ff0000" r="3.5" stroke-width="0" /><circle cx="512" cy="885" fill="#ff0000" r="3.5" stroke-width="0" /><circle cx="506" cy="881" fill="#ff0000" r="3.5" stroke-width="0" /><circle cx="500" cy="877" fill="#ff0000" r="3.5" stroke-width="0" /><circle cx="494" cy="873" fill="#ff0000" r="3.5" stroke-width="0" /><circle cx="489" cy="869" fill="#ff0000" r="3.5" stroke-width="0" /><circle cx="483" cy="865" fill="#ff0000" r="3.5" stroke-width="0" /><circle cx="478" cy="861" fill="#ff0000" r="3.5" stroke-width="0" /><circle cx="473" cy="857" fill="#ff0000" r="3.5" stroke-width="0" /><circle cx="468" cy="853" fill="#ff0000" r="3.5" stroke-width="0" /><circle cx="462" cy="849" fill="#ff0000" r="3.5" stroke-width="0" /><circle cx="456" cy="844" fill="#ff0000" r="3.5" stroke-width="0" /><circle cx="449" cy="839" fill="#ff0000" r="3.5" stroke-width="0" /><circle cx="444" cy="835" fill="#ff0000" r="3.5" stroke-width="0" /><circle cx="438" cy="830" fill="#ff0000" r="3.5" stroke-width="0" /><circle cx="434" cy="826" fill="#ff0000" r="3.5" stroke-width="0" /><circle cx="428" cy="821" fill="#ff0000" r="3.5" stroke-width="0" /><circle cx="423" cy="817" fill="#ff0000" r="3.5" stroke-width="0" /></g><g class="e5"><circle cx="417" cy="812" fill="#2b92db" r="3.5" stroke-width="0" /><circle cx="412" cy="807" fill="#2b92db" r="3.5" stroke-width="0" /><circle cx="406" cy="802" fill="#2b92db" r="3.5" stroke-width="0" /><circle cx="401" cy="797" fill="#2b92db" r="3.5" stroke-width="0" /><circle cx="395" cy="792" fill="#2b92db" r="3.5" stroke-width="0" /><circle cx="389" cy="786" fill="#2b92db" r="3.5" stroke-width="0" /><circle cx="384" cy="781" fill="#2b92db" r="3.5" stroke-width="0" /><circle cx="378" cy="776" fill="#2b92db" r="3.5" stroke-width="0" /><circle cx="373" cy="771" fill="#2b92db" r="3.5" stroke-width="0" /><circle cx="368" cy="766" fill="#2b92db" r="3.5" stroke-width="0" /><circle cx="363" cy="761" fill="#2b92db" r="3.5" stroke-width="0" /><circle cx="358" cy="755" fill="#2b92db" r="3.5" stroke-width="0" /><circle cx="353" cy="750" fill="#2b92db" r="3.5" stroke-width="0" /><circle cx="347" cy="744" fill="#2b92db" r="3.5" stroke-width="0" /><circle cx="342" cy="738" fill="#2b92db" r="3.5" stroke-width="0" /><circle cx="337" cy="733" fill="#2b92db" r="3.5" stroke-width="0" /><circle cx="332" cy="727" fill="#2b92db" r="3.5" stroke-width="0" /></g><g class="e6"><circle cx="327" cy="722" fill="#911eb4" r="3.5" stroke-width="0" /><circle cx="322" cy="716" fill="#911eb4" r="3.5" stroke-width="0" /><circle cx="318" cy="711" fill="#911eb4" r="3.5" stroke-width="0" /><circle cx="313" cy="705" fill="#911eb4" r="3.5" stroke-width="0" /><circle cx="309" cy="700" fill="#911eb4" r="3.5" stroke-width="0" /><circle cx="304" cy="694" fill="#911eb4" r="3.5" stroke-width="0" /><circle cx="300" cy="689" fill="#911eb4" r="3.5" stroke-width="0" /><circle cx="295" cy="683" fill="#911eb4" r="3.5" stroke-width="0" /><circle cx="290" cy="677" fill="#911eb4" r="3.5" stroke-width="0" /><circle cx="287" cy="672" fill="#911eb4" r="3.5" stroke-width="0" /><circle cx="282" cy="666" fill="#911eb4" r="3.5" stroke-width="0" /><circle cx="278" cy="661" fill="#911eb4" r="3.5" stroke-width="0" /><circle cx="274" cy="655" fill="#911eb4" r="3.5" stroke-width="0" /><circle cx="270" cy="650" fill="#911eb4" r="3.5" stroke-width="0" /><circle cx="266" cy="644" fill="#911eb4" r="3.5" stroke-width="0" /><circle cx="262" cy="639" fill="#911eb4" r="3.5" stroke-width="0" /><circle cx="258" cy="633" fill="#911eb4" r="3.5" stroke-width="0" /><circle cx="254" cy="627" fill="#911eb4" r="3.5" stroke-width="0" /><circle cx="251" cy="622" fill="#911eb4" r="3.5" stroke-width="0" /></g><g class="e7"><circle cx="247" cy="616" fill="#3cb44B" r="3.5" stroke-width="0" /><circle cx="244" cy="611" fill="#3cb44B" r="3.5" stroke-width="0" /><circle cx="240" cy="605" fill="#3cb44B" r="3.5" stroke-width="0" /><circle cx="237" cy="600" fill="#3cb44B" r="3.5" stroke-width="0" /><circle cx="233" cy="594" fill="#3cb44B" r="3.5" stroke-width="0" /><circle cx="230" cy="589" fill="#3cb44B" r="3.5" stroke-width="0" /><circle cx="226" cy="583" fill="#3cb44B" r="3.5" stroke-width="0" /><circle cx="223" cy="577" fill="#3cb44B" r="3.5" stroke-width="0" /><circle cx="220" cy="572" fill="#3cb44B" r="3.5" stroke-width="0" /><circle cx="216" cy="566" fill="#3cb44B" r="3.5" stroke-width="0" /><circle cx="213" cy="561" fill="#3cb44B" r="3.5" stroke-width="0" /><circle cx="210" cy="555" fill="#3cb44B" r="3.5" stroke-width="0" /><circle cx="207" cy="550" fill="#3cb44B" r="3.5" stroke-width="0" /><circle cx="204" cy="544" fill="#3cb44B" r="3.5" stroke-width="0" /><circle cx="201" cy="539" fill="#3cb44B" r="3.5" stroke-width="0" /><circle cx="198" cy="533" fill="#3cb44B" r="3.5" stroke-width="0" /><circle cx="196" cy="528" fill="#3cb44B" r="3.5" stroke-width="0" /><circle cx="193" cy="522" fill="#3cb44B" r="3.5" stroke-width="0" /><circle cx="190" cy="516" fill="#3cb44B" r="3.5" stroke-width="0" /><circle cx="187" cy="511" fill="#3cb44B" r="3.5" stroke-width="0" /></g><g class="e8"><circle cx="184" cy="505" fill="#ff0000" r="3.5" stroke-width="0" /><circle cx="182" cy="500" fill="#ff0000" r="3.5" stroke-width="0" /><circle cx="179" cy="494" fill="#ff0000" r="3.5" stroke-width="0" /><circle cx="177" cy="489" fill="#ff0000" r="3.5" stroke-width="0" /><circle cx="174" cy="483" fill="#ff0000" r="3.5" stroke-width="0" /><circle cx="172" cy="478" fill="#ff0000" r="3.5" stroke-width="0" /><circle cx="169" cy="472" fill="#ff0000" r="3.5" stroke-width="0" /><circle cx="167" cy="466" fill="#ff0000" r="3.5" stroke-width="0" /><circle cx="165" cy="461" fill="#ff0000" r="3.5" stroke-width="0" /><circle cx="162" cy="455" fill="#ff0000" r="3.5" stroke-width="0" /><circle cx="160" cy="450" fill="#ff0000" r="3.5" stroke-width="0" /><circle cx="158" cy="444" fill="#ff0000" r="3.5" stroke-width="0" /><circle cx="156" cy="439" fill="#ff0000" r="3.5" stroke-width="0" /><circle cx="153" cy="433" fill="#ff0000" r="3.5" stroke-width="0" /><circle cx="151" cy="428" fill="#ff0000" r="3.5" stroke-width="0" /><circle cx="149" cy="422" fill="#ff0000" r="3.5" stroke-width="0" /><circle cx="147" cy="417" fill="#ff0000" r="3.5" stroke-width="0" /><circle cx="145" cy="411" fill="#ff0000" r="3.5" stroke-width="0" /><circle cx="143" cy="405" fill="#ff0000" r="3.5" stroke-width="0" /><circle cx="141" cy="400" fill="#ff0000" r="3.5" stroke-width="0" /><circle cx="139" cy="394" fill="#ff0000" r="3.5" stroke-width="0" /><circle cx="138" cy="389" fill="#ff0000" r="3.5" stroke-width="0" /><circle cx="136" cy="383" fill="#ff0000" r="3.5" stroke-width="0" /><circle cx="134" cy="378" fill="#ff0000" r="3.5" stroke-width="0" /></g><g class="e9"><circle cx="132" cy="372" fill="#2b92db" r="3.5" stroke-width="0" /><circle cx="131" cy="367" fill="#2b92db" r="3.5" stroke-width="0" /><circle cx="129" cy="361" fill="#2b92db" r="3.5" stroke-width="0" /><circle cx="127" cy="355" fill="#2b92db" r="3.5" stroke-width="0" /><circle cx="126" cy="350" fill="#2b92db" r="3.5" stroke-width="0" /><circle cx="124" cy="344" fill="#2b92db" r="3.5" stroke-width="0" /><circle cx="123" cy="339" fill="#2b92db" r="3.5" stroke-width="0" /><circle cx="121" cy="333" fill="#2b92db" r="3.5" stroke-width="0" /><circle cx="120" cy="328" fill="#2b92db" r="3.5" stroke-width="0" /><circle cx="118" cy="322" fill="#2b92db" r="3.5" stroke-width="0" /><circle cx="117" cy="317" fill="#2b92db" r="3.5" stroke-width="0" /><circle cx="116" cy="311" fill="#2b92db" r="3.5" stroke-width="0" /><circle cx="114" cy="305" fill="#2b92db" r="3.5" stroke-width="0" /><circle cx="113" cy="300" fill="#2b92db" r="3.5" stroke-width="0" /><circle cx="112" cy="294" fill="#2b92db" r="3.5" stroke-width="0" /><circle cx="111" cy="289" fill="#2b92db" r="3.5" stroke-width="0" /><circle cx="110" cy="283" fill="#2b92db" r="3.5" stroke-width="0" /><circle cx="109" cy="278" fill="#2b92db" r="3.5" stroke-width="0" /><circle cx="107" cy="272" fill="#2b92db" r="3.5" stroke-width="0" /><circle cx="106" cy="267" fill="#2b92db" r="3.5" stroke-width="0" /><circle cx="105" cy="261" fill="#2b92db" r="3.5" stroke-width="0" /><circle cx="104" cy="256" fill="#2b92db" r="3.5" stroke-width="0" /><circle cx="103" cy="250" fill="#2b92db" r="3.5" stroke-width="0" /><circle cx="102" cy="244" fill="#2b92db" r="3.5" stroke-width="0" /><circle cx="102" cy="239" fill="#2b92db" r="3.5" stroke-width="0" /><circle cx="101" cy="233" fill="#2b92db" r="3.5" stroke-width="0" /></g><g class="e10"><circle cx="100" cy="228" fill="#911eb4" r="3.5" stroke-width="0" /><circle cx="99" cy="222" fill="#911eb4" r="3.5" stroke-width="0" /><circle cx="98" cy="217" fill="#911eb4" r="3.5" stroke-width="0" /><circle cx="98" cy="211" fill="#911eb4" r="3.5" stroke-width="0" /><circle cx="97" cy="206" fill="#911eb4" r="3.5" stroke-width="0" /><circle cx="96" cy="200" fill="#911eb4" r="3.5" stroke-width="0" /><circle cx="96" cy="194" fill="#911eb4" r="3.5" stroke-width="0" /><circle cx="95" cy="189" fill="#911eb4" r="3.5" stroke-width="0" /><circle cx="95" cy="183" fill="#911eb4" r="3.5" stroke-width="0" /><circle cx="94" cy="178" fill="#911eb4" r="3.5" stroke-width="0" /><circle cx="94" cy="172" fill="#911eb4" r="3.5" stroke-width="0" /><circle cx="93" cy="167" fill="#911eb4" r="3.5" stroke-width="0" /><circle cx="93" cy="161" fill="#911eb4" r="3.5" stroke-width="0" /><circle cx="92" cy="156" fill="#911eb4" r="3.5" stroke-width="0" /><circle cx="92" cy="150" fill="#911eb4" r="3.5" stroke-width="0" /><circle cx="92" cy="145" fill="#911eb4" r="3.5" stroke-width="0" /><circle cx="91" cy="139" fill="#911eb4" r="3.5" stroke-width="0" /><circle cx="91" cy="133" fill="#911eb4" r="3.5" stroke-width="0" /><circle cx="91" cy="128" fill="#911eb4" r="3.5" stroke-width="0" /><circle cx="91" cy="122" fill="#911eb4" r="3.5" stroke-width="0" /><circle cx="90" cy="117" fill="#911eb4" r="3.5" stroke-width="0" /><circle cx="90" cy="111" fill="#911eb4" r="3.5" stroke-width="0" /><circle cx="90" cy="106" fill="#911eb4" r="3.5" stroke-width="0" /><circle cx="90" cy="100" fill="#911eb4" r="3.5" stroke-width="0" /><circle cx="90" cy="95" fill="#911eb4" r="3.5" stroke-width="0" /></g></g></g></svg>