<?xml version="1.0" encoding="utf-8" ?>
<svg baseProfile="full" height="1140px" style="font-size:15;font-family:Arial, san-serif;font-weight:bold;stroke:black;stroke-width:0;fill:#444444" version="1.1" width="1140px" xmlns="http://www.w3.org/2000/svg" xmlns:ev="http://www.w3.org/2001/xml-events" xmlns:xlink="http://www.w3.org/1999/xlink"><defs><clipPath id="areadografico"><rect height="1000" width="1000" x="70" y="70" /></clipPath></defs><g class="master"><g class="poligonos"><polygon clip-path="url(#areadografico)" fill="#000000" fill-opacity="0.1" points="70,1070 70,870 269,871 270,670 469,671 470,470 669,471 670,270 869,271 870,70 1069,71 1069,71 1069,271 869,271 869,471 669,471 669,671 469,671 469,871 269,871 270,1070" /><polygon clip-path="url(#areadografico)" fill="#ffffff" fill-opacity="0.1" points="270,1070 270,870 469,871 470,670 669,671 670,470 869,471 870,270 1069,271 1069,271 1069,471 869,471 869,671 669,671 669,871 469,871 470,1070" /><polygon clip-path="url(#areadografico)" fill="#000000" fill-opacity="0.1" points="70,870 270,870 269,671 470,670 469,471 670,470 669,271 870,270 869,71 869,71 669,71 669,271 469,271 469,471 269,471 269,671 70,670" /><polygon clip-path="url(#areadografico)" fill="#ff0000" fill-opacity="0.1" points="470,1070 470,870 669,871 670,670 869,671 870,470 1069,471 1069,471 1069,671 869,671 869,871 669,871 670,1070" /><polygon clip-path="url(#areadografico)" fill="#000000" fill-opacity="0.1" points="70,670 270,670 269,471 470,470 469,271 670,270 669,71 669,71 469,71 469,271 269,271 269,471 70,470" /><polygon clip-path="url(#areadografico)" fill="#ffffff" fill-opacity="0.1" points="670,1070 670,870 869,871 870,670 1069,671 1069,671 1069,871 869,871 870,1070" /><polygon clip-path="url(#areadografico)" fill="#000000" fill-opacity="0.1" points="70,470 270,470 269,271 470,270 469,71 469,71 269,71 269,271 70,270" /><polygon clip-path="url(#areadografico)" fill="#ff0000" fill-opacity="0.1" points="870,1070 870,870 1069,871 1069,1070" /><polygon clip-path="url(#areadografico)" fill="#000000" fill-opacity="0.1" points="70,270 270,270 269,71 70,71" /></g><g class="linhas"><line fill-opacity="0.3" stroke="#999999" stroke-width="1" x1="1070" x2="1070" y1="1070" y2="70" /><line fill-opacity="0.3" stroke="#999999" stroke-width="1" x1="70" x2="1070" y1="70" y2="70" /><line fill-opacity="0.3" stroke="#999999" stroke-width="1" x1="970" x2="970" y1="1070" y2="70" /><line fill-opacity="0.3" stroke="#999999" stroke-width="1" x1="70" x2="1070" y1="170" y2="170" /><line fill-opacity="0.3" stroke="#999999" stroke-width="1" x1="870" x2="870" y1="1070" y2="70" /><line fill-opacity="0.3" stroke="#999999" stroke-width="1" x1="70" x2="1070" y1="270" y2="270" /><line fill-opacity="0.3" stroke="#999999" stroke-width="1" x1="770" x2="770" y1="1070" y2="70" /><line fill-opacity="0.3" stroke="#999999" stroke-width="1" x1="70" x2="1070" y1="370" y2="370" /><line fill-opacity="0.3" stroke="#999999" stroke-width="1" x1="670" x2="670" y1="1070" y2="70" /><line fill-opacity="0.3" stroke="#999999" stroke-width="1" x1="70" x2="1070" y1="470" y2="470" /><line fill-opacity="0.3" stroke="#999999" stroke-width="1" x1="570" x2="570" y1="1070" y2="70" /><line fill-opacity="0.3" stroke="#999999" stroke-width="1" x1="70" x2="1070" y1="570" y2="570" /><line fill-opacity="0.3" stroke="#999999" stroke-width="1" x1="470" x2="470" y1="1070" y2="70" /><line fill-opacity="0.3" stroke="#999999" stroke-width="1" x1="70" x2="1070" y1="670" y2="670" /><line fill-opacity="0.3" stroke="#999999" stroke-width="1" x1="370" x2="370" y1="1070" y2="70" /><line fill-opacity="0.3" stroke="#999999" stroke-width="1" x1="70" x2="1070" y1="770" y2="770" /><line fill-opacity="0.3" stroke="#999999" stroke-width="1" x1="270" x2="270" y1="1070" y2="70" /><line fill-opacity="0.3" stroke="#999999" stroke-width="1" x1="70" x2="1070" y1="870" y2="870" /><line fill-opacity="0.3" stroke="#999999" stroke-width="1" x1="170" x2="170" y1="1070" y2="70" /><line fill-opacity="0.3" stroke="#999999" stroke-width="1" x1="70" x2="1070" y1="970" y2="970" /><line fill-opacity="0.3" stroke="#000000" stroke-width="1" x1="70" x2="70" y1="1071" y2="69" /><line fill-opacity="0.3" stroke="#000000" stroke-width="1" x1="69" x2="1071" y1="1070" y2="1070" /></g><g class="textos"><text x="1050" y="1110">1000</text><text x="10" y="71">1000</text><text x="950" y="1110">900</text><text x="10" y="171">900</text><text x="850" y="1110">800</text><text x="10" y="271">800</text><text x="750" y="1110">700</text><text x="10" y="371">700</text><text x="650" y="1110">600</text><text x="10" y="471">600</text><text x="550" y="1110">500</text><text x="10" y="571">500</text><text x="450" y="1110">400</text><text x="10" y="671">400</text><text x="350" y="1110">300</text><text x="10" y="771">300</text><text x="250" y="1110">200</text><text x="10" y="871">200</text><text x="150" y="1110">100</text><text x="10" y="971">100</text><text x="50" y="1111">0</text><text x="9" y="1071">0</text></g><g class="especies"><g class="e0"><circle cx="303" cy="693" fill="#3cb44B" r="3.5" stroke-width="0" /><circle cx="411" cy="806" fill="#3cb44B" r="3.5" stroke-width="0" /><circle cx="330" cy="725" fill="#3cb44B" r="3.5" stroke-width="0" /><circle cx="325" cy="719" fill="#3cb44B" r="3.5" stroke-width="0" /><circle cx="389" cy="786" fill="#3cb44B" r="3.5" stroke-width="0" /><circle cx="310" cy="701" fill="#3cb44B" r="3.5" stroke-width="0" /><circle cx="423" cy="817" fill="#3cb44B" r="3.5" stroke-width="0" /><circle cx="393" cy="790" fill="#3cb44B" r="3.5" stroke-width="0" /><circle cx="311" cy="703" fill="#3cb44B" r="3.5" stroke-width="0" /><circle cx="467" cy="853" fill="#3cb44B" r="3.5" stroke-width="0" /><circle cx="377" cy="775" fill="#3cb44B" r="3.5" stroke-width="0" /></g><g class="e1"><circle cx="480" cy="862" fill="#ff0000" r="3.5" stroke-width="0" /></g><g class="e2"><circle cx="274" cy="655" fill="#2b92db" r="3.5" stroke-width="0" /><circle cx="285" cy="670" fill="#2b92db" r="3.5" stroke-width="0" /><circle cx="283" cy="667" fill="#2b92db" r="3.5" stroke-width="0" /></g><g class="e3"><circle cx="546" cy="907" fill="#911eb4" r="3.5" stroke-width="0" /><circle cx="553" cy="911" fill="#911eb4" r="3.5" stroke-width="0" /><circle cx="594" cy="935" fill="#911eb4" r="3.5" stroke-width="0" /><circle cx="622" cy="949" fill="#911eb4" r="3.5" stroke-width="0" /><circle cx="618" cy="947" fill="#911eb4" r="3.5" stroke-width="0" /><circle cx="664" cy="969" fill="#911eb4" r="3.5" stroke-width="0" /><circle cx="608" cy="942" fill="#911eb4" r="3.5" stroke-width="0" /><circle cx="524" cy="893" fill="#911eb4" r="3.5" stroke-width="0" /><circle cx="539" cy="903" fill="#911eb4" r="3.5" stroke-width="0" /><circle cx="633" cy="955" fill="#911eb4" r="3.5" stroke-width="0" /><circle cx="571" cy="922" fill="#911eb4" r="3.5" stroke-width="0" /><circle cx="587" cy="931" fill="#911eb4" r="3.5" stroke-width="0" /><circle cx="567" cy="920" fill="#911eb4" r="3.5" stroke-width="0" /><circle cx="520" cy="890" fill="#911eb4" r="3.5" stroke-width="0" /></g><g class="e4"><circle cx="226" cy="582" fill="#3cb44B" r="3.5" stroke-width="0" /><circle cx="174" cy="482" fill="#3cb44B" r="3.5" stroke-width="0" /><circle cx="196" cy="529" fill="#3cb44B" r="3.5" stroke-width="0" /><circle cx="252" cy="624" fill="#3cb44B" r="3.5" stroke-width="0" /><circle cx="258" cy="633" fill="#3cb44B" r="3.5" stroke-width="0" /><circle cx="241" cy="607" fill="#3cb44B" r="3.5" stroke-width="0" /></g><g class="e5"><circle cx="799" cy="1017" fill="#ff0000" r="3.5" stroke-width="0" /><circle cx="711" cy="988" fill="#ff0000" r="3.5" stroke-width="0" /><circle cx="677" cy="975" fill="#ff0000" r="3.5" stroke-width="0" /><circle cx="674" cy="973" fill="#ff0000" r="3.5" stroke-width="0" /><circle cx="742" cy="999" fill="#ff0000" r="3.5" stroke-width="0" /><circle cx="722" cy="992" fill="#ff0000" r="3.5" stroke-width="0" /><circle cx="858" cy="1031" fill="#ff0000" r="3.5" stroke-width="0" /><circle cx="831" cy="1025" fill="#ff0000" r="3.5" stroke-width="0" /><circle cx="693" cy="981" fill="#ff0000" r="3.5" stroke-width="0" /><circle cx="856" cy="1030" fill="#ff0000" r="3.5" stroke-width="0" /><circle cx="821" cy="1022" fill="#ff0000" r="3.5" stroke-width="0" /></g><g class="e6"><circle cx="116" cy="313" fill="#2b92db" r="3.5" stroke-width="0" /><circle cx="130" cy="364" fill="#2b92db" r="3.5" stroke-width="0" /><circle cx="147" cy="417" fill="#2b92db" r="3.5" stroke-width="0" /><circle cx="126" cy="350" fill="#2b92db" r="3.5" stroke-width="0" /><circle cx="151" cy="426" fill="#2b92db" r="3.5" stroke-width="0" /><circle cx="132" cy="371" fill="#2b92db" r="3.5" stroke-width="0" /><circle cx="114" cy="302" fill="#2b92db" r="3.5" stroke-width="0" /><circle cx="134" cy="378" fill="#2b92db" r="3.5" stroke-width="0" /><circle cx="117" cy="316" fill="#2b92db" r="3.5" stroke-width="0" /><circle cx="112" cy="294" fill="#2b92db" r="3.5" stroke-width="0" /><circle cx="109" cy="282" fill="#2b92db" r="3.5" stroke-width="0" /></g><g class="e7"><circle cx="1049" cy="1050" fill="#911eb4" r="3.5" stroke-width="0" /><circle cx="971" cy="1047" fill="#911eb4" r="3.5" stroke-width="0" /><circle cx="873" cy="1034" fill="#911eb4" r="3.5" stroke-width="0" /><circle cx="992" cy="1048" fill="#911eb4" r="3.5" stroke-width="0" /><circle cx="930" cy="1042" fill="#911eb4" r="3.5" stroke-width="0" /><circle cx="901" cy="1038" fill="#911eb4" r="3.5" stroke-width="0" /><circle cx="998" cy="1049" fill="#911eb4" r="3.5" stroke-width="0" /><circle cx="890" cy="1037" fill="#911eb4" r="3.5" stroke-width="0" /></g><g class="e8"><circle cx="92" cy="156" fill="#3cb44B" r="3.5" stroke-width="0" /><circle cx="93" cy="168" fill="#3cb44B" r="3.5" stroke-width="0" /><circle cx="97" cy="206" fill="#3cb44B" r="3.5" stroke-width="0" /><circle cx="91" cy="142" fill="#3cb44B" r="3.5" stroke-width="0" /><circle cx="95" cy="191" fill="#3cb44B" r="3.5" stroke-width="0" /><circle cx="103" cy="246" fill="#3cb44B" r="3.5" stroke-width="0" /><circle cx="98" cy="210" fill="#3cb44B" r="3.5" stroke-width="0" /><circle cx="96" cy="198" fill="#3cb44B" r="3.5" stroke-width="0" /><circle cx="94" cy="179" fill="#3cb44B" r="3.5" stroke-width="0" /><circle cx="90" cy="117" fill="#3cb44B" r="3.5" stroke-width="0" /></g></g></g></svg>