<?xml version="1.0" encoding="utf-8" ?>
<svg baseProfile="full" height="1140px" style="font-size:15;font-family:Arial, san-serif;font-weight:bold;stroke:black;stroke-width:0;fill:#444444" version="1.1" width="1140px" xmlns="http://www.w3.org/2000/svg" xmlns:ev="http://www.w3.org/2001/xml-events" xmlns:xlink="http://www.w3.org/1999/xlink"><defs><clipPath id="areadografico"><rect height="1000" width="1000" x="70" y="70" /></clipPath></defs><g class="master"><g class="poligonos"><polygon clip-path="url(#areadografico)" fill="#000000" fill-opacity="0.1" points="70,1070 70,870 269,871 270,670 469,671 470,470 669,471 670,270 869,271 870,70 1069,71 1069,71 1069,271 869,271 869,471 669,471 669,671 469,671 469,871 269,871 270,1070" /><polygon clip-path="url(#areadografico)" fill="#ffffff" fill-opacity="0.1" points="270,1070 270,870 469,871 470,670 669,671 670,470 869,471 870,270 1069,271 1069,271 1069,471 869,471 869,671 669,671 669,871 469,871 470,1070" /><polygon clip-path="url(#areadografico)" fill="#000000" fill-opacity="0.1" points="70,870 270,870 269,671 470,670 469,471 670,470 669,271 870,270 869,71 869,71 669,71 669,271 469,271 469,471 269,471 269,671 70,670" /><polygon clip-path="url(#areadografico)" fill="#ff0000" fill-opacity="0.1" points="470,1070 470,870 669,871 670,670 869,671 870,470 1069,471 1069,471 1069,671 869,671 869,871 669,871 670,1070" /><polygon clip-path="url(#areadografico)" fill="#000000" fill-opacity="0.1" points="70,670 270,670 269,471 470,470 469,271 670,270 669,71 669,71 469,71 469,271 269,271 269,471 70,470" /><polygon clip-path="url(#areadografico)" fill="#ffffff" fill-opacity="0.1" points="670,1070 670,870 869,871 870,670 1069,671 1069,671 1069,871 869,871 870,1070" /><polygon clip-path="url(#areadografico)" fill="#000000" fill-opacity="0.1" points="70,470 270,470 269,271 470,270 469,71 469,71 269,71 269,271 70,270" /><polygon clip-path="url(#areadografico)" fill="#ff0000" fill-opacity="0.1" points="870,1070 870,870 1069,871 1069,1070" /><polygon clip-path="url(#areadografico)" fill="#000000" fill-opacity="0.1" points="70,270 270,270 269,71 70,71" /></g><g class="linhas"><line fill-opacity="0.3" stroke="#999999" stroke-width="1" x1="1070" x2="1070" y1="1070" y2="70" /><line fill-opacity="0.3" stroke="#999999" stroke-width="1" x1="70" x2="1070" y1="70" y2="70" /><line fill-opacity="0.3" stroke="#999999" stroke-width="1" x1="970" x2="970" y1="1070" y2="70" /><line fill-opacity="0.3" stroke="#999999" stroke-width="1" x1="70" x2="1070" y1="170" y2="170" /><line fill-opacity="0.3" stroke="#999999" stroke-width="1" x1="870" x2="870" y1="1070" y2="70" /><line fill-opacity="0.3" stroke="#999999" stroke-width="1" x1="70" x2="1070" y1="270" y2="270" /><line fill-opacity="0.3" stroke="#999999" stroke-width="1" x1="770" x2="770" y1="1070" y2="70" /><line fill-opacity="0.3" stroke="#999999" stroke-width="1" x1="70" x2="1070" y1="370" y2="370" /><line fill-opacity="0.3" stroke="#999999" stroke-width="1" x1="670" x2="670" y1="1070" y2="70" /><line fill-opacity="0.3" stroke="#999999" stroke-width="1" x1="70" x2="1070" y1="470" y2="470" /><line fill-opacity="0.3" stroke="#999999" stroke-width="1" x1="570" x2="570" y1="1070" y2="70" /><line fill-opacity="0.3" stroke="#999999" stroke-width="1" x1="70" x2="1070" y1="570" y2="570" /><line fill-opacity="0.3" stroke="#999999" stroke-width="1" x1="470" x2="470" y1="1070" y2="70" /><line fill-opacity="0.3" stroke="#999999" stroke-width="1" x1="70" x2="1070" y1="670" y2="670" /><line fill-opacity="0.3" stroke="#999999" stroke-width="1" x1="370" x2="370" y1="1070" y2="70" /><line fill-opacity="0.3" stroke="#999999" stroke-width="1" x1="70" x2="1070" y1="770" y2="770" /><line fill-opacity="0.3" stroke="#999999" stroke-width="1" x1="270" x2="270" y1="1070" y2="70" /><line fill-opacity="0.3" stroke="#999999" stroke-width="1" x1="70" x2="1070" y1="870" y2="870" /><line fill-opacity="0.3" stroke="#999999" stroke-width="1" x1="170" x2="170" y1="1070" y2="70" /><line fill-opacity="0.3" stroke="#999999" stroke-width="1" x1="70" x2="1070" y1="970" y2="970" /><line fill-opacity="0.3" stroke="#000000" stroke-width="1" x1="70" x2="70" y1="1071" y2="69" /><line fill-opacity="0.3" stroke="#000000" stroke-width="1" x1="69" x2="1071" y1="1070" y2="1070" /></g><g class="textos"><text x="1050" y="1110">1000</text><text x="10" y="71">1000</text><text x="950" y="1110">900</text><text x="10" y="171">900</text><text x="850" y="1110">800</text><text x="10" y="271">800</text><text x="750" y="1110">700</text><text x="10" y="371">700</text><text x="650" y="1110">600</text><text x="10" y="471">600</text><text x="550" y="1110">500</text><text x="10" y="571">500</text><text x="450" y="1110">400</text><text x="10" y="671">400</text><text x="350" y="1110">300</text><text x="10" y="771">300</text><text x="250" y="1110">200</text><text x="10" y="871">200</text><text x="150" y="1110">100</text><text x="10" y="971">100</text><text x="50" y="1111">0</text><text x="9" y="1071">0</text></g><g class="especies"><g class="e0"><circle cx="389" cy="786" fill="#3cb44B" r="3.5" stroke-width="0" /><circle cx="414" cy="809" fill="#3cb44B" r="3.5" stroke-width="0" /><circle cx="448" cy="838" fill="#3cb44B" r="3.5" stroke-width="0" /><circle cx="349" cy="746" fill="#3cb44B" r="3.5" stroke-width="0" /><circle cx="351" cy="748" fill="#3cb44B" r="3.5" stroke-width="0" /><circle cx="371" cy="769" fill="#3cb44B" r="3.5" stroke-width="0" /><circle cx="348" cy="745" fill="#3cb44B" r="3.5" stroke-width="0" /><circle cx="467" cy="853" fill="#3cb44B" r="3.5" stroke-width="0" /><circle cx="455" cy="843" fill="#3cb44B" r="3.5" stroke-width="0" /><circle cx="419" cy="813" fill="#3cb44B" r="3.5" stroke-width="0" /><circle cx="347" cy="744" fill="#3cb44B" r="3.5" stroke-width="0" /></g><g class="e1" /><g class="e2"><circle cx="275" cy="657" fill="#2b92db" r="3.5" stroke-width="0" /><circle cx="281" cy="665" fill="#2b92db" r="3.5" stroke-width="0" /></g><g class="e3"><circle cx="582" cy="928" fill="#911eb4" r="3.5" stroke-width="0" /><circle cx="559" cy="915" fill="#911eb4" r="3.5" stroke-width="0" /><circle cx="526" cy="894" fill="#911eb4" r="3.5" stroke-width="0" /><circle cx="519" cy="890" fill="#911eb4" r="3.5" stroke-width="0" /><circle cx="556" cy="913" fill="#911eb4" r="3.5" stroke-width="0" /><circle cx="510" cy="884" fill="#911eb4" r="3.5" stroke-width="0" /></g><g class="e4"><circle cx="205" cy="545" fill="#3cb44B" r="3.5" stroke-width="0" /><circle cx="244" cy="611" fill="#3cb44B" r="3.5" stroke-width="0" /><circle cx="177" cy="489" fill="#3cb44B" r="3.5" stroke-width="0" /><circle cx="193" cy="523" fill="#3cb44B" r="3.5" stroke-width="0" /><circle cx="234" cy="596" fill="#3cb44B" r="3.5" stroke-width="0" /></g><g class="e5"><circle cx="718" cy="991" fill="#ff0000" r="3.5" stroke-width="0" /><circle cx="765" cy="1007" fill="#ff0000" r="3.5" stroke-width="0" /><circle cx="745" cy="1000" fill="#ff0000" r="3.5" stroke-width="0" /><circle cx="734" cy="997" fill="#ff0000" r="3.5" stroke-width="0" /></g><g class="e6"><circle cx="140" cy="396" fill="#2b92db" r="3.5" stroke-width="0" /><circle cx="143" cy="405" fill="#2b92db" r="3.5" stroke-width="0" /><circle cx="168" cy="468" fill="#2b92db" r="3.5" stroke-width="0" /><circle cx="126" cy="350" fill="#2b92db" r="3.5" stroke-width="0" /><circle cx="150" cy="423" fill="#2b92db" r="3.5" stroke-width="0" /><circle cx="147" cy="415" fill="#2b92db" r="3.5" stroke-width="0" /><circle cx="117" cy="315" fill="#2b92db" r="3.5" stroke-width="0" /><circle cx="135" cy="381" fill="#2b92db" r="3.5" stroke-width="0" /><circle cx="124" cy="344" fill="#2b92db" r="3.5" stroke-width="0" /></g><g class="e7"><circle cx="892" cy="1037" fill="#911eb4" r="3.5" stroke-width="0" /><circle cx="900" cy="1038" fill="#911eb4" r="3.5" stroke-width="0" /><circle cx="942" cy="1044" fill="#911eb4" r="3.5" stroke-width="0" /><circle cx="994" cy="1048" fill="#911eb4" r="3.5" stroke-width="0" /><circle cx="1004" cy="1049" fill="#911eb4" r="3.5" stroke-width="0" /></g><g class="e8"><circle cx="99" cy="223" fill="#3cb44B" r="3.5" stroke-width="0" /><circle cx="90" cy="96" fill="#3cb44B" r="3.5" stroke-width="0" /><circle cx="98" cy="215" fill="#3cb44B" r="3.5" stroke-width="0" /></g></g></g></svg>