<?xml version="1.0" encoding="utf-8" ?>
<svg baseProfile="full" height="1140px" style="font-size:15;font-family:Arial, san-serif;font-weight:bold;stroke:black;stroke-width:0;fill:#444444" version="1.1" width="1140px" xmlns="http://www.w3.org/2000/svg" xmlns:ev="http://www.w3.org/2001/xml-events" xmlns:xlink="http://www.w3.org/1999/xlink"><defs><clipPath id="areadografico"><rect height="1000" width="1000" x="70" y="70" /></clipPath></defs><g class="master"><g class="poligonos"><polygon clip-path="url(#areadografico)" fill="#000000" fill-opacity="0.1" points="70,1070 70,820 319,821 320,570 569,571 570,320 819,321 820,70 1069,71 1069,71 1069,321 819,321 819,571 569,571 569,821 319,821 320,1070" /><polygon clip-path="url(#areadografico)" fill="#ffffff" fill-opacity="0.1" points="320,1070 320,820 569,821 570,570 819,571 820,320 1069,321 1069,321 1069,571 819,571 819,821 569,821 570,1070" /><polygon clip-path="url(#areadografico)" fill="#ff0000" fill-opacity="0.1" points="70,820 320,820 319,571 570,570 569,321 820,320 819,71 819,71 569,71 569,321 319,321 319,571 70,570" /><polygon clip-path="url(#areadografico)" fill="#000000" fill-opacity="0.1" points="570,1070 570,820 819,821 820,570 1069,571 1069,571 1069,821 819,821 820,1070" /><polygon clip-path="url(#areadografico)" fill="#ffffff" fill-opacity="0.1" points="70,570 320,570 319,321 570,320 569,71 569,71 319,71 319,321 70,320" /><polygon clip-path="url(#areadografico)" fill="#ff0000" fill-opacity="0.1" points="820,1070 820,820 1069,821 1069,1070" /><polygon clip-path="url(#areadografico)" fill="#000000" fill-opacity="0.1" points="70,320 320,320 319,71 70,71" /></g><g class="linhas"><line fill-opacity="0.3" stroke="#999999" stroke-width="1" x1="1070" x2="1070" y1="1070" y2="70" /><line fill-opacity="0.3" stroke="#999999" stroke-width="1" x1="70" x2="1070" y1="70" y2="70" /><line fill-opacity="0.3" stroke="#999999" stroke-width="1" x1="970" x2="970" y1="1070" y2="70" /><line fill-opacity="0.3" stroke="#999999" stroke-width="1" x1="70" x2="1070" y1="170" y2="170" /><line fill-opacity="0.3" stroke="#999999" stroke-width="1" x1="870" x2="870" y1="1070" y2="70" /><line fill-opacity="0.3" stroke="#999999" stroke-width="1" x1="70" x2="1070" y1="270" y2="270" /><line fill-opacity="0.3" stroke="#999999" stroke-width="1" x1="770" x2="770" y1="1070" y2="70" /><line fill-opacity="0.3" stroke="#999999" stroke-width="1" x1="70" x2="1070" y1="370" y2="370" /><line fill-opacity="0.3" stroke="#999999" stroke-width="1" x1="670" x2="670" y1="1070" y2="70" /><line fill-opacity="0.3" stroke="#999999" stroke-width="1" x1="70" x2="1070" y1="470" y2="470" /><line fill-opacity="0.3" stroke="#999999" stroke-width="1" x1="570" x2="570" y1="1070" y2="70" /><line fill-opacity="0.3" stroke="#999999" stroke-width="1" x1="70" x2="1070" y1="570" y2="570" /><line fill-opacity="0.3" stroke="#999999" stroke-width="1" x1="470" x2="470" y1="1070" y2="70" /><line fill-opacity="0.3" stroke="#999999" stroke-width="1" x1="70" x2="1070" y1="670" y2="670" /><line fill-opacity="0.3" stroke="#999999" stroke-width="1" x1="370" x2="370" y1="1070" y2="70" /><line fill-opacity="0.3" stroke="#999999" stroke-width="1" x1="70" x2="1070" y1="770" y2="770" /><line fill-opacity="0.3" stroke="#999999" stroke-width="1" x1="270" x2="270" y1="1070" y2="70" /><line fill-opacity="0.3" stroke="#999999" stroke-width="1" x1="70" x2="1070" y1="870" y2="870" /><line fill-opacity="0.3" stroke="#999999" stroke-width="1" x1="170" x2="170" y1="1070" y2="70" /><line fill-opacity="0.3" stroke="#999999" stroke-width="1" x1="70" x2="1070" y1="970" y2="970" /><line fill-opacity="0.3" stroke="#000000" stroke-width="1" x1="70" x2="70" y1="1071" y2="69" /><line fill-opacity="0.3" stroke="#000000" stroke-width="1" x1="69" x2="1071" y1="1070" y2="1070" /></g><g class="textos"><text x="1050" y="1110">1000</text><text x="10" y="71">1000</text><text x="950" y="1110">900</text><text x="10" y="171">900</text><text x="850" y="1110">800</text><text x="10" y="271">800</text><text x="750" y="1110">700</text><text x="10" y="371">700</text><text x="650" y="1110">600</text><text x="10" y="471">600</text><text x="550" y="1110">500</text><text x="10" y="571">500</text><text x="450" y="1110">400</text><text x="10" y="671">400</text><text x="350" y="1110">300</text><text x="10" y="771">300</text><text x="250" y="1110">200</text><text x="10" y="871">200</text><text x="150" y="1110">100</text><text x="10" y="971">100</text><text x="50" y="1111">0</text><text x="9" y="1071">0</text></g><g class="especies"><g class="e0"><circle cx="327" cy="722" fill="#3cb44B" r="3.5" stroke-width="0" /><circle cx="428" cy="821" fill="#3cb44B" r="3.5" stroke-width="0" /><circle cx="392" cy="789" fill="#3cb44B" r="3.5" stroke-width="0" /><circle cx="340" cy="736" fill="#3cb44B" r="3.5" stroke-width="0" /><circle cx="350" cy="747" fill="#3cb44B" r="3.5" stroke-width="0" /><circle cx="385" cy="782" fill="#3cb44B" r="3.5" stroke-width="0" /><circle cx="405" cy="801" fill="#3cb44B" r="3.5" stroke-width="0" /><circle cx="344" cy="741" fill="#3cb44B" r="3.5" stroke-width="0" /><circle cx="371" cy="769" fill="#3cb44B" r="3.5" stroke-width="0" /><circle cx="339" cy="735" fill="#3cb44B" r="3.5" stroke-width="0" /><circle cx="417" cy="812" fill="#3cb44B" r="3.5" stroke-width="0" /><circle cx="336" cy="732" fill="#3cb44B" r="3.5" stroke-width="0" /><circle cx="378" cy="776" fill="#3cb44B" r="3.5" stroke-width="0" /><circle cx="421" cy="815" fill="#3cb44B" r="3.5" stroke-width="0" /><circle cx="426" cy="820" fill="#3cb44B" r="3.5" stroke-width="0" /><circle cx="397" cy="794" fill="#3cb44B" r="3.5" stroke-width="0" /><circle cx="389" cy="786" fill="#3cb44B" r="3.5" stroke-width="0" /><circle cx="416" cy="811" fill="#3cb44B" r="3.5" stroke-width="0" /><circle cx="393" cy="790" fill="#3cb44B" r="3.5" stroke-width="0" /><circle cx="388" cy="785" fill="#3cb44B" r="3.5" stroke-width="0" /><circle cx="381" cy="779" fill="#3cb44B" r="3.5" stroke-width="0" /><circle cx="408" cy="804" fill="#3cb44B" r="3.5" stroke-width="0" /><circle cx="411" cy="806" fill="#3cb44B" r="3.5" stroke-width="0" /><circle cx="375" cy="773" fill="#3cb44B" r="3.5" stroke-width="0" /><circle cx="376" cy="774" fill="#3cb44B" r="3.5" stroke-width="0" /><circle cx="409" cy="805" fill="#3cb44B" r="3.5" stroke-width="0" /><circle cx="358" cy="755" fill="#3cb44B" r="3.5" stroke-width="0" /><circle cx="341" cy="737" fill="#3cb44B" r="3.5" stroke-width="0" /></g><g class="e1"><circle cx="560" cy="916" fill="#ff0000" r="3.5" stroke-width="0" /><circle cx="464" cy="850" fill="#ff0000" r="3.5" stroke-width="0" /><circle cx="567" cy="920" fill="#ff0000" r="3.5" stroke-width="0" /><circle cx="532" cy="898" fill="#ff0000" r="3.5" stroke-width="0" /><circle cx="543" cy="905" fill="#ff0000" r="3.5" stroke-width="0" /><circle cx="435" cy="827" fill="#ff0000" r="3.5" stroke-width="0" /><circle cx="537" cy="901" fill="#ff0000" r="3.5" stroke-width="0" /><circle cx="530" cy="897" fill="#ff0000" r="3.5" stroke-width="0" /><circle cx="546" cy="907" fill="#ff0000" r="3.5" stroke-width="0" /><circle cx="501" cy="878" fill="#ff0000" r="3.5" stroke-width="0" /><circle cx="552" cy="911" fill="#ff0000" r="3.5" stroke-width="0" /><circle cx="488" cy="868" fill="#ff0000" r="3.5" stroke-width="0" /><circle cx="492" cy="871" fill="#ff0000" r="3.5" stroke-width="0" /><circle cx="453" cy="842" fill="#ff0000" r="3.5" stroke-width="0" /><circle cx="558" cy="914" fill="#ff0000" r="3.5" stroke-width="0" /><circle cx="564" cy="918" fill="#ff0000" r="3.5" stroke-width="0" /><circle cx="469" cy="854" fill="#ff0000" r="3.5" stroke-width="0" /><circle cx="519" cy="890" fill="#ff0000" r="3.5" stroke-width="0" /><circle cx="439" cy="830" fill="#ff0000" r="3.5" stroke-width="0" /><circle cx="448" cy="838" fill="#ff0000" r="3.5" stroke-width="0" /><circle cx="461" cy="848" fill="#ff0000" r="3.5" stroke-width="0" /><circle cx="493" cy="872" fill="#ff0000" r="3.5" stroke-width="0" /><circle cx="465" cy="851" fill="#ff0000" r="3.5" stroke-width="0" /><circle cx="489" cy="869" fill="#ff0000" r="3.5" stroke-width="0" /><circle cx="445" cy="835" fill="#ff0000" r="3.5" stroke-width="0" /><circle cx="458" cy="846" fill="#ff0000" r="3.5" stroke-width="0" /><circle cx="559" cy="915" fill="#ff0000" r="3.5" stroke-width="0" /><circle cx="527" cy="895" fill="#ff0000" r="3.5" stroke-width="0" /><circle cx="430" cy="823" fill="#ff0000" r="3.5" stroke-width="0" /><circle cx="507" cy="882" fill="#ff0000" r="3.5" stroke-width="0" /><circle cx="475" cy="859" fill="#ff0000" r="3.5" stroke-width="0" /><circle cx="563" cy="917" fill="#ff0000" r="3.5" stroke-width="0" /><circle cx="467" cy="853" fill="#ff0000" r="3.5" stroke-width="0" /></g><g class="e2"><circle cx="257" cy="631" fill="#2b92db" r="3.5" stroke-width="0" /><circle cx="314" cy="706" fill="#2b92db" r="3.5" stroke-width="0" /><circle cx="251" cy="622" fill="#2b92db" r="3.5" stroke-width="0" /><circle cx="242" cy="608" fill="#2b92db" r="3.5" stroke-width="0" /><circle cx="276" cy="658" fill="#2b92db" r="3.5" stroke-width="0" /><circle cx="255" cy="628" fill="#2b92db" r="3.5" stroke-width="0" /><circle cx="224" cy="580" fill="#2b92db" r="3.5" stroke-width="0" /><circle cx="236" cy="599" fill="#2b92db" r="3.5" stroke-width="0" /><circle cx="282" cy="666" fill="#2b92db" r="3.5" stroke-width="0" /><circle cx="246" cy="615" fill="#2b92db" r="3.5" stroke-width="0" /><circle cx="304" cy="694" fill="#2b92db" r="3.5" stroke-width="0" /><circle cx="256" cy="629" fill="#2b92db" r="3.5" stroke-width="0" /><circle cx="235" cy="597" fill="#2b92db" r="3.5" stroke-width="0" /><circle cx="274" cy="655" fill="#2b92db" r="3.5" stroke-width="0" /><circle cx="315" cy="707" fill="#2b92db" r="3.5" stroke-width="0" /><circle cx="293" cy="681" fill="#2b92db" r="3.5" stroke-width="0" /><circle cx="272" cy="652" fill="#2b92db" r="3.5" stroke-width="0" /><circle cx="248" cy="618" fill="#2b92db" r="3.5" stroke-width="0" /></g><g class="e3"><circle cx="819" cy="1022" fill="#911eb4" r="3.5" stroke-width="0" /><circle cx="595" cy="935" fill="#911eb4" r="3.5" stroke-width="0" /><circle cx="591" cy="933" fill="#911eb4" r="3.5" stroke-width="0" /><circle cx="712" cy="989" fill="#911eb4" r="3.5" stroke-width="0" /><circle cx="670" cy="972" fill="#911eb4" r="3.5" stroke-width="0" /><circle cx="677" cy="975" fill="#911eb4" r="3.5" stroke-width="0" /><circle cx="645" cy="960" fill="#911eb4" r="3.5" stroke-width="0" /><circle cx="696" cy="982" fill="#911eb4" r="3.5" stroke-width="0" /><circle cx="767" cy="1007" fill="#911eb4" r="3.5" stroke-width="0" /><circle cx="730" cy="995" fill="#911eb4" r="3.5" stroke-width="0" /><circle cx="725" cy="993" fill="#911eb4" r="3.5" stroke-width="0" /><circle cx="702" cy="985" fill="#911eb4" r="3.5" stroke-width="0" /><circle cx="701" cy="984" fill="#911eb4" r="3.5" stroke-width="0" /><circle cx="739" cy="998" fill="#911eb4" r="3.5" stroke-width="0" /><circle cx="817" cy="1021" fill="#911eb4" r="3.5" stroke-width="0" /><circle cx="618" cy="947" fill="#911eb4" r="3.5" stroke-width="0" /><circle cx="690" cy="980" fill="#911eb4" r="3.5" stroke-width="0" /><circle cx="575" cy="924" fill="#911eb4" r="3.5" stroke-width="0" /><circle cx="778" cy="1011" fill="#911eb4" r="3.5" stroke-width="0" /><circle cx="792" cy="1015" fill="#911eb4" r="3.5" stroke-width="0" /><circle cx="630" cy="953" fill="#911eb4" r="3.5" stroke-width="0" /><circle cx="652" cy="964" fill="#911eb4" r="3.5" stroke-width="0" /><circle cx="809" cy="1019" fill="#911eb4" r="3.5" stroke-width="0" /><circle cx="740" cy="999" fill="#911eb4" r="3.5" stroke-width="0" /><circle cx="709" cy="987" fill="#911eb4" r="3.5" stroke-width="0" /><circle cx="732" cy="996" fill="#911eb4" r="3.5" stroke-width="0" /><circle cx="587" cy="931" fill="#911eb4" r="3.5" stroke-width="0" /><circle cx="720" cy="991" fill="#911eb4" r="3.5" stroke-width="0" /><circle cx="610" cy="943" fill="#911eb4" r="3.5" stroke-width="0" /><circle cx="797" cy="1016" fill="#911eb4" r="3.5" stroke-width="0" /><circle cx="632" cy="954" fill="#911eb4" r="3.5" stroke-width="0" /><circle cx="746" cy="1001" fill="#911eb4" r="3.5" stroke-width="0" /><circle cx="602" cy="939" fill="#911eb4" r="3.5" stroke-width="0" /><circle cx="603" cy="940" fill="#911eb4" r="3.5" stroke-width="0" /><circle cx="659" cy="967" fill="#911eb4" r="3.5" stroke-width="0" /><circle cx="683" cy="977" fill="#911eb4" r="3.5" stroke-width="0" /><circle cx="638" cy="957" fill="#911eb4" r="3.5" stroke-width="0" /><circle cx="667" cy="970" fill="#911eb4" r="3.5" stroke-width="0" /><circle cx="651" cy="963" fill="#911eb4" r="3.5" stroke-width="0" /><circle cx="783" cy="1012" fill="#911eb4" r="3.5" stroke-width="0" /><circle cx="622" cy="949" fill="#911eb4" r="3.5" stroke-width="0" /><circle cx="633" cy="955" fill="#911eb4" r="3.5" stroke-width="0" /><circle cx="576" cy="925" fill="#911eb4" r="3.5" stroke-width="0" /></g><g class="e4"><circle cx="159" cy="447" fill="#3cb44B" r="3.5" stroke-width="0" /><circle cx="191" cy="518" fill="#3cb44B" r="3.5" stroke-width="0" /><circle cx="150" cy="425" fill="#3cb44B" r="3.5" stroke-width="0" /><circle cx="216" cy="566" fill="#3cb44B" r="3.5" stroke-width="0" /><circle cx="119" cy="323" fill="#3cb44B" r="3.5" stroke-width="0" /><circle cx="141" cy="400" fill="#3cb44B" r="3.5" stroke-width="0" /><circle cx="199" cy="534" fill="#3cb44B" r="3.5" stroke-width="0" /><circle cx="157" cy="442" fill="#3cb44B" r="3.5" stroke-width="0" /><circle cx="211" cy="556" fill="#3cb44B" r="3.5" stroke-width="0" /><circle cx="207" cy="550" fill="#3cb44B" r="3.5" stroke-width="0" /><circle cx="147" cy="417" fill="#3cb44B" r="3.5" stroke-width="0" /><circle cx="143" cy="405" fill="#3cb44B" r="3.5" stroke-width="0" /><circle cx="149" cy="420" fill="#3cb44B" r="3.5" stroke-width="0" /><circle cx="122" cy="337" fill="#3cb44B" r="3.5" stroke-width="0" /><circle cx="126" cy="351" fill="#3cb44B" r="3.5" stroke-width="0" /><circle cx="135" cy="382" fill="#3cb44B" r="3.5" stroke-width="0" /><circle cx="155" cy="437" fill="#3cb44B" r="3.5" stroke-width="0" /><circle cx="173" cy="481" fill="#3cb44B" r="3.5" stroke-width="0" /><circle cx="125" cy="347" fill="#3cb44B" r="3.5" stroke-width="0" /><circle cx="153" cy="433" fill="#3cb44B" r="3.5" stroke-width="0" /><circle cx="193" cy="522" fill="#3cb44B" r="3.5" stroke-width="0" /><circle cx="192" cy="521" fill="#3cb44B" r="3.5" stroke-width="0" /><circle cx="209" cy="553" fill="#3cb44B" r="3.5" stroke-width="0" /><circle cx="202" cy="540" fill="#3cb44B" r="3.5" stroke-width="0" /><circle cx="127" cy="354" fill="#3cb44B" r="3.5" stroke-width="0" /><circle cx="131" cy="368" fill="#3cb44B" r="3.5" stroke-width="0" /><circle cx="178" cy="491" fill="#3cb44B" r="3.5" stroke-width="0" /><circle cx="196" cy="529" fill="#3cb44B" r="3.5" stroke-width="0" /><circle cx="176" cy="488" fill="#3cb44B" r="3.5" stroke-width="0" /><circle cx="151" cy="428" fill="#3cb44B" r="3.5" stroke-width="0" /><circle cx="129" cy="362" fill="#3cb44B" r="3.5" stroke-width="0" /><circle cx="145" cy="409" fill="#3cb44B" r="3.5" stroke-width="0" /><circle cx="137" cy="386" fill="#3cb44B" r="3.5" stroke-width="0" /><circle cx="165" cy="462" fill="#3cb44B" r="3.5" stroke-width="0" /><circle cx="194" cy="525" fill="#3cb44B" r="3.5" stroke-width="0" /></g><g class="e5"><circle cx="824" cy="1023" fill="#ff0000" r="3.5" stroke-width="0" /><circle cx="987" cy="1048" fill="#ff0000" r="3.5" stroke-width="0" /><circle cx="1031" cy="1050" fill="#ff0000" r="3.5" stroke-width="0" /><circle cx="1017" cy="1049" fill="#ff0000" r="3.5" stroke-width="0" /><circle cx="844" cy="1028" fill="#ff0000" r="3.5" stroke-width="0" /><circle cx="862" cy="1031" fill="#ff0000" r="3.5" stroke-width="0" /><circle cx="926" cy="1042" fill="#ff0000" r="3.5" stroke-width="0" /><circle cx="917" cy="1041" fill="#ff0000" r="3.5" stroke-width="0" /><circle cx="865" cy="1032" fill="#ff0000" r="3.5" stroke-width="0" /><circle cx="975" cy="1047" fill="#ff0000" r="3.5" stroke-width="0" /><circle cx="962" cy="1046" fill="#ff0000" r="3.5" stroke-width="0" /><circle cx="881" cy="1035" fill="#ff0000" r="3.5" stroke-width="0" /><circle cx="941" cy="1044" fill="#ff0000" r="3.5" stroke-width="0" /><circle cx="912" cy="1040" fill="#ff0000" r="3.5" stroke-width="0" /><circle cx="848" cy="1029" fill="#ff0000" r="3.5" stroke-width="0" /><circle cx="936" cy="1043" fill="#ff0000" r="3.5" stroke-width="0" /></g><g class="e6"><circle cx="109" cy="278" fill="#2b92db" r="3.5" stroke-width="0" /><circle cx="92" cy="152" fill="#2b92db" r="3.5" stroke-width="0" /><circle cx="90" cy="103" fill="#2b92db" r="3.5" stroke-width="0" /><circle cx="91" cy="140" fill="#2b92db" r="3.5" stroke-width="0" /><circle cx="103" cy="248" fill="#2b92db" r="3.5" stroke-width="0" /><circle cx="95" cy="189" fill="#2b92db" r="3.5" stroke-width="0" /><circle cx="118" cy="319" fill="#2b92db" r="3.5" stroke-width="0" /><circle cx="99" cy="218" fill="#2b92db" r="3.5" stroke-width="0" /><circle cx="116" cy="310" fill="#2b92db" r="3.5" stroke-width="0" /><circle cx="101" cy="238" fill="#2b92db" r="3.5" stroke-width="0" /><circle cx="110" cy="284" fill="#2b92db" r="3.5" stroke-width="0" /><circle cx="100" cy="227" fill="#2b92db" r="3.5" stroke-width="0" /><circle cx="108" cy="276" fill="#2b92db" r="3.5" stroke-width="0" /><circle cx="111" cy="291" fill="#2b92db" r="3.5" stroke-width="0" /><circle cx="97" cy="208" fill="#2b92db" r="3.5" stroke-width="0" /><circle cx="107" cy="272" fill="#2b92db" r="3.5" stroke-width="0" /><circle cx="93" cy="163" fill="#2b92db" r="3.5" stroke-width="0" /><circle cx="114" cy="303" fill="#2b92db" r="3.5" stroke-width="0" /><circle cx="94" cy="178" fill="#2b92db" r="3.5" stroke-width="0" /><circle cx="113" cy="301" fill="#2b92db" r="3.5" stroke-width="0" /><circle cx="96" cy="200" fill="#2b92db" r="3.5" stroke-width="0" /><circle cx="106" cy="266" fill="#2b92db" r="3.5" stroke-width="0" /></g></g></g></svg>