<?xml version="1.0" encoding="utf-8" ?>
<svg baseProfile="full" height="1140px" style="font-size:15;font-family:Arial, san-serif;font-weight:bold;stroke:black;stroke-width:0;fill:#444444" version="1.1" width="1140px" xmlns="http://www.w3.org/2000/svg" xmlns:ev="http://www.w3.org/2001/xml-events" xmlns:xlink="http://www.w3.org/1999/xlink"><defs><clipPath id="areadografico"><rect height="1000" width="1000" x="70" y="70" /></clipPath></defs><g class="master"><g class="poligonos"><polygon clip-path="url(#areadografico)" fill="#000000" fill-opacity="0.1" points="70,1070 70,870 269,871 270,670 469,671 470,470 669,471 670,270 869,271 870,70 1069,71 1069,71 1069,271 869,271 869,471 669,471 669,671 469,671 469,871 269,871 270,1070" /><polygon clip-path="url(#areadografico)" fill="#ffffff" fill-opacity="0.1" points="270,1070 270,870 469,871 470,670 669,671 670,470 869,471 870,270 1069,271 1069,271 1069,471 869,471 869,671 669,671 669,871 469,871 470,1070" /><polygon clip-path="url(#areadografico)" fill="#000000" fill-opacity="0.1" points="70,870 270,870 269,671 470,670 469,471 670,470 669,271 870,270 869,71 869,71 669,71 669,271 469,271 469,471 269,471 269,671 70,670" /><polygon clip-path="url(#areadografico)" fill="#ff0000" fill-opacity="0.1" points="470,1070 470,870 669,871 670,670 869,671 870,470 1069,471 1069,471 1069,671 869,671 869,871 669,871 670,1070" /><polygon clip-path="url(#areadografico)" fill="#000000" fill-opacity="0.1" points="70,670 270,670 269,471 470,470 469,271 670,270 669,71 669,71 469,71 469,271 269,271 269,471 70,470" /><polygon clip-path="url(#areadografico)" fill="#ffffff" fill-opacity="0.1" points="670,1070 670,870 869,871 870,670 1069,671 1069,671 1069,871 869,871 870,1070" /><polygon clip-path="url(#areadografico)" fill="#000000" fill-opacity="0.1" points="70,470 270,470 269,271 470,270 469,71 469,71 269,71 269,271 70,270" /><polygon clip-path="url(#areadografico)" fill="#ff0000" fill-opacity="0.1" points="870,1070 870,870 1069,871 1069,1070" /><polygon clip-path="url(#areadografico)" fill="#000000" fill-opacity="0.1" points="70,270 270,270 269,71 70,71" /></g><g class="linhas"><line fill-opacity="0.3" stroke="#999999" stroke-width="1" x1="1070" x2="1070" y1="1070" y2="70" /><line fill-opacity="0.3" stroke="#999999" stroke-width="1" x1="70" x2="1070" y1="70" y2="70" /><line fill-opacity="0.3" stroke="#999999" stroke-width="1" x1="970" x2="970" y1="1070" y2="70" /><line fill-opacity="0.3" stroke="#999999" stroke-width="1" x1="70" x2="1070" y1="170" y2="170" /><line fill-opacity="0.3" stroke="#999999" stroke-width="1" x1="870" x2="870" y1="1070" y2="70" /><line fill-opacity="0.3" stroke="#999999" stroke-width="1" x1="70" x2="1070" y1="270" y2="270" /><line fill-opacity="0.3" stroke="#999999" stroke-width="1" x1="770" x2="770" y1="1070" y2="70" /><line fill-opacity="0.3" stroke="#999999" stroke-width="1" x1="70" x2="1070" y1="370" y2="370" /><line fill-opacity="0.3" stroke="#999999" stroke-width="1" x1="670" x2="670" y1="1070" y2="70" /><line fill-opacity="0.3" stroke="#999999" stroke-width="1" x1="70" x2="1070" y1="470" y2="470" /><line fill-opacity="0.3" stroke="#999999" stroke-width="1" x1="570" x2="570" y1="1070" y2="70" /><line fill-opacity="0.3" stroke="#999999" stroke-width="1" x1="70" x2="1070" y1="570" y2="570" /><line fill-opacity="0.3" stroke="#999999" stroke-width="1" x1="470" x2="470" y1="1070" y2="70" /><line fill-opacity="0.3" stroke="#999999" stroke-width="1" x1="70" x2="1070" y1="670" y2="670" /><line fill-opacity="0.3" stroke="#999999" stroke-width="1" x1="370" x2="370" y1="1070" y2="70" /><line fill-opacity="0.3" stroke="#999999" stroke-width="1" x1="70" x2="1070" y1="770" y2="770" /><line fill-opacity="0.3" stroke="#999999" stroke-width="1" x1="270" x2="270" y1="1070" y2="70" /><line fill-opacity="0.3" stroke="#999999" stroke-width="1" x1="70" x2="1070" y1="870" y2="870" /><line fill-opacity="0.3" stroke="#999999" stroke-width="1" x1="170" x2="170" y1="1070" y2="70" /><line fill-opacity="0.3" stroke="#999999" stroke-width="1" x1="70" x2="1070" y1="970" y2="970" /><line fill-opacity="0.3" stroke="#000000" stroke-width="1" x1="70" x2="70" y1="1071" y2="69" /><line fill-opacity="0.3" stroke="#000000" stroke-width="1" x1="69" x2="1071" y1="1070" y2="1070" /></g><g class="textos"><text x="1050" y="1110">1000</text><text x="10" y="71">1000</text><text x="950" y="1110">900</text><text x="10" y="171">900</text><text x="850" y="1110">800</text><text x="10" y="271">800</text><text x="750" y="1110">700</text><text x="10" y="371">700</text><text x="650" y="1110">600</text><text x="10" y="471">600</text><text x="550" y="1110">500</text><text x="10" y="571">500</text><text x="450" y="1110">400</text><text x="10" y="671">400</text><text x="350" y="1110">300</text><text x="10" y="771">300</text><text x="250" y="1110">200</text><text x="10" y="871">200</text><text x="150" y="1110">100</text><text x="10" y="971">100</text><text x="50" y="1111">0</text><text x="9" y="1071">0</text></g><g class="especies"><g class="e0"><circle cx="302" cy="692" fill="#3cb44B" r="3.5" stroke-width="0" /><circle cx="293" cy="681" fill="#3cb44B" r="3.5" stroke-width="0" /><circle cx="319" cy="712" fill="#3cb44B" r="3.5" stroke-width="0" /><circle cx="423" cy="817" fill="#3cb44B" r="3.5" stroke-width="0" /><circle cx="356" cy="753" fill="#3cb44B" r="3.5" stroke-width="0" /><circle cx="292" cy="679" fill="#3cb44B" r="3.5" stroke-width="0" /><circle cx="360" cy="757" fill="#3cb44B" r="3.5" stroke-width="0" /><circle cx="323" cy="717" fill="#3cb44B" r="3.5" stroke-width="0" /><circle cx="433" cy="825" fill="#3cb44B" r="3.5" stroke-width="0" /><circle cx="315" cy="707" fill="#3cb44B" r="3.5" stroke-width="0" /><circle cx="327" cy="721" fill="#3cb44B" r="3.5" stroke-width="0" /><circle cx="454" cy="843" fill="#3cb44B" r="3.5" stroke-width="0" /><circle cx="459" cy="847" fill="#3cb44B" r="3.5" stroke-width="0" /><circle cx="377" cy="775" fill="#3cb44B" r="3.5" stroke-width="0" /><circle cx="331" cy="726" fill="#3cb44B" r="3.5" stroke-width="0" /><circle cx="467" cy="853" fill="#3cb44B" r="3.5" stroke-width="0" /><circle cx="401" cy="797" fill="#3cb44B" r="3.5" stroke-width="0" /><circle cx="382" cy="779" fill="#3cb44B" r="3.5" stroke-width="0" /><circle cx="371" cy="769" fill="#3cb44B" r="3.5" stroke-width="0" /><circle cx="389" cy="786" fill="#3cb44B" r="3.5" stroke-width="0" /><circle cx="350" cy="747" fill="#3cb44B" r="3.5" stroke-width="0" /><circle cx="373" cy="771" fill="#3cb44B" r="3.5" stroke-width="0" /><circle cx="344" cy="741" fill="#3cb44B" r="3.5" stroke-width="0" /><circle cx="461" cy="848" fill="#3cb44B" r="3.5" stroke-width="0" /><circle cx="425" cy="819" fill="#3cb44B" r="3.5" stroke-width="0" /><circle cx="363" cy="761" fill="#3cb44B" r="3.5" stroke-width="0" /><circle cx="416" cy="811" fill="#3cb44B" r="3.5" stroke-width="0" /><circle cx="287" cy="672" fill="#3cb44B" r="3.5" stroke-width="0" /><circle cx="294" cy="682" fill="#3cb44B" r="3.5" stroke-width="0" /><circle cx="286" cy="671" fill="#3cb44B" r="3.5" stroke-width="0" /><circle cx="320" cy="714" fill="#3cb44B" r="3.5" stroke-width="0" /><circle cx="393" cy="790" fill="#3cb44B" r="3.5" stroke-width="0" /><circle cx="295" cy="683" fill="#3cb44B" r="3.5" stroke-width="0" /><circle cx="430" cy="823" fill="#3cb44B" r="3.5" stroke-width="0" /><circle cx="322" cy="716" fill="#3cb44B" r="3.5" stroke-width="0" /><circle cx="308" cy="699" fill="#3cb44B" r="3.5" stroke-width="0" /><circle cx="399" cy="796" fill="#3cb44B" r="3.5" stroke-width="0" /><circle cx="404" cy="800" fill="#3cb44B" r="3.5" stroke-width="0" /><circle cx="299" cy="688" fill="#3cb44B" r="3.5" stroke-width="0" /></g><g class="e1"><circle cx="478" cy="861" fill="#ff0000" r="3.5" stroke-width="0" /><circle cx="472" cy="856" fill="#ff0000" r="3.5" stroke-width="0" /><circle cx="473" cy="857" fill="#ff0000" r="3.5" stroke-width="0" /><circle cx="480" cy="862" fill="#ff0000" r="3.5" stroke-width="0" /><circle cx="475" cy="859" fill="#ff0000" r="3.5" stroke-width="0" /><circle cx="490" cy="870" fill="#ff0000" r="3.5" stroke-width="0" /></g><g class="e2"><circle cx="273" cy="654" fill="#2b92db" r="3.5" stroke-width="0" /><circle cx="271" cy="651" fill="#2b92db" r="3.5" stroke-width="0" /><circle cx="281" cy="664" fill="#2b92db" r="3.5" stroke-width="0" /></g><g class="e3"><circle cx="653" cy="964" fill="#911eb4" r="3.5" stroke-width="0" /><circle cx="496" cy="874" fill="#911eb4" r="3.5" stroke-width="0" /><circle cx="567" cy="920" fill="#911eb4" r="3.5" stroke-width="0" /><circle cx="524" cy="893" fill="#911eb4" r="3.5" stroke-width="0" /><circle cx="544" cy="906" fill="#911eb4" r="3.5" stroke-width="0" /><circle cx="497" cy="875" fill="#911eb4" r="3.5" stroke-width="0" /><circle cx="593" cy="934" fill="#911eb4" r="3.5" stroke-width="0" /><circle cx="618" cy="947" fill="#911eb4" r="3.5" stroke-width="0" /><circle cx="621" cy="949" fill="#911eb4" r="3.5" stroke-width="0" /><circle cx="655" cy="965" fill="#911eb4" r="3.5" stroke-width="0" /><circle cx="644" cy="960" fill="#911eb4" r="3.5" stroke-width="0" /><circle cx="543" cy="905" fill="#911eb4" r="3.5" stroke-width="0" /><circle cx="604" cy="940" fill="#911eb4" r="3.5" stroke-width="0" /><circle cx="625" cy="951" fill="#911eb4" r="3.5" stroke-width="0" /><circle cx="562" cy="917" fill="#911eb4" r="3.5" stroke-width="0" /><circle cx="495" cy="873" fill="#911eb4" r="3.5" stroke-width="0" /><circle cx="595" cy="935" fill="#911eb4" r="3.5" stroke-width="0" /><circle cx="620" cy="948" fill="#911eb4" r="3.5" stroke-width="0" /><circle cx="646" cy="961" fill="#911eb4" r="3.5" stroke-width="0" /><circle cx="506" cy="881" fill="#911eb4" r="3.5" stroke-width="0" /><circle cx="627" cy="952" fill="#911eb4" r="3.5" stroke-width="0" /><circle cx="589" cy="932" fill="#911eb4" r="3.5" stroke-width="0" /><circle cx="558" cy="914" fill="#911eb4" r="3.5" stroke-width="0" /><circle cx="635" cy="956" fill="#911eb4" r="3.5" stroke-width="0" /><circle cx="640" cy="958" fill="#911eb4" r="3.5" stroke-width="0" /><circle cx="508" cy="882" fill="#911eb4" r="3.5" stroke-width="0" /><circle cx="570" cy="921" fill="#911eb4" r="3.5" stroke-width="0" /><circle cx="669" cy="971" fill="#911eb4" r="3.5" stroke-width="0" /><circle cx="629" cy="953" fill="#911eb4" r="3.5" stroke-width="0" /><circle cx="624" cy="950" fill="#911eb4" r="3.5" stroke-width="0" /><circle cx="599" cy="937" fill="#911eb4" r="3.5" stroke-width="0" /><circle cx="539" cy="903" fill="#911eb4" r="3.5" stroke-width="0" /><circle cx="650" cy="963" fill="#911eb4" r="3.5" stroke-width="0" /><circle cx="505" cy="880" fill="#911eb4" r="3.5" stroke-width="0" /><circle cx="560" cy="916" fill="#911eb4" r="3.5" stroke-width="0" /><circle cx="610" cy="943" fill="#911eb4" r="3.5" stroke-width="0" /></g><g class="e4"><circle cx="254" cy="627" fill="#3cb44B" r="3.5" stroke-width="0" /><circle cx="180" cy="496" fill="#3cb44B" r="3.5" stroke-width="0" /><circle cx="222" cy="575" fill="#3cb44B" r="3.5" stroke-width="0" /><circle cx="208" cy="552" fill="#3cb44B" r="3.5" stroke-width="0" /><circle cx="211" cy="557" fill="#3cb44B" r="3.5" stroke-width="0" /><circle cx="198" cy="532" fill="#3cb44B" r="3.5" stroke-width="0" /><circle cx="214" cy="562" fill="#3cb44B" r="3.5" stroke-width="0" /><circle cx="203" cy="542" fill="#3cb44B" r="3.5" stroke-width="0" /><circle cx="171" cy="475" fill="#3cb44B" r="3.5" stroke-width="0" /><circle cx="260" cy="635" fill="#3cb44B" r="3.5" stroke-width="0" /><circle cx="186" cy="509" fill="#3cb44B" r="3.5" stroke-width="0" /><circle cx="236" cy="599" fill="#3cb44B" r="3.5" stroke-width="0" /><circle cx="175" cy="486" fill="#3cb44B" r="3.5" stroke-width="0" /><circle cx="174" cy="483" fill="#3cb44B" r="3.5" stroke-width="0" /><circle cx="205" cy="546" fill="#3cb44B" r="3.5" stroke-width="0" /><circle cx="201" cy="538" fill="#3cb44B" r="3.5" stroke-width="0" /><circle cx="172" cy="478" fill="#3cb44B" r="3.5" stroke-width="0" /><circle cx="176" cy="488" fill="#3cb44B" r="3.5" stroke-width="0" /><circle cx="242" cy="609" fill="#3cb44B" r="3.5" stroke-width="0" /><circle cx="265" cy="643" fill="#3cb44B" r="3.5" stroke-width="0" /><circle cx="234" cy="595" fill="#3cb44B" r="3.5" stroke-width="0" /><circle cx="243" cy="610" fill="#3cb44B" r="3.5" stroke-width="0" /><circle cx="192" cy="521" fill="#3cb44B" r="3.5" stroke-width="0" /><circle cx="216" cy="565" fill="#3cb44B" r="3.5" stroke-width="0" /><circle cx="258" cy="632" fill="#3cb44B" r="3.5" stroke-width="0" /><circle cx="213" cy="561" fill="#3cb44B" r="3.5" stroke-width="0" /><circle cx="204" cy="544" fill="#3cb44B" r="3.5" stroke-width="0" /><circle cx="190" cy="516" fill="#3cb44B" r="3.5" stroke-width="0" /><circle cx="261" cy="637" fill="#3cb44B" r="3.5" stroke-width="0" /><circle cx="237" cy="600" fill="#3cb44B" r="3.5" stroke-width="0" /><circle cx="263" cy="640" fill="#3cb44B" r="3.5" stroke-width="0" /><circle cx="247" cy="616" fill="#3cb44B" r="3.5" stroke-width="0" /><circle cx="250" cy="621" fill="#3cb44B" r="3.5" stroke-width="0" /><circle cx="178" cy="492" fill="#3cb44B" r="3.5" stroke-width="0" /><circle cx="191" cy="519" fill="#3cb44B" r="3.5" stroke-width="0" /><circle cx="226" cy="582" fill="#3cb44B" r="3.5" stroke-width="0" /><circle cx="181" cy="498" fill="#3cb44B" r="3.5" stroke-width="0" /></g><g class="e5"><circle cx="713" cy="989" fill="#ff0000" r="3.5" stroke-width="0" /><circle cx="814" cy="1021" fill="#ff0000" r="3.5" stroke-width="0" /><circle cx="717" cy="990" fill="#ff0000" r="3.5" stroke-width="0" /><circle cx="671" cy="972" fill="#ff0000" r="3.5" stroke-width="0" /><circle cx="746" cy="1001" fill="#ff0000" r="3.5" stroke-width="0" /><circle cx="835" cy="1026" fill="#ff0000" r="3.5" stroke-width="0" /><circle cx="861" cy="1031" fill="#ff0000" r="3.5" stroke-width="0" /><circle cx="677" cy="975" fill="#ff0000" r="3.5" stroke-width="0" /><circle cx="846" cy="1028" fill="#ff0000" r="3.5" stroke-width="0" /><circle cx="691" cy="980" fill="#ff0000" r="3.5" stroke-width="0" /><circle cx="732" cy="996" fill="#ff0000" r="3.5" stroke-width="0" /><circle cx="753" cy="1003" fill="#ff0000" r="3.5" stroke-width="0" /><circle cx="771" cy="1009" fill="#ff0000" r="3.5" stroke-width="0" /><circle cx="834" cy="1025" fill="#ff0000" r="3.5" stroke-width="0" /><circle cx="726" cy="994" fill="#ff0000" r="3.5" stroke-width="0" /><circle cx="799" cy="1017" fill="#ff0000" r="3.5" stroke-width="0" /><circle cx="764" cy="1006" fill="#ff0000" r="3.5" stroke-width="0" /><circle cx="708" cy="987" fill="#ff0000" r="3.5" stroke-width="0" /><circle cx="673" cy="973" fill="#ff0000" r="3.5" stroke-width="0" /><circle cx="810" cy="1020" fill="#ff0000" r="3.5" stroke-width="0" /><circle cx="797" cy="1016" fill="#ff0000" r="3.5" stroke-width="0" /><circle cx="706" cy="986" fill="#ff0000" r="3.5" stroke-width="0" /><circle cx="803" cy="1018" fill="#ff0000" r="3.5" stroke-width="0" /><circle cx="789" cy="1014" fill="#ff0000" r="3.5" stroke-width="0" /><circle cx="711" cy="988" fill="#ff0000" r="3.5" stroke-width="0" /><circle cx="735" cy="997" fill="#ff0000" r="3.5" stroke-width="0" /><circle cx="755" cy="1004" fill="#ff0000" r="3.5" stroke-width="0" /><circle cx="857" cy="1030" fill="#ff0000" r="3.5" stroke-width="0" /><circle cx="723" cy="993" fill="#ff0000" r="3.5" stroke-width="0" /><circle cx="783" cy="1012" fill="#ff0000" r="3.5" stroke-width="0" /><circle cx="696" cy="982" fill="#ff0000" r="3.5" stroke-width="0" /><circle cx="718" cy="991" fill="#ff0000" r="3.5" stroke-width="0" /><circle cx="768" cy="1008" fill="#ff0000" r="3.5" stroke-width="0" /><circle cx="865" cy="1032" fill="#ff0000" r="3.5" stroke-width="0" /></g><g class="e6"><circle cx="142" cy="402" fill="#2b92db" r="3.5" stroke-width="0" /><circle cx="110" cy="283" fill="#2b92db" r="3.5" stroke-width="0" /><circle cx="136" cy="383" fill="#2b92db" r="3.5" stroke-width="0" /><circle cx="132" cy="372" fill="#2b92db" r="3.5" stroke-width="0" /><circle cx="160" cy="449" fill="#2b92db" r="3.5" stroke-width="0" /><circle cx="111" cy="289" fill="#2b92db" r="3.5" stroke-width="0" /><circle cx="116" cy="313" fill="#2b92db" r="3.5" stroke-width="0" /><circle cx="140" cy="396" fill="#2b92db" r="3.5" stroke-width="0" /><circle cx="131" cy="367" fill="#2b92db" r="3.5" stroke-width="0" /><circle cx="119" cy="326" fill="#2b92db" r="3.5" stroke-width="0" /><circle cx="113" cy="297" fill="#2b92db" r="3.5" stroke-width="0" /><circle cx="158" cy="444" fill="#2b92db" r="3.5" stroke-width="0" /><circle cx="156" cy="439" fill="#2b92db" r="3.5" stroke-width="0" /><circle cx="128" cy="359" fill="#2b92db" r="3.5" stroke-width="0" /><circle cx="114" cy="302" fill="#2b92db" r="3.5" stroke-width="0" /><circle cx="108" cy="276" fill="#2b92db" r="3.5" stroke-width="0" /><circle cx="125" cy="347" fill="#2b92db" r="3.5" stroke-width="0" /><circle cx="112" cy="293" fill="#2b92db" r="3.5" stroke-width="0" /><circle cx="149" cy="420" fill="#2b92db" r="3.5" stroke-width="0" /><circle cx="115" cy="307" fill="#2b92db" r="3.5" stroke-width="0" /><circle cx="139" cy="394" fill="#2b92db" r="3.5" stroke-width="0" /><circle cx="143" cy="405" fill="#2b92db" r="3.5" stroke-width="0" /><circle cx="120" cy="330" fill="#2b92db" r="3.5" stroke-width="0" /><circle cx="151" cy="428" fill="#2b92db" r="3.5" stroke-width="0" /><circle cx="117" cy="316" fill="#2b92db" r="3.5" stroke-width="0" /><circle cx="141" cy="399" fill="#2b92db" r="3.5" stroke-width="0" /><circle cx="150" cy="423" fill="#2b92db" r="3.5" stroke-width="0" /><circle cx="121" cy="331" fill="#2b92db" r="3.5" stroke-width="0" /><circle cx="134" cy="378" fill="#2b92db" r="3.5" stroke-width="0" /><circle cx="161" cy="453" fill="#2b92db" r="3.5" stroke-width="0" /><circle cx="135" cy="381" fill="#2b92db" r="3.5" stroke-width="0" /><circle cx="165" cy="461" fill="#2b92db" r="3.5" stroke-width="0" /><circle cx="124" cy="343" fill="#2b92db" r="3.5" stroke-width="0" /><circle cx="127" cy="355" fill="#2b92db" r="3.5" stroke-width="0" /><circle cx="133" cy="373" fill="#2b92db" r="3.5" stroke-width="0" /><circle cx="155" cy="437" fill="#2b92db" r="3.5" stroke-width="0" /><circle cx="129" cy="361" fill="#2b92db" r="3.5" stroke-width="0" /><circle cx="107" cy="271" fill="#2b92db" r="3.5" stroke-width="0" /></g><g class="e7"><circle cx="1031" cy="1050" fill="#911eb4" r="3.5" stroke-width="0" /><circle cx="919" cy="1041" fill="#911eb4" r="3.5" stroke-width="0" /><circle cx="905" cy="1039" fill="#911eb4" r="3.5" stroke-width="0" /><circle cx="895" cy="1037" fill="#911eb4" r="3.5" stroke-width="0" /><circle cx="915" cy="1040" fill="#911eb4" r="3.5" stroke-width="0" /><circle cx="975" cy="1047" fill="#911eb4" r="3.5" stroke-width="0" /><circle cx="887" cy="1036" fill="#911eb4" r="3.5" stroke-width="0" /><circle cx="967" cy="1046" fill="#911eb4" r="3.5" stroke-width="0" /><circle cx="875" cy="1034" fill="#911eb4" r="3.5" stroke-width="0" /><circle cx="1018" cy="1049" fill="#911eb4" r="3.5" stroke-width="0" /><circle cx="946" cy="1044" fill="#911eb4" r="3.5" stroke-width="0" /><circle cx="948" cy="1045" fill="#911eb4" r="3.5" stroke-width="0" /><circle cx="934" cy="1043" fill="#911eb4" r="3.5" stroke-width="0" /><circle cx="994" cy="1048" fill="#911eb4" r="3.5" stroke-width="0" /><circle cx="900" cy="1038" fill="#911eb4" r="3.5" stroke-width="0" /><circle cx="930" cy="1042" fill="#911eb4" r="3.5" stroke-width="0" /><circle cx="881" cy="1035" fill="#911eb4" r="3.5" stroke-width="0" /></g><g class="e8"><circle cx="104" cy="251" fill="#3cb44B" r="3.5" stroke-width="0" /><circle cx="91" cy="136" fill="#3cb44B" r="3.5" stroke-width="0" /><circle cx="95" cy="192" fill="#3cb44B" r="3.5" stroke-width="0" /><circle cx="90" cy="90" fill="#3cb44B" r="3.5" stroke-width="0" /><circle cx="105" cy="260" fill="#3cb44B" r="3.5" stroke-width="0" /><circle cx="103" cy="245" fill="#3cb44B" r="3.5" stroke-width="0" /><circle cx="97" cy="207" fill="#3cb44B" r="3.5" stroke-width="0" /><circle cx="96" cy="193" fill="#3cb44B" r="3.5" stroke-width="0" /><circle cx="92" cy="149" fill="#3cb44B" r="3.5" stroke-width="0" /><circle cx="94" cy="178" fill="#3cb44B" r="3.5" stroke-width="0" /><circle cx="102" cy="243" fill="#3cb44B" r="3.5" stroke-width="0" /><circle cx="98" cy="211" fill="#3cb44B" r="3.5" stroke-width="0" /><circle cx="100" cy="225" fill="#3cb44B" r="3.5" stroke-width="0" /><circle cx="99" cy="223" fill="#3cb44B" r="3.5" stroke-width="0" /><circle cx="93" cy="164" fill="#3cb44B" r="3.5" stroke-width="0" /></g></g></g></svg>