<?xml version="1.0" encoding="utf-8" ?>
<svg baseProfile="full" height="1140px" style="font-size:15;font-family:Arial, san-serif;font-weight:bold;stroke:black;stroke-width:0;fill:#444444" version="1.1" width="1140px" xmlns="http://www.w3.org/2000/svg" xmlns:ev="http://www.w3.org/2001/xml-events" xmlns:xlink="http://www.w3.org/1999/xlink"><defs><clipPath id="areadografico"><rect height="1000" width="1000" x="70" y="70" /></clipPath></defs><g class="master"><g class="poligonos"><polygon clip-path="url(#areadografico)" fill="#000000" fill-opacity="0.1" points="70,1070 70,820 319,821 320,570 569,571 570,320 819,321 820,70 1069,71 1069,71 1069,321 819,321 819,571 569,571 569,821 319,821 320,1070" /><polygon clip-path="url(#areadografico)" fill="#ffffff" fill-opacity="0.1" points="320,1070 320,820 569,821 570,570 819,571 820,320 1069,321 1069,321 1069,571 819,571 819,821 569,821 570,1070" /><polygon clip-path="url(#areadografico)" fill="#ff0000" fill-opacity="0.1" points="70,820 320,820 319,571 570,570 569,321 820,320 819,71 819,71 569,71 569,321 319,321 319,571 70,570" /><polygon clip-path="url(#areadografico)" fill="#000000" fill-opacity="0.1" points="570,1070 570,820 819,821 820,570 1069,571 1069,571 1069,821 819,821 820,1070" /><polygon clip-path="url(#areadografico)" fill="#ffffff" fill-opacity="0.1" points="70,570 320,570 319,321 570,320 569,71 569,71 319,71 319,321 70,320" /><polygon clip-path="url(#areadografico)" fill="#ff0000" fill-opacity="0.1" points="820,1070 820,820 1069,821 1069,1070" /><polygon clip-path="url(#areadografico)" fill="#000000" fill-opacity="0.1" points="70,320 320,320 319,71 70,71" /></g><g class="linhas"><line fill-opacity="0.3" stroke="#999999" stroke-width="1" x1="1070" x2="1070" y1="1070" y2="70" /><line fill-opacity="0.3" stroke="#999999" stroke-width="1" x1="70" x2="1070" y1="70" y2="70" /><line fill-opacity="0.3" stroke="#999999" stroke-width="1" x1="970" x2="970" y1="1070" y2="70" /><line fill-opacity="0.3" stroke="#999999" stroke-width="1" x1="70" x2="1070" y1="170" y2="170" /><line fill-opacity="0.3" stroke="#999999" stroke-width="1" x1="870" x2="870" y1="1070" y2="70" /><line fill-opacity="0.3" stroke="#999999" stroke-width="1" x1="70" x2="1070" y1="270" y2="270" /><line fill-opacity="0.3" stroke="#999999" stroke-width="1" x1="770" x2="770" y1="1070" y2="70" /><line fill-opacity="0.3" stroke="#999999" stroke-width="1" x1="70" x2="1070" y1="370" y2="370" /><line fill-opacity="0.3" stroke="#999999" stroke-width="1" x1="670" x2="670" y1="1070" y2="70" /><line fill-opacity="0.3" stroke="#999999" stroke-width="1" x1="70" x2="1070" y1="470" y2="470" /><line fill-opacity="0.3" stroke="#999999" stroke-width="1" x1="570" x2="570" y1="1070" y2="70" /><line fill-opacity="0.3" stroke="#999999" stroke-width="1" x1="70" x2="1070" y1="570" y2="570" /><line fill-opacity="0.3" stroke="#999999" stroke-width="1" x1="470" x2="470" y1="1070" y2="70" /><line fill-opacity="0.3" stroke="#999999" stroke-width="1" x1="70" x2="1070" y1="670" y2="670" /><line fill-opacity="0.3" stroke="#999999" stroke-width="1" x1="370" x2="370" y1="1070" y2="70" /><line fill-opacity="0.3" stroke="#999999" stroke-width="1" x1="70" x2="1070" y1="770" y2="770" /><line fill-opacity="0.3" stroke="#999999" stroke-width="1" x1="270" x2="270" y1="1070" y2="70" /><line fill-opacity="0.3" stroke="#999999" stroke-width="1" x1="70" x2="1070" y1="870" y2="870" /><line fill-opacity="0.3" stroke="#999999" stroke-width="1" x1="170" x2="170" y1="1070" y2="70" /><line fill-opacity="0.3" stroke="#999999" stroke-width="1" x1="70" x2="1070" y1="970" y2="970" /><line fill-opacity="0.3" stroke="#000000" stroke-width="1" x1="70" x2="70" y1="1071" y2="69" /><line fill-opacity="0.3" stroke="#000000" stroke-width="1" x1="69" x2="1071" y1="1070" y2="1070" /></g><g class="textos"><text x="1050" y="1110">1000</text><text x="10" y="71">1000</text><text x="950" y="1110">900</text><text x="10" y="171">900</text><text x="850" y="1110">800</text><text x="10" y="271">800</text><text x="750" y="1110">700</text><text x="10" y="371">700</text><text x="650" y="1110">600</text><text x="10" y="471">600</text><text x="550" y="1110">500</text><text x="10" y="571">500</text><text x="450" y="1110">400</text><text x="10" y="671">400</text><text x="350" y="1110">300</text><text x="10" y="771">300</text><text x="250" y="1110">200</text><text x="10" y="871">200</text><text x="150" y="1110">100</text><text x="10" y="971">100</text><text x="50" y="1111">0</text><text x="9" y="1071">0</text></g><g class="especies"><g class="e0"><circle cx="355" cy="752" fill="#3cb44B" r="3.5" stroke-width="0" /><circle cx="346" cy="743" fill="#3cb44B" r="3.5" stroke-width="0" /><circle cx="425" cy="819" fill="#3cb44B" r="3.5" stroke-width="0" /><circle cx="327" cy="721" fill="#3cb44B" r="3.5" stroke-width="0" /><circle cx="359" cy="756" fill="#3cb44B" r="3.5" stroke-width="0" /><circle cx="370" cy="768" fill="#3cb44B" r="3.5" stroke-width="0" /><circle cx="408" cy="804" fill="#3cb44B" r="3.5" stroke-width="0" /><circle cx="340" cy="736" fill="#3cb44B" r="3.5" stroke-width="0" /><circle cx="376" cy="774" fill="#3cb44B" r="3.5" stroke-width="0" /><circle cx="395" cy="792" fill="#3cb44B" r="3.5" stroke-width="0" /><circle cx="418" cy="813" fill="#3cb44B" r="3.5" stroke-width="0" /><circle cx="328" cy="723" fill="#3cb44B" r="3.5" stroke-width="0" /><circle cx="350" cy="747" fill="#3cb44B" r="3.5" stroke-width="0" /><circle cx="405" cy="801" fill="#3cb44B" r="3.5" stroke-width="0" /><circle cx="400" cy="796" fill="#3cb44B" r="3.5" stroke-width="0" /><circle cx="335" cy="731" fill="#3cb44B" r="3.5" stroke-width="0" /><circle cx="402" cy="798" fill="#3cb44B" r="3.5" stroke-width="0" /><circle cx="383" cy="780" fill="#3cb44B" r="3.5" stroke-width="0" /><circle cx="344" cy="741" fill="#3cb44B" r="3.5" stroke-width="0" /><circle cx="337" cy="733" fill="#3cb44B" r="3.5" stroke-width="0" /><circle cx="373" cy="771" fill="#3cb44B" r="3.5" stroke-width="0" /><circle cx="336" cy="732" fill="#3cb44B" r="3.5" stroke-width="0" /><circle cx="352" cy="749" fill="#3cb44B" r="3.5" stroke-width="0" /><circle cx="362" cy="760" fill="#3cb44B" r="3.5" stroke-width="0" /><circle cx="351" cy="748" fill="#3cb44B" r="3.5" stroke-width="0" /><circle cx="338" cy="734" fill="#3cb44B" r="3.5" stroke-width="0" /><circle cx="347" cy="744" fill="#3cb44B" r="3.5" stroke-width="0" /><circle cx="323" cy="717" fill="#3cb44B" r="3.5" stroke-width="0" /><circle cx="407" cy="803" fill="#3cb44B" r="3.5" stroke-width="0" /><circle cx="356" cy="753" fill="#3cb44B" r="3.5" stroke-width="0" /><circle cx="384" cy="781" fill="#3cb44B" r="3.5" stroke-width="0" /><circle cx="426" cy="820" fill="#3cb44B" r="3.5" stroke-width="0" /><circle cx="386" cy="783" fill="#3cb44B" r="3.5" stroke-width="0" /><circle cx="334" cy="729" fill="#3cb44B" r="3.5" stroke-width="0" /></g><g class="e1"><circle cx="466" cy="852" fill="#ff0000" r="3.5" stroke-width="0" /><circle cx="542" cy="905" fill="#ff0000" r="3.5" stroke-width="0" /><circle cx="461" cy="848" fill="#ff0000" r="3.5" stroke-width="0" /><circle cx="561" cy="916" fill="#ff0000" r="3.5" stroke-width="0" /><circle cx="484" cy="865" fill="#ff0000" r="3.5" stroke-width="0" /><circle cx="453" cy="842" fill="#ff0000" r="3.5" stroke-width="0" /><circle cx="524" cy="893" fill="#ff0000" r="3.5" stroke-width="0" /><circle cx="520" cy="890" fill="#ff0000" r="3.5" stroke-width="0" /><circle cx="496" cy="874" fill="#ff0000" r="3.5" stroke-width="0" /><circle cx="488" cy="868" fill="#ff0000" r="3.5" stroke-width="0" /><circle cx="493" cy="872" fill="#ff0000" r="3.5" stroke-width="0" /><circle cx="443" cy="834" fill="#ff0000" r="3.5" stroke-width="0" /><circle cx="501" cy="878" fill="#ff0000" r="3.5" stroke-width="0" /><circle cx="566" cy="919" fill="#ff0000" r="3.5" stroke-width="0" /><circle cx="504" cy="880" fill="#ff0000" r="3.5" stroke-width="0" /><circle cx="529" cy="896" fill="#ff0000" r="3.5" stroke-width="0" /><circle cx="452" cy="841" fill="#ff0000" r="3.5" stroke-width="0" /><circle cx="511" cy="884" fill="#ff0000" r="3.5" stroke-width="0" /><circle cx="564" cy="918" fill="#ff0000" r="3.5" stroke-width="0" /><circle cx="527" cy="895" fill="#ff0000" r="3.5" stroke-width="0" /><circle cx="555" cy="913" fill="#ff0000" r="3.5" stroke-width="0" /><circle cx="437" cy="829" fill="#ff0000" r="3.5" stroke-width="0" /><circle cx="499" cy="876" fill="#ff0000" r="3.5" stroke-width="0" /><circle cx="535" cy="900" fill="#ff0000" r="3.5" stroke-width="0" /><circle cx="486" cy="867" fill="#ff0000" r="3.5" stroke-width="0" /><circle cx="507" cy="882" fill="#ff0000" r="3.5" stroke-width="0" /><circle cx="515" cy="887" fill="#ff0000" r="3.5" stroke-width="0" /><circle cx="545" cy="906" fill="#ff0000" r="3.5" stroke-width="0" /><circle cx="470" cy="855" fill="#ff0000" r="3.5" stroke-width="0" /><circle cx="450" cy="839" fill="#ff0000" r="3.5" stroke-width="0" /><circle cx="522" cy="892" fill="#ff0000" r="3.5" stroke-width="0" /><circle cx="497" cy="875" fill="#ff0000" r="3.5" stroke-width="0" /><circle cx="447" cy="837" fill="#ff0000" r="3.5" stroke-width="0" /><circle cx="513" cy="886" fill="#ff0000" r="3.5" stroke-width="0" /><circle cx="455" cy="843" fill="#ff0000" r="3.5" stroke-width="0" /></g><g class="e2"><circle cx="248" cy="618" fill="#2b92db" r="3.5" stroke-width="0" /><circle cx="249" cy="619" fill="#2b92db" r="3.5" stroke-width="0" /><circle cx="282" cy="666" fill="#2b92db" r="3.5" stroke-width="0" /><circle cx="237" cy="601" fill="#2b92db" r="3.5" stroke-width="0" /><circle cx="242" cy="609" fill="#2b92db" r="3.5" stroke-width="0" /><circle cx="226" cy="582" fill="#2b92db" r="3.5" stroke-width="0" /><circle cx="317" cy="710" fill="#2b92db" r="3.5" stroke-width="0" /><circle cx="235" cy="598" fill="#2b92db" r="3.5" stroke-width="0" /><circle cx="254" cy="627" fill="#2b92db" r="3.5" stroke-width="0" /><circle cx="244" cy="612" fill="#2b92db" r="3.5" stroke-width="0" /><circle cx="225" cy="581" fill="#2b92db" r="3.5" stroke-width="0" /><circle cx="294" cy="682" fill="#2b92db" r="3.5" stroke-width="0" /><circle cx="219" cy="571" fill="#2b92db" r="3.5" stroke-width="0" /><circle cx="246" cy="614" fill="#2b92db" r="3.5" stroke-width="0" /><circle cx="297" cy="686" fill="#2b92db" r="3.5" stroke-width="0" /><circle cx="258" cy="633" fill="#2b92db" r="3.5" stroke-width="0" /><circle cx="316" cy="709" fill="#2b92db" r="3.5" stroke-width="0" /><circle cx="220" cy="573" fill="#2b92db" r="3.5" stroke-width="0" /><circle cx="318" cy="711" fill="#2b92db" r="3.5" stroke-width="0" /><circle cx="310" cy="702" fill="#2b92db" r="3.5" stroke-width="0" /><circle cx="275" cy="657" fill="#2b92db" r="3.5" stroke-width="0" /><circle cx="224" cy="579" fill="#2b92db" r="3.5" stroke-width="0" /><circle cx="238" cy="602" fill="#2b92db" r="3.5" stroke-width="0" /><circle cx="232" cy="593" fill="#2b92db" r="3.5" stroke-width="0" /><circle cx="260" cy="635" fill="#2b92db" r="3.5" stroke-width="0" /><circle cx="266" cy="644" fill="#2b92db" r="3.5" stroke-width="0" /><circle cx="276" cy="658" fill="#2b92db" r="3.5" stroke-width="0" /><circle cx="234" cy="595" fill="#2b92db" r="3.5" stroke-width="0" /><circle cx="231" cy="591" fill="#2b92db" r="3.5" stroke-width="0" /><circle cx="233" cy="594" fill="#2b92db" r="3.5" stroke-width="0" /><circle cx="222" cy="575" fill="#2b92db" r="3.5" stroke-width="0" /><circle cx="240" cy="605" fill="#2b92db" r="3.5" stroke-width="0" /><circle cx="315" cy="708" fill="#2b92db" r="3.5" stroke-width="0" /><circle cx="223" cy="578" fill="#2b92db" r="3.5" stroke-width="0" /><circle cx="250" cy="620" fill="#2b92db" r="3.5" stroke-width="0" /></g><g class="e3"><circle cx="596" cy="936" fill="#911eb4" r="3.5" stroke-width="0" /><circle cx="604" cy="940" fill="#911eb4" r="3.5" stroke-width="0" /><circle cx="753" cy="1003" fill="#911eb4" r="3.5" stroke-width="0" /><circle cx="819" cy="1022" fill="#911eb4" r="3.5" stroke-width="0" /><circle cx="640" cy="958" fill="#911eb4" r="3.5" stroke-width="0" /><circle cx="632" cy="954" fill="#911eb4" r="3.5" stroke-width="0" /><circle cx="810" cy="1020" fill="#911eb4" r="3.5" stroke-width="0" /><circle cx="738" cy="998" fill="#911eb4" r="3.5" stroke-width="0" /><circle cx="687" cy="979" fill="#911eb4" r="3.5" stroke-width="0" /><circle cx="667" cy="970" fill="#911eb4" r="3.5" stroke-width="0" /><circle cx="661" cy="968" fill="#911eb4" r="3.5" stroke-width="0" /><circle cx="592" cy="934" fill="#911eb4" r="3.5" stroke-width="0" /><circle cx="626" cy="951" fill="#911eb4" r="3.5" stroke-width="0" /><circle cx="703" cy="985" fill="#911eb4" r="3.5" stroke-width="0" /><circle cx="585" cy="930" fill="#911eb4" r="3.5" stroke-width="0" /><circle cx="724" cy="993" fill="#911eb4" r="3.5" stroke-width="0" /><circle cx="573" cy="923" fill="#911eb4" r="3.5" stroke-width="0" /><circle cx="653" cy="964" fill="#911eb4" r="3.5" stroke-width="0" /><circle cx="808" cy="1019" fill="#911eb4" r="3.5" stroke-width="0" /><circle cx="750" cy="1002" fill="#911eb4" r="3.5" stroke-width="0" /><circle cx="668" cy="971" fill="#911eb4" r="3.5" stroke-width="0" /><circle cx="772" cy="1009" fill="#911eb4" r="3.5" stroke-width="0" /><circle cx="672" cy="972" fill="#911eb4" r="3.5" stroke-width="0" /><circle cx="788" cy="1014" fill="#911eb4" r="3.5" stroke-width="0" /><circle cx="590" cy="933" fill="#911eb4" r="3.5" stroke-width="0" /><circle cx="722" cy="992" fill="#911eb4" r="3.5" stroke-width="0" /><circle cx="795" cy="1016" fill="#911eb4" r="3.5" stroke-width="0" /><circle cx="648" cy="962" fill="#911eb4" r="3.5" stroke-width="0" /><circle cx="656" cy="965" fill="#911eb4" r="3.5" stroke-width="0" /><circle cx="624" cy="950" fill="#911eb4" r="3.5" stroke-width="0" /><circle cx="765" cy="1007" fill="#911eb4" r="3.5" stroke-width="0" /><circle cx="594" cy="935" fill="#911eb4" r="3.5" stroke-width="0" /><circle cx="693" cy="981" fill="#911eb4" r="3.5" stroke-width="0" /><circle cx="729" cy="995" fill="#911eb4" r="3.5" stroke-width="0" /><circle cx="806" cy="1018" fill="#911eb4" r="3.5" stroke-width="0" /><circle cx="713" cy="989" fill="#911eb4" r="3.5" stroke-width="0" /><circle cx="696" cy="982" fill="#911eb4" r="3.5" stroke-width="0" /><circle cx="665" cy="969" fill="#911eb4" r="3.5" stroke-width="0" /><circle cx="673" cy="973" fill="#911eb4" r="3.5" stroke-width="0" /><circle cx="576" cy="925" fill="#911eb4" r="3.5" stroke-width="0" /><circle cx="777" cy="1010" fill="#911eb4" r="3.5" stroke-width="0" /><circle cx="685" cy="978" fill="#911eb4" r="3.5" stroke-width="0" /><circle cx="574" cy="924" fill="#911eb4" r="3.5" stroke-width="0" /><circle cx="678" cy="975" fill="#911eb4" r="3.5" stroke-width="0" /><circle cx="588" cy="932" fill="#911eb4" r="3.5" stroke-width="0" /><circle cx="780" cy="1011" fill="#911eb4" r="3.5" stroke-width="0" /><circle cx="717" cy="990" fill="#911eb4" r="3.5" stroke-width="0" /><circle cx="658" cy="966" fill="#911eb4" r="3.5" stroke-width="0" /><circle cx="579" cy="927" fill="#911eb4" r="3.5" stroke-width="0" /><circle cx="608" cy="942" fill="#911eb4" r="3.5" stroke-width="0" /><circle cx="614" cy="945" fill="#911eb4" r="3.5" stroke-width="0" /><circle cx="781" cy="1012" fill="#911eb4" r="3.5" stroke-width="0" /></g><g class="e4"><circle cx="138" cy="391" fill="#3cb44B" r="3.5" stroke-width="0" /><circle cx="130" cy="364" fill="#3cb44B" r="3.5" stroke-width="0" /><circle cx="120" cy="328" fill="#3cb44B" r="3.5" stroke-width="0" /><circle cx="124" cy="344" fill="#3cb44B" r="3.5" stroke-width="0" /><circle cx="176" cy="487" fill="#3cb44B" r="3.5" stroke-width="0" /><circle cx="153" cy="433" fill="#3cb44B" r="3.5" stroke-width="0" /><circle cx="174" cy="482" fill="#3cb44B" r="3.5" stroke-width="0" /><circle cx="126" cy="352" fill="#3cb44B" r="3.5" stroke-width="0" /><circle cx="144" cy="407" fill="#3cb44B" r="3.5" stroke-width="0" /><circle cx="131" cy="367" fill="#3cb44B" r="3.5" stroke-width="0" /><circle cx="127" cy="353" fill="#3cb44B" r="3.5" stroke-width="0" /><circle cx="142" cy="403" fill="#3cb44B" r="3.5" stroke-width="0" /><circle cx="132" cy="371" fill="#3cb44B" r="3.5" stroke-width="0" /><circle cx="151" cy="428" fill="#3cb44B" r="3.5" stroke-width="0" /><circle cx="201" cy="539" fill="#3cb44B" r="3.5" stroke-width="0" /><circle cx="194" cy="525" fill="#3cb44B" r="3.5" stroke-width="0" /><circle cx="190" cy="517" fill="#3cb44B" r="3.5" stroke-width="0" /><circle cx="178" cy="492" fill="#3cb44B" r="3.5" stroke-width="0" /><circle cx="175" cy="484" fill="#3cb44B" r="3.5" stroke-width="0" /><circle cx="129" cy="362" fill="#3cb44B" r="3.5" stroke-width="0" /><circle cx="150" cy="424" fill="#3cb44B" r="3.5" stroke-width="0" /><circle cx="210" cy="554" fill="#3cb44B" r="3.5" stroke-width="0" /><circle cx="143" cy="404" fill="#3cb44B" r="3.5" stroke-width="0" /><circle cx="137" cy="388" fill="#3cb44B" r="3.5" stroke-width="0" /><circle cx="119" cy="323" fill="#3cb44B" r="3.5" stroke-width="0" /><circle cx="212" cy="559" fill="#3cb44B" r="3.5" stroke-width="0" /><circle cx="122" cy="337" fill="#3cb44B" r="3.5" stroke-width="0" /><circle cx="182" cy="501" fill="#3cb44B" r="3.5" stroke-width="0" /><circle cx="162" cy="455" fill="#3cb44B" r="3.5" stroke-width="0" /><circle cx="147" cy="416" fill="#3cb44B" r="3.5" stroke-width="0" /><circle cx="206" cy="547" fill="#3cb44B" r="3.5" stroke-width="0" /><circle cx="195" cy="527" fill="#3cb44B" r="3.5" stroke-width="0" /><circle cx="165" cy="463" fill="#3cb44B" r="3.5" stroke-width="0" /><circle cx="133" cy="373" fill="#3cb44B" r="3.5" stroke-width="0" /><circle cx="189" cy="515" fill="#3cb44B" r="3.5" stroke-width="0" /><circle cx="217" cy="567" fill="#3cb44B" r="3.5" stroke-width="0" /><circle cx="187" cy="510" fill="#3cb44B" r="3.5" stroke-width="0" /><circle cx="123" cy="339" fill="#3cb44B" r="3.5" stroke-width="0" /><circle cx="193" cy="522" fill="#3cb44B" r="3.5" stroke-width="0" /><circle cx="125" cy="346" fill="#3cb44B" r="3.5" stroke-width="0" /><circle cx="170" cy="473" fill="#3cb44B" r="3.5" stroke-width="0" /><circle cx="159" cy="447" fill="#3cb44B" r="3.5" stroke-width="0" /><circle cx="141" cy="398" fill="#3cb44B" r="3.5" stroke-width="0" /><circle cx="135" cy="379" fill="#3cb44B" r="3.5" stroke-width="0" /><circle cx="196" cy="529" fill="#3cb44B" r="3.5" stroke-width="0" /><circle cx="134" cy="377" fill="#3cb44B" r="3.5" stroke-width="0" /><circle cx="202" cy="540" fill="#3cb44B" r="3.5" stroke-width="0" /><circle cx="128" cy="356" fill="#3cb44B" r="3.5" stroke-width="0" /><circle cx="191" cy="519" fill="#3cb44B" r="3.5" stroke-width="0" /><circle cx="161" cy="453" fill="#3cb44B" r="3.5" stroke-width="0" /><circle cx="156" cy="439" fill="#3cb44B" r="3.5" stroke-width="0" /><circle cx="204" cy="543" fill="#3cb44B" r="3.5" stroke-width="0" /><circle cx="172" cy="478" fill="#3cb44B" r="3.5" stroke-width="0" /><circle cx="209" cy="553" fill="#3cb44B" r="3.5" stroke-width="0" /><circle cx="169" cy="471" fill="#3cb44B" r="3.5" stroke-width="0" /><circle cx="184" cy="504" fill="#3cb44B" r="3.5" stroke-width="0" /></g><g class="e5"><circle cx="912" cy="1040" fill="#ff0000" r="3.5" stroke-width="0" /><circle cx="947" cy="1044" fill="#ff0000" r="3.5" stroke-width="0" /><circle cx="843" cy="1027" fill="#ff0000" r="3.5" stroke-width="0" /><circle cx="1005" cy="1049" fill="#ff0000" r="3.5" stroke-width="0" /><circle cx="879" cy="1035" fill="#ff0000" r="3.5" stroke-width="0" /><circle cx="894" cy="1037" fill="#ff0000" r="3.5" stroke-width="0" /><circle cx="990" cy="1048" fill="#ff0000" r="3.5" stroke-width="0" /><circle cx="1021" cy="1050" fill="#ff0000" r="3.5" stroke-width="0" /><circle cx="924" cy="1042" fill="#ff0000" r="3.5" stroke-width="0" /><circle cx="830" cy="1024" fill="#ff0000" r="3.5" stroke-width="0" /><circle cx="854" cy="1030" fill="#ff0000" r="3.5" stroke-width="0" /><circle cx="937" cy="1043" fill="#ff0000" r="3.5" stroke-width="0" /><circle cx="849" cy="1029" fill="#ff0000" r="3.5" stroke-width="0" /><circle cx="900" cy="1038" fill="#ff0000" r="3.5" stroke-width="0" /><circle cx="870" cy="1033" fill="#ff0000" r="3.5" stroke-width="0" /><circle cx="825" cy="1023" fill="#ff0000" r="3.5" stroke-width="0" /><circle cx="863" cy="1032" fill="#ff0000" r="3.5" stroke-width="0" /><circle cx="902" cy="1039" fill="#ff0000" r="3.5" stroke-width="0" /><circle cx="858" cy="1031" fill="#ff0000" r="3.5" stroke-width="0" /><circle cx="977" cy="1047" fill="#ff0000" r="3.5" stroke-width="0" /><circle cx="837" cy="1026" fill="#ff0000" r="3.5" stroke-width="0" /></g><g class="e6"><circle cx="90" cy="120" fill="#2b92db" r="3.5" stroke-width="0" /><circle cx="102" cy="244" fill="#2b92db" r="3.5" stroke-width="0" /><circle cx="94" cy="172" fill="#2b92db" r="3.5" stroke-width="0" /><circle cx="101" cy="236" fill="#2b92db" r="3.5" stroke-width="0" /><circle cx="97" cy="206" fill="#2b92db" r="3.5" stroke-width="0" /><circle cx="91" cy="129" fill="#2b92db" r="3.5" stroke-width="0" /><circle cx="95" cy="187" fill="#2b92db" r="3.5" stroke-width="0" /><circle cx="111" cy="289" fill="#2b92db" r="3.5" stroke-width="0" /><circle cx="118" cy="320" fill="#2b92db" r="3.5" stroke-width="0" /><circle cx="106" cy="267" fill="#2b92db" r="3.5" stroke-width="0" /><circle cx="110" cy="285" fill="#2b92db" r="3.5" stroke-width="0" /><circle cx="113" cy="300" fill="#2b92db" r="3.5" stroke-width="0" /><circle cx="104" cy="254" fill="#2b92db" r="3.5" stroke-width="0" /><circle cx="108" cy="274" fill="#2b92db" r="3.5" stroke-width="0" /><circle cx="114" cy="302" fill="#2b92db" r="3.5" stroke-width="0" /><circle cx="107" cy="269" fill="#2b92db" r="3.5" stroke-width="0" /><circle cx="115" cy="306" fill="#2b92db" r="3.5" stroke-width="0" /><circle cx="105" cy="260" fill="#2b92db" r="3.5" stroke-width="0" /><circle cx="117" cy="316" fill="#2b92db" r="3.5" stroke-width="0" /><circle cx="98" cy="211" fill="#2b92db" r="3.5" stroke-width="0" /><circle cx="100" cy="228" fill="#2b92db" r="3.5" stroke-width="0" /><circle cx="93" cy="171" fill="#2b92db" r="3.5" stroke-width="0" /></g></g></g></svg>