<?xml version="1.0" encoding="utf-8" ?>
<svg baseProfile="full" height="1140px" style="font-size:15;font-family:Arial, san-serif;font-weight:bold;stroke:black;stroke-width:0;fill:#444444" version="1.1" width="1140px" xmlns="http://www.w3.org/2000/svg" xmlns:ev="http://www.w3.org/2001/xml-events" xmlns:xlink="http://www.w3.org/1999/xlink"><defs><clipPath id="areadografico"><rect height="1000" width="1000" x="70" y="70" /></clipPath></defs><g class="master"><g class="poligonos"><polygon clip-path="url(#areadografico)" fill="#000000" fill-opacity="0.1" points="70,1070 70,820 319,821 320,570 569,571 570,320 819,321 820,70 1069,71 1069,71 1069,321 819,321 819,571 569,571 569,821 319,821 320,1070" /><polygon clip-path="url(#areadografico)" fill="#ffffff" fill-opacity="0.1" points="320,1070 320,820 569,821 570,570 819,571 820,320 1069,321 1069,321 1069,571 819,571 819,821 569,821 570,1070" /><polygon clip-path="url(#areadografico)" fill="#ff0000" fill-opacity="0.1" points="70,820 320,820 319,571 570,570 569,321 820,320 819,71 819,71 569,71 569,321 319,321 319,571 70,570" /><polygon clip-path="url(#areadografico)" fill="#000000" fill-opacity="0.1" points="570,1070 570,820 819,821 820,570 1069,571 1069,571 1069,821 819,821 820,1070" /><polygon clip-path="url(#areadografico)" fill="#ffffff" fill-opacity="0.1" points="70,570 320,570 319,321 570,320 569,71 569,71 319,71 319,321 70,320" /><polygon clip-path="url(#areadografico)" fill="#ff0000" fill-opacity="0.1" points="820,1070 820,820 1069,821 1069,1070" /><polygon clip-path="url(#areadografico)" fill="#000000" fill-opacity="0.1" points="70,320 320,320 319,71 70,71" /></g><g class="linhas"><line fill-opacity="0.3" stroke="#999999" stroke-width="1" x1="1070" x2="1070" y1="1070" y2="70" /><line fill-opacity="0.3" stroke="#999999" stroke-width="1" x1="70" x2="1070" y1="70" y2="70" /><line fill-opacity="0.3" stroke="#999999" stroke-width="1" x1="970" x2="970" y1="1070" y2="70" /><line fill-opacity="0.3" stroke="#999999" stroke-width="1" x1="70" x2="1070" y1="170" y2="170" /><line fill-opacity="0.3" stroke="#999999" stroke-width="1" x1="870" x2="870" y1="1070" y2="70" /><line fill-opacity="0.3" stroke="#999999" stroke-width="1" x1="70" x2="1070" y1="270" y2="270" /><line fill-opacity="0.3" stroke="#999999" stroke-width="1" x1="770" x2="770" y1="1070" y2="70" /><line fill-opacity="0.3" stroke="#999999" stroke-width="1" x1="70" x2="1070" y1="370" y2="370" /><line fill-opacity="0.3" stroke="#999999" stroke-width="1" x1="670" x2="670" y1="1070" y2="70" /><line fill-opacity="0.3" stroke="#999999" stroke-width="1" x1="70" x2="1070" y1="470" y2="470" /><line fill-opacity="0.3" stroke="#999999" stroke-width="1" x1="570" x2="570" y1="1070" y2="70" /><line fill-opacity="0.3" stroke="#999999" stroke-width="1" x1="70" x2="1070" y1="570" y2="570" /><line fill-opacity="0.3" stroke="#999999" stroke-width="1" x1="470" x2="470" y1="1070" y2="70" /><line fill-opacity="0.3" stroke="#999999" stroke-width="1" x1="70" x2="1070" y1="670" y2="670" /><line fill-opacity="0.3" stroke="#999999" stroke-width="1" x1="370" x2="370" y1="1070" y2="70" /><line fill-opacity="0.3" stroke="#999999" stroke-width="1" x1="70" x2="1070" y1="770" y2="770" /><line fill-opacity="0.3" stroke="#999999" stroke-width="1" x1="270" x2="270" y1="1070" y2="70" /><line fill-opacity="0.3" stroke="#999999" stroke-width="1" x1="70" x2="1070" y1="870" y2="870" /><line fill-opacity="0.3" stroke="#999999" stroke-width="1" x1="170" x2="170" y1="1070" y2="70" /><line fill-opacity="0.3" stroke="#999999" stroke-width="1" x1="70" x2="1070" y1="970" y2="970" /><line fill-opacity="0.3" stroke="#000000" stroke-width="1" x1="70" x2="70" y1="1071" y2="69" /><line fill-opacity="0.3" stroke="#000000" stroke-width="1" x1="69" x2="1071" y1="1070" y2="1070" /></g><g class="textos"><text x="1050" y="1110">1000</text><text x="10" y="71">1000</text><text x="950" y="1110">900</text><text x="10" y="171">900</text><text x="850" y="1110">800</text><text x="10" y="271">800</text><text x="750" y="1110">700</text><text x="10" y="371">700</text><text x="650" y="1110">600</text><text x="10" y="471">600</text><text x="550" y="1110">500</text><text x="10" y="571">500</text><text x="450" y="1110">400</text><text x="10" y="671">400</text><text x="350" y="1110">300</text><text x="10" y="771">300</text><text x="250" y="1110">200</text><text x="10" y="871">200</text><text x="150" y="1110">100</text><text x="10" y="971">100</text><text x="50" y="1111">0</text><text x="9" y="1071">0</text></g><g class="especies"><g class="e0"><circle cx="409" cy="805" fill="#3cb44B" r="3.5" stroke-width="0" /><circle cx="344" cy="741" fill="#3cb44B" r="3.5" stroke-width="0" /><circle cx="374" cy="772" fill="#3cb44B" r="3.5" stroke-width="0" /><circle cx="340" cy="736" fill="#3cb44B" r="3.5" stroke-width="0" /><circle cx="367" cy="765" fill="#3cb44B" r="3.5" stroke-width="0" /><circle cx="404" cy="800" fill="#3cb44B" r="3.5" stroke-width="0" /><circle cx="410" cy="806" fill="#3cb44B" r="3.5" stroke-width="0" /><circle cx="412" cy="807" fill="#3cb44B" r="3.5" stroke-width="0" /><circle cx="424" cy="818" fill="#3cb44B" r="3.5" stroke-width="0" /><circle cx="358" cy="755" fill="#3cb44B" r="3.5" stroke-width="0" /><circle cx="417" cy="812" fill="#3cb44B" r="3.5" stroke-width="0" /><circle cx="365" cy="763" fill="#3cb44B" r="3.5" stroke-width="0" /><circle cx="322" cy="716" fill="#3cb44B" r="3.5" stroke-width="0" /><circle cx="394" cy="791" fill="#3cb44B" r="3.5" stroke-width="0" /><circle cx="341" cy="737" fill="#3cb44B" r="3.5" stroke-width="0" /><circle cx="388" cy="785" fill="#3cb44B" r="3.5" stroke-width="0" /><circle cx="357" cy="754" fill="#3cb44B" r="3.5" stroke-width="0" /><circle cx="380" cy="778" fill="#3cb44B" r="3.5" stroke-width="0" /><circle cx="356" cy="753" fill="#3cb44B" r="3.5" stroke-width="0" /><circle cx="401" cy="797" fill="#3cb44B" r="3.5" stroke-width="0" /><circle cx="426" cy="820" fill="#3cb44B" r="3.5" stroke-width="0" /><circle cx="342" cy="738" fill="#3cb44B" r="3.5" stroke-width="0" /><circle cx="392" cy="789" fill="#3cb44B" r="3.5" stroke-width="0" /><circle cx="415" cy="810" fill="#3cb44B" r="3.5" stroke-width="0" /><circle cx="336" cy="732" fill="#3cb44B" r="3.5" stroke-width="0" /><circle cx="334" cy="729" fill="#3cb44B" r="3.5" stroke-width="0" /><circle cx="383" cy="780" fill="#3cb44B" r="3.5" stroke-width="0" /><circle cx="339" cy="735" fill="#3cb44B" r="3.5" stroke-width="0" /><circle cx="407" cy="803" fill="#3cb44B" r="3.5" stroke-width="0" /><circle cx="384" cy="781" fill="#3cb44B" r="3.5" stroke-width="0" /><circle cx="423" cy="817" fill="#3cb44B" r="3.5" stroke-width="0" /><circle cx="361" cy="759" fill="#3cb44B" r="3.5" stroke-width="0" /><circle cx="335" cy="731" fill="#3cb44B" r="3.5" stroke-width="0" /><circle cx="370" cy="768" fill="#3cb44B" r="3.5" stroke-width="0" /><circle cx="327" cy="721" fill="#3cb44B" r="3.5" stroke-width="0" /><circle cx="359" cy="756" fill="#3cb44B" r="3.5" stroke-width="0" /><circle cx="385" cy="782" fill="#3cb44B" r="3.5" stroke-width="0" /><circle cx="320" cy="714" fill="#3cb44B" r="3.5" stroke-width="0" /><circle cx="421" cy="815" fill="#3cb44B" r="3.5" stroke-width="0" /><circle cx="422" cy="816" fill="#3cb44B" r="3.5" stroke-width="0" /><circle cx="355" cy="752" fill="#3cb44B" r="3.5" stroke-width="0" /><circle cx="389" cy="786" fill="#3cb44B" r="3.5" stroke-width="0" /><circle cx="333" cy="728" fill="#3cb44B" r="3.5" stroke-width="0" /><circle cx="368" cy="766" fill="#3cb44B" r="3.5" stroke-width="0" /><circle cx="346" cy="743" fill="#3cb44B" r="3.5" stroke-width="0" /><circle cx="376" cy="774" fill="#3cb44B" r="3.5" stroke-width="0" /><circle cx="416" cy="811" fill="#3cb44B" r="3.5" stroke-width="0" /></g><g class="e1"><circle cx="480" cy="862" fill="#ff0000" r="3.5" stroke-width="0" /><circle cx="485" cy="866" fill="#ff0000" r="3.5" stroke-width="0" /><circle cx="458" cy="846" fill="#ff0000" r="3.5" stroke-width="0" /><circle cx="490" cy="870" fill="#ff0000" r="3.5" stroke-width="0" /><circle cx="453" cy="842" fill="#ff0000" r="3.5" stroke-width="0" /><circle cx="487" cy="868" fill="#ff0000" r="3.5" stroke-width="0" /><circle cx="564" cy="918" fill="#ff0000" r="3.5" stroke-width="0" /><circle cx="450" cy="839" fill="#ff0000" r="3.5" stroke-width="0" /><circle cx="493" cy="872" fill="#ff0000" r="3.5" stroke-width="0" /><circle cx="464" cy="850" fill="#ff0000" r="3.5" stroke-width="0" /><circle cx="524" cy="893" fill="#ff0000" r="3.5" stroke-width="0" /><circle cx="455" cy="843" fill="#ff0000" r="3.5" stroke-width="0" /><circle cx="562" cy="917" fill="#ff0000" r="3.5" stroke-width="0" /><circle cx="512" cy="885" fill="#ff0000" r="3.5" stroke-width="0" /><circle cx="559" cy="915" fill="#ff0000" r="3.5" stroke-width="0" /><circle cx="541" cy="904" fill="#ff0000" r="3.5" stroke-width="0" /><circle cx="558" cy="914" fill="#ff0000" r="3.5" stroke-width="0" /><circle cx="435" cy="827" fill="#ff0000" r="3.5" stroke-width="0" /><circle cx="467" cy="853" fill="#ff0000" r="3.5" stroke-width="0" /><circle cx="504" cy="880" fill="#ff0000" r="3.5" stroke-width="0" /><circle cx="503" cy="879" fill="#ff0000" r="3.5" stroke-width="0" /><circle cx="560" cy="916" fill="#ff0000" r="3.5" stroke-width="0" /><circle cx="460" cy="847" fill="#ff0000" r="3.5" stroke-width="0" /><circle cx="540" cy="903" fill="#ff0000" r="3.5" stroke-width="0" /><circle cx="508" cy="882" fill="#ff0000" r="3.5" stroke-width="0" /><circle cx="474" cy="858" fill="#ff0000" r="3.5" stroke-width="0" /><circle cx="440" cy="831" fill="#ff0000" r="3.5" stroke-width="0" /><circle cx="443" cy="834" fill="#ff0000" r="3.5" stroke-width="0" /><circle cx="554" cy="912" fill="#ff0000" r="3.5" stroke-width="0" /><circle cx="515" cy="887" fill="#ff0000" r="3.5" stroke-width="0" /><circle cx="438" cy="830" fill="#ff0000" r="3.5" stroke-width="0" /><circle cx="536" cy="901" fill="#ff0000" r="3.5" stroke-width="0" /><circle cx="489" cy="869" fill="#ff0000" r="3.5" stroke-width="0" /><circle cx="532" cy="898" fill="#ff0000" r="3.5" stroke-width="0" /><circle cx="461" cy="848" fill="#ff0000" r="3.5" stroke-width="0" /><circle cx="519" cy="890" fill="#ff0000" r="3.5" stroke-width="0" /><circle cx="483" cy="865" fill="#ff0000" r="3.5" stroke-width="0" /><circle cx="430" cy="823" fill="#ff0000" r="3.5" stroke-width="0" /></g><g class="e2"><circle cx="259" cy="634" fill="#2b92db" r="3.5" stroke-width="0" /><circle cx="260" cy="635" fill="#2b92db" r="3.5" stroke-width="0" /><circle cx="295" cy="683" fill="#2b92db" r="3.5" stroke-width="0" /><circle cx="292" cy="679" fill="#2b92db" r="3.5" stroke-width="0" /><circle cx="304" cy="694" fill="#2b92db" r="3.5" stroke-width="0" /><circle cx="223" cy="577" fill="#2b92db" r="3.5" stroke-width="0" /><circle cx="248" cy="617" fill="#2b92db" r="3.5" stroke-width="0" /><circle cx="265" cy="643" fill="#2b92db" r="3.5" stroke-width="0" /><circle cx="270" cy="650" fill="#2b92db" r="3.5" stroke-width="0" /><circle cx="234" cy="596" fill="#2b92db" r="3.5" stroke-width="0" /><circle cx="243" cy="610" fill="#2b92db" r="3.5" stroke-width="0" /><circle cx="280" cy="663" fill="#2b92db" r="3.5" stroke-width="0" /><circle cx="237" cy="600" fill="#2b92db" r="3.5" stroke-width="0" /><circle cx="239" cy="604" fill="#2b92db" r="3.5" stroke-width="0" /><circle cx="301" cy="690" fill="#2b92db" r="3.5" stroke-width="0" /><circle cx="273" cy="654" fill="#2b92db" r="3.5" stroke-width="0" /><circle cx="220" cy="573" fill="#2b92db" r="3.5" stroke-width="0" /><circle cx="263" cy="640" fill="#2b92db" r="3.5" stroke-width="0" /><circle cx="284" cy="668" fill="#2b92db" r="3.5" stroke-width="0" /><circle cx="219" cy="571" fill="#2b92db" r="3.5" stroke-width="0" /><circle cx="281" cy="665" fill="#2b92db" r="3.5" stroke-width="0" /><circle cx="296" cy="684" fill="#2b92db" r="3.5" stroke-width="0" /><circle cx="226" cy="583" fill="#2b92db" r="3.5" stroke-width="0" /><circle cx="246" cy="614" fill="#2b92db" r="3.5" stroke-width="0" /><circle cx="287" cy="673" fill="#2b92db" r="3.5" stroke-width="0" /><circle cx="244" cy="612" fill="#2b92db" r="3.5" stroke-width="0" /><circle cx="275" cy="656" fill="#2b92db" r="3.5" stroke-width="0" /><circle cx="225" cy="581" fill="#2b92db" r="3.5" stroke-width="0" /><circle cx="314" cy="706" fill="#2b92db" r="3.5" stroke-width="0" /><circle cx="310" cy="702" fill="#2b92db" r="3.5" stroke-width="0" /><circle cx="303" cy="693" fill="#2b92db" r="3.5" stroke-width="0" /><circle cx="308" cy="699" fill="#2b92db" r="3.5" stroke-width="0" /><circle cx="307" cy="698" fill="#2b92db" r="3.5" stroke-width="0" /><circle cx="236" cy="599" fill="#2b92db" r="3.5" stroke-width="0" /><circle cx="254" cy="626" fill="#2b92db" r="3.5" stroke-width="0" /><circle cx="250" cy="621" fill="#2b92db" r="3.5" stroke-width="0" /><circle cx="313" cy="705" fill="#2b92db" r="3.5" stroke-width="0" /><circle cx="238" cy="602" fill="#2b92db" r="3.5" stroke-width="0" /><circle cx="279" cy="662" fill="#2b92db" r="3.5" stroke-width="0" /><circle cx="252" cy="623" fill="#2b92db" r="3.5" stroke-width="0" /><circle cx="221" cy="574" fill="#2b92db" r="3.5" stroke-width="0" /></g><g class="e3"><circle cx="703" cy="985" fill="#911eb4" r="3.5" stroke-width="0" /><circle cx="788" cy="1014" fill="#911eb4" r="3.5" stroke-width="0" /><circle cx="604" cy="940" fill="#911eb4" r="3.5" stroke-width="0" /><circle cx="698" cy="983" fill="#911eb4" r="3.5" stroke-width="0" /><circle cx="676" cy="974" fill="#911eb4" r="3.5" stroke-width="0" /><circle cx="685" cy="978" fill="#911eb4" r="3.5" stroke-width="0" /><circle cx="611" cy="944" fill="#911eb4" r="3.5" stroke-width="0" /><circle cx="649" cy="962" fill="#911eb4" r="3.5" stroke-width="0" /><circle cx="777" cy="1010" fill="#911eb4" r="3.5" stroke-width="0" /><circle cx="812" cy="1020" fill="#911eb4" r="3.5" stroke-width="0" /><circle cx="816" cy="1021" fill="#911eb4" r="3.5" stroke-width="0" /><circle cx="687" cy="979" fill="#911eb4" r="3.5" stroke-width="0" /><circle cx="773" cy="1009" fill="#911eb4" r="3.5" stroke-width="0" /><circle cx="582" cy="928" fill="#911eb4" r="3.5" stroke-width="0" /><circle cx="670" cy="972" fill="#911eb4" r="3.5" stroke-width="0" /><circle cx="692" cy="981" fill="#911eb4" r="3.5" stroke-width="0" /><circle cx="635" cy="956" fill="#911eb4" r="3.5" stroke-width="0" /><circle cx="615" cy="946" fill="#911eb4" r="3.5" stroke-width="0" /><circle cx="606" cy="941" fill="#911eb4" r="3.5" stroke-width="0" /><circle cx="645" cy="960" fill="#911eb4" r="3.5" stroke-width="0" /><circle cx="637" cy="957" fill="#911eb4" r="3.5" stroke-width="0" /><circle cx="643" cy="959" fill="#911eb4" r="3.5" stroke-width="0" /><circle cx="593" cy="934" fill="#911eb4" r="3.5" stroke-width="0" /><circle cx="664" cy="969" fill="#911eb4" r="3.5" stroke-width="0" /><circle cx="720" cy="991" fill="#911eb4" r="3.5" stroke-width="0" /><circle cx="753" cy="1003" fill="#911eb4" r="3.5" stroke-width="0" /><circle cx="819" cy="1022" fill="#911eb4" r="3.5" stroke-width="0" /><circle cx="607" cy="942" fill="#911eb4" r="3.5" stroke-width="0" /><circle cx="712" cy="989" fill="#911eb4" r="3.5" stroke-width="0" /><circle cx="574" cy="924" fill="#911eb4" r="3.5" stroke-width="0" /><circle cx="589" cy="932" fill="#911eb4" r="3.5" stroke-width="0" /><circle cx="793" cy="1015" fill="#911eb4" r="3.5" stroke-width="0" /><circle cx="690" cy="980" fill="#911eb4" r="3.5" stroke-width="0" /><circle cx="768" cy="1008" fill="#911eb4" r="3.5" stroke-width="0" /><circle cx="695" cy="982" fill="#911eb4" r="3.5" stroke-width="0" /><circle cx="701" cy="984" fill="#911eb4" r="3.5" stroke-width="0" /><circle cx="596" cy="936" fill="#911eb4" r="3.5" stroke-width="0" /><circle cx="659" cy="967" fill="#911eb4" r="3.5" stroke-width="0" /><circle cx="669" cy="971" fill="#911eb4" r="3.5" stroke-width="0" /><circle cx="803" cy="1018" fill="#911eb4" r="3.5" stroke-width="0" /><circle cx="674" cy="973" fill="#911eb4" r="3.5" stroke-width="0" /><circle cx="781" cy="1012" fill="#911eb4" r="3.5" stroke-width="0" /><circle cx="594" cy="935" fill="#911eb4" r="3.5" stroke-width="0" /><circle cx="808" cy="1019" fill="#911eb4" r="3.5" stroke-width="0" /><circle cx="578" cy="926" fill="#911eb4" r="3.5" stroke-width="0" /><circle cx="711" cy="988" fill="#911eb4" r="3.5" stroke-width="0" /><circle cx="602" cy="939" fill="#911eb4" r="3.5" stroke-width="0" /><circle cx="761" cy="1005" fill="#911eb4" r="3.5" stroke-width="0" /><circle cx="600" cy="938" fill="#911eb4" r="3.5" stroke-width="0" /><circle cx="750" cy="1002" fill="#911eb4" r="3.5" stroke-width="0" /><circle cx="795" cy="1016" fill="#911eb4" r="3.5" stroke-width="0" /><circle cx="579" cy="927" fill="#911eb4" r="3.5" stroke-width="0" /><circle cx="733" cy="996" fill="#911eb4" r="3.5" stroke-width="0" /><circle cx="627" cy="952" fill="#911eb4" r="3.5" stroke-width="0" /><circle cx="584" cy="929" fill="#911eb4" r="3.5" stroke-width="0" /><circle cx="658" cy="966" fill="#911eb4" r="3.5" stroke-width="0" /><circle cx="716" cy="990" fill="#911eb4" r="3.5" stroke-width="0" /><circle cx="654" cy="965" fill="#911eb4" r="3.5" stroke-width="0" /><circle cx="765" cy="1007" fill="#911eb4" r="3.5" stroke-width="0" /><circle cx="679" cy="975" fill="#911eb4" r="3.5" stroke-width="0" /></g><g class="e4"><circle cx="172" cy="479" fill="#3cb44B" r="3.5" stroke-width="0" /><circle cx="149" cy="420" fill="#3cb44B" r="3.5" stroke-width="0" /><circle cx="204" cy="544" fill="#3cb44B" r="3.5" stroke-width="0" /><circle cx="177" cy="490" fill="#3cb44B" r="3.5" stroke-width="0" /><circle cx="127" cy="355" fill="#3cb44B" r="3.5" stroke-width="0" /><circle cx="162" cy="455" fill="#3cb44B" r="3.5" stroke-width="0" /><circle cx="166" cy="464" fill="#3cb44B" r="3.5" stroke-width="0" /><circle cx="119" cy="326" fill="#3cb44B" r="3.5" stroke-width="0" /><circle cx="136" cy="383" fill="#3cb44B" r="3.5" stroke-width="0" /><circle cx="194" cy="524" fill="#3cb44B" r="3.5" stroke-width="0" /><circle cx="203" cy="542" fill="#3cb44B" r="3.5" stroke-width="0" /><circle cx="158" cy="446" fill="#3cb44B" r="3.5" stroke-width="0" /><circle cx="183" cy="503" fill="#3cb44B" r="3.5" stroke-width="0" /><circle cx="126" cy="352" fill="#3cb44B" r="3.5" stroke-width="0" /><circle cx="207" cy="550" fill="#3cb44B" r="3.5" stroke-width="0" /><circle cx="174" cy="483" fill="#3cb44B" r="3.5" stroke-width="0" /><circle cx="190" cy="517" fill="#3cb44B" r="3.5" stroke-width="0" /><circle cx="135" cy="380" fill="#3cb44B" r="3.5" stroke-width="0" /><circle cx="189" cy="515" fill="#3cb44B" r="3.5" stroke-width="0" /><circle cx="188" cy="512" fill="#3cb44B" r="3.5" stroke-width="0" /><circle cx="187" cy="511" fill="#3cb44B" r="3.5" stroke-width="0" /><circle cx="153" cy="433" fill="#3cb44B" r="3.5" stroke-width="0" /><circle cx="159" cy="448" fill="#3cb44B" r="3.5" stroke-width="0" /><circle cx="145" cy="410" fill="#3cb44B" r="3.5" stroke-width="0" /><circle cx="176" cy="487" fill="#3cb44B" r="3.5" stroke-width="0" /><circle cx="197" cy="530" fill="#3cb44B" r="3.5" stroke-width="0" /><circle cx="198" cy="532" fill="#3cb44B" r="3.5" stroke-width="0" /><circle cx="163" cy="457" fill="#3cb44B" r="3.5" stroke-width="0" /><circle cx="165" cy="461" fill="#3cb44B" r="3.5" stroke-width="0" /><circle cx="128" cy="357" fill="#3cb44B" r="3.5" stroke-width="0" /><circle cx="133" cy="373" fill="#3cb44B" r="3.5" stroke-width="0" /><circle cx="141" cy="398" fill="#3cb44B" r="3.5" stroke-width="0" /><circle cx="137" cy="387" fill="#3cb44B" r="3.5" stroke-width="0" /><circle cx="123" cy="338" fill="#3cb44B" r="3.5" stroke-width="0" /><circle cx="132" cy="372" fill="#3cb44B" r="3.5" stroke-width="0" /><circle cx="181" cy="499" fill="#3cb44B" r="3.5" stroke-width="0" /><circle cx="118" cy="322" fill="#3cb44B" r="3.5" stroke-width="0" /><circle cx="121" cy="331" fill="#3cb44B" r="3.5" stroke-width="0" /><circle cx="213" cy="560" fill="#3cb44B" r="3.5" stroke-width="0" /><circle cx="196" cy="529" fill="#3cb44B" r="3.5" stroke-width="0" /><circle cx="147" cy="416" fill="#3cb44B" r="3.5" stroke-width="0" /><circle cx="191" cy="518" fill="#3cb44B" r="3.5" stroke-width="0" /><circle cx="154" cy="435" fill="#3cb44B" r="3.5" stroke-width="0" /><circle cx="180" cy="496" fill="#3cb44B" r="3.5" stroke-width="0" /><circle cx="192" cy="520" fill="#3cb44B" r="3.5" stroke-width="0" /><circle cx="156" cy="439" fill="#3cb44B" r="3.5" stroke-width="0" /><circle cx="175" cy="485" fill="#3cb44B" r="3.5" stroke-width="0" /><circle cx="199" cy="534" fill="#3cb44B" r="3.5" stroke-width="0" /><circle cx="184" cy="504" fill="#3cb44B" r="3.5" stroke-width="0" /><circle cx="130" cy="365" fill="#3cb44B" r="3.5" stroke-width="0" /><circle cx="134" cy="378" fill="#3cb44B" r="3.5" stroke-width="0" /><circle cx="206" cy="547" fill="#3cb44B" r="3.5" stroke-width="0" /><circle cx="179" cy="494" fill="#3cb44B" r="3.5" stroke-width="0" /><circle cx="208" cy="551" fill="#3cb44B" r="3.5" stroke-width="0" /><circle cx="171" cy="477" fill="#3cb44B" r="3.5" stroke-width="0" /><circle cx="152" cy="430" fill="#3cb44B" r="3.5" stroke-width="0" /><circle cx="124" cy="342" fill="#3cb44B" r="3.5" stroke-width="0" /><circle cx="195" cy="526" fill="#3cb44B" r="3.5" stroke-width="0" /></g><g class="e5"><circle cx="855" cy="1030" fill="#ff0000" r="3.5" stroke-width="0" /><circle cx="858" cy="1031" fill="#ff0000" r="3.5" stroke-width="0" /><circle cx="1021" cy="1050" fill="#ff0000" r="3.5" stroke-width="0" /><circle cx="962" cy="1046" fill="#ff0000" r="3.5" stroke-width="0" /><circle cx="976" cy="1047" fill="#ff0000" r="3.5" stroke-width="0" /><circle cx="1006" cy="1049" fill="#ff0000" r="3.5" stroke-width="0" /><circle cx="877" cy="1034" fill="#ff0000" r="3.5" stroke-width="0" /><circle cx="933" cy="1043" fill="#ff0000" r="3.5" stroke-width="0" /><circle cx="912" cy="1040" fill="#ff0000" r="3.5" stroke-width="0" /><circle cx="864" cy="1032" fill="#ff0000" r="3.5" stroke-width="0" /><circle cx="839" cy="1027" fill="#ff0000" r="3.5" stroke-width="0" /><circle cx="982" cy="1048" fill="#ff0000" r="3.5" stroke-width="0" /><circle cx="953" cy="1045" fill="#ff0000" r="3.5" stroke-width="0" /><circle cx="836" cy="1026" fill="#ff0000" r="3.5" stroke-width="0" /><circle cx="946" cy="1044" fill="#ff0000" r="3.5" stroke-width="0" /><circle cx="822" cy="1023" fill="#ff0000" r="3.5" stroke-width="0" /><circle cx="894" cy="1037" fill="#ff0000" r="3.5" stroke-width="0" /><circle cx="917" cy="1041" fill="#ff0000" r="3.5" stroke-width="0" /><circle cx="926" cy="1042" fill="#ff0000" r="3.5" stroke-width="0" /><circle cx="882" cy="1035" fill="#ff0000" r="3.5" stroke-width="0" /><circle cx="869" cy="1033" fill="#ff0000" r="3.5" stroke-width="0" /><circle cx="826" cy="1024" fill="#ff0000" r="3.5" stroke-width="0" /><circle cx="898" cy="1038" fill="#ff0000" r="3.5" stroke-width="0" /><circle cx="886" cy="1036" fill="#ff0000" r="3.5" stroke-width="0" /><circle cx="852" cy="1029" fill="#ff0000" r="3.5" stroke-width="0" /><circle cx="847" cy="1028" fill="#ff0000" r="3.5" stroke-width="0" /><circle cx="831" cy="1025" fill="#ff0000" r="3.5" stroke-width="0" /></g><g class="e6"><circle cx="90" cy="108" fill="#2b92db" r="3.5" stroke-width="0" /><circle cx="99" cy="219" fill="#2b92db" r="3.5" stroke-width="0" /><circle cx="98" cy="215" fill="#2b92db" r="3.5" stroke-width="0" /><circle cx="91" cy="131" fill="#2b92db" r="3.5" stroke-width="0" /><circle cx="92" cy="147" fill="#2b92db" r="3.5" stroke-width="0" /><circle cx="94" cy="174" fill="#2b92db" r="3.5" stroke-width="0" /><circle cx="116" cy="310" fill="#2b92db" r="3.5" stroke-width="0" /><circle cx="107" cy="268" fill="#2b92db" r="3.5" stroke-width="0" /><circle cx="105" cy="260" fill="#2b92db" r="3.5" stroke-width="0" /><circle cx="104" cy="256" fill="#2b92db" r="3.5" stroke-width="0" /><circle cx="111" cy="288" fill="#2b92db" r="3.5" stroke-width="0" /><circle cx="114" cy="305" fill="#2b92db" r="3.5" stroke-width="0" /><circle cx="97" cy="202" fill="#2b92db" r="3.5" stroke-width="0" /><circle cx="96" cy="198" fill="#2b92db" r="3.5" stroke-width="0" /><circle cx="95" cy="185" fill="#2b92db" r="3.5" stroke-width="0" /><circle cx="115" cy="308" fill="#2b92db" r="3.5" stroke-width="0" /><circle cx="112" cy="295" fill="#2b92db" r="3.5" stroke-width="0" /><circle cx="113" cy="300" fill="#2b92db" r="3.5" stroke-width="0" /><circle cx="100" cy="225" fill="#2b92db" r="3.5" stroke-width="0" /><circle cx="103" cy="246" fill="#2b92db" r="3.5" stroke-width="0" /><circle cx="101" cy="237" fill="#2b92db" r="3.5" stroke-width="0" /><circle cx="93" cy="170" fill="#2b92db" r="3.5" stroke-width="0" /><circle cx="102" cy="242" fill="#2b92db" r="3.5" stroke-width="0" /><circle cx="109" cy="278" fill="#2b92db" r="3.5" stroke-width="0" /></g></g></g></svg>