<?xml version="1.0" encoding="utf-8" ?>
<svg baseProfile="full" height="1140px" style="font-size:15;font-family:Arial, san-serif;font-weight:bold;stroke:black;stroke-width:0;fill:#444444" version="1.1" width="1140px" xmlns="http://www.w3.org/2000/svg" xmlns:ev="http://www.w3.org/2001/xml-events" xmlns:xlink="http://www.w3.org/1999/xlink"><defs><clipPath id="areadografico"><rect height="1000" width="1000" x="70" y="70" /></clipPath></defs><g class="master"><g class="poligonos"><polygon clip-path="url(#areadografico)" fill="#000000" fill-opacity="0.1" points="70,1070 70,870 269,871 270,670 469,671 470,470 669,471 670,270 869,271 870,70 1069,71 1069,71 1069,271 869,271 869,471 669,471 669,671 469,671 469,871 269,871 270,1070" /><polygon clip-path="url(#areadografico)" fill="#ffffff" fill-opacity="0.1" points="270,1070 270,870 469,871 470,670 669,671 670,470 869,471 870,270 1069,271 1069,271 1069,471 869,471 869,671 669,671 669,871 469,871 470,1070" /><polygon clip-path="url(#areadografico)" fill="#000000" fill-opacity="0.1" points="70,870 270,870 269,671 470,670 469,471 670,470 669,271 870,270 869,71 869,71 669,71 669,271 469,271 469,471 269,471 269,671 70,670" /><polygon clip-path="url(#areadografico)" fill="#ff0000" fill-opacity="0.1" points="470,1070 470,870 669,871 670,670 869,671 870,470 1069,471 1069,471 1069,671 869,671 869,871 669,871 670,1070" /><polygon clip-path="url(#areadografico)" fill="#000000" fill-opacity="0.1" points="70,670 270,670 269,471 470,470 469,271 670,270 669,71 669,71 469,71 469,271 269,271 269,471 70,470" /><polygon clip-path="url(#areadografico)" fill="#ffffff" fill-opacity="0.1" points="670,1070 670,870 869,871 870,670 1069,671 1069,671 1069,871 869,871 870,1070" /><polygon clip-path="url(#areadografico)" fill="#000000" fill-opacity="0.1" points="70,470 270,470 269,271 470,270 469,71 469,71 269,71 269,271 70,270" /><polygon clip-path="url(#areadografico)" fill="#ff0000" fill-opacity="0.1" points="870,1070 870,870 1069,871 1069,1070" /><polygon clip-path="url(#areadografico)" fill="#000000" fill-opacity="0.1" points="70,270 270,270 269,71 70,71" /></g><g class="linhas"><line fill-opacity="0.3" stroke="#999999" stroke-width="1" x1="1070" x2="1070" y1="1070" y2="70" /><line fill-opacity="0.3" stroke="#999999" stroke-width="1" x1="70" x2="1070" y1="70" y2="70" /><line fill-opacity="0.3" stroke="#999999" stroke-width="1" x1="970" x2="970" y1="1070" y2="70" /><line fill-opacity="0.3" stroke="#999999" stroke-width="1" x1="70" x2="1070" y1="170" y2="170" /><line fill-opacity="0.3" stroke="#999999" stroke-width="1" x1="870" x2="870" y1="1070" y2="70" /><line fill-opacity="0.3" stroke="#999999" stroke-width="1" x1="70" x2="1070" y1="270" y2="270" /><line fill-opacity="0.3" stroke="#999999" stroke-width="1" x1="770" x2="770" y1="1070" y2="70" /><line fill-opacity="0.3" stroke="#999999" stroke-width="1" x1="70" x2="1070" y1="370" y2="370" /><line fill-opacity="0.3" stroke="#999999" stroke-width="1" x1="670" x2="670" y1="1070" y2="70" /><line fill-opacity="0.3" stroke="#999999" stroke-width="1" x1="70" x2="1070" y1="470" y2="470" /><line fill-opacity="0.3" stroke="#999999" stroke-width="1" x1="570" x2="570" y1="1070" y2="70" /><line fill-opacity="0.3" stroke="#999999" stroke-width="1" x1="70" x2="1070" y1="570" y2="570" /><line fill-opacity="0.3" stroke="#999999" stroke-width="1" x1="470" x2="470" y1="1070" y2="70" /><line fill-opacity="0.3" stroke="#999999" stroke-width="1" x1="70" x2="1070" y1="670" y2="670" /><line fill-opacity="0.3" stroke="#999999" stroke-width="1" x1="370" x2="370" y1="1070" y2="70" /><line fill-opacity="0.3" stroke="#999999" stroke-width="1" x1="70" x2="1070" y1="770" y2="770" /><line fill-opacity="0.3" stroke="#999999" stroke-width="1" x1="270" x2="270" y1="1070" y2="70" /><line fill-opacity="0.3" stroke="#999999" stroke-width="1" x1="70" x2="1070" y1="870" y2="870" /><line fill-opacity="0.3" stroke="#999999" stroke-width="1" x1="170" x2="170" y1="1070" y2="70" /><line fill-opacity="0.3" stroke="#999999" stroke-width="1" x1="70" x2="1070" y1="970" y2="970" /><line fill-opacity="0.3" stroke="#000000" stroke-width="1" x1="70" x2="70" y1="1071" y2="69" /><line fill-opacity="0.3" stroke="#000000" stroke-width="1" x1="69" x2="1071" y1="1070" y2="1070" /></g><g class="textos"><text x="1050" y="1110">1000</text><text x="10" y="71">1000</text><text x="950" y="1110">900</text><text x="10" y="171">900</text><text x="850" y="1110">800</text><text x="10" y="271">800</text><text x="750" y="1110">700</text><text x="10" y="371">700</text><text x="650" y="1110">600</text><text x="10" y="471">600</text><text x="550" y="1110">500</text><text x="10" y="571">500</text><text x="450" y="1110">400</text><text x="10" y="671">400</text><text x="350" y="1110">300</text><text x="10" y="771">300</text><text x="250" y="1110">200</text><text x="10" y="871">200</text><text x="150" y="1110">100</text><text x="10" y="971">100</text><text x="50" y="1111">0</text><text x="9" y="1071">0</text></g><g class="especies"><g class="e0"><circle cx="462" cy="849" fill="#3cb44B" r="3.5" stroke-width="0" /><circle cx="453" cy="842" fill="#3cb44B" r="3.5" stroke-width="0" /><circle cx="444" cy="835" fill="#3cb44B" r="3.5" stroke-width="0" /><circle cx="436" cy="828" fill="#3cb44B" r="3.5" stroke-width="0" /><circle cx="426" cy="820" fill="#3cb44B" r="3.5" stroke-width="0" /><circle cx="419" cy="813" fill="#3cb44B" r="3.5" stroke-width="0" /><circle cx="409" cy="805" fill="#3cb44B" r="3.5" stroke-width="0" /><circle cx="401" cy="797" fill="#3cb44B" r="3.5" stroke-width="0" /><circle cx="392" cy="789" fill="#3cb44B" r="3.5" stroke-width="0" /><circle cx="383" cy="780" fill="#3cb44B" r="3.5" stroke-width="0" /><circle cx="374" cy="772" fill="#3cb44B" r="3.5" stroke-width="0" /><circle cx="367" cy="765" fill="#3cb44B" r="3.5" stroke-width="0" /><circle cx="359" cy="756" fill="#3cb44B" r="3.5" stroke-width="0" /><circle cx="350" cy="747" fill="#3cb44B" r="3.5" stroke-width="0" /><circle cx="342" cy="738" fill="#3cb44B" r="3.5" stroke-width="0" /><circle cx="334" cy="730" fill="#3cb44B" r="3.5" stroke-width="0" /><circle cx="327" cy="721" fill="#3cb44B" r="3.5" stroke-width="0" /><circle cx="319" cy="712" fill="#3cb44B" r="3.5" stroke-width="0" /><circle cx="311" cy="703" fill="#3cb44B" r="3.5" stroke-width="0" /><circle cx="304" cy="694" fill="#3cb44B" r="3.5" stroke-width="0" /><circle cx="297" cy="686" fill="#3cb44B" r="3.5" stroke-width="0" /><circle cx="290" cy="677" fill="#3cb44B" r="3.5" stroke-width="0" /></g><g class="e1"><circle cx="487" cy="868" fill="#ff0000" r="3.5" stroke-width="0" /><circle cx="479" cy="862" fill="#ff0000" r="3.5" stroke-width="0" /><circle cx="472" cy="856" fill="#ff0000" r="3.5" stroke-width="0" /></g><g class="e2"><circle cx="284" cy="668" fill="#2b92db" r="3.5" stroke-width="0" /><circle cx="277" cy="659" fill="#2b92db" r="3.5" stroke-width="0" /><circle cx="271" cy="651" fill="#2b92db" r="3.5" stroke-width="0" /></g><g class="e3"><circle cx="664" cy="969" fill="#911eb4" r="3.5" stroke-width="0" /><circle cx="655" cy="965" fill="#911eb4" r="3.5" stroke-width="0" /><circle cx="647" cy="961" fill="#911eb4" r="3.5" stroke-width="0" /><circle cx="637" cy="957" fill="#911eb4" r="3.5" stroke-width="0" /><circle cx="630" cy="953" fill="#911eb4" r="3.5" stroke-width="0" /><circle cx="619" cy="948" fill="#911eb4" r="3.5" stroke-width="0" /><circle cx="612" cy="944" fill="#911eb4" r="3.5" stroke-width="0" /><circle cx="604" cy="940" fill="#911eb4" r="3.5" stroke-width="0" /><circle cx="595" cy="935" fill="#911eb4" r="3.5" stroke-width="0" /><circle cx="586" cy="930" fill="#911eb4" r="3.5" stroke-width="0" /><circle cx="577" cy="925" fill="#911eb4" r="3.5" stroke-width="0" /><circle cx="568" cy="920" fill="#911eb4" r="3.5" stroke-width="0" /><circle cx="559" cy="915" fill="#911eb4" r="3.5" stroke-width="0" /><circle cx="551" cy="910" fill="#911eb4" r="3.5" stroke-width="0" /><circle cx="541" cy="904" fill="#911eb4" r="3.5" stroke-width="0" /><circle cx="531" cy="898" fill="#911eb4" r="3.5" stroke-width="0" /><circle cx="524" cy="893" fill="#911eb4" r="3.5" stroke-width="0" /><circle cx="515" cy="887" fill="#911eb4" r="3.5" stroke-width="0" /><circle cx="506" cy="881" fill="#911eb4" r="3.5" stroke-width="0" /><circle cx="498" cy="875" fill="#911eb4" r="3.5" stroke-width="0" /></g><g class="e4"><circle cx="265" cy="642" fill="#3cb44B" r="3.5" stroke-width="0" /><circle cx="258" cy="633" fill="#3cb44B" r="3.5" stroke-width="0" /><circle cx="252" cy="624" fill="#3cb44B" r="3.5" stroke-width="0" /><circle cx="246" cy="615" fill="#3cb44B" r="3.5" stroke-width="0" /><circle cx="241" cy="607" fill="#3cb44B" r="3.5" stroke-width="0" /><circle cx="235" cy="598" fill="#3cb44B" r="3.5" stroke-width="0" /><circle cx="230" cy="589" fill="#3cb44B" r="3.5" stroke-width="0" /><circle cx="224" cy="580" fill="#3cb44B" r="3.5" stroke-width="0" /><circle cx="220" cy="572" fill="#3cb44B" r="3.5" stroke-width="0" /><circle cx="215" cy="563" fill="#3cb44B" r="3.5" stroke-width="0" /><circle cx="210" cy="554" fill="#3cb44B" r="3.5" stroke-width="0" /><circle cx="205" cy="545" fill="#3cb44B" r="3.5" stroke-width="0" /><circle cx="200" cy="536" fill="#3cb44B" r="3.5" stroke-width="0" /><circle cx="196" cy="528" fill="#3cb44B" r="3.5" stroke-width="0" /><circle cx="191" cy="519" fill="#3cb44B" r="3.5" stroke-width="0" /><circle cx="187" cy="510" fill="#3cb44B" r="3.5" stroke-width="0" /><circle cx="182" cy="501" fill="#3cb44B" r="3.5" stroke-width="0" /><circle cx="179" cy="493" fill="#3cb44B" r="3.5" stroke-width="0" /><circle cx="175" cy="484" fill="#3cb44B" r="3.5" stroke-width="0" /><circle cx="171" cy="475" fill="#3cb44B" r="3.5" stroke-width="0" /></g><g class="e5"><circle cx="864" cy="1032" fill="#ff0000" r="3.5" stroke-width="0" /><circle cx="853" cy="1030" fill="#ff0000" r="3.5" stroke-width="0" /><circle cx="852" cy="1029" fill="#ff0000" r="3.5" stroke-width="0" /><circle cx="843" cy="1027" fill="#ff0000" r="3.5" stroke-width="0" /><circle cx="834" cy="1025" fill="#ff0000" r="3.5" stroke-width="0" /><circle cx="825" cy="1023" fill="#ff0000" r="3.5" stroke-width="0" /><circle cx="810" cy="1020" fill="#ff0000" r="3.5" stroke-width="0" /><circle cx="805" cy="1018" fill="#ff0000" r="3.5" stroke-width="0" /><circle cx="797" cy="1016" fill="#ff0000" r="3.5" stroke-width="0" /><circle cx="785" cy="1013" fill="#ff0000" r="3.5" stroke-width="0" /><circle cx="780" cy="1011" fill="#ff0000" r="3.5" stroke-width="0" /><circle cx="769" cy="1008" fill="#ff0000" r="3.5" stroke-width="0" /><circle cx="759" cy="1005" fill="#ff0000" r="3.5" stroke-width="0" /><circle cx="754" cy="1003" fill="#ff0000" r="3.5" stroke-width="0" /><circle cx="745" cy="1000" fill="#ff0000" r="3.5" stroke-width="0" /><circle cx="736" cy="997" fill="#ff0000" r="3.5" stroke-width="0" /><circle cx="723" cy="993" fill="#ff0000" r="3.5" stroke-width="0" /><circle cx="715" cy="990" fill="#ff0000" r="3.5" stroke-width="0" /><circle cx="708" cy="987" fill="#ff0000" r="3.5" stroke-width="0" /><circle cx="701" cy="984" fill="#ff0000" r="3.5" stroke-width="0" /><circle cx="690" cy="980" fill="#ff0000" r="3.5" stroke-width="0" /><circle cx="680" cy="976" fill="#ff0000" r="3.5" stroke-width="0" /><circle cx="674" cy="973" fill="#ff0000" r="3.5" stroke-width="0" /></g><g class="e6"><circle cx="167" cy="466" fill="#2b92db" r="3.5" stroke-width="0" /><circle cx="163" cy="458" fill="#2b92db" r="3.5" stroke-width="0" /><circle cx="160" cy="449" fill="#2b92db" r="3.5" stroke-width="0" /><circle cx="156" cy="440" fill="#2b92db" r="3.5" stroke-width="0" /><circle cx="153" cy="431" fill="#2b92db" r="3.5" stroke-width="0" /><circle cx="149" cy="422" fill="#2b92db" r="3.5" stroke-width="0" /><circle cx="146" cy="414" fill="#2b92db" r="3.5" stroke-width="0" /><circle cx="143" cy="405" fill="#2b92db" r="3.5" stroke-width="0" /><circle cx="140" cy="396" fill="#2b92db" r="3.5" stroke-width="0" /><circle cx="137" cy="387" fill="#2b92db" r="3.5" stroke-width="0" /><circle cx="135" cy="379" fill="#2b92db" r="3.5" stroke-width="0" /><circle cx="132" cy="370" fill="#2b92db" r="3.5" stroke-width="0" /><circle cx="129" cy="361" fill="#2b92db" r="3.5" stroke-width="0" /><circle cx="126" cy="352" fill="#2b92db" r="3.5" stroke-width="0" /><circle cx="124" cy="343" fill="#2b92db" r="3.5" stroke-width="0" /><circle cx="122" cy="335" fill="#2b92db" r="3.5" stroke-width="0" /><circle cx="119" cy="326" fill="#2b92db" r="3.5" stroke-width="0" /><circle cx="117" cy="317" fill="#2b92db" r="3.5" stroke-width="0" /><circle cx="115" cy="308" fill="#2b92db" r="3.5" stroke-width="0" /><circle cx="113" cy="300" fill="#2b92db" r="3.5" stroke-width="0" /><circle cx="111" cy="291" fill="#2b92db" r="3.5" stroke-width="0" /><circle cx="109" cy="282" fill="#2b92db" r="3.5" stroke-width="0" /><circle cx="108" cy="273" fill="#2b92db" r="3.5" stroke-width="0" /></g><g class="e7"><circle cx="1020" cy="1050" fill="#911eb4" r="3.5" stroke-width="0" /><circle cx="1029" cy="1050" fill="#911eb4" r="3.5" stroke-width="0" /><circle cx="1038" cy="1050" fill="#911eb4" r="3.5" stroke-width="0" /><circle cx="1046" cy="1050" fill="#911eb4" r="3.5" stroke-width="0" /><circle cx="1001" cy="1049" fill="#911eb4" r="3.5" stroke-width="0" /><circle cx="1010" cy="1049" fill="#911eb4" r="3.5" stroke-width="0" /><circle cx="1019" cy="1049" fill="#911eb4" r="3.5" stroke-width="0" /><circle cx="988" cy="1048" fill="#911eb4" r="3.5" stroke-width="0" /><circle cx="969" cy="1047" fill="#911eb4" r="3.5" stroke-width="0" /><circle cx="978" cy="1047" fill="#911eb4" r="3.5" stroke-width="0" /><circle cx="964" cy="1046" fill="#911eb4" r="3.5" stroke-width="0" /><circle cx="952" cy="1045" fill="#911eb4" r="3.5" stroke-width="0" /><circle cx="941" cy="1044" fill="#911eb4" r="3.5" stroke-width="0" /><circle cx="933" cy="1043" fill="#911eb4" r="3.5" stroke-width="0" /><circle cx="926" cy="1042" fill="#911eb4" r="3.5" stroke-width="0" /><circle cx="920" cy="1041" fill="#911eb4" r="3.5" stroke-width="0" /><circle cx="914" cy="1040" fill="#911eb4" r="3.5" stroke-width="0" /><circle cx="896" cy="1038" fill="#911eb4" r="3.5" stroke-width="0" /><circle cx="893" cy="1037" fill="#911eb4" r="3.5" stroke-width="0" /><circle cx="879" cy="1035" fill="#911eb4" r="3.5" stroke-width="0" /><circle cx="876" cy="1034" fill="#911eb4" r="3.5" stroke-width="0" /></g><g class="e8"><circle cx="106" cy="264" fill="#3cb44B" r="3.5" stroke-width="0" /><circle cx="104" cy="256" fill="#3cb44B" r="3.5" stroke-width="0" /><circle cx="103" cy="247" fill="#3cb44B" r="3.5" stroke-width="0" /><circle cx="101" cy="238" fill="#3cb44B" r="3.5" stroke-width="0" /><circle cx="100" cy="229" fill="#3cb44B" r="3.5" stroke-width="0" /><circle cx="99" cy="221" fill="#3cb44B" r="3.5" stroke-width="0" /><circle cx="98" cy="212" fill="#3cb44B" r="3.5" stroke-width="0" /><circle cx="97" cy="203" fill="#3cb44B" r="3.5" stroke-width="0" /><circle cx="96" cy="194" fill="#3cb44B" r="3.5" stroke-width="0" /><circle cx="95" cy="186" fill="#3cb44B" r="3.5" stroke-width="0" /><circle cx="94" cy="177" fill="#3cb44B" r="3.5" stroke-width="0" /><circle cx="93" cy="168" fill="#3cb44B" r="3.5" stroke-width="0" /><circle cx="92" cy="159" fill="#3cb44B" r="3.5" stroke-width="0" /><circle cx="92" cy="150" fill="#3cb44B" r="3.5" stroke-width="0" /><circle cx="91" cy="142" fill="#3cb44B" r="3.5" stroke-width="0" /><circle cx="91" cy="133" fill="#3cb44B" r="3.5" stroke-width="0" /><circle cx="91" cy="124" fill="#3cb44B" r="3.5" stroke-width="0" /><circle cx="90" cy="115" fill="#3cb44B" r="3.5" stroke-width="0" /><circle cx="90" cy="107" fill="#3cb44B" r="3.5" stroke-width="0" /><circle cx="90" cy="98" fill="#3cb44B" r="3.5" stroke-width="0" /></g></g></g></svg>