<?xml version="1.0" encoding="utf-8" ?>
<svg baseProfile="full" height="1140px" style="font-size:15;font-family:Arial, san-serif;font-weight:bold;stroke:black;stroke-width:0;fill:#444444" version="1.1" width="1140px" xmlns="http://www.w3.org/2000/svg" xmlns:ev="http://www.w3.org/2001/xml-events" xmlns:xlink="http://www.w3.org/1999/xlink"><defs><clipPath id="areadografico"><rect height="1000" width="1000" x="70" y="70" /></clipPath></defs><g class="master"><g class="poligonos"><polygon clip-path="url(#areadografico)" fill="#000000" fill-opacity="0.1" points="70,1070 70,970 169,971 170,870 269,871 270,770 369,771 370,670 469,671 470,570 569,571 570,470 669,471 670,370 769,371 770,270 869,271 870,170 969,171 970,70 1069,71 1069,71 1069,171 969,171 969,271 869,271 869,371 769,371 769,471 669,471 669,571 569,571 569,671 469,671 469,771 369,771 369,871 269,871 269,971 169,971 170,1070" /><polygon clip-path="url(#areadografico)" fill="#ffffff" fill-opacity="0.1" points="170,1070 170,970 269,971 270,870 369,871 370,770 469,771 470,670 569,671 570,570 669,571 670,470 769,471 770,370 869,371 870,270 969,271 970,170 1069,171 1069,171 1069,271 969,271 969,371 869,371 869,471 769,471 769,571 669,571 669,671 569,671 569,771 469,771 469,871 369,871 369,971 269,971 270,1070" /><polygon clip-path="url(#areadografico)" fill="#000000" fill-opacity="0.1" points="70,970 170,970 169,871 270,870 269,771 370,770 369,671 470,670 469,571 570,570 569,471 670,470 669,371 770,370 769,271 870,270 869,171 970,170 969,71 969,71 869,71 869,171 769,171 769,271 669,271 669,371 569,371 569,471 469,471 469,571 369,571 369,671 269,671 269,771 169,771 169,871 70,870" /><polygon clip-path="url(#areadografico)" fill="#ffffff" fill-opacity="0.1" points="270,1070 270,970 369,971 370,870 469,871 470,770 569,771 570,670 669,671 670,570 769,571 770,470 869,471 870,370 969,371 970,270 1069,271 1069,271 1069,371 969,371 969,471 869,471 869,571 769,571 769,671 669,671 669,771 569,771 569,871 469,871 469,971 369,971 370,1070" /><polygon clip-path="url(#areadografico)" fill="#ff0000" fill-opacity="0.1" points="70,870 170,870 169,771 270,770 269,671 370,670 369,571 470,570 469,471 570,470 569,371 670,370 669,271 770,270 769,171 870,170 869,71 869,71 769,71 769,171 669,171 669,271 569,271 569,371 469,371 469,471 369,471 369,571 269,571 269,671 169,671 169,771 70,770" /><polygon clip-path="url(#areadografico)" fill="#000000" fill-opacity="0.1" points="370,1070 370,970 469,971 470,870 569,871 570,770 669,771 670,670 769,671 770,570 869,571 870,470 969,471 970,370 1069,371 1069,371 1069,471 969,471 969,571 869,571 869,671 769,671 769,771 669,771 669,871 569,871 569,971 469,971 470,1070" /><polygon clip-path="url(#areadografico)" fill="#ffffff" fill-opacity="0.1" points="70,770 170,770 169,671 270,670 269,571 370,570 369,471 470,470 469,371 570,370 569,271 670,270 669,171 770,170 769,71 769,71 669,71 669,171 569,171 569,271 469,271 469,371 369,371 369,471 269,471 269,571 169,571 169,671 70,670" /><polygon clip-path="url(#areadografico)" fill="#000000" fill-opacity="0.1" points="470,1070 470,970 569,971 570,870 669,871 670,770 769,771 770,670 869,671 870,570 969,571 970,470 1069,471 1069,471 1069,571 969,571 969,671 869,671 869,771 769,771 769,871 669,871 669,971 569,971 570,1070" /><polygon clip-path="url(#areadografico)" fill="#ffffff" fill-opacity="0.1" points="70,670 170,670 169,571 270,570 269,471 370,470 369,371 470,370 469,271 570,270 569,171 670,170 669,71 669,71 569,71 569,171 469,171 469,271 369,271 369,371 269,371 269,471 169,471 169,571 70,570" /><polygon clip-path="url(#areadografico)" fill="#ff0000" fill-opacity="0.1" points="570,1070 570,970 669,971 670,870 769,871 770,770 869,771 870,670 969,671 970,570 1069,571 1069,571 1069,671 969,671 969,771 869,771 869,871 769,871 769,971 669,971 670,1070" /><polygon clip-path="url(#areadografico)" fill="#000000" fill-opacity="0.1" points="70,570 170,570 169,471 270,470 269,371 370,370 369,271 470,270 469,171 570,170 569,71 569,71 469,71 469,171 369,171 369,271 269,271 269,371 169,371 169,471 70,470" /><polygon clip-path="url(#areadografico)" fill="#ffffff" fill-opacity="0.1" points="670,1070 670,970 769,971 770,870 869,871 870,770 969,771 970,670 1069,671 1069,671 1069,771 969,771 969,871 869,871 869,971 769,971 770,1070" /><polygon clip-path="url(#areadografico)" fill="#000000" fill-opacity="0.1" points="70,470 170,470 169,371 270,370 269,271 370,270 369,171 470,170 469,71 469,71 369,71 369,171 269,171 269,271 169,271 169,371 70,370" /><polygon clip-path="url(#areadografico)" fill="#ffffff" fill-opacity="0.1" points="770,1070 770,970 869,971 870,870 969,871 970,770 1069,771 1069,771 1069,871 969,871 969,971 869,971 870,1070" /><polygon clip-path="url(#areadografico)" fill="#ff0000" fill-opacity="0.1" points="70,370 170,370 169,271 270,270 269,171 370,170 369,71 369,71 269,71 269,171 169,171 169,271 70,270" /><polygon clip-path="url(#areadografico)" fill="#000000" fill-opacity="0.1" points="870,1070 870,970 969,971 970,870 1069,871 1069,871 1069,971 969,971 970,1070" /><polygon clip-path="url(#areadografico)" fill="#ffffff" fill-opacity="0.1" points="70,270 170,270 169,171 270,170 269,71 269,71 169,71 169,171 70,170" /><polygon clip-path="url(#areadografico)" fill="#000000" fill-opacity="0.1" points="970,1070 970,970 1069,971 1069,1070" /><polygon clip-path="url(#areadografico)" fill="#ffffff" fill-opacity="0.1" points="70,170 170,170 169,71 70,71" /></g><g class="linhas"><line fill-opacity="0.3" stroke="#999999" stroke-width="1" x1="1070" x2="1070" y1="1070" y2="70" /><line fill-opacity="0.3" stroke="#999999" stroke-width="1" x1="70" x2="1070" y1="70" y2="70" /><line fill-opacity="0.3" stroke="#999999" stroke-width="1" x1="970" x2="970" y1="1070" y2="70" /><line fill-opacity="0.3" stroke="#999999" stroke-width="1" x1="70" x2="1070" y1="170" y2="170" /><line fill-opacity="0.3" stroke="#999999" stroke-width="1" x1="870" x2="870" y1="1070" y2="70" /><line fill-opacity="0.3" stroke="#999999" stroke-width="1" x1="70" x2="1070" y1="270" y2="270" /><line fill-opacity="0.3" stroke="#999999" stroke-width="1" x1="770" x2="770" y1="1070" y2="70" /><line fill-opacity="0.3" stroke="#999999" stroke-width="1" x1="70" x2="1070" y1="370" y2="370" /><line fill-opacity="0.3" stroke="#999999" stroke-width="1" x1="670" x2="670" y1="1070" y2="70" /><line fill-opacity="0.3" stroke="#999999" stroke-width="1" x1="70" x2="1070" y1="470" y2="470" /><line fill-opacity="0.3" stroke="#999999" stroke-width="1" x1="570" x2="570" y1="1070" y2="70" /><line fill-opacity="0.3" stroke="#999999" stroke-width="1" x1="70" x2="1070" y1="570" y2="570" /><line fill-opacity="0.3" stroke="#999999" stroke-width="1" x1="470" x2="470" y1="1070" y2="70" /><line fill-opacity="0.3" stroke="#999999" stroke-width="1" x1="70" x2="1070" y1="670" y2="670" /><line fill-opacity="0.3" stroke="#999999" stroke-width="1" x1="370" x2="370" y1="1070" y2="70" /><line fill-opacity="0.3" stroke="#999999" stroke-width="1" x1="70" x2="1070" y1="770" y2="770" /><line fill-opacity="0.3" stroke="#999999" stroke-width="1" x1="270" x2="270" y1="1070" y2="70" /><line fill-opacity="0.3" stroke="#999999" stroke-width="1" x1="70" x2="1070" y1="870" y2="870" /><line fill-opacity="0.3" stroke="#999999" stroke-width="1" x1="170" x2="170" y1="1070" y2="70" /><line fill-opacity="0.3" stroke="#999999" stroke-width="1" x1="70" x2="1070" y1="970" y2="970" /><line fill-opacity="0.3" stroke="#000000" stroke-width="1" x1="70" x2="70" y1="1071" y2="69" /><line fill-opacity="0.3" stroke="#000000" stroke-width="1" x1="69" x2="1071" y1="1070" y2="1070" /></g><g class="textos"><text x="1050" y="1110">1000</text><text x="10" y="71">1000</text><text x="950" y="1110">900</text><text x="10" y="171">900</text><text x="850" y="1110">800</text><text x="10" y="271">800</text><text x="750" y="1110">700</text><text x="10" y="371">700</text><text x="650" y="1110">600</text><text x="10" y="471">600</text><text x="550" y="1110">500</text><text x="10" y="571">500</text><text x="450" y="1110">400</text><text x="10" y="671">400</text><text x="350" y="1110">300</text><text x="10" y="771">300</text><text x="250" y="1110">200</text><text x="10" y="871">200</text><text x="150" y="1110">100</text><text x="10" y="971">100</text><text x="50" y="1111">0</text><text x="9" y="1071">0</text></g><g class="especies"><g class="e0"><circle cx="372" cy="770" fill="#3cb44B" r="3.5" stroke-width="0" /></g><g class="e1"><circle cx="469" cy="854" fill="#ff0000" r="3.5" stroke-width="0" /><circle cx="465" cy="851" fill="#ff0000" r="3.5" stroke-width="0" /><circle cx="459" cy="847" fill="#ff0000" r="3.5" stroke-width="0" /><circle cx="454" cy="843" fill="#ff0000" r="3.5" stroke-width="0" /><circle cx="451" cy="840" fill="#ff0000" r="3.5" stroke-width="0" /><circle cx="446" cy="836" fill="#ff0000" r="3.5" stroke-width="0" /><circle cx="441" cy="832" fill="#ff0000" r="3.5" stroke-width="0" /><circle cx="437" cy="829" fill="#ff0000" r="3.5" stroke-width="0" /><circle cx="433" cy="825" fill="#ff0000" r="3.5" stroke-width="0" /><circle cx="428" cy="821" fill="#ff0000" r="3.5" stroke-width="0" /><circle cx="423" cy="817" fill="#ff0000" r="3.5" stroke-width="0" /><circle cx="419" cy="813" fill="#ff0000" r="3.5" stroke-width="0" /><circle cx="414" cy="809" fill="#ff0000" r="3.5" stroke-width="0" /><circle cx="409" cy="805" fill="#ff0000" r="3.5" stroke-width="0" /><circle cx="405" cy="801" fill="#ff0000" r="3.5" stroke-width="0" /><circle cx="399" cy="796" fill="#ff0000" r="3.5" stroke-width="0" /><circle cx="395" cy="792" fill="#ff0000" r="3.5" stroke-width="0" /><circle cx="391" cy="788" fill="#ff0000" r="3.5" stroke-width="0" /><circle cx="386" cy="783" fill="#ff0000" r="3.5" stroke-width="0" /><circle cx="381" cy="779" fill="#ff0000" r="3.5" stroke-width="0" /><circle cx="377" cy="775" fill="#ff0000" r="3.5" stroke-width="0" /></g><g class="e2"><circle cx="369" cy="767" fill="#2b92db" r="3.5" stroke-width="0" /><circle cx="364" cy="762" fill="#2b92db" r="3.5" stroke-width="0" /><circle cx="360" cy="757" fill="#2b92db" r="3.5" stroke-width="0" /><circle cx="356" cy="753" fill="#2b92db" r="3.5" stroke-width="0" /><circle cx="351" cy="748" fill="#2b92db" r="3.5" stroke-width="0" /><circle cx="347" cy="744" fill="#2b92db" r="3.5" stroke-width="0" /><circle cx="343" cy="739" fill="#2b92db" r="3.5" stroke-width="0" /><circle cx="338" cy="734" fill="#2b92db" r="3.5" stroke-width="0" /><circle cx="334" cy="730" fill="#2b92db" r="3.5" stroke-width="0" /><circle cx="330" cy="725" fill="#2b92db" r="3.5" stroke-width="0" /><circle cx="327" cy="721" fill="#2b92db" r="3.5" stroke-width="0" /><circle cx="322" cy="716" fill="#2b92db" r="3.5" stroke-width="0" /><circle cx="318" cy="711" fill="#2b92db" r="3.5" stroke-width="0" /><circle cx="315" cy="707" fill="#2b92db" r="3.5" stroke-width="0" /><circle cx="310" cy="702" fill="#2b92db" r="3.5" stroke-width="0" /><circle cx="307" cy="698" fill="#2b92db" r="3.5" stroke-width="0" /><circle cx="303" cy="693" fill="#2b92db" r="3.5" stroke-width="0" /><circle cx="299" cy="688" fill="#2b92db" r="3.5" stroke-width="0" /><circle cx="296" cy="684" fill="#2b92db" r="3.5" stroke-width="0" /><circle cx="292" cy="679" fill="#2b92db" r="3.5" stroke-width="0" /><circle cx="288" cy="674" fill="#2b92db" r="3.5" stroke-width="0" /></g><g class="e3"><circle cx="492" cy="871" fill="#911eb4" r="3.5" stroke-width="0" /><circle cx="487" cy="868" fill="#911eb4" r="3.5" stroke-width="0" /><circle cx="484" cy="865" fill="#911eb4" r="3.5" stroke-width="0" /><circle cx="478" cy="861" fill="#911eb4" r="3.5" stroke-width="0" /><circle cx="474" cy="858" fill="#911eb4" r="3.5" stroke-width="0" /></g><g class="e4"><circle cx="285" cy="670" fill="#3cb44B" r="3.5" stroke-width="0" /><circle cx="281" cy="665" fill="#3cb44B" r="3.5" stroke-width="0" /><circle cx="278" cy="661" fill="#3cb44B" r="3.5" stroke-width="0" /><circle cx="275" cy="656" fill="#3cb44B" r="3.5" stroke-width="0" /><circle cx="271" cy="651" fill="#3cb44B" r="3.5" stroke-width="0" /></g><g class="e5"><circle cx="566" cy="919" fill="#ff0000" r="3.5" stroke-width="0" /><circle cx="560" cy="916" fill="#ff0000" r="3.5" stroke-width="0" /><circle cx="558" cy="914" fill="#ff0000" r="3.5" stroke-width="0" /><circle cx="553" cy="911" fill="#ff0000" r="3.5" stroke-width="0" /><circle cx="548" cy="908" fill="#ff0000" r="3.5" stroke-width="0" /><circle cx="542" cy="905" fill="#ff0000" r="3.5" stroke-width="0" /><circle cx="538" cy="902" fill="#ff0000" r="3.5" stroke-width="0" /><circle cx="535" cy="900" fill="#ff0000" r="3.5" stroke-width="0" /><circle cx="528" cy="896" fill="#ff0000" r="3.5" stroke-width="0" /><circle cx="524" cy="893" fill="#ff0000" r="3.5" stroke-width="0" /><circle cx="519" cy="890" fill="#ff0000" r="3.5" stroke-width="0" /><circle cx="515" cy="887" fill="#ff0000" r="3.5" stroke-width="0" /><circle cx="510" cy="884" fill="#ff0000" r="3.5" stroke-width="0" /><circle cx="506" cy="881" fill="#ff0000" r="3.5" stroke-width="0" /><circle cx="502" cy="878" fill="#ff0000" r="3.5" stroke-width="0" /><circle cx="498" cy="875" fill="#ff0000" r="3.5" stroke-width="0" /></g><g class="e6"><circle cx="268" cy="647" fill="#2b92db" r="3.5" stroke-width="0" /><circle cx="265" cy="642" fill="#2b92db" r="3.5" stroke-width="0" /><circle cx="262" cy="638" fill="#2b92db" r="3.5" stroke-width="0" /><circle cx="258" cy="633" fill="#2b92db" r="3.5" stroke-width="0" /><circle cx="255" cy="628" fill="#2b92db" r="3.5" stroke-width="0" /><circle cx="252" cy="624" fill="#2b92db" r="3.5" stroke-width="0" /><circle cx="249" cy="619" fill="#2b92db" r="3.5" stroke-width="0" /><circle cx="246" cy="615" fill="#2b92db" r="3.5" stroke-width="0" /><circle cx="243" cy="610" fill="#2b92db" r="3.5" stroke-width="0" /><circle cx="240" cy="605" fill="#2b92db" r="3.5" stroke-width="0" /><circle cx="237" cy="601" fill="#2b92db" r="3.5" stroke-width="0" /><circle cx="234" cy="596" fill="#2b92db" r="3.5" stroke-width="0" /><circle cx="232" cy="592" fill="#2b92db" r="3.5" stroke-width="0" /><circle cx="229" cy="587" fill="#2b92db" r="3.5" stroke-width="0" /><circle cx="226" cy="582" fill="#2b92db" r="3.5" stroke-width="0" /><circle cx="223" cy="578" fill="#2b92db" r="3.5" stroke-width="0" /><circle cx="220" cy="573" fill="#2b92db" r="3.5" stroke-width="0" /></g><g class="e7"><circle cx="666" cy="970" fill="#911eb4" r="3.5" stroke-width="0" /><circle cx="665" cy="969" fill="#911eb4" r="3.5" stroke-width="0" /><circle cx="657" cy="966" fill="#911eb4" r="3.5" stroke-width="0" /><circle cx="656" cy="965" fill="#911eb4" r="3.5" stroke-width="0" /><circle cx="648" cy="962" fill="#911eb4" r="3.5" stroke-width="0" /><circle cx="645" cy="960" fill="#911eb4" r="3.5" stroke-width="0" /><circle cx="639" cy="958" fill="#911eb4" r="3.5" stroke-width="0" /><circle cx="636" cy="956" fill="#911eb4" r="3.5" stroke-width="0" /><circle cx="629" cy="953" fill="#911eb4" r="3.5" stroke-width="0" /><circle cx="625" cy="951" fill="#911eb4" r="3.5" stroke-width="0" /><circle cx="622" cy="949" fill="#911eb4" r="3.5" stroke-width="0" /><circle cx="618" cy="947" fill="#911eb4" r="3.5" stroke-width="0" /><circle cx="611" cy="944" fill="#911eb4" r="3.5" stroke-width="0" /><circle cx="608" cy="942" fill="#911eb4" r="3.5" stroke-width="0" /><circle cx="604" cy="940" fill="#911eb4" r="3.5" stroke-width="0" /><circle cx="599" cy="937" fill="#911eb4" r="3.5" stroke-width="0" /><circle cx="595" cy="935" fill="#911eb4" r="3.5" stroke-width="0" /><circle cx="588" cy="932" fill="#911eb4" r="3.5" stroke-width="0" /><circle cx="583" cy="929" fill="#911eb4" r="3.5" stroke-width="0" /><circle cx="579" cy="927" fill="#911eb4" r="3.5" stroke-width="0" /><circle cx="574" cy="924" fill="#911eb4" r="3.5" stroke-width="0" /><circle cx="571" cy="922" fill="#911eb4" r="3.5" stroke-width="0" /></g><g class="e8"><circle cx="217" cy="568" fill="#3cb44B" r="3.5" stroke-width="0" /><circle cx="215" cy="564" fill="#3cb44B" r="3.5" stroke-width="0" /><circle cx="212" cy="559" fill="#3cb44B" r="3.5" stroke-width="0" /><circle cx="210" cy="555" fill="#3cb44B" r="3.5" stroke-width="0" /><circle cx="207" cy="550" fill="#3cb44B" r="3.5" stroke-width="0" /><circle cx="205" cy="545" fill="#3cb44B" r="3.5" stroke-width="0" /><circle cx="203" cy="541" fill="#3cb44B" r="3.5" stroke-width="0" /><circle cx="200" cy="536" fill="#3cb44B" r="3.5" stroke-width="0" /><circle cx="198" cy="532" fill="#3cb44B" r="3.5" stroke-width="0" /><circle cx="195" cy="527" fill="#3cb44B" r="3.5" stroke-width="0" /><circle cx="193" cy="522" fill="#3cb44B" r="3.5" stroke-width="0" /><circle cx="191" cy="518" fill="#3cb44B" r="3.5" stroke-width="0" /><circle cx="188" cy="513" fill="#3cb44B" r="3.5" stroke-width="0" /><circle cx="186" cy="509" fill="#3cb44B" r="3.5" stroke-width="0" /><circle cx="184" cy="504" fill="#3cb44B" r="3.5" stroke-width="0" /><circle cx="181" cy="499" fill="#3cb44B" r="3.5" stroke-width="0" /><circle cx="180" cy="495" fill="#3cb44B" r="3.5" stroke-width="0" /><circle cx="177" cy="490" fill="#3cb44B" r="3.5" stroke-width="0" /><circle cx="175" cy="485" fill="#3cb44B" r="3.5" stroke-width="0" /><circle cx="173" cy="481" fill="#3cb44B" r="3.5" stroke-width="0" /><circle cx="171" cy="476" fill="#3cb44B" r="3.5" stroke-width="0" /><circle cx="169" cy="472" fill="#3cb44B" r="3.5" stroke-width="0" /></g><g class="e9" /><g class="e10" /><g class="e11"><circle cx="769" cy="1008" fill="#911eb4" r="3.5" stroke-width="0" /><circle cx="762" cy="1006" fill="#911eb4" r="3.5" stroke-width="0" /><circle cx="759" cy="1005" fill="#911eb4" r="3.5" stroke-width="0" /><circle cx="757" cy="1004" fill="#911eb4" r="3.5" stroke-width="0" /><circle cx="750" cy="1002" fill="#911eb4" r="3.5" stroke-width="0" /><circle cx="748" cy="1001" fill="#911eb4" r="3.5" stroke-width="0" /><circle cx="741" cy="999" fill="#911eb4" r="3.5" stroke-width="0" /><circle cx="739" cy="998" fill="#911eb4" r="3.5" stroke-width="0" /><circle cx="733" cy="996" fill="#911eb4" r="3.5" stroke-width="0" /><circle cx="727" cy="994" fill="#911eb4" r="3.5" stroke-width="0" /><circle cx="725" cy="993" fill="#911eb4" r="3.5" stroke-width="0" /><circle cx="720" cy="991" fill="#911eb4" r="3.5" stroke-width="0" /><circle cx="713" cy="989" fill="#911eb4" r="3.5" stroke-width="0" /><circle cx="707" cy="987" fill="#911eb4" r="3.5" stroke-width="0" /><circle cx="702" cy="985" fill="#911eb4" r="3.5" stroke-width="0" /><circle cx="700" cy="984" fill="#911eb4" r="3.5" stroke-width="0" /><circle cx="695" cy="982" fill="#911eb4" r="3.5" stroke-width="0" /><circle cx="690" cy="980" fill="#911eb4" r="3.5" stroke-width="0" /><circle cx="685" cy="978" fill="#911eb4" r="3.5" stroke-width="0" /><circle cx="680" cy="976" fill="#911eb4" r="3.5" stroke-width="0" /><circle cx="679" cy="975" fill="#911eb4" r="3.5" stroke-width="0" /><circle cx="670" cy="972" fill="#911eb4" r="3.5" stroke-width="0" /></g><g class="e12"><circle cx="167" cy="467" fill="#3cb44B" r="3.5" stroke-width="0" /><circle cx="165" cy="462" fill="#3cb44B" r="3.5" stroke-width="0" /><circle cx="163" cy="458" fill="#3cb44B" r="3.5" stroke-width="0" /><circle cx="161" cy="453" fill="#3cb44B" r="3.5" stroke-width="0" /><circle cx="160" cy="449" fill="#3cb44B" r="3.5" stroke-width="0" /><circle cx="158" cy="444" fill="#3cb44B" r="3.5" stroke-width="0" /><circle cx="156" cy="439" fill="#3cb44B" r="3.5" stroke-width="0" /><circle cx="154" cy="435" fill="#3cb44B" r="3.5" stroke-width="0" /><circle cx="152" cy="430" fill="#3cb44B" r="3.5" stroke-width="0" /><circle cx="151" cy="426" fill="#3cb44B" r="3.5" stroke-width="0" /><circle cx="149" cy="421" fill="#3cb44B" r="3.5" stroke-width="0" /><circle cx="147" cy="416" fill="#3cb44B" r="3.5" stroke-width="0" /><circle cx="146" cy="412" fill="#3cb44B" r="3.5" stroke-width="0" /><circle cx="144" cy="407" fill="#3cb44B" r="3.5" stroke-width="0" /><circle cx="142" cy="402" fill="#3cb44B" r="3.5" stroke-width="0" /><circle cx="141" cy="398" fill="#3cb44B" r="3.5" stroke-width="0" /><circle cx="139" cy="393" fill="#3cb44B" r="3.5" stroke-width="0" /><circle cx="138" cy="389" fill="#3cb44B" r="3.5" stroke-width="0" /><circle cx="136" cy="384" fill="#3cb44B" r="3.5" stroke-width="0" /><circle cx="135" cy="379" fill="#3cb44B" r="3.5" stroke-width="0" /><circle cx="133" cy="375" fill="#3cb44B" r="3.5" stroke-width="0" /></g><g class="e13"><circle cx="864" cy="1032" fill="#ff0000" r="3.5" stroke-width="0" /><circle cx="859" cy="1031" fill="#ff0000" r="3.5" stroke-width="0" /><circle cx="854" cy="1030" fill="#ff0000" r="3.5" stroke-width="0" /><circle cx="848" cy="1029" fill="#ff0000" r="3.5" stroke-width="0" /><circle cx="844" cy="1028" fill="#ff0000" r="3.5" stroke-width="0" /><circle cx="839" cy="1027" fill="#ff0000" r="3.5" stroke-width="0" /><circle cx="835" cy="1026" fill="#ff0000" r="3.5" stroke-width="0" /><circle cx="832" cy="1025" fill="#ff0000" r="3.5" stroke-width="0" /><circle cx="827" cy="1024" fill="#ff0000" r="3.5" stroke-width="0" /><circle cx="823" cy="1023" fill="#ff0000" r="3.5" stroke-width="0" /><circle cx="820" cy="1022" fill="#ff0000" r="3.5" stroke-width="0" /><circle cx="816" cy="1021" fill="#ff0000" r="3.5" stroke-width="0" /><circle cx="813" cy="1020" fill="#ff0000" r="3.5" stroke-width="0" /><circle cx="803" cy="1018" fill="#ff0000" r="3.5" stroke-width="0" /><circle cx="800" cy="1017" fill="#ff0000" r="3.5" stroke-width="0" /><circle cx="797" cy="1016" fill="#ff0000" r="3.5" stroke-width="0" /><circle cx="794" cy="1015" fill="#ff0000" r="3.5" stroke-width="0" /><circle cx="785" cy="1013" fill="#ff0000" r="3.5" stroke-width="0" /><circle cx="782" cy="1012" fill="#ff0000" r="3.5" stroke-width="0" /><circle cx="780" cy="1011" fill="#ff0000" r="3.5" stroke-width="0" /><circle cx="772" cy="1009" fill="#ff0000" r="3.5" stroke-width="0" /></g><g class="e14"><circle cx="132" cy="370" fill="#2b92db" r="3.5" stroke-width="0" /><circle cx="131" cy="366" fill="#2b92db" r="3.5" stroke-width="0" /><circle cx="129" cy="361" fill="#2b92db" r="3.5" stroke-width="0" /><circle cx="128" cy="356" fill="#2b92db" r="3.5" stroke-width="0" /><circle cx="126" cy="352" fill="#2b92db" r="3.5" stroke-width="0" /><circle cx="125" cy="347" fill="#2b92db" r="3.5" stroke-width="0" /><circle cx="124" cy="343" fill="#2b92db" r="3.5" stroke-width="0" /><circle cx="123" cy="338" fill="#2b92db" r="3.5" stroke-width="0" /><circle cx="121" cy="333" fill="#2b92db" r="3.5" stroke-width="0" /><circle cx="120" cy="329" fill="#2b92db" r="3.5" stroke-width="0" /><circle cx="119" cy="324" fill="#2b92db" r="3.5" stroke-width="0" /><circle cx="118" cy="320" fill="#2b92db" r="3.5" stroke-width="0" /><circle cx="117" cy="315" fill="#2b92db" r="3.5" stroke-width="0" /><circle cx="116" cy="310" fill="#2b92db" r="3.5" stroke-width="0" /><circle cx="115" cy="306" fill="#2b92db" r="3.5" stroke-width="0" /><circle cx="113" cy="301" fill="#2b92db" r="3.5" stroke-width="0" /><circle cx="112" cy="296" fill="#2b92db" r="3.5" stroke-width="0" /><circle cx="111" cy="292" fill="#2b92db" r="3.5" stroke-width="0" /><circle cx="110" cy="287" fill="#2b92db" r="3.5" stroke-width="0" /><circle cx="110" cy="283" fill="#2b92db" r="3.5" stroke-width="0" /><circle cx="109" cy="278" fill="#2b92db" r="3.5" stroke-width="0" /><circle cx="108" cy="273" fill="#2b92db" r="3.5" stroke-width="0" /></g><g class="e15"><circle cx="959" cy="1046" fill="#911eb4" r="3.5" stroke-width="0" /><circle cx="964" cy="1046" fill="#911eb4" r="3.5" stroke-width="0" /><circle cx="968" cy="1046" fill="#911eb4" r="3.5" stroke-width="0" /><circle cx="952" cy="1045" fill="#911eb4" r="3.5" stroke-width="0" /><circle cx="956" cy="1045" fill="#911eb4" r="3.5" stroke-width="0" /><circle cx="942" cy="1044" fill="#911eb4" r="3.5" stroke-width="0" /><circle cx="947" cy="1044" fill="#911eb4" r="3.5" stroke-width="0" /><circle cx="934" cy="1043" fill="#911eb4" r="3.5" stroke-width="0" /><circle cx="923" cy="1042" fill="#911eb4" r="3.5" stroke-width="0" /><circle cx="927" cy="1042" fill="#911eb4" r="3.5" stroke-width="0" /><circle cx="917" cy="1041" fill="#911eb4" r="3.5" stroke-width="0" /><circle cx="922" cy="1041" fill="#911eb4" r="3.5" stroke-width="0" /><circle cx="912" cy="1040" fill="#911eb4" r="3.5" stroke-width="0" /><circle cx="903" cy="1039" fill="#911eb4" r="3.5" stroke-width="0" /><circle cx="908" cy="1039" fill="#911eb4" r="3.5" stroke-width="0" /><circle cx="899" cy="1038" fill="#911eb4" r="3.5" stroke-width="0" /><circle cx="892" cy="1037" fill="#911eb4" r="3.5" stroke-width="0" /><circle cx="884" cy="1036" fill="#911eb4" r="3.5" stroke-width="0" /><circle cx="889" cy="1036" fill="#911eb4" r="3.5" stroke-width="0" /><circle cx="883" cy="1035" fill="#911eb4" r="3.5" stroke-width="0" /><circle cx="876" cy="1034" fill="#911eb4" r="3.5" stroke-width="0" /><circle cx="870" cy="1033" fill="#911eb4" r="3.5" stroke-width="0" /></g><g class="e16"><circle cx="107" cy="269" fill="#3cb44B" r="3.5" stroke-width="0" /><circle cx="106" cy="264" fill="#3cb44B" r="3.5" stroke-width="0" /><circle cx="105" cy="260" fill="#3cb44B" r="3.5" stroke-width="0" /><circle cx="104" cy="255" fill="#3cb44B" r="3.5" stroke-width="0" /><circle cx="103" cy="250" fill="#3cb44B" r="3.5" stroke-width="0" /><circle cx="103" cy="246" fill="#3cb44B" r="3.5" stroke-width="0" /><circle cx="102" cy="241" fill="#3cb44B" r="3.5" stroke-width="0" /><circle cx="101" cy="237" fill="#3cb44B" r="3.5" stroke-width="0" /><circle cx="101" cy="232" fill="#3cb44B" r="3.5" stroke-width="0" /><circle cx="100" cy="227" fill="#3cb44B" r="3.5" stroke-width="0" /><circle cx="99" cy="223" fill="#3cb44B" r="3.5" stroke-width="0" /><circle cx="99" cy="218" fill="#3cb44B" r="3.5" stroke-width="0" /><circle cx="98" cy="213" fill="#3cb44B" r="3.5" stroke-width="0" /><circle cx="97" cy="209" fill="#3cb44B" r="3.5" stroke-width="0" /><circle cx="97" cy="204" fill="#3cb44B" r="3.5" stroke-width="0" /><circle cx="96" cy="200" fill="#3cb44B" r="3.5" stroke-width="0" /><circle cx="96" cy="195" fill="#3cb44B" r="3.5" stroke-width="0" /><circle cx="95" cy="190" fill="#3cb44B" r="3.5" stroke-width="0" /><circle cx="95" cy="186" fill="#3cb44B" r="3.5" stroke-width="0" /><circle cx="94" cy="181" fill="#3cb44B" r="3.5" stroke-width="0" /><circle cx="94" cy="177" fill="#3cb44B" r="3.5" stroke-width="0" /><circle cx="94" cy="172" fill="#3cb44B" r="3.5" stroke-width="0" /></g><g class="e17"><circle cx="1020" cy="1050" fill="#ff0000" r="3.5" stroke-width="0" /><circle cx="1025" cy="1050" fill="#ff0000" r="3.5" stroke-width="0" /><circle cx="1029" cy="1050" fill="#ff0000" r="3.5" stroke-width="0" /><circle cx="1034" cy="1050" fill="#ff0000" r="3.5" stroke-width="0" /><circle cx="1038" cy="1050" fill="#ff0000" r="3.5" stroke-width="0" /><circle cx="1043" cy="1050" fill="#ff0000" r="3.5" stroke-width="0" /><circle cx="1048" cy="1050" fill="#ff0000" r="3.5" stroke-width="0" /><circle cx="998" cy="1049" fill="#ff0000" r="3.5" stroke-width="0" /><circle cx="1003" cy="1049" fill="#ff0000" r="3.5" stroke-width="0" /><circle cx="1007" cy="1049" fill="#ff0000" r="3.5" stroke-width="0" /><circle cx="1012" cy="1049" fill="#ff0000" r="3.5" stroke-width="0" /><circle cx="1017" cy="1049" fill="#ff0000" r="3.5" stroke-width="0" /><circle cx="982" cy="1048" fill="#ff0000" r="3.5" stroke-width="0" /><circle cx="987" cy="1048" fill="#ff0000" r="3.5" stroke-width="0" /><circle cx="992" cy="1048" fill="#ff0000" r="3.5" stroke-width="0" /><circle cx="996" cy="1048" fill="#ff0000" r="3.5" stroke-width="0" /><circle cx="973" cy="1047" fill="#ff0000" r="3.5" stroke-width="0" /><circle cx="977" cy="1047" fill="#ff0000" r="3.5" stroke-width="0" /></g><g class="e18"><circle cx="93" cy="167" fill="#2b92db" r="3.5" stroke-width="0" /><circle cx="93" cy="163" fill="#2b92db" r="3.5" stroke-width="0" /><circle cx="92" cy="158" fill="#2b92db" r="3.5" stroke-width="0" /><circle cx="92" cy="154" fill="#2b92db" r="3.5" stroke-width="0" /><circle cx="92" cy="149" fill="#2b92db" r="3.5" stroke-width="0" /><circle cx="92" cy="144" fill="#2b92db" r="3.5" stroke-width="0" /><circle cx="91" cy="140" fill="#2b92db" r="3.5" stroke-width="0" /><circle cx="91" cy="135" fill="#2b92db" r="3.5" stroke-width="0" /><circle cx="91" cy="130" fill="#2b92db" r="3.5" stroke-width="0" /><circle cx="91" cy="126" fill="#2b92db" r="3.5" stroke-width="0" /><circle cx="91" cy="121" fill="#2b92db" r="3.5" stroke-width="0" /><circle cx="90" cy="117" fill="#2b92db" r="3.5" stroke-width="0" /><circle cx="90" cy="112" fill="#2b92db" r="3.5" stroke-width="0" /><circle cx="90" cy="107" fill="#2b92db" r="3.5" stroke-width="0" /><circle cx="90" cy="103" fill="#2b92db" r="3.5" stroke-width="0" /><circle cx="90" cy="98" fill="#2b92db" r="3.5" stroke-width="0" /><circle cx="90" cy="94" fill="#2b92db" r="3.5" stroke-width="0" /></g></g></g></svg>