<?xml version="1.0" encoding="utf-8" ?>
<svg baseProfile="full" height="1140px" style="font-size:15;font-family:Arial, san-serif;font-weight:bold;stroke:black;stroke-width:0;fill:#444444" version="1.1" width="1140px" xmlns="http://www.w3.org/2000/svg" xmlns:ev="http://www.w3.org/2001/xml-events" xmlns:xlink="http://www.w3.org/1999/xlink"><defs><clipPath id="areadografico"><rect height="1000" width="1000" x="70" y="70" /></clipPath></defs><g class="master"><g class="poligonos"><polygon clip-path="url(#areadografico)" fill="#000000" fill-opacity="0.1" points="70,1070 70,820 319,821 320,570 569,571 570,320 819,321 820,70 1069,71 1069,71 1069,321 819,321 819,571 569,571 569,821 319,821 320,1070" /><polygon clip-path="url(#areadografico)" fill="#ffffff" fill-opacity="0.1" points="320,1070 320,820 569,821 570,570 819,571 820,320 1069,321 1069,321 1069,571 819,571 819,821 569,821 570,1070" /><polygon clip-path="url(#areadografico)" fill="#ff0000" fill-opacity="0.1" points="70,820 320,820 319,571 570,570 569,321 820,320 819,71 819,71 569,71 569,321 319,321 319,571 70,570" /><polygon clip-path="url(#areadografico)" fill="#000000" fill-opacity="0.1" points="570,1070 570,820 819,821 820,570 1069,571 1069,571 1069,821 819,821 820,1070" /><polygon clip-path="url(#areadografico)" fill="#ffffff" fill-opacity="0.1" points="70,570 320,570 319,321 570,320 569,71 569,71 319,71 319,321 70,320" /><polygon clip-path="url(#areadografico)" fill="#ff0000" fill-opacity="0.1" points="820,1070 820,820 1069,821 1069,1070" /><polygon clip-path="url(#areadografico)" fill="#000000" fill-opacity="0.1" points="70,320 320,320 319,71 70,71" /></g><g class="linhas"><line fill-opacity="0.3" stroke="#999999" stroke-width="1" x1="1070" x2="1070" y1="1070" y2="70" /><line fill-opacity="0.3" stroke="#999999" stroke-width="1" x1="70" x2="1070" y1="70" y2="70" /><line fill-opacity="0.3" stroke="#999999" stroke-width="1" x1="970" x2="970" y1="1070" y2="70" /><line fill-opacity="0.3" stroke="#999999" stroke-width="1" x1="70" x2="1070" y1="170" y2="170" /><line fill-opacity="0.3" stroke="#999999" stroke-width="1" x1="870" x2="870" y1="1070" y2="70" /><line fill-opacity="0.3" stroke="#999999" stroke-width="1" x1="70" x2="1070" y1="270" y2="270" /><line fill-opacity="0.3" stroke="#999999" stroke-width="1" x1="770" x2="770" y1="1070" y2="70" /><line fill-opacity="0.3" stroke="#999999" stroke-width="1" x1="70" x2="1070" y1="370" y2="370" /><line fill-opacity="0.3" stroke="#999999" stroke-width="1" x1="670" x2="670" y1="1070" y2="70" /><line fill-opacity="0.3" stroke="#999999" stroke-width="1" x1="70" x2="1070" y1="470" y2="470" /><line fill-opacity="0.3" stroke="#999999" stroke-width="1" x1="570" x2="570" y1="1070" y2="70" /><line fill-opacity="0.3" stroke="#999999" stroke-width="1" x1="70" x2="1070" y1="570" y2="570" /><line fill-opacity="0.3" stroke="#999999" stroke-width="1" x1="470" x2="470" y1="1070" y2="70" /><line fill-opacity="0.3" stroke="#999999" stroke-width="1" x1="70" x2="1070" y1="670" y2="670" /><line fill-opacity="0.3" stroke="#999999" stroke-width="1" x1="370" x2="370" y1="1070" y2="70" /><line fill-opacity="0.3" stroke="#999999" stroke-width="1" x1="70" x2="1070" y1="770" y2="770" /><line fill-opacity="0.3" stroke="#999999" stroke-width="1" x1="270" x2="270" y1="1070" y2="70" /><line fill-opacity="0.3" stroke="#999999" stroke-width="1" x1="70" x2="1070" y1="870" y2="870" /><line fill-opacity="0.3" stroke="#999999" stroke-width="1" x1="170" x2="170" y1="1070" y2="70" /><line fill-opacity="0.3" stroke="#999999" stroke-width="1" x1="70" x2="1070" y1="970" y2="970" /><line fill-opacity="0.3" stroke="#000000" stroke-width="1" x1="70" x2="70" y1="1071" y2="69" /><line fill-opacity="0.3" stroke="#000000" stroke-width="1" x1="69" x2="1071" y1="1070" y2="1070" /></g><g class="textos"><text x="1050" y="1110">1000</text><text x="10" y="71">1000</text><text x="950" y="1110">900</text><text x="10" y="171">900</text><text x="850" y="1110">800</text><text x="10" y="271">800</text><text x="750" y="1110">700</text><text x="10" y="371">700</text><text x="650" y="1110">600</text><text x="10" y="471">600</text><text x="550" y="1110">500</text><text x="10" y="571">500</text><text x="450" y="1110">400</text><text x="10" y="671">400</text><text x="350" y="1110">300</text><text x="10" y="771">300</text><text x="250" y="1110">200</text><text x="10" y="871">200</text><text x="150" y="1110">100</text><text x="10" y="971">100</text><text x="50" y="1111">0</text><text x="9" y="1071">0</text></g><g class="especies"><g class="e0"><circle cx="415" cy="810" fill="#3cb44B" r="3.5" stroke-width="0" /><circle cx="397" cy="794" fill="#3cb44B" r="3.5" stroke-width="0" /><circle cx="379" cy="777" fill="#3cb44B" r="3.5" stroke-width="0" /><circle cx="362" cy="760" fill="#3cb44B" r="3.5" stroke-width="0" /><circle cx="345" cy="742" fill="#3cb44B" r="3.5" stroke-width="0" /><circle cx="329" cy="724" fill="#3cb44B" r="3.5" stroke-width="0" /></g><g class="e1"><circle cx="561" cy="916" fill="#ff0000" r="3.5" stroke-width="0" /><circle cx="543" cy="905" fill="#ff0000" r="3.5" stroke-width="0" /><circle cx="524" cy="893" fill="#ff0000" r="3.5" stroke-width="0" /><circle cx="506" cy="881" fill="#ff0000" r="3.5" stroke-width="0" /><circle cx="487" cy="868" fill="#ff0000" r="3.5" stroke-width="0" /><circle cx="470" cy="855" fill="#ff0000" r="3.5" stroke-width="0" /><circle cx="452" cy="841" fill="#ff0000" r="3.5" stroke-width="0" /><circle cx="432" cy="825" fill="#ff0000" r="3.5" stroke-width="0" /></g><g class="e2"><circle cx="314" cy="706" fill="#2b92db" r="3.5" stroke-width="0" /><circle cx="298" cy="687" fill="#2b92db" r="3.5" stroke-width="0" /><circle cx="284" cy="669" fill="#2b92db" r="3.5" stroke-width="0" /><circle cx="271" cy="651" fill="#2b92db" r="3.5" stroke-width="0" /><circle cx="258" cy="633" fill="#2b92db" r="3.5" stroke-width="0" /><circle cx="246" cy="615" fill="#2b92db" r="3.5" stroke-width="0" /><circle cx="235" cy="597" fill="#2b92db" r="3.5" stroke-width="0" /><circle cx="224" cy="579" fill="#2b92db" r="3.5" stroke-width="0" /></g><g class="e3"><circle cx="817" cy="1021" fill="#911eb4" r="3.5" stroke-width="0" /><circle cx="797" cy="1016" fill="#911eb4" r="3.5" stroke-width="0" /><circle cx="780" cy="1011" fill="#911eb4" r="3.5" stroke-width="0" /><circle cx="759" cy="1005" fill="#911eb4" r="3.5" stroke-width="0" /><circle cx="740" cy="999" fill="#911eb4" r="3.5" stroke-width="0" /><circle cx="724" cy="993" fill="#911eb4" r="3.5" stroke-width="0" /><circle cx="706" cy="986" fill="#911eb4" r="3.5" stroke-width="0" /><circle cx="688" cy="979" fill="#911eb4" r="3.5" stroke-width="0" /><circle cx="668" cy="971" fill="#911eb4" r="3.5" stroke-width="0" /><circle cx="650" cy="963" fill="#911eb4" r="3.5" stroke-width="0" /><circle cx="634" cy="955" fill="#911eb4" r="3.5" stroke-width="0" /><circle cx="616" cy="946" fill="#911eb4" r="3.5" stroke-width="0" /><circle cx="596" cy="936" fill="#911eb4" r="3.5" stroke-width="0" /><circle cx="580" cy="927" fill="#911eb4" r="3.5" stroke-width="0" /></g><g class="e4"><circle cx="213" cy="560" fill="#3cb44B" r="3.5" stroke-width="0" /><circle cx="203" cy="542" fill="#3cb44B" r="3.5" stroke-width="0" /><circle cx="194" cy="524" fill="#3cb44B" r="3.5" stroke-width="0" /><circle cx="185" cy="506" fill="#3cb44B" r="3.5" stroke-width="0" /><circle cx="176" cy="488" fill="#3cb44B" r="3.5" stroke-width="0" /><circle cx="168" cy="470" fill="#3cb44B" r="3.5" stroke-width="0" /><circle cx="161" cy="452" fill="#3cb44B" r="3.5" stroke-width="0" /><circle cx="154" cy="434" fill="#3cb44B" r="3.5" stroke-width="0" /><circle cx="147" cy="415" fill="#3cb44B" r="3.5" stroke-width="0" /><circle cx="140" cy="397" fill="#3cb44B" r="3.5" stroke-width="0" /><circle cx="135" cy="379" fill="#3cb44B" r="3.5" stroke-width="0" /><circle cx="129" cy="361" fill="#3cb44B" r="3.5" stroke-width="0" /><circle cx="124" cy="343" fill="#3cb44B" r="3.5" stroke-width="0" /><circle cx="119" cy="325" fill="#3cb44B" r="3.5" stroke-width="0" /></g><g class="e5"><circle cx="1020" cy="1050" fill="#ff0000" r="3.5" stroke-width="0" /><circle cx="1038" cy="1050" fill="#ff0000" r="3.5" stroke-width="0" /><circle cx="1002" cy="1049" fill="#ff0000" r="3.5" stroke-width="0" /><circle cx="981" cy="1048" fill="#ff0000" r="3.5" stroke-width="0" /><circle cx="972" cy="1047" fill="#ff0000" r="3.5" stroke-width="0" /><circle cx="967" cy="1046" fill="#ff0000" r="3.5" stroke-width="0" /><circle cx="945" cy="1044" fill="#ff0000" r="3.5" stroke-width="0" /><circle cx="930" cy="1042" fill="#ff0000" r="3.5" stroke-width="0" /><circle cx="905" cy="1039" fill="#ff0000" r="3.5" stroke-width="0" /><circle cx="886" cy="1036" fill="#ff0000" r="3.5" stroke-width="0" /><circle cx="871" cy="1033" fill="#ff0000" r="3.5" stroke-width="0" /><circle cx="849" cy="1029" fill="#ff0000" r="3.5" stroke-width="0" /><circle cx="833" cy="1025" fill="#ff0000" r="3.5" stroke-width="0" /></g><g class="e6"><circle cx="115" cy="307" fill="#2b92db" r="3.5" stroke-width="0" /><circle cx="111" cy="288" fill="#2b92db" r="3.5" stroke-width="0" /><circle cx="107" cy="270" fill="#2b92db" r="3.5" stroke-width="0" /><circle cx="104" cy="252" fill="#2b92db" r="3.5" stroke-width="0" /><circle cx="101" cy="234" fill="#2b92db" r="3.5" stroke-width="0" /><circle cx="98" cy="216" fill="#2b92db" r="3.5" stroke-width="0" /><circle cx="96" cy="198" fill="#2b92db" r="3.5" stroke-width="0" /><circle cx="94" cy="180" fill="#2b92db" r="3.5" stroke-width="0" /><circle cx="93" cy="162" fill="#2b92db" r="3.5" stroke-width="0" /><circle cx="91" cy="143" fill="#2b92db" r="3.5" stroke-width="0" /><circle cx="91" cy="125" fill="#2b92db" r="3.5" stroke-width="0" /><circle cx="90" cy="107" fill="#2b92db" r="3.5" stroke-width="0" /></g></g></g></svg>