<?xml version="1.0" encoding="utf-8" ?>
<svg baseProfile="full" height="1140px" style="font-size:15;font-family:Arial, san-serif;font-weight:bold;stroke:black;stroke-width:0;fill:#444444" version="1.1" width="1140px" xmlns="http://www.w3.org/2000/svg" xmlns:ev="http://www.w3.org/2001/xml-events" xmlns:xlink="http://www.w3.org/1999/xlink"><defs><clipPath id="areadografico"><rect height="1000" width="1000" x="70" y="70" /></clipPath></defs><g class="master"><g class="poligonos"><polygon clip-path="url(#areadografico)" fill="#000000" fill-opacity="0.1" points="70,1070 1069,912 1069,1070" /><polygon clip-path="url(#areadografico)" fill="#ffffff" fill-opacity="0.1" points="70,1070 1069,745 1069,912" /><polygon clip-path="url(#areadografico)" fill="#000000" fill-opacity="0.1" points="70,1070 1069,560 1069,745" /><polygon clip-path="url(#areadografico)" fill="#ffffff" fill-opacity="0.1" points="70,1070 1069,343 1069,560" /><polygon clip-path="url(#areadografico)" fill="#000000" fill-opacity="0.1" points="70,1070 1069,71 1069,343" /><polygon clip-path="url(#areadografico)" fill="#ffffff" fill-opacity="0.1" points="70,1070 1069,71 797,71" /><polygon clip-path="url(#areadografico)" fill="#000000" fill-opacity="0.1" points="70,1070 797,71 580,71" /><polygon clip-path="url(#areadografico)" fill="#ffffff" fill-opacity="0.1" points="70,1070 580,71 395,71" /><polygon clip-path="url(#areadografico)" fill="#000000" fill-opacity="0.1" points="70,1070 395,71 228,71" /><polygon clip-path="url(#areadografico)" fill="#ffffff" fill-opacity="0.1" points="70,1070 228,71 70,71" /></g><g class="linhas"><line fill-opacity="0.3" stroke="#999999" stroke-width="1" x1="1070" x2="1070" y1="1070" y2="70" /><line fill-opacity="0.3" stroke="#999999" stroke-width="1" x1="70" x2="1070" y1="70" y2="70" /><line fill-opacity="0.3" stroke="#999999" stroke-width="1" x1="970" x2="970" y1="1070" y2="70" /><line fill-opacity="0.3" stroke="#999999" stroke-width="1" x1="70" x2="1070" y1="170" y2="170" /><line fill-opacity="0.3" stroke="#999999" stroke-width="1" x1="870" x2="870" y1="1070" y2="70" /><line fill-opacity="0.3" stroke="#999999" stroke-width="1" x1="70" x2="1070" y1="270" y2="270" /><line fill-opacity="0.3" stroke="#999999" stroke-width="1" x1="770" x2="770" y1="1070" y2="70" /><line fill-opacity="0.3" stroke="#999999" stroke-width="1" x1="70" x2="1070" y1="370" y2="370" /><line fill-opacity="0.3" stroke="#999999" stroke-width="1" x1="670" x2="670" y1="1070" y2="70" /><line fill-opacity="0.3" stroke="#999999" stroke-width="1" x1="70" x2="1070" y1="470" y2="470" /><line fill-opacity="0.3" stroke="#999999" stroke-width="1" x1="570" x2="570" y1="1070" y2="70" /><line fill-opacity="0.3" stroke="#999999" stroke-width="1" x1="70" x2="1070" y1="570" y2="570" /><line fill-opacity="0.3" stroke="#999999" stroke-width="1" x1="470" x2="470" y1="1070" y2="70" /><line fill-opacity="0.3" stroke="#999999" stroke-width="1" x1="70" x2="1070" y1="670" y2="670" /><line fill-opacity="0.3" stroke="#999999" stroke-width="1" x1="370" x2="370" y1="1070" y2="70" /><line fill-opacity="0.3" stroke="#999999" stroke-width="1" x1="70" x2="1070" y1="770" y2="770" /><line fill-opacity="0.3" stroke="#999999" stroke-width="1" x1="270" x2="270" y1="1070" y2="70" /><line fill-opacity="0.3" stroke="#999999" stroke-width="1" x1="70" x2="1070" y1="870" y2="870" /><line fill-opacity="0.3" stroke="#999999" stroke-width="1" x1="170" x2="170" y1="1070" y2="70" /><line fill-opacity="0.3" stroke="#999999" stroke-width="1" x1="70" x2="1070" y1="970" y2="970" /><line fill-opacity="0.3" stroke="#000000" stroke-width="1" x1="70" x2="70" y1="1071" y2="69" /><line fill-opacity="0.3" stroke="#000000" stroke-width="1" x1="69" x2="1071" y1="1070" y2="1070" /></g><g class="textos"><text x="1050" y="1110">1000</text><text x="10" y="71">1000</text><text x="950" y="1110">900</text><text x="10" y="171">900</text><text x="850" y="1110">800</text><text x="10" y="271">800</text><text x="750" y="1110">700</text><text x="10" y="371">700</text><text x="650" y="1110">600</text><text x="10" y="471">600</text><text x="550" y="1110">500</text><text x="10" y="571">500</text><text x="450" y="1110">400</text><text x="10" y="671">400</text><text x="350" y="1110">300</text><text x="10" y="771">300</text><text x="250" y="1110">200</text><text x="10" y="871">200</text><text x="150" y="1110">100</text><text x="10" y="971">100</text><text x="50" y="1111">0</text><text x="9" y="1071">0</text></g><g class="especies"><g class="e0"><circle cx="1016" cy="1049" fill="#ff0000" r="3.5" stroke-width="0" /><circle cx="897" cy="1038" fill="#ff0000" r="3.5" stroke-width="0" /><circle cx="786" cy="1013" fill="#ff0000" r="3.5" stroke-width="0" /><circle cx="772" cy="1009" fill="#ff0000" r="3.5" stroke-width="0" /><circle cx="945" cy="1044" fill="#ff0000" r="3.5" stroke-width="0" /><circle cx="839" cy="1027" fill="#ff0000" r="3.5" stroke-width="0" /><circle cx="736" cy="997" fill="#ff0000" r="3.5" stroke-width="0" /><circle cx="701" cy="984" fill="#ff0000" r="3.5" stroke-width="0" /><circle cx="688" cy="979" fill="#ff0000" r="3.5" stroke-width="0" /><circle cx="729" cy="995" fill="#ff0000" r="3.5" stroke-width="0" /><circle cx="976" cy="1047" fill="#ff0000" r="3.5" stroke-width="0" /><circle cx="711" cy="988" fill="#ff0000" r="3.5" stroke-width="0" /><circle cx="755" cy="1004" fill="#ff0000" r="3.5" stroke-width="0" /><circle cx="950" cy="1045" fill="#ff0000" r="3.5" stroke-width="0" /><circle cx="827" cy="1024" fill="#ff0000" r="3.5" stroke-width="0" /><circle cx="816" cy="1021" fill="#ff0000" r="3.5" stroke-width="0" /><circle cx="758" cy="1005" fill="#ff0000" r="3.5" stroke-width="0" /><circle cx="987" cy="1048" fill="#ff0000" r="3.5" stroke-width="0" /><circle cx="1028" cy="1050" fill="#ff0000" r="3.5" stroke-width="0" /><circle cx="929" cy="1042" fill="#ff0000" r="3.5" stroke-width="0" /><circle cx="742" cy="999" fill="#ff0000" r="3.5" stroke-width="0" /><circle cx="837" cy="1026" fill="#ff0000" r="3.5" stroke-width="0" /><circle cx="935" cy="1043" fill="#ff0000" r="3.5" stroke-width="0" /><circle cx="691" cy="980" fill="#ff0000" r="3.5" stroke-width="0" /><circle cx="871" cy="1033" fill="#ff0000" r="3.5" stroke-width="0" /><circle cx="723" cy="993" fill="#ff0000" r="3.5" stroke-width="0" /><circle cx="854" cy="1030" fill="#ff0000" r="3.5" stroke-width="0" /><circle cx="848" cy="1029" fill="#ff0000" r="3.5" stroke-width="0" /><circle cx="696" cy="982" fill="#ff0000" r="3.5" stroke-width="0" /><circle cx="823" cy="1023" fill="#ff0000" r="3.5" stroke-width="0" /><circle cx="789" cy="1014" fill="#ff0000" r="3.5" stroke-width="0" /><circle cx="873" cy="1034" fill="#ff0000" r="3.5" stroke-width="0" /><circle cx="915" cy="1040" fill="#ff0000" r="3.5" stroke-width="0" /><circle cx="680" cy="976" fill="#ff0000" r="3.5" stroke-width="0" /><circle cx="749" cy="1002" fill="#ff0000" r="3.5" stroke-width="0" /><circle cx="714" cy="989" fill="#ff0000" r="3.5" stroke-width="0" /><circle cx="846" cy="1028" fill="#ff0000" r="3.5" stroke-width="0" /><circle cx="886" cy="1036" fill="#ff0000" r="3.5" stroke-width="0" /><circle cx="808" cy="1019" fill="#ff0000" r="3.5" stroke-width="0" /><circle cx="904" cy="1039" fill="#ff0000" r="3.5" stroke-width="0" /><circle cx="702" cy="985" fill="#ff0000" r="3.5" stroke-width="0" /><circle cx="919" cy="1041" fill="#ff0000" r="3.5" stroke-width="0" /><circle cx="718" cy="991" fill="#ff0000" r="3.5" stroke-width="0" /><circle cx="782" cy="1012" fill="#ff0000" r="3.5" stroke-width="0" /><circle cx="892" cy="1037" fill="#ff0000" r="3.5" stroke-width="0" /><circle cx="693" cy="981" fill="#ff0000" r="3.5" stroke-width="0" /><circle cx="743" cy="1000" fill="#ff0000" r="3.5" stroke-width="0" /><circle cx="715" cy="990" fill="#ff0000" r="3.5" stroke-width="0" /><circle cx="707" cy="987" fill="#ff0000" r="3.5" stroke-width="0" /><circle cx="678" cy="975" fill="#ff0000" r="3.5" stroke-width="0" /><circle cx="803" cy="1018" fill="#ff0000" r="3.5" stroke-width="0" /><circle cx="881" cy="1035" fill="#ff0000" r="3.5" stroke-width="0" /><circle cx="831" cy="1025" fill="#ff0000" r="3.5" stroke-width="0" /><circle cx="800" cy="1017" fill="#ff0000" r="3.5" stroke-width="0" /><circle cx="763" cy="1006" fill="#ff0000" r="3.5" stroke-width="0" /><circle cx="748" cy="1001" fill="#ff0000" r="3.5" stroke-width="0" /></g><g class="e1"><circle cx="637" cy="957" fill="#2b92db" r="3.5" stroke-width="0" /><circle cx="631" cy="954" fill="#2b92db" r="3.5" stroke-width="0" /><circle cx="626" cy="951" fill="#2b92db" r="3.5" stroke-width="0" /><circle cx="608" cy="942" fill="#2b92db" r="3.5" stroke-width="0" /><circle cx="660" cy="967" fill="#2b92db" r="3.5" stroke-width="0" /><circle cx="558" cy="914" fill="#2b92db" r="3.5" stroke-width="0" /><circle cx="556" cy="913" fill="#2b92db" r="3.5" stroke-width="0" /><circle cx="578" cy="926" fill="#2b92db" r="3.5" stroke-width="0" /><circle cx="600" cy="938" fill="#2b92db" r="3.5" stroke-width="0" /><circle cx="630" cy="953" fill="#2b92db" r="3.5" stroke-width="0" /><circle cx="655" cy="965" fill="#2b92db" r="3.5" stroke-width="0" /><circle cx="575" cy="924" fill="#2b92db" r="3.5" stroke-width="0" /><circle cx="639" cy="958" fill="#2b92db" r="3.5" stroke-width="0" /><circle cx="642" cy="959" fill="#2b92db" r="3.5" stroke-width="0" /><circle cx="584" cy="929" fill="#2b92db" r="3.5" stroke-width="0" /><circle cx="618" cy="947" fill="#2b92db" r="3.5" stroke-width="0" /><circle cx="602" cy="939" fill="#2b92db" r="3.5" stroke-width="0" /><circle cx="589" cy="932" fill="#2b92db" r="3.5" stroke-width="0" /><circle cx="594" cy="935" fill="#2b92db" r="3.5" stroke-width="0" /><circle cx="663" cy="969" fill="#2b92db" r="3.5" stroke-width="0" /><circle cx="604" cy="940" fill="#2b92db" r="3.5" stroke-width="0" /><circle cx="585" cy="930" fill="#2b92db" r="3.5" stroke-width="0" /><circle cx="671" cy="972" fill="#2b92db" r="3.5" stroke-width="0" /><circle cx="615" cy="946" fill="#2b92db" r="3.5" stroke-width="0" /><circle cx="564" cy="918" fill="#2b92db" r="3.5" stroke-width="0" /><circle cx="568" cy="920" fill="#2b92db" r="3.5" stroke-width="0" /><circle cx="668" cy="971" fill="#2b92db" r="3.5" stroke-width="0" /><circle cx="657" cy="966" fill="#2b92db" r="3.5" stroke-width="0" /></g><g class="e2"><circle cx="486" cy="867" fill="#911eb4" r="3.5" stroke-width="0" /><circle cx="516" cy="888" fill="#911eb4" r="3.5" stroke-width="0" /><circle cx="532" cy="898" fill="#911eb4" r="3.5" stroke-width="0" /><circle cx="519" cy="890" fill="#911eb4" r="3.5" stroke-width="0" /><circle cx="507" cy="882" fill="#911eb4" r="3.5" stroke-width="0" /><circle cx="547" cy="908" fill="#911eb4" r="3.5" stroke-width="0" /><circle cx="529" cy="896" fill="#911eb4" r="3.5" stroke-width="0" /><circle cx="506" cy="881" fill="#911eb4" r="3.5" stroke-width="0" /><circle cx="497" cy="875" fill="#911eb4" r="3.5" stroke-width="0" /><circle cx="499" cy="876" fill="#911eb4" r="3.5" stroke-width="0" /><circle cx="493" cy="872" fill="#911eb4" r="3.5" stroke-width="0" /><circle cx="540" cy="903" fill="#911eb4" r="3.5" stroke-width="0" /><circle cx="537" cy="901" fill="#911eb4" r="3.5" stroke-width="0" /><circle cx="538" cy="902" fill="#911eb4" r="3.5" stroke-width="0" /><circle cx="504" cy="880" fill="#911eb4" r="3.5" stroke-width="0" /><circle cx="522" cy="892" fill="#911eb4" r="3.5" stroke-width="0" /><circle cx="535" cy="900" fill="#911eb4" r="3.5" stroke-width="0" /><circle cx="479" cy="862" fill="#911eb4" r="3.5" stroke-width="0" /><circle cx="481" cy="863" fill="#911eb4" r="3.5" stroke-width="0" /><circle cx="545" cy="906" fill="#911eb4" r="3.5" stroke-width="0" /><circle cx="554" cy="912" fill="#911eb4" r="3.5" stroke-width="0" /><circle cx="490" cy="870" fill="#911eb4" r="3.5" stroke-width="0" /><circle cx="500" cy="877" fill="#911eb4" r="3.5" stroke-width="0" /><circle cx="525" cy="894" fill="#911eb4" r="3.5" stroke-width="0" /><circle cx="541" cy="904" fill="#911eb4" r="3.5" stroke-width="0" /><circle cx="512" cy="885" fill="#911eb4" r="3.5" stroke-width="0" /><circle cx="484" cy="865" fill="#911eb4" r="3.5" stroke-width="0" /><circle cx="521" cy="891" fill="#911eb4" r="3.5" stroke-width="0" /></g><g class="e3"><circle cx="437" cy="829" fill="#3cb44B" r="3.5" stroke-width="0" /><circle cx="462" cy="849" fill="#3cb44B" r="3.5" stroke-width="0" /><circle cx="431" cy="824" fill="#3cb44B" r="3.5" stroke-width="0" /><circle cx="433" cy="825" fill="#3cb44B" r="3.5" stroke-width="0" /><circle cx="442" cy="833" fill="#3cb44B" r="3.5" stroke-width="0" /><circle cx="456" cy="844" fill="#3cb44B" r="3.5" stroke-width="0" /><circle cx="445" cy="835" fill="#3cb44B" r="3.5" stroke-width="0" /><circle cx="476" cy="859" fill="#3cb44B" r="3.5" stroke-width="0" /><circle cx="472" cy="856" fill="#3cb44B" r="3.5" stroke-width="0" /><circle cx="460" cy="847" fill="#3cb44B" r="3.5" stroke-width="0" /><circle cx="424" cy="818" fill="#3cb44B" r="3.5" stroke-width="0" /><circle cx="441" cy="832" fill="#3cb44B" r="3.5" stroke-width="0" /><circle cx="466" cy="852" fill="#3cb44B" r="3.5" stroke-width="0" /><circle cx="425" cy="819" fill="#3cb44B" r="3.5" stroke-width="0" /><circle cx="455" cy="843" fill="#3cb44B" r="3.5" stroke-width="0" /><circle cx="453" cy="842" fill="#3cb44B" r="3.5" stroke-width="0" /><circle cx="423" cy="817" fill="#3cb44B" r="3.5" stroke-width="0" /></g><g class="e4"><circle cx="414" cy="809" fill="#ff0000" r="3.5" stroke-width="0" /><circle cx="396" cy="793" fill="#ff0000" r="3.5" stroke-width="0" /><circle cx="384" cy="781" fill="#ff0000" r="3.5" stroke-width="0" /><circle cx="376" cy="774" fill="#ff0000" r="3.5" stroke-width="0" /><circle cx="393" cy="790" fill="#ff0000" r="3.5" stroke-width="0" /><circle cx="380" cy="778" fill="#ff0000" r="3.5" stroke-width="0" /><circle cx="372" cy="770" fill="#ff0000" r="3.5" stroke-width="0" /><circle cx="395" cy="792" fill="#ff0000" r="3.5" stroke-width="0" /><circle cx="417" cy="812" fill="#ff0000" r="3.5" stroke-width="0" /><circle cx="386" cy="783" fill="#ff0000" r="3.5" stroke-width="0" /><circle cx="391" cy="788" fill="#ff0000" r="3.5" stroke-width="0" /><circle cx="377" cy="775" fill="#ff0000" r="3.5" stroke-width="0" /><circle cx="382" cy="779" fill="#ff0000" r="3.5" stroke-width="0" /></g><g class="e5"><circle cx="353" cy="750" fill="#2b92db" r="3.5" stroke-width="0" /><circle cx="357" cy="754" fill="#2b92db" r="3.5" stroke-width="0" /><circle cx="362" cy="760" fill="#2b92db" r="3.5" stroke-width="0" /><circle cx="339" cy="735" fill="#2b92db" r="3.5" stroke-width="0" /><circle cx="334" cy="730" fill="#2b92db" r="3.5" stroke-width="0" /><circle cx="344" cy="740" fill="#2b92db" r="3.5" stroke-width="0" /><circle cx="358" cy="755" fill="#2b92db" r="3.5" stroke-width="0" /><circle cx="352" cy="749" fill="#2b92db" r="3.5" stroke-width="0" /><circle cx="347" cy="744" fill="#2b92db" r="3.5" stroke-width="0" /><circle cx="326" cy="720" fill="#2b92db" r="3.5" stroke-width="0" /><circle cx="360" cy="757" fill="#2b92db" r="3.5" stroke-width="0" /><circle cx="342" cy="738" fill="#2b92db" r="3.5" stroke-width="0" /><circle cx="341" cy="737" fill="#2b92db" r="3.5" stroke-width="0" /><circle cx="361" cy="759" fill="#2b92db" r="3.5" stroke-width="0" /><circle cx="365" cy="763" fill="#2b92db" r="3.5" stroke-width="0" /></g><g class="e6"><circle cx="287" cy="673" fill="#911eb4" r="3.5" stroke-width="0" /><circle cx="310" cy="701" fill="#911eb4" r="3.5" stroke-width="0" /><circle cx="303" cy="693" fill="#911eb4" r="3.5" stroke-width="0" /><circle cx="297" cy="686" fill="#911eb4" r="3.5" stroke-width="0" /><circle cx="322" cy="716" fill="#911eb4" r="3.5" stroke-width="0" /><circle cx="317" cy="710" fill="#911eb4" r="3.5" stroke-width="0" /><circle cx="320" cy="714" fill="#911eb4" r="3.5" stroke-width="0" /><circle cx="321" cy="715" fill="#911eb4" r="3.5" stroke-width="0" /><circle cx="280" cy="663" fill="#911eb4" r="3.5" stroke-width="0" /><circle cx="302" cy="692" fill="#911eb4" r="3.5" stroke-width="0" /></g><g class="e7"><circle cx="231" cy="591" fill="#3cb44B" r="3.5" stroke-width="0" /><circle cx="235" cy="597" fill="#3cb44B" r="3.5" stroke-width="0" /><circle cx="267" cy="645" fill="#3cb44B" r="3.5" stroke-width="0" /><circle cx="262" cy="638" fill="#3cb44B" r="3.5" stroke-width="0" /><circle cx="244" cy="612" fill="#3cb44B" r="3.5" stroke-width="0" /><circle cx="257" cy="631" fill="#3cb44B" r="3.5" stroke-width="0" /><circle cx="252" cy="624" fill="#3cb44B" r="3.5" stroke-width="0" /><circle cx="259" cy="634" fill="#3cb44B" r="3.5" stroke-width="0" /><circle cx="250" cy="621" fill="#3cb44B" r="3.5" stroke-width="0" /><circle cx="246" cy="614" fill="#3cb44B" r="3.5" stroke-width="0" /><circle cx="260" cy="636" fill="#3cb44B" r="3.5" stroke-width="0" /><circle cx="272" cy="652" fill="#3cb44B" r="3.5" stroke-width="0" /><circle cx="264" cy="641" fill="#3cb44B" r="3.5" stroke-width="0" /><circle cx="270" cy="649" fill="#3cb44B" r="3.5" stroke-width="0" /><circle cx="239" cy="604" fill="#3cb44B" r="3.5" stroke-width="0" /><circle cx="269" cy="648" fill="#3cb44B" r="3.5" stroke-width="0" /><circle cx="237" cy="601" fill="#3cb44B" r="3.5" stroke-width="0" /><circle cx="234" cy="595" fill="#3cb44B" r="3.5" stroke-width="0" /><circle cx="263" cy="640" fill="#3cb44B" r="3.5" stroke-width="0" /><circle cx="268" cy="647" fill="#3cb44B" r="3.5" stroke-width="0" /><circle cx="273" cy="654" fill="#3cb44B" r="3.5" stroke-width="0" /></g><g class="e8"><circle cx="179" cy="494" fill="#ff0000" r="3.5" stroke-width="0" /><circle cx="207" cy="550" fill="#ff0000" r="3.5" stroke-width="0" /><circle cx="199" cy="534" fill="#ff0000" r="3.5" stroke-width="0" /><circle cx="216" cy="566" fill="#ff0000" r="3.5" stroke-width="0" /><circle cx="185" cy="506" fill="#ff0000" r="3.5" stroke-width="0" /><circle cx="225" cy="581" fill="#ff0000" r="3.5" stroke-width="0" /><circle cx="186" cy="509" fill="#ff0000" r="3.5" stroke-width="0" /><circle cx="169" cy="471" fill="#ff0000" r="3.5" stroke-width="0" /><circle cx="210" cy="555" fill="#ff0000" r="3.5" stroke-width="0" /><circle cx="197" cy="530" fill="#ff0000" r="3.5" stroke-width="0" /><circle cx="209" cy="553" fill="#ff0000" r="3.5" stroke-width="0" /><circle cx="175" cy="485" fill="#ff0000" r="3.5" stroke-width="0" /><circle cx="184" cy="505" fill="#ff0000" r="3.5" stroke-width="0" /><circle cx="190" cy="517" fill="#ff0000" r="3.5" stroke-width="0" /><circle cx="172" cy="479" fill="#ff0000" r="3.5" stroke-width="0" /><circle cx="168" cy="470" fill="#ff0000" r="3.5" stroke-width="0" /><circle cx="174" cy="483" fill="#ff0000" r="3.5" stroke-width="0" /><circle cx="193" cy="522" fill="#ff0000" r="3.5" stroke-width="0" /><circle cx="213" cy="561" fill="#ff0000" r="3.5" stroke-width="0" /><circle cx="167" cy="466" fill="#ff0000" r="3.5" stroke-width="0" /><circle cx="181" cy="498" fill="#ff0000" r="3.5" stroke-width="0" /><circle cx="192" cy="521" fill="#ff0000" r="3.5" stroke-width="0" /><circle cx="171" cy="477" fill="#ff0000" r="3.5" stroke-width="0" /><circle cx="217" cy="568" fill="#ff0000" r="3.5" stroke-width="0" /><circle cx="222" cy="576" fill="#ff0000" r="3.5" stroke-width="0" /><circle cx="204" cy="543" fill="#ff0000" r="3.5" stroke-width="0" /><circle cx="226" cy="583" fill="#ff0000" r="3.5" stroke-width="0" /><circle cx="178" cy="492" fill="#ff0000" r="3.5" stroke-width="0" /><circle cx="212" cy="559" fill="#ff0000" r="3.5" stroke-width="0" /><circle cx="220" cy="572" fill="#ff0000" r="3.5" stroke-width="0" /><circle cx="198" cy="533" fill="#ff0000" r="3.5" stroke-width="0" /><circle cx="200" cy="537" fill="#ff0000" r="3.5" stroke-width="0" /><circle cx="182" cy="501" fill="#ff0000" r="3.5" stroke-width="0" /><circle cx="214" cy="562" fill="#ff0000" r="3.5" stroke-width="0" /><circle cx="206" cy="547" fill="#ff0000" r="3.5" stroke-width="0" /><circle cx="177" cy="490" fill="#ff0000" r="3.5" stroke-width="0" /><circle cx="166" cy="464" fill="#ff0000" r="3.5" stroke-width="0" /><circle cx="195" cy="527" fill="#ff0000" r="3.5" stroke-width="0" /></g><g class="e9"><circle cx="146" cy="413" fill="#2b92db" r="3.5" stroke-width="0" /><circle cx="90" cy="91" fill="#2b92db" r="3.5" stroke-width="0" /><circle cx="91" cy="123" fill="#2b92db" r="3.5" stroke-width="0" /><circle cx="113" cy="298" fill="#2b92db" r="3.5" stroke-width="0" /><circle cx="123" cy="340" fill="#2b92db" r="3.5" stroke-width="0" /><circle cx="135" cy="379" fill="#2b92db" r="3.5" stroke-width="0" /><circle cx="97" cy="203" fill="#2b92db" r="3.5" stroke-width="0" /><circle cx="161" cy="453" fill="#2b92db" r="3.5" stroke-width="0" /><circle cx="94" cy="179" fill="#2b92db" r="3.5" stroke-width="0" /><circle cx="106" cy="264" fill="#2b92db" r="3.5" stroke-width="0" /><circle cx="93" cy="165" fill="#2b92db" r="3.5" stroke-width="0" /><circle cx="142" cy="403" fill="#2b92db" r="3.5" stroke-width="0" /><circle cx="163" cy="457" fill="#2b92db" r="3.5" stroke-width="0" /><circle cx="104" cy="256" fill="#2b92db" r="3.5" stroke-width="0" /><circle cx="92" cy="156" fill="#2b92db" r="3.5" stroke-width="0" /><circle cx="100" cy="225" fill="#2b92db" r="3.5" stroke-width="0" /><circle cx="125" cy="346" fill="#2b92db" r="3.5" stroke-width="0" /><circle cx="108" cy="276" fill="#2b92db" r="3.5" stroke-width="0" /><circle cx="98" cy="217" fill="#2b92db" r="3.5" stroke-width="0" /><circle cx="119" cy="326" fill="#2b92db" r="3.5" stroke-width="0" /><circle cx="114" cy="302" fill="#2b92db" r="3.5" stroke-width="0" /><circle cx="124" cy="345" fill="#2b92db" r="3.5" stroke-width="0" /><circle cx="95" cy="185" fill="#2b92db" r="3.5" stroke-width="0" /><circle cx="99" cy="219" fill="#2b92db" r="3.5" stroke-width="0" /><circle cx="118" cy="321" fill="#2b92db" r="3.5" stroke-width="0" /><circle cx="140" cy="397" fill="#2b92db" r="3.5" stroke-width="0" /><circle cx="96" cy="198" fill="#2b92db" r="3.5" stroke-width="0" /><circle cx="143" cy="404" fill="#2b92db" r="3.5" stroke-width="0" /><circle cx="127" cy="355" fill="#2b92db" r="3.5" stroke-width="0" /><circle cx="155" cy="436" fill="#2b92db" r="3.5" stroke-width="0" /><circle cx="160" cy="449" fill="#2b92db" r="3.5" stroke-width="0" /><circle cx="139" cy="392" fill="#2b92db" r="3.5" stroke-width="0" /><circle cx="131" cy="367" fill="#2b92db" r="3.5" stroke-width="0" /><circle cx="148" cy="419" fill="#2b92db" r="3.5" stroke-width="0" /><circle cx="101" cy="237" fill="#2b92db" r="3.5" stroke-width="0" /><circle cx="109" cy="280" fill="#2b92db" r="3.5" stroke-width="0" /><circle cx="133" cy="374" fill="#2b92db" r="3.5" stroke-width="0" /><circle cx="138" cy="390" fill="#2b92db" r="3.5" stroke-width="0" /><circle cx="121" cy="333" fill="#2b92db" r="3.5" stroke-width="0" /><circle cx="122" cy="336" fill="#2b92db" r="3.5" stroke-width="0" /><circle cx="141" cy="400" fill="#2b92db" r="3.5" stroke-width="0" /><circle cx="145" cy="410" fill="#2b92db" r="3.5" stroke-width="0" /><circle cx="136" cy="383" fill="#2b92db" r="3.5" stroke-width="0" /><circle cx="102" cy="241" fill="#2b92db" r="3.5" stroke-width="0" /><circle cx="144" cy="407" fill="#2b92db" r="3.5" stroke-width="0" /><circle cx="115" cy="309" fill="#2b92db" r="3.5" stroke-width="0" /><circle cx="110" cy="286" fill="#2b92db" r="3.5" stroke-width="0" /><circle cx="158" cy="444" fill="#2b92db" r="3.5" stroke-width="0" /><circle cx="153" cy="433" fill="#2b92db" r="3.5" stroke-width="0" /><circle cx="126" cy="351" fill="#2b92db" r="3.5" stroke-width="0" /><circle cx="105" cy="257" fill="#2b92db" r="3.5" stroke-width="0" /><circle cx="111" cy="290" fill="#2b92db" r="3.5" stroke-width="0" /><circle cx="149" cy="422" fill="#2b92db" r="3.5" stroke-width="0" /><circle cx="151" cy="428" fill="#2b92db" r="3.5" stroke-width="0" /><circle cx="162" cy="455" fill="#2b92db" r="3.5" stroke-width="0" /><circle cx="128" cy="356" fill="#2b92db" r="3.5" stroke-width="0" /><circle cx="134" cy="378" fill="#2b92db" r="3.5" stroke-width="0" /><circle cx="117" cy="317" fill="#2b92db" r="3.5" stroke-width="0" /><circle cx="137" cy="387" fill="#2b92db" r="3.5" stroke-width="0" /></g></g></g></svg>