<?xml version="1.0" encoding="utf-8" ?>
<svg baseProfile="full" height="1140px" style="font-size:15;font-family:Arial, san-serif;font-weight:bold;stroke:black;stroke-width:0;fill:#444444" version="1.1" width="1140px" xmlns="http://www.w3.org/2000/svg" xmlns:ev="http://www.w3.org/2001/xml-events" xmlns:xlink="http://www.w3.org/1999/xlink"><defs><clipPath id="areadografico"><rect height="1000" width="1000" x="70" y="70" /></clipPath></defs><g class="master"><g class="poligonos"><polygon clip-path="url(#areadografico)" fill="#000000" fill-opacity="0.1" points="70,1070 1069,666 1069,1070" /><polygon clip-path="url(#areadografico)" fill="#ffffff" fill-opacity="0.1" points="70,1070 1069,71 1069,666" /><polygon clip-path="url(#areadografico)" fill="#000000" fill-opacity="0.1" points="70,1070 1069,71 474,71" /><polygon clip-path="url(#areadografico)" fill="#ffffff" fill-opacity="0.1" points="70,1070 474,71 70,71" /></g><g class="linhas"><line fill-opacity="0.3" stroke="#999999" stroke-width="1" x1="1070" x2="1070" y1="1070" y2="70" /><line fill-opacity="0.3" stroke="#999999" stroke-width="1" x1="70" x2="1070" y1="70" y2="70" /><line fill-opacity="0.3" stroke="#999999" stroke-width="1" x1="970" x2="970" y1="1070" y2="70" /><line fill-opacity="0.3" stroke="#999999" stroke-width="1" x1="70" x2="1070" y1="170" y2="170" /><line fill-opacity="0.3" stroke="#999999" stroke-width="1" x1="870" x2="870" y1="1070" y2="70" /><line fill-opacity="0.3" stroke="#999999" stroke-width="1" x1="70" x2="1070" y1="270" y2="270" /><line fill-opacity="0.3" stroke="#999999" stroke-width="1" x1="770" x2="770" y1="1070" y2="70" /><line fill-opacity="0.3" stroke="#999999" stroke-width="1" x1="70" x2="1070" y1="370" y2="370" /><line fill-opacity="0.3" stroke="#999999" stroke-width="1" x1="670" x2="670" y1="1070" y2="70" /><line fill-opacity="0.3" stroke="#999999" stroke-width="1" x1="70" x2="1070" y1="470" y2="470" /><line fill-opacity="0.3" stroke="#999999" stroke-width="1" x1="570" x2="570" y1="1070" y2="70" /><line fill-opacity="0.3" stroke="#999999" stroke-width="1" x1="70" x2="1070" y1="570" y2="570" /><line fill-opacity="0.3" stroke="#999999" stroke-width="1" x1="470" x2="470" y1="1070" y2="70" /><line fill-opacity="0.3" stroke="#999999" stroke-width="1" x1="70" x2="1070" y1="670" y2="670" /><line fill-opacity="0.3" stroke="#999999" stroke-width="1" x1="370" x2="370" y1="1070" y2="70" /><line fill-opacity="0.3" stroke="#999999" stroke-width="1" x1="70" x2="1070" y1="770" y2="770" /><line fill-opacity="0.3" stroke="#999999" stroke-width="1" x1="270" x2="270" y1="1070" y2="70" /><line fill-opacity="0.3" stroke="#999999" stroke-width="1" x1="70" x2="1070" y1="870" y2="870" /><line fill-opacity="0.3" stroke="#999999" stroke-width="1" x1="170" x2="170" y1="1070" y2="70" /><line fill-opacity="0.3" stroke="#999999" stroke-width="1" x1="70" x2="1070" y1="970" y2="970" /><line fill-opacity="0.3" stroke="#000000" stroke-width="1" x1="70" x2="70" y1="1071" y2="69" /><line fill-opacity="0.3" stroke="#000000" stroke-width="1" x1="69" x2="1071" y1="1070" y2="1070" /></g><g class="textos"><text x="1050" y="1110">1000</text><text x="10" y="71">1000</text><text x="950" y="1110">900</text><text x="10" y="171">900</text><text x="850" y="1110">800</text><text x="10" y="271">800</text><text x="750" y="1110">700</text><text x="10" y="371">700</text><text x="650" y="1110">600</text><text x="10" y="471">600</text><text x="550" y="1110">500</text><text x="10" y="571">500</text><text x="450" y="1110">400</text><text x="10" y="671">400</text><text x="350" y="1110">300</text><text x="10" y="771">300</text><text x="250" y="1110">200</text><text x="10" y="871">200</text><text x="150" y="1110">100</text><text x="10" y="971">100</text><text x="50" y="1111">0</text><text x="9" y="1071">0</text></g><g class="especies"><g class="e0"><circle cx="1020" cy="1050" fill="#ff0000" r="3.5" stroke-width="0" /><circle cx="1025" cy="1050" fill="#ff0000" r="3.5" stroke-width="0" /><circle cx="1030" cy="1050" fill="#ff0000" r="3.5" stroke-width="0" /><circle cx="1035" cy="1050" fill="#ff0000" r="3.5" stroke-width="0" /><circle cx="1041" cy="1050" fill="#ff0000" r="3.5" stroke-width="0" /><circle cx="1046" cy="1050" fill="#ff0000" r="3.5" stroke-width="0" /><circle cx="997" cy="1049" fill="#ff0000" r="3.5" stroke-width="0" /><circle cx="1002" cy="1049" fill="#ff0000" r="3.5" stroke-width="0" /><circle cx="1007" cy="1049" fill="#ff0000" r="3.5" stroke-width="0" /><circle cx="1012" cy="1049" fill="#ff0000" r="3.5" stroke-width="0" /><circle cx="1017" cy="1049" fill="#ff0000" r="3.5" stroke-width="0" /><circle cx="983" cy="1048" fill="#ff0000" r="3.5" stroke-width="0" /><circle cx="989" cy="1048" fill="#ff0000" r="3.5" stroke-width="0" /><circle cx="994" cy="1048" fill="#ff0000" r="3.5" stroke-width="0" /><circle cx="971" cy="1047" fill="#ff0000" r="3.5" stroke-width="0" /><circle cx="976" cy="1047" fill="#ff0000" r="3.5" stroke-width="0" /><circle cx="958" cy="1046" fill="#ff0000" r="3.5" stroke-width="0" /><circle cx="963" cy="1046" fill="#ff0000" r="3.5" stroke-width="0" /><circle cx="968" cy="1046" fill="#ff0000" r="3.5" stroke-width="0" /><circle cx="953" cy="1045" fill="#ff0000" r="3.5" stroke-width="0" /><circle cx="939" cy="1044" fill="#ff0000" r="3.5" stroke-width="0" /><circle cx="944" cy="1044" fill="#ff0000" r="3.5" stroke-width="0" /><circle cx="932" cy="1043" fill="#ff0000" r="3.5" stroke-width="0" /><circle cx="937" cy="1043" fill="#ff0000" r="3.5" stroke-width="0" /><circle cx="926" cy="1042" fill="#ff0000" r="3.5" stroke-width="0" /><circle cx="916" cy="1041" fill="#ff0000" r="3.5" stroke-width="0" /><circle cx="921" cy="1041" fill="#ff0000" r="3.5" stroke-width="0" /><circle cx="913" cy="1040" fill="#ff0000" r="3.5" stroke-width="0" /><circle cx="904" cy="1039" fill="#ff0000" r="3.5" stroke-width="0" /><circle cx="896" cy="1038" fill="#ff0000" r="3.5" stroke-width="0" /><circle cx="901" cy="1038" fill="#ff0000" r="3.5" stroke-width="0" /><circle cx="894" cy="1037" fill="#ff0000" r="3.5" stroke-width="0" /><circle cx="887" cy="1036" fill="#ff0000" r="3.5" stroke-width="0" /><circle cx="881" cy="1035" fill="#ff0000" r="3.5" stroke-width="0" /><circle cx="875" cy="1034" fill="#ff0000" r="3.5" stroke-width="0" /><circle cx="870" cy="1033" fill="#ff0000" r="3.5" stroke-width="0" /><circle cx="865" cy="1032" fill="#ff0000" r="3.5" stroke-width="0" /><circle cx="860" cy="1031" fill="#ff0000" r="3.5" stroke-width="0" /><circle cx="855" cy="1030" fill="#ff0000" r="3.5" stroke-width="0" /><circle cx="850" cy="1029" fill="#ff0000" r="3.5" stroke-width="0" /><circle cx="846" cy="1028" fill="#ff0000" r="3.5" stroke-width="0" /><circle cx="842" cy="1027" fill="#ff0000" r="3.5" stroke-width="0" /><circle cx="831" cy="1025" fill="#ff0000" r="3.5" stroke-width="0" /><circle cx="827" cy="1024" fill="#ff0000" r="3.5" stroke-width="0" /><circle cx="823" cy="1023" fill="#ff0000" r="3.5" stroke-width="0" /><circle cx="820" cy="1022" fill="#ff0000" r="3.5" stroke-width="0" /><circle cx="817" cy="1021" fill="#ff0000" r="3.5" stroke-width="0" /><circle cx="807" cy="1019" fill="#ff0000" r="3.5" stroke-width="0" /><circle cx="805" cy="1018" fill="#ff0000" r="3.5" stroke-width="0" /><circle cx="802" cy="1017" fill="#ff0000" r="3.5" stroke-width="0" /><circle cx="793" cy="1015" fill="#ff0000" r="3.5" stroke-width="0" /><circle cx="791" cy="1014" fill="#ff0000" r="3.5" stroke-width="0" /><circle cx="782" cy="1012" fill="#ff0000" r="3.5" stroke-width="0" /><circle cx="780" cy="1011" fill="#ff0000" r="3.5" stroke-width="0" /><circle cx="772" cy="1009" fill="#ff0000" r="3.5" stroke-width="0" /><circle cx="770" cy="1008" fill="#ff0000" r="3.5" stroke-width="0" /><circle cx="763" cy="1006" fill="#ff0000" r="3.5" stroke-width="0" /><circle cx="755" cy="1004" fill="#ff0000" r="3.5" stroke-width="0" /><circle cx="754" cy="1003" fill="#ff0000" r="3.5" stroke-width="0" /><circle cx="747" cy="1001" fill="#ff0000" r="3.5" stroke-width="0" /><circle cx="740" cy="999" fill="#ff0000" r="3.5" stroke-width="0" /><circle cx="739" cy="998" fill="#ff0000" r="3.5" stroke-width="0" /><circle cx="733" cy="996" fill="#ff0000" r="3.5" stroke-width="0" /><circle cx="727" cy="994" fill="#ff0000" r="3.5" stroke-width="0" /><circle cx="721" cy="992" fill="#ff0000" r="3.5" stroke-width="0" /><circle cx="716" cy="990" fill="#ff0000" r="3.5" stroke-width="0" /><circle cx="710" cy="988" fill="#ff0000" r="3.5" stroke-width="0" /><circle cx="705" cy="986" fill="#ff0000" r="3.5" stroke-width="0" /><circle cx="699" cy="984" fill="#ff0000" r="3.5" stroke-width="0" /><circle cx="694" cy="982" fill="#ff0000" r="3.5" stroke-width="0" /><circle cx="689" cy="980" fill="#ff0000" r="3.5" stroke-width="0" /><circle cx="685" cy="978" fill="#ff0000" r="3.5" stroke-width="0" /><circle cx="681" cy="976" fill="#ff0000" r="3.5" stroke-width="0" /><circle cx="676" cy="974" fill="#ff0000" r="3.5" stroke-width="0" /><circle cx="672" cy="972" fill="#ff0000" r="3.5" stroke-width="0" /><circle cx="663" cy="969" fill="#ff0000" r="3.5" stroke-width="0" /><circle cx="659" cy="967" fill="#ff0000" r="3.5" stroke-width="0" /><circle cx="655" cy="965" fill="#ff0000" r="3.5" stroke-width="0" /><circle cx="651" cy="963" fill="#ff0000" r="3.5" stroke-width="0" /><circle cx="644" cy="960" fill="#ff0000" r="3.5" stroke-width="0" /><circle cx="640" cy="958" fill="#ff0000" r="3.5" stroke-width="0" /><circle cx="633" cy="955" fill="#ff0000" r="3.5" stroke-width="0" /><circle cx="630" cy="953" fill="#ff0000" r="3.5" stroke-width="0" /><circle cx="623" cy="950" fill="#ff0000" r="3.5" stroke-width="0" /><circle cx="620" cy="948" fill="#ff0000" r="3.5" stroke-width="0" /><circle cx="613" cy="945" fill="#ff0000" r="3.5" stroke-width="0" /><circle cx="610" cy="943" fill="#ff0000" r="3.5" stroke-width="0" /><circle cx="603" cy="940" fill="#ff0000" r="3.5" stroke-width="0" /><circle cx="599" cy="937" fill="#ff0000" r="3.5" stroke-width="0" /><circle cx="592" cy="934" fill="#ff0000" r="3.5" stroke-width="0" /><circle cx="589" cy="932" fill="#ff0000" r="3.5" stroke-width="0" /><circle cx="584" cy="929" fill="#ff0000" r="3.5" stroke-width="0" /><circle cx="578" cy="926" fill="#ff0000" r="3.5" stroke-width="0" /><circle cx="572" cy="923" fill="#ff0000" r="3.5" stroke-width="0" /><circle cx="567" cy="920" fill="#ff0000" r="3.5" stroke-width="0" /><circle cx="563" cy="917" fill="#ff0000" r="3.5" stroke-width="0" /><circle cx="558" cy="914" fill="#ff0000" r="3.5" stroke-width="0" /><circle cx="553" cy="911" fill="#ff0000" r="3.5" stroke-width="0" /><circle cx="548" cy="908" fill="#ff0000" r="3.5" stroke-width="0" /><circle cx="543" cy="905" fill="#ff0000" r="3.5" stroke-width="0" /><circle cx="536" cy="901" fill="#ff0000" r="3.5" stroke-width="0" /><circle cx="531" cy="898" fill="#ff0000" r="3.5" stroke-width="0" /><circle cx="527" cy="895" fill="#ff0000" r="3.5" stroke-width="0" /><circle cx="521" cy="891" fill="#ff0000" r="3.5" stroke-width="0" /></g><g class="e1"><circle cx="517" cy="888" fill="#2b92db" r="3.5" stroke-width="0" /><circle cx="510" cy="884" fill="#2b92db" r="3.5" stroke-width="0" /><circle cx="506" cy="881" fill="#2b92db" r="3.5" stroke-width="0" /><circle cx="502" cy="878" fill="#2b92db" r="3.5" stroke-width="0" /><circle cx="496" cy="874" fill="#2b92db" r="3.5" stroke-width="0" /><circle cx="490" cy="870" fill="#2b92db" r="3.5" stroke-width="0" /><circle cx="485" cy="866" fill="#2b92db" r="3.5" stroke-width="0" /><circle cx="479" cy="862" fill="#2b92db" r="3.5" stroke-width="0" /><circle cx="476" cy="859" fill="#2b92db" r="3.5" stroke-width="0" /><circle cx="470" cy="855" fill="#2b92db" r="3.5" stroke-width="0" /><circle cx="465" cy="851" fill="#2b92db" r="3.5" stroke-width="0" /><circle cx="459" cy="847" fill="#2b92db" r="3.5" stroke-width="0" /><circle cx="454" cy="843" fill="#2b92db" r="3.5" stroke-width="0" /><circle cx="449" cy="839" fill="#2b92db" r="3.5" stroke-width="0" /><circle cx="445" cy="835" fill="#2b92db" r="3.5" stroke-width="0" /><circle cx="438" cy="830" fill="#2b92db" r="3.5" stroke-width="0" /><circle cx="434" cy="826" fill="#2b92db" r="3.5" stroke-width="0" /><circle cx="429" cy="822" fill="#2b92db" r="3.5" stroke-width="0" /><circle cx="424" cy="818" fill="#2b92db" r="3.5" stroke-width="0" /><circle cx="418" cy="813" fill="#2b92db" r="3.5" stroke-width="0" /><circle cx="414" cy="809" fill="#2b92db" r="3.5" stroke-width="0" /><circle cx="408" cy="804" fill="#2b92db" r="3.5" stroke-width="0" /><circle cx="403" cy="799" fill="#2b92db" r="3.5" stroke-width="0" /><circle cx="398" cy="795" fill="#2b92db" r="3.5" stroke-width="0" /><circle cx="393" cy="790" fill="#2b92db" r="3.5" stroke-width="0" /><circle cx="388" cy="785" fill="#2b92db" r="3.5" stroke-width="0" /><circle cx="383" cy="780" fill="#2b92db" r="3.5" stroke-width="0" /><circle cx="378" cy="776" fill="#2b92db" r="3.5" stroke-width="0" /><circle cx="373" cy="771" fill="#2b92db" r="3.5" stroke-width="0" /></g><g class="e2"><circle cx="368" cy="766" fill="#911eb4" r="3.5" stroke-width="0" /><circle cx="363" cy="761" fill="#911eb4" r="3.5" stroke-width="0" /><circle cx="359" cy="756" fill="#911eb4" r="3.5" stroke-width="0" /><circle cx="354" cy="751" fill="#911eb4" r="3.5" stroke-width="0" /><circle cx="349" cy="746" fill="#911eb4" r="3.5" stroke-width="0" /><circle cx="344" cy="741" fill="#911eb4" r="3.5" stroke-width="0" /><circle cx="340" cy="736" fill="#911eb4" r="3.5" stroke-width="0" /><circle cx="335" cy="731" fill="#911eb4" r="3.5" stroke-width="0" /><circle cx="330" cy="725" fill="#911eb4" r="3.5" stroke-width="0" /><circle cx="326" cy="720" fill="#911eb4" r="3.5" stroke-width="0" /><circle cx="321" cy="715" fill="#911eb4" r="3.5" stroke-width="0" /><circle cx="317" cy="710" fill="#911eb4" r="3.5" stroke-width="0" /><circle cx="313" cy="705" fill="#911eb4" r="3.5" stroke-width="0" /><circle cx="309" cy="700" fill="#911eb4" r="3.5" stroke-width="0" /><circle cx="305" cy="695" fill="#911eb4" r="3.5" stroke-width="0" /><circle cx="300" cy="689" fill="#911eb4" r="3.5" stroke-width="0" /><circle cx="296" cy="684" fill="#911eb4" r="3.5" stroke-width="0" /><circle cx="292" cy="679" fill="#911eb4" r="3.5" stroke-width="0" /><circle cx="288" cy="674" fill="#911eb4" r="3.5" stroke-width="0" /><circle cx="284" cy="669" fill="#911eb4" r="3.5" stroke-width="0" /><circle cx="281" cy="664" fill="#911eb4" r="3.5" stroke-width="0" /><circle cx="277" cy="659" fill="#911eb4" r="3.5" stroke-width="0" /><circle cx="273" cy="654" fill="#911eb4" r="3.5" stroke-width="0" /><circle cx="269" cy="648" fill="#911eb4" r="3.5" stroke-width="0" /><circle cx="265" cy="643" fill="#911eb4" r="3.5" stroke-width="0" /><circle cx="262" cy="638" fill="#911eb4" r="3.5" stroke-width="0" /><circle cx="258" cy="633" fill="#911eb4" r="3.5" stroke-width="0" /><circle cx="255" cy="628" fill="#911eb4" r="3.5" stroke-width="0" /><circle cx="252" cy="623" fill="#911eb4" r="3.5" stroke-width="0" /></g><g class="e3"><circle cx="248" cy="618" fill="#3cb44B" r="3.5" stroke-width="0" /><circle cx="244" cy="612" fill="#3cb44B" r="3.5" stroke-width="0" /><circle cx="241" cy="607" fill="#3cb44B" r="3.5" stroke-width="0" /><circle cx="238" cy="602" fill="#3cb44B" r="3.5" stroke-width="0" /><circle cx="235" cy="597" fill="#3cb44B" r="3.5" stroke-width="0" /><circle cx="232" cy="592" fill="#3cb44B" r="3.5" stroke-width="0" /><circle cx="229" cy="587" fill="#3cb44B" r="3.5" stroke-width="0" /><circle cx="226" cy="582" fill="#3cb44B" r="3.5" stroke-width="0" /><circle cx="223" cy="577" fill="#3cb44B" r="3.5" stroke-width="0" /><circle cx="219" cy="571" fill="#3cb44B" r="3.5" stroke-width="0" /><circle cx="216" cy="566" fill="#3cb44B" r="3.5" stroke-width="0" /><circle cx="213" cy="561" fill="#3cb44B" r="3.5" stroke-width="0" /><circle cx="211" cy="556" fill="#3cb44B" r="3.5" stroke-width="0" /><circle cx="208" cy="551" fill="#3cb44B" r="3.5" stroke-width="0" /><circle cx="205" cy="546" fill="#3cb44B" r="3.5" stroke-width="0" /><circle cx="203" cy="541" fill="#3cb44B" r="3.5" stroke-width="0" /><circle cx="199" cy="535" fill="#3cb44B" r="3.5" stroke-width="0" /><circle cx="197" cy="530" fill="#3cb44B" r="3.5" stroke-width="0" /><circle cx="194" cy="525" fill="#3cb44B" r="3.5" stroke-width="0" /><circle cx="192" cy="520" fill="#3cb44B" r="3.5" stroke-width="0" /><circle cx="189" cy="515" fill="#3cb44B" r="3.5" stroke-width="0" /><circle cx="187" cy="510" fill="#3cb44B" r="3.5" stroke-width="0" /><circle cx="184" cy="505" fill="#3cb44B" r="3.5" stroke-width="0" /><circle cx="182" cy="500" fill="#3cb44B" r="3.5" stroke-width="0" /><circle cx="179" cy="494" fill="#3cb44B" r="3.5" stroke-width="0" /><circle cx="177" cy="489" fill="#3cb44B" r="3.5" stroke-width="0" /><circle cx="175" cy="484" fill="#3cb44B" r="3.5" stroke-width="0" /><circle cx="172" cy="479" fill="#3cb44B" r="3.5" stroke-width="0" /><circle cx="170" cy="474" fill="#3cb44B" r="3.5" stroke-width="0" /><circle cx="168" cy="469" fill="#3cb44B" r="3.5" stroke-width="0" /><circle cx="166" cy="464" fill="#3cb44B" r="3.5" stroke-width="0" /><circle cx="164" cy="459" fill="#3cb44B" r="3.5" stroke-width="0" /><circle cx="161" cy="453" fill="#3cb44B" r="3.5" stroke-width="0" /><circle cx="159" cy="448" fill="#3cb44B" r="3.5" stroke-width="0" /><circle cx="157" cy="443" fill="#3cb44B" r="3.5" stroke-width="0" /><circle cx="155" cy="438" fill="#3cb44B" r="3.5" stroke-width="0" /><circle cx="153" cy="433" fill="#3cb44B" r="3.5" stroke-width="0" /><circle cx="151" cy="428" fill="#3cb44B" r="3.5" stroke-width="0" /><circle cx="150" cy="423" fill="#3cb44B" r="3.5" stroke-width="0" /><circle cx="147" cy="417" fill="#3cb44B" r="3.5" stroke-width="0" /><circle cx="146" cy="412" fill="#3cb44B" r="3.5" stroke-width="0" /><circle cx="144" cy="407" fill="#3cb44B" r="3.5" stroke-width="0" /><circle cx="142" cy="402" fill="#3cb44B" r="3.5" stroke-width="0" /><circle cx="140" cy="397" fill="#3cb44B" r="3.5" stroke-width="0" /><circle cx="139" cy="392" fill="#3cb44B" r="3.5" stroke-width="0" /><circle cx="137" cy="387" fill="#3cb44B" r="3.5" stroke-width="0" /><circle cx="135" cy="382" fill="#3cb44B" r="3.5" stroke-width="0" /><circle cx="134" cy="376" fill="#3cb44B" r="3.5" stroke-width="0" /><circle cx="132" cy="371" fill="#3cb44B" r="3.5" stroke-width="0" /><circle cx="131" cy="366" fill="#3cb44B" r="3.5" stroke-width="0" /><circle cx="129" cy="361" fill="#3cb44B" r="3.5" stroke-width="0" /><circle cx="128" cy="356" fill="#3cb44B" r="3.5" stroke-width="0" /><circle cx="126" cy="351" fill="#3cb44B" r="3.5" stroke-width="0" /><circle cx="125" cy="346" fill="#3cb44B" r="3.5" stroke-width="0" /><circle cx="123" cy="340" fill="#3cb44B" r="3.5" stroke-width="0" /><circle cx="122" cy="335" fill="#3cb44B" r="3.5" stroke-width="0" /><circle cx="120" cy="330" fill="#3cb44B" r="3.5" stroke-width="0" /><circle cx="119" cy="325" fill="#3cb44B" r="3.5" stroke-width="0" /><circle cx="118" cy="320" fill="#3cb44B" r="3.5" stroke-width="0" /><circle cx="117" cy="315" fill="#3cb44B" r="3.5" stroke-width="0" /><circle cx="116" cy="310" fill="#3cb44B" r="3.5" stroke-width="0" /><circle cx="114" cy="305" fill="#3cb44B" r="3.5" stroke-width="0" /><circle cx="113" cy="299" fill="#3cb44B" r="3.5" stroke-width="0" /><circle cx="112" cy="294" fill="#3cb44B" r="3.5" stroke-width="0" /><circle cx="111" cy="289" fill="#3cb44B" r="3.5" stroke-width="0" /><circle cx="110" cy="284" fill="#3cb44B" r="3.5" stroke-width="0" /><circle cx="109" cy="279" fill="#3cb44B" r="3.5" stroke-width="0" /><circle cx="108" cy="274" fill="#3cb44B" r="3.5" stroke-width="0" /><circle cx="107" cy="269" fill="#3cb44B" r="3.5" stroke-width="0" /><circle cx="106" cy="263" fill="#3cb44B" r="3.5" stroke-width="0" /><circle cx="105" cy="258" fill="#3cb44B" r="3.5" stroke-width="0" /><circle cx="104" cy="253" fill="#3cb44B" r="3.5" stroke-width="0" /><circle cx="103" cy="248" fill="#3cb44B" r="3.5" stroke-width="0" /><circle cx="102" cy="243" fill="#3cb44B" r="3.5" stroke-width="0" /><circle cx="101" cy="238" fill="#3cb44B" r="3.5" stroke-width="0" /><circle cx="101" cy="233" fill="#3cb44B" r="3.5" stroke-width="0" /><circle cx="100" cy="228" fill="#3cb44B" r="3.5" stroke-width="0" /><circle cx="99" cy="222" fill="#3cb44B" r="3.5" stroke-width="0" /><circle cx="98" cy="217" fill="#3cb44B" r="3.5" stroke-width="0" /><circle cx="98" cy="212" fill="#3cb44B" r="3.5" stroke-width="0" /><circle cx="97" cy="207" fill="#3cb44B" r="3.5" stroke-width="0" /><circle cx="97" cy="202" fill="#3cb44B" r="3.5" stroke-width="0" /><circle cx="96" cy="197" fill="#3cb44B" r="3.5" stroke-width="0" /><circle cx="95" cy="192" fill="#3cb44B" r="3.5" stroke-width="0" /><circle cx="95" cy="187" fill="#3cb44B" r="3.5" stroke-width="0" /><circle cx="94" cy="181" fill="#3cb44B" r="3.5" stroke-width="0" /><circle cx="94" cy="176" fill="#3cb44B" r="3.5" stroke-width="0" /><circle cx="93" cy="171" fill="#3cb44B" r="3.5" stroke-width="0" /><circle cx="93" cy="166" fill="#3cb44B" r="3.5" stroke-width="0" /><circle cx="93" cy="161" fill="#3cb44B" r="3.5" stroke-width="0" /><circle cx="92" cy="156" fill="#3cb44B" r="3.5" stroke-width="0" /><circle cx="92" cy="151" fill="#3cb44B" r="3.5" stroke-width="0" /><circle cx="92" cy="145" fill="#3cb44B" r="3.5" stroke-width="0" /><circle cx="91" cy="140" fill="#3cb44B" r="3.5" stroke-width="0" /><circle cx="91" cy="135" fill="#3cb44B" r="3.5" stroke-width="0" /><circle cx="91" cy="130" fill="#3cb44B" r="3.5" stroke-width="0" /><circle cx="91" cy="125" fill="#3cb44B" r="3.5" stroke-width="0" /><circle cx="90" cy="120" fill="#3cb44B" r="3.5" stroke-width="0" /><circle cx="90" cy="115" fill="#3cb44B" r="3.5" stroke-width="0" /><circle cx="90" cy="110" fill="#3cb44B" r="3.5" stroke-width="0" /><circle cx="90" cy="104" fill="#3cb44B" r="3.5" stroke-width="0" /><circle cx="90" cy="99" fill="#3cb44B" r="3.5" stroke-width="0" /><circle cx="90" cy="94" fill="#3cb44B" r="3.5" stroke-width="0" /></g></g></g></svg>