<?xml version="1.0" encoding="utf-8" ?>
<svg baseProfile="full" height="1140px" style="font-size:15;font-family:Arial, san-serif;font-weight:bold;stroke:black;stroke-width:0;fill:#444444" version="1.1" width="1140px" xmlns="http://www.w3.org/2000/svg" xmlns:ev="http://www.w3.org/2001/xml-events" xmlns:xlink="http://www.w3.org/1999/xlink"><defs><clipPath id="areadografico"><rect height="1000" width="1000" x="70" y="70" /></clipPath></defs><g class="master"><g class="poligonos"><polygon clip-path="url(#areadografico)" fill="#000000" fill-opacity="0.1" points="70,1070 1069,876 1069,1070" /><polygon clip-path="url(#areadografico)" fill="#ffffff" fill-opacity="0.1" points="70,1070 1069,666 1069,876" /><polygon clip-path="url(#areadografico)" fill="#000000" fill-opacity="0.1" points="70,1070 1069,395 1069,666" /><polygon clip-path="url(#areadografico)" fill="#ffffff" fill-opacity="0.1" points="70,1070 1069,71 1069,395" /><polygon clip-path="url(#areadografico)" fill="#000000" fill-opacity="0.1" points="70,1070 1069,71 745,71" /><polygon clip-path="url(#areadografico)" fill="#ffffff" fill-opacity="0.1" points="70,1070 745,71 474,71" /><polygon clip-path="url(#areadografico)" fill="#000000" fill-opacity="0.1" points="70,1070 474,71 264,71" /><polygon clip-path="url(#areadografico)" fill="#ffffff" fill-opacity="0.1" points="70,1070 264,71 70,71" /></g><g class="linhas"><line fill-opacity="0.3" stroke="#999999" stroke-width="1" x1="1070" x2="1070" y1="1070" y2="70" /><line fill-opacity="0.3" stroke="#999999" stroke-width="1" x1="70" x2="1070" y1="70" y2="70" /><line fill-opacity="0.3" stroke="#999999" stroke-width="1" x1="970" x2="970" y1="1070" y2="70" /><line fill-opacity="0.3" stroke="#999999" stroke-width="1" x1="70" x2="1070" y1="170" y2="170" /><line fill-opacity="0.3" stroke="#999999" stroke-width="1" x1="870" x2="870" y1="1070" y2="70" /><line fill-opacity="0.3" stroke="#999999" stroke-width="1" x1="70" x2="1070" y1="270" y2="270" /><line fill-opacity="0.3" stroke="#999999" stroke-width="1" x1="770" x2="770" y1="1070" y2="70" /><line fill-opacity="0.3" stroke="#999999" stroke-width="1" x1="70" x2="1070" y1="370" y2="370" /><line fill-opacity="0.3" stroke="#999999" stroke-width="1" x1="670" x2="670" y1="1070" y2="70" /><line fill-opacity="0.3" stroke="#999999" stroke-width="1" x1="70" x2="1070" y1="470" y2="470" /><line fill-opacity="0.3" stroke="#999999" stroke-width="1" x1="570" x2="570" y1="1070" y2="70" /><line fill-opacity="0.3" stroke="#999999" stroke-width="1" x1="70" x2="1070" y1="570" y2="570" /><line fill-opacity="0.3" stroke="#999999" stroke-width="1" x1="470" x2="470" y1="1070" y2="70" /><line fill-opacity="0.3" stroke="#999999" stroke-width="1" x1="70" x2="1070" y1="670" y2="670" /><line fill-opacity="0.3" stroke="#999999" stroke-width="1" x1="370" x2="370" y1="1070" y2="70" /><line fill-opacity="0.3" stroke="#999999" stroke-width="1" x1="70" x2="1070" y1="770" y2="770" /><line fill-opacity="0.3" stroke="#999999" stroke-width="1" x1="270" x2="270" y1="1070" y2="70" /><line fill-opacity="0.3" stroke="#999999" stroke-width="1" x1="70" x2="1070" y1="870" y2="870" /><line fill-opacity="0.3" stroke="#999999" stroke-width="1" x1="170" x2="170" y1="1070" y2="70" /><line fill-opacity="0.3" stroke="#999999" stroke-width="1" x1="70" x2="1070" y1="970" y2="970" /><line fill-opacity="0.3" stroke="#000000" stroke-width="1" x1="70" x2="70" y1="1071" y2="69" /><line fill-opacity="0.3" stroke="#000000" stroke-width="1" x1="69" x2="1071" y1="1070" y2="1070" /></g><g class="textos"><text x="1050" y="1110">1000</text><text x="10" y="71">1000</text><text x="950" y="1110">900</text><text x="10" y="171">900</text><text x="850" y="1110">800</text><text x="10" y="271">800</text><text x="750" y="1110">700</text><text x="10" y="371">700</text><text x="650" y="1110">600</text><text x="10" y="471">600</text><text x="550" y="1110">500</text><text x="10" y="571">500</text><text x="450" y="1110">400</text><text x="10" y="671">400</text><text x="350" y="1110">300</text><text x="10" y="771">300</text><text x="250" y="1110">200</text><text x="10" y="871">200</text><text x="150" y="1110">100</text><text x="10" y="971">100</text><text x="50" y="1111">0</text><text x="9" y="1071">0</text></g><g class="especies"><g class="e0"><circle cx="1020" cy="1050" fill="#ff0000" r="3.5" stroke-width="0" /><circle cx="1028" cy="1050" fill="#ff0000" r="3.5" stroke-width="0" /><circle cx="1036" cy="1050" fill="#ff0000" r="3.5" stroke-width="0" /><circle cx="1043" cy="1050" fill="#ff0000" r="3.5" stroke-width="0" /><circle cx="997" cy="1049" fill="#ff0000" r="3.5" stroke-width="0" /><circle cx="1005" cy="1049" fill="#ff0000" r="3.5" stroke-width="0" /><circle cx="1013" cy="1049" fill="#ff0000" r="3.5" stroke-width="0" /><circle cx="981" cy="1048" fill="#ff0000" r="3.5" stroke-width="0" /><circle cx="989" cy="1048" fill="#ff0000" r="3.5" stroke-width="0" /><circle cx="969" cy="1047" fill="#ff0000" r="3.5" stroke-width="0" /><circle cx="977" cy="1047" fill="#ff0000" r="3.5" stroke-width="0" /><circle cx="961" cy="1046" fill="#ff0000" r="3.5" stroke-width="0" /><circle cx="948" cy="1045" fill="#ff0000" r="3.5" stroke-width="0" /><circle cx="956" cy="1045" fill="#ff0000" r="3.5" stroke-width="0" /><circle cx="945" cy="1044" fill="#ff0000" r="3.5" stroke-width="0" /><circle cx="936" cy="1043" fill="#ff0000" r="3.5" stroke-width="0" /><circle cx="927" cy="1042" fill="#ff0000" r="3.5" stroke-width="0" /><circle cx="920" cy="1041" fill="#ff0000" r="3.5" stroke-width="0" /><circle cx="914" cy="1040" fill="#ff0000" r="3.5" stroke-width="0" /><circle cx="908" cy="1039" fill="#ff0000" r="3.5" stroke-width="0" /><circle cx="890" cy="1037" fill="#ff0000" r="3.5" stroke-width="0" /><circle cx="886" cy="1036" fill="#ff0000" r="3.5" stroke-width="0" /><circle cx="883" cy="1035" fill="#ff0000" r="3.5" stroke-width="0" /><circle cx="869" cy="1033" fill="#ff0000" r="3.5" stroke-width="0" /><circle cx="867" cy="1032" fill="#ff0000" r="3.5" stroke-width="0" /><circle cx="854" cy="1030" fill="#ff0000" r="3.5" stroke-width="0" /><circle cx="852" cy="1029" fill="#ff0000" r="3.5" stroke-width="0" /><circle cx="842" cy="1027" fill="#ff0000" r="3.5" stroke-width="0" /><circle cx="833" cy="1025" fill="#ff0000" r="3.5" stroke-width="0" /><circle cx="822" cy="1023" fill="#ff0000" r="3.5" stroke-width="0" /><circle cx="814" cy="1021" fill="#ff0000" r="3.5" stroke-width="0" /><circle cx="807" cy="1019" fill="#ff0000" r="3.5" stroke-width="0" /><circle cx="800" cy="1017" fill="#ff0000" r="3.5" stroke-width="0" /><circle cx="792" cy="1015" fill="#ff0000" r="3.5" stroke-width="0" /><circle cx="786" cy="1013" fill="#ff0000" r="3.5" stroke-width="0" /><circle cx="780" cy="1011" fill="#ff0000" r="3.5" stroke-width="0" /><circle cx="768" cy="1008" fill="#ff0000" r="3.5" stroke-width="0" /><circle cx="764" cy="1006" fill="#ff0000" r="3.5" stroke-width="0" /><circle cx="757" cy="1004" fill="#ff0000" r="3.5" stroke-width="0" /><circle cx="747" cy="1001" fill="#ff0000" r="3.5" stroke-width="0" /><circle cx="737" cy="998" fill="#ff0000" r="3.5" stroke-width="0" /><circle cx="729" cy="995" fill="#ff0000" r="3.5" stroke-width="0" /><circle cx="724" cy="993" fill="#ff0000" r="3.5" stroke-width="0" /><circle cx="716" cy="990" fill="#ff0000" r="3.5" stroke-width="0" /><circle cx="708" cy="987" fill="#ff0000" r="3.5" stroke-width="0" /><circle cx="700" cy="984" fill="#ff0000" r="3.5" stroke-width="0" /><circle cx="692" cy="981" fill="#ff0000" r="3.5" stroke-width="0" /><circle cx="686" cy="978" fill="#ff0000" r="3.5" stroke-width="0" /><circle cx="679" cy="975" fill="#ff0000" r="3.5" stroke-width="0" /><circle cx="668" cy="971" fill="#ff0000" r="3.5" stroke-width="0" /><circle cx="662" cy="968" fill="#ff0000" r="3.5" stroke-width="0" /><circle cx="656" cy="965" fill="#ff0000" r="3.5" stroke-width="0" /><circle cx="647" cy="961" fill="#ff0000" r="3.5" stroke-width="0" /></g><g class="e1"><circle cx="637" cy="957" fill="#2b92db" r="3.5" stroke-width="0" /><circle cx="629" cy="953" fill="#2b92db" r="3.5" stroke-width="0" /><circle cx="624" cy="950" fill="#2b92db" r="3.5" stroke-width="0" /><circle cx="616" cy="946" fill="#2b92db" r="3.5" stroke-width="0" /><circle cx="608" cy="942" fill="#2b92db" r="3.5" stroke-width="0" /><circle cx="598" cy="937" fill="#2b92db" r="3.5" stroke-width="0" /><circle cx="590" cy="933" fill="#2b92db" r="3.5" stroke-width="0" /><circle cx="583" cy="929" fill="#2b92db" r="3.5" stroke-width="0" /><circle cx="577" cy="925" fill="#2b92db" r="3.5" stroke-width="0" /><circle cx="567" cy="920" fill="#2b92db" r="3.5" stroke-width="0" /><circle cx="561" cy="916" fill="#2b92db" r="3.5" stroke-width="0" /><circle cx="552" cy="911" fill="#2b92db" r="3.5" stroke-width="0" /><circle cx="544" cy="906" fill="#2b92db" r="3.5" stroke-width="0" /><circle cx="536" cy="901" fill="#2b92db" r="3.5" stroke-width="0" /><circle cx="528" cy="896" fill="#2b92db" r="3.5" stroke-width="0" /><circle cx="523" cy="892" fill="#2b92db" r="3.5" stroke-width="0" /></g><g class="e2"><circle cx="513" cy="886" fill="#911eb4" r="3.5" stroke-width="0" /><circle cx="506" cy="881" fill="#911eb4" r="3.5" stroke-width="0" /><circle cx="497" cy="875" fill="#911eb4" r="3.5" stroke-width="0" /><circle cx="491" cy="870" fill="#911eb4" r="3.5" stroke-width="0" /><circle cx="484" cy="865" fill="#911eb4" r="3.5" stroke-width="0" /><circle cx="476" cy="859" fill="#911eb4" r="3.5" stroke-width="0" /><circle cx="468" cy="853" fill="#911eb4" r="3.5" stroke-width="0" /><circle cx="460" cy="847" fill="#911eb4" r="3.5" stroke-width="0" /><circle cx="452" cy="841" fill="#911eb4" r="3.5" stroke-width="0" /><circle cx="445" cy="835" fill="#911eb4" r="3.5" stroke-width="0" /><circle cx="436" cy="828" fill="#911eb4" r="3.5" stroke-width="0" /></g><g class="e3"><circle cx="428" cy="821" fill="#3cb44B" r="3.5" stroke-width="0" /><circle cx="421" cy="815" fill="#3cb44B" r="3.5" stroke-width="0" /><circle cx="413" cy="808" fill="#3cb44B" r="3.5" stroke-width="0" /><circle cx="405" cy="801" fill="#3cb44B" r="3.5" stroke-width="0" /><circle cx="397" cy="794" fill="#3cb44B" r="3.5" stroke-width="0" /><circle cx="389" cy="786" fill="#3cb44B" r="3.5" stroke-width="0" /><circle cx="381" cy="779" fill="#3cb44B" r="3.5" stroke-width="0" /><circle cx="374" cy="772" fill="#3cb44B" r="3.5" stroke-width="0" /></g><g class="e4"><circle cx="367" cy="765" fill="#ff0000" r="3.5" stroke-width="0" /><circle cx="360" cy="757" fill="#ff0000" r="3.5" stroke-width="0" /><circle cx="353" cy="750" fill="#ff0000" r="3.5" stroke-width="0" /><circle cx="345" cy="742" fill="#ff0000" r="3.5" stroke-width="0" /><circle cx="338" cy="734" fill="#ff0000" r="3.5" stroke-width="0" /><circle cx="331" cy="726" fill="#ff0000" r="3.5" stroke-width="0" /><circle cx="324" cy="718" fill="#ff0000" r="3.5" stroke-width="0" /><circle cx="318" cy="711" fill="#ff0000" r="3.5" stroke-width="0" /></g><g class="e5"><circle cx="311" cy="703" fill="#2b92db" r="3.5" stroke-width="0" /><circle cx="305" cy="695" fill="#2b92db" r="3.5" stroke-width="0" /><circle cx="298" cy="687" fill="#2b92db" r="3.5" stroke-width="0" /><circle cx="293" cy="680" fill="#2b92db" r="3.5" stroke-width="0" /><circle cx="287" cy="672" fill="#2b92db" r="3.5" stroke-width="0" /><circle cx="281" cy="664" fill="#2b92db" r="3.5" stroke-width="0" /><circle cx="275" cy="656" fill="#2b92db" r="3.5" stroke-width="0" /><circle cx="270" cy="649" fill="#2b92db" r="3.5" stroke-width="0" /><circle cx="264" cy="641" fill="#2b92db" r="3.5" stroke-width="0" /><circle cx="258" cy="633" fill="#2b92db" r="3.5" stroke-width="0" /><circle cx="253" cy="625" fill="#2b92db" r="3.5" stroke-width="0" /></g><g class="e6"><circle cx="248" cy="617" fill="#911eb4" r="3.5" stroke-width="0" /><circle cx="243" cy="610" fill="#911eb4" r="3.5" stroke-width="0" /><circle cx="238" cy="602" fill="#911eb4" r="3.5" stroke-width="0" /><circle cx="233" cy="594" fill="#911eb4" r="3.5" stroke-width="0" /><circle cx="228" cy="586" fill="#911eb4" r="3.5" stroke-width="0" /><circle cx="224" cy="579" fill="#911eb4" r="3.5" stroke-width="0" /><circle cx="219" cy="571" fill="#911eb4" r="3.5" stroke-width="0" /><circle cx="215" cy="563" fill="#911eb4" r="3.5" stroke-width="0" /><circle cx="210" cy="555" fill="#911eb4" r="3.5" stroke-width="0" /><circle cx="206" cy="548" fill="#911eb4" r="3.5" stroke-width="0" /><circle cx="202" cy="540" fill="#911eb4" r="3.5" stroke-width="0" /><circle cx="198" cy="532" fill="#911eb4" r="3.5" stroke-width="0" /><circle cx="194" cy="524" fill="#911eb4" r="3.5" stroke-width="0" /><circle cx="190" cy="516" fill="#911eb4" r="3.5" stroke-width="0" /><circle cx="186" cy="509" fill="#911eb4" r="3.5" stroke-width="0" /><circle cx="182" cy="501" fill="#911eb4" r="3.5" stroke-width="0" /></g><g class="e7"><circle cx="179" cy="493" fill="#3cb44B" r="3.5" stroke-width="0" /><circle cx="175" cy="485" fill="#3cb44B" r="3.5" stroke-width="0" /><circle cx="172" cy="478" fill="#3cb44B" r="3.5" stroke-width="0" /><circle cx="168" cy="470" fill="#3cb44B" r="3.5" stroke-width="0" /><circle cx="165" cy="462" fill="#3cb44B" r="3.5" stroke-width="0" /><circle cx="162" cy="454" fill="#3cb44B" r="3.5" stroke-width="0" /><circle cx="158" cy="446" fill="#3cb44B" r="3.5" stroke-width="0" /><circle cx="156" cy="439" fill="#3cb44B" r="3.5" stroke-width="0" /><circle cx="153" cy="431" fill="#3cb44B" r="3.5" stroke-width="0" /><circle cx="150" cy="423" fill="#3cb44B" r="3.5" stroke-width="0" /><circle cx="147" cy="415" fill="#3cb44B" r="3.5" stroke-width="0" /><circle cx="144" cy="408" fill="#3cb44B" r="3.5" stroke-width="0" /><circle cx="141" cy="400" fill="#3cb44B" r="3.5" stroke-width="0" /><circle cx="139" cy="392" fill="#3cb44B" r="3.5" stroke-width="0" /><circle cx="136" cy="384" fill="#3cb44B" r="3.5" stroke-width="0" /><circle cx="134" cy="377" fill="#3cb44B" r="3.5" stroke-width="0" /><circle cx="131" cy="369" fill="#3cb44B" r="3.5" stroke-width="0" /><circle cx="129" cy="361" fill="#3cb44B" r="3.5" stroke-width="0" /><circle cx="127" cy="353" fill="#3cb44B" r="3.5" stroke-width="0" /><circle cx="124" cy="345" fill="#3cb44B" r="3.5" stroke-width="0" /><circle cx="123" cy="338" fill="#3cb44B" r="3.5" stroke-width="0" /><circle cx="120" cy="330" fill="#3cb44B" r="3.5" stroke-width="0" /><circle cx="118" cy="322" fill="#3cb44B" r="3.5" stroke-width="0" /><circle cx="116" cy="314" fill="#3cb44B" r="3.5" stroke-width="0" /><circle cx="115" cy="307" fill="#3cb44B" r="3.5" stroke-width="0" /><circle cx="113" cy="299" fill="#3cb44B" r="3.5" stroke-width="0" /><circle cx="111" cy="291" fill="#3cb44B" r="3.5" stroke-width="0" /><circle cx="110" cy="283" fill="#3cb44B" r="3.5" stroke-width="0" /><circle cx="108" cy="276" fill="#3cb44B" r="3.5" stroke-width="0" /><circle cx="107" cy="268" fill="#3cb44B" r="3.5" stroke-width="0" /><circle cx="105" cy="260" fill="#3cb44B" r="3.5" stroke-width="0" /><circle cx="104" cy="252" fill="#3cb44B" r="3.5" stroke-width="0" /><circle cx="102" cy="244" fill="#3cb44B" r="3.5" stroke-width="0" /><circle cx="101" cy="237" fill="#3cb44B" r="3.5" stroke-width="0" /><circle cx="100" cy="229" fill="#3cb44B" r="3.5" stroke-width="0" /><circle cx="99" cy="221" fill="#3cb44B" r="3.5" stroke-width="0" /><circle cx="98" cy="213" fill="#3cb44B" r="3.5" stroke-width="0" /><circle cx="97" cy="206" fill="#3cb44B" r="3.5" stroke-width="0" /><circle cx="96" cy="198" fill="#3cb44B" r="3.5" stroke-width="0" /><circle cx="95" cy="190" fill="#3cb44B" r="3.5" stroke-width="0" /><circle cx="94" cy="182" fill="#3cb44B" r="3.5" stroke-width="0" /><circle cx="94" cy="174" fill="#3cb44B" r="3.5" stroke-width="0" /><circle cx="93" cy="167" fill="#3cb44B" r="3.5" stroke-width="0" /><circle cx="92" cy="159" fill="#3cb44B" r="3.5" stroke-width="0" /><circle cx="92" cy="151" fill="#3cb44B" r="3.5" stroke-width="0" /><circle cx="91" cy="143" fill="#3cb44B" r="3.5" stroke-width="0" /><circle cx="91" cy="136" fill="#3cb44B" r="3.5" stroke-width="0" /><circle cx="91" cy="128" fill="#3cb44B" r="3.5" stroke-width="0" /><circle cx="90" cy="120" fill="#3cb44B" r="3.5" stroke-width="0" /><circle cx="90" cy="112" fill="#3cb44B" r="3.5" stroke-width="0" /><circle cx="90" cy="105" fill="#3cb44B" r="3.5" stroke-width="0" /><circle cx="90" cy="97" fill="#3cb44B" r="3.5" stroke-width="0" /></g></g></g></svg>