<?xml version="1.0" encoding="utf-8" ?>
<svg baseProfile="full" height="1140px" style="font-size:15;font-family:Arial, san-serif;font-weight:bold;stroke:black;stroke-width:0;fill:#444444" version="1.1" width="1140px" xmlns="http://www.w3.org/2000/svg" xmlns:ev="http://www.w3.org/2001/xml-events" xmlns:xlink="http://www.w3.org/1999/xlink"><defs><clipPath id="areadografico"><rect height="1000" width="1000" x="70" y="70" /></clipPath></defs><g class="master"><g class="poligonos"><polygon clip-path="url(#areadografico)" fill="#000000" fill-opacity="0.1" points="70,1070 1069,912 1069,1070" /><polygon clip-path="url(#areadografico)" fill="#ffffff" fill-opacity="0.1" points="70,1070 1069,745 1069,912" /><polygon clip-path="url(#areadografico)" fill="#000000" fill-opacity="0.1" points="70,1070 1069,560 1069,745" /><polygon clip-path="url(#areadografico)" fill="#ffffff" fill-opacity="0.1" points="70,1070 1069,343 1069,560" /><polygon clip-path="url(#areadografico)" fill="#000000" fill-opacity="0.1" points="70,1070 1069,71 1069,343" /><polygon clip-path="url(#areadografico)" fill="#ffffff" fill-opacity="0.1" points="70,1070 1069,71 797,71" /><polygon clip-path="url(#areadografico)" fill="#000000" fill-opacity="0.1" points="70,1070 797,71 580,71" /><polygon clip-path="url(#areadografico)" fill="#ffffff" fill-opacity="0.1" points="70,1070 580,71 395,71" /><polygon clip-path="url(#areadografico)" fill="#000000" fill-opacity="0.1" points="70,1070 395,71 228,71" /><polygon clip-path="url(#areadografico)" fill="#ffffff" fill-opacity="0.1" points="70,1070 228,71 70,71" /></g><g class="linhas"><line fill-opacity="0.3" stroke="#999999" stroke-width="1" x1="1070" x2="1070" y1="1070" y2="70" /><line fill-opacity="0.3" stroke="#999999" stroke-width="1" x1="70" x2="1070" y1="70" y2="70" /><line fill-opacity="0.3" stroke="#999999" stroke-width="1" x1="970" x2="970" y1="1070" y2="70" /><line fill-opacity="0.3" stroke="#999999" stroke-width="1" x1="70" x2="1070" y1="170" y2="170" /><line fill-opacity="0.3" stroke="#999999" stroke-width="1" x1="870" x2="870" y1="1070" y2="70" /><line fill-opacity="0.3" stroke="#999999" stroke-width="1" x1="70" x2="1070" y1="270" y2="270" /><line fill-opacity="0.3" stroke="#999999" stroke-width="1" x1="770" x2="770" y1="1070" y2="70" /><line fill-opacity="0.3" stroke="#999999" stroke-width="1" x1="70" x2="1070" y1="370" y2="370" /><line fill-opacity="0.3" stroke="#999999" stroke-width="1" x1="670" x2="670" y1="1070" y2="70" /><line fill-opacity="0.3" stroke="#999999" stroke-width="1" x1="70" x2="1070" y1="470" y2="470" /><line fill-opacity="0.3" stroke="#999999" stroke-width="1" x1="570" x2="570" y1="1070" y2="70" /><line fill-opacity="0.3" stroke="#999999" stroke-width="1" x1="70" x2="1070" y1="570" y2="570" /><line fill-opacity="0.3" stroke="#999999" stroke-width="1" x1="470" x2="470" y1="1070" y2="70" /><line fill-opacity="0.3" stroke="#999999" stroke-width="1" x1="70" x2="1070" y1="670" y2="670" /><line fill-opacity="0.3" stroke="#999999" stroke-width="1" x1="370" x2="370" y1="1070" y2="70" /><line fill-opacity="0.3" stroke="#999999" stroke-width="1" x1="70" x2="1070" y1="770" y2="770" /><line fill-opacity="0.3" stroke="#999999" stroke-width="1" x1="270" x2="270" y1="1070" y2="70" /><line fill-opacity="0.3" stroke="#999999" stroke-width="1" x1="70" x2="1070" y1="870" y2="870" /><line fill-opacity="0.3" stroke="#999999" stroke-width="1" x1="170" x2="170" y1="1070" y2="70" /><line fill-opacity="0.3" stroke="#999999" stroke-width="1" x1="70" x2="1070" y1="970" y2="970" /><line fill-opacity="0.3" stroke="#000000" stroke-width="1" x1="70" x2="70" y1="1071" y2="69" /><line fill-opacity="0.3" stroke="#000000" stroke-width="1" x1="69" x2="1071" y1="1070" y2="1070" /></g><g class="textos"><text x="1050" y="1110">1000</text><text x="10" y="71">1000</text><text x="950" y="1110">900</text><text x="10" y="171">900</text><text x="850" y="1110">800</text><text x="10" y="271">800</text><text x="750" y="1110">700</text><text x="10" y="371">700</text><text x="650" y="1110">600</text><text x="10" y="471">600</text><text x="550" y="1110">500</text><text x="10" y="571">500</text><text x="450" y="1110">400</text><text x="10" y="671">400</text><text x="350" y="1110">300</text><text x="10" y="771">300</text><text x="250" y="1110">200</text><text x="10" y="871">200</text><text x="150" y="1110">100</text><text x="10" y="971">100</text><text x="50" y="1111">0</text><text x="9" y="1071">0</text></g><g class="especies"><g class="e0"><circle cx="1020" cy="1050" fill="#ff0000" r="3.5" stroke-width="0" /><circle cx="1034" cy="1050" fill="#ff0000" r="3.5" stroke-width="0" /><circle cx="1049" cy="1050" fill="#ff0000" r="3.5" stroke-width="0" /><circle cx="1009" cy="1049" fill="#ff0000" r="3.5" stroke-width="0" /><circle cx="984" cy="1048" fill="#ff0000" r="3.5" stroke-width="0" /><circle cx="971" cy="1047" fill="#ff0000" r="3.5" stroke-width="0" /><circle cx="962" cy="1046" fill="#ff0000" r="3.5" stroke-width="0" /><circle cx="955" cy="1045" fill="#ff0000" r="3.5" stroke-width="0" /><circle cx="934" cy="1043" fill="#ff0000" r="3.5" stroke-width="0" /><circle cx="917" cy="1041" fill="#ff0000" r="3.5" stroke-width="0" /><circle cx="903" cy="1039" fill="#ff0000" r="3.5" stroke-width="0" /><circle cx="892" cy="1037" fill="#ff0000" r="3.5" stroke-width="0" /><circle cx="873" cy="1034" fill="#ff0000" r="3.5" stroke-width="0" /><circle cx="866" cy="1032" fill="#ff0000" r="3.5" stroke-width="0" /><circle cx="850" cy="1029" fill="#ff0000" r="3.5" stroke-width="0" /><circle cx="838" cy="1026" fill="#ff0000" r="3.5" stroke-width="0" /><circle cx="818" cy="1022" fill="#ff0000" r="3.5" stroke-width="0" /><circle cx="809" cy="1019" fill="#ff0000" r="3.5" stroke-width="0" /><circle cx="794" cy="1015" fill="#ff0000" r="3.5" stroke-width="0" /><circle cx="780" cy="1011" fill="#ff0000" r="3.5" stroke-width="0" /><circle cx="762" cy="1006" fill="#ff0000" r="3.5" stroke-width="0" /><circle cx="751" cy="1002" fill="#ff0000" r="3.5" stroke-width="0" /><circle cx="735" cy="997" fill="#ff0000" r="3.5" stroke-width="0" /><circle cx="722" cy="992" fill="#ff0000" r="3.5" stroke-width="0" /><circle cx="705" cy="986" fill="#ff0000" r="3.5" stroke-width="0" /><circle cx="693" cy="981" fill="#ff0000" r="3.5" stroke-width="0" /><circle cx="678" cy="975" fill="#ff0000" r="3.5" stroke-width="0" /></g><g class="e1"><circle cx="665" cy="969" fill="#2b92db" r="3.5" stroke-width="0" /><circle cx="648" cy="962" fill="#2b92db" r="3.5" stroke-width="0" /><circle cx="636" cy="956" fill="#2b92db" r="3.5" stroke-width="0" /><circle cx="622" cy="949" fill="#2b92db" r="3.5" stroke-width="0" /><circle cx="605" cy="941" fill="#2b92db" r="3.5" stroke-width="0" /><circle cx="593" cy="934" fill="#2b92db" r="3.5" stroke-width="0" /><circle cx="578" cy="926" fill="#2b92db" r="3.5" stroke-width="0" /><circle cx="562" cy="917" fill="#2b92db" r="3.5" stroke-width="0" /></g><g class="e2"><circle cx="549" cy="909" fill="#911eb4" r="3.5" stroke-width="0" /><circle cx="534" cy="900" fill="#911eb4" r="3.5" stroke-width="0" /><circle cx="519" cy="890" fill="#911eb4" r="3.5" stroke-width="0" /><circle cx="506" cy="881" fill="#911eb4" r="3.5" stroke-width="0" /><circle cx="492" cy="871" fill="#911eb4" r="3.5" stroke-width="0" /></g><g class="e3"><circle cx="477" cy="860" fill="#3cb44B" r="3.5" stroke-width="0" /><circle cx="464" cy="850" fill="#3cb44B" r="3.5" stroke-width="0" /><circle cx="450" cy="839" fill="#3cb44B" r="3.5" stroke-width="0" /><circle cx="434" cy="826" fill="#3cb44B" r="3.5" stroke-width="0" /></g><g class="e4"><circle cx="420" cy="814" fill="#ff0000" r="3.5" stroke-width="0" /><circle cx="406" cy="802" fill="#ff0000" r="3.5" stroke-width="0" /><circle cx="391" cy="788" fill="#ff0000" r="3.5" stroke-width="0" /><circle cx="377" cy="775" fill="#ff0000" r="3.5" stroke-width="0" /></g><g class="e5"><circle cx="364" cy="762" fill="#2b92db" r="3.5" stroke-width="0" /><circle cx="351" cy="748" fill="#2b92db" r="3.5" stroke-width="0" /><circle cx="337" cy="733" fill="#2b92db" r="3.5" stroke-width="0" /></g><g class="e6"><circle cx="325" cy="719" fill="#911eb4" r="3.5" stroke-width="0" /><circle cx="313" cy="705" fill="#911eb4" r="3.5" stroke-width="0" /><circle cx="301" cy="690" fill="#911eb4" r="3.5" stroke-width="0" /><circle cx="290" cy="676" fill="#911eb4" r="3.5" stroke-width="0" /><circle cx="279" cy="662" fill="#911eb4" r="3.5" stroke-width="0" /></g><g class="e7"><circle cx="268" cy="647" fill="#3cb44B" r="3.5" stroke-width="0" /><circle cx="258" cy="633" fill="#3cb44B" r="3.5" stroke-width="0" /><circle cx="249" cy="619" fill="#3cb44B" r="3.5" stroke-width="0" /><circle cx="239" cy="604" fill="#3cb44B" r="3.5" stroke-width="0" /><circle cx="230" cy="590" fill="#3cb44B" r="3.5" stroke-width="0" /></g><g class="e8"><circle cx="222" cy="576" fill="#ff0000" r="3.5" stroke-width="0" /><circle cx="213" cy="561" fill="#ff0000" r="3.5" stroke-width="0" /><circle cx="206" cy="547" fill="#ff0000" r="3.5" stroke-width="0" /><circle cx="198" cy="533" fill="#ff0000" r="3.5" stroke-width="0" /><circle cx="191" cy="518" fill="#ff0000" r="3.5" stroke-width="0" /><circle cx="184" cy="504" fill="#ff0000" r="3.5" stroke-width="0" /><circle cx="177" cy="490" fill="#ff0000" r="3.5" stroke-width="0" /><circle cx="171" cy="476" fill="#ff0000" r="3.5" stroke-width="0" /></g><g class="e9"><circle cx="165" cy="461" fill="#2b92db" r="3.5" stroke-width="0" /><circle cx="159" cy="447" fill="#2b92db" r="3.5" stroke-width="0" /><circle cx="153" cy="433" fill="#2b92db" r="3.5" stroke-width="0" /><circle cx="148" cy="418" fill="#2b92db" r="3.5" stroke-width="0" /><circle cx="143" cy="404" fill="#2b92db" r="3.5" stroke-width="0" /><circle cx="138" cy="390" fill="#2b92db" r="3.5" stroke-width="0" /><circle cx="133" cy="375" fill="#2b92db" r="3.5" stroke-width="0" /><circle cx="129" cy="361" fill="#2b92db" r="3.5" stroke-width="0" /><circle cx="125" cy="347" fill="#2b92db" r="3.5" stroke-width="0" /><circle cx="121" cy="332" fill="#2b92db" r="3.5" stroke-width="0" /><circle cx="117" cy="318" fill="#2b92db" r="3.5" stroke-width="0" /><circle cx="114" cy="304" fill="#2b92db" r="3.5" stroke-width="0" /><circle cx="111" cy="289" fill="#2b92db" r="3.5" stroke-width="0" /><circle cx="108" cy="275" fill="#2b92db" r="3.5" stroke-width="0" /><circle cx="105" cy="261" fill="#2b92db" r="3.5" stroke-width="0" /><circle cx="103" cy="246" fill="#2b92db" r="3.5" stroke-width="0" /><circle cx="101" cy="232" fill="#2b92db" r="3.5" stroke-width="0" /><circle cx="99" cy="218" fill="#2b92db" r="3.5" stroke-width="0" /><circle cx="97" cy="204" fill="#2b92db" r="3.5" stroke-width="0" /><circle cx="95" cy="189" fill="#2b92db" r="3.5" stroke-width="0" /><circle cx="94" cy="175" fill="#2b92db" r="3.5" stroke-width="0" /><circle cx="93" cy="161" fill="#2b92db" r="3.5" stroke-width="0" /><circle cx="92" cy="146" fill="#2b92db" r="3.5" stroke-width="0" /><circle cx="91" cy="132" fill="#2b92db" r="3.5" stroke-width="0" /><circle cx="90" cy="118" fill="#2b92db" r="3.5" stroke-width="0" /><circle cx="90" cy="103" fill="#2b92db" r="3.5" stroke-width="0" /></g></g></g></svg>