<?xml version="1.0" encoding="utf-8" ?>
<svg baseProfile="full" height="1140px" style="font-size:15;font-family:Arial, san-serif;font-weight:bold;stroke:black;stroke-width:0;fill:#444444" version="1.1" width="1140px" xmlns="http://www.w3.org/2000/svg" xmlns:ev="http://www.w3.org/2001/xml-events" xmlns:xlink="http://www.w3.org/1999/xlink"><defs><clipPath id="areadografico"><rect height="1000" width="1000" x="70" y="70" /></clipPath></defs><g class="master"><g class="poligonos"><polygon clip-path="url(#areadografico)" fill="#000000" fill-opacity="0.1" points="70,1070 1069,745 1069,1070" /><polygon clip-path="url(#areadografico)" fill="#ffffff" fill-opacity="0.1" points="70,1070 1069,343 1069,745" /><polygon clip-path="url(#areadografico)" fill="#000000" fill-opacity="0.1" points="70,1070 1069,-306 1069,343" /><polygon clip-path="url(#areadografico)" fill="#ffffff" fill-opacity="0.1" points="70,1070 797,71 395,71" /><polygon clip-path="url(#areadografico)" fill="#000000" fill-opacity="0.1" points="70,1070 395,71 70,71" /></g><g class="linhas"><line fill-opacity="0.3" stroke="#999999" stroke-width="1" x1="1070" x2="1070" y1="1070" y2="70" /><line fill-opacity="0.3" stroke="#999999" stroke-width="1" x1="70" x2="1070" y1="70" y2="70" /><line fill-opacity="0.3" stroke="#999999" stroke-width="1" x1="970" x2="970" y1="1070" y2="70" /><line fill-opacity="0.3" stroke="#999999" stroke-width="1" x1="70" x2="1070" y1="170" y2="170" /><line fill-opacity="0.3" stroke="#999999" stroke-width="1" x1="870" x2="870" y1="1070" y2="70" /><line fill-opacity="0.3" stroke="#999999" stroke-width="1" x1="70" x2="1070" y1="270" y2="270" /><line fill-opacity="0.3" stroke="#999999" stroke-width="1" x1="770" x2="770" y1="1070" y2="70" /><line fill-opacity="0.3" stroke="#999999" stroke-width="1" x1="70" x2="1070" y1="370" y2="370" /><line fill-opacity="0.3" stroke="#999999" stroke-width="1" x1="670" x2="670" y1="1070" y2="70" /><line fill-opacity="0.3" stroke="#999999" stroke-width="1" x1="70" x2="1070" y1="470" y2="470" /><line fill-opacity="0.3" stroke="#999999" stroke-width="1" x1="570" x2="570" y1="1070" y2="70" /><line fill-opacity="0.3" stroke="#999999" stroke-width="1" x1="70" x2="1070" y1="570" y2="570" /><line fill-opacity="0.3" stroke="#999999" stroke-width="1" x1="470" x2="470" y1="1070" y2="70" /><line fill-opacity="0.3" stroke="#999999" stroke-width="1" x1="70" x2="1070" y1="670" y2="670" /><line fill-opacity="0.3" stroke="#999999" stroke-width="1" x1="370" x2="370" y1="1070" y2="70" /><line fill-opacity="0.3" stroke="#999999" stroke-width="1" x1="70" x2="1070" y1="770" y2="770" /><line fill-opacity="0.3" stroke="#999999" stroke-width="1" x1="270" x2="270" y1="1070" y2="70" /><line fill-opacity="0.3" stroke="#999999" stroke-width="1" x1="70" x2="1070" y1="870" y2="870" /><line fill-opacity="0.3" stroke="#999999" stroke-width="1" x1="170" x2="170" y1="1070" y2="70" /><line fill-opacity="0.3" stroke="#999999" stroke-width="1" x1="70" x2="1070" y1="970" y2="970" /><line fill-opacity="0.3" stroke="#000000" stroke-width="1" x1="70" x2="70" y1="1071" y2="69" /><line fill-opacity="0.3" stroke="#000000" stroke-width="1" x1="69" x2="1071" y1="1070" y2="1070" /></g><g class="textos"><text x="1050" y="1110">1000</text><text x="10" y="71">1000</text><text x="950" y="1110">900</text><text x="10" y="171">900</text><text x="850" y="1110">800</text><text x="10" y="271">800</text><text x="750" y="1110">700</text><text x="10" y="371">700</text><text x="650" y="1110">600</text><text x="10" y="471">600</text><text x="550" y="1110">500</text><text x="10" y="571">500</text><text x="450" y="1110">400</text><text x="10" y="671">400</text><text x="350" y="1110">300</text><text x="10" y="771">300</text><text x="250" y="1110">200</text><text x="10" y="871">200</text><text x="150" y="1110">100</text><text x="10" y="971">100</text><text x="50" y="1111">0</text><text x="9" y="1071">0</text></g><g class="especies"><g class="e0"><circle cx="1020" cy="1050" fill="#ff0000" r="3.5" stroke-width="0" /><circle cx="1027" cy="1050" fill="#ff0000" r="3.5" stroke-width="0" /><circle cx="1035" cy="1050" fill="#ff0000" r="3.5" stroke-width="0" /><circle cx="1042" cy="1050" fill="#ff0000" r="3.5" stroke-width="0" /><circle cx="1049" cy="1050" fill="#ff0000" r="3.5" stroke-width="0" /><circle cx="1003" cy="1049" fill="#ff0000" r="3.5" stroke-width="0" /><circle cx="1010" cy="1049" fill="#ff0000" r="3.5" stroke-width="0" /><circle cx="1017" cy="1049" fill="#ff0000" r="3.5" stroke-width="0" /><circle cx="986" cy="1048" fill="#ff0000" r="3.5" stroke-width="0" /><circle cx="993" cy="1048" fill="#ff0000" r="3.5" stroke-width="0" /><circle cx="973" cy="1047" fill="#ff0000" r="3.5" stroke-width="0" /><circle cx="980" cy="1047" fill="#ff0000" r="3.5" stroke-width="0" /><circle cx="964" cy="1046" fill="#ff0000" r="3.5" stroke-width="0" /><circle cx="951" cy="1045" fill="#ff0000" r="3.5" stroke-width="0" /><circle cx="939" cy="1044" fill="#ff0000" r="3.5" stroke-width="0" /><circle cx="946" cy="1044" fill="#ff0000" r="3.5" stroke-width="0" /><circle cx="937" cy="1043" fill="#ff0000" r="3.5" stroke-width="0" /><circle cx="928" cy="1042" fill="#ff0000" r="3.5" stroke-width="0" /><circle cx="920" cy="1041" fill="#ff0000" r="3.5" stroke-width="0" /><circle cx="914" cy="1040" fill="#ff0000" r="3.5" stroke-width="0" /><circle cx="907" cy="1039" fill="#ff0000" r="3.5" stroke-width="0" /><circle cx="901" cy="1038" fill="#ff0000" r="3.5" stroke-width="0" /><circle cx="885" cy="1036" fill="#ff0000" r="3.5" stroke-width="0" /><circle cx="881" cy="1035" fill="#ff0000" r="3.5" stroke-width="0" /><circle cx="877" cy="1034" fill="#ff0000" r="3.5" stroke-width="0" /><circle cx="864" cy="1032" fill="#ff0000" r="3.5" stroke-width="0" /><circle cx="861" cy="1031" fill="#ff0000" r="3.5" stroke-width="0" /><circle cx="848" cy="1029" fill="#ff0000" r="3.5" stroke-width="0" /><circle cx="847" cy="1028" fill="#ff0000" r="3.5" stroke-width="0" /><circle cx="836" cy="1026" fill="#ff0000" r="3.5" stroke-width="0" /><circle cx="827" cy="1024" fill="#ff0000" r="3.5" stroke-width="0" /><circle cx="825" cy="1023" fill="#ff0000" r="3.5" stroke-width="0" /><circle cx="816" cy="1021" fill="#ff0000" r="3.5" stroke-width="0" /><circle cx="809" cy="1019" fill="#ff0000" r="3.5" stroke-width="0" /><circle cx="801" cy="1017" fill="#ff0000" r="3.5" stroke-width="0" /><circle cx="793" cy="1015" fill="#ff0000" r="3.5" stroke-width="0" /><circle cx="787" cy="1013" fill="#ff0000" r="3.5" stroke-width="0" /><circle cx="780" cy="1011" fill="#ff0000" r="3.5" stroke-width="0" /><circle cx="774" cy="1009" fill="#ff0000" r="3.5" stroke-width="0" /><circle cx="763" cy="1006" fill="#ff0000" r="3.5" stroke-width="0" /><circle cx="756" cy="1004" fill="#ff0000" r="3.5" stroke-width="0" /><circle cx="751" cy="1002" fill="#ff0000" r="3.5" stroke-width="0" /><circle cx="741" cy="999" fill="#ff0000" r="3.5" stroke-width="0" /><circle cx="736" cy="997" fill="#ff0000" r="3.5" stroke-width="0" /><circle cx="727" cy="994" fill="#ff0000" r="3.5" stroke-width="0" /><circle cx="719" cy="991" fill="#ff0000" r="3.5" stroke-width="0" /><circle cx="714" cy="989" fill="#ff0000" r="3.5" stroke-width="0" /><circle cx="702" cy="985" fill="#ff0000" r="3.5" stroke-width="0" /><circle cx="698" cy="983" fill="#ff0000" r="3.5" stroke-width="0" /><circle cx="690" cy="980" fill="#ff0000" r="3.5" stroke-width="0" /><circle cx="684" cy="977" fill="#ff0000" r="3.5" stroke-width="0" /><circle cx="676" cy="974" fill="#ff0000" r="3.5" stroke-width="0" /><circle cx="669" cy="971" fill="#ff0000" r="3.5" stroke-width="0" /><circle cx="659" cy="967" fill="#ff0000" r="3.5" stroke-width="0" /><circle cx="652" cy="964" fill="#ff0000" r="3.5" stroke-width="0" /><circle cx="647" cy="961" fill="#ff0000" r="3.5" stroke-width="0" /><circle cx="637" cy="957" fill="#ff0000" r="3.5" stroke-width="0" /><circle cx="632" cy="954" fill="#ff0000" r="3.5" stroke-width="0" /><circle cx="623" cy="950" fill="#ff0000" r="3.5" stroke-width="0" /><circle cx="615" cy="946" fill="#ff0000" r="3.5" stroke-width="0" /><circle cx="610" cy="943" fill="#ff0000" r="3.5" stroke-width="0" /><circle cx="601" cy="939" fill="#ff0000" r="3.5" stroke-width="0" /><circle cx="595" cy="935" fill="#ff0000" r="3.5" stroke-width="0" /><circle cx="587" cy="931" fill="#ff0000" r="3.5" stroke-width="0" /><circle cx="579" cy="927" fill="#ff0000" r="3.5" stroke-width="0" /><circle cx="573" cy="923" fill="#ff0000" r="3.5" stroke-width="0" /><circle cx="564" cy="918" fill="#ff0000" r="3.5" stroke-width="0" /><circle cx="558" cy="914" fill="#ff0000" r="3.5" stroke-width="0" /></g><g class="e1"><circle cx="551" cy="910" fill="#2b92db" r="3.5" stroke-width="0" /><circle cx="542" cy="905" fill="#2b92db" r="3.5" stroke-width="0" /><circle cx="534" cy="900" fill="#2b92db" r="3.5" stroke-width="0" /><circle cx="529" cy="896" fill="#2b92db" r="3.5" stroke-width="0" /><circle cx="521" cy="891" fill="#2b92db" r="3.5" stroke-width="0" /><circle cx="514" cy="886" fill="#2b92db" r="3.5" stroke-width="0" /><circle cx="506" cy="881" fill="#2b92db" r="3.5" stroke-width="0" /><circle cx="499" cy="876" fill="#2b92db" r="3.5" stroke-width="0" /><circle cx="490" cy="870" fill="#2b92db" r="3.5" stroke-width="0" /><circle cx="483" cy="865" fill="#2b92db" r="3.5" stroke-width="0" /><circle cx="477" cy="860" fill="#2b92db" r="3.5" stroke-width="0" /><circle cx="469" cy="854" fill="#2b92db" r="3.5" stroke-width="0" /><circle cx="462" cy="849" fill="#2b92db" r="3.5" stroke-width="0" /><circle cx="454" cy="843" fill="#2b92db" r="3.5" stroke-width="0" /><circle cx="447" cy="837" fill="#2b92db" r="3.5" stroke-width="0" /><circle cx="440" cy="831" fill="#2b92db" r="3.5" stroke-width="0" /><circle cx="433" cy="825" fill="#2b92db" r="3.5" stroke-width="0" /><circle cx="425" cy="819" fill="#2b92db" r="3.5" stroke-width="0" /></g><g class="e2"><circle cx="419" cy="813" fill="#911eb4" r="3.5" stroke-width="0" /><circle cx="411" cy="806" fill="#911eb4" r="3.5" stroke-width="0" /><circle cx="403" cy="799" fill="#911eb4" r="3.5" stroke-width="0" /><circle cx="396" cy="793" fill="#911eb4" r="3.5" stroke-width="0" /><circle cx="388" cy="785" fill="#911eb4" r="3.5" stroke-width="0" /><circle cx="382" cy="779" fill="#911eb4" r="3.5" stroke-width="0" /><circle cx="374" cy="772" fill="#911eb4" r="3.5" stroke-width="0" /><circle cx="367" cy="765" fill="#911eb4" r="3.5" stroke-width="0" /><circle cx="361" cy="758" fill="#911eb4" r="3.5" stroke-width="0" /><circle cx="354" cy="751" fill="#911eb4" r="3.5" stroke-width="0" /><circle cx="346" cy="743" fill="#911eb4" r="3.5" stroke-width="0" /><circle cx="340" cy="736" fill="#911eb4" r="3.5" stroke-width="0" /><circle cx="334" cy="729" fill="#911eb4" r="3.5" stroke-width="0" /><circle cx="327" cy="721" fill="#911eb4" r="3.5" stroke-width="0" /></g><g class="e3"><circle cx="320" cy="714" fill="#3cb44B" r="3.5" stroke-width="0" /><circle cx="315" cy="707" fill="#3cb44B" r="3.5" stroke-width="0" /><circle cx="308" cy="699" fill="#3cb44B" r="3.5" stroke-width="0" /><circle cx="302" cy="692" fill="#3cb44B" r="3.5" stroke-width="0" /><circle cx="296" cy="684" fill="#3cb44B" r="3.5" stroke-width="0" /><circle cx="290" cy="677" fill="#3cb44B" r="3.5" stroke-width="0" /><circle cx="285" cy="670" fill="#3cb44B" r="3.5" stroke-width="0" /><circle cx="279" cy="662" fill="#3cb44B" r="3.5" stroke-width="0" /><circle cx="274" cy="655" fill="#3cb44B" r="3.5" stroke-width="0" /><circle cx="269" cy="648" fill="#3cb44B" r="3.5" stroke-width="0" /><circle cx="263" cy="640" fill="#3cb44B" r="3.5" stroke-width="0" /><circle cx="258" cy="633" fill="#3cb44B" r="3.5" stroke-width="0" /><circle cx="254" cy="626" fill="#3cb44B" r="3.5" stroke-width="0" /><circle cx="248" cy="618" fill="#3cb44B" r="3.5" stroke-width="0" /><circle cx="244" cy="611" fill="#3cb44B" r="3.5" stroke-width="0" /><circle cx="239" cy="604" fill="#3cb44B" r="3.5" stroke-width="0" /><circle cx="234" cy="596" fill="#3cb44B" r="3.5" stroke-width="0" /><circle cx="230" cy="589" fill="#3cb44B" r="3.5" stroke-width="0" /></g><g class="e4"><circle cx="226" cy="582" fill="#ff0000" r="3.5" stroke-width="0" /><circle cx="221" cy="574" fill="#ff0000" r="3.5" stroke-width="0" /><circle cx="217" cy="567" fill="#ff0000" r="3.5" stroke-width="0" /><circle cx="212" cy="559" fill="#ff0000" r="3.5" stroke-width="0" /><circle cx="208" cy="552" fill="#ff0000" r="3.5" stroke-width="0" /><circle cx="205" cy="545" fill="#ff0000" r="3.5" stroke-width="0" /><circle cx="200" cy="537" fill="#ff0000" r="3.5" stroke-width="0" /><circle cx="197" cy="530" fill="#ff0000" r="3.5" stroke-width="0" /><circle cx="193" cy="523" fill="#ff0000" r="3.5" stroke-width="0" /><circle cx="189" cy="515" fill="#ff0000" r="3.5" stroke-width="0" /><circle cx="186" cy="508" fill="#ff0000" r="3.5" stroke-width="0" /><circle cx="182" cy="501" fill="#ff0000" r="3.5" stroke-width="0" /><circle cx="179" cy="493" fill="#ff0000" r="3.5" stroke-width="0" /><circle cx="175" cy="486" fill="#ff0000" r="3.5" stroke-width="0" /><circle cx="172" cy="479" fill="#ff0000" r="3.5" stroke-width="0" /><circle cx="169" cy="471" fill="#ff0000" r="3.5" stroke-width="0" /><circle cx="166" cy="464" fill="#ff0000" r="3.5" stroke-width="0" /><circle cx="163" cy="457" fill="#ff0000" r="3.5" stroke-width="0" /><circle cx="160" cy="449" fill="#ff0000" r="3.5" stroke-width="0" /><circle cx="157" cy="442" fill="#ff0000" r="3.5" stroke-width="0" /><circle cx="154" cy="435" fill="#ff0000" r="3.5" stroke-width="0" /><circle cx="151" cy="427" fill="#ff0000" r="3.5" stroke-width="0" /><circle cx="149" cy="420" fill="#ff0000" r="3.5" stroke-width="0" /><circle cx="146" cy="412" fill="#ff0000" r="3.5" stroke-width="0" /><circle cx="143" cy="405" fill="#ff0000" r="3.5" stroke-width="0" /><circle cx="141" cy="398" fill="#ff0000" r="3.5" stroke-width="0" /><circle cx="138" cy="390" fill="#ff0000" r="3.5" stroke-width="0" /><circle cx="136" cy="383" fill="#ff0000" r="3.5" stroke-width="0" /><circle cx="134" cy="376" fill="#ff0000" r="3.5" stroke-width="0" /><circle cx="131" cy="368" fill="#ff0000" r="3.5" stroke-width="0" /><circle cx="129" cy="361" fill="#ff0000" r="3.5" stroke-width="0" /><circle cx="127" cy="354" fill="#ff0000" r="3.5" stroke-width="0" /><circle cx="125" cy="346" fill="#ff0000" r="3.5" stroke-width="0" /><circle cx="123" cy="339" fill="#ff0000" r="3.5" stroke-width="0" /><circle cx="121" cy="332" fill="#ff0000" r="3.5" stroke-width="0" /><circle cx="119" cy="324" fill="#ff0000" r="3.5" stroke-width="0" /><circle cx="117" cy="317" fill="#ff0000" r="3.5" stroke-width="0" /><circle cx="116" cy="310" fill="#ff0000" r="3.5" stroke-width="0" /><circle cx="114" cy="302" fill="#ff0000" r="3.5" stroke-width="0" /><circle cx="112" cy="295" fill="#ff0000" r="3.5" stroke-width="0" /><circle cx="110" cy="287" fill="#ff0000" r="3.5" stroke-width="0" /><circle cx="109" cy="280" fill="#ff0000" r="3.5" stroke-width="0" /><circle cx="108" cy="273" fill="#ff0000" r="3.5" stroke-width="0" /><circle cx="106" cy="265" fill="#ff0000" r="3.5" stroke-width="0" /><circle cx="105" cy="258" fill="#ff0000" r="3.5" stroke-width="0" /><circle cx="104" cy="251" fill="#ff0000" r="3.5" stroke-width="0" /><circle cx="102" cy="243" fill="#ff0000" r="3.5" stroke-width="0" /><circle cx="101" cy="236" fill="#ff0000" r="3.5" stroke-width="0" /><circle cx="100" cy="229" fill="#ff0000" r="3.5" stroke-width="0" /><circle cx="99" cy="221" fill="#ff0000" r="3.5" stroke-width="0" /><circle cx="98" cy="214" fill="#ff0000" r="3.5" stroke-width="0" /><circle cx="97" cy="207" fill="#ff0000" r="3.5" stroke-width="0" /><circle cx="96" cy="199" fill="#ff0000" r="3.5" stroke-width="0" /><circle cx="95" cy="192" fill="#ff0000" r="3.5" stroke-width="0" /><circle cx="95" cy="185" fill="#ff0000" r="3.5" stroke-width="0" /><circle cx="94" cy="177" fill="#ff0000" r="3.5" stroke-width="0" /><circle cx="93" cy="170" fill="#ff0000" r="3.5" stroke-width="0" /><circle cx="93" cy="163" fill="#ff0000" r="3.5" stroke-width="0" /><circle cx="92" cy="155" fill="#ff0000" r="3.5" stroke-width="0" /><circle cx="92" cy="148" fill="#ff0000" r="3.5" stroke-width="0" /><circle cx="91" cy="140" fill="#ff0000" r="3.5" stroke-width="0" /><circle cx="91" cy="133" fill="#ff0000" r="3.5" stroke-width="0" /><circle cx="91" cy="126" fill="#ff0000" r="3.5" stroke-width="0" /><circle cx="90" cy="118" fill="#ff0000" r="3.5" stroke-width="0" /><circle cx="90" cy="111" fill="#ff0000" r="3.5" stroke-width="0" /><circle cx="90" cy="104" fill="#ff0000" r="3.5" stroke-width="0" /><circle cx="90" cy="96" fill="#ff0000" r="3.5" stroke-width="0" /></g></g></g></svg>