<?xml version="1.0" encoding="utf-8" ?>
<svg baseProfile="full" height="1140px" style="font-size:15;font-family:Arial, san-serif;font-weight:bold;stroke:black;stroke-width:0;fill:#444444" version="1.1" width="1140px" xmlns="http://www.w3.org/2000/svg" xmlns:ev="http://www.w3.org/2001/xml-events" xmlns:xlink="http://www.w3.org/1999/xlink"><defs><clipPath id="areadografico"><rect height="1000" width="1000" x="70" y="70" /></clipPath></defs><g class="master"><g class="poligonos"><polygon clip-path="url(#areadografico)" fill="#000000" fill-opacity="0.1" points="70,1070 1069,876 1069,1070" /><polygon clip-path="url(#areadografico)" fill="#ffffff" fill-opacity="0.1" points="70,1070 1069,666 1069,876" /><polygon clip-path="url(#areadografico)" fill="#000000" fill-opacity="0.1" points="70,1070 1069,395 1069,666" /><polygon clip-path="url(#areadografico)" fill="#ffffff" fill-opacity="0.1" points="70,1070 1069,71 1069,395" /><polygon clip-path="url(#areadografico)" fill="#000000" fill-opacity="0.1" points="70,1070 1069,71 745,71" /><polygon clip-path="url(#areadografico)" fill="#ffffff" fill-opacity="0.1" points="70,1070 745,71 474,71" /><polygon clip-path="url(#areadografico)" fill="#000000" fill-opacity="0.1" points="70,1070 474,71 264,71" /><polygon clip-path="url(#areadografico)" fill="#ffffff" fill-opacity="0.1" points="70,1070 264,71 70,71" /></g><g class="linhas"><line fill-opacity="0.3" stroke="#999999" stroke-width="1" x1="1070" x2="1070" y1="1070" y2="70" /><line fill-opacity="0.3" stroke="#999999" stroke-width="1" x1="70" x2="1070" y1="70" y2="70" /><line fill-opacity="0.3" stroke="#999999" stroke-width="1" x1="970" x2="970" y1="1070" y2="70" /><line fill-opacity="0.3" stroke="#999999" stroke-width="1" x1="70" x2="1070" y1="170" y2="170" /><line fill-opacity="0.3" stroke="#999999" stroke-width="1" x1="870" x2="870" y1="1070" y2="70" /><line fill-opacity="0.3" stroke="#999999" stroke-width="1" x1="70" x2="1070" y1="270" y2="270" /><line fill-opacity="0.3" stroke="#999999" stroke-width="1" x1="770" x2="770" y1="1070" y2="70" /><line fill-opacity="0.3" stroke="#999999" stroke-width="1" x1="70" x2="1070" y1="370" y2="370" /><line fill-opacity="0.3" stroke="#999999" stroke-width="1" x1="670" x2="670" y1="1070" y2="70" /><line fill-opacity="0.3" stroke="#999999" stroke-width="1" x1="70" x2="1070" y1="470" y2="470" /><line fill-opacity="0.3" stroke="#999999" stroke-width="1" x1="570" x2="570" y1="1070" y2="70" /><line fill-opacity="0.3" stroke="#999999" stroke-width="1" x1="70" x2="1070" y1="570" y2="570" /><line fill-opacity="0.3" stroke="#999999" stroke-width="1" x1="470" x2="470" y1="1070" y2="70" /><line fill-opacity="0.3" stroke="#999999" stroke-width="1" x1="70" x2="1070" y1="670" y2="670" /><line fill-opacity="0.3" stroke="#999999" stroke-width="1" x1="370" x2="370" y1="1070" y2="70" /><line fill-opacity="0.3" stroke="#999999" stroke-width="1" x1="70" x2="1070" y1="770" y2="770" /><line fill-opacity="0.3" stroke="#999999" stroke-width="1" x1="270" x2="270" y1="1070" y2="70" /><line fill-opacity="0.3" stroke="#999999" stroke-width="1" x1="70" x2="1070" y1="870" y2="870" /><line fill-opacity="0.3" stroke="#999999" stroke-width="1" x1="170" x2="170" y1="1070" y2="70" /><line fill-opacity="0.3" stroke="#999999" stroke-width="1" x1="70" x2="1070" y1="970" y2="970" /><line fill-opacity="0.3" stroke="#000000" stroke-width="1" x1="70" x2="70" y1="1071" y2="69" /><line fill-opacity="0.3" stroke="#000000" stroke-width="1" x1="69" x2="1071" y1="1070" y2="1070" /></g><g class="textos"><text x="1050" y="1110">1000</text><text x="10" y="71">1000</text><text x="950" y="1110">900</text><text x="10" y="171">900</text><text x="850" y="1110">800</text><text x="10" y="271">800</text><text x="750" y="1110">700</text><text x="10" y="371">700</text><text x="650" y="1110">600</text><text x="10" y="471">600</text><text x="550" y="1110">500</text><text x="10" y="571">500</text><text x="450" y="1110">400</text><text x="10" y="671">400</text><text x="350" y="1110">300</text><text x="10" y="771">300</text><text x="250" y="1110">200</text><text x="10" y="871">200</text><text x="150" y="1110">100</text><text x="10" y="971">100</text><text x="50" y="1111">0</text><text x="9" y="1071">0</text></g><g class="especies"><g class="e0"><circle cx="1020" cy="1050" fill="#ff0000" r="3.5" stroke-width="0" /><circle cx="1032" cy="1050" fill="#ff0000" r="3.5" stroke-width="0" /><circle cx="1044" cy="1050" fill="#ff0000" r="3.5" stroke-width="0" /><circle cx="1001" cy="1049" fill="#ff0000" r="3.5" stroke-width="0" /><circle cx="1013" cy="1049" fill="#ff0000" r="3.5" stroke-width="0" /><circle cx="986" cy="1048" fill="#ff0000" r="3.5" stroke-width="0" /><circle cx="970" cy="1047" fill="#ff0000" r="3.5" stroke-width="0" /><circle cx="959" cy="1046" fill="#ff0000" r="3.5" stroke-width="0" /><circle cx="950" cy="1045" fill="#ff0000" r="3.5" stroke-width="0" /><circle cx="942" cy="1044" fill="#ff0000" r="3.5" stroke-width="0" /><circle cx="937" cy="1043" fill="#ff0000" r="3.5" stroke-width="0" /><circle cx="918" cy="1041" fill="#ff0000" r="3.5" stroke-width="0" /><circle cx="902" cy="1039" fill="#ff0000" r="3.5" stroke-width="0" /><circle cx="901" cy="1038" fill="#ff0000" r="3.5" stroke-width="0" /><circle cx="889" cy="1036" fill="#ff0000" r="3.5" stroke-width="0" /><circle cx="878" cy="1034" fill="#ff0000" r="3.5" stroke-width="0" /><circle cx="859" cy="1031" fill="#ff0000" r="3.5" stroke-width="0" /><circle cx="851" cy="1029" fill="#ff0000" r="3.5" stroke-width="0" /><circle cx="836" cy="1026" fill="#ff0000" r="3.5" stroke-width="0" /><circle cx="822" cy="1023" fill="#ff0000" r="3.5" stroke-width="0" /><circle cx="810" cy="1020" fill="#ff0000" r="3.5" stroke-width="0" /><circle cx="799" cy="1017" fill="#ff0000" r="3.5" stroke-width="0" /><circle cx="789" cy="1014" fill="#ff0000" r="3.5" stroke-width="0" /><circle cx="780" cy="1011" fill="#ff0000" r="3.5" stroke-width="0" /><circle cx="766" cy="1007" fill="#ff0000" r="3.5" stroke-width="0" /><circle cx="752" cy="1003" fill="#ff0000" r="3.5" stroke-width="0" /><circle cx="745" cy="1000" fill="#ff0000" r="3.5" stroke-width="0" /><circle cx="729" cy="995" fill="#ff0000" r="3.5" stroke-width="0" /><circle cx="719" cy="991" fill="#ff0000" r="3.5" stroke-width="0" /><circle cx="709" cy="987" fill="#ff0000" r="3.5" stroke-width="0" /><circle cx="695" cy="982" fill="#ff0000" r="3.5" stroke-width="0" /><circle cx="683" cy="977" fill="#ff0000" r="3.5" stroke-width="0" /><circle cx="670" cy="972" fill="#ff0000" r="3.5" stroke-width="0" /><circle cx="659" cy="967" fill="#ff0000" r="3.5" stroke-width="0" /><circle cx="649" cy="962" fill="#ff0000" r="3.5" stroke-width="0" /></g><g class="e1"><circle cx="635" cy="956" fill="#2b92db" r="3.5" stroke-width="0" /><circle cx="623" cy="950" fill="#2b92db" r="3.5" stroke-width="0" /><circle cx="611" cy="944" fill="#2b92db" r="3.5" stroke-width="0" /><circle cx="602" cy="939" fill="#2b92db" r="3.5" stroke-width="0" /><circle cx="588" cy="932" fill="#2b92db" r="3.5" stroke-width="0" /><circle cx="576" cy="925" fill="#2b92db" r="3.5" stroke-width="0" /><circle cx="564" cy="918" fill="#2b92db" r="3.5" stroke-width="0" /><circle cx="552" cy="911" fill="#2b92db" r="3.5" stroke-width="0" /><circle cx="541" cy="904" fill="#2b92db" r="3.5" stroke-width="0" /><circle cx="530" cy="897" fill="#2b92db" r="3.5" stroke-width="0" /><circle cx="518" cy="889" fill="#2b92db" r="3.5" stroke-width="0" /></g><g class="e2"><circle cx="506" cy="881" fill="#911eb4" r="3.5" stroke-width="0" /><circle cx="495" cy="873" fill="#911eb4" r="3.5" stroke-width="0" /><circle cx="482" cy="864" fill="#911eb4" r="3.5" stroke-width="0" /><circle cx="472" cy="856" fill="#911eb4" r="3.5" stroke-width="0" /><circle cx="460" cy="847" fill="#911eb4" r="3.5" stroke-width="0" /><circle cx="447" cy="837" fill="#911eb4" r="3.5" stroke-width="0" /><circle cx="435" cy="827" fill="#911eb4" r="3.5" stroke-width="0" /></g><g class="e3"><circle cx="423" cy="817" fill="#3cb44B" r="3.5" stroke-width="0" /><circle cx="410" cy="806" fill="#3cb44B" r="3.5" stroke-width="0" /><circle cx="399" cy="796" fill="#3cb44B" r="3.5" stroke-width="0" /><circle cx="388" cy="785" fill="#3cb44B" r="3.5" stroke-width="0" /><circle cx="376" cy="774" fill="#3cb44B" r="3.5" stroke-width="0" /></g><g class="e4"><circle cx="365" cy="763" fill="#ff0000" r="3.5" stroke-width="0" /><circle cx="354" cy="751" fill="#ff0000" r="3.5" stroke-width="0" /><circle cx="343" cy="739" fill="#ff0000" r="3.5" stroke-width="0" /><circle cx="333" cy="728" fill="#ff0000" r="3.5" stroke-width="0" /><circle cx="322" cy="716" fill="#ff0000" r="3.5" stroke-width="0" /></g><g class="e5"><circle cx="312" cy="704" fill="#2b92db" r="3.5" stroke-width="0" /><circle cx="302" cy="692" fill="#2b92db" r="3.5" stroke-width="0" /><circle cx="293" cy="680" fill="#2b92db" r="3.5" stroke-width="0" /><circle cx="284" cy="668" fill="#2b92db" r="3.5" stroke-width="0" /><circle cx="275" cy="657" fill="#2b92db" r="3.5" stroke-width="0" /><circle cx="267" cy="645" fill="#2b92db" r="3.5" stroke-width="0" /><circle cx="258" cy="633" fill="#2b92db" r="3.5" stroke-width="0" /></g><g class="e6"><circle cx="250" cy="621" fill="#911eb4" r="3.5" stroke-width="0" /><circle cx="242" cy="609" fill="#911eb4" r="3.5" stroke-width="0" /><circle cx="235" cy="598" fill="#911eb4" r="3.5" stroke-width="0" /><circle cx="228" cy="586" fill="#911eb4" r="3.5" stroke-width="0" /><circle cx="221" cy="574" fill="#911eb4" r="3.5" stroke-width="0" /><circle cx="214" cy="562" fill="#911eb4" r="3.5" stroke-width="0" /><circle cx="207" cy="550" fill="#911eb4" r="3.5" stroke-width="0" /><circle cx="201" cy="538" fill="#911eb4" r="3.5" stroke-width="0" /><circle cx="195" cy="527" fill="#911eb4" r="3.5" stroke-width="0" /><circle cx="189" cy="515" fill="#911eb4" r="3.5" stroke-width="0" /><circle cx="183" cy="503" fill="#911eb4" r="3.5" stroke-width="0" /></g><g class="e7"><circle cx="178" cy="491" fill="#3cb44B" r="3.5" stroke-width="0" /><circle cx="172" cy="479" fill="#3cb44B" r="3.5" stroke-width="0" /><circle cx="167" cy="467" fill="#3cb44B" r="3.5" stroke-width="0" /><circle cx="163" cy="456" fill="#3cb44B" r="3.5" stroke-width="0" /><circle cx="158" cy="444" fill="#3cb44B" r="3.5" stroke-width="0" /><circle cx="153" cy="432" fill="#3cb44B" r="3.5" stroke-width="0" /><circle cx="149" cy="420" fill="#3cb44B" r="3.5" stroke-width="0" /><circle cx="144" cy="408" fill="#3cb44B" r="3.5" stroke-width="0" /><circle cx="140" cy="396" fill="#3cb44B" r="3.5" stroke-width="0" /><circle cx="136" cy="385" fill="#3cb44B" r="3.5" stroke-width="0" /><circle cx="133" cy="373" fill="#3cb44B" r="3.5" stroke-width="0" /><circle cx="129" cy="361" fill="#3cb44B" r="3.5" stroke-width="0" /><circle cx="126" cy="349" fill="#3cb44B" r="3.5" stroke-width="0" /><circle cx="122" cy="337" fill="#3cb44B" r="3.5" stroke-width="0" /><circle cx="119" cy="326" fill="#3cb44B" r="3.5" stroke-width="0" /><circle cx="116" cy="314" fill="#3cb44B" r="3.5" stroke-width="0" /><circle cx="114" cy="302" fill="#3cb44B" r="3.5" stroke-width="0" /><circle cx="111" cy="290" fill="#3cb44B" r="3.5" stroke-width="0" /><circle cx="109" cy="278" fill="#3cb44B" r="3.5" stroke-width="0" /><circle cx="106" cy="266" fill="#3cb44B" r="3.5" stroke-width="0" /><circle cx="104" cy="255" fill="#3cb44B" r="3.5" stroke-width="0" /><circle cx="102" cy="243" fill="#3cb44B" r="3.5" stroke-width="0" /><circle cx="100" cy="231" fill="#3cb44B" r="3.5" stroke-width="0" /><circle cx="99" cy="219" fill="#3cb44B" r="3.5" stroke-width="0" /><circle cx="97" cy="207" fill="#3cb44B" r="3.5" stroke-width="0" /><circle cx="96" cy="195" fill="#3cb44B" r="3.5" stroke-width="0" /><circle cx="95" cy="184" fill="#3cb44B" r="3.5" stroke-width="0" /><circle cx="94" cy="172" fill="#3cb44B" r="3.5" stroke-width="0" /><circle cx="93" cy="160" fill="#3cb44B" r="3.5" stroke-width="0" /><circle cx="92" cy="148" fill="#3cb44B" r="3.5" stroke-width="0" /><circle cx="91" cy="136" fill="#3cb44B" r="3.5" stroke-width="0" /><circle cx="91" cy="124" fill="#3cb44B" r="3.5" stroke-width="0" /><circle cx="90" cy="113" fill="#3cb44B" r="3.5" stroke-width="0" /><circle cx="90" cy="101" fill="#3cb44B" r="3.5" stroke-width="0" /></g></g></g></svg>