<?xml version="1.0" encoding="utf-8" ?>
<svg baseProfile="full" height="1140px" style="font-size:15;font-family:Arial, san-serif;font-weight:bold;stroke:black;stroke-width:0;fill:#444444" version="1.1" width="1140px" xmlns="http://www.w3.org/2000/svg" xmlns:ev="http://www.w3.org/2001/xml-events" xmlns:xlink="http://www.w3.org/1999/xlink"><defs><clipPath id="areadografico"><rect height="1000" width="1000" x="70" y="70" /></clipPath></defs><g class="master"><g class="poligonos"><polygon clip-path="url(#areadografico)" fill="#000000" fill-opacity="0.1" points="70,1070 1069,493 1069,1070" /><polygon clip-path="url(#areadografico)" fill="#ffffff" fill-opacity="0.1" points="70,1070 1069,-662 1069,493" /><polygon clip-path="url(#areadografico)" fill="#000000" fill-opacity="0.1" points="70,1070 647,71 70,71" /></g><g class="linhas"><line fill-opacity="0.3" stroke="#999999" stroke-width="1" x1="1070" x2="1070" y1="1070" y2="70" /><line fill-opacity="0.3" stroke="#999999" stroke-width="1" x1="70" x2="1070" y1="70" y2="70" /><line fill-opacity="0.3" stroke="#999999" stroke-width="1" x1="970" x2="970" y1="1070" y2="70" /><line fill-opacity="0.3" stroke="#999999" stroke-width="1" x1="70" x2="1070" y1="170" y2="170" /><line fill-opacity="0.3" stroke="#999999" stroke-width="1" x1="870" x2="870" y1="1070" y2="70" /><line fill-opacity="0.3" stroke="#999999" stroke-width="1" x1="70" x2="1070" y1="270" y2="270" /><line fill-opacity="0.3" stroke="#999999" stroke-width="1" x1="770" x2="770" y1="1070" y2="70" /><line fill-opacity="0.3" stroke="#999999" stroke-width="1" x1="70" x2="1070" y1="370" y2="370" /><line fill-opacity="0.3" stroke="#999999" stroke-width="1" x1="670" x2="670" y1="1070" y2="70" /><line fill-opacity="0.3" stroke="#999999" stroke-width="1" x1="70" x2="1070" y1="470" y2="470" /><line fill-opacity="0.3" stroke="#999999" stroke-width="1" x1="570" x2="570" y1="1070" y2="70" /><line fill-opacity="0.3" stroke="#999999" stroke-width="1" x1="70" x2="1070" y1="570" y2="570" /><line fill-opacity="0.3" stroke="#999999" stroke-width="1" x1="470" x2="470" y1="1070" y2="70" /><line fill-opacity="0.3" stroke="#999999" stroke-width="1" x1="70" x2="1070" y1="670" y2="670" /><line fill-opacity="0.3" stroke="#999999" stroke-width="1" x1="370" x2="370" y1="1070" y2="70" /><line fill-opacity="0.3" stroke="#999999" stroke-width="1" x1="70" x2="1070" y1="770" y2="770" /><line fill-opacity="0.3" stroke="#999999" stroke-width="1" x1="270" x2="270" y1="1070" y2="70" /><line fill-opacity="0.3" stroke="#999999" stroke-width="1" x1="70" x2="1070" y1="870" y2="870" /><line fill-opacity="0.3" stroke="#999999" stroke-width="1" x1="170" x2="170" y1="1070" y2="70" /><line fill-opacity="0.3" stroke="#999999" stroke-width="1" x1="70" x2="1070" y1="970" y2="970" /><line fill-opacity="0.3" stroke="#000000" stroke-width="1" x1="70" x2="70" y1="1071" y2="69" /><line fill-opacity="0.3" stroke="#000000" stroke-width="1" x1="69" x2="1071" y1="1070" y2="1070" /></g><g class="textos"><text x="1050" y="1110">1000</text><text x="10" y="71">1000</text><text x="950" y="1110">900</text><text x="10" y="171">900</text><text x="850" y="1110">800</text><text x="10" y="271">800</text><text x="750" y="1110">700</text><text x="10" y="371">700</text><text x="650" y="1110">600</text><text x="10" y="471">600</text><text x="550" y="1110">500</text><text x="10" y="571">500</text><text x="450" y="1110">400</text><text x="10" y="671">400</text><text x="350" y="1110">300</text><text x="10" y="771">300</text><text x="250" y="1110">200</text><text x="10" y="871">200</text><text x="150" y="1110">100</text><text x="10" y="971">100</text><text x="50" y="1111">0</text><text x="9" y="1071">0</text></g><g class="especies"><g class="e0"><circle cx="1020" cy="1050" fill="#ff0000" r="3.5" stroke-width="0" /><circle cx="1041" cy="1050" fill="#ff0000" r="3.5" stroke-width="0" /><circle cx="1008" cy="1049" fill="#ff0000" r="3.5" stroke-width="0" /><circle cx="990" cy="1048" fill="#ff0000" r="3.5" stroke-width="0" /><circle cx="960" cy="1046" fill="#ff0000" r="3.5" stroke-width="0" /><circle cx="941" cy="1044" fill="#ff0000" r="3.5" stroke-width="0" /><circle cx="929" cy="1042" fill="#ff0000" r="3.5" stroke-width="0" /><circle cx="906" cy="1039" fill="#ff0000" r="3.5" stroke-width="0" /><circle cx="879" cy="1035" fill="#ff0000" r="3.5" stroke-width="0" /><circle cx="858" cy="1031" fill="#ff0000" r="3.5" stroke-width="0" /><circle cx="841" cy="1027" fill="#ff0000" r="3.5" stroke-width="0" /><circle cx="819" cy="1022" fill="#ff0000" r="3.5" stroke-width="0" /><circle cx="802" cy="1017" fill="#ff0000" r="3.5" stroke-width="0" /><circle cx="780" cy="1011" fill="#ff0000" r="3.5" stroke-width="0" /><circle cx="755" cy="1004" fill="#ff0000" r="3.5" stroke-width="0" /><circle cx="734" cy="997" fill="#ff0000" r="3.5" stroke-width="0" /><circle cx="717" cy="990" fill="#ff0000" r="3.5" stroke-width="0" /><circle cx="696" cy="982" fill="#ff0000" r="3.5" stroke-width="0" /><circle cx="674" cy="973" fill="#ff0000" r="3.5" stroke-width="0" /><circle cx="653" cy="964" fill="#ff0000" r="3.5" stroke-width="0" /><circle cx="631" cy="954" fill="#ff0000" r="3.5" stroke-width="0" /><circle cx="612" cy="944" fill="#ff0000" r="3.5" stroke-width="0" /><circle cx="591" cy="933" fill="#ff0000" r="3.5" stroke-width="0" /><circle cx="570" cy="921" fill="#ff0000" r="3.5" stroke-width="0" /><circle cx="547" cy="908" fill="#ff0000" r="3.5" stroke-width="0" /><circle cx="527" cy="895" fill="#ff0000" r="3.5" stroke-width="0" /><circle cx="506" cy="881" fill="#ff0000" r="3.5" stroke-width="0" /><circle cx="485" cy="866" fill="#ff0000" r="3.5" stroke-width="0" /><circle cx="463" cy="850" fill="#ff0000" r="3.5" stroke-width="0" /></g><g class="e1"><circle cx="443" cy="834" fill="#2b92db" r="3.5" stroke-width="0" /><circle cx="422" cy="816" fill="#2b92db" r="3.5" stroke-width="0" /><circle cx="401" cy="797" fill="#2b92db" r="3.5" stroke-width="0" /><circle cx="380" cy="778" fill="#2b92db" r="3.5" stroke-width="0" /><circle cx="361" cy="759" fill="#2b92db" r="3.5" stroke-width="0" /><circle cx="342" cy="738" fill="#2b92db" r="3.5" stroke-width="0" /><circle cx="323" cy="717" fill="#2b92db" r="3.5" stroke-width="0" /><circle cx="305" cy="696" fill="#2b92db" r="3.5" stroke-width="0" /></g><g class="e2"><circle cx="289" cy="675" fill="#911eb4" r="3.5" stroke-width="0" /><circle cx="273" cy="654" fill="#911eb4" r="3.5" stroke-width="0" /><circle cx="258" cy="633" fill="#911eb4" r="3.5" stroke-width="0" /><circle cx="244" cy="612" fill="#911eb4" r="3.5" stroke-width="0" /><circle cx="231" cy="591" fill="#911eb4" r="3.5" stroke-width="0" /><circle cx="219" cy="570" fill="#911eb4" r="3.5" stroke-width="0" /><circle cx="207" cy="549" fill="#911eb4" r="3.5" stroke-width="0" /><circle cx="196" cy="528" fill="#911eb4" r="3.5" stroke-width="0" /><circle cx="185" cy="507" fill="#911eb4" r="3.5" stroke-width="0" /><circle cx="176" cy="487" fill="#911eb4" r="3.5" stroke-width="0" /><circle cx="167" cy="466" fill="#911eb4" r="3.5" stroke-width="0" /><circle cx="158" cy="445" fill="#911eb4" r="3.5" stroke-width="0" /><circle cx="150" cy="424" fill="#911eb4" r="3.5" stroke-width="0" /><circle cx="142" cy="403" fill="#911eb4" r="3.5" stroke-width="0" /><circle cx="135" cy="382" fill="#911eb4" r="3.5" stroke-width="0" /><circle cx="129" cy="361" fill="#911eb4" r="3.5" stroke-width="0" /><circle cx="123" cy="340" fill="#911eb4" r="3.5" stroke-width="0" /><circle cx="118" cy="319" fill="#911eb4" r="3.5" stroke-width="0" /><circle cx="113" cy="298" fill="#911eb4" r="3.5" stroke-width="0" /><circle cx="108" cy="277" fill="#911eb4" r="3.5" stroke-width="0" /><circle cx="104" cy="256" fill="#911eb4" r="3.5" stroke-width="0" /><circle cx="101" cy="235" fill="#911eb4" r="3.5" stroke-width="0" /><circle cx="98" cy="215" fill="#911eb4" r="3.5" stroke-width="0" /><circle cx="96" cy="194" fill="#911eb4" r="3.5" stroke-width="0" /><circle cx="94" cy="173" fill="#911eb4" r="3.5" stroke-width="0" /><circle cx="92" cy="152" fill="#911eb4" r="3.5" stroke-width="0" /><circle cx="91" cy="131" fill="#911eb4" r="3.5" stroke-width="0" /><circle cx="90" cy="110" fill="#911eb4" r="3.5" stroke-width="0" /></g></g></g></svg>