<?xml version="1.0" encoding="utf-8" ?>
<svg baseProfile="full" height="1140px" style="font-size:15;font-family:Arial, san-serif;font-weight:bold;stroke:black;stroke-width:0;fill:#444444" version="1.1" width="1140px" xmlns="http://www.w3.org/2000/svg" xmlns:ev="http://www.w3.org/2001/xml-events" xmlns:xlink="http://www.w3.org/1999/xlink"><defs><clipPath id="areadografico"><rect height="1000" width="1000" x="70" y="70" /></clipPath></defs><g class="master"><g class="poligonos"><polygon clip-path="url(#areadografico)" fill="#000000" fill-opacity="0.1" points="70,1070 1069,894 1069,1070" /><polygon clip-path="url(#areadografico)" fill="#ffffff" fill-opacity="0.1" points="70,1070 1069,706 1069,894" /><polygon clip-path="url(#areadografico)" fill="#000000" fill-opacity="0.1" points="70,1070 1069,493 1069,706" /><polygon clip-path="url(#areadografico)" fill="#ffffff" fill-opacity="0.1" points="70,1070 1069,231 1069,493" /><polygon clip-path="url(#areadografico)" fill="#000000" fill-opacity="0.1" points="70,1070 1069,-122 1069,231" /><polygon clip-path="url(#areadografico)" fill="#ffffff" fill-opacity="0.1" points="70,1070 909,71 647,71" /><polygon clip-path="url(#areadografico)" fill="#000000" fill-opacity="0.1" points="70,1070 647,71 434,71" /><polygon clip-path="url(#areadografico)" fill="#ffffff" fill-opacity="0.1" points="70,1070 434,71 246,71" /><polygon clip-path="url(#areadografico)" fill="#000000" fill-opacity="0.1" points="70,1070 246,71 70,71" /></g><g class="linhas"><line fill-opacity="0.3" stroke="#999999" stroke-width="1" x1="1070" x2="1070" y1="1070" y2="70" /><line fill-opacity="0.3" stroke="#999999" stroke-width="1" x1="70" x2="1070" y1="70" y2="70" /><line fill-opacity="0.3" stroke="#999999" stroke-width="1" x1="970" x2="970" y1="1070" y2="70" /><line fill-opacity="0.3" stroke="#999999" stroke-width="1" x1="70" x2="1070" y1="170" y2="170" /><line fill-opacity="0.3" stroke="#999999" stroke-width="1" x1="870" x2="870" y1="1070" y2="70" /><line fill-opacity="0.3" stroke="#999999" stroke-width="1" x1="70" x2="1070" y1="270" y2="270" /><line fill-opacity="0.3" stroke="#999999" stroke-width="1" x1="770" x2="770" y1="1070" y2="70" /><line fill-opacity="0.3" stroke="#999999" stroke-width="1" x1="70" x2="1070" y1="370" y2="370" /><line fill-opacity="0.3" stroke="#999999" stroke-width="1" x1="670" x2="670" y1="1070" y2="70" /><line fill-opacity="0.3" stroke="#999999" stroke-width="1" x1="70" x2="1070" y1="470" y2="470" /><line fill-opacity="0.3" stroke="#999999" stroke-width="1" x1="570" x2="570" y1="1070" y2="70" /><line fill-opacity="0.3" stroke="#999999" stroke-width="1" x1="70" x2="1070" y1="570" y2="570" /><line fill-opacity="0.3" stroke="#999999" stroke-width="1" x1="470" x2="470" y1="1070" y2="70" /><line fill-opacity="0.3" stroke="#999999" stroke-width="1" x1="70" x2="1070" y1="670" y2="670" /><line fill-opacity="0.3" stroke="#999999" stroke-width="1" x1="370" x2="370" y1="1070" y2="70" /><line fill-opacity="0.3" stroke="#999999" stroke-width="1" x1="70" x2="1070" y1="770" y2="770" /><line fill-opacity="0.3" stroke="#999999" stroke-width="1" x1="270" x2="270" y1="1070" y2="70" /><line fill-opacity="0.3" stroke="#999999" stroke-width="1" x1="70" x2="1070" y1="870" y2="870" /><line fill-opacity="0.3" stroke="#999999" stroke-width="1" x1="170" x2="170" y1="1070" y2="70" /><line fill-opacity="0.3" stroke="#999999" stroke-width="1" x1="70" x2="1070" y1="970" y2="970" /><line fill-opacity="0.3" stroke="#000000" stroke-width="1" x1="70" x2="70" y1="1071" y2="69" /><line fill-opacity="0.3" stroke="#000000" stroke-width="1" x1="69" x2="1071" y1="1070" y2="1070" /></g><g class="textos"><text x="1050" y="1110">1000</text><text x="10" y="71">1000</text><text x="950" y="1110">900</text><text x="10" y="171">900</text><text x="850" y="1110">800</text><text x="10" y="271">800</text><text x="750" y="1110">700</text><text x="10" y="371">700</text><text x="650" y="1110">600</text><text x="10" y="471">600</text><text x="550" y="1110">500</text><text x="10" y="571">500</text><text x="450" y="1110">400</text><text x="10" y="671">400</text><text x="350" y="1110">300</text><text x="10" y="771">300</text><text x="250" y="1110">200</text><text x="10" y="871">200</text><text x="150" y="1110">100</text><text x="10" y="971">100</text><text x="50" y="1111">0</text><text x="9" y="1071">0</text></g><g class="especies"><g class="e0"><circle cx="1020" cy="1050" fill="#ff0000" r="3.5" stroke-width="0" /><circle cx="1045" cy="1050" fill="#ff0000" r="3.5" stroke-width="0" /><circle cx="1015" cy="1049" fill="#ff0000" r="3.5" stroke-width="0" /><circle cx="973" cy="1047" fill="#ff0000" r="3.5" stroke-width="0" /><circle cx="954" cy="1045" fill="#ff0000" r="3.5" stroke-width="0" /><circle cx="927" cy="1042" fill="#ff0000" r="3.5" stroke-width="0" /><circle cx="908" cy="1039" fill="#ff0000" r="3.5" stroke-width="0" /><circle cx="874" cy="1034" fill="#ff0000" r="3.5" stroke-width="0" /><circle cx="848" cy="1029" fill="#ff0000" r="3.5" stroke-width="0" /><circle cx="829" cy="1024" fill="#ff0000" r="3.5" stroke-width="0" /><circle cx="806" cy="1018" fill="#ff0000" r="3.5" stroke-width="0" /><circle cx="780" cy="1011" fill="#ff0000" r="3.5" stroke-width="0" /><circle cx="753" cy="1003" fill="#ff0000" r="3.5" stroke-width="0" /><circle cx="731" cy="995" fill="#ff0000" r="3.5" stroke-width="0" /><circle cx="702" cy="985" fill="#ff0000" r="3.5" stroke-width="0" /><circle cx="677" cy="975" fill="#ff0000" r="3.5" stroke-width="0" /></g><g class="e1"><circle cx="656" cy="965" fill="#2b92db" r="3.5" stroke-width="0" /><circle cx="629" cy="953" fill="#2b92db" r="3.5" stroke-width="0" /><circle cx="606" cy="941" fill="#2b92db" r="3.5" stroke-width="0" /><circle cx="579" cy="927" fill="#2b92db" r="3.5" stroke-width="0" /><circle cx="556" cy="913" fill="#2b92db" r="3.5" stroke-width="0" /></g><g class="e2"><circle cx="532" cy="898" fill="#911eb4" r="3.5" stroke-width="0" /><circle cx="506" cy="881" fill="#911eb4" r="3.5" stroke-width="0" /><circle cx="481" cy="863" fill="#911eb4" r="3.5" stroke-width="0" /></g><g class="e3"><circle cx="457" cy="845" fill="#3cb44B" r="3.5" stroke-width="0" /><circle cx="433" cy="825" fill="#3cb44B" r="3.5" stroke-width="0" /><circle cx="407" cy="803" fill="#3cb44B" r="3.5" stroke-width="0" /></g><g class="e4"><circle cx="381" cy="779" fill="#ff0000" r="3.5" stroke-width="0" /><circle cx="360" cy="757" fill="#ff0000" r="3.5" stroke-width="0" /></g><g class="e5"><circle cx="336" cy="732" fill="#2b92db" r="3.5" stroke-width="0" /><circle cx="315" cy="707" fill="#2b92db" r="3.5" stroke-width="0" /></g><g class="e6"><circle cx="294" cy="682" fill="#911eb4" r="3.5" stroke-width="0" /><circle cx="276" cy="658" fill="#911eb4" r="3.5" stroke-width="0" /><circle cx="258" cy="633" fill="#911eb4" r="3.5" stroke-width="0" /><circle cx="242" cy="608" fill="#911eb4" r="3.5" stroke-width="0" /></g><g class="e7"><circle cx="227" cy="584" fill="#3cb44B" r="3.5" stroke-width="0" /><circle cx="212" cy="559" fill="#3cb44B" r="3.5" stroke-width="0" /><circle cx="199" cy="534" fill="#3cb44B" r="3.5" stroke-width="0" /><circle cx="186" cy="509" fill="#3cb44B" r="3.5" stroke-width="0" /><circle cx="175" cy="485" fill="#3cb44B" r="3.5" stroke-width="0" /></g><g class="e8"><circle cx="164" cy="460" fill="#ff0000" r="3.5" stroke-width="0" /><circle cx="154" cy="435" fill="#ff0000" r="3.5" stroke-width="0" /><circle cx="145" cy="410" fill="#ff0000" r="3.5" stroke-width="0" /><circle cx="137" cy="386" fill="#ff0000" r="3.5" stroke-width="0" /><circle cx="129" cy="361" fill="#ff0000" r="3.5" stroke-width="0" /><circle cx="122" cy="336" fill="#ff0000" r="3.5" stroke-width="0" /><circle cx="116" cy="312" fill="#ff0000" r="3.5" stroke-width="0" /><circle cx="110" cy="287" fill="#ff0000" r="3.5" stroke-width="0" /><circle cx="106" cy="262" fill="#ff0000" r="3.5" stroke-width="0" /><circle cx="101" cy="237" fill="#ff0000" r="3.5" stroke-width="0" /><circle cx="98" cy="213" fill="#ff0000" r="3.5" stroke-width="0" /><circle cx="95" cy="188" fill="#ff0000" r="3.5" stroke-width="0" /><circle cx="93" cy="163" fill="#ff0000" r="3.5" stroke-width="0" /><circle cx="91" cy="138" fill="#ff0000" r="3.5" stroke-width="0" /><circle cx="90" cy="114" fill="#ff0000" r="3.5" stroke-width="0" /></g></g></g></svg>