<?xml version="1.0" encoding="utf-8" ?>
<svg baseProfile="full" height="1140px" style="font-size:15;font-family:Arial, san-serif;font-weight:bold;stroke:black;stroke-width:0;fill:#444444" version="1.1" width="1140px" xmlns="http://www.w3.org/2000/svg" xmlns:ev="http://www.w3.org/2001/xml-events" xmlns:xlink="http://www.w3.org/1999/xlink"><defs><clipPath id="areadografico"><rect height="1000" width="1000" x="70" y="70" /></clipPath></defs><g class="master"><g class="poligonos"><polygon clip-path="url(#areadografico)" fill="#000000" fill-opacity="0.1" points="70,1070 1069,839 1069,1070" /><polygon clip-path="url(#areadografico)" fill="#ffffff" fill-opacity="0.1" points="70,1070 1069,582 1069,839" /><polygon clip-path="url(#areadografico)" fill="#000000" fill-opacity="0.1" points="70,1070 1069,260 1069,582" /><polygon clip-path="url(#areadografico)" fill="#ffffff" fill-opacity="0.1" points="70,1070 1069,-165 1069,260" /><polygon clip-path="url(#areadografico)" fill="#000000" fill-opacity="0.1" points="70,1070 880,71 558,71" /><polygon clip-path="url(#areadografico)" fill="#ffffff" fill-opacity="0.1" points="70,1070 558,71 301,71" /><polygon clip-path="url(#areadografico)" fill="#000000" fill-opacity="0.1" points="70,1070 301,71 70,71" /></g><g class="linhas"><line fill-opacity="0.3" stroke="#999999" stroke-width="1" x1="1070" x2="1070" y1="1070" y2="70" /><line fill-opacity="0.3" stroke="#999999" stroke-width="1" x1="70" x2="1070" y1="70" y2="70" /><line fill-opacity="0.3" stroke="#999999" stroke-width="1" x1="970" x2="970" y1="1070" y2="70" /><line fill-opacity="0.3" stroke="#999999" stroke-width="1" x1="70" x2="1070" y1="170" y2="170" /><line fill-opacity="0.3" stroke="#999999" stroke-width="1" x1="870" x2="870" y1="1070" y2="70" /><line fill-opacity="0.3" stroke="#999999" stroke-width="1" x1="70" x2="1070" y1="270" y2="270" /><line fill-opacity="0.3" stroke="#999999" stroke-width="1" x1="770" x2="770" y1="1070" y2="70" /><line fill-opacity="0.3" stroke="#999999" stroke-width="1" x1="70" x2="1070" y1="370" y2="370" /><line fill-opacity="0.3" stroke="#999999" stroke-width="1" x1="670" x2="670" y1="1070" y2="70" /><line fill-opacity="0.3" stroke="#999999" stroke-width="1" x1="70" x2="1070" y1="470" y2="470" /><line fill-opacity="0.3" stroke="#999999" stroke-width="1" x1="570" x2="570" y1="1070" y2="70" /><line fill-opacity="0.3" stroke="#999999" stroke-width="1" x1="70" x2="1070" y1="570" y2="570" /><line fill-opacity="0.3" stroke="#999999" stroke-width="1" x1="470" x2="470" y1="1070" y2="70" /><line fill-opacity="0.3" stroke="#999999" stroke-width="1" x1="70" x2="1070" y1="670" y2="670" /><line fill-opacity="0.3" stroke="#999999" stroke-width="1" x1="370" x2="370" y1="1070" y2="70" /><line fill-opacity="0.3" stroke="#999999" stroke-width="1" x1="70" x2="1070" y1="770" y2="770" /><line fill-opacity="0.3" stroke="#999999" stroke-width="1" x1="270" x2="270" y1="1070" y2="70" /><line fill-opacity="0.3" stroke="#999999" stroke-width="1" x1="70" x2="1070" y1="870" y2="870" /><line fill-opacity="0.3" stroke="#999999" stroke-width="1" x1="170" x2="170" y1="1070" y2="70" /><line fill-opacity="0.3" stroke="#999999" stroke-width="1" x1="70" x2="1070" y1="970" y2="970" /><line fill-opacity="0.3" stroke="#000000" stroke-width="1" x1="70" x2="70" y1="1071" y2="69" /><line fill-opacity="0.3" stroke="#000000" stroke-width="1" x1="69" x2="1071" y1="1070" y2="1070" /></g><g class="textos"><text x="1050" y="1110">1000</text><text x="10" y="71">1000</text><text x="950" y="1110">900</text><text x="10" y="171">900</text><text x="850" y="1110">800</text><text x="10" y="271">800</text><text x="750" y="1110">700</text><text x="10" y="371">700</text><text x="650" y="1110">600</text><text x="10" y="471">600</text><text x="550" y="1110">500</text><text x="10" y="571">500</text><text x="450" y="1110">400</text><text x="10" y="671">400</text><text x="350" y="1110">300</text><text x="10" y="771">300</text><text x="250" y="1110">200</text><text x="10" y="871">200</text><text x="150" y="1110">100</text><text x="10" y="971">100</text><text x="50" y="1111">0</text><text x="9" y="1071">0</text></g><g class="especies"><g class="e0"><circle cx="1020" cy="1050" fill="#ff0000" r="3.5" stroke-width="0" /><circle cx="1026" cy="1050" fill="#ff0000" r="3.5" stroke-width="0" /><circle cx="1032" cy="1050" fill="#ff0000" r="3.5" stroke-width="0" /><circle cx="1037" cy="1050" fill="#ff0000" r="3.5" stroke-width="0" /><circle cx="1043" cy="1050" fill="#ff0000" r="3.5" stroke-width="0" /><circle cx="1049" cy="1050" fill="#ff0000" r="3.5" stroke-width="0" /><circle cx="1001" cy="1049" fill="#ff0000" r="3.5" stroke-width="0" /><circle cx="1007" cy="1049" fill="#ff0000" r="3.5" stroke-width="0" /><circle cx="1012" cy="1049" fill="#ff0000" r="3.5" stroke-width="0" /><circle cx="1018" cy="1049" fill="#ff0000" r="3.5" stroke-width="0" /><circle cx="985" cy="1048" fill="#ff0000" r="3.5" stroke-width="0" /><circle cx="991" cy="1048" fill="#ff0000" r="3.5" stroke-width="0" /><circle cx="996" cy="1048" fill="#ff0000" r="3.5" stroke-width="0" /><circle cx="974" cy="1047" fill="#ff0000" r="3.5" stroke-width="0" /><circle cx="980" cy="1047" fill="#ff0000" r="3.5" stroke-width="0" /><circle cx="963" cy="1046" fill="#ff0000" r="3.5" stroke-width="0" /><circle cx="948" cy="1045" fill="#ff0000" r="3.5" stroke-width="0" /><circle cx="953" cy="1045" fill="#ff0000" r="3.5" stroke-width="0" /><circle cx="940" cy="1044" fill="#ff0000" r="3.5" stroke-width="0" /><circle cx="946" cy="1044" fill="#ff0000" r="3.5" stroke-width="0" /><circle cx="935" cy="1043" fill="#ff0000" r="3.5" stroke-width="0" /><circle cx="925" cy="1042" fill="#ff0000" r="3.5" stroke-width="0" /><circle cx="930" cy="1042" fill="#ff0000" r="3.5" stroke-width="0" /><circle cx="921" cy="1041" fill="#ff0000" r="3.5" stroke-width="0" /><circle cx="913" cy="1040" fill="#ff0000" r="3.5" stroke-width="0" /><circle cx="905" cy="1039" fill="#ff0000" r="3.5" stroke-width="0" /><circle cx="897" cy="1038" fill="#ff0000" r="3.5" stroke-width="0" /><circle cx="891" cy="1037" fill="#ff0000" r="3.5" stroke-width="0" /><circle cx="885" cy="1036" fill="#ff0000" r="3.5" stroke-width="0" /><circle cx="880" cy="1035" fill="#ff0000" r="3.5" stroke-width="0" /><circle cx="875" cy="1034" fill="#ff0000" r="3.5" stroke-width="0" /><circle cx="869" cy="1033" fill="#ff0000" r="3.5" stroke-width="0" /><circle cx="865" cy="1032" fill="#ff0000" r="3.5" stroke-width="0" /><circle cx="861" cy="1031" fill="#ff0000" r="3.5" stroke-width="0" /><circle cx="857" cy="1030" fill="#ff0000" r="3.5" stroke-width="0" /><circle cx="844" cy="1028" fill="#ff0000" r="3.5" stroke-width="0" /><circle cx="840" cy="1027" fill="#ff0000" r="3.5" stroke-width="0" /><circle cx="837" cy="1026" fill="#ff0000" r="3.5" stroke-width="0" /><circle cx="826" cy="1024" fill="#ff0000" r="3.5" stroke-width="0" /><circle cx="823" cy="1023" fill="#ff0000" r="3.5" stroke-width="0" /><circle cx="820" cy="1022" fill="#ff0000" r="3.5" stroke-width="0" /><circle cx="810" cy="1020" fill="#ff0000" r="3.5" stroke-width="0" /><circle cx="809" cy="1019" fill="#ff0000" r="3.5" stroke-width="0" /><circle cx="800" cy="1017" fill="#ff0000" r="3.5" stroke-width="0" /><circle cx="798" cy="1016" fill="#ff0000" r="3.5" stroke-width="0" /><circle cx="789" cy="1014" fill="#ff0000" r="3.5" stroke-width="0" /><circle cx="781" cy="1012" fill="#ff0000" r="3.5" stroke-width="0" /><circle cx="780" cy="1011" fill="#ff0000" r="3.5" stroke-width="0" /><circle cx="773" cy="1009" fill="#ff0000" r="3.5" stroke-width="0" /><circle cx="766" cy="1007" fill="#ff0000" r="3.5" stroke-width="0" /><circle cx="758" cy="1005" fill="#ff0000" r="3.5" stroke-width="0" /><circle cx="757" cy="1004" fill="#ff0000" r="3.5" stroke-width="0" /><circle cx="751" cy="1002" fill="#ff0000" r="3.5" stroke-width="0" /><circle cx="745" cy="1000" fill="#ff0000" r="3.5" stroke-width="0" /><circle cx="739" cy="998" fill="#ff0000" r="3.5" stroke-width="0" /><circle cx="733" cy="996" fill="#ff0000" r="3.5" stroke-width="0" /><circle cx="728" cy="994" fill="#ff0000" r="3.5" stroke-width="0" /><circle cx="718" cy="991" fill="#ff0000" r="3.5" stroke-width="0" /><circle cx="712" cy="989" fill="#ff0000" r="3.5" stroke-width="0" /><circle cx="707" cy="987" fill="#ff0000" r="3.5" stroke-width="0" /><circle cx="703" cy="985" fill="#ff0000" r="3.5" stroke-width="0" /><circle cx="698" cy="983" fill="#ff0000" r="3.5" stroke-width="0" /><circle cx="689" cy="980" fill="#ff0000" r="3.5" stroke-width="0" /><circle cx="686" cy="978" fill="#ff0000" r="3.5" stroke-width="0" /><circle cx="681" cy="976" fill="#ff0000" r="3.5" stroke-width="0" /><circle cx="673" cy="973" fill="#ff0000" r="3.5" stroke-width="0" /><circle cx="669" cy="971" fill="#ff0000" r="3.5" stroke-width="0" /><circle cx="661" cy="968" fill="#ff0000" r="3.5" stroke-width="0" /><circle cx="654" cy="965" fill="#ff0000" r="3.5" stroke-width="0" /><circle cx="650" cy="963" fill="#ff0000" r="3.5" stroke-width="0" /><circle cx="644" cy="960" fill="#ff0000" r="3.5" stroke-width="0" /><circle cx="640" cy="958" fill="#ff0000" r="3.5" stroke-width="0" /><circle cx="634" cy="955" fill="#ff0000" r="3.5" stroke-width="0" /><circle cx="627" cy="952" fill="#ff0000" r="3.5" stroke-width="0" /><circle cx="621" cy="949" fill="#ff0000" r="3.5" stroke-width="0" /><circle cx="615" cy="946" fill="#ff0000" r="3.5" stroke-width="0" /></g><g class="e1"><circle cx="609" cy="943" fill="#2b92db" r="3.5" stroke-width="0" /><circle cx="603" cy="940" fill="#2b92db" r="3.5" stroke-width="0" /><circle cx="598" cy="937" fill="#2b92db" r="3.5" stroke-width="0" /><circle cx="592" cy="934" fill="#2b92db" r="3.5" stroke-width="0" /><circle cx="587" cy="931" fill="#2b92db" r="3.5" stroke-width="0" /><circle cx="582" cy="928" fill="#2b92db" r="3.5" stroke-width="0" /><circle cx="574" cy="924" fill="#2b92db" r="3.5" stroke-width="0" /><circle cx="569" cy="921" fill="#2b92db" r="3.5" stroke-width="0" /><circle cx="565" cy="918" fill="#2b92db" r="3.5" stroke-width="0" /><circle cx="557" cy="914" fill="#2b92db" r="3.5" stroke-width="0" /><circle cx="553" cy="911" fill="#2b92db" r="3.5" stroke-width="0" /><circle cx="548" cy="908" fill="#2b92db" r="3.5" stroke-width="0" /><circle cx="541" cy="904" fill="#2b92db" r="3.5" stroke-width="0" /><circle cx="534" cy="900" fill="#2b92db" r="3.5" stroke-width="0" /><circle cx="528" cy="896" fill="#2b92db" r="3.5" stroke-width="0" /><circle cx="522" cy="892" fill="#2b92db" r="3.5" stroke-width="0" /><circle cx="518" cy="889" fill="#2b92db" r="3.5" stroke-width="0" /><circle cx="512" cy="885" fill="#2b92db" r="3.5" stroke-width="0" /><circle cx="506" cy="881" fill="#2b92db" r="3.5" stroke-width="0" /><circle cx="500" cy="877" fill="#2b92db" r="3.5" stroke-width="0" /><circle cx="495" cy="873" fill="#2b92db" r="3.5" stroke-width="0" /><circle cx="489" cy="869" fill="#2b92db" r="3.5" stroke-width="0" /></g><g class="e2"><circle cx="484" cy="865" fill="#911eb4" r="3.5" stroke-width="0" /><circle cx="477" cy="860" fill="#911eb4" r="3.5" stroke-width="0" /><circle cx="472" cy="856" fill="#911eb4" r="3.5" stroke-width="0" /><circle cx="465" cy="851" fill="#911eb4" r="3.5" stroke-width="0" /><circle cx="459" cy="847" fill="#911eb4" r="3.5" stroke-width="0" /><circle cx="455" cy="843" fill="#911eb4" r="3.5" stroke-width="0" /><circle cx="448" cy="838" fill="#911eb4" r="3.5" stroke-width="0" /><circle cx="442" cy="833" fill="#911eb4" r="3.5" stroke-width="0" /><circle cx="437" cy="829" fill="#911eb4" r="3.5" stroke-width="0" /><circle cx="431" cy="824" fill="#911eb4" r="3.5" stroke-width="0" /><circle cx="425" cy="819" fill="#911eb4" r="3.5" stroke-width="0" /><circle cx="418" cy="813" fill="#911eb4" r="3.5" stroke-width="0" /><circle cx="413" cy="808" fill="#911eb4" r="3.5" stroke-width="0" /><circle cx="408" cy="804" fill="#911eb4" r="3.5" stroke-width="0" /></g><g class="e3"><circle cx="402" cy="798" fill="#3cb44B" r="3.5" stroke-width="0" /><circle cx="396" cy="793" fill="#3cb44B" r="3.5" stroke-width="0" /><circle cx="390" cy="787" fill="#3cb44B" r="3.5" stroke-width="0" /><circle cx="384" cy="781" fill="#3cb44B" r="3.5" stroke-width="0" /><circle cx="379" cy="777" fill="#3cb44B" r="3.5" stroke-width="0" /><circle cx="373" cy="771" fill="#3cb44B" r="3.5" stroke-width="0" /><circle cx="368" cy="766" fill="#3cb44B" r="3.5" stroke-width="0" /><circle cx="362" cy="760" fill="#3cb44B" r="3.5" stroke-width="0" /><circle cx="358" cy="755" fill="#3cb44B" r="3.5" stroke-width="0" /><circle cx="352" cy="749" fill="#3cb44B" r="3.5" stroke-width="0" /><circle cx="346" cy="743" fill="#3cb44B" r="3.5" stroke-width="0" /><circle cx="341" cy="737" fill="#3cb44B" r="3.5" stroke-width="0" /></g><g class="e4"><circle cx="335" cy="731" fill="#ff0000" r="3.5" stroke-width="0" /><circle cx="331" cy="726" fill="#ff0000" r="3.5" stroke-width="0" /><circle cx="326" cy="720" fill="#ff0000" r="3.5" stroke-width="0" /><circle cx="320" cy="714" fill="#ff0000" r="3.5" stroke-width="0" /><circle cx="315" cy="708" fill="#ff0000" r="3.5" stroke-width="0" /><circle cx="310" cy="702" fill="#ff0000" r="3.5" stroke-width="0" /><circle cx="306" cy="697" fill="#ff0000" r="3.5" stroke-width="0" /><circle cx="301" cy="691" fill="#ff0000" r="3.5" stroke-width="0" /><circle cx="297" cy="685" fill="#ff0000" r="3.5" stroke-width="0" /><circle cx="292" cy="679" fill="#ff0000" r="3.5" stroke-width="0" /><circle cx="288" cy="674" fill="#ff0000" r="3.5" stroke-width="0" /><circle cx="284" cy="668" fill="#ff0000" r="3.5" stroke-width="0" /><circle cx="279" cy="662" fill="#ff0000" r="3.5" stroke-width="0" /><circle cx="275" cy="656" fill="#ff0000" r="3.5" stroke-width="0" /></g><g class="e5"><circle cx="270" cy="650" fill="#2b92db" r="3.5" stroke-width="0" /><circle cx="267" cy="645" fill="#2b92db" r="3.5" stroke-width="0" /><circle cx="262" cy="639" fill="#2b92db" r="3.5" stroke-width="0" /><circle cx="258" cy="633" fill="#2b92db" r="3.5" stroke-width="0" /><circle cx="254" cy="627" fill="#2b92db" r="3.5" stroke-width="0" /><circle cx="250" cy="621" fill="#2b92db" r="3.5" stroke-width="0" /><circle cx="247" cy="616" fill="#2b92db" r="3.5" stroke-width="0" /><circle cx="243" cy="610" fill="#2b92db" r="3.5" stroke-width="0" /><circle cx="239" cy="604" fill="#2b92db" r="3.5" stroke-width="0" /><circle cx="235" cy="598" fill="#2b92db" r="3.5" stroke-width="0" /><circle cx="232" cy="592" fill="#2b92db" r="3.5" stroke-width="0" /><circle cx="229" cy="587" fill="#2b92db" r="3.5" stroke-width="0" /><circle cx="225" cy="581" fill="#2b92db" r="3.5" stroke-width="0" /><circle cx="222" cy="575" fill="#2b92db" r="3.5" stroke-width="0" /><circle cx="218" cy="569" fill="#2b92db" r="3.5" stroke-width="0" /><circle cx="215" cy="564" fill="#2b92db" r="3.5" stroke-width="0" /><circle cx="212" cy="558" fill="#2b92db" r="3.5" stroke-width="0" /><circle cx="208" cy="552" fill="#2b92db" r="3.5" stroke-width="0" /><circle cx="205" cy="546" fill="#2b92db" r="3.5" stroke-width="0" /><circle cx="202" cy="540" fill="#2b92db" r="3.5" stroke-width="0" /><circle cx="199" cy="535" fill="#2b92db" r="3.5" stroke-width="0" /><circle cx="196" cy="529" fill="#2b92db" r="3.5" stroke-width="0" /></g><g class="e6"><circle cx="193" cy="523" fill="#911eb4" r="3.5" stroke-width="0" /><circle cx="190" cy="517" fill="#911eb4" r="3.5" stroke-width="0" /><circle cx="187" cy="511" fill="#911eb4" r="3.5" stroke-width="0" /><circle cx="185" cy="506" fill="#911eb4" r="3.5" stroke-width="0" /><circle cx="182" cy="500" fill="#911eb4" r="3.5" stroke-width="0" /><circle cx="179" cy="494" fill="#911eb4" r="3.5" stroke-width="0" /><circle cx="176" cy="488" fill="#911eb4" r="3.5" stroke-width="0" /><circle cx="174" cy="483" fill="#911eb4" r="3.5" stroke-width="0" /><circle cx="171" cy="477" fill="#911eb4" r="3.5" stroke-width="0" /><circle cx="169" cy="471" fill="#911eb4" r="3.5" stroke-width="0" /><circle cx="166" cy="465" fill="#911eb4" r="3.5" stroke-width="0" /><circle cx="164" cy="459" fill="#911eb4" r="3.5" stroke-width="0" /><circle cx="162" cy="454" fill="#911eb4" r="3.5" stroke-width="0" /><circle cx="159" cy="448" fill="#911eb4" r="3.5" stroke-width="0" /><circle cx="157" cy="442" fill="#911eb4" r="3.5" stroke-width="0" /><circle cx="155" cy="436" fill="#911eb4" r="3.5" stroke-width="0" /><circle cx="152" cy="430" fill="#911eb4" r="3.5" stroke-width="0" /><circle cx="150" cy="425" fill="#911eb4" r="3.5" stroke-width="0" /><circle cx="148" cy="419" fill="#911eb4" r="3.5" stroke-width="0" /><circle cx="146" cy="413" fill="#911eb4" r="3.5" stroke-width="0" /><circle cx="144" cy="407" fill="#911eb4" r="3.5" stroke-width="0" /><circle cx="142" cy="402" fill="#911eb4" r="3.5" stroke-width="0" /><circle cx="140" cy="396" fill="#911eb4" r="3.5" stroke-width="0" /><circle cx="138" cy="390" fill="#911eb4" r="3.5" stroke-width="0" /><circle cx="136" cy="384" fill="#911eb4" r="3.5" stroke-width="0" /><circle cx="134" cy="378" fill="#911eb4" r="3.5" stroke-width="0" /><circle cx="133" cy="373" fill="#911eb4" r="3.5" stroke-width="0" /><circle cx="131" cy="367" fill="#911eb4" r="3.5" stroke-width="0" /><circle cx="129" cy="361" fill="#911eb4" r="3.5" stroke-width="0" /><circle cx="127" cy="355" fill="#911eb4" r="3.5" stroke-width="0" /><circle cx="126" cy="349" fill="#911eb4" r="3.5" stroke-width="0" /><circle cx="124" cy="344" fill="#911eb4" r="3.5" stroke-width="0" /><circle cx="123" cy="338" fill="#911eb4" r="3.5" stroke-width="0" /><circle cx="121" cy="332" fill="#911eb4" r="3.5" stroke-width="0" /><circle cx="119" cy="326" fill="#911eb4" r="3.5" stroke-width="0" /><circle cx="118" cy="320" fill="#911eb4" r="3.5" stroke-width="0" /><circle cx="117" cy="315" fill="#911eb4" r="3.5" stroke-width="0" /><circle cx="115" cy="309" fill="#911eb4" r="3.5" stroke-width="0" /><circle cx="114" cy="303" fill="#911eb4" r="3.5" stroke-width="0" /><circle cx="113" cy="297" fill="#911eb4" r="3.5" stroke-width="0" /><circle cx="111" cy="292" fill="#911eb4" r="3.5" stroke-width="0" /><circle cx="110" cy="286" fill="#911eb4" r="3.5" stroke-width="0" /><circle cx="109" cy="280" fill="#911eb4" r="3.5" stroke-width="0" /><circle cx="108" cy="274" fill="#911eb4" r="3.5" stroke-width="0" /><circle cx="107" cy="268" fill="#911eb4" r="3.5" stroke-width="0" /><circle cx="106" cy="263" fill="#911eb4" r="3.5" stroke-width="0" /><circle cx="105" cy="257" fill="#911eb4" r="3.5" stroke-width="0" /><circle cx="104" cy="251" fill="#911eb4" r="3.5" stroke-width="0" /><circle cx="103" cy="245" fill="#911eb4" r="3.5" stroke-width="0" /><circle cx="102" cy="239" fill="#911eb4" r="3.5" stroke-width="0" /><circle cx="101" cy="234" fill="#911eb4" r="3.5" stroke-width="0" /><circle cx="100" cy="228" fill="#911eb4" r="3.5" stroke-width="0" /><circle cx="99" cy="222" fill="#911eb4" r="3.5" stroke-width="0" /><circle cx="98" cy="216" fill="#911eb4" r="3.5" stroke-width="0" /><circle cx="98" cy="211" fill="#911eb4" r="3.5" stroke-width="0" /><circle cx="97" cy="205" fill="#911eb4" r="3.5" stroke-width="0" /><circle cx="96" cy="199" fill="#911eb4" r="3.5" stroke-width="0" /><circle cx="96" cy="193" fill="#911eb4" r="3.5" stroke-width="0" /><circle cx="95" cy="187" fill="#911eb4" r="3.5" stroke-width="0" /><circle cx="94" cy="182" fill="#911eb4" r="3.5" stroke-width="0" /><circle cx="94" cy="176" fill="#911eb4" r="3.5" stroke-width="0" /><circle cx="93" cy="170" fill="#911eb4" r="3.5" stroke-width="0" /><circle cx="93" cy="164" fill="#911eb4" r="3.5" stroke-width="0" /><circle cx="92" cy="158" fill="#911eb4" r="3.5" stroke-width="0" /><circle cx="92" cy="153" fill="#911eb4" r="3.5" stroke-width="0" /><circle cx="92" cy="147" fill="#911eb4" r="3.5" stroke-width="0" /><circle cx="91" cy="141" fill="#911eb4" r="3.5" stroke-width="0" /><circle cx="91" cy="135" fill="#911eb4" r="3.5" stroke-width="0" /><circle cx="91" cy="130" fill="#911eb4" r="3.5" stroke-width="0" /><circle cx="91" cy="124" fill="#911eb4" r="3.5" stroke-width="0" /><circle cx="90" cy="118" fill="#911eb4" r="3.5" stroke-width="0" /><circle cx="90" cy="112" fill="#911eb4" r="3.5" stroke-width="0" /><circle cx="90" cy="106" fill="#911eb4" r="3.5" stroke-width="0" /><circle cx="90" cy="101" fill="#911eb4" r="3.5" stroke-width="0" /><circle cx="90" cy="95" fill="#911eb4" r="3.5" stroke-width="0" /></g></g></g></svg>