<?xml version="1.0" encoding="utf-8" ?>
<svg baseProfile="full" height="1140px" style="font-size:15;font-family:Arial, san-serif;font-weight:bold;stroke:black;stroke-width:0;fill:#444444" version="1.1" width="1140px" xmlns="http://www.w3.org/2000/svg" xmlns:ev="http://www.w3.org/2001/xml-events" xmlns:xlink="http://www.w3.org/1999/xlink"><defs><clipPath id="areadografico"><rect height="1000" width="1000" x="70" y="70" /></clipPath></defs><g class="master"><g class="poligonos"><polygon clip-path="url(#areadografico)" fill="#000000" fill-opacity="0.1" points="1069,1070 1069,822 821,1070" /><polygon clip-path="url(#areadografico)" fill="#ffffff" fill-opacity="0.1" points="822,1070 572,1070 1069,573 1069,822" /><polygon clip-path="url(#areadografico)" fill="#000000" fill-opacity="0.1" points="573,1070 323,1070 1069,324 1069,573" /><polygon clip-path="url(#areadografico)" fill="#ffffff" fill-opacity="0.1" points="324,1070 74,1070 1069,75 1069,324" /><polygon clip-path="url(#areadografico)" fill="#000000" fill-opacity="0.1" points="75,1070 -175,1070 1069,-174 1069,75" /><polygon clip-path="url(#areadografico)" fill="#ffffff" fill-opacity="0.1" points="-174,1070 -424,1070 1069,-423 1069,-174" /><polygon clip-path="url(#areadografico)" fill="#000000" fill-opacity="0.1" points="-423,1070 -673,1070 1069,-672 1069,-423" /><polygon clip-path="url(#areadografico)" fill="#ffffff" fill-opacity="0.1" points="70,71 70,328 327,71" /></g><g class="linhas"><line fill-opacity="0.3" stroke="#999999" stroke-width="1" x1="1070" x2="1070" y1="1070" y2="70" /><line fill-opacity="0.3" stroke="#999999" stroke-width="1" x1="70" x2="1070" y1="70" y2="70" /><line fill-opacity="0.3" stroke="#999999" stroke-width="1" x1="970" x2="970" y1="1070" y2="70" /><line fill-opacity="0.3" stroke="#999999" stroke-width="1" x1="70" x2="1070" y1="170" y2="170" /><line fill-opacity="0.3" stroke="#999999" stroke-width="1" x1="870" x2="870" y1="1070" y2="70" /><line fill-opacity="0.3" stroke="#999999" stroke-width="1" x1="70" x2="1070" y1="270" y2="270" /><line fill-opacity="0.3" stroke="#999999" stroke-width="1" x1="770" x2="770" y1="1070" y2="70" /><line fill-opacity="0.3" stroke="#999999" stroke-width="1" x1="70" x2="1070" y1="370" y2="370" /><line fill-opacity="0.3" stroke="#999999" stroke-width="1" x1="670" x2="670" y1="1070" y2="70" /><line fill-opacity="0.3" stroke="#999999" stroke-width="1" x1="70" x2="1070" y1="470" y2="470" /><line fill-opacity="0.3" stroke="#999999" stroke-width="1" x1="570" x2="570" y1="1070" y2="70" /><line fill-opacity="0.3" stroke="#999999" stroke-width="1" x1="70" x2="1070" y1="570" y2="570" /><line fill-opacity="0.3" stroke="#999999" stroke-width="1" x1="470" x2="470" y1="1070" y2="70" /><line fill-opacity="0.3" stroke="#999999" stroke-width="1" x1="70" x2="1070" y1="670" y2="670" /><line fill-opacity="0.3" stroke="#999999" stroke-width="1" x1="370" x2="370" y1="1070" y2="70" /><line fill-opacity="0.3" stroke="#999999" stroke-width="1" x1="70" x2="1070" y1="770" y2="770" /><line fill-opacity="0.3" stroke="#999999" stroke-width="1" x1="270" x2="270" y1="1070" y2="70" /><line fill-opacity="0.3" stroke="#999999" stroke-width="1" x1="70" x2="1070" y1="870" y2="870" /><line fill-opacity="0.3" stroke="#999999" stroke-width="1" x1="170" x2="170" y1="1070" y2="70" /><line fill-opacity="0.3" stroke="#999999" stroke-width="1" x1="70" x2="1070" y1="970" y2="970" /><line fill-opacity="0.3" stroke="#000000" stroke-width="1" x1="70" x2="70" y1="1071" y2="69" /><line fill-opacity="0.3" stroke="#000000" stroke-width="1" x1="69" x2="1071" y1="1070" y2="1070" /></g><g class="textos"><text x="1050" y="1110">1000</text><text x="10" y="71">1000</text><text x="950" y="1110">900</text><text x="10" y="171">900</text><text x="850" y="1110">800</text><text x="10" y="271">800</text><text x="750" y="1110">700</text><text x="10" y="371">700</text><text x="650" y="1110">600</text><text x="10" y="471">600</text><text x="550" y="1110">500</text><text x="10" y="571">500</text><text x="450" y="1110">400</text><text x="10" y="671">400</text><text x="350" y="1110">300</text><text x="10" y="771">300</text><text x="250" y="1110">200</text><text x="10" y="871">200</text><text x="150" y="1110">100</text><text x="10" y="971">100</text><text x="50" y="1111">0</text><text x="9" y="1071">0</text></g><g class="especies"><g class="e0"><circle cx="1013" cy="1049" fill="#ff0000" r="3.5" stroke-width="0" /><circle cx="980" cy="1047" fill="#ff0000" r="3.5" stroke-width="0" /><circle cx="1041" cy="1050" fill="#ff0000" r="3.5" stroke-width="0" /><circle cx="981" cy="1048" fill="#ff0000" r="3.5" stroke-width="0" /><circle cx="882" cy="1035" fill="#ff0000" r="3.5" stroke-width="0" /><circle cx="878" cy="1034" fill="#ff0000" r="3.5" stroke-width="0" /><circle cx="947" cy="1044" fill="#ff0000" r="3.5" stroke-width="0" /><circle cx="914" cy="1040" fill="#ff0000" r="3.5" stroke-width="0" /><circle cx="937" cy="1043" fill="#ff0000" r="3.5" stroke-width="0" /></g><g class="e1"><circle cx="799" cy="1017" fill="#2b92db" r="3.5" stroke-width="0" /><circle cx="748" cy="1001" fill="#2b92db" r="3.5" stroke-width="0" /><circle cx="702" cy="985" fill="#2b92db" r="3.5" stroke-width="0" /><circle cx="726" cy="994" fill="#2b92db" r="3.5" stroke-width="0" /><circle cx="846" cy="1028" fill="#2b92db" r="3.5" stroke-width="0" /><circle cx="750" cy="1002" fill="#2b92db" r="3.5" stroke-width="0" /><circle cx="818" cy="1022" fill="#2b92db" r="3.5" stroke-width="0" /><circle cx="796" cy="1016" fill="#2b92db" r="3.5" stroke-width="0" /><circle cx="782" cy="1012" fill="#2b92db" r="3.5" stroke-width="0" /><circle cx="804" cy="1018" fill="#2b92db" r="3.5" stroke-width="0" /><circle cx="761" cy="1005" fill="#2b92db" r="3.5" stroke-width="0" /><circle cx="840" cy="1027" fill="#2b92db" r="3.5" stroke-width="0" /><circle cx="712" cy="989" fill="#2b92db" r="3.5" stroke-width="0" /><circle cx="810" cy="1020" fill="#2b92db" r="3.5" stroke-width="0" /><circle cx="701" cy="984" fill="#2b92db" r="3.5" stroke-width="0" /><circle cx="739" cy="998" fill="#2b92db" r="3.5" stroke-width="0" /><circle cx="705" cy="986" fill="#2b92db" r="3.5" stroke-width="0" /><circle cx="849" cy="1029" fill="#2b92db" r="3.5" stroke-width="0" /><circle cx="859" cy="1031" fill="#2b92db" r="3.5" stroke-width="0" /><circle cx="670" cy="972" fill="#2b92db" r="3.5" stroke-width="0" /><circle cx="756" cy="1004" fill="#2b92db" r="3.5" stroke-width="0" /><circle cx="734" cy="997" fill="#2b92db" r="3.5" stroke-width="0" /></g><g class="e2"><circle cx="567" cy="920" fill="#911eb4" r="3.5" stroke-width="0" /><circle cx="655" cy="965" fill="#911eb4" r="3.5" stroke-width="0" /><circle cx="658" cy="966" fill="#911eb4" r="3.5" stroke-width="0" /><circle cx="554" cy="912" fill="#911eb4" r="3.5" stroke-width="0" /><circle cx="536" cy="901" fill="#911eb4" r="3.5" stroke-width="0" /><circle cx="659" cy="967" fill="#911eb4" r="3.5" stroke-width="0" /><circle cx="575" cy="924" fill="#911eb4" r="3.5" stroke-width="0" /><circle cx="635" cy="956" fill="#911eb4" r="3.5" stroke-width="0" /><circle cx="632" cy="954" fill="#911eb4" r="3.5" stroke-width="0" /><circle cx="542" cy="905" fill="#911eb4" r="3.5" stroke-width="0" /><circle cx="530" cy="897" fill="#911eb4" r="3.5" stroke-width="0" /><circle cx="609" cy="943" fill="#911eb4" r="3.5" stroke-width="0" /><circle cx="534" cy="900" fill="#911eb4" r="3.5" stroke-width="0" /><circle cx="555" cy="913" fill="#911eb4" r="3.5" stroke-width="0" /><circle cx="586" cy="930" fill="#911eb4" r="3.5" stroke-width="0" /><circle cx="651" cy="963" fill="#911eb4" r="3.5" stroke-width="0" /><circle cx="608" cy="942" fill="#911eb4" r="3.5" stroke-width="0" /><circle cx="633" cy="955" fill="#911eb4" r="3.5" stroke-width="0" /><circle cx="511" cy="884" fill="#911eb4" r="3.5" stroke-width="0" /><circle cx="626" cy="951" fill="#911eb4" r="3.5" stroke-width="0" /><circle cx="669" cy="971" fill="#911eb4" r="3.5" stroke-width="0" /><circle cx="565" cy="918" fill="#911eb4" r="3.5" stroke-width="0" /><circle cx="557" cy="914" fill="#911eb4" r="3.5" stroke-width="0" /></g><g class="e3"><circle cx="486" cy="867" fill="#3cb44B" r="3.5" stroke-width="0" /><circle cx="409" cy="805" fill="#3cb44B" r="3.5" stroke-width="0" /><circle cx="438" cy="830" fill="#3cb44B" r="3.5" stroke-width="0" /><circle cx="458" cy="846" fill="#3cb44B" r="3.5" stroke-width="0" /><circle cx="386" cy="783" fill="#3cb44B" r="3.5" stroke-width="0" /><circle cx="507" cy="882" fill="#3cb44B" r="3.5" stroke-width="0" /><circle cx="378" cy="776" fill="#3cb44B" r="3.5" stroke-width="0" /><circle cx="395" cy="792" fill="#3cb44B" r="3.5" stroke-width="0" /><circle cx="391" cy="788" fill="#3cb44B" r="3.5" stroke-width="0" /><circle cx="463" cy="850" fill="#3cb44B" r="3.5" stroke-width="0" /><circle cx="461" cy="848" fill="#3cb44B" r="3.5" stroke-width="0" /><circle cx="448" cy="838" fill="#3cb44B" r="3.5" stroke-width="0" /><circle cx="392" cy="789" fill="#3cb44B" r="3.5" stroke-width="0" /><circle cx="449" cy="839" fill="#3cb44B" r="3.5" stroke-width="0" /><circle cx="421" cy="815" fill="#3cb44B" r="3.5" stroke-width="0" /><circle cx="424" cy="818" fill="#3cb44B" r="3.5" stroke-width="0" /><circle cx="406" cy="802" fill="#3cb44B" r="3.5" stroke-width="0" /><circle cx="479" cy="862" fill="#3cb44B" r="3.5" stroke-width="0" /><circle cx="388" cy="785" fill="#3cb44B" r="3.5" stroke-width="0" /><circle cx="475" cy="859" fill="#3cb44B" r="3.5" stroke-width="0" /><circle cx="445" cy="835" fill="#3cb44B" r="3.5" stroke-width="0" /></g><g class="e4"><circle cx="304" cy="694" fill="#ff0000" r="3.5" stroke-width="0" /><circle cx="290" cy="677" fill="#ff0000" r="3.5" stroke-width="0" /><circle cx="362" cy="760" fill="#ff0000" r="3.5" stroke-width="0" /><circle cx="267" cy="645" fill="#ff0000" r="3.5" stroke-width="0" /><circle cx="303" cy="693" fill="#ff0000" r="3.5" stroke-width="0" /><circle cx="273" cy="654" fill="#ff0000" r="3.5" stroke-width="0" /><circle cx="358" cy="755" fill="#ff0000" r="3.5" stroke-width="0" /><circle cx="261" cy="637" fill="#ff0000" r="3.5" stroke-width="0" /><circle cx="328" cy="723" fill="#ff0000" r="3.5" stroke-width="0" /><circle cx="342" cy="738" fill="#ff0000" r="3.5" stroke-width="0" /><circle cx="368" cy="766" fill="#ff0000" r="3.5" stroke-width="0" /><circle cx="361" cy="759" fill="#ff0000" r="3.5" stroke-width="0" /><circle cx="335" cy="731" fill="#ff0000" r="3.5" stroke-width="0" /><circle cx="278" cy="660" fill="#ff0000" r="3.5" stroke-width="0" /><circle cx="298" cy="687" fill="#ff0000" r="3.5" stroke-width="0" /><circle cx="299" cy="688" fill="#ff0000" r="3.5" stroke-width="0" /><circle cx="363" cy="761" fill="#ff0000" r="3.5" stroke-width="0" /><circle cx="333" cy="728" fill="#ff0000" r="3.5" stroke-width="0" /></g><g class="e5"><circle cx="196" cy="529" fill="#2b92db" r="3.5" stroke-width="0" /><circle cx="213" cy="561" fill="#2b92db" r="3.5" stroke-width="0" /><circle cx="175" cy="485" fill="#2b92db" r="3.5" stroke-width="0" /><circle cx="240" cy="606" fill="#2b92db" r="3.5" stroke-width="0" /><circle cx="190" cy="516" fill="#2b92db" r="3.5" stroke-width="0" /><circle cx="258" cy="632" fill="#2b92db" r="3.5" stroke-width="0" /><circle cx="198" cy="533" fill="#2b92db" r="3.5" stroke-width="0" /><circle cx="177" cy="489" fill="#2b92db" r="3.5" stroke-width="0" /><circle cx="200" cy="536" fill="#2b92db" r="3.5" stroke-width="0" /><circle cx="202" cy="540" fill="#2b92db" r="3.5" stroke-width="0" /><circle cx="247" cy="616" fill="#2b92db" r="3.5" stroke-width="0" /><circle cx="176" cy="488" fill="#2b92db" r="3.5" stroke-width="0" /><circle cx="237" cy="600" fill="#2b92db" r="3.5" stroke-width="0" /><circle cx="229" cy="588" fill="#2b92db" r="3.5" stroke-width="0" /><circle cx="197" cy="530" fill="#2b92db" r="3.5" stroke-width="0" /><circle cx="199" cy="535" fill="#2b92db" r="3.5" stroke-width="0" /><circle cx="184" cy="505" fill="#2b92db" r="3.5" stroke-width="0" /><circle cx="224" cy="580" fill="#2b92db" r="3.5" stroke-width="0" /><circle cx="220" cy="572" fill="#2b92db" r="3.5" stroke-width="0" /></g><g class="e6"><circle cx="140" cy="397" fill="#911eb4" r="3.5" stroke-width="0" /><circle cx="157" cy="442" fill="#911eb4" r="3.5" stroke-width="0" /><circle cx="158" cy="445" fill="#911eb4" r="3.5" stroke-width="0" /><circle cx="156" cy="440" fill="#911eb4" r="3.5" stroke-width="0" /><circle cx="149" cy="420" fill="#911eb4" r="3.5" stroke-width="0" /><circle cx="161" cy="452" fill="#911eb4" r="3.5" stroke-width="0" /><circle cx="111" cy="292" fill="#911eb4" r="3.5" stroke-width="0" /><circle cx="138" cy="390" fill="#911eb4" r="3.5" stroke-width="0" /><circle cx="124" cy="344" fill="#911eb4" r="3.5" stroke-width="0" /><circle cx="114" cy="304" fill="#911eb4" r="3.5" stroke-width="0" /><circle cx="127" cy="354" fill="#911eb4" r="3.5" stroke-width="0" /><circle cx="113" cy="298" fill="#911eb4" r="3.5" stroke-width="0" /><circle cx="122" cy="337" fill="#911eb4" r="3.5" stroke-width="0" /><circle cx="126" cy="351" fill="#911eb4" r="3.5" stroke-width="0" /><circle cx="130" cy="363" fill="#911eb4" r="3.5" stroke-width="0" /><circle cx="125" cy="347" fill="#911eb4" r="3.5" stroke-width="0" /><circle cx="155" cy="438" fill="#911eb4" r="3.5" stroke-width="0" /><circle cx="135" cy="379" fill="#911eb4" r="3.5" stroke-width="0" /><circle cx="112" cy="296" fill="#911eb4" r="3.5" stroke-width="0" /><circle cx="146" cy="414" fill="#911eb4" r="3.5" stroke-width="0" /><circle cx="117" cy="316" fill="#911eb4" r="3.5" stroke-width="0" /></g><g class="e7"><circle cx="90" cy="114" fill="#3cb44B" r="3.5" stroke-width="0" /><circle cx="102" cy="239" fill="#3cb44B" r="3.5" stroke-width="0" /><circle cx="91" cy="125" fill="#3cb44B" r="3.5" stroke-width="0" /><circle cx="92" cy="149" fill="#3cb44B" r="3.5" stroke-width="0" /><circle cx="98" cy="214" fill="#3cb44B" r="3.5" stroke-width="0" /><circle cx="103" cy="249" fill="#3cb44B" r="3.5" stroke-width="0" /><circle cx="105" cy="257" fill="#3cb44B" r="3.5" stroke-width="0" /><circle cx="93" cy="165" fill="#3cb44B" r="3.5" stroke-width="0" /><circle cx="108" cy="273" fill="#3cb44B" r="3.5" stroke-width="0" /><circle cx="106" cy="264" fill="#3cb44B" r="3.5" stroke-width="0" /><circle cx="101" cy="237" fill="#3cb44B" r="3.5" stroke-width="0" /><circle cx="97" cy="206" fill="#3cb44B" r="3.5" stroke-width="0" /></g></g></g></svg>