<?xml version="1.0" encoding="utf-8" ?>
<svg baseProfile="full" height="1140px" style="font-size:15;font-family:Arial, san-serif;font-weight:bold;stroke:black;stroke-width:0;fill:#444444" version="1.1" width="1140px" xmlns="http://www.w3.org/2000/svg" xmlns:ev="http://www.w3.org/2001/xml-events" xmlns:xlink="http://www.w3.org/1999/xlink"><defs><clipPath id="areadografico"><rect height="1000" width="1000" x="70" y="70" /></clipPath></defs><g class="master"><g class="poligonos"><polygon clip-path="url(#areadografico)" fill="#000000" fill-opacity="0.1" points="1069,1070 1069,890 889,1070" /><polygon clip-path="url(#areadografico)" fill="#ffffff" fill-opacity="0.1" points="890,1070 708,1070 1069,709 1069,890" /><polygon clip-path="url(#areadografico)" fill="#000000" fill-opacity="0.1" points="709,1070 527,1070 1069,528 1069,709" /><polygon clip-path="url(#areadografico)" fill="#ffffff" fill-opacity="0.1" points="528,1070 346,1070 1069,347 1069,528" /><polygon clip-path="url(#areadografico)" fill="#000000" fill-opacity="0.1" points="347,1070 165,1070 1069,166 1069,347" /><polygon clip-path="url(#areadografico)" fill="#ffffff" fill-opacity="0.1" points="166,1070 -16,1070 1069,-15 1069,166" /><polygon clip-path="url(#areadografico)" fill="#000000" fill-opacity="0.1" points="-15,1070 -197,1070 1069,-196 1069,-15" /><polygon clip-path="url(#areadografico)" fill="#ffffff" fill-opacity="0.1" points="-196,1070 -378,1070 1069,-377 1069,-196" /><polygon clip-path="url(#areadografico)" fill="#000000" fill-opacity="0.1" points="-377,1070 -559,1070 1069,-558 1069,-377" /><polygon clip-path="url(#areadografico)" fill="#ffffff" fill-opacity="0.1" points="-558,1070 -740,1070 1069,-739 1069,-558" /><polygon clip-path="url(#areadografico)" fill="#000000" fill-opacity="0.1" points="70,71 70,260 259,71" /></g><g class="linhas"><line fill-opacity="0.3" stroke="#999999" stroke-width="1" x1="1070" x2="1070" y1="1070" y2="70" /><line fill-opacity="0.3" stroke="#999999" stroke-width="1" x1="70" x2="1070" y1="70" y2="70" /><line fill-opacity="0.3" stroke="#999999" stroke-width="1" x1="970" x2="970" y1="1070" y2="70" /><line fill-opacity="0.3" stroke="#999999" stroke-width="1" x1="70" x2="1070" y1="170" y2="170" /><line fill-opacity="0.3" stroke="#999999" stroke-width="1" x1="870" x2="870" y1="1070" y2="70" /><line fill-opacity="0.3" stroke="#999999" stroke-width="1" x1="70" x2="1070" y1="270" y2="270" /><line fill-opacity="0.3" stroke="#999999" stroke-width="1" x1="770" x2="770" y1="1070" y2="70" /><line fill-opacity="0.3" stroke="#999999" stroke-width="1" x1="70" x2="1070" y1="370" y2="370" /><line fill-opacity="0.3" stroke="#999999" stroke-width="1" x1="670" x2="670" y1="1070" y2="70" /><line fill-opacity="0.3" stroke="#999999" stroke-width="1" x1="70" x2="1070" y1="470" y2="470" /><line fill-opacity="0.3" stroke="#999999" stroke-width="1" x1="570" x2="570" y1="1070" y2="70" /><line fill-opacity="0.3" stroke="#999999" stroke-width="1" x1="70" x2="1070" y1="570" y2="570" /><line fill-opacity="0.3" stroke="#999999" stroke-width="1" x1="470" x2="470" y1="1070" y2="70" /><line fill-opacity="0.3" stroke="#999999" stroke-width="1" x1="70" x2="1070" y1="670" y2="670" /><line fill-opacity="0.3" stroke="#999999" stroke-width="1" x1="370" x2="370" y1="1070" y2="70" /><line fill-opacity="0.3" stroke="#999999" stroke-width="1" x1="70" x2="1070" y1="770" y2="770" /><line fill-opacity="0.3" stroke="#999999" stroke-width="1" x1="270" x2="270" y1="1070" y2="70" /><line fill-opacity="0.3" stroke="#999999" stroke-width="1" x1="70" x2="1070" y1="870" y2="870" /><line fill-opacity="0.3" stroke="#999999" stroke-width="1" x1="170" x2="170" y1="1070" y2="70" /><line fill-opacity="0.3" stroke="#999999" stroke-width="1" x1="70" x2="1070" y1="970" y2="970" /><line fill-opacity="0.3" stroke="#000000" stroke-width="1" x1="70" x2="70" y1="1071" y2="69" /><line fill-opacity="0.3" stroke="#000000" stroke-width="1" x1="69" x2="1071" y1="1070" y2="1070" /></g><g class="textos"><text x="1050" y="1110">1000</text><text x="10" y="71">1000</text><text x="950" y="1110">900</text><text x="10" y="171">900</text><text x="850" y="1110">800</text><text x="10" y="271">800</text><text x="750" y="1110">700</text><text x="10" y="371">700</text><text x="650" y="1110">600</text><text x="10" y="471">600</text><text x="550" y="1110">500</text><text x="10" y="571">500</text><text x="450" y="1110">400</text><text x="10" y="671">400</text><text x="350" y="1110">300</text><text x="10" y="771">300</text><text x="250" y="1110">200</text><text x="10" y="871">200</text><text x="150" y="1110">100</text><text x="10" y="971">100</text><text x="50" y="1111">0</text><text x="9" y="1071">0</text></g><g class="especies"><g class="e0"><circle cx="926" cy="1042" fill="#ff0000" r="3.5" stroke-width="0" /><circle cx="1048" cy="1050" fill="#ff0000" r="3.5" stroke-width="0" /><circle cx="1012" cy="1049" fill="#ff0000" r="3.5" stroke-width="0" /><circle cx="947" cy="1044" fill="#ff0000" r="3.5" stroke-width="0" /><circle cx="965" cy="1046" fill="#ff0000" r="3.5" stroke-width="0" /><circle cx="953" cy="1045" fill="#ff0000" r="3.5" stroke-width="0" /></g><g class="e1"><circle cx="777" cy="1010" fill="#2b92db" r="3.5" stroke-width="0" /><circle cx="911" cy="1040" fill="#2b92db" r="3.5" stroke-width="0" /><circle cx="825" cy="1023" fill="#2b92db" r="3.5" stroke-width="0" /><circle cx="843" cy="1027" fill="#2b92db" r="3.5" stroke-width="0" /><circle cx="828" cy="1024" fill="#2b92db" r="3.5" stroke-width="0" /><circle cx="785" cy="1013" fill="#2b92db" r="3.5" stroke-width="0" /><circle cx="899" cy="1038" fill="#2b92db" r="3.5" stroke-width="0" /><circle cx="848" cy="1029" fill="#2b92db" r="3.5" stroke-width="0" /><circle cx="788" cy="1014" fill="#2b92db" r="3.5" stroke-width="0" /><circle cx="833" cy="1025" fill="#2b92db" r="3.5" stroke-width="0" /><circle cx="801" cy="1017" fill="#2b92db" r="3.5" stroke-width="0" /></g><g class="e2"><circle cx="695" cy="982" fill="#911eb4" r="3.5" stroke-width="0" /><circle cx="707" cy="987" fill="#911eb4" r="3.5" stroke-width="0" /><circle cx="761" cy="1005" fill="#911eb4" r="3.5" stroke-width="0" /><circle cx="715" cy="990" fill="#911eb4" r="3.5" stroke-width="0" /><circle cx="684" cy="977" fill="#911eb4" r="3.5" stroke-width="0" /><circle cx="753" cy="1003" fill="#911eb4" r="3.5" stroke-width="0" /><circle cx="646" cy="961" fill="#911eb4" r="3.5" stroke-width="0" /><circle cx="739" cy="998" fill="#911eb4" r="3.5" stroke-width="0" /><circle cx="669" cy="971" fill="#911eb4" r="3.5" stroke-width="0" /></g><g class="e3"><circle cx="546" cy="907" fill="#3cb44B" r="3.5" stroke-width="0" /><circle cx="629" cy="953" fill="#3cb44B" r="3.5" stroke-width="0" /><circle cx="625" cy="951" fill="#3cb44B" r="3.5" stroke-width="0" /><circle cx="552" cy="911" fill="#3cb44B" r="3.5" stroke-width="0" /><circle cx="561" cy="916" fill="#3cb44B" r="3.5" stroke-width="0" /></g><g class="e4"><circle cx="492" cy="871" fill="#ff0000" r="3.5" stroke-width="0" /><circle cx="507" cy="882" fill="#ff0000" r="3.5" stroke-width="0" /><circle cx="421" cy="815" fill="#ff0000" r="3.5" stroke-width="0" /><circle cx="466" cy="852" fill="#ff0000" r="3.5" stroke-width="0" /><circle cx="474" cy="858" fill="#ff0000" r="3.5" stroke-width="0" /><circle cx="427" cy="820" fill="#ff0000" r="3.5" stroke-width="0" /><circle cx="476" cy="859" fill="#ff0000" r="3.5" stroke-width="0" /><circle cx="500" cy="877" fill="#ff0000" r="3.5" stroke-width="0" /><circle cx="515" cy="887" fill="#ff0000" r="3.5" stroke-width="0" /><circle cx="445" cy="835" fill="#ff0000" r="3.5" stroke-width="0" /><circle cx="519" cy="890" fill="#ff0000" r="3.5" stroke-width="0" /><circle cx="455" cy="843" fill="#ff0000" r="3.5" stroke-width="0" /></g><g class="e5"><circle cx="419" cy="813" fill="#2b92db" r="3.5" stroke-width="0" /><circle cx="371" cy="769" fill="#2b92db" r="3.5" stroke-width="0" /><circle cx="417" cy="812" fill="#2b92db" r="3.5" stroke-width="0" /><circle cx="389" cy="786" fill="#2b92db" r="3.5" stroke-width="0" /></g><g class="e6"><circle cx="327" cy="722" fill="#911eb4" r="3.5" stroke-width="0" /><circle cx="311" cy="703" fill="#911eb4" r="3.5" stroke-width="0" /><circle cx="290" cy="677" fill="#911eb4" r="3.5" stroke-width="0" /><circle cx="321" cy="715" fill="#911eb4" r="3.5" stroke-width="0" /><circle cx="324" cy="718" fill="#911eb4" r="3.5" stroke-width="0" /><circle cx="256" cy="630" fill="#911eb4" r="3.5" stroke-width="0" /><circle cx="306" cy="697" fill="#911eb4" r="3.5" stroke-width="0" /><circle cx="305" cy="696" fill="#911eb4" r="3.5" stroke-width="0" /><circle cx="295" cy="683" fill="#911eb4" r="3.5" stroke-width="0" /></g><g class="e7"><circle cx="234" cy="595" fill="#3cb44B" r="3.5" stroke-width="0" /><circle cx="219" cy="571" fill="#3cb44B" r="3.5" stroke-width="0" /><circle cx="244" cy="612" fill="#3cb44B" r="3.5" stroke-width="0" /><circle cx="204" cy="543" fill="#3cb44B" r="3.5" stroke-width="0" /></g><g class="e8"><circle cx="145" cy="409" fill="#ff0000" r="3.5" stroke-width="0" /><circle cx="175" cy="484" fill="#ff0000" r="3.5" stroke-width="0" /><circle cx="156" cy="439" fill="#ff0000" r="3.5" stroke-width="0" /><circle cx="163" cy="456" fill="#ff0000" r="3.5" stroke-width="0" /><circle cx="166" cy="464" fill="#ff0000" r="3.5" stroke-width="0" /><circle cx="154" cy="434" fill="#ff0000" r="3.5" stroke-width="0" /><circle cx="155" cy="436" fill="#ff0000" r="3.5" stroke-width="0" /><circle cx="148" cy="419" fill="#ff0000" r="3.5" stroke-width="0" /><circle cx="141" cy="398" fill="#ff0000" r="3.5" stroke-width="0" /><circle cx="149" cy="420" fill="#ff0000" r="3.5" stroke-width="0" /><circle cx="173" cy="480" fill="#ff0000" r="3.5" stroke-width="0" /><circle cx="162" cy="454" fill="#ff0000" r="3.5" stroke-width="0" /></g><g class="e9"><circle cx="123" cy="339" fill="#2b92db" r="3.5" stroke-width="0" /><circle cx="117" cy="315" fill="#2b92db" r="3.5" stroke-width="0" /><circle cx="125" cy="347" fill="#2b92db" r="3.5" stroke-width="0" /><circle cx="121" cy="331" fill="#2b92db" r="3.5" stroke-width="0" /><circle cx="133" cy="375" fill="#2b92db" r="3.5" stroke-width="0" /><circle cx="122" cy="337" fill="#2b92db" r="3.5" stroke-width="0" /><circle cx="101" cy="236" fill="#2b92db" r="3.5" stroke-width="0" /><circle cx="115" cy="306" fill="#2b92db" r="3.5" stroke-width="0" /></g><g class="e10"><circle cx="95" cy="184" fill="#911eb4" r="3.5" stroke-width="0" /><circle cx="97" cy="207" fill="#911eb4" r="3.5" stroke-width="0" /><circle cx="90" cy="106" fill="#911eb4" r="3.5" stroke-width="0" /><circle cx="91" cy="130" fill="#911eb4" r="3.5" stroke-width="0" /><circle cx="94" cy="173" fill="#911eb4" r="3.5" stroke-width="0" /></g></g></g></svg>