<?xml version="1.0" encoding="utf-8" ?>
<svg baseProfile="full" height="1140px" style="font-size:15;font-family:Arial, san-serif;font-weight:bold;stroke:black;stroke-width:0;fill:#444444" version="1.1" width="1140px" xmlns="http://www.w3.org/2000/svg" xmlns:ev="http://www.w3.org/2001/xml-events" xmlns:xlink="http://www.w3.org/1999/xlink"><defs><clipPath id="areadografico"><rect height="1000" width="1000" x="70" y="70" /></clipPath></defs><g class="master"><g class="poligonos"><polygon clip-path="url(#areadografico)" fill="#000000" fill-opacity="0.1" points="1069,1070 1069,871 870,1070" /><polygon clip-path="url(#areadografico)" fill="#ffffff" fill-opacity="0.1" points="871,1070 671,1070 1069,672 1069,871" /><polygon clip-path="url(#areadografico)" fill="#000000" fill-opacity="0.1" points="672,1070 471,1070 1069,472 1069,672" /><polygon clip-path="url(#areadografico)" fill="#ffffff" fill-opacity="0.1" points="472,1070 272,1070 1069,273 1069,472" /><polygon clip-path="url(#areadografico)" fill="#000000" fill-opacity="0.1" points="273,1070 73,1070 1069,74 1069,273" /><polygon clip-path="url(#areadografico)" fill="#ffffff" fill-opacity="0.1" points="74,1070 -127,1070 1069,-126 1069,74" /><polygon clip-path="url(#areadografico)" fill="#000000" fill-opacity="0.1" points="-126,1070 -326,1070 1069,-325 1069,-126" /><polygon clip-path="url(#areadografico)" fill="#ffffff" fill-opacity="0.1" points="-325,1070 -525,1070 1069,-524 1069,-325" /><polygon clip-path="url(#areadografico)" fill="#000000" fill-opacity="0.1" points="-524,1070 -725,1070 1069,-724 1069,-524" /><polygon clip-path="url(#areadografico)" fill="#ffffff" fill-opacity="0.1" points="70,71 70,276 275,71" /></g><g class="linhas"><line fill-opacity="0.3" stroke="#999999" stroke-width="1" x1="1070" x2="1070" y1="1070" y2="70" /><line fill-opacity="0.3" stroke="#999999" stroke-width="1" x1="70" x2="1070" y1="70" y2="70" /><line fill-opacity="0.3" stroke="#999999" stroke-width="1" x1="970" x2="970" y1="1070" y2="70" /><line fill-opacity="0.3" stroke="#999999" stroke-width="1" x1="70" x2="1070" y1="170" y2="170" /><line fill-opacity="0.3" stroke="#999999" stroke-width="1" x1="870" x2="870" y1="1070" y2="70" /><line fill-opacity="0.3" stroke="#999999" stroke-width="1" x1="70" x2="1070" y1="270" y2="270" /><line fill-opacity="0.3" stroke="#999999" stroke-width="1" x1="770" x2="770" y1="1070" y2="70" /><line fill-opacity="0.3" stroke="#999999" stroke-width="1" x1="70" x2="1070" y1="370" y2="370" /><line fill-opacity="0.3" stroke="#999999" stroke-width="1" x1="670" x2="670" y1="1070" y2="70" /><line fill-opacity="0.3" stroke="#999999" stroke-width="1" x1="70" x2="1070" y1="470" y2="470" /><line fill-opacity="0.3" stroke="#999999" stroke-width="1" x1="570" x2="570" y1="1070" y2="70" /><line fill-opacity="0.3" stroke="#999999" stroke-width="1" x1="70" x2="1070" y1="570" y2="570" /><line fill-opacity="0.3" stroke="#999999" stroke-width="1" x1="470" x2="470" y1="1070" y2="70" /><line fill-opacity="0.3" stroke="#999999" stroke-width="1" x1="70" x2="1070" y1="670" y2="670" /><line fill-opacity="0.3" stroke="#999999" stroke-width="1" x1="370" x2="370" y1="1070" y2="70" /><line fill-opacity="0.3" stroke="#999999" stroke-width="1" x1="70" x2="1070" y1="770" y2="770" /><line fill-opacity="0.3" stroke="#999999" stroke-width="1" x1="270" x2="270" y1="1070" y2="70" /><line fill-opacity="0.3" stroke="#999999" stroke-width="1" x1="70" x2="1070" y1="870" y2="870" /><line fill-opacity="0.3" stroke="#999999" stroke-width="1" x1="170" x2="170" y1="1070" y2="70" /><line fill-opacity="0.3" stroke="#999999" stroke-width="1" x1="70" x2="1070" y1="970" y2="970" /><line fill-opacity="0.3" stroke="#000000" stroke-width="1" x1="70" x2="70" y1="1071" y2="69" /><line fill-opacity="0.3" stroke="#000000" stroke-width="1" x1="69" x2="1071" y1="1070" y2="1070" /></g><g class="textos"><text x="1050" y="1110">1000</text><text x="10" y="71">1000</text><text x="950" y="1110">900</text><text x="10" y="171">900</text><text x="850" y="1110">800</text><text x="10" y="271">800</text><text x="750" y="1110">700</text><text x="10" y="371">700</text><text x="650" y="1110">600</text><text x="10" y="471">600</text><text x="550" y="1110">500</text><text x="10" y="571">500</text><text x="450" y="1110">400</text><text x="10" y="671">400</text><text x="350" y="1110">300</text><text x="10" y="771">300</text><text x="250" y="1110">200</text><text x="10" y="871">200</text><text x="150" y="1110">100</text><text x="10" y="971">100</text><text x="50" y="1111">0</text><text x="9" y="1071">0</text></g><g class="especies"><g class="e0"><circle cx="975" cy="1047" fill="#ff0000" r="3.5" stroke-width="0" /><circle cx="954" cy="1045" fill="#ff0000" r="3.5" stroke-width="0" /><circle cx="1018" cy="1049" fill="#ff0000" r="3.5" stroke-width="0" /><circle cx="958" cy="1046" fill="#ff0000" r="3.5" stroke-width="0" /><circle cx="1023" cy="1050" fill="#ff0000" r="3.5" stroke-width="0" /><circle cx="909" cy="1040" fill="#ff0000" r="3.5" stroke-width="0" /><circle cx="984" cy="1048" fill="#ff0000" r="3.5" stroke-width="0" /><circle cx="918" cy="1041" fill="#ff0000" r="3.5" stroke-width="0" /><circle cx="935" cy="1043" fill="#ff0000" r="3.5" stroke-width="0" /></g><g class="e1"><circle cx="813" cy="1020" fill="#2b92db" r="3.5" stroke-width="0" /><circle cx="774" cy="1009" fill="#2b92db" r="3.5" stroke-width="0" /><circle cx="804" cy="1018" fill="#2b92db" r="3.5" stroke-width="0" /><circle cx="821" cy="1022" fill="#2b92db" r="3.5" stroke-width="0" /><circle cx="876" cy="1034" fill="#2b92db" r="3.5" stroke-width="0" /><circle cx="787" cy="1013" fill="#2b92db" r="3.5" stroke-width="0" /><circle cx="784" cy="1012" fill="#2b92db" r="3.5" stroke-width="0" /><circle cx="816" cy="1021" fill="#2b92db" r="3.5" stroke-width="0" /></g><g class="e2"><circle cx="709" cy="987" fill="#911eb4" r="3.5" stroke-width="0" /><circle cx="618" cy="947" fill="#911eb4" r="3.5" stroke-width="0" /><circle cx="627" cy="952" fill="#911eb4" r="3.5" stroke-width="0" /><circle cx="688" cy="979" fill="#911eb4" r="3.5" stroke-width="0" /><circle cx="674" cy="973" fill="#911eb4" r="3.5" stroke-width="0" /><circle cx="718" cy="991" fill="#911eb4" r="3.5" stroke-width="0" /><circle cx="666" cy="970" fill="#911eb4" r="3.5" stroke-width="0" /><circle cx="683" cy="977" fill="#911eb4" r="3.5" stroke-width="0" /><circle cx="723" cy="993" fill="#911eb4" r="3.5" stroke-width="0" /><circle cx="665" cy="969" fill="#911eb4" r="3.5" stroke-width="0" /><circle cx="710" cy="988" fill="#911eb4" r="3.5" stroke-width="0" /></g><g class="e3"><circle cx="557" cy="914" fill="#3cb44B" r="3.5" stroke-width="0" /><circle cx="481" cy="863" fill="#3cb44B" r="3.5" stroke-width="0" /><circle cx="581" cy="928" fill="#3cb44B" r="3.5" stroke-width="0" /><circle cx="545" cy="906" fill="#3cb44B" r="3.5" stroke-width="0" /><circle cx="542" cy="905" fill="#3cb44B" r="3.5" stroke-width="0" /><circle cx="492" cy="871" fill="#3cb44B" r="3.5" stroke-width="0" /><circle cx="599" cy="937" fill="#3cb44B" r="3.5" stroke-width="0" /><circle cx="594" cy="935" fill="#3cb44B" r="3.5" stroke-width="0" /><circle cx="487" cy="868" fill="#3cb44B" r="3.5" stroke-width="0" /><circle cx="528" cy="896" fill="#3cb44B" r="3.5" stroke-width="0" /><circle cx="570" cy="921" fill="#3cb44B" r="3.5" stroke-width="0" /><circle cx="523" cy="892" fill="#3cb44B" r="3.5" stroke-width="0" /></g><g class="e4"><circle cx="473" cy="857" fill="#ff0000" r="3.5" stroke-width="0" /><circle cx="394" cy="791" fill="#ff0000" r="3.5" stroke-width="0" /><circle cx="406" cy="802" fill="#ff0000" r="3.5" stroke-width="0" /><circle cx="462" cy="849" fill="#ff0000" r="3.5" stroke-width="0" /><circle cx="463" cy="850" fill="#ff0000" r="3.5" stroke-width="0" /><circle cx="379" cy="777" fill="#ff0000" r="3.5" stroke-width="0" /><circle cx="418" cy="813" fill="#ff0000" r="3.5" stroke-width="0" /><circle cx="385" cy="782" fill="#ff0000" r="3.5" stroke-width="0" /><circle cx="373" cy="771" fill="#ff0000" r="3.5" stroke-width="0" /><circle cx="469" cy="854" fill="#ff0000" r="3.5" stroke-width="0" /><circle cx="430" cy="823" fill="#ff0000" r="3.5" stroke-width="0" /><circle cx="443" cy="834" fill="#ff0000" r="3.5" stroke-width="0" /><circle cx="471" cy="856" fill="#ff0000" r="3.5" stroke-width="0" /><circle cx="383" cy="780" fill="#ff0000" r="3.5" stroke-width="0" /></g><g class="e5"><circle cx="330" cy="725" fill="#2b92db" r="3.5" stroke-width="0" /><circle cx="347" cy="744" fill="#2b92db" r="3.5" stroke-width="0" /><circle cx="297" cy="685" fill="#2b92db" r="3.5" stroke-width="0" /><circle cx="364" cy="762" fill="#2b92db" r="3.5" stroke-width="0" /><circle cx="324" cy="718" fill="#2b92db" r="3.5" stroke-width="0" /><circle cx="331" cy="726" fill="#2b92db" r="3.5" stroke-width="0" /><circle cx="310" cy="701" fill="#2b92db" r="3.5" stroke-width="0" /><circle cx="290" cy="677" fill="#2b92db" r="3.5" stroke-width="0" /><circle cx="283" cy="667" fill="#2b92db" r="3.5" stroke-width="0" /><circle cx="299" cy="688" fill="#2b92db" r="3.5" stroke-width="0" /></g><g class="e6"><circle cx="275" cy="656" fill="#911eb4" r="3.5" stroke-width="0" /><circle cx="216" cy="566" fill="#911eb4" r="3.5" stroke-width="0" /><circle cx="226" cy="582" fill="#911eb4" r="3.5" stroke-width="0" /><circle cx="209" cy="553" fill="#911eb4" r="3.5" stroke-width="0" /><circle cx="231" cy="591" fill="#911eb4" r="3.5" stroke-width="0" /><circle cx="227" cy="584" fill="#911eb4" r="3.5" stroke-width="0" /><circle cx="268" cy="647" fill="#911eb4" r="3.5" stroke-width="0" /><circle cx="212" cy="558" fill="#911eb4" r="3.5" stroke-width="0" /></g><g class="e7"><circle cx="195" cy="527" fill="#3cb44B" r="3.5" stroke-width="0" /><circle cx="148" cy="418" fill="#3cb44B" r="3.5" stroke-width="0" /><circle cx="182" cy="500" fill="#3cb44B" r="3.5" stroke-width="0" /><circle cx="146" cy="414" fill="#3cb44B" r="3.5" stroke-width="0" /><circle cx="198" cy="533" fill="#3cb44B" r="3.5" stroke-width="0" /><circle cx="186" cy="508" fill="#3cb44B" r="3.5" stroke-width="0" /></g><g class="e8"><circle cx="122" cy="335" fill="#ff0000" r="3.5" stroke-width="0" /><circle cx="114" cy="302" fill="#ff0000" r="3.5" stroke-width="0" /><circle cx="107" cy="268" fill="#ff0000" r="3.5" stroke-width="0" /><circle cx="131" cy="366" fill="#ff0000" r="3.5" stroke-width="0" /><circle cx="128" cy="358" fill="#ff0000" r="3.5" stroke-width="0" /><circle cx="117" cy="315" fill="#ff0000" r="3.5" stroke-width="0" /><circle cx="115" cy="307" fill="#ff0000" r="3.5" stroke-width="0" /><circle cx="137" cy="388" fill="#ff0000" r="3.5" stroke-width="0" /><circle cx="111" cy="292" fill="#ff0000" r="3.5" stroke-width="0" /><circle cx="104" cy="255" fill="#ff0000" r="3.5" stroke-width="0" /></g><g class="e9"><circle cx="90" cy="112" fill="#2b92db" r="3.5" stroke-width="0" /><circle cx="91" cy="127" fill="#2b92db" r="3.5" stroke-width="0" /><circle cx="94" cy="177" fill="#2b92db" r="3.5" stroke-width="0" /><circle cx="100" cy="228" fill="#2b92db" r="3.5" stroke-width="0" /><circle cx="97" cy="207" fill="#2b92db" r="3.5" stroke-width="0" /><circle cx="92" cy="152" fill="#2b92db" r="3.5" stroke-width="0" /><circle cx="93" cy="170" fill="#2b92db" r="3.5" stroke-width="0" /></g></g></g></svg>