<?xml version="1.0" encoding="utf-8" ?>
<svg baseProfile="full" height="1140px" style="font-size:15;font-family:Arial, san-serif;font-weight:bold;stroke:black;stroke-width:0;fill:#444444" version="1.1" width="1140px" xmlns="http://www.w3.org/2000/svg" xmlns:ev="http://www.w3.org/2001/xml-events" xmlns:xlink="http://www.w3.org/1999/xlink"><defs><clipPath id="areadografico"><rect height="1000" width="1000" x="70" y="70" /></clipPath></defs><g class="master"><g class="poligonos"><polygon clip-path="url(#areadografico)" fill="#000000" fill-opacity="0.1" points="1069,1070 1069,890 889,1070" /><polygon clip-path="url(#areadografico)" fill="#ffffff" fill-opacity="0.1" points="890,1070 708,1070 1069,709 1069,890" /><polygon clip-path="url(#areadografico)" fill="#000000" fill-opacity="0.1" points="709,1070 527,1070 1069,528 1069,709" /><polygon clip-path="url(#areadografico)" fill="#ffffff" fill-opacity="0.1" points="528,1070 346,1070 1069,347 1069,528" /><polygon clip-path="url(#areadografico)" fill="#000000" fill-opacity="0.1" points="347,1070 165,1070 1069,166 1069,347" /><polygon clip-path="url(#areadografico)" fill="#ffffff" fill-opacity="0.1" points="166,1070 -16,1070 1069,-15 1069,166" /><polygon clip-path="url(#areadografico)" fill="#000000" fill-opacity="0.1" points="-15,1070 -197,1070 1069,-196 1069,-15" /><polygon clip-path="url(#areadografico)" fill="#ffffff" fill-opacity="0.1" points="-196,1070 -378,1070 1069,-377 1069,-196" /><polygon clip-path="url(#areadografico)" fill="#000000" fill-opacity="0.1" points="-377,1070 -559,1070 1069,-558 1069,-377" /><polygon clip-path="url(#areadografico)" fill="#ffffff" fill-opacity="0.1" points="-558,1070 -740,1070 1069,-739 1069,-558" /><polygon clip-path="url(#areadografico)" fill="#000000" fill-opacity="0.1" points="70,71 70,260 259,71" /></g><g class="linhas"><line fill-opacity="0.3" stroke="#999999" stroke-width="1" x1="1070" x2="1070" y1="1070" y2="70" /><line fill-opacity="0.3" stroke="#999999" stroke-width="1" x1="70" x2="1070" y1="70" y2="70" /><line fill-opacity="0.3" stroke="#999999" stroke-width="1" x1="970" x2="970" y1="1070" y2="70" /><line fill-opacity="0.3" stroke="#999999" stroke-width="1" x1="70" x2="1070" y1="170" y2="170" /><line fill-opacity="0.3" stroke="#999999" stroke-width="1" x1="870" x2="870" y1="1070" y2="70" /><line fill-opacity="0.3" stroke="#999999" stroke-width="1" x1="70" x2="1070" y1="270" y2="270" /><line fill-opacity="0.3" stroke="#999999" stroke-width="1" x1="770" x2="770" y1="1070" y2="70" /><line fill-opacity="0.3" stroke="#999999" stroke-width="1" x1="70" x2="1070" y1="370" y2="370" /><line fill-opacity="0.3" stroke="#999999" stroke-width="1" x1="670" x2="670" y1="1070" y2="70" /><line fill-opacity="0.3" stroke="#999999" stroke-width="1" x1="70" x2="1070" y1="470" y2="470" /><line fill-opacity="0.3" stroke="#999999" stroke-width="1" x1="570" x2="570" y1="1070" y2="70" /><line fill-opacity="0.3" stroke="#999999" stroke-width="1" x1="70" x2="1070" y1="570" y2="570" /><line fill-opacity="0.3" stroke="#999999" stroke-width="1" x1="470" x2="470" y1="1070" y2="70" /><line fill-opacity="0.3" stroke="#999999" stroke-width="1" x1="70" x2="1070" y1="670" y2="670" /><line fill-opacity="0.3" stroke="#999999" stroke-width="1" x1="370" x2="370" y1="1070" y2="70" /><line fill-opacity="0.3" stroke="#999999" stroke-width="1" x1="70" x2="1070" y1="770" y2="770" /><line fill-opacity="0.3" stroke="#999999" stroke-width="1" x1="270" x2="270" y1="1070" y2="70" /><line fill-opacity="0.3" stroke="#999999" stroke-width="1" x1="70" x2="1070" y1="870" y2="870" /><line fill-opacity="0.3" stroke="#999999" stroke-width="1" x1="170" x2="170" y1="1070" y2="70" /><line fill-opacity="0.3" stroke="#999999" stroke-width="1" x1="70" x2="1070" y1="970" y2="970" /><line fill-opacity="0.3" stroke="#000000" stroke-width="1" x1="70" x2="70" y1="1071" y2="69" /><line fill-opacity="0.3" stroke="#000000" stroke-width="1" x1="69" x2="1071" y1="1070" y2="1070" /></g><g class="textos"><text x="1050" y="1110">1000</text><text x="10" y="71">1000</text><text x="950" y="1110">900</text><text x="10" y="171">900</text><text x="850" y="1110">800</text><text x="10" y="271">800</text><text x="750" y="1110">700</text><text x="10" y="371">700</text><text x="650" y="1110">600</text><text x="10" y="471">600</text><text x="550" y="1110">500</text><text x="10" y="571">500</text><text x="450" y="1110">400</text><text x="10" y="671">400</text><text x="350" y="1110">300</text><text x="10" y="771">300</text><text x="250" y="1110">200</text><text x="10" y="871">200</text><text x="150" y="1110">100</text><text x="10" y="971">100</text><text x="50" y="1111">0</text><text x="9" y="1071">0</text></g><g class="especies"><g class="e0"><circle cx="981" cy="1048" fill="#ff0000" r="3.5" stroke-width="0" /><circle cx="1029" cy="1050" fill="#ff0000" r="3.5" stroke-width="0" /><circle cx="997" cy="1049" fill="#ff0000" r="3.5" stroke-width="0" /><circle cx="965" cy="1046" fill="#ff0000" r="3.5" stroke-width="0" /><circle cx="937" cy="1043" fill="#ff0000" r="3.5" stroke-width="0" /><circle cx="948" cy="1045" fill="#ff0000" r="3.5" stroke-width="0" /><circle cx="973" cy="1047" fill="#ff0000" r="3.5" stroke-width="0" /><circle cx="940" cy="1044" fill="#ff0000" r="3.5" stroke-width="0" /></g><g class="e1"><circle cx="845" cy="1028" fill="#2b92db" r="3.5" stroke-width="0" /><circle cx="820" cy="1022" fill="#2b92db" r="3.5" stroke-width="0" /><circle cx="888" cy="1036" fill="#2b92db" r="3.5" stroke-width="0" /><circle cx="894" cy="1037" fill="#2b92db" r="3.5" stroke-width="0" /><circle cx="849" cy="1029" fill="#2b92db" r="3.5" stroke-width="0" /><circle cx="822" cy="1023" fill="#2b92db" r="3.5" stroke-width="0" /><circle cx="812" cy="1020" fill="#2b92db" r="3.5" stroke-width="0" /><circle cx="817" cy="1021" fill="#2b92db" r="3.5" stroke-width="0" /><circle cx="807" cy="1019" fill="#2b92db" r="3.5" stroke-width="0" /><circle cx="789" cy="1014" fill="#2b92db" r="3.5" stroke-width="0" /><circle cx="906" cy="1039" fill="#2b92db" r="3.5" stroke-width="0" /><circle cx="782" cy="1012" fill="#2b92db" r="3.5" stroke-width="0" /><circle cx="914" cy="1040" fill="#2b92db" r="3.5" stroke-width="0" /><circle cx="853" cy="1030" fill="#2b92db" r="3.5" stroke-width="0" /><circle cx="875" cy="1034" fill="#2b92db" r="3.5" stroke-width="0" /><circle cx="785" cy="1013" fill="#2b92db" r="3.5" stroke-width="0" /><circle cx="866" cy="1032" fill="#2b92db" r="3.5" stroke-width="0" /><circle cx="841" cy="1027" fill="#2b92db" r="3.5" stroke-width="0" /><circle cx="881" cy="1035" fill="#2b92db" r="3.5" stroke-width="0" /><circle cx="831" cy="1025" fill="#2b92db" r="3.5" stroke-width="0" /><circle cx="797" cy="1016" fill="#2b92db" r="3.5" stroke-width="0" /><circle cx="901" cy="1038" fill="#2b92db" r="3.5" stroke-width="0" /><circle cx="772" cy="1009" fill="#2b92db" r="3.5" stroke-width="0" /><circle cx="871" cy="1033" fill="#2b92db" r="3.5" stroke-width="0" /><circle cx="792" cy="1015" fill="#2b92db" r="3.5" stroke-width="0" /></g><g class="e2"><circle cx="687" cy="979" fill="#911eb4" r="3.5" stroke-width="0" /><circle cx="757" cy="1004" fill="#911eb4" r="3.5" stroke-width="0" /><circle cx="739" cy="998" fill="#911eb4" r="3.5" stroke-width="0" /><circle cx="698" cy="983" fill="#911eb4" r="3.5" stroke-width="0" /><circle cx="705" cy="986" fill="#911eb4" r="3.5" stroke-width="0" /><circle cx="674" cy="973" fill="#911eb4" r="3.5" stroke-width="0" /><circle cx="769" cy="1008" fill="#911eb4" r="3.5" stroke-width="0" /><circle cx="675" cy="974" fill="#911eb4" r="3.5" stroke-width="0" /><circle cx="670" cy="972" fill="#911eb4" r="3.5" stroke-width="0" /><circle cx="704" cy="985" fill="#911eb4" r="3.5" stroke-width="0" /><circle cx="750" cy="1002" fill="#911eb4" r="3.5" stroke-width="0" /><circle cx="714" cy="989" fill="#911eb4" r="3.5" stroke-width="0" /><circle cx="694" cy="982" fill="#911eb4" r="3.5" stroke-width="0" /><circle cx="734" cy="997" fill="#911eb4" r="3.5" stroke-width="0" /><circle cx="760" cy="1005" fill="#911eb4" r="3.5" stroke-width="0" /><circle cx="720" cy="991" fill="#911eb4" r="3.5" stroke-width="0" /><circle cx="684" cy="977" fill="#911eb4" r="3.5" stroke-width="0" /><circle cx="721" cy="992" fill="#911eb4" r="3.5" stroke-width="0" /><circle cx="765" cy="1007" fill="#911eb4" r="3.5" stroke-width="0" /><circle cx="643" cy="959" fill="#911eb4" r="3.5" stroke-width="0" /><circle cx="731" cy="995" fill="#911eb4" r="3.5" stroke-width="0" /><circle cx="639" cy="958" fill="#911eb4" r="3.5" stroke-width="0" /><circle cx="748" cy="1001" fill="#911eb4" r="3.5" stroke-width="0" /><circle cx="754" cy="1003" fill="#911eb4" r="3.5" stroke-width="0" /><circle cx="710" cy="988" fill="#911eb4" r="3.5" stroke-width="0" /><circle cx="744" cy="1000" fill="#911eb4" r="3.5" stroke-width="0" /><circle cx="742" cy="999" fill="#911eb4" r="3.5" stroke-width="0" /></g><g class="e3"><circle cx="578" cy="926" fill="#3cb44B" r="3.5" stroke-width="0" /><circle cx="570" cy="921" fill="#3cb44B" r="3.5" stroke-width="0" /><circle cx="555" cy="913" fill="#3cb44B" r="3.5" stroke-width="0" /><circle cx="524" cy="893" fill="#3cb44B" r="3.5" stroke-width="0" /><circle cx="561" cy="916" fill="#3cb44B" r="3.5" stroke-width="0" /><circle cx="635" cy="956" fill="#3cb44B" r="3.5" stroke-width="0" /><circle cx="593" cy="934" fill="#3cb44B" r="3.5" stroke-width="0" /><circle cx="598" cy="937" fill="#3cb44B" r="3.5" stroke-width="0" /><circle cx="528" cy="896" fill="#3cb44B" r="3.5" stroke-width="0" /><circle cx="562" cy="917" fill="#3cb44B" r="3.5" stroke-width="0" /><circle cx="574" cy="924" fill="#3cb44B" r="3.5" stroke-width="0" /><circle cx="597" cy="936" fill="#3cb44B" r="3.5" stroke-width="0" /><circle cx="602" cy="939" fill="#3cb44B" r="3.5" stroke-width="0" /><circle cx="610" cy="943" fill="#3cb44B" r="3.5" stroke-width="0" /><circle cx="629" cy="953" fill="#3cb44B" r="3.5" stroke-width="0" /><circle cx="544" cy="906" fill="#3cb44B" r="3.5" stroke-width="0" /><circle cx="530" cy="897" fill="#3cb44B" r="3.5" stroke-width="0" /><circle cx="619" cy="948" fill="#3cb44B" r="3.5" stroke-width="0" /><circle cx="627" cy="952" fill="#3cb44B" r="3.5" stroke-width="0" /><circle cx="579" cy="927" fill="#3cb44B" r="3.5" stroke-width="0" /><circle cx="543" cy="905" fill="#3cb44B" r="3.5" stroke-width="0" /><circle cx="584" cy="929" fill="#3cb44B" r="3.5" stroke-width="0" /><circle cx="533" cy="899" fill="#3cb44B" r="3.5" stroke-width="0" /><circle cx="608" cy="942" fill="#3cb44B" r="3.5" stroke-width="0" /><circle cx="581" cy="928" fill="#3cb44B" r="3.5" stroke-width="0" /><circle cx="618" cy="947" fill="#3cb44B" r="3.5" stroke-width="0" /><circle cx="585" cy="930" fill="#3cb44B" r="3.5" stroke-width="0" /><circle cx="634" cy="955" fill="#3cb44B" r="3.5" stroke-width="0" /><circle cx="531" cy="898" fill="#3cb44B" r="3.5" stroke-width="0" /><circle cx="605" cy="941" fill="#3cb44B" r="3.5" stroke-width="0" /><circle cx="571" cy="922" fill="#3cb44B" r="3.5" stroke-width="0" /><circle cx="553" cy="911" fill="#3cb44B" r="3.5" stroke-width="0" /><circle cx="549" cy="909" fill="#3cb44B" r="3.5" stroke-width="0" /><circle cx="548" cy="908" fill="#3cb44B" r="3.5" stroke-width="0" /><circle cx="568" cy="920" fill="#3cb44B" r="3.5" stroke-width="0" /></g><g class="e4"><circle cx="468" cy="853" fill="#ff0000" r="3.5" stroke-width="0" /><circle cx="501" cy="878" fill="#ff0000" r="3.5" stroke-width="0" /><circle cx="522" cy="892" fill="#ff0000" r="3.5" stroke-width="0" /><circle cx="480" cy="862" fill="#ff0000" r="3.5" stroke-width="0" /><circle cx="456" cy="844" fill="#ff0000" r="3.5" stroke-width="0" /><circle cx="421" cy="815" fill="#ff0000" r="3.5" stroke-width="0" /><circle cx="432" cy="825" fill="#ff0000" r="3.5" stroke-width="0" /><circle cx="434" cy="826" fill="#ff0000" r="3.5" stroke-width="0" /><circle cx="503" cy="879" fill="#ff0000" r="3.5" stroke-width="0" /><circle cx="431" cy="824" fill="#ff0000" r="3.5" stroke-width="0" /><circle cx="461" cy="848" fill="#ff0000" r="3.5" stroke-width="0" /><circle cx="510" cy="884" fill="#ff0000" r="3.5" stroke-width="0" /><circle cx="487" cy="868" fill="#ff0000" r="3.5" stroke-width="0" /><circle cx="441" cy="832" fill="#ff0000" r="3.5" stroke-width="0" /><circle cx="453" cy="842" fill="#ff0000" r="3.5" stroke-width="0" /><circle cx="464" cy="850" fill="#ff0000" r="3.5" stroke-width="0" /><circle cx="506" cy="881" fill="#ff0000" r="3.5" stroke-width="0" /><circle cx="499" cy="876" fill="#ff0000" r="3.5" stroke-width="0" /><circle cx="521" cy="891" fill="#ff0000" r="3.5" stroke-width="0" /><circle cx="484" cy="865" fill="#ff0000" r="3.5" stroke-width="0" /><circle cx="443" cy="834" fill="#ff0000" r="3.5" stroke-width="0" /></g><g class="e5"><circle cx="357" cy="754" fill="#2b92db" r="3.5" stroke-width="0" /><circle cx="355" cy="752" fill="#2b92db" r="3.5" stroke-width="0" /><circle cx="382" cy="779" fill="#2b92db" r="3.5" stroke-width="0" /><circle cx="402" cy="798" fill="#2b92db" r="3.5" stroke-width="0" /><circle cx="332" cy="727" fill="#2b92db" r="3.5" stroke-width="0" /><circle cx="420" cy="814" fill="#2b92db" r="3.5" stroke-width="0" /><circle cx="400" cy="796" fill="#2b92db" r="3.5" stroke-width="0" /><circle cx="419" cy="813" fill="#2b92db" r="3.5" stroke-width="0" /><circle cx="409" cy="805" fill="#2b92db" r="3.5" stroke-width="0" /><circle cx="374" cy="772" fill="#2b92db" r="3.5" stroke-width="0" /><circle cx="411" cy="806" fill="#2b92db" r="3.5" stroke-width="0" /><circle cx="362" cy="760" fill="#2b92db" r="3.5" stroke-width="0" /><circle cx="360" cy="757" fill="#2b92db" r="3.5" stroke-width="0" /><circle cx="417" cy="812" fill="#2b92db" r="3.5" stroke-width="0" /><circle cx="414" cy="809" fill="#2b92db" r="3.5" stroke-width="0" /><circle cx="341" cy="737" fill="#2b92db" r="3.5" stroke-width="0" /><circle cx="405" cy="801" fill="#2b92db" r="3.5" stroke-width="0" /><circle cx="379" cy="777" fill="#2b92db" r="3.5" stroke-width="0" /><circle cx="335" cy="731" fill="#2b92db" r="3.5" stroke-width="0" /><circle cx="395" cy="792" fill="#2b92db" r="3.5" stroke-width="0" /><circle cx="346" cy="743" fill="#2b92db" r="3.5" stroke-width="0" /><circle cx="416" cy="811" fill="#2b92db" r="3.5" stroke-width="0" /><circle cx="344" cy="740" fill="#2b92db" r="3.5" stroke-width="0" /><circle cx="350" cy="747" fill="#2b92db" r="3.5" stroke-width="0" /><circle cx="384" cy="781" fill="#2b92db" r="3.5" stroke-width="0" /><circle cx="412" cy="807" fill="#2b92db" r="3.5" stroke-width="0" /><circle cx="398" cy="795" fill="#2b92db" r="3.5" stroke-width="0" /><circle cx="378" cy="776" fill="#2b92db" r="3.5" stroke-width="0" /><circle cx="375" cy="773" fill="#2b92db" r="3.5" stroke-width="0" /></g><g class="e6"><circle cx="279" cy="662" fill="#911eb4" r="3.5" stroke-width="0" /><circle cx="254" cy="627" fill="#911eb4" r="3.5" stroke-width="0" /><circle cx="284" cy="668" fill="#911eb4" r="3.5" stroke-width="0" /><circle cx="271" cy="651" fill="#911eb4" r="3.5" stroke-width="0" /><circle cx="282" cy="666" fill="#911eb4" r="3.5" stroke-width="0" /><circle cx="298" cy="687" fill="#911eb4" r="3.5" stroke-width="0" /><circle cx="276" cy="658" fill="#911eb4" r="3.5" stroke-width="0" /><circle cx="275" cy="656" fill="#911eb4" r="3.5" stroke-width="0" /><circle cx="290" cy="676" fill="#911eb4" r="3.5" stroke-width="0" /><circle cx="277" cy="659" fill="#911eb4" r="3.5" stroke-width="0" /><circle cx="315" cy="708" fill="#911eb4" r="3.5" stroke-width="0" /><circle cx="264" cy="641" fill="#911eb4" r="3.5" stroke-width="0" /><circle cx="302" cy="692" fill="#911eb4" r="3.5" stroke-width="0" /><circle cx="287" cy="672" fill="#911eb4" r="3.5" stroke-width="0" /><circle cx="278" cy="661" fill="#911eb4" r="3.5" stroke-width="0" /><circle cx="253" cy="625" fill="#911eb4" r="3.5" stroke-width="0" /><circle cx="323" cy="717" fill="#911eb4" r="3.5" stroke-width="0" /><circle cx="310" cy="701" fill="#911eb4" r="3.5" stroke-width="0" /><circle cx="318" cy="711" fill="#911eb4" r="3.5" stroke-width="0" /><circle cx="255" cy="628" fill="#911eb4" r="3.5" stroke-width="0" /><circle cx="327" cy="722" fill="#911eb4" r="3.5" stroke-width="0" /><circle cx="293" cy="680" fill="#911eb4" r="3.5" stroke-width="0" /><circle cx="309" cy="700" fill="#911eb4" r="3.5" stroke-width="0" /><circle cx="301" cy="691" fill="#911eb4" r="3.5" stroke-width="0" /><circle cx="286" cy="671" fill="#911eb4" r="3.5" stroke-width="0" /><circle cx="316" cy="709" fill="#911eb4" r="3.5" stroke-width="0" /><circle cx="317" cy="710" fill="#911eb4" r="3.5" stroke-width="0" /><circle cx="252" cy="624" fill="#911eb4" r="3.5" stroke-width="0" /><circle cx="300" cy="689" fill="#911eb4" r="3.5" stroke-width="0" /><circle cx="320" cy="714" fill="#911eb4" r="3.5" stroke-width="0" /></g><g class="e7"><circle cx="196" cy="529" fill="#3cb44B" r="3.5" stroke-width="0" /><circle cx="239" cy="604" fill="#3cb44B" r="3.5" stroke-width="0" /><circle cx="206" cy="548" fill="#3cb44B" r="3.5" stroke-width="0" /><circle cx="237" cy="600" fill="#3cb44B" r="3.5" stroke-width="0" /><circle cx="191" cy="519" fill="#3cb44B" r="3.5" stroke-width="0" /><circle cx="208" cy="552" fill="#3cb44B" r="3.5" stroke-width="0" /><circle cx="229" cy="588" fill="#3cb44B" r="3.5" stroke-width="0" /><circle cx="223" cy="577" fill="#3cb44B" r="3.5" stroke-width="0" /><circle cx="195" cy="527" fill="#3cb44B" r="3.5" stroke-width="0" /><circle cx="217" cy="567" fill="#3cb44B" r="3.5" stroke-width="0" /><circle cx="213" cy="560" fill="#3cb44B" r="3.5" stroke-width="0" /><circle cx="199" cy="534" fill="#3cb44B" r="3.5" stroke-width="0" /><circle cx="232" cy="593" fill="#3cb44B" r="3.5" stroke-width="0" /><circle cx="219" cy="571" fill="#3cb44B" r="3.5" stroke-width="0" /><circle cx="200" cy="536" fill="#3cb44B" r="3.5" stroke-width="0" /><circle cx="211" cy="556" fill="#3cb44B" r="3.5" stroke-width="0" /><circle cx="226" cy="582" fill="#3cb44B" r="3.5" stroke-width="0" /><circle cx="197" cy="530" fill="#3cb44B" r="3.5" stroke-width="0" /><circle cx="222" cy="575" fill="#3cb44B" r="3.5" stroke-width="0" /><circle cx="216" cy="566" fill="#3cb44B" r="3.5" stroke-width="0" /><circle cx="221" cy="574" fill="#3cb44B" r="3.5" stroke-width="0" /><circle cx="201" cy="538" fill="#3cb44B" r="3.5" stroke-width="0" /><circle cx="203" cy="541" fill="#3cb44B" r="3.5" stroke-width="0" /><circle cx="248" cy="617" fill="#3cb44B" r="3.5" stroke-width="0" /><circle cx="220" cy="573" fill="#3cb44B" r="3.5" stroke-width="0" /><circle cx="230" cy="590" fill="#3cb44B" r="3.5" stroke-width="0" /><circle cx="247" cy="616" fill="#3cb44B" r="3.5" stroke-width="0" /><circle cx="193" cy="523" fill="#3cb44B" r="3.5" stroke-width="0" /><circle cx="249" cy="619" fill="#3cb44B" r="3.5" stroke-width="0" /><circle cx="245" cy="613" fill="#3cb44B" r="3.5" stroke-width="0" /><circle cx="210" cy="554" fill="#3cb44B" r="3.5" stroke-width="0" /><circle cx="188" cy="513" fill="#3cb44B" r="3.5" stroke-width="0" /><circle cx="234" cy="595" fill="#3cb44B" r="3.5" stroke-width="0" /><circle cx="228" cy="586" fill="#3cb44B" r="3.5" stroke-width="0" /></g><g class="e8"><circle cx="146" cy="414" fill="#ff0000" r="3.5" stroke-width="0" /><circle cx="166" cy="464" fill="#ff0000" r="3.5" stroke-width="0" /><circle cx="176" cy="487" fill="#ff0000" r="3.5" stroke-width="0" /><circle cx="162" cy="454" fill="#ff0000" r="3.5" stroke-width="0" /><circle cx="169" cy="471" fill="#ff0000" r="3.5" stroke-width="0" /><circle cx="150" cy="423" fill="#ff0000" r="3.5" stroke-width="0" /><circle cx="137" cy="388" fill="#ff0000" r="3.5" stroke-width="0" /><circle cx="175" cy="485" fill="#ff0000" r="3.5" stroke-width="0" /><circle cx="156" cy="439" fill="#ff0000" r="3.5" stroke-width="0" /><circle cx="143" cy="405" fill="#ff0000" r="3.5" stroke-width="0" /><circle cx="151" cy="427" fill="#ff0000" r="3.5" stroke-width="0" /><circle cx="155" cy="436" fill="#ff0000" r="3.5" stroke-width="0" /><circle cx="183" cy="502" fill="#ff0000" r="3.5" stroke-width="0" /><circle cx="181" cy="498" fill="#ff0000" r="3.5" stroke-width="0" /><circle cx="157" cy="442" fill="#ff0000" r="3.5" stroke-width="0" /><circle cx="164" cy="460" fill="#ff0000" r="3.5" stroke-width="0" /><circle cx="185" cy="506" fill="#ff0000" r="3.5" stroke-width="0" /><circle cx="140" cy="397" fill="#ff0000" r="3.5" stroke-width="0" /><circle cx="177" cy="489" fill="#ff0000" r="3.5" stroke-width="0" /><circle cx="138" cy="390" fill="#ff0000" r="3.5" stroke-width="0" /><circle cx="135" cy="382" fill="#ff0000" r="3.5" stroke-width="0" /><circle cx="159" cy="448" fill="#ff0000" r="3.5" stroke-width="0" /><circle cx="167" cy="466" fill="#ff0000" r="3.5" stroke-width="0" /><circle cx="170" cy="473" fill="#ff0000" r="3.5" stroke-width="0" /><circle cx="180" cy="495" fill="#ff0000" r="3.5" stroke-width="0" /><circle cx="152" cy="429" fill="#ff0000" r="3.5" stroke-width="0" /><circle cx="154" cy="434" fill="#ff0000" r="3.5" stroke-width="0" /><circle cx="145" cy="409" fill="#ff0000" r="3.5" stroke-width="0" /></g><g class="e9"><circle cx="131" cy="368" fill="#2b92db" r="3.5" stroke-width="0" /><circle cx="108" cy="274" fill="#2b92db" r="3.5" stroke-width="0" /><circle cx="117" cy="316" fill="#2b92db" r="3.5" stroke-width="0" /><circle cx="109" cy="282" fill="#2b92db" r="3.5" stroke-width="0" /><circle cx="128" cy="358" fill="#2b92db" r="3.5" stroke-width="0" /><circle cx="127" cy="355" fill="#2b92db" r="3.5" stroke-width="0" /><circle cx="101" cy="232" fill="#2b92db" r="3.5" stroke-width="0" /><circle cx="132" cy="370" fill="#2b92db" r="3.5" stroke-width="0" /><circle cx="115" cy="307" fill="#2b92db" r="3.5" stroke-width="0" /><circle cx="113" cy="298" fill="#2b92db" r="3.5" stroke-width="0" /><circle cx="119" cy="325" fill="#2b92db" r="3.5" stroke-width="0" /><circle cx="130" cy="363" fill="#2b92db" r="3.5" stroke-width="0" /><circle cx="104" cy="253" fill="#2b92db" r="3.5" stroke-width="0" /><circle cx="134" cy="376" fill="#2b92db" r="3.5" stroke-width="0" /><circle cx="105" cy="259" fill="#2b92db" r="3.5" stroke-width="0" /><circle cx="107" cy="270" fill="#2b92db" r="3.5" stroke-width="0" /><circle cx="116" cy="312" fill="#2b92db" r="3.5" stroke-width="0" /><circle cx="123" cy="338" fill="#2b92db" r="3.5" stroke-width="0" /><circle cx="110" cy="284" fill="#2b92db" r="3.5" stroke-width="0" /><circle cx="122" cy="335" fill="#2b92db" r="3.5" stroke-width="0" /><circle cx="114" cy="302" fill="#2b92db" r="3.5" stroke-width="0" /><circle cx="103" cy="250" fill="#2b92db" r="3.5" stroke-width="0" /><circle cx="112" cy="293" fill="#2b92db" r="3.5" stroke-width="0" /><circle cx="125" cy="347" fill="#2b92db" r="3.5" stroke-width="0" /><circle cx="111" cy="290" fill="#2b92db" r="3.5" stroke-width="0" /><circle cx="129" cy="360" fill="#2b92db" r="3.5" stroke-width="0" /><circle cx="106" cy="266" fill="#2b92db" r="3.5" stroke-width="0" /></g><g class="e10"><circle cx="92" cy="154" fill="#911eb4" r="3.5" stroke-width="0" /><circle cx="99" cy="221" fill="#911eb4" r="3.5" stroke-width="0" /><circle cx="91" cy="131" fill="#911eb4" r="3.5" stroke-width="0" /><circle cx="97" cy="205" fill="#911eb4" r="3.5" stroke-width="0" /><circle cx="96" cy="196" fill="#911eb4" r="3.5" stroke-width="0" /><circle cx="100" cy="229" fill="#911eb4" r="3.5" stroke-width="0" /><circle cx="90" cy="113" fill="#911eb4" r="3.5" stroke-width="0" /><circle cx="94" cy="177" fill="#911eb4" r="3.5" stroke-width="0" /><circle cx="98" cy="213" fill="#911eb4" r="3.5" stroke-width="0" /><circle cx="93" cy="169" fill="#911eb4" r="3.5" stroke-width="0" /><circle cx="95" cy="185" fill="#911eb4" r="3.5" stroke-width="0" /></g></g></g></svg>