<?xml version="1.0" encoding="utf-8" ?>
<svg baseProfile="full" height="1140px" style="font-size:15;font-family:Arial, san-serif;font-weight:bold;stroke:black;stroke-width:0;fill:#444444" version="1.1" width="1140px" xmlns="http://www.w3.org/2000/svg" xmlns:ev="http://www.w3.org/2001/xml-events" xmlns:xlink="http://www.w3.org/1999/xlink"><defs><clipPath id="areadografico"><rect height="1000" width="1000" x="70" y="70" /></clipPath></defs><g class="master"><g class="poligonos"><polygon clip-path="url(#areadografico)" fill="#000000" fill-opacity="0.1" points="1069,1070 1069,405 404,1070" /><polygon clip-path="url(#areadografico)" fill="#ffffff" fill-opacity="0.1" points="405,1070 -262,1070 1069,-261 1069,405" /><polygon clip-path="url(#areadografico)" fill="#000000" fill-opacity="0.1" points="70,71 70,738 737,71" /></g><g class="linhas"><line fill-opacity="0.3" stroke="#999999" stroke-width="1" x1="1070" x2="1070" y1="1070" y2="70" /><line fill-opacity="0.3" stroke="#999999" stroke-width="1" x1="70" x2="1070" y1="70" y2="70" /><line fill-opacity="0.3" stroke="#999999" stroke-width="1" x1="970" x2="970" y1="1070" y2="70" /><line fill-opacity="0.3" stroke="#999999" stroke-width="1" x1="70" x2="1070" y1="170" y2="170" /><line fill-opacity="0.3" stroke="#999999" stroke-width="1" x1="870" x2="870" y1="1070" y2="70" /><line fill-opacity="0.3" stroke="#999999" stroke-width="1" x1="70" x2="1070" y1="270" y2="270" /><line fill-opacity="0.3" stroke="#999999" stroke-width="1" x1="770" x2="770" y1="1070" y2="70" /><line fill-opacity="0.3" stroke="#999999" stroke-width="1" x1="70" x2="1070" y1="370" y2="370" /><line fill-opacity="0.3" stroke="#999999" stroke-width="1" x1="670" x2="670" y1="1070" y2="70" /><line fill-opacity="0.3" stroke="#999999" stroke-width="1" x1="70" x2="1070" y1="470" y2="470" /><line fill-opacity="0.3" stroke="#999999" stroke-width="1" x1="570" x2="570" y1="1070" y2="70" /><line fill-opacity="0.3" stroke="#999999" stroke-width="1" x1="70" x2="1070" y1="570" y2="570" /><line fill-opacity="0.3" stroke="#999999" stroke-width="1" x1="470" x2="470" y1="1070" y2="70" /><line fill-opacity="0.3" stroke="#999999" stroke-width="1" x1="70" x2="1070" y1="670" y2="670" /><line fill-opacity="0.3" stroke="#999999" stroke-width="1" x1="370" x2="370" y1="1070" y2="70" /><line fill-opacity="0.3" stroke="#999999" stroke-width="1" x1="70" x2="1070" y1="770" y2="770" /><line fill-opacity="0.3" stroke="#999999" stroke-width="1" x1="270" x2="270" y1="1070" y2="70" /><line fill-opacity="0.3" stroke="#999999" stroke-width="1" x1="70" x2="1070" y1="870" y2="870" /><line fill-opacity="0.3" stroke="#999999" stroke-width="1" x1="170" x2="170" y1="1070" y2="70" /><line fill-opacity="0.3" stroke="#999999" stroke-width="1" x1="70" x2="1070" y1="970" y2="970" /><line fill-opacity="0.3" stroke="#000000" stroke-width="1" x1="70" x2="70" y1="1071" y2="69" /><line fill-opacity="0.3" stroke="#000000" stroke-width="1" x1="69" x2="1071" y1="1070" y2="1070" /></g><g class="textos"><text x="1050" y="1110">1000</text><text x="10" y="71">1000</text><text x="950" y="1110">900</text><text x="10" y="171">900</text><text x="850" y="1110">800</text><text x="10" y="271">800</text><text x="750" y="1110">700</text><text x="10" y="371">700</text><text x="650" y="1110">600</text><text x="10" y="471">600</text><text x="550" y="1110">500</text><text x="10" y="571">500</text><text x="450" y="1110">400</text><text x="10" y="671">400</text><text x="350" y="1110">300</text><text x="10" y="771">300</text><text x="250" y="1110">200</text><text x="10" y="871">200</text><text x="150" y="1110">100</text><text x="10" y="971">100</text><text x="50" y="1111">0</text><text x="9" y="1071">0</text></g><g class="especies"><g class="e0"><circle cx="833" cy="1025" fill="#ff0000" r="3.5" stroke-width="0" /><circle cx="753" cy="1003" fill="#ff0000" r="3.5" stroke-width="0" /><circle cx="577" cy="925" fill="#ff0000" r="3.5" stroke-width="0" /><circle cx="631" cy="954" fill="#ff0000" r="3.5" stroke-width="0" /><circle cx="933" cy="1043" fill="#ff0000" r="3.5" stroke-width="0" /><circle cx="651" cy="963" fill="#ff0000" r="3.5" stroke-width="0" /><circle cx="643" cy="959" fill="#ff0000" r="3.5" stroke-width="0" /><circle cx="768" cy="1008" fill="#ff0000" r="3.5" stroke-width="0" /><circle cx="635" cy="956" fill="#ff0000" r="3.5" stroke-width="0" /><circle cx="1005" cy="1049" fill="#ff0000" r="3.5" stroke-width="0" /><circle cx="582" cy="928" fill="#ff0000" r="3.5" stroke-width="0" /><circle cx="562" cy="917" fill="#ff0000" r="3.5" stroke-width="0" /><circle cx="782" cy="1012" fill="#ff0000" r="3.5" stroke-width="0" /><circle cx="615" cy="946" fill="#ff0000" r="3.5" stroke-width="0" /><circle cx="633" cy="955" fill="#ff0000" r="3.5" stroke-width="0" /><circle cx="570" cy="921" fill="#ff0000" r="3.5" stroke-width="0" /><circle cx="727" cy="994" fill="#ff0000" r="3.5" stroke-width="0" /><circle cx="958" cy="1046" fill="#ff0000" r="3.5" stroke-width="0" /><circle cx="830" cy="1024" fill="#ff0000" r="3.5" stroke-width="0" /><circle cx="572" cy="923" fill="#ff0000" r="3.5" stroke-width="0" /><circle cx="956" cy="1045" fill="#ff0000" r="3.5" stroke-width="0" /><circle cx="669" cy="971" fill="#ff0000" r="3.5" stroke-width="0" /><circle cx="621" cy="949" fill="#ff0000" r="3.5" stroke-width="0" /><circle cx="670" cy="972" fill="#ff0000" r="3.5" stroke-width="0" /><circle cx="990" cy="1048" fill="#ff0000" r="3.5" stroke-width="0" /><circle cx="875" cy="1034" fill="#ff0000" r="3.5" stroke-width="0" /><circle cx="774" cy="1009" fill="#ff0000" r="3.5" stroke-width="0" /><circle cx="1046" cy="1050" fill="#ff0000" r="3.5" stroke-width="0" /><circle cx="612" cy="944" fill="#ff0000" r="3.5" stroke-width="0" /><circle cx="744" cy="1000" fill="#ff0000" r="3.5" stroke-width="0" /><circle cx="915" cy="1040" fill="#ff0000" r="3.5" stroke-width="0" /><circle cx="709" cy="987" fill="#ff0000" r="3.5" stroke-width="0" /><circle cx="698" cy="983" fill="#ff0000" r="3.5" stroke-width="0" /><circle cx="741" cy="999" fill="#ff0000" r="3.5" stroke-width="0" /><circle cx="807" cy="1019" fill="#ff0000" r="3.5" stroke-width="0" /><circle cx="738" cy="998" fill="#ff0000" r="3.5" stroke-width="0" /><circle cx="584" cy="929" fill="#ff0000" r="3.5" stroke-width="0" /><circle cx="617" cy="947" fill="#ff0000" r="3.5" stroke-width="0" /><circle cx="918" cy="1041" fill="#ff0000" r="3.5" stroke-width="0" /><circle cx="608" cy="942" fill="#ff0000" r="3.5" stroke-width="0" /><circle cx="560" cy="916" fill="#ff0000" r="3.5" stroke-width="0" /><circle cx="571" cy="922" fill="#ff0000" r="3.5" stroke-width="0" /><circle cx="628" cy="952" fill="#ff0000" r="3.5" stroke-width="0" /><circle cx="886" cy="1036" fill="#ff0000" r="3.5" stroke-width="0" /><circle cx="587" cy="931" fill="#ff0000" r="3.5" stroke-width="0" /><circle cx="609" cy="943" fill="#ff0000" r="3.5" stroke-width="0" /><circle cx="856" cy="1030" fill="#ff0000" r="3.5" stroke-width="0" /><circle cx="721" cy="992" fill="#ff0000" r="3.5" stroke-width="0" /><circle cx="802" cy="1017" fill="#ff0000" r="3.5" stroke-width="0" /><circle cx="813" cy="1020" fill="#ff0000" r="3.5" stroke-width="0" /><circle cx="734" cy="997" fill="#ff0000" r="3.5" stroke-width="0" /><circle cx="893" cy="1037" fill="#ff0000" r="3.5" stroke-width="0" /><circle cx="654" cy="965" fill="#ff0000" r="3.5" stroke-width="0" /><circle cx="702" cy="985" fill="#ff0000" r="3.5" stroke-width="0" /><circle cx="696" cy="982" fill="#ff0000" r="3.5" stroke-width="0" /><circle cx="733" cy="996" fill="#ff0000" r="3.5" stroke-width="0" /><circle cx="794" cy="1015" fill="#ff0000" r="3.5" stroke-width="0" /><circle cx="602" cy="939" fill="#ff0000" r="3.5" stroke-width="0" /></g><g class="e1"><circle cx="381" cy="779" fill="#2b92db" r="3.5" stroke-width="0" /><circle cx="557" cy="914" fill="#2b92db" r="3.5" stroke-width="0" /><circle cx="278" cy="660" fill="#2b92db" r="3.5" stroke-width="0" /><circle cx="472" cy="856" fill="#2b92db" r="3.5" stroke-width="0" /><circle cx="314" cy="706" fill="#2b92db" r="3.5" stroke-width="0" /><circle cx="231" cy="591" fill="#2b92db" r="3.5" stroke-width="0" /><circle cx="434" cy="826" fill="#2b92db" r="3.5" stroke-width="0" /><circle cx="258" cy="632" fill="#2b92db" r="3.5" stroke-width="0" /><circle cx="293" cy="681" fill="#2b92db" r="3.5" stroke-width="0" /><circle cx="252" cy="624" fill="#2b92db" r="3.5" stroke-width="0" /><circle cx="490" cy="870" fill="#2b92db" r="3.5" stroke-width="0" /><circle cx="464" cy="850" fill="#2b92db" r="3.5" stroke-width="0" /><circle cx="426" cy="820" fill="#2b92db" r="3.5" stroke-width="0" /><circle cx="290" cy="676" fill="#2b92db" r="3.5" stroke-width="0" /><circle cx="389" cy="786" fill="#2b92db" r="3.5" stroke-width="0" /><circle cx="509" cy="883" fill="#2b92db" r="3.5" stroke-width="0" /><circle cx="296" cy="684" fill="#2b92db" r="3.5" stroke-width="0" /><circle cx="316" cy="709" fill="#2b92db" r="3.5" stroke-width="0" /><circle cx="481" cy="863" fill="#2b92db" r="3.5" stroke-width="0" /><circle cx="549" cy="909" fill="#2b92db" r="3.5" stroke-width="0" /><circle cx="345" cy="742" fill="#2b92db" r="3.5" stroke-width="0" /><circle cx="306" cy="697" fill="#2b92db" r="3.5" stroke-width="0" /><circle cx="272" cy="653" fill="#2b92db" r="3.5" stroke-width="0" /><circle cx="443" cy="834" fill="#2b92db" r="3.5" stroke-width="0" /><circle cx="478" cy="861" fill="#2b92db" r="3.5" stroke-width="0" /><circle cx="242" cy="609" fill="#2b92db" r="3.5" stroke-width="0" /><circle cx="395" cy="792" fill="#2b92db" r="3.5" stroke-width="0" /><circle cx="315" cy="708" fill="#2b92db" r="3.5" stroke-width="0" /><circle cx="292" cy="679" fill="#2b92db" r="3.5" stroke-width="0" /><circle cx="505" cy="880" fill="#2b92db" r="3.5" stroke-width="0" /><circle cx="301" cy="690" fill="#2b92db" r="3.5" stroke-width="0" /><circle cx="269" cy="648" fill="#2b92db" r="3.5" stroke-width="0" /><circle cx="320" cy="714" fill="#2b92db" r="3.5" stroke-width="0" /><circle cx="522" cy="892" fill="#2b92db" r="3.5" stroke-width="0" /><circle cx="387" cy="784" fill="#2b92db" r="3.5" stroke-width="0" /><circle cx="294" cy="682" fill="#2b92db" r="3.5" stroke-width="0" /><circle cx="351" cy="748" fill="#2b92db" r="3.5" stroke-width="0" /><circle cx="430" cy="823" fill="#2b92db" r="3.5" stroke-width="0" /><circle cx="354" cy="751" fill="#2b92db" r="3.5" stroke-width="0" /><circle cx="283" cy="667" fill="#2b92db" r="3.5" stroke-width="0" /><circle cx="506" cy="881" fill="#2b92db" r="3.5" stroke-width="0" /><circle cx="236" cy="599" fill="#2b92db" r="3.5" stroke-width="0" /><circle cx="248" cy="617" fill="#2b92db" r="3.5" stroke-width="0" /><circle cx="317" cy="710" fill="#2b92db" r="3.5" stroke-width="0" /><circle cx="281" cy="665" fill="#2b92db" r="3.5" stroke-width="0" /><circle cx="385" cy="782" fill="#2b92db" r="3.5" stroke-width="0" /><circle cx="540" cy="903" fill="#2b92db" r="3.5" stroke-width="0" /><circle cx="412" cy="807" fill="#2b92db" r="3.5" stroke-width="0" /><circle cx="553" cy="911" fill="#2b92db" r="3.5" stroke-width="0" /><circle cx="261" cy="637" fill="#2b92db" r="3.5" stroke-width="0" /></g><g class="e2"><circle cx="99" cy="223" fill="#911eb4" r="3.5" stroke-width="0" /><circle cx="91" cy="136" fill="#911eb4" r="3.5" stroke-width="0" /><circle cx="140" cy="397" fill="#911eb4" r="3.5" stroke-width="0" /><circle cx="181" cy="499" fill="#911eb4" r="3.5" stroke-width="0" /><circle cx="93" cy="168" fill="#911eb4" r="3.5" stroke-width="0" /><circle cx="146" cy="414" fill="#911eb4" r="3.5" stroke-width="0" /><circle cx="121" cy="332" fill="#911eb4" r="3.5" stroke-width="0" /><circle cx="134" cy="376" fill="#911eb4" r="3.5" stroke-width="0" /><circle cx="191" cy="518" fill="#911eb4" r="3.5" stroke-width="0" /><circle cx="157" cy="442" fill="#911eb4" r="3.5" stroke-width="0" /><circle cx="158" cy="444" fill="#911eb4" r="3.5" stroke-width="0" /><circle cx="112" cy="296" fill="#911eb4" r="3.5" stroke-width="0" /><circle cx="100" cy="230" fill="#911eb4" r="3.5" stroke-width="0" /><circle cx="96" cy="193" fill="#911eb4" r="3.5" stroke-width="0" /><circle cx="192" cy="520" fill="#911eb4" r="3.5" stroke-width="0" /><circle cx="105" cy="257" fill="#911eb4" r="3.5" stroke-width="0" /><circle cx="129" cy="362" fill="#911eb4" r="3.5" stroke-width="0" /><circle cx="161" cy="452" fill="#911eb4" r="3.5" stroke-width="0" /><circle cx="130" cy="365" fill="#911eb4" r="3.5" stroke-width="0" /><circle cx="216" cy="565" fill="#911eb4" r="3.5" stroke-width="0" /><circle cx="90" cy="114" fill="#911eb4" r="3.5" stroke-width="0" /><circle cx="98" cy="217" fill="#911eb4" r="3.5" stroke-width="0" /><circle cx="104" cy="253" fill="#911eb4" r="3.5" stroke-width="0" /><circle cx="119" cy="325" fill="#911eb4" r="3.5" stroke-width="0" /><circle cx="209" cy="553" fill="#911eb4" r="3.5" stroke-width="0" /><circle cx="187" cy="511" fill="#911eb4" r="3.5" stroke-width="0" /><circle cx="137" cy="387" fill="#911eb4" r="3.5" stroke-width="0" /><circle cx="115" cy="309" fill="#911eb4" r="3.5" stroke-width="0" /><circle cx="136" cy="383" fill="#911eb4" r="3.5" stroke-width="0" /><circle cx="132" cy="371" fill="#911eb4" r="3.5" stroke-width="0" /><circle cx="109" cy="280" fill="#911eb4" r="3.5" stroke-width="0" /><circle cx="126" cy="350" fill="#911eb4" r="3.5" stroke-width="0" /><circle cx="224" cy="579" fill="#911eb4" r="3.5" stroke-width="0" /><circle cx="103" cy="249" fill="#911eb4" r="3.5" stroke-width="0" /><circle cx="124" cy="342" fill="#911eb4" r="3.5" stroke-width="0" /><circle cx="174" cy="483" fill="#911eb4" r="3.5" stroke-width="0" /><circle cx="138" cy="391" fill="#911eb4" r="3.5" stroke-width="0" /><circle cx="190" cy="517" fill="#911eb4" r="3.5" stroke-width="0" /><circle cx="201" cy="539" fill="#911eb4" r="3.5" stroke-width="0" /><circle cx="123" cy="339" fill="#911eb4" r="3.5" stroke-width="0" /><circle cx="168" cy="470" fill="#911eb4" r="3.5" stroke-width="0" /><circle cx="114" cy="303" fill="#911eb4" r="3.5" stroke-width="0" /><circle cx="167" cy="467" fill="#911eb4" r="3.5" stroke-width="0" /><circle cx="139" cy="393" fill="#911eb4" r="3.5" stroke-width="0" /><circle cx="199" cy="534" fill="#911eb4" r="3.5" stroke-width="0" /><circle cx="110" cy="284" fill="#911eb4" r="3.5" stroke-width="0" /><circle cx="107" cy="271" fill="#911eb4" r="3.5" stroke-width="0" /><circle cx="94" cy="173" fill="#911eb4" r="3.5" stroke-width="0" /><circle cx="141" cy="400" fill="#911eb4" r="3.5" stroke-width="0" /><circle cx="180" cy="495" fill="#911eb4" r="3.5" stroke-width="0" /><circle cx="175" cy="486" fill="#911eb4" r="3.5" stroke-width="0" /><circle cx="160" cy="449" fill="#911eb4" r="3.5" stroke-width="0" /><circle cx="102" cy="243" fill="#911eb4" r="3.5" stroke-width="0" /><circle cx="118" cy="321" fill="#911eb4" r="3.5" stroke-width="0" /><circle cx="97" cy="203" fill="#911eb4" r="3.5" stroke-width="0" /><circle cx="178" cy="492" fill="#911eb4" r="3.5" stroke-width="0" /><circle cx="113" cy="298" fill="#911eb4" r="3.5" stroke-width="0" /></g></g></g></svg>