<?xml version="1.0" encoding="utf-8" ?>
<svg baseProfile="full" height="1140px" style="font-size:15;font-family:Arial, san-serif;font-weight:bold;stroke:black;stroke-width:0;fill:#444444" version="1.1" width="1140px" xmlns="http://www.w3.org/2000/svg" xmlns:ev="http://www.w3.org/2001/xml-events" xmlns:xlink="http://www.w3.org/1999/xlink"><defs><clipPath id="areadografico"><rect height="1000" width="1000" x="70" y="70" /></clipPath></defs><g class="master"><g class="poligonos"><polygon clip-path="url(#areadografico)" fill="#000000" fill-opacity="0.1" points="1069,1070 1069,890 889,1070" /><polygon clip-path="url(#areadografico)" fill="#ffffff" fill-opacity="0.1" points="890,1070 708,1070 1069,709 1069,890" /><polygon clip-path="url(#areadografico)" fill="#000000" fill-opacity="0.1" points="709,1070 527,1070 1069,528 1069,709" /><polygon clip-path="url(#areadografico)" fill="#ffffff" fill-opacity="0.1" points="528,1070 346,1070 1069,347 1069,528" /><polygon clip-path="url(#areadografico)" fill="#000000" fill-opacity="0.1" points="347,1070 165,1070 1069,166 1069,347" /><polygon clip-path="url(#areadografico)" fill="#ffffff" fill-opacity="0.1" points="166,1070 -16,1070 1069,-15 1069,166" /><polygon clip-path="url(#areadografico)" fill="#000000" fill-opacity="0.1" points="-15,1070 -197,1070 1069,-196 1069,-15" /><polygon clip-path="url(#areadografico)" fill="#ffffff" fill-opacity="0.1" points="-196,1070 -378,1070 1069,-377 1069,-196" /><polygon clip-path="url(#areadografico)" fill="#000000" fill-opacity="0.1" points="-377,1070 -559,1070 1069,-558 1069,-377" /><polygon clip-path="url(#areadografico)" fill="#ffffff" fill-opacity="0.1" points="-558,1070 -740,1070 1069,-739 1069,-558" /><polygon clip-path="url(#areadografico)" fill="#000000" fill-opacity="0.1" points="70,71 70,260 259,71" /></g><g class="linhas"><line fill-opacity="0.3" stroke="#999999" stroke-width="1" x1="1070" x2="1070" y1="1070" y2="70" /><line fill-opacity="0.3" stroke="#999999" stroke-width="1" x1="70" x2="1070" y1="70" y2="70" /><line fill-opacity="0.3" stroke="#999999" stroke-width="1" x1="970" x2="970" y1="1070" y2="70" /><line fill-opacity="0.3" stroke="#999999" stroke-width="1" x1="70" x2="1070" y1="170" y2="170" /><line fill-opacity="0.3" stroke="#999999" stroke-width="1" x1="870" x2="870" y1="1070" y2="70" /><line fill-opacity="0.3" stroke="#999999" stroke-width="1" x1="70" x2="1070" y1="270" y2="270" /><line fill-opacity="0.3" stroke="#999999" stroke-width="1" x1="770" x2="770" y1="1070" y2="70" /><line fill-opacity="0.3" stroke="#999999" stroke-width="1" x1="70" x2="1070" y1="370" y2="370" /><line fill-opacity="0.3" stroke="#999999" stroke-width="1" x1="670" x2="670" y1="1070" y2="70" /><line fill-opacity="0.3" stroke="#999999" stroke-width="1" x1="70" x2="1070" y1="470" y2="470" /><line fill-opacity="0.3" stroke="#999999" stroke-width="1" x1="570" x2="570" y1="1070" y2="70" /><line fill-opacity="0.3" stroke="#999999" stroke-width="1" x1="70" x2="1070" y1="570" y2="570" /><line fill-opacity="0.3" stroke="#999999" stroke-width="1" x1="470" x2="470" y1="1070" y2="70" /><line fill-opacity="0.3" stroke="#999999" stroke-width="1" x1="70" x2="1070" y1="670" y2="670" /><line fill-opacity="0.3" stroke="#999999" stroke-width="1" x1="370" x2="370" y1="1070" y2="70" /><line fill-opacity="0.3" stroke="#999999" stroke-width="1" x1="70" x2="1070" y1="770" y2="770" /><line fill-opacity="0.3" stroke="#999999" stroke-width="1" x1="270" x2="270" y1="1070" y2="70" /><line fill-opacity="0.3" stroke="#999999" stroke-width="1" x1="70" x2="1070" y1="870" y2="870" /><line fill-opacity="0.3" stroke="#999999" stroke-width="1" x1="170" x2="170" y1="1070" y2="70" /><line fill-opacity="0.3" stroke="#999999" stroke-width="1" x1="70" x2="1070" y1="970" y2="970" /><line fill-opacity="0.3" stroke="#000000" stroke-width="1" x1="70" x2="70" y1="1071" y2="69" /><line fill-opacity="0.3" stroke="#000000" stroke-width="1" x1="69" x2="1071" y1="1070" y2="1070" /></g><g class="textos"><text x="1050" y="1110">1000</text><text x="10" y="71">1000</text><text x="950" y="1110">900</text><text x="10" y="171">900</text><text x="850" y="1110">800</text><text x="10" y="271">800</text><text x="750" y="1110">700</text><text x="10" y="371">700</text><text x="650" y="1110">600</text><text x="10" y="471">600</text><text x="550" y="1110">500</text><text x="10" y="571">500</text><text x="450" y="1110">400</text><text x="10" y="671">400</text><text x="350" y="1110">300</text><text x="10" y="771">300</text><text x="250" y="1110">200</text><text x="10" y="871">200</text><text x="150" y="1110">100</text><text x="10" y="971">100</text><text x="50" y="1111">0</text><text x="9" y="1071">0</text></g><g class="especies"><g class="e0"><circle cx="1020" cy="1050" fill="#ff0000" r="3.5" stroke-width="0" /><circle cx="1026" cy="1050" fill="#ff0000" r="3.5" stroke-width="0" /><circle cx="1032" cy="1050" fill="#ff0000" r="3.5" stroke-width="0" /><circle cx="1038" cy="1050" fill="#ff0000" r="3.5" stroke-width="0" /><circle cx="1044" cy="1050" fill="#ff0000" r="3.5" stroke-width="0" /><circle cx="1050" cy="1050" fill="#ff0000" r="3.5" stroke-width="0" /><circle cx="1002" cy="1049" fill="#ff0000" r="3.5" stroke-width="0" /><circle cx="1008" cy="1049" fill="#ff0000" r="3.5" stroke-width="0" /><circle cx="1014" cy="1049" fill="#ff0000" r="3.5" stroke-width="0" /><circle cx="981" cy="1048" fill="#ff0000" r="3.5" stroke-width="0" /><circle cx="987" cy="1048" fill="#ff0000" r="3.5" stroke-width="0" /><circle cx="993" cy="1048" fill="#ff0000" r="3.5" stroke-width="0" /><circle cx="972" cy="1047" fill="#ff0000" r="3.5" stroke-width="0" /><circle cx="978" cy="1047" fill="#ff0000" r="3.5" stroke-width="0" /><circle cx="961" cy="1046" fill="#ff0000" r="3.5" stroke-width="0" /><circle cx="967" cy="1046" fill="#ff0000" r="3.5" stroke-width="0" /><circle cx="952" cy="1045" fill="#ff0000" r="3.5" stroke-width="0" /><circle cx="939" cy="1044" fill="#ff0000" r="3.5" stroke-width="0" /><circle cx="945" cy="1044" fill="#ff0000" r="3.5" stroke-width="0" /><circle cx="934" cy="1043" fill="#ff0000" r="3.5" stroke-width="0" /><circle cx="924" cy="1042" fill="#ff0000" r="3.5" stroke-width="0" /><circle cx="930" cy="1042" fill="#ff0000" r="3.5" stroke-width="0" /><circle cx="921" cy="1041" fill="#ff0000" r="3.5" stroke-width="0" /></g><g class="e1"><circle cx="913" cy="1040" fill="#2b92db" r="3.5" stroke-width="0" /><circle cx="905" cy="1039" fill="#2b92db" r="3.5" stroke-width="0" /><circle cx="898" cy="1038" fill="#2b92db" r="3.5" stroke-width="0" /><circle cx="892" cy="1037" fill="#2b92db" r="3.5" stroke-width="0" /><circle cx="886" cy="1036" fill="#2b92db" r="3.5" stroke-width="0" /><circle cx="881" cy="1035" fill="#2b92db" r="3.5" stroke-width="0" /><circle cx="876" cy="1034" fill="#2b92db" r="3.5" stroke-width="0" /><circle cx="871" cy="1033" fill="#2b92db" r="3.5" stroke-width="0" /><circle cx="867" cy="1032" fill="#2b92db" r="3.5" stroke-width="0" /><circle cx="853" cy="1030" fill="#2b92db" r="3.5" stroke-width="0" /><circle cx="849" cy="1029" fill="#2b92db" r="3.5" stroke-width="0" /><circle cx="847" cy="1028" fill="#2b92db" r="3.5" stroke-width="0" /><circle cx="835" cy="1026" fill="#2b92db" r="3.5" stroke-width="0" /><circle cx="833" cy="1025" fill="#2b92db" r="3.5" stroke-width="0" /><circle cx="830" cy="1024" fill="#2b92db" r="3.5" stroke-width="0" /><circle cx="819" cy="1022" fill="#2b92db" r="3.5" stroke-width="0" /><circle cx="817" cy="1021" fill="#2b92db" r="3.5" stroke-width="0" /><circle cx="808" cy="1019" fill="#2b92db" r="3.5" stroke-width="0" /><circle cx="799" cy="1017" fill="#2b92db" r="3.5" stroke-width="0" /><circle cx="797" cy="1016" fill="#2b92db" r="3.5" stroke-width="0" /><circle cx="789" cy="1014" fill="#2b92db" r="3.5" stroke-width="0" /><circle cx="781" cy="1012" fill="#2b92db" r="3.5" stroke-width="0" /><circle cx="780" cy="1011" fill="#2b92db" r="3.5" stroke-width="0" /><circle cx="773" cy="1009" fill="#2b92db" r="3.5" stroke-width="0" /></g><g class="e2"><circle cx="766" cy="1007" fill="#911eb4" r="3.5" stroke-width="0" /><circle cx="759" cy="1005" fill="#911eb4" r="3.5" stroke-width="0" /><circle cx="752" cy="1003" fill="#911eb4" r="3.5" stroke-width="0" /><circle cx="746" cy="1001" fill="#911eb4" r="3.5" stroke-width="0" /><circle cx="740" cy="999" fill="#911eb4" r="3.5" stroke-width="0" /><circle cx="734" cy="997" fill="#911eb4" r="3.5" stroke-width="0" /><circle cx="730" cy="995" fill="#911eb4" r="3.5" stroke-width="0" /><circle cx="724" cy="993" fill="#911eb4" r="3.5" stroke-width="0" /><circle cx="720" cy="991" fill="#911eb4" r="3.5" stroke-width="0" /><circle cx="714" cy="989" fill="#911eb4" r="3.5" stroke-width="0" /><circle cx="706" cy="986" fill="#911eb4" r="3.5" stroke-width="0" /><circle cx="701" cy="984" fill="#911eb4" r="3.5" stroke-width="0" /><circle cx="692" cy="981" fill="#911eb4" r="3.5" stroke-width="0" /><circle cx="688" cy="979" fill="#911eb4" r="3.5" stroke-width="0" /><circle cx="680" cy="976" fill="#911eb4" r="3.5" stroke-width="0" /><circle cx="676" cy="974" fill="#911eb4" r="3.5" stroke-width="0" /><circle cx="668" cy="971" fill="#911eb4" r="3.5" stroke-width="0" /><circle cx="665" cy="969" fill="#911eb4" r="3.5" stroke-width="0" /><circle cx="658" cy="966" fill="#911eb4" r="3.5" stroke-width="0" /><circle cx="650" cy="963" fill="#911eb4" r="3.5" stroke-width="0" /><circle cx="644" cy="960" fill="#911eb4" r="3.5" stroke-width="0" /><circle cx="640" cy="958" fill="#911eb4" r="3.5" stroke-width="0" /></g><g class="e3"><circle cx="634" cy="955" fill="#3cb44B" r="3.5" stroke-width="0" /><circle cx="628" cy="952" fill="#3cb44B" r="3.5" stroke-width="0" /><circle cx="622" cy="949" fill="#3cb44B" r="3.5" stroke-width="0" /><circle cx="616" cy="946" fill="#3cb44B" r="3.5" stroke-width="0" /><circle cx="610" cy="943" fill="#3cb44B" r="3.5" stroke-width="0" /><circle cx="604" cy="940" fill="#3cb44B" r="3.5" stroke-width="0" /><circle cx="596" cy="936" fill="#3cb44B" r="3.5" stroke-width="0" /><circle cx="590" cy="933" fill="#3cb44B" r="3.5" stroke-width="0" /><circle cx="586" cy="930" fill="#3cb44B" r="3.5" stroke-width="0" /><circle cx="580" cy="927" fill="#3cb44B" r="3.5" stroke-width="0" /><circle cx="573" cy="923" fill="#3cb44B" r="3.5" stroke-width="0" /><circle cx="566" cy="919" fill="#3cb44B" r="3.5" stroke-width="0" /><circle cx="561" cy="916" fill="#3cb44B" r="3.5" stroke-width="0" /><circle cx="554" cy="912" fill="#3cb44B" r="3.5" stroke-width="0" /><circle cx="547" cy="908" fill="#3cb44B" r="3.5" stroke-width="0" /><circle cx="543" cy="905" fill="#3cb44B" r="3.5" stroke-width="0" /><circle cx="537" cy="901" fill="#3cb44B" r="3.5" stroke-width="0" /><circle cx="530" cy="897" fill="#3cb44B" r="3.5" stroke-width="0" /><circle cx="524" cy="893" fill="#3cb44B" r="3.5" stroke-width="0" /></g><g class="e4"><circle cx="518" cy="889" fill="#ff0000" r="3.5" stroke-width="0" /><circle cx="512" cy="885" fill="#ff0000" r="3.5" stroke-width="0" /><circle cx="506" cy="881" fill="#ff0000" r="3.5" stroke-width="0" /><circle cx="500" cy="877" fill="#ff0000" r="3.5" stroke-width="0" /><circle cx="495" cy="873" fill="#ff0000" r="3.5" stroke-width="0" /><circle cx="487" cy="868" fill="#ff0000" r="3.5" stroke-width="0" /><circle cx="482" cy="864" fill="#ff0000" r="3.5" stroke-width="0" /><circle cx="475" cy="859" fill="#ff0000" r="3.5" stroke-width="0" /><circle cx="470" cy="855" fill="#ff0000" r="3.5" stroke-width="0" /><circle cx="463" cy="850" fill="#ff0000" r="3.5" stroke-width="0" /><circle cx="458" cy="846" fill="#ff0000" r="3.5" stroke-width="0" /><circle cx="452" cy="841" fill="#ff0000" r="3.5" stroke-width="0" /><circle cx="446" cy="836" fill="#ff0000" r="3.5" stroke-width="0" /><circle cx="440" cy="831" fill="#ff0000" r="3.5" stroke-width="0" /><circle cx="432" cy="825" fill="#ff0000" r="3.5" stroke-width="0" /><circle cx="426" cy="820" fill="#ff0000" r="3.5" stroke-width="0" /><circle cx="421" cy="815" fill="#ff0000" r="3.5" stroke-width="0" /></g><g class="e5"><circle cx="415" cy="810" fill="#2b92db" r="3.5" stroke-width="0" /><circle cx="409" cy="805" fill="#2b92db" r="3.5" stroke-width="0" /><circle cx="403" cy="799" fill="#2b92db" r="3.5" stroke-width="0" /><circle cx="397" cy="794" fill="#2b92db" r="3.5" stroke-width="0" /><circle cx="391" cy="788" fill="#2b92db" r="3.5" stroke-width="0" /><circle cx="385" cy="782" fill="#2b92db" r="3.5" stroke-width="0" /><circle cx="379" cy="777" fill="#2b92db" r="3.5" stroke-width="0" /><circle cx="373" cy="771" fill="#2b92db" r="3.5" stroke-width="0" /><circle cx="368" cy="766" fill="#2b92db" r="3.5" stroke-width="0" /><circle cx="362" cy="760" fill="#2b92db" r="3.5" stroke-width="0" /><circle cx="357" cy="754" fill="#2b92db" r="3.5" stroke-width="0" /><circle cx="351" cy="748" fill="#2b92db" r="3.5" stroke-width="0" /><circle cx="345" cy="742" fill="#2b92db" r="3.5" stroke-width="0" /><circle cx="340" cy="736" fill="#2b92db" r="3.5" stroke-width="0" /><circle cx="334" cy="730" fill="#2b92db" r="3.5" stroke-width="0" /></g><g class="e6"><circle cx="329" cy="724" fill="#911eb4" r="3.5" stroke-width="0" /><circle cx="324" cy="718" fill="#911eb4" r="3.5" stroke-width="0" /><circle cx="319" cy="712" fill="#911eb4" r="3.5" stroke-width="0" /><circle cx="314" cy="706" fill="#911eb4" r="3.5" stroke-width="0" /><circle cx="308" cy="699" fill="#911eb4" r="3.5" stroke-width="0" /><circle cx="303" cy="693" fill="#911eb4" r="3.5" stroke-width="0" /><circle cx="298" cy="687" fill="#911eb4" r="3.5" stroke-width="0" /><circle cx="293" cy="681" fill="#911eb4" r="3.5" stroke-width="0" /><circle cx="289" cy="675" fill="#911eb4" r="3.5" stroke-width="0" /><circle cx="284" cy="669" fill="#911eb4" r="3.5" stroke-width="0" /><circle cx="280" cy="663" fill="#911eb4" r="3.5" stroke-width="0" /><circle cx="275" cy="657" fill="#911eb4" r="3.5" stroke-width="0" /><circle cx="271" cy="651" fill="#911eb4" r="3.5" stroke-width="0" /><circle cx="267" cy="645" fill="#911eb4" r="3.5" stroke-width="0" /><circle cx="262" cy="639" fill="#911eb4" r="3.5" stroke-width="0" /><circle cx="258" cy="633" fill="#911eb4" r="3.5" stroke-width="0" /><circle cx="254" cy="627" fill="#911eb4" r="3.5" stroke-width="0" /></g><g class="e7"><circle cx="250" cy="621" fill="#3cb44B" r="3.5" stroke-width="0" /><circle cx="246" cy="615" fill="#3cb44B" r="3.5" stroke-width="0" /><circle cx="242" cy="609" fill="#3cb44B" r="3.5" stroke-width="0" /><circle cx="239" cy="603" fill="#3cb44B" r="3.5" stroke-width="0" /><circle cx="235" cy="597" fill="#3cb44B" r="3.5" stroke-width="0" /><circle cx="231" cy="591" fill="#3cb44B" r="3.5" stroke-width="0" /><circle cx="227" cy="585" fill="#3cb44B" r="3.5" stroke-width="0" /><circle cx="224" cy="579" fill="#3cb44B" r="3.5" stroke-width="0" /><circle cx="220" cy="573" fill="#3cb44B" r="3.5" stroke-width="0" /><circle cx="217" cy="567" fill="#3cb44B" r="3.5" stroke-width="0" /><circle cx="213" cy="560" fill="#3cb44B" r="3.5" stroke-width="0" /><circle cx="210" cy="554" fill="#3cb44B" r="3.5" stroke-width="0" /><circle cx="206" cy="548" fill="#3cb44B" r="3.5" stroke-width="0" /><circle cx="203" cy="542" fill="#3cb44B" r="3.5" stroke-width="0" /><circle cx="200" cy="536" fill="#3cb44B" r="3.5" stroke-width="0" /><circle cx="197" cy="530" fill="#3cb44B" r="3.5" stroke-width="0" /><circle cx="194" cy="524" fill="#3cb44B" r="3.5" stroke-width="0" /><circle cx="191" cy="518" fill="#3cb44B" r="3.5" stroke-width="0" /><circle cx="188" cy="512" fill="#3cb44B" r="3.5" stroke-width="0" /></g><g class="e8"><circle cx="185" cy="506" fill="#ff0000" r="3.5" stroke-width="0" /><circle cx="182" cy="500" fill="#ff0000" r="3.5" stroke-width="0" /><circle cx="179" cy="494" fill="#ff0000" r="3.5" stroke-width="0" /><circle cx="176" cy="488" fill="#ff0000" r="3.5" stroke-width="0" /><circle cx="174" cy="482" fill="#ff0000" r="3.5" stroke-width="0" /><circle cx="171" cy="476" fill="#ff0000" r="3.5" stroke-width="0" /><circle cx="168" cy="470" fill="#ff0000" r="3.5" stroke-width="0" /><circle cx="166" cy="464" fill="#ff0000" r="3.5" stroke-width="0" /><circle cx="163" cy="458" fill="#ff0000" r="3.5" stroke-width="0" /><circle cx="161" cy="452" fill="#ff0000" r="3.5" stroke-width="0" /><circle cx="158" cy="446" fill="#ff0000" r="3.5" stroke-width="0" /><circle cx="156" cy="440" fill="#ff0000" r="3.5" stroke-width="0" /><circle cx="154" cy="434" fill="#ff0000" r="3.5" stroke-width="0" /><circle cx="151" cy="427" fill="#ff0000" r="3.5" stroke-width="0" /><circle cx="149" cy="421" fill="#ff0000" r="3.5" stroke-width="0" /><circle cx="147" cy="415" fill="#ff0000" r="3.5" stroke-width="0" /><circle cx="145" cy="409" fill="#ff0000" r="3.5" stroke-width="0" /><circle cx="142" cy="403" fill="#ff0000" r="3.5" stroke-width="0" /><circle cx="140" cy="397" fill="#ff0000" r="3.5" stroke-width="0" /><circle cx="138" cy="391" fill="#ff0000" r="3.5" stroke-width="0" /><circle cx="136" cy="385" fill="#ff0000" r="3.5" stroke-width="0" /><circle cx="135" cy="379" fill="#ff0000" r="3.5" stroke-width="0" /></g><g class="e9"><circle cx="133" cy="373" fill="#2b92db" r="3.5" stroke-width="0" /><circle cx="131" cy="367" fill="#2b92db" r="3.5" stroke-width="0" /><circle cx="129" cy="361" fill="#2b92db" r="3.5" stroke-width="0" /><circle cx="127" cy="355" fill="#2b92db" r="3.5" stroke-width="0" /><circle cx="126" cy="349" fill="#2b92db" r="3.5" stroke-width="0" /><circle cx="124" cy="343" fill="#2b92db" r="3.5" stroke-width="0" /><circle cx="122" cy="337" fill="#2b92db" r="3.5" stroke-width="0" /><circle cx="121" cy="331" fill="#2b92db" r="3.5" stroke-width="0" /><circle cx="119" cy="325" fill="#2b92db" r="3.5" stroke-width="0" /><circle cx="118" cy="319" fill="#2b92db" r="3.5" stroke-width="0" /><circle cx="116" cy="313" fill="#2b92db" r="3.5" stroke-width="0" /><circle cx="115" cy="307" fill="#2b92db" r="3.5" stroke-width="0" /><circle cx="113" cy="301" fill="#2b92db" r="3.5" stroke-width="0" /><circle cx="112" cy="295" fill="#2b92db" r="3.5" stroke-width="0" /><circle cx="111" cy="288" fill="#2b92db" r="3.5" stroke-width="0" /><circle cx="109" cy="282" fill="#2b92db" r="3.5" stroke-width="0" /><circle cx="108" cy="276" fill="#2b92db" r="3.5" stroke-width="0" /><circle cx="107" cy="270" fill="#2b92db" r="3.5" stroke-width="0" /><circle cx="106" cy="264" fill="#2b92db" r="3.5" stroke-width="0" /><circle cx="105" cy="258" fill="#2b92db" r="3.5" stroke-width="0" /><circle cx="104" cy="252" fill="#2b92db" r="3.5" stroke-width="0" /><circle cx="103" cy="246" fill="#2b92db" r="3.5" stroke-width="0" /><circle cx="102" cy="240" fill="#2b92db" r="3.5" stroke-width="0" /><circle cx="101" cy="234" fill="#2b92db" r="3.5" stroke-width="0" /></g><g class="e10"><circle cx="100" cy="228" fill="#911eb4" r="3.5" stroke-width="0" /><circle cx="99" cy="222" fill="#911eb4" r="3.5" stroke-width="0" /><circle cx="98" cy="216" fill="#911eb4" r="3.5" stroke-width="0" /><circle cx="98" cy="210" fill="#911eb4" r="3.5" stroke-width="0" /><circle cx="97" cy="204" fill="#911eb4" r="3.5" stroke-width="0" /><circle cx="96" cy="198" fill="#911eb4" r="3.5" stroke-width="0" /><circle cx="95" cy="192" fill="#911eb4" r="3.5" stroke-width="0" /><circle cx="95" cy="186" fill="#911eb4" r="3.5" stroke-width="0" /><circle cx="94" cy="180" fill="#911eb4" r="3.5" stroke-width="0" /><circle cx="94" cy="174" fill="#911eb4" r="3.5" stroke-width="0" /><circle cx="93" cy="168" fill="#911eb4" r="3.5" stroke-width="0" /><circle cx="93" cy="162" fill="#911eb4" r="3.5" stroke-width="0" /><circle cx="92" cy="155" fill="#911eb4" r="3.5" stroke-width="0" /><circle cx="92" cy="149" fill="#911eb4" r="3.5" stroke-width="0" /><circle cx="91" cy="143" fill="#911eb4" r="3.5" stroke-width="0" /><circle cx="91" cy="137" fill="#911eb4" r="3.5" stroke-width="0" /><circle cx="91" cy="131" fill="#911eb4" r="3.5" stroke-width="0" /><circle cx="91" cy="125" fill="#911eb4" r="3.5" stroke-width="0" /><circle cx="90" cy="119" fill="#911eb4" r="3.5" stroke-width="0" /><circle cx="90" cy="113" fill="#911eb4" r="3.5" stroke-width="0" /><circle cx="90" cy="107" fill="#911eb4" r="3.5" stroke-width="0" /><circle cx="90" cy="101" fill="#911eb4" r="3.5" stroke-width="0" /><circle cx="90" cy="95" fill="#911eb4" r="3.5" stroke-width="0" /></g></g></g></svg>