<?xml version="1.0" encoding="utf-8" ?>
<svg baseProfile="full" height="1140px" style="font-size:15;font-family:Arial, san-serif;font-weight:bold;stroke:black;stroke-width:0;fill:#444444" version="1.1" width="1140px" xmlns="http://www.w3.org/2000/svg" xmlns:ev="http://www.w3.org/2001/xml-events" xmlns:xlink="http://www.w3.org/1999/xlink"><defs><clipPath id="areadografico"><rect height="1000" width="1000" x="70" y="70" /></clipPath></defs><g class="master"><g class="poligonos"><polygon clip-path="url(#areadografico)" fill="#000000" fill-opacity="0.1" points="1069,1070 1069,822 821,1070" /><polygon clip-path="url(#areadografico)" fill="#ffffff" fill-opacity="0.1" points="822,1070 572,1070 1069,573 1069,822" /><polygon clip-path="url(#areadografico)" fill="#000000" fill-opacity="0.1" points="573,1070 323,1070 1069,324 1069,573" /><polygon clip-path="url(#areadografico)" fill="#ffffff" fill-opacity="0.1" points="324,1070 74,1070 1069,75 1069,324" /><polygon clip-path="url(#areadografico)" fill="#000000" fill-opacity="0.1" points="75,1070 -175,1070 1069,-174 1069,75" /><polygon clip-path="url(#areadografico)" fill="#ffffff" fill-opacity="0.1" points="-174,1070 -424,1070 1069,-423 1069,-174" /><polygon clip-path="url(#areadografico)" fill="#000000" fill-opacity="0.1" points="-423,1070 -673,1070 1069,-672 1069,-423" /><polygon clip-path="url(#areadografico)" fill="#ffffff" fill-opacity="0.1" points="70,71 70,328 327,71" /></g><g class="linhas"><line fill-opacity="0.3" stroke="#999999" stroke-width="1" x1="1070" x2="1070" y1="1070" y2="70" /><line fill-opacity="0.3" stroke="#999999" stroke-width="1" x1="70" x2="1070" y1="70" y2="70" /><line fill-opacity="0.3" stroke="#999999" stroke-width="1" x1="970" x2="970" y1="1070" y2="70" /><line fill-opacity="0.3" stroke="#999999" stroke-width="1" x1="70" x2="1070" y1="170" y2="170" /><line fill-opacity="0.3" stroke="#999999" stroke-width="1" x1="870" x2="870" y1="1070" y2="70" /><line fill-opacity="0.3" stroke="#999999" stroke-width="1" x1="70" x2="1070" y1="270" y2="270" /><line fill-opacity="0.3" stroke="#999999" stroke-width="1" x1="770" x2="770" y1="1070" y2="70" /><line fill-opacity="0.3" stroke="#999999" stroke-width="1" x1="70" x2="1070" y1="370" y2="370" /><line fill-opacity="0.3" stroke="#999999" stroke-width="1" x1="670" x2="670" y1="1070" y2="70" /><line fill-opacity="0.3" stroke="#999999" stroke-width="1" x1="70" x2="1070" y1="470" y2="470" /><line fill-opacity="0.3" stroke="#999999" stroke-width="1" x1="570" x2="570" y1="1070" y2="70" /><line fill-opacity="0.3" stroke="#999999" stroke-width="1" x1="70" x2="1070" y1="570" y2="570" /><line fill-opacity="0.3" stroke="#999999" stroke-width="1" x1="470" x2="470" y1="1070" y2="70" /><line fill-opacity="0.3" stroke="#999999" stroke-width="1" x1="70" x2="1070" y1="670" y2="670" /><line fill-opacity="0.3" stroke="#999999" stroke-width="1" x1="370" x2="370" y1="1070" y2="70" /><line fill-opacity="0.3" stroke="#999999" stroke-width="1" x1="70" x2="1070" y1="770" y2="770" /><line fill-opacity="0.3" stroke="#999999" stroke-width="1" x1="270" x2="270" y1="1070" y2="70" /><line fill-opacity="0.3" stroke="#999999" stroke-width="1" x1="70" x2="1070" y1="870" y2="870" /><line fill-opacity="0.3" stroke="#999999" stroke-width="1" x1="170" x2="170" y1="1070" y2="70" /><line fill-opacity="0.3" stroke="#999999" stroke-width="1" x1="70" x2="1070" y1="970" y2="970" /><line fill-opacity="0.3" stroke="#000000" stroke-width="1" x1="70" x2="70" y1="1071" y2="69" /><line fill-opacity="0.3" stroke="#000000" stroke-width="1" x1="69" x2="1071" y1="1070" y2="1070" /></g><g class="textos"><text x="1050" y="1110">1000</text><text x="10" y="71">1000</text><text x="950" y="1110">900</text><text x="10" y="171">900</text><text x="850" y="1110">800</text><text x="10" y="271">800</text><text x="750" y="1110">700</text><text x="10" y="371">700</text><text x="650" y="1110">600</text><text x="10" y="471">600</text><text x="550" y="1110">500</text><text x="10" y="571">500</text><text x="450" y="1110">400</text><text x="10" y="671">400</text><text x="350" y="1110">300</text><text x="10" y="771">300</text><text x="250" y="1110">200</text><text x="10" y="871">200</text><text x="150" y="1110">100</text><text x="10" y="971">100</text><text x="50" y="1111">0</text><text x="9" y="1071">0</text></g><g class="especies"><g class="e0"><circle cx="1020" cy="1050" fill="#ff0000" r="3.5" stroke-width="0" /><circle cx="1030" cy="1050" fill="#ff0000" r="3.5" stroke-width="0" /><circle cx="1040" cy="1050" fill="#ff0000" r="3.5" stroke-width="0" /><circle cx="1050" cy="1050" fill="#ff0000" r="3.5" stroke-width="0" /><circle cx="1006" cy="1049" fill="#ff0000" r="3.5" stroke-width="0" /><circle cx="1016" cy="1049" fill="#ff0000" r="3.5" stroke-width="0" /><circle cx="987" cy="1048" fill="#ff0000" r="3.5" stroke-width="0" /><circle cx="970" cy="1047" fill="#ff0000" r="3.5" stroke-width="0" /><circle cx="980" cy="1047" fill="#ff0000" r="3.5" stroke-width="0" /><circle cx="967" cy="1046" fill="#ff0000" r="3.5" stroke-width="0" /><circle cx="956" cy="1045" fill="#ff0000" r="3.5" stroke-width="0" /><circle cx="947" cy="1044" fill="#ff0000" r="3.5" stroke-width="0" /><circle cx="924" cy="1042" fill="#ff0000" r="3.5" stroke-width="0" /><circle cx="919" cy="1041" fill="#ff0000" r="3.5" stroke-width="0" /><circle cx="915" cy="1040" fill="#ff0000" r="3.5" stroke-width="0" /><circle cx="898" cy="1038" fill="#ff0000" r="3.5" stroke-width="0" /><circle cx="884" cy="1036" fill="#ff0000" r="3.5" stroke-width="0" /><circle cx="883" cy="1035" fill="#ff0000" r="3.5" stroke-width="0" /><circle cx="871" cy="1033" fill="#ff0000" r="3.5" stroke-width="0" /><circle cx="861" cy="1031" fill="#ff0000" r="3.5" stroke-width="0" /></g><g class="e1"><circle cx="851" cy="1029" fill="#2b92db" r="3.5" stroke-width="0" /><circle cx="835" cy="1026" fill="#2b92db" r="3.5" stroke-width="0" /><circle cx="828" cy="1024" fill="#2b92db" r="3.5" stroke-width="0" /><circle cx="821" cy="1022" fill="#2b92db" r="3.5" stroke-width="0" /><circle cx="808" cy="1019" fill="#2b92db" r="3.5" stroke-width="0" /><circle cx="795" cy="1016" fill="#2b92db" r="3.5" stroke-width="0" /><circle cx="791" cy="1014" fill="#2b92db" r="3.5" stroke-width="0" /><circle cx="780" cy="1011" fill="#2b92db" r="3.5" stroke-width="0" /><circle cx="770" cy="1008" fill="#2b92db" r="3.5" stroke-width="0" /><circle cx="761" cy="1005" fill="#2b92db" r="3.5" stroke-width="0" /><circle cx="746" cy="1001" fill="#2b92db" r="3.5" stroke-width="0" /><circle cx="738" cy="998" fill="#2b92db" r="3.5" stroke-width="0" /><circle cx="726" cy="994" fill="#2b92db" r="3.5" stroke-width="0" /><circle cx="720" cy="991" fill="#2b92db" r="3.5" stroke-width="0" /><circle cx="709" cy="987" fill="#2b92db" r="3.5" stroke-width="0" /><circle cx="698" cy="983" fill="#2b92db" r="3.5" stroke-width="0" /><circle cx="688" cy="979" fill="#2b92db" r="3.5" stroke-width="0" /><circle cx="679" cy="975" fill="#2b92db" r="3.5" stroke-width="0" /></g><g class="e2"><circle cx="666" cy="970" fill="#911eb4" r="3.5" stroke-width="0" /><circle cx="658" cy="966" fill="#911eb4" r="3.5" stroke-width="0" /><circle cx="646" cy="961" fill="#911eb4" r="3.5" stroke-width="0" /><circle cx="638" cy="957" fill="#911eb4" r="3.5" stroke-width="0" /><circle cx="628" cy="952" fill="#911eb4" r="3.5" stroke-width="0" /><circle cx="618" cy="947" fill="#911eb4" r="3.5" stroke-width="0" /><circle cx="608" cy="942" fill="#911eb4" r="3.5" stroke-width="0" /><circle cx="596" cy="936" fill="#911eb4" r="3.5" stroke-width="0" /><circle cx="587" cy="931" fill="#911eb4" r="3.5" stroke-width="0" /><circle cx="576" cy="925" fill="#911eb4" r="3.5" stroke-width="0" /><circle cx="566" cy="919" fill="#911eb4" r="3.5" stroke-width="0" /><circle cx="555" cy="913" fill="#911eb4" r="3.5" stroke-width="0" /><circle cx="546" cy="907" fill="#911eb4" r="3.5" stroke-width="0" /><circle cx="537" cy="901" fill="#911eb4" r="3.5" stroke-width="0" /><circle cx="525" cy="894" fill="#911eb4" r="3.5" stroke-width="0" /><circle cx="517" cy="888" fill="#911eb4" r="3.5" stroke-width="0" /></g><g class="e3"><circle cx="506" cy="881" fill="#3cb44B" r="3.5" stroke-width="0" /><circle cx="496" cy="874" fill="#3cb44B" r="3.5" stroke-width="0" /><circle cx="486" cy="867" fill="#3cb44B" r="3.5" stroke-width="0" /><circle cx="475" cy="859" fill="#3cb44B" r="3.5" stroke-width="0" /><circle cx="466" cy="852" fill="#3cb44B" r="3.5" stroke-width="0" /><circle cx="456" cy="844" fill="#3cb44B" r="3.5" stroke-width="0" /><circle cx="446" cy="836" fill="#3cb44B" r="3.5" stroke-width="0" /><circle cx="435" cy="827" fill="#3cb44B" r="3.5" stroke-width="0" /><circle cx="425" cy="819" fill="#3cb44B" r="3.5" stroke-width="0" /><circle cx="415" cy="810" fill="#3cb44B" r="3.5" stroke-width="0" /><circle cx="405" cy="801" fill="#3cb44B" r="3.5" stroke-width="0" /><circle cx="395" cy="792" fill="#3cb44B" r="3.5" stroke-width="0" /><circle cx="385" cy="782" fill="#3cb44B" r="3.5" stroke-width="0" /><circle cx="375" cy="773" fill="#3cb44B" r="3.5" stroke-width="0" /></g><g class="e4"><circle cx="366" cy="764" fill="#ff0000" r="3.5" stroke-width="0" /><circle cx="357" cy="754" fill="#ff0000" r="3.5" stroke-width="0" /><circle cx="347" cy="744" fill="#ff0000" r="3.5" stroke-width="0" /><circle cx="338" cy="734" fill="#ff0000" r="3.5" stroke-width="0" /><circle cx="329" cy="724" fill="#ff0000" r="3.5" stroke-width="0" /><circle cx="320" cy="714" fill="#ff0000" r="3.5" stroke-width="0" /><circle cx="312" cy="704" fill="#ff0000" r="3.5" stroke-width="0" /><circle cx="303" cy="693" fill="#ff0000" r="3.5" stroke-width="0" /><circle cx="295" cy="683" fill="#ff0000" r="3.5" stroke-width="0" /><circle cx="287" cy="673" fill="#ff0000" r="3.5" stroke-width="0" /><circle cx="280" cy="663" fill="#ff0000" r="3.5" stroke-width="0" /><circle cx="272" cy="653" fill="#ff0000" r="3.5" stroke-width="0" /><circle cx="265" cy="643" fill="#ff0000" r="3.5" stroke-width="0" /></g><g class="e5"><circle cx="258" cy="633" fill="#2b92db" r="3.5" stroke-width="0" /><circle cx="252" cy="623" fill="#2b92db" r="3.5" stroke-width="0" /><circle cx="245" cy="613" fill="#2b92db" r="3.5" stroke-width="0" /><circle cx="239" cy="603" fill="#2b92db" r="3.5" stroke-width="0" /><circle cx="232" cy="593" fill="#2b92db" r="3.5" stroke-width="0" /><circle cx="226" cy="583" fill="#2b92db" r="3.5" stroke-width="0" /><circle cx="220" cy="573" fill="#2b92db" r="3.5" stroke-width="0" /><circle cx="214" cy="562" fill="#2b92db" r="3.5" stroke-width="0" /><circle cx="208" cy="552" fill="#2b92db" r="3.5" stroke-width="0" /><circle cx="203" cy="542" fill="#2b92db" r="3.5" stroke-width="0" /><circle cx="198" cy="532" fill="#2b92db" r="3.5" stroke-width="0" /><circle cx="193" cy="522" fill="#2b92db" r="3.5" stroke-width="0" /><circle cx="188" cy="512" fill="#2b92db" r="3.5" stroke-width="0" /><circle cx="183" cy="502" fill="#2b92db" r="3.5" stroke-width="0" /><circle cx="178" cy="492" fill="#2b92db" r="3.5" stroke-width="0" /><circle cx="174" cy="482" fill="#2b92db" r="3.5" stroke-width="0" /></g><g class="e6"><circle cx="169" cy="472" fill="#911eb4" r="3.5" stroke-width="0" /><circle cx="165" cy="462" fill="#911eb4" r="3.5" stroke-width="0" /><circle cx="161" cy="452" fill="#911eb4" r="3.5" stroke-width="0" /><circle cx="157" cy="442" fill="#911eb4" r="3.5" stroke-width="0" /><circle cx="153" cy="432" fill="#911eb4" r="3.5" stroke-width="0" /><circle cx="149" cy="421" fill="#911eb4" r="3.5" stroke-width="0" /><circle cx="145" cy="411" fill="#911eb4" r="3.5" stroke-width="0" /><circle cx="142" cy="401" fill="#911eb4" r="3.5" stroke-width="0" /><circle cx="138" cy="391" fill="#911eb4" r="3.5" stroke-width="0" /><circle cx="135" cy="381" fill="#911eb4" r="3.5" stroke-width="0" /><circle cx="132" cy="371" fill="#911eb4" r="3.5" stroke-width="0" /><circle cx="129" cy="361" fill="#911eb4" r="3.5" stroke-width="0" /><circle cx="126" cy="351" fill="#911eb4" r="3.5" stroke-width="0" /><circle cx="123" cy="341" fill="#911eb4" r="3.5" stroke-width="0" /><circle cx="121" cy="331" fill="#911eb4" r="3.5" stroke-width="0" /><circle cx="118" cy="321" fill="#911eb4" r="3.5" stroke-width="0" /><circle cx="116" cy="311" fill="#911eb4" r="3.5" stroke-width="0" /><circle cx="113" cy="301" fill="#911eb4" r="3.5" stroke-width="0" /><circle cx="111" cy="290" fill="#911eb4" r="3.5" stroke-width="0" /></g><g class="e7"><circle cx="109" cy="280" fill="#3cb44B" r="3.5" stroke-width="0" /><circle cx="107" cy="270" fill="#3cb44B" r="3.5" stroke-width="0" /><circle cx="105" cy="260" fill="#3cb44B" r="3.5" stroke-width="0" /><circle cx="103" cy="250" fill="#3cb44B" r="3.5" stroke-width="0" /><circle cx="102" cy="240" fill="#3cb44B" r="3.5" stroke-width="0" /><circle cx="100" cy="230" fill="#3cb44B" r="3.5" stroke-width="0" /><circle cx="99" cy="220" fill="#3cb44B" r="3.5" stroke-width="0" /><circle cx="98" cy="210" fill="#3cb44B" r="3.5" stroke-width="0" /><circle cx="96" cy="200" fill="#3cb44B" r="3.5" stroke-width="0" /><circle cx="95" cy="190" fill="#3cb44B" r="3.5" stroke-width="0" /><circle cx="94" cy="180" fill="#3cb44B" r="3.5" stroke-width="0" /><circle cx="93" cy="170" fill="#3cb44B" r="3.5" stroke-width="0" /><circle cx="93" cy="160" fill="#3cb44B" r="3.5" stroke-width="0" /><circle cx="92" cy="149" fill="#3cb44B" r="3.5" stroke-width="0" /><circle cx="91" cy="139" fill="#3cb44B" r="3.5" stroke-width="0" /><circle cx="91" cy="129" fill="#3cb44B" r="3.5" stroke-width="0" /><circle cx="90" cy="119" fill="#3cb44B" r="3.5" stroke-width="0" /><circle cx="90" cy="109" fill="#3cb44B" r="3.5" stroke-width="0" /><circle cx="90" cy="99" fill="#3cb44B" r="3.5" stroke-width="0" /></g></g></g></svg>