<?xml version="1.0" encoding="utf-8" ?>
<svg baseProfile="full" height="1140px" style="font-size:15;font-family:Arial, san-serif;font-weight:bold;stroke:black;stroke-width:0;fill:#444444" version="1.1" width="1140px" xmlns="http://www.w3.org/2000/svg" xmlns:ev="http://www.w3.org/2001/xml-events" xmlns:xlink="http://www.w3.org/1999/xlink"><defs><clipPath id="areadografico"><rect height="1000" width="1000" x="70" y="70" /></clipPath></defs><g class="master"><g class="poligonos"><polygon clip-path="url(#areadografico)" fill="#000000" fill-opacity="0.1" points="70,1070 70,870 269,871 270,670 469,671 470,470 669,471 670,270 869,271 870,70 1069,71 1069,71 1069,271 869,271 869,471 669,471 669,671 469,671 469,871 269,871 270,1070" /><polygon clip-path="url(#areadografico)" fill="#ffffff" fill-opacity="0.1" points="270,1070 270,870 469,871 470,670 669,671 670,470 869,471 870,270 1069,271 1069,271 1069,471 869,471 869,671 669,671 669,871 469,871 470,1070" /><polygon clip-path="url(#areadografico)" fill="#ffffff" fill-opacity="0.1" points="70,870 270,870 269,671 470,670 469,471 670,470 669,271 870,270 869,71 869,71 669,71 669,271 469,271 469,471 269,471 269,671 70,670" /><polygon clip-path="url(#areadografico)" fill="#000000" fill-opacity="0.1" points="470,1070 470,870 669,871 670,670 869,671 870,470 1069,471 1069,471 1069,671 869,671 869,871 669,871 670,1070" /><polygon clip-path="url(#areadografico)" fill="#000000" fill-opacity="0.1" points="70,670 270,670 269,471 470,470 469,271 670,270 669,71 669,71 469,71 469,271 269,271 269,471 70,470" /><polygon clip-path="url(#areadografico)" fill="#ffffff" fill-opacity="0.1" points="670,1070 670,870 869,871 870,670 1069,671 1069,671 1069,871 869,871 870,1070" /><polygon clip-path="url(#areadografico)" fill="#ffffff" fill-opacity="0.1" points="70,470 270,470 269,271 470,270 469,71 469,71 269,71 269,271 70,270" /><polygon clip-path="url(#areadografico)" fill="#000000" fill-opacity="0.1" points="870,1070 870,870 1069,871 1069,1070" /><polygon clip-path="url(#areadografico)" fill="#000000" fill-opacity="0.1" points="70,270 270,270 269,71 70,71" /></g><g class="linhas"><line fill-opacity="0.3" stroke="#999999" stroke-width="1" x1="1070" x2="1070" y1="1070" y2="70" /><line fill-opacity="0.3" stroke="#999999" stroke-width="1" x1="70" x2="1070" y1="70" y2="70" /><line fill-opacity="0.3" stroke="#999999" stroke-width="1" x1="970" x2="970" y1="1070" y2="70" /><line fill-opacity="0.3" stroke="#999999" stroke-width="1" x1="70" x2="1070" y1="170" y2="170" /><line fill-opacity="0.3" stroke="#999999" stroke-width="1" x1="870" x2="870" y1="1070" y2="70" /><line fill-opacity="0.3" stroke="#999999" stroke-width="1" x1="70" x2="1070" y1="270" y2="270" /><line fill-opacity="0.3" stroke="#999999" stroke-width="1" x1="770" x2="770" y1="1070" y2="70" /><line fill-opacity="0.3" stroke="#999999" stroke-width="1" x1="70" x2="1070" y1="370" y2="370" /><line fill-opacity="0.3" stroke="#999999" stroke-width="1" x1="670" x2="670" y1="1070" y2="70" /><line fill-opacity="0.3" stroke="#999999" stroke-width="1" x1="70" x2="1070" y1="470" y2="470" /><line fill-opacity="0.3" stroke="#999999" stroke-width="1" x1="570" x2="570" y1="1070" y2="70" /><line fill-opacity="0.3" stroke="#999999" stroke-width="1" x1="70" x2="1070" y1="570" y2="570" /><line fill-opacity="0.3" stroke="#999999" stroke-width="1" x1="470" x2="470" y1="1070" y2="70" /><line fill-opacity="0.3" stroke="#999999" stroke-width="1" x1="70" x2="1070" y1="670" y2="670" /><line fill-opacity="0.3" stroke="#999999" stroke-width="1" x1="370" x2="370" y1="1070" y2="70" /><line fill-opacity="0.3" stroke="#999999" stroke-width="1" x1="70" x2="1070" y1="770" y2="770" /><line fill-opacity="0.3" stroke="#999999" stroke-width="1" x1="270" x2="270" y1="1070" y2="70" /><line fill-opacity="0.3" stroke="#999999" stroke-width="1" x1="70" x2="1070" y1="870" y2="870" /><line fill-opacity="0.3" stroke="#999999" stroke-width="1" x1="170" x2="170" y1="1070" y2="70" /><line fill-opacity="0.3" stroke="#999999" stroke-width="1" x1="70" x2="1070" y1="970" y2="970" /><line fill-opacity="0.3" stroke="#000000" stroke-width="1" x1="70" x2="70" y1="1071" y2="69" /><line fill-opacity="0.3" stroke="#000000" stroke-width="1" x1="69" x2="1071" y1="1070" y2="1070" /></g><g class="textos"><text x="1050" y="1110">1000</text><text x="10" y="71">1000</text><text x="950" y="1110">900</text><text x="10" y="171">900</text><text x="850" y="1110">800</text><text x="10" y="271">800</text><text x="750" y="1110">700</text><text x="10" y="371">700</text><text x="650" y="1110">600</text><text x="10" y="471">600</text><text x="550" y="1110">500</text><text x="10" y="571">500</text><text x="450" y="1110">400</text><text x="10" y="671">400</text><text x="350" y="1110">300</text><text x="10" y="771">300</text><text x="250" y="1110">200</text><text x="10" y="871">200</text><text x="150" y="1110">100</text><text x="10" y="971">100</text><text x="50" y="1111">0</text><text x="9" y="1071">0</text></g><g class="especies"><g class="e0"><circle cx="371" cy="769" fill="#ff0000" r="3.5" stroke-width="0" /><circle cx="288" cy="674" fill="#ff0000" r="3.5" stroke-width="0" /><circle cx="447" cy="837" fill="#ff0000" r="3.5" stroke-width="0" /><circle cx="315" cy="708" fill="#ff0000" r="3.5" stroke-width="0" /><circle cx="420" cy="814" fill="#ff0000" r="3.5" stroke-width="0" /><circle cx="382" cy="779" fill="#ff0000" r="3.5" stroke-width="0" /><circle cx="299" cy="688" fill="#ff0000" r="3.5" stroke-width="0" /><circle cx="422" cy="816" fill="#ff0000" r="3.5" stroke-width="0" /><circle cx="295" cy="683" fill="#ff0000" r="3.5" stroke-width="0" /><circle cx="346" cy="743" fill="#ff0000" r="3.5" stroke-width="0" /><circle cx="409" cy="805" fill="#ff0000" r="3.5" stroke-width="0" /><circle cx="316" cy="709" fill="#ff0000" r="3.5" stroke-width="0" /><circle cx="437" cy="829" fill="#ff0000" r="3.5" stroke-width="0" /><circle cx="445" cy="835" fill="#ff0000" r="3.5" stroke-width="0" /><circle cx="327" cy="721" fill="#ff0000" r="3.5" stroke-width="0" /><circle cx="307" cy="698" fill="#ff0000" r="3.5" stroke-width="0" /><circle cx="379" cy="777" fill="#ff0000" r="3.5" stroke-width="0" /><circle cx="399" cy="796" fill="#ff0000" r="3.5" stroke-width="0" /><circle cx="433" cy="825" fill="#ff0000" r="3.5" stroke-width="0" /><circle cx="317" cy="710" fill="#ff0000" r="3.5" stroke-width="0" /><circle cx="300" cy="689" fill="#ff0000" r="3.5" stroke-width="0" /><circle cx="302" cy="692" fill="#ff0000" r="3.5" stroke-width="0" /><circle cx="375" cy="773" fill="#ff0000" r="3.5" stroke-width="0" /><circle cx="297" cy="686" fill="#ff0000" r="3.5" stroke-width="0" /><circle cx="340" cy="736" fill="#ff0000" r="3.5" stroke-width="0" /><circle cx="415" cy="810" fill="#ff0000" r="3.5" stroke-width="0" /><circle cx="464" cy="850" fill="#ff0000" r="3.5" stroke-width="0" /><circle cx="403" cy="799" fill="#ff0000" r="3.5" stroke-width="0" /><circle cx="296" cy="684" fill="#ff0000" r="3.5" stroke-width="0" /><circle cx="448" cy="838" fill="#ff0000" r="3.5" stroke-width="0" /><circle cx="320" cy="714" fill="#ff0000" r="3.5" stroke-width="0" /><circle cx="404" cy="800" fill="#ff0000" r="3.5" stroke-width="0" /><circle cx="414" cy="809" fill="#ff0000" r="3.5" stroke-width="0" /><circle cx="359" cy="756" fill="#ff0000" r="3.5" stroke-width="0" /><circle cx="341" cy="737" fill="#ff0000" r="3.5" stroke-width="0" /><circle cx="413" cy="808" fill="#ff0000" r="3.5" stroke-width="0" /><circle cx="405" cy="801" fill="#ff0000" r="3.5" stroke-width="0" /><circle cx="344" cy="741" fill="#ff0000" r="3.5" stroke-width="0" /><circle cx="391" cy="788" fill="#ff0000" r="3.5" stroke-width="0" /><circle cx="455" cy="843" fill="#ff0000" r="3.5" stroke-width="0" /><circle cx="308" cy="699" fill="#ff0000" r="3.5" stroke-width="0" /><circle cx="459" cy="847" fill="#ff0000" r="3.5" stroke-width="0" /><circle cx="293" cy="680" fill="#ff0000" r="3.5" stroke-width="0" /><circle cx="427" cy="820" fill="#ff0000" r="3.5" stroke-width="0" /><circle cx="438" cy="830" fill="#ff0000" r="3.5" stroke-width="0" /><circle cx="384" cy="781" fill="#ff0000" r="3.5" stroke-width="0" /><circle cx="450" cy="839" fill="#ff0000" r="3.5" stroke-width="0" /></g><g class="e1"><circle cx="484" cy="865" fill="#2b92db" r="3.5" stroke-width="0" /><circle cx="489" cy="869" fill="#2b92db" r="3.5" stroke-width="0" /><circle cx="471" cy="856" fill="#2b92db" r="3.5" stroke-width="0" /><circle cx="480" cy="862" fill="#2b92db" r="3.5" stroke-width="0" /><circle cx="478" cy="861" fill="#2b92db" r="3.5" stroke-width="0" /><circle cx="486" cy="867" fill="#2b92db" r="3.5" stroke-width="0" /><circle cx="476" cy="859" fill="#2b92db" r="3.5" stroke-width="0" /><circle cx="492" cy="871" fill="#2b92db" r="3.5" stroke-width="0" /><circle cx="473" cy="857" fill="#2b92db" r="3.5" stroke-width="0" /></g><g class="e2"><circle cx="284" cy="668" fill="#911eb4" r="3.5" stroke-width="0" /><circle cx="272" cy="652" fill="#911eb4" r="3.5" stroke-width="0" /><circle cx="285" cy="670" fill="#911eb4" r="3.5" stroke-width="0" /></g><g class="e3"><circle cx="511" cy="884" fill="#3cb44B" r="3.5" stroke-width="0" /><circle cx="653" cy="964" fill="#3cb44B" r="3.5" stroke-width="0" /><circle cx="514" cy="886" fill="#3cb44B" r="3.5" stroke-width="0" /><circle cx="638" cy="957" fill="#3cb44B" r="3.5" stroke-width="0" /><circle cx="537" cy="901" fill="#3cb44B" r="3.5" stroke-width="0" /><circle cx="586" cy="930" fill="#3cb44B" r="3.5" stroke-width="0" /><circle cx="603" cy="940" fill="#3cb44B" r="3.5" stroke-width="0" /><circle cx="557" cy="914" fill="#3cb44B" r="3.5" stroke-width="0" /><circle cx="613" cy="945" fill="#3cb44B" r="3.5" stroke-width="0" /><circle cx="531" cy="898" fill="#3cb44B" r="3.5" stroke-width="0" /><circle cx="502" cy="878" fill="#3cb44B" r="3.5" stroke-width="0" /><circle cx="606" cy="941" fill="#3cb44B" r="3.5" stroke-width="0" /><circle cx="528" cy="896" fill="#3cb44B" r="3.5" stroke-width="0" /><circle cx="575" cy="924" fill="#3cb44B" r="3.5" stroke-width="0" /><circle cx="580" cy="927" fill="#3cb44B" r="3.5" stroke-width="0" /><circle cx="600" cy="938" fill="#3cb44B" r="3.5" stroke-width="0" /><circle cx="662" cy="968" fill="#3cb44B" r="3.5" stroke-width="0" /><circle cx="508" cy="882" fill="#3cb44B" r="3.5" stroke-width="0" /><circle cx="566" cy="919" fill="#3cb44B" r="3.5" stroke-width="0" /><circle cx="530" cy="897" fill="#3cb44B" r="3.5" stroke-width="0" /><circle cx="515" cy="887" fill="#3cb44B" r="3.5" stroke-width="0" /><circle cx="559" cy="915" fill="#3cb44B" r="3.5" stroke-width="0" /><circle cx="615" cy="946" fill="#3cb44B" r="3.5" stroke-width="0" /><circle cx="560" cy="916" fill="#3cb44B" r="3.5" stroke-width="0" /><circle cx="520" cy="890" fill="#3cb44B" r="3.5" stroke-width="0" /><circle cx="640" cy="958" fill="#3cb44B" r="3.5" stroke-width="0" /><circle cx="497" cy="875" fill="#3cb44B" r="3.5" stroke-width="0" /><circle cx="655" cy="965" fill="#3cb44B" r="3.5" stroke-width="0" /><circle cx="539" cy="903" fill="#3cb44B" r="3.5" stroke-width="0" /><circle cx="635" cy="956" fill="#3cb44B" r="3.5" stroke-width="0" /><circle cx="626" cy="951" fill="#3cb44B" r="3.5" stroke-width="0" /><circle cx="627" cy="952" fill="#3cb44B" r="3.5" stroke-width="0" /><circle cx="647" cy="961" fill="#3cb44B" r="3.5" stroke-width="0" /><circle cx="593" cy="934" fill="#3cb44B" r="3.5" stroke-width="0" /><circle cx="523" cy="892" fill="#3cb44B" r="3.5" stroke-width="0" /><circle cx="549" cy="909" fill="#3cb44B" r="3.5" stroke-width="0" /><circle cx="612" cy="944" fill="#3cb44B" r="3.5" stroke-width="0" /><circle cx="495" cy="873" fill="#3cb44B" r="3.5" stroke-width="0" /><circle cx="506" cy="881" fill="#3cb44B" r="3.5" stroke-width="0" /><circle cx="571" cy="922" fill="#3cb44B" r="3.5" stroke-width="0" /><circle cx="572" cy="923" fill="#3cb44B" r="3.5" stroke-width="0" /></g><g class="e4"><circle cx="248" cy="617" fill="#ff0000" r="3.5" stroke-width="0" /><circle cx="182" cy="501" fill="#ff0000" r="3.5" stroke-width="0" /><circle cx="259" cy="634" fill="#ff0000" r="3.5" stroke-width="0" /><circle cx="192" cy="521" fill="#ff0000" r="3.5" stroke-width="0" /><circle cx="177" cy="490" fill="#ff0000" r="3.5" stroke-width="0" /><circle cx="216" cy="566" fill="#ff0000" r="3.5" stroke-width="0" /><circle cx="212" cy="558" fill="#ff0000" r="3.5" stroke-width="0" /><circle cx="183" cy="502" fill="#ff0000" r="3.5" stroke-width="0" /><circle cx="234" cy="596" fill="#ff0000" r="3.5" stroke-width="0" /><circle cx="196" cy="529" fill="#ff0000" r="3.5" stroke-width="0" /><circle cx="229" cy="588" fill="#ff0000" r="3.5" stroke-width="0" /><circle cx="249" cy="619" fill="#ff0000" r="3.5" stroke-width="0" /><circle cx="195" cy="526" fill="#ff0000" r="3.5" stroke-width="0" /><circle cx="226" cy="583" fill="#ff0000" r="3.5" stroke-width="0" /><circle cx="190" cy="516" fill="#ff0000" r="3.5" stroke-width="0" /><circle cx="194" cy="525" fill="#ff0000" r="3.5" stroke-width="0" /><circle cx="188" cy="512" fill="#ff0000" r="3.5" stroke-width="0" /><circle cx="206" cy="548" fill="#ff0000" r="3.5" stroke-width="0" /><circle cx="204" cy="543" fill="#ff0000" r="3.5" stroke-width="0" /><circle cx="225" cy="581" fill="#ff0000" r="3.5" stroke-width="0" /><circle cx="207" cy="549" fill="#ff0000" r="3.5" stroke-width="0" /><circle cx="208" cy="551" fill="#ff0000" r="3.5" stroke-width="0" /><circle cx="171" cy="477" fill="#ff0000" r="3.5" stroke-width="0" /><circle cx="175" cy="485" fill="#ff0000" r="3.5" stroke-width="0" /><circle cx="240" cy="605" fill="#ff0000" r="3.5" stroke-width="0" /><circle cx="217" cy="567" fill="#ff0000" r="3.5" stroke-width="0" /><circle cx="189" cy="514" fill="#ff0000" r="3.5" stroke-width="0" /><circle cx="202" cy="540" fill="#ff0000" r="3.5" stroke-width="0" /><circle cx="173" cy="480" fill="#ff0000" r="3.5" stroke-width="0" /><circle cx="230" cy="589" fill="#ff0000" r="3.5" stroke-width="0" /><circle cx="221" cy="574" fill="#ff0000" r="3.5" stroke-width="0" /><circle cx="251" cy="622" fill="#ff0000" r="3.5" stroke-width="0" /><circle cx="199" cy="535" fill="#ff0000" r="3.5" stroke-width="0" /><circle cx="200" cy="536" fill="#ff0000" r="3.5" stroke-width="0" /><circle cx="180" cy="495" fill="#ff0000" r="3.5" stroke-width="0" /><circle cx="224" cy="579" fill="#ff0000" r="3.5" stroke-width="0" /><circle cx="214" cy="562" fill="#ff0000" r="3.5" stroke-width="0" /><circle cx="267" cy="646" fill="#ff0000" r="3.5" stroke-width="0" /></g><g class="e5"><circle cx="762" cy="1006" fill="#2b92db" r="3.5" stroke-width="0" /><circle cx="817" cy="1021" fill="#2b92db" r="3.5" stroke-width="0" /><circle cx="748" cy="1001" fill="#2b92db" r="3.5" stroke-width="0" /><circle cx="787" cy="1013" fill="#2b92db" r="3.5" stroke-width="0" /><circle cx="719" cy="991" fill="#2b92db" r="3.5" stroke-width="0" /><circle cx="703" cy="985" fill="#2b92db" r="3.5" stroke-width="0" /><circle cx="818" cy="1022" fill="#2b92db" r="3.5" stroke-width="0" /><circle cx="727" cy="994" fill="#2b92db" r="3.5" stroke-width="0" /><circle cx="863" cy="1032" fill="#2b92db" r="3.5" stroke-width="0" /><circle cx="790" cy="1014" fill="#2b92db" r="3.5" stroke-width="0" /><circle cx="721" cy="992" fill="#2b92db" r="3.5" stroke-width="0" /><circle cx="774" cy="1009" fill="#2b92db" r="3.5" stroke-width="0" /><circle cx="689" cy="980" fill="#2b92db" r="3.5" stroke-width="0" /><circle cx="670" cy="972" fill="#2b92db" r="3.5" stroke-width="0" /><circle cx="782" cy="1012" fill="#2b92db" r="3.5" stroke-width="0" /><circle cx="680" cy="976" fill="#2b92db" r="3.5" stroke-width="0" /><circle cx="758" cy="1005" fill="#2b92db" r="3.5" stroke-width="0" /><circle cx="697" cy="983" fill="#2b92db" r="3.5" stroke-width="0" /><circle cx="859" cy="1031" fill="#2b92db" r="3.5" stroke-width="0" /><circle cx="713" cy="989" fill="#2b92db" r="3.5" stroke-width="0" /><circle cx="800" cy="1017" fill="#2b92db" r="3.5" stroke-width="0" /><circle cx="848" cy="1029" fill="#2b92db" r="3.5" stroke-width="0" /><circle cx="777" cy="1010" fill="#2b92db" r="3.5" stroke-width="0" /><circle cx="723" cy="993" fill="#2b92db" r="3.5" stroke-width="0" /><circle cx="765" cy="1007" fill="#2b92db" r="3.5" stroke-width="0" /><circle cx="842" cy="1027" fill="#2b92db" r="3.5" stroke-width="0" /><circle cx="688" cy="979" fill="#2b92db" r="3.5" stroke-width="0" /><circle cx="809" cy="1019" fill="#2b92db" r="3.5" stroke-width="0" /><circle cx="768" cy="1008" fill="#2b92db" r="3.5" stroke-width="0" /><circle cx="717" cy="990" fill="#2b92db" r="3.5" stroke-width="0" /><circle cx="846" cy="1028" fill="#2b92db" r="3.5" stroke-width="0" /><circle cx="778" cy="1011" fill="#2b92db" r="3.5" stroke-width="0" /></g><g class="e6"><circle cx="109" cy="280" fill="#911eb4" r="3.5" stroke-width="0" /><circle cx="142" cy="401" fill="#911eb4" r="3.5" stroke-width="0" /><circle cx="140" cy="396" fill="#911eb4" r="3.5" stroke-width="0" /><circle cx="143" cy="406" fill="#911eb4" r="3.5" stroke-width="0" /><circle cx="115" cy="306" fill="#911eb4" r="3.5" stroke-width="0" /><circle cx="146" cy="412" fill="#911eb4" r="3.5" stroke-width="0" /><circle cx="145" cy="410" fill="#911eb4" r="3.5" stroke-width="0" /><circle cx="124" cy="343" fill="#911eb4" r="3.5" stroke-width="0" /><circle cx="116" cy="312" fill="#911eb4" r="3.5" stroke-width="0" /><circle cx="160" cy="450" fill="#911eb4" r="3.5" stroke-width="0" /><circle cx="135" cy="379" fill="#911eb4" r="3.5" stroke-width="0" /><circle cx="136" cy="383" fill="#911eb4" r="3.5" stroke-width="0" /><circle cx="155" cy="436" fill="#911eb4" r="3.5" stroke-width="0" /><circle cx="112" cy="296" fill="#911eb4" r="3.5" stroke-width="0" /><circle cx="127" cy="353" fill="#911eb4" r="3.5" stroke-width="0" /><circle cx="111" cy="289" fill="#911eb4" r="3.5" stroke-width="0" /><circle cx="110" cy="287" fill="#911eb4" r="3.5" stroke-width="0" /><circle cx="166" cy="465" fill="#911eb4" r="3.5" stroke-width="0" /><circle cx="121" cy="333" fill="#911eb4" r="3.5" stroke-width="0" /><circle cx="113" cy="301" fill="#911eb4" r="3.5" stroke-width="0" /><circle cx="154" cy="435" fill="#911eb4" r="3.5" stroke-width="0" /><circle cx="130" cy="364" fill="#911eb4" r="3.5" stroke-width="0" /><circle cx="125" cy="347" fill="#911eb4" r="3.5" stroke-width="0" /><circle cx="107" cy="271" fill="#911eb4" r="3.5" stroke-width="0" /><circle cx="165" cy="462" fill="#911eb4" r="3.5" stroke-width="0" /><circle cx="167" cy="466" fill="#911eb4" r="3.5" stroke-width="0" /><circle cx="168" cy="469" fill="#911eb4" r="3.5" stroke-width="0" /><circle cx="123" cy="341" fill="#911eb4" r="3.5" stroke-width="0" /><circle cx="157" cy="443" fill="#911eb4" r="3.5" stroke-width="0" /><circle cx="108" cy="277" fill="#911eb4" r="3.5" stroke-width="0" /><circle cx="118" cy="320" fill="#911eb4" r="3.5" stroke-width="0" /><circle cx="122" cy="335" fill="#911eb4" r="3.5" stroke-width="0" /></g><g class="e7"><circle cx="986" cy="1048" fill="#3cb44B" r="3.5" stroke-width="0" /><circle cx="967" cy="1046" fill="#3cb44B" r="3.5" stroke-width="0" /><circle cx="920" cy="1041" fill="#3cb44B" r="3.5" stroke-width="0" /><circle cx="936" cy="1043" fill="#3cb44B" r="3.5" stroke-width="0" /><circle cx="875" cy="1034" fill="#3cb44B" r="3.5" stroke-width="0" /><circle cx="970" cy="1047" fill="#3cb44B" r="3.5" stroke-width="0" /><circle cx="1036" cy="1050" fill="#3cb44B" r="3.5" stroke-width="0" /><circle cx="997" cy="1049" fill="#3cb44B" r="3.5" stroke-width="0" /><circle cx="955" cy="1045" fill="#3cb44B" r="3.5" stroke-width="0" /><circle cx="892" cy="1037" fill="#3cb44B" r="3.5" stroke-width="0" /><circle cx="901" cy="1038" fill="#3cb44B" r="3.5" stroke-width="0" /><circle cx="883" cy="1035" fill="#3cb44B" r="3.5" stroke-width="0" /><circle cx="885" cy="1036" fill="#3cb44B" r="3.5" stroke-width="0" /><circle cx="947" cy="1044" fill="#3cb44B" r="3.5" stroke-width="0" /><circle cx="904" cy="1039" fill="#3cb44B" r="3.5" stroke-width="0" /><circle cx="929" cy="1042" fill="#3cb44B" r="3.5" stroke-width="0" /></g><g class="e8"><circle cx="105" cy="258" fill="#ff0000" r="3.5" stroke-width="0" /><circle cx="98" cy="217" fill="#ff0000" r="3.5" stroke-width="0" /><circle cx="91" cy="141" fill="#ff0000" r="3.5" stroke-width="0" /><circle cx="103" cy="247" fill="#ff0000" r="3.5" stroke-width="0" /><circle cx="106" cy="266" fill="#ff0000" r="3.5" stroke-width="0" /><circle cx="100" cy="228" fill="#ff0000" r="3.5" stroke-width="0" /><circle cx="96" cy="193" fill="#ff0000" r="3.5" stroke-width="0" /><circle cx="93" cy="164" fill="#ff0000" r="3.5" stroke-width="0" /><circle cx="104" cy="252" fill="#ff0000" r="3.5" stroke-width="0" /><circle cx="99" cy="224" fill="#ff0000" r="3.5" stroke-width="0" /><circle cx="90" cy="105" fill="#ff0000" r="3.5" stroke-width="0" /><circle cx="94" cy="180" fill="#ff0000" r="3.5" stroke-width="0" /><circle cx="101" cy="235" fill="#ff0000" r="3.5" stroke-width="0" /><circle cx="92" cy="148" fill="#ff0000" r="3.5" stroke-width="0" /><circle cx="102" cy="242" fill="#ff0000" r="3.5" stroke-width="0" /><circle cx="97" cy="202" fill="#ff0000" r="3.5" stroke-width="0" /><circle cx="95" cy="190" fill="#ff0000" r="3.5" stroke-width="0" /></g></g></g></svg>