<?xml version="1.0" encoding="utf-8" ?>
<svg baseProfile="full" height="1140px" style="font-size:15;font-family:Arial, san-serif;font-weight:bold;stroke:black;stroke-width:0;fill:#444444" version="1.1" width="1140px" xmlns="http://www.w3.org/2000/svg" xmlns:ev="http://www.w3.org/2001/xml-events" xmlns:xlink="http://www.w3.org/1999/xlink"><defs><clipPath id="areadografico"><rect height="1000" width="1000" x="70" y="70" /></clipPath></defs><g class="master"><g class="poligonos"><polygon clip-path="url(#areadografico)" fill="#000000" fill-opacity="0.1" points="70,1070 70,870 269,871 270,670 469,671 470,470 669,471 670,270 869,271 870,70 1069,71 1069,71 1069,271 869,271 869,471 669,471 669,671 469,671 469,871 269,871 270,1070" /><polygon clip-path="url(#areadografico)" fill="#ffffff" fill-opacity="0.1" points="270,1070 270,870 469,871 470,670 669,671 670,470 869,471 870,270 1069,271 1069,271 1069,471 869,471 869,671 669,671 669,871 469,871 470,1070" /><polygon clip-path="url(#areadografico)" fill="#ffffff" fill-opacity="0.1" points="70,870 270,870 269,671 470,670 469,471 670,470 669,271 870,270 869,71 869,71 669,71 669,271 469,271 469,471 269,471 269,671 70,670" /><polygon clip-path="url(#areadografico)" fill="#000000" fill-opacity="0.1" points="470,1070 470,870 669,871 670,670 869,671 870,470 1069,471 1069,471 1069,671 869,671 869,871 669,871 670,1070" /><polygon clip-path="url(#areadografico)" fill="#000000" fill-opacity="0.1" points="70,670 270,670 269,471 470,470 469,271 670,270 669,71 669,71 469,71 469,271 269,271 269,471 70,470" /><polygon clip-path="url(#areadografico)" fill="#ffffff" fill-opacity="0.1" points="670,1070 670,870 869,871 870,670 1069,671 1069,671 1069,871 869,871 870,1070" /><polygon clip-path="url(#areadografico)" fill="#ffffff" fill-opacity="0.1" points="70,470 270,470 269,271 470,270 469,71 469,71 269,71 269,271 70,270" /><polygon clip-path="url(#areadografico)" fill="#000000" fill-opacity="0.1" points="870,1070 870,870 1069,871 1069,1070" /><polygon clip-path="url(#areadografico)" fill="#000000" fill-opacity="0.1" points="70,270 270,270 269,71 70,71" /></g><g class="linhas"><line fill-opacity="0.3" stroke="#999999" stroke-width="1" x1="1070" x2="1070" y1="1070" y2="70" /><line fill-opacity="0.3" stroke="#999999" stroke-width="1" x1="70" x2="1070" y1="70" y2="70" /><line fill-opacity="0.3" stroke="#999999" stroke-width="1" x1="970" x2="970" y1="1070" y2="70" /><line fill-opacity="0.3" stroke="#999999" stroke-width="1" x1="70" x2="1070" y1="170" y2="170" /><line fill-opacity="0.3" stroke="#999999" stroke-width="1" x1="870" x2="870" y1="1070" y2="70" /><line fill-opacity="0.3" stroke="#999999" stroke-width="1" x1="70" x2="1070" y1="270" y2="270" /><line fill-opacity="0.3" stroke="#999999" stroke-width="1" x1="770" x2="770" y1="1070" y2="70" /><line fill-opacity="0.3" stroke="#999999" stroke-width="1" x1="70" x2="1070" y1="370" y2="370" /><line fill-opacity="0.3" stroke="#999999" stroke-width="1" x1="670" x2="670" y1="1070" y2="70" /><line fill-opacity="0.3" stroke="#999999" stroke-width="1" x1="70" x2="1070" y1="470" y2="470" /><line fill-opacity="0.3" stroke="#999999" stroke-width="1" x1="570" x2="570" y1="1070" y2="70" /><line fill-opacity="0.3" stroke="#999999" stroke-width="1" x1="70" x2="1070" y1="570" y2="570" /><line fill-opacity="0.3" stroke="#999999" stroke-width="1" x1="470" x2="470" y1="1070" y2="70" /><line fill-opacity="0.3" stroke="#999999" stroke-width="1" x1="70" x2="1070" y1="670" y2="670" /><line fill-opacity="0.3" stroke="#999999" stroke-width="1" x1="370" x2="370" y1="1070" y2="70" /><line fill-opacity="0.3" stroke="#999999" stroke-width="1" x1="70" x2="1070" y1="770" y2="770" /><line fill-opacity="0.3" stroke="#999999" stroke-width="1" x1="270" x2="270" y1="1070" y2="70" /><line fill-opacity="0.3" stroke="#999999" stroke-width="1" x1="70" x2="1070" y1="870" y2="870" /><line fill-opacity="0.3" stroke="#999999" stroke-width="1" x1="170" x2="170" y1="1070" y2="70" /><line fill-opacity="0.3" stroke="#999999" stroke-width="1" x1="70" x2="1070" y1="970" y2="970" /><line fill-opacity="0.3" stroke="#000000" stroke-width="1" x1="70" x2="70" y1="1071" y2="69" /><line fill-opacity="0.3" stroke="#000000" stroke-width="1" x1="69" x2="1071" y1="1070" y2="1070" /></g><g class="textos"><text x="1050" y="1110">1000</text><text x="10" y="71">1000</text><text x="950" y="1110">900</text><text x="10" y="171">900</text><text x="850" y="1110">800</text><text x="10" y="271">800</text><text x="750" y="1110">700</text><text x="10" y="371">700</text><text x="650" y="1110">600</text><text x="10" y="471">600</text><text x="550" y="1110">500</text><text x="10" y="571">500</text><text x="450" y="1110">400</text><text x="10" y="671">400</text><text x="350" y="1110">300</text><text x="10" y="771">300</text><text x="250" y="1110">200</text><text x="10" y="871">200</text><text x="150" y="1110">100</text><text x="10" y="971">100</text><text x="50" y="1111">0</text><text x="9" y="1071">0</text></g><g class="especies"><g class="e0"><circle cx="459" cy="847" fill="#ff0000" r="3.5" stroke-width="0" /><circle cx="361" cy="759" fill="#ff0000" r="3.5" stroke-width="0" /><circle cx="334" cy="729" fill="#ff0000" r="3.5" stroke-width="0" /><circle cx="294" cy="682" fill="#ff0000" r="3.5" stroke-width="0" /><circle cx="393" cy="790" fill="#ff0000" r="3.5" stroke-width="0" /><circle cx="409" cy="805" fill="#ff0000" r="3.5" stroke-width="0" /><circle cx="386" cy="783" fill="#ff0000" r="3.5" stroke-width="0" /><circle cx="405" cy="801" fill="#ff0000" r="3.5" stroke-width="0" /><circle cx="412" cy="807" fill="#ff0000" r="3.5" stroke-width="0" /><circle cx="320" cy="713" fill="#ff0000" r="3.5" stroke-width="0" /><circle cx="426" cy="820" fill="#ff0000" r="3.5" stroke-width="0" /><circle cx="446" cy="836" fill="#ff0000" r="3.5" stroke-width="0" /><circle cx="326" cy="720" fill="#ff0000" r="3.5" stroke-width="0" /><circle cx="357" cy="754" fill="#ff0000" r="3.5" stroke-width="0" /><circle cx="433" cy="825" fill="#ff0000" r="3.5" stroke-width="0" /><circle cx="448" cy="838" fill="#ff0000" r="3.5" stroke-width="0" /><circle cx="340" cy="736" fill="#ff0000" r="3.5" stroke-width="0" /><circle cx="315" cy="707" fill="#ff0000" r="3.5" stroke-width="0" /><circle cx="421" cy="815" fill="#ff0000" r="3.5" stroke-width="0" /><circle cx="422" cy="816" fill="#ff0000" r="3.5" stroke-width="0" /><circle cx="292" cy="679" fill="#ff0000" r="3.5" stroke-width="0" /><circle cx="453" cy="842" fill="#ff0000" r="3.5" stroke-width="0" /><circle cx="287" cy="673" fill="#ff0000" r="3.5" stroke-width="0" /><circle cx="403" cy="799" fill="#ff0000" r="3.5" stroke-width="0" /><circle cx="434" cy="826" fill="#ff0000" r="3.5" stroke-width="0" /><circle cx="367" cy="765" fill="#ff0000" r="3.5" stroke-width="0" /><circle cx="447" cy="837" fill="#ff0000" r="3.5" stroke-width="0" /><circle cx="410" cy="806" fill="#ff0000" r="3.5" stroke-width="0" /></g><g class="e1" /><g class="e2"><circle cx="269" cy="648" fill="#911eb4" r="3.5" stroke-width="0" /><circle cx="278" cy="660" fill="#911eb4" r="3.5" stroke-width="0" /></g><g class="e3"><circle cx="521" cy="891" fill="#3cb44B" r="3.5" stroke-width="0" /><circle cx="523" cy="892" fill="#3cb44B" r="3.5" stroke-width="0" /><circle cx="508" cy="882" fill="#3cb44B" r="3.5" stroke-width="0" /><circle cx="609" cy="943" fill="#3cb44B" r="3.5" stroke-width="0" /><circle cx="550" cy="910" fill="#3cb44B" r="3.5" stroke-width="0" /><circle cx="650" cy="963" fill="#3cb44B" r="3.5" stroke-width="0" /><circle cx="666" cy="970" fill="#3cb44B" r="3.5" stroke-width="0" /><circle cx="552" cy="911" fill="#3cb44B" r="3.5" stroke-width="0" /><circle cx="662" cy="968" fill="#3cb44B" r="3.5" stroke-width="0" /><circle cx="512" cy="885" fill="#3cb44B" r="3.5" stroke-width="0" /><circle cx="529" cy="896" fill="#3cb44B" r="3.5" stroke-width="0" /><circle cx="649" cy="962" fill="#3cb44B" r="3.5" stroke-width="0" /><circle cx="646" cy="961" fill="#3cb44B" r="3.5" stroke-width="0" /><circle cx="669" cy="971" fill="#3cb44B" r="3.5" stroke-width="0" /><circle cx="544" cy="906" fill="#3cb44B" r="3.5" stroke-width="0" /><circle cx="663" cy="969" fill="#3cb44B" r="3.5" stroke-width="0" /><circle cx="655" cy="965" fill="#3cb44B" r="3.5" stroke-width="0" /><circle cx="587" cy="931" fill="#3cb44B" r="3.5" stroke-width="0" /><circle cx="593" cy="934" fill="#3cb44B" r="3.5" stroke-width="0" /><circle cx="604" cy="940" fill="#3cb44B" r="3.5" stroke-width="0" /><circle cx="641" cy="959" fill="#3cb44B" r="3.5" stroke-width="0" /><circle cx="561" cy="916" fill="#3cb44B" r="3.5" stroke-width="0" /></g><g class="e4"><circle cx="186" cy="509" fill="#ff0000" r="3.5" stroke-width="0" /><circle cx="205" cy="546" fill="#ff0000" r="3.5" stroke-width="0" /><circle cx="251" cy="622" fill="#ff0000" r="3.5" stroke-width="0" /><circle cx="223" cy="577" fill="#ff0000" r="3.5" stroke-width="0" /><circle cx="257" cy="631" fill="#ff0000" r="3.5" stroke-width="0" /><circle cx="225" cy="581" fill="#ff0000" r="3.5" stroke-width="0" /><circle cx="190" cy="517" fill="#ff0000" r="3.5" stroke-width="0" /><circle cx="204" cy="544" fill="#ff0000" r="3.5" stroke-width="0" /><circle cx="242" cy="608" fill="#ff0000" r="3.5" stroke-width="0" /><circle cx="224" cy="579" fill="#ff0000" r="3.5" stroke-width="0" /><circle cx="185" cy="506" fill="#ff0000" r="3.5" stroke-width="0" /><circle cx="260" cy="635" fill="#ff0000" r="3.5" stroke-width="0" /><circle cx="238" cy="602" fill="#ff0000" r="3.5" stroke-width="0" /><circle cx="200" cy="536" fill="#ff0000" r="3.5" stroke-width="0" /><circle cx="192" cy="520" fill="#ff0000" r="3.5" stroke-width="0" /><circle cx="252" cy="624" fill="#ff0000" r="3.5" stroke-width="0" /><circle cx="229" cy="588" fill="#ff0000" r="3.5" stroke-width="0" /><circle cx="206" cy="547" fill="#ff0000" r="3.5" stroke-width="0" /><circle cx="184" cy="505" fill="#ff0000" r="3.5" stroke-width="0" /><circle cx="264" cy="641" fill="#ff0000" r="3.5" stroke-width="0" /><circle cx="247" cy="616" fill="#ff0000" r="3.5" stroke-width="0" /><circle cx="195" cy="526" fill="#ff0000" r="3.5" stroke-width="0" /><circle cx="193" cy="523" fill="#ff0000" r="3.5" stroke-width="0" /><circle cx="183" cy="502" fill="#ff0000" r="3.5" stroke-width="0" /></g><g class="e5"><circle cx="725" cy="993" fill="#2b92db" r="3.5" stroke-width="0" /><circle cx="807" cy="1019" fill="#2b92db" r="3.5" stroke-width="0" /><circle cx="772" cy="1009" fill="#2b92db" r="3.5" stroke-width="0" /><circle cx="736" cy="997" fill="#2b92db" r="3.5" stroke-width="0" /><circle cx="684" cy="977" fill="#2b92db" r="3.5" stroke-width="0" /><circle cx="859" cy="1031" fill="#2b92db" r="3.5" stroke-width="0" /><circle cx="675" cy="974" fill="#2b92db" r="3.5" stroke-width="0" /><circle cx="681" cy="976" fill="#2b92db" r="3.5" stroke-width="0" /><circle cx="811" cy="1020" fill="#2b92db" r="3.5" stroke-width="0" /><circle cx="832" cy="1025" fill="#2b92db" r="3.5" stroke-width="0" /><circle cx="688" cy="979" fill="#2b92db" r="3.5" stroke-width="0" /><circle cx="786" cy="1013" fill="#2b92db" r="3.5" stroke-width="0" /><circle cx="779" cy="1011" fill="#2b92db" r="3.5" stroke-width="0" /><circle cx="707" cy="987" fill="#2b92db" r="3.5" stroke-width="0" /><circle cx="678" cy="975" fill="#2b92db" r="3.5" stroke-width="0" /><circle cx="819" cy="1022" fill="#2b92db" r="3.5" stroke-width="0" /><circle cx="704" cy="985" fill="#2b92db" r="3.5" stroke-width="0" /><circle cx="789" cy="1014" fill="#2b92db" r="3.5" stroke-width="0" /><circle cx="868" cy="1033" fill="#2b92db" r="3.5" stroke-width="0" /><circle cx="838" cy="1026" fill="#2b92db" r="3.5" stroke-width="0" /><circle cx="721" cy="992" fill="#2b92db" r="3.5" stroke-width="0" /><circle cx="720" cy="991" fill="#2b92db" r="3.5" stroke-width="0" /><circle cx="800" cy="1017" fill="#2b92db" r="3.5" stroke-width="0" /><circle cx="866" cy="1032" fill="#2b92db" r="3.5" stroke-width="0" /><circle cx="690" cy="980" fill="#2b92db" r="3.5" stroke-width="0" /><circle cx="673" cy="973" fill="#2b92db" r="3.5" stroke-width="0" /><circle cx="745" cy="1000" fill="#2b92db" r="3.5" stroke-width="0" /></g><g class="e6"><circle cx="113" cy="298" fill="#911eb4" r="3.5" stroke-width="0" /><circle cx="138" cy="390" fill="#911eb4" r="3.5" stroke-width="0" /><circle cx="116" cy="310" fill="#911eb4" r="3.5" stroke-width="0" /><circle cx="146" cy="414" fill="#911eb4" r="3.5" stroke-width="0" /><circle cx="136" cy="385" fill="#911eb4" r="3.5" stroke-width="0" /><circle cx="108" cy="277" fill="#911eb4" r="3.5" stroke-width="0" /><circle cx="168" cy="469" fill="#911eb4" r="3.5" stroke-width="0" /><circle cx="160" cy="451" fill="#911eb4" r="3.5" stroke-width="0" /><circle cx="165" cy="461" fill="#911eb4" r="3.5" stroke-width="0" /><circle cx="137" cy="387" fill="#911eb4" r="3.5" stroke-width="0" /><circle cx="115" cy="306" fill="#911eb4" r="3.5" stroke-width="0" /><circle cx="149" cy="422" fill="#911eb4" r="3.5" stroke-width="0" /><circle cx="111" cy="291" fill="#911eb4" r="3.5" stroke-width="0" /><circle cx="141" cy="400" fill="#911eb4" r="3.5" stroke-width="0" /><circle cx="148" cy="419" fill="#911eb4" r="3.5" stroke-width="0" /><circle cx="144" cy="408" fill="#911eb4" r="3.5" stroke-width="0" /><circle cx="112" cy="296" fill="#911eb4" r="3.5" stroke-width="0" /><circle cx="133" cy="375" fill="#911eb4" r="3.5" stroke-width="0" /><circle cx="118" cy="320" fill="#911eb4" r="3.5" stroke-width="0" /><circle cx="109" cy="282" fill="#911eb4" r="3.5" stroke-width="0" /><circle cx="142" cy="401" fill="#911eb4" r="3.5" stroke-width="0" /><circle cx="123" cy="339" fill="#911eb4" r="3.5" stroke-width="0" /><circle cx="163" cy="456" fill="#911eb4" r="3.5" stroke-width="0" /><circle cx="134" cy="376" fill="#911eb4" r="3.5" stroke-width="0" /><circle cx="152" cy="430" fill="#911eb4" r="3.5" stroke-width="0" /></g><g class="e7"><circle cx="987" cy="1048" fill="#3cb44B" r="3.5" stroke-width="0" /><circle cx="965" cy="1046" fill="#3cb44B" r="3.5" stroke-width="0" /><circle cx="956" cy="1045" fill="#3cb44B" r="3.5" stroke-width="0" /><circle cx="885" cy="1036" fill="#3cb44B" r="3.5" stroke-width="0" /><circle cx="893" cy="1037" fill="#3cb44B" r="3.5" stroke-width="0" /><circle cx="1017" cy="1049" fill="#3cb44B" r="3.5" stroke-width="0" /><circle cx="935" cy="1043" fill="#3cb44B" r="3.5" stroke-width="0" /><circle cx="882" cy="1035" fill="#3cb44B" r="3.5" stroke-width="0" /><circle cx="904" cy="1039" fill="#3cb44B" r="3.5" stroke-width="0" /><circle cx="943" cy="1044" fill="#3cb44B" r="3.5" stroke-width="0" /><circle cx="976" cy="1047" fill="#3cb44B" r="3.5" stroke-width="0" /><circle cx="1047" cy="1050" fill="#3cb44B" r="3.5" stroke-width="0" /><circle cx="918" cy="1041" fill="#3cb44B" r="3.5" stroke-width="0" /></g><g class="e8"><circle cx="101" cy="237" fill="#ff0000" r="3.5" stroke-width="0" /><circle cx="90" cy="106" fill="#ff0000" r="3.5" stroke-width="0" /><circle cx="96" cy="195" fill="#ff0000" r="3.5" stroke-width="0" /><circle cx="92" cy="153" fill="#ff0000" r="3.5" stroke-width="0" /><circle cx="95" cy="191" fill="#ff0000" r="3.5" stroke-width="0" /><circle cx="103" cy="249" fill="#ff0000" r="3.5" stroke-width="0" /><circle cx="94" cy="180" fill="#ff0000" r="3.5" stroke-width="0" /><circle cx="98" cy="211" fill="#ff0000" r="3.5" stroke-width="0" /><circle cx="91" cy="134" fill="#ff0000" r="3.5" stroke-width="0" /><circle cx="107" cy="269" fill="#ff0000" r="3.5" stroke-width="0" /><circle cx="106" cy="266" fill="#ff0000" r="3.5" stroke-width="0" /><circle cx="102" cy="244" fill="#ff0000" r="3.5" stroke-width="0" /><circle cx="93" cy="168" fill="#ff0000" r="3.5" stroke-width="0" /><circle cx="100" cy="227" fill="#ff0000" r="3.5" stroke-width="0" /></g></g></g></svg>