<?xml version="1.0" encoding="utf-8" ?>
<svg baseProfile="full" height="1140px" style="font-size:15;font-family:Arial, san-serif;font-weight:bold;stroke:black;stroke-width:0;fill:#444444" version="1.1" width="1140px" xmlns="http://www.w3.org/2000/svg" xmlns:ev="http://www.w3.org/2001/xml-events" xmlns:xlink="http://www.w3.org/1999/xlink"><defs><clipPath id="areadografico"><rect height="1000" width="1000" x="70" y="70" /></clipPath></defs><g class="master"><g class="poligonos"><polygon clip-path="url(#areadografico)" fill="#000000" fill-opacity="0.1" points="70,1070 70,870 269,871 270,670 469,671 470,470 669,471 670,270 869,271 870,70 1069,71 1069,71 1069,271 869,271 869,471 669,471 669,671 469,671 469,871 269,871 270,1070" /><polygon clip-path="url(#areadografico)" fill="#ffffff" fill-opacity="0.1" points="270,1070 270,870 469,871 470,670 669,671 670,470 869,471 870,270 1069,271 1069,271 1069,471 869,471 869,671 669,671 669,871 469,871 470,1070" /><polygon clip-path="url(#areadografico)" fill="#ffffff" fill-opacity="0.1" points="70,870 270,870 269,671 470,670 469,471 670,470 669,271 870,270 869,71 869,71 669,71 669,271 469,271 469,471 269,471 269,671 70,670" /><polygon clip-path="url(#areadografico)" fill="#000000" fill-opacity="0.1" points="470,1070 470,870 669,871 670,670 869,671 870,470 1069,471 1069,471 1069,671 869,671 869,871 669,871 670,1070" /><polygon clip-path="url(#areadografico)" fill="#000000" fill-opacity="0.1" points="70,670 270,670 269,471 470,470 469,271 670,270 669,71 669,71 469,71 469,271 269,271 269,471 70,470" /><polygon clip-path="url(#areadografico)" fill="#ffffff" fill-opacity="0.1" points="670,1070 670,870 869,871 870,670 1069,671 1069,671 1069,871 869,871 870,1070" /><polygon clip-path="url(#areadografico)" fill="#ffffff" fill-opacity="0.1" points="70,470 270,470 269,271 470,270 469,71 469,71 269,71 269,271 70,270" /><polygon clip-path="url(#areadografico)" fill="#000000" fill-opacity="0.1" points="870,1070 870,870 1069,871 1069,1070" /><polygon clip-path="url(#areadografico)" fill="#000000" fill-opacity="0.1" points="70,270 270,270 269,71 70,71" /></g><g class="linhas"><line fill-opacity="0.3" stroke="#999999" stroke-width="1" x1="1070" x2="1070" y1="1070" y2="70" /><line fill-opacity="0.3" stroke="#999999" stroke-width="1" x1="70" x2="1070" y1="70" y2="70" /><line fill-opacity="0.3" stroke="#999999" stroke-width="1" x1="970" x2="970" y1="1070" y2="70" /><line fill-opacity="0.3" stroke="#999999" stroke-width="1" x1="70" x2="1070" y1="170" y2="170" /><line fill-opacity="0.3" stroke="#999999" stroke-width="1" x1="870" x2="870" y1="1070" y2="70" /><line fill-opacity="0.3" stroke="#999999" stroke-width="1" x1="70" x2="1070" y1="270" y2="270" /><line fill-opacity="0.3" stroke="#999999" stroke-width="1" x1="770" x2="770" y1="1070" y2="70" /><line fill-opacity="0.3" stroke="#999999" stroke-width="1" x1="70" x2="1070" y1="370" y2="370" /><line fill-opacity="0.3" stroke="#999999" stroke-width="1" x1="670" x2="670" y1="1070" y2="70" /><line fill-opacity="0.3" stroke="#999999" stroke-width="1" x1="70" x2="1070" y1="470" y2="470" /><line fill-opacity="0.3" stroke="#999999" stroke-width="1" x1="570" x2="570" y1="1070" y2="70" /><line fill-opacity="0.3" stroke="#999999" stroke-width="1" x1="70" x2="1070" y1="570" y2="570" /><line fill-opacity="0.3" stroke="#999999" stroke-width="1" x1="470" x2="470" y1="1070" y2="70" /><line fill-opacity="0.3" stroke="#999999" stroke-width="1" x1="70" x2="1070" y1="670" y2="670" /><line fill-opacity="0.3" stroke="#999999" stroke-width="1" x1="370" x2="370" y1="1070" y2="70" /><line fill-opacity="0.3" stroke="#999999" stroke-width="1" x1="70" x2="1070" y1="770" y2="770" /><line fill-opacity="0.3" stroke="#999999" stroke-width="1" x1="270" x2="270" y1="1070" y2="70" /><line fill-opacity="0.3" stroke="#999999" stroke-width="1" x1="70" x2="1070" y1="870" y2="870" /><line fill-opacity="0.3" stroke="#999999" stroke-width="1" x1="170" x2="170" y1="1070" y2="70" /><line fill-opacity="0.3" stroke="#999999" stroke-width="1" x1="70" x2="1070" y1="970" y2="970" /><line fill-opacity="0.3" stroke="#000000" stroke-width="1" x1="70" x2="70" y1="1071" y2="69" /><line fill-opacity="0.3" stroke="#000000" stroke-width="1" x1="69" x2="1071" y1="1070" y2="1070" /></g><g class="textos"><text x="1050" y="1110">1000</text><text x="10" y="71">1000</text><text x="950" y="1110">900</text><text x="10" y="171">900</text><text x="850" y="1110">800</text><text x="10" y="271">800</text><text x="750" y="1110">700</text><text x="10" y="371">700</text><text x="650" y="1110">600</text><text x="10" y="471">600</text><text x="550" y="1110">500</text><text x="10" y="571">500</text><text x="450" y="1110">400</text><text x="10" y="671">400</text><text x="350" y="1110">300</text><text x="10" y="771">300</text><text x="250" y="1110">200</text><text x="10" y="871">200</text><text x="150" y="1110">100</text><text x="10" y="971">100</text><text x="50" y="1111">0</text><text x="9" y="1071">0</text></g><g class="especies"><g class="e0"><circle cx="378" cy="776" fill="#ff0000" r="3.5" stroke-width="0" /><circle cx="298" cy="687" fill="#ff0000" r="3.5" stroke-width="0" /><circle cx="445" cy="835" fill="#ff0000" r="3.5" stroke-width="0" /><circle cx="303" cy="693" fill="#ff0000" r="3.5" stroke-width="0" /><circle cx="414" cy="809" fill="#ff0000" r="3.5" stroke-width="0" /><circle cx="332" cy="727" fill="#ff0000" r="3.5" stroke-width="0" /><circle cx="316" cy="709" fill="#ff0000" r="3.5" stroke-width="0" /><circle cx="317" cy="710" fill="#ff0000" r="3.5" stroke-width="0" /><circle cx="438" cy="830" fill="#ff0000" r="3.5" stroke-width="0" /><circle cx="463" cy="850" fill="#ff0000" r="3.5" stroke-width="0" /><circle cx="409" cy="805" fill="#ff0000" r="3.5" stroke-width="0" /><circle cx="448" cy="838" fill="#ff0000" r="3.5" stroke-width="0" /><circle cx="343" cy="739" fill="#ff0000" r="3.5" stroke-width="0" /><circle cx="301" cy="690" fill="#ff0000" r="3.5" stroke-width="0" /><circle cx="391" cy="788" fill="#ff0000" r="3.5" stroke-width="0" /><circle cx="290" cy="677" fill="#ff0000" r="3.5" stroke-width="0" /><circle cx="403" cy="799" fill="#ff0000" r="3.5" stroke-width="0" /><circle cx="454" cy="843" fill="#ff0000" r="3.5" stroke-width="0" /><circle cx="447" cy="837" fill="#ff0000" r="3.5" stroke-width="0" /><circle cx="314" cy="706" fill="#ff0000" r="3.5" stroke-width="0" /><circle cx="310" cy="701" fill="#ff0000" r="3.5" stroke-width="0" /><circle cx="446" cy="836" fill="#ff0000" r="3.5" stroke-width="0" /><circle cx="335" cy="731" fill="#ff0000" r="3.5" stroke-width="0" /><circle cx="323" cy="717" fill="#ff0000" r="3.5" stroke-width="0" /><circle cx="327" cy="722" fill="#ff0000" r="3.5" stroke-width="0" /><circle cx="371" cy="769" fill="#ff0000" r="3.5" stroke-width="0" /><circle cx="305" cy="695" fill="#ff0000" r="3.5" stroke-width="0" /><circle cx="413" cy="808" fill="#ff0000" r="3.5" stroke-width="0" /><circle cx="452" cy="841" fill="#ff0000" r="3.5" stroke-width="0" /><circle cx="424" cy="818" fill="#ff0000" r="3.5" stroke-width="0" /><circle cx="422" cy="816" fill="#ff0000" r="3.5" stroke-width="0" /></g><g class="e1"><circle cx="487" cy="868" fill="#2b92db" r="3.5" stroke-width="0" /><circle cx="481" cy="863" fill="#2b92db" r="3.5" stroke-width="0" /><circle cx="489" cy="869" fill="#2b92db" r="3.5" stroke-width="0" /><circle cx="478" cy="861" fill="#2b92db" r="3.5" stroke-width="0" /><circle cx="471" cy="856" fill="#2b92db" r="3.5" stroke-width="0" /></g><g class="e2"><circle cx="275" cy="656" fill="#911eb4" r="3.5" stroke-width="0" /><circle cx="284" cy="669" fill="#911eb4" r="3.5" stroke-width="0" /><circle cx="280" cy="663" fill="#911eb4" r="3.5" stroke-width="0" /><circle cx="276" cy="658" fill="#911eb4" r="3.5" stroke-width="0" /></g><g class="e3"><circle cx="606" cy="941" fill="#3cb44B" r="3.5" stroke-width="0" /><circle cx="587" cy="931" fill="#3cb44B" r="3.5" stroke-width="0" /><circle cx="636" cy="956" fill="#3cb44B" r="3.5" stroke-width="0" /><circle cx="534" cy="900" fill="#3cb44B" r="3.5" stroke-width="0" /><circle cx="506" cy="881" fill="#3cb44B" r="3.5" stroke-width="0" /><circle cx="570" cy="921" fill="#3cb44B" r="3.5" stroke-width="0" /><circle cx="666" cy="970" fill="#3cb44B" r="3.5" stroke-width="0" /><circle cx="493" cy="872" fill="#3cb44B" r="3.5" stroke-width="0" /><circle cx="654" cy="965" fill="#3cb44B" r="3.5" stroke-width="0" /><circle cx="531" cy="898" fill="#3cb44B" r="3.5" stroke-width="0" /><circle cx="537" cy="901" fill="#3cb44B" r="3.5" stroke-width="0" /><circle cx="565" cy="918" fill="#3cb44B" r="3.5" stroke-width="0" /><circle cx="568" cy="920" fill="#3cb44B" r="3.5" stroke-width="0" /><circle cx="497" cy="875" fill="#3cb44B" r="3.5" stroke-width="0" /><circle cx="608" cy="942" fill="#3cb44B" r="3.5" stroke-width="0" /><circle cx="599" cy="937" fill="#3cb44B" r="3.5" stroke-width="0" /><circle cx="516" cy="888" fill="#3cb44B" r="3.5" stroke-width="0" /><circle cx="603" cy="940" fill="#3cb44B" r="3.5" stroke-width="0" /><circle cx="509" cy="883" fill="#3cb44B" r="3.5" stroke-width="0" /><circle cx="590" cy="933" fill="#3cb44B" r="3.5" stroke-width="0" /><circle cx="638" cy="957" fill="#3cb44B" r="3.5" stroke-width="0" /><circle cx="519" cy="890" fill="#3cb44B" r="3.5" stroke-width="0" /><circle cx="632" cy="954" fill="#3cb44B" r="3.5" stroke-width="0" /><circle cx="538" cy="902" fill="#3cb44B" r="3.5" stroke-width="0" /><circle cx="548" cy="908" fill="#3cb44B" r="3.5" stroke-width="0" /><circle cx="573" cy="923" fill="#3cb44B" r="3.5" stroke-width="0" /></g><g class="e4"><circle cx="246" cy="614" fill="#ff0000" r="3.5" stroke-width="0" /><circle cx="254" cy="627" fill="#ff0000" r="3.5" stroke-width="0" /><circle cx="190" cy="516" fill="#ff0000" r="3.5" stroke-width="0" /><circle cx="244" cy="611" fill="#ff0000" r="3.5" stroke-width="0" /><circle cx="181" cy="499" fill="#ff0000" r="3.5" stroke-width="0" /><circle cx="189" cy="515" fill="#ff0000" r="3.5" stroke-width="0" /><circle cx="204" cy="543" fill="#ff0000" r="3.5" stroke-width="0" /><circle cx="242" cy="608" fill="#ff0000" r="3.5" stroke-width="0" /><circle cx="192" cy="521" fill="#ff0000" r="3.5" stroke-width="0" /><circle cx="260" cy="636" fill="#ff0000" r="3.5" stroke-width="0" /><circle cx="197" cy="530" fill="#ff0000" r="3.5" stroke-width="0" /><circle cx="248" cy="617" fill="#ff0000" r="3.5" stroke-width="0" /><circle cx="218" cy="569" fill="#ff0000" r="3.5" stroke-width="0" /><circle cx="172" cy="478" fill="#ff0000" r="3.5" stroke-width="0" /><circle cx="257" cy="631" fill="#ff0000" r="3.5" stroke-width="0" /><circle cx="187" cy="510" fill="#ff0000" r="3.5" stroke-width="0" /><circle cx="265" cy="642" fill="#ff0000" r="3.5" stroke-width="0" /><circle cx="203" cy="541" fill="#ff0000" r="3.5" stroke-width="0" /><circle cx="214" cy="562" fill="#ff0000" r="3.5" stroke-width="0" /><circle cx="169" cy="471" fill="#ff0000" r="3.5" stroke-width="0" /><circle cx="240" cy="606" fill="#ff0000" r="3.5" stroke-width="0" /><circle cx="250" cy="620" fill="#ff0000" r="3.5" stroke-width="0" /><circle cx="253" cy="625" fill="#ff0000" r="3.5" stroke-width="0" /><circle cx="194" cy="524" fill="#ff0000" r="3.5" stroke-width="0" /><circle cx="170" cy="473" fill="#ff0000" r="3.5" stroke-width="0" /><circle cx="207" cy="549" fill="#ff0000" r="3.5" stroke-width="0" /><circle cx="196" cy="528" fill="#ff0000" r="3.5" stroke-width="0" /></g><g class="e5"><circle cx="760" cy="1005" fill="#2b92db" r="3.5" stroke-width="0" /><circle cx="778" cy="1011" fill="#2b92db" r="3.5" stroke-width="0" /><circle cx="843" cy="1027" fill="#2b92db" r="3.5" stroke-width="0" /><circle cx="817" cy="1021" fill="#2b92db" r="3.5" stroke-width="0" /><circle cx="795" cy="1016" fill="#2b92db" r="3.5" stroke-width="0" /><circle cx="731" cy="995" fill="#2b92db" r="3.5" stroke-width="0" /><circle cx="859" cy="1031" fill="#2b92db" r="3.5" stroke-width="0" /><circle cx="723" cy="993" fill="#2b92db" r="3.5" stroke-width="0" /><circle cx="793" cy="1015" fill="#2b92db" r="3.5" stroke-width="0" /><circle cx="705" cy="986" fill="#2b92db" r="3.5" stroke-width="0" /><circle cx="717" cy="990" fill="#2b92db" r="3.5" stroke-width="0" /><circle cx="813" cy="1020" fill="#2b92db" r="3.5" stroke-width="0" /><circle cx="740" cy="999" fill="#2b92db" r="3.5" stroke-width="0" /><circle cx="702" cy="985" fill="#2b92db" r="3.5" stroke-width="0" /><circle cx="764" cy="1006" fill="#2b92db" r="3.5" stroke-width="0" /><circle cx="755" cy="1004" fill="#2b92db" r="3.5" stroke-width="0" /><circle cx="700" cy="984" fill="#2b92db" r="3.5" stroke-width="0" /><circle cx="808" cy="1019" fill="#2b92db" r="3.5" stroke-width="0" /><circle cx="751" cy="1002" fill="#2b92db" r="3.5" stroke-width="0" /><circle cx="853" cy="1030" fill="#2b92db" r="3.5" stroke-width="0" /><circle cx="748" cy="1001" fill="#2b92db" r="3.5" stroke-width="0" /><circle cx="773" cy="1009" fill="#2b92db" r="3.5" stroke-width="0" /><circle cx="737" cy="998" fill="#2b92db" r="3.5" stroke-width="0" /><circle cx="846" cy="1028" fill="#2b92db" r="3.5" stroke-width="0" /><circle cx="721" cy="992" fill="#2b92db" r="3.5" stroke-width="0" /><circle cx="770" cy="1008" fill="#2b92db" r="3.5" stroke-width="0" /><circle cx="695" cy="982" fill="#2b92db" r="3.5" stroke-width="0" /><circle cx="733" cy="996" fill="#2b92db" r="3.5" stroke-width="0" /><circle cx="852" cy="1029" fill="#2b92db" r="3.5" stroke-width="0" /><circle cx="671" cy="972" fill="#2b92db" r="3.5" stroke-width="0" /><circle cx="692" cy="981" fill="#2b92db" r="3.5" stroke-width="0" /><circle cx="744" cy="1000" fill="#2b92db" r="3.5" stroke-width="0" /><circle cx="865" cy="1032" fill="#2b92db" r="3.5" stroke-width="0" /></g><g class="e6"><circle cx="151" cy="428" fill="#911eb4" r="3.5" stroke-width="0" /><circle cx="108" cy="275" fill="#911eb4" r="3.5" stroke-width="0" /><circle cx="127" cy="354" fill="#911eb4" r="3.5" stroke-width="0" /><circle cx="146" cy="414" fill="#911eb4" r="3.5" stroke-width="0" /><circle cx="150" cy="425" fill="#911eb4" r="3.5" stroke-width="0" /><circle cx="159" cy="448" fill="#911eb4" r="3.5" stroke-width="0" /><circle cx="123" cy="340" fill="#911eb4" r="3.5" stroke-width="0" /><circle cx="141" cy="400" fill="#911eb4" r="3.5" stroke-width="0" /><circle cx="138" cy="391" fill="#911eb4" r="3.5" stroke-width="0" /><circle cx="155" cy="438" fill="#911eb4" r="3.5" stroke-width="0" /><circle cx="168" cy="468" fill="#911eb4" r="3.5" stroke-width="0" /><circle cx="160" cy="450" fill="#911eb4" r="3.5" stroke-width="0" /><circle cx="137" cy="388" fill="#911eb4" r="3.5" stroke-width="0" /><circle cx="162" cy="454" fill="#911eb4" r="3.5" stroke-width="0" /><circle cx="130" cy="365" fill="#911eb4" r="3.5" stroke-width="0" /><circle cx="163" cy="458" fill="#911eb4" r="3.5" stroke-width="0" /><circle cx="109" cy="278" fill="#911eb4" r="3.5" stroke-width="0" /><circle cx="140" cy="396" fill="#911eb4" r="3.5" stroke-width="0" /><circle cx="124" cy="342" fill="#911eb4" r="3.5" stroke-width="0" /><circle cx="122" cy="337" fill="#911eb4" r="3.5" stroke-width="0" /><circle cx="166" cy="465" fill="#911eb4" r="3.5" stroke-width="0" /><circle cx="142" cy="402" fill="#911eb4" r="3.5" stroke-width="0" /><circle cx="131" cy="369" fill="#911eb4" r="3.5" stroke-width="0" /><circle cx="112" cy="295" fill="#911eb4" r="3.5" stroke-width="0" /><circle cx="120" cy="330" fill="#911eb4" r="3.5" stroke-width="0" /><circle cx="167" cy="466" fill="#911eb4" r="3.5" stroke-width="0" /><circle cx="115" cy="308" fill="#911eb4" r="3.5" stroke-width="0" /><circle cx="129" cy="362" fill="#911eb4" r="3.5" stroke-width="0" /><circle cx="133" cy="375" fill="#911eb4" r="3.5" stroke-width="0" /><circle cx="119" cy="326" fill="#911eb4" r="3.5" stroke-width="0" /><circle cx="134" cy="376" fill="#911eb4" r="3.5" stroke-width="0" /><circle cx="139" cy="394" fill="#911eb4" r="3.5" stroke-width="0" /><circle cx="125" cy="348" fill="#911eb4" r="3.5" stroke-width="0" /><circle cx="121" cy="333" fill="#911eb4" r="3.5" stroke-width="0" /><circle cx="107" cy="271" fill="#911eb4" r="3.5" stroke-width="0" /></g><g class="e7"><circle cx="1000" cy="1049" fill="#3cb44B" r="3.5" stroke-width="0" /><circle cx="1033" cy="1050" fill="#3cb44B" r="3.5" stroke-width="0" /><circle cx="965" cy="1046" fill="#3cb44B" r="3.5" stroke-width="0" /><circle cx="874" cy="1034" fill="#3cb44B" r="3.5" stroke-width="0" /><circle cx="914" cy="1040" fill="#3cb44B" r="3.5" stroke-width="0" /><circle cx="996" cy="1048" fill="#3cb44B" r="3.5" stroke-width="0" /><circle cx="930" cy="1042" fill="#3cb44B" r="3.5" stroke-width="0" /><circle cx="898" cy="1038" fill="#3cb44B" r="3.5" stroke-width="0" /><circle cx="884" cy="1036" fill="#3cb44B" r="3.5" stroke-width="0" /><circle cx="881" cy="1035" fill="#3cb44B" r="3.5" stroke-width="0" /><circle cx="973" cy="1047" fill="#3cb44B" r="3.5" stroke-width="0" /></g><g class="e8"><circle cx="90" cy="91" fill="#ff0000" r="3.5" stroke-width="0" /><circle cx="92" cy="153" fill="#ff0000" r="3.5" stroke-width="0" /><circle cx="93" cy="170" fill="#ff0000" r="3.5" stroke-width="0" /><circle cx="102" cy="244" fill="#ff0000" r="3.5" stroke-width="0" /><circle cx="91" cy="123" fill="#ff0000" r="3.5" stroke-width="0" /><circle cx="94" cy="175" fill="#ff0000" r="3.5" stroke-width="0" /><circle cx="101" cy="232" fill="#ff0000" r="3.5" stroke-width="0" /><circle cx="99" cy="221" fill="#ff0000" r="3.5" stroke-width="0" /><circle cx="105" cy="261" fill="#ff0000" r="3.5" stroke-width="0" /><circle cx="98" cy="212" fill="#ff0000" r="3.5" stroke-width="0" /><circle cx="106" cy="266" fill="#ff0000" r="3.5" stroke-width="0" /><circle cx="97" cy="204" fill="#ff0000" r="3.5" stroke-width="0" /><circle cx="100" cy="230" fill="#ff0000" r="3.5" stroke-width="0" /></g></g></g></svg>