<?xml version="1.0" encoding="utf-8" ?>
<svg baseProfile="full" height="1140px" style="font-size:15;font-family:Arial, san-serif;font-weight:bold;stroke:black;stroke-width:0;fill:#444444" version="1.1" width="1140px" xmlns="http://www.w3.org/2000/svg" xmlns:ev="http://www.w3.org/2001/xml-events" xmlns:xlink="http://www.w3.org/1999/xlink"><defs><clipPath id="areadografico"><rect height="1000" width="1000" x="70" y="70" /></clipPath></defs><g class="master"><g class="poligonos"><polygon clip-path="url(#areadografico)" fill="#000000" fill-opacity="0.1" points="70,1070 70,870 269,871 270,670 469,671 470,470 669,471 670,270 869,271 870,70 1069,71 1069,71 1069,271 869,271 869,471 669,471 669,671 469,671 469,871 269,871 270,1070" /><polygon clip-path="url(#areadografico)" fill="#ffffff" fill-opacity="0.1" points="270,1070 270,870 469,871 470,670 669,671 670,470 869,471 870,270 1069,271 1069,271 1069,471 869,471 869,671 669,671 669,871 469,871 470,1070" /><polygon clip-path="url(#areadografico)" fill="#ffffff" fill-opacity="0.1" points="70,870 270,870 269,671 470,670 469,471 670,470 669,271 870,270 869,71 869,71 669,71 669,271 469,271 469,471 269,471 269,671 70,670" /><polygon clip-path="url(#areadografico)" fill="#000000" fill-opacity="0.1" points="470,1070 470,870 669,871 670,670 869,671 870,470 1069,471 1069,471 1069,671 869,671 869,871 669,871 670,1070" /><polygon clip-path="url(#areadografico)" fill="#000000" fill-opacity="0.1" points="70,670 270,670 269,471 470,470 469,271 670,270 669,71 669,71 469,71 469,271 269,271 269,471 70,470" /><polygon clip-path="url(#areadografico)" fill="#ffffff" fill-opacity="0.1" points="670,1070 670,870 869,871 870,670 1069,671 1069,671 1069,871 869,871 870,1070" /><polygon clip-path="url(#areadografico)" fill="#ffffff" fill-opacity="0.1" points="70,470 270,470 269,271 470,270 469,71 469,71 269,71 269,271 70,270" /><polygon clip-path="url(#areadografico)" fill="#000000" fill-opacity="0.1" points="870,1070 870,870 1069,871 1069,1070" /><polygon clip-path="url(#areadografico)" fill="#000000" fill-opacity="0.1" points="70,270 270,270 269,71 70,71" /></g><g class="linhas"><line fill-opacity="0.3" stroke="#999999" stroke-width="1" x1="1070" x2="1070" y1="1070" y2="70" /><line fill-opacity="0.3" stroke="#999999" stroke-width="1" x1="70" x2="1070" y1="70" y2="70" /><line fill-opacity="0.3" stroke="#999999" stroke-width="1" x1="970" x2="970" y1="1070" y2="70" /><line fill-opacity="0.3" stroke="#999999" stroke-width="1" x1="70" x2="1070" y1="170" y2="170" /><line fill-opacity="0.3" stroke="#999999" stroke-width="1" x1="870" x2="870" y1="1070" y2="70" /><line fill-opacity="0.3" stroke="#999999" stroke-width="1" x1="70" x2="1070" y1="270" y2="270" /><line fill-opacity="0.3" stroke="#999999" stroke-width="1" x1="770" x2="770" y1="1070" y2="70" /><line fill-opacity="0.3" stroke="#999999" stroke-width="1" x1="70" x2="1070" y1="370" y2="370" /><line fill-opacity="0.3" stroke="#999999" stroke-width="1" x1="670" x2="670" y1="1070" y2="70" /><line fill-opacity="0.3" stroke="#999999" stroke-width="1" x1="70" x2="1070" y1="470" y2="470" /><line fill-opacity="0.3" stroke="#999999" stroke-width="1" x1="570" x2="570" y1="1070" y2="70" /><line fill-opacity="0.3" stroke="#999999" stroke-width="1" x1="70" x2="1070" y1="570" y2="570" /><line fill-opacity="0.3" stroke="#999999" stroke-width="1" x1="470" x2="470" y1="1070" y2="70" /><line fill-opacity="0.3" stroke="#999999" stroke-width="1" x1="70" x2="1070" y1="670" y2="670" /><line fill-opacity="0.3" stroke="#999999" stroke-width="1" x1="370" x2="370" y1="1070" y2="70" /><line fill-opacity="0.3" stroke="#999999" stroke-width="1" x1="70" x2="1070" y1="770" y2="770" /><line fill-opacity="0.3" stroke="#999999" stroke-width="1" x1="270" x2="270" y1="1070" y2="70" /><line fill-opacity="0.3" stroke="#999999" stroke-width="1" x1="70" x2="1070" y1="870" y2="870" /><line fill-opacity="0.3" stroke="#999999" stroke-width="1" x1="170" x2="170" y1="1070" y2="70" /><line fill-opacity="0.3" stroke="#999999" stroke-width="1" x1="70" x2="1070" y1="970" y2="970" /><line fill-opacity="0.3" stroke="#000000" stroke-width="1" x1="70" x2="70" y1="1071" y2="69" /><line fill-opacity="0.3" stroke="#000000" stroke-width="1" x1="69" x2="1071" y1="1070" y2="1070" /></g><g class="textos"><text x="1050" y="1110">1000</text><text x="10" y="71">1000</text><text x="950" y="1110">900</text><text x="10" y="171">900</text><text x="850" y="1110">800</text><text x="10" y="271">800</text><text x="750" y="1110">700</text><text x="10" y="371">700</text><text x="650" y="1110">600</text><text x="10" y="471">600</text><text x="550" y="1110">500</text><text x="10" y="571">500</text><text x="450" y="1110">400</text><text x="10" y="671">400</text><text x="350" y="1110">300</text><text x="10" y="771">300</text><text x="250" y="1110">200</text><text x="10" y="871">200</text><text x="150" y="1110">100</text><text x="10" y="971">100</text><text x="50" y="1111">0</text><text x="9" y="1071">0</text></g><g class="especies"><g class="e0"><circle cx="359" cy="756" fill="#ff0000" r="3.5" stroke-width="0" /><circle cx="406" cy="802" fill="#ff0000" r="3.5" stroke-width="0" /><circle cx="428" cy="821" fill="#ff0000" r="3.5" stroke-width="0" /><circle cx="347" cy="744" fill="#ff0000" r="3.5" stroke-width="0" /><circle cx="399" cy="796" fill="#ff0000" r="3.5" stroke-width="0" /></g><g class="e1"><circle cx="490" cy="870" fill="#2b92db" r="3.5" stroke-width="0" /><circle cx="480" cy="862" fill="#2b92db" r="3.5" stroke-width="0" /></g><g class="e2"><circle cx="279" cy="662" fill="#911eb4" r="3.5" stroke-width="0" /></g><g class="e3"><circle cx="607" cy="942" fill="#3cb44B" r="3.5" stroke-width="0" /><circle cx="563" cy="917" fill="#3cb44B" r="3.5" stroke-width="0" /><circle cx="593" cy="934" fill="#3cb44B" r="3.5" stroke-width="0" /><circle cx="583" cy="929" fill="#3cb44B" r="3.5" stroke-width="0" /><circle cx="638" cy="957" fill="#3cb44B" r="3.5" stroke-width="0" /></g><g class="e4"><circle cx="202" cy="540" fill="#ff0000" r="3.5" stroke-width="0" /><circle cx="198" cy="533" fill="#ff0000" r="3.5" stroke-width="0" /><circle cx="221" cy="574" fill="#ff0000" r="3.5" stroke-width="0" /><circle cx="247" cy="616" fill="#ff0000" r="3.5" stroke-width="0" /><circle cx="183" cy="503" fill="#ff0000" r="3.5" stroke-width="0" /></g><g class="e5"><circle cx="794" cy="1015" fill="#2b92db" r="3.5" stroke-width="0" /><circle cx="810" cy="1020" fill="#2b92db" r="3.5" stroke-width="0" /><circle cx="841" cy="1027" fill="#2b92db" r="3.5" stroke-width="0" /><circle cx="694" cy="982" fill="#2b92db" r="3.5" stroke-width="0" /><circle cx="816" cy="1021" fill="#2b92db" r="3.5" stroke-width="0" /><circle cx="677" cy="975" fill="#2b92db" r="3.5" stroke-width="0" /><circle cx="848" cy="1029" fill="#2b92db" r="3.5" stroke-width="0" /></g><g class="e6"><circle cx="142" cy="402" fill="#911eb4" r="3.5" stroke-width="0" /><circle cx="168" cy="470" fill="#911eb4" r="3.5" stroke-width="0" /><circle cx="129" cy="361" fill="#911eb4" r="3.5" stroke-width="0" /><circle cx="132" cy="372" fill="#911eb4" r="3.5" stroke-width="0" /></g><g class="e7"><circle cx="901" cy="1038" fill="#3cb44B" r="3.5" stroke-width="0" /><circle cx="969" cy="1047" fill="#3cb44B" r="3.5" stroke-width="0" /><circle cx="922" cy="1041" fill="#3cb44B" r="3.5" stroke-width="0" /><circle cx="997" cy="1049" fill="#3cb44B" r="3.5" stroke-width="0" /></g><g class="e8"><circle cx="93" cy="165" fill="#ff0000" r="3.5" stroke-width="0" /><circle cx="106" cy="265" fill="#ff0000" r="3.5" stroke-width="0" /></g></g></g></svg>