<?xml version="1.0" encoding="utf-8" ?>
<svg baseProfile="full" height="1140px" style="font-size:15;font-family:Arial, san-serif;font-weight:bold;stroke:black;stroke-width:0;fill:#444444" version="1.1" width="1140px" xmlns="http://www.w3.org/2000/svg" xmlns:ev="http://www.w3.org/2001/xml-events" xmlns:xlink="http://www.w3.org/1999/xlink"><defs><clipPath id="areadografico"><rect height="1000" width="1000" x="70" y="70" /></clipPath></defs><g class="master"><g class="poligonos"><polygon clip-path="url(#areadografico)" fill="#000000" fill-opacity="0.1" points="70,1070 70,820 319,821 320,570 569,571 570,320 819,321 820,70 1069,71 1069,71 1069,321 819,321 819,571 569,571 569,821 319,821 320,1070" /><polygon clip-path="url(#areadografico)" fill="#ffffff" fill-opacity="0.1" points="320,1070 320,820 569,821 570,570 819,571 820,320 1069,321 1069,321 1069,571 819,571 819,821 569,821 570,1070" /><polygon clip-path="url(#areadografico)" fill="#ffffff" fill-opacity="0.1" points="70,820 320,820 319,571 570,570 569,321 820,320 819,71 819,71 569,71 569,321 319,321 319,571 70,570" /><polygon clip-path="url(#areadografico)" fill="#000000" fill-opacity="0.1" points="570,1070 570,820 819,821 820,570 1069,571 1069,571 1069,821 819,821 820,1070" /><polygon clip-path="url(#areadografico)" fill="#000000" fill-opacity="0.1" points="70,570 320,570 319,321 570,320 569,71 569,71 319,71 319,321 70,320" /><polygon clip-path="url(#areadografico)" fill="#ffffff" fill-opacity="0.1" points="820,1070 820,820 1069,821 1069,1070" /><polygon clip-path="url(#areadografico)" fill="#ffffff" fill-opacity="0.1" points="70,320 320,320 319,71 70,71" /></g><g class="linhas"><line fill-opacity="0.3" stroke="#999999" stroke-width="1" x1="1070" x2="1070" y1="1070" y2="70" /><line fill-opacity="0.3" stroke="#999999" stroke-width="1" x1="70" x2="1070" y1="70" y2="70" /><line fill-opacity="0.3" stroke="#999999" stroke-width="1" x1="970" x2="970" y1="1070" y2="70" /><line fill-opacity="0.3" stroke="#999999" stroke-width="1" x1="70" x2="1070" y1="170" y2="170" /><line fill-opacity="0.3" stroke="#999999" stroke-width="1" x1="870" x2="870" y1="1070" y2="70" /><line fill-opacity="0.3" stroke="#999999" stroke-width="1" x1="70" x2="1070" y1="270" y2="270" /><line fill-opacity="0.3" stroke="#999999" stroke-width="1" x1="770" x2="770" y1="1070" y2="70" /><line fill-opacity="0.3" stroke="#999999" stroke-width="1" x1="70" x2="1070" y1="370" y2="370" /><line fill-opacity="0.3" stroke="#999999" stroke-width="1" x1="670" x2="670" y1="1070" y2="70" /><line fill-opacity="0.3" stroke="#999999" stroke-width="1" x1="70" x2="1070" y1="470" y2="470" /><line fill-opacity="0.3" stroke="#999999" stroke-width="1" x1="570" x2="570" y1="1070" y2="70" /><line fill-opacity="0.3" stroke="#999999" stroke-width="1" x1="70" x2="1070" y1="570" y2="570" /><line fill-opacity="0.3" stroke="#999999" stroke-width="1" x1="470" x2="470" y1="1070" y2="70" /><line fill-opacity="0.3" stroke="#999999" stroke-width="1" x1="70" x2="1070" y1="670" y2="670" /><line fill-opacity="0.3" stroke="#999999" stroke-width="1" x1="370" x2="370" y1="1070" y2="70" /><line fill-opacity="0.3" stroke="#999999" stroke-width="1" x1="70" x2="1070" y1="770" y2="770" /><line fill-opacity="0.3" stroke="#999999" stroke-width="1" x1="270" x2="270" y1="1070" y2="70" /><line fill-opacity="0.3" stroke="#999999" stroke-width="1" x1="70" x2="1070" y1="870" y2="870" /><line fill-opacity="0.3" stroke="#999999" stroke-width="1" x1="170" x2="170" y1="1070" y2="70" /><line fill-opacity="0.3" stroke="#999999" stroke-width="1" x1="70" x2="1070" y1="970" y2="970" /><line fill-opacity="0.3" stroke="#000000" stroke-width="1" x1="70" x2="70" y1="1071" y2="69" /><line fill-opacity="0.3" stroke="#000000" stroke-width="1" x1="69" x2="1071" y1="1070" y2="1070" /></g><g class="textos"><text x="1050" y="1110">1000</text><text x="10" y="71">1000</text><text x="950" y="1110">900</text><text x="10" y="171">900</text><text x="850" y="1110">800</text><text x="10" y="271">800</text><text x="750" y="1110">700</text><text x="10" y="371">700</text><text x="650" y="1110">600</text><text x="10" y="471">600</text><text x="550" y="1110">500</text><text x="10" y="571">500</text><text x="450" y="1110">400</text><text x="10" y="671">400</text><text x="350" y="1110">300</text><text x="10" y="771">300</text><text x="250" y="1110">200</text><text x="10" y="871">200</text><text x="150" y="1110">100</text><text x="10" y="971">100</text><text x="50" y="1111">0</text><text x="9" y="1071">0</text></g><g class="especies"><g class="e0"><circle cx="321" cy="715" fill="#ff0000" r="3.5" stroke-width="0" /><circle cx="389" cy="786" fill="#ff0000" r="3.5" stroke-width="0" /><circle cx="320" cy="713" fill="#ff0000" r="3.5" stroke-width="0" /><circle cx="400" cy="796" fill="#ff0000" r="3.5" stroke-width="0" /><circle cx="338" cy="734" fill="#ff0000" r="3.5" stroke-width="0" /><circle cx="401" cy="797" fill="#ff0000" r="3.5" stroke-width="0" /><circle cx="390" cy="787" fill="#ff0000" r="3.5" stroke-width="0" /><circle cx="425" cy="819" fill="#ff0000" r="3.5" stroke-width="0" /><circle cx="367" cy="765" fill="#ff0000" r="3.5" stroke-width="0" /><circle cx="386" cy="783" fill="#ff0000" r="3.5" stroke-width="0" /><circle cx="339" cy="735" fill="#ff0000" r="3.5" stroke-width="0" /><circle cx="406" cy="802" fill="#ff0000" r="3.5" stroke-width="0" /><circle cx="427" cy="820" fill="#ff0000" r="3.5" stroke-width="0" /></g><g class="e1"><circle cx="497" cy="875" fill="#2b92db" r="3.5" stroke-width="0" /><circle cx="480" cy="862" fill="#2b92db" r="3.5" stroke-width="0" /><circle cx="512" cy="885" fill="#2b92db" r="3.5" stroke-width="0" /><circle cx="531" cy="898" fill="#2b92db" r="3.5" stroke-width="0" /><circle cx="499" cy="876" fill="#2b92db" r="3.5" stroke-width="0" /><circle cx="544" cy="906" fill="#2b92db" r="3.5" stroke-width="0" /><circle cx="476" cy="859" fill="#2b92db" r="3.5" stroke-width="0" /><circle cx="461" cy="848" fill="#2b92db" r="3.5" stroke-width="0" /><circle cx="436" cy="828" fill="#2b92db" r="3.5" stroke-width="0" /><circle cx="466" cy="852" fill="#2b92db" r="3.5" stroke-width="0" /><circle cx="495" cy="873" fill="#2b92db" r="3.5" stroke-width="0" /><circle cx="542" cy="905" fill="#2b92db" r="3.5" stroke-width="0" /><circle cx="524" cy="893" fill="#2b92db" r="3.5" stroke-width="0" /><circle cx="458" cy="846" fill="#2b92db" r="3.5" stroke-width="0" /><circle cx="521" cy="891" fill="#2b92db" r="3.5" stroke-width="0" /><circle cx="472" cy="856" fill="#2b92db" r="3.5" stroke-width="0" /><circle cx="457" cy="845" fill="#2b92db" r="3.5" stroke-width="0" /><circle cx="535" cy="900" fill="#2b92db" r="3.5" stroke-width="0" /><circle cx="533" cy="899" fill="#2b92db" r="3.5" stroke-width="0" /><circle cx="464" cy="850" fill="#2b92db" r="3.5" stroke-width="0" /><circle cx="454" cy="843" fill="#2b92db" r="3.5" stroke-width="0" /><circle cx="551" cy="910" fill="#2b92db" r="3.5" stroke-width="0" /><circle cx="507" cy="882" fill="#2b92db" r="3.5" stroke-width="0" /><circle cx="506" cy="881" fill="#2b92db" r="3.5" stroke-width="0" /><circle cx="546" cy="907" fill="#2b92db" r="3.5" stroke-width="0" /><circle cx="505" cy="880" fill="#2b92db" r="3.5" stroke-width="0" /></g><g class="e2"><circle cx="222" cy="576" fill="#911eb4" r="3.5" stroke-width="0" /><circle cx="249" cy="619" fill="#911eb4" r="3.5" stroke-width="0" /><circle cx="265" cy="643" fill="#911eb4" r="3.5" stroke-width="0" /><circle cx="250" cy="621" fill="#911eb4" r="3.5" stroke-width="0" /><circle cx="316" cy="709" fill="#911eb4" r="3.5" stroke-width="0" /><circle cx="306" cy="697" fill="#911eb4" r="3.5" stroke-width="0" /><circle cx="246" cy="615" fill="#911eb4" r="3.5" stroke-width="0" /><circle cx="281" cy="665" fill="#911eb4" r="3.5" stroke-width="0" /><circle cx="235" cy="598" fill="#911eb4" r="3.5" stroke-width="0" /><circle cx="221" cy="574" fill="#911eb4" r="3.5" stroke-width="0" /><circle cx="227" cy="584" fill="#911eb4" r="3.5" stroke-width="0" /><circle cx="308" cy="699" fill="#911eb4" r="3.5" stroke-width="0" /><circle cx="314" cy="706" fill="#911eb4" r="3.5" stroke-width="0" /><circle cx="220" cy="572" fill="#911eb4" r="3.5" stroke-width="0" /><circle cx="252" cy="623" fill="#911eb4" r="3.5" stroke-width="0" /><circle cx="302" cy="692" fill="#911eb4" r="3.5" stroke-width="0" /><circle cx="291" cy="678" fill="#911eb4" r="3.5" stroke-width="0" /><circle cx="285" cy="670" fill="#911eb4" r="3.5" stroke-width="0" /><circle cx="260" cy="635" fill="#911eb4" r="3.5" stroke-width="0" /><circle cx="230" cy="589" fill="#911eb4" r="3.5" stroke-width="0" /><circle cx="241" cy="607" fill="#911eb4" r="3.5" stroke-width="0" /><circle cx="283" cy="667" fill="#911eb4" r="3.5" stroke-width="0" /><circle cx="273" cy="654" fill="#911eb4" r="3.5" stroke-width="0" /><circle cx="286" cy="671" fill="#911eb4" r="3.5" stroke-width="0" /><circle cx="267" cy="645" fill="#911eb4" r="3.5" stroke-width="0" /><circle cx="258" cy="632" fill="#911eb4" r="3.5" stroke-width="0" /><circle cx="242" cy="609" fill="#911eb4" r="3.5" stroke-width="0" /><circle cx="240" cy="605" fill="#911eb4" r="3.5" stroke-width="0" /></g><g class="e3"><circle cx="732" cy="996" fill="#3cb44B" r="3.5" stroke-width="0" /><circle cx="782" cy="1012" fill="#3cb44B" r="3.5" stroke-width="0" /><circle cx="670" cy="972" fill="#3cb44B" r="3.5" stroke-width="0" /><circle cx="646" cy="961" fill="#3cb44B" r="3.5" stroke-width="0" /><circle cx="617" cy="947" fill="#3cb44B" r="3.5" stroke-width="0" /><circle cx="759" cy="1005" fill="#3cb44B" r="3.5" stroke-width="0" /><circle cx="809" cy="1019" fill="#3cb44B" r="3.5" stroke-width="0" /><circle cx="717" cy="990" fill="#3cb44B" r="3.5" stroke-width="0" /><circle cx="711" cy="988" fill="#3cb44B" r="3.5" stroke-width="0" /><circle cx="682" cy="977" fill="#3cb44B" r="3.5" stroke-width="0" /><circle cx="704" cy="985" fill="#3cb44B" r="3.5" stroke-width="0" /><circle cx="619" cy="948" fill="#3cb44B" r="3.5" stroke-width="0" /><circle cx="665" cy="969" fill="#3cb44B" r="3.5" stroke-width="0" /><circle cx="720" cy="991" fill="#3cb44B" r="3.5" stroke-width="0" /><circle cx="621" cy="949" fill="#3cb44B" r="3.5" stroke-width="0" /><circle cx="805" cy="1018" fill="#3cb44B" r="3.5" stroke-width="0" /><circle cx="766" cy="1007" fill="#3cb44B" r="3.5" stroke-width="0" /><circle cx="626" cy="951" fill="#3cb44B" r="3.5" stroke-width="0" /><circle cx="771" cy="1009" fill="#3cb44B" r="3.5" stroke-width="0" /><circle cx="744" cy="1000" fill="#3cb44B" r="3.5" stroke-width="0" /><circle cx="764" cy="1006" fill="#3cb44B" r="3.5" stroke-width="0" /><circle cx="639" cy="958" fill="#3cb44B" r="3.5" stroke-width="0" /><circle cx="735" cy="997" fill="#3cb44B" r="3.5" stroke-width="0" /><circle cx="727" cy="994" fill="#3cb44B" r="3.5" stroke-width="0" /><circle cx="753" cy="1003" fill="#3cb44B" r="3.5" stroke-width="0" /><circle cx="691" cy="980" fill="#3cb44B" r="3.5" stroke-width="0" /><circle cx="678" cy="975" fill="#3cb44B" r="3.5" stroke-width="0" /><circle cx="584" cy="929" fill="#3cb44B" r="3.5" stroke-width="0" /><circle cx="815" cy="1021" fill="#3cb44B" r="3.5" stroke-width="0" /><circle cx="739" cy="998" fill="#3cb44B" r="3.5" stroke-width="0" /><circle cx="724" cy="993" fill="#3cb44B" r="3.5" stroke-width="0" /><circle cx="648" cy="962" fill="#3cb44B" r="3.5" stroke-width="0" /><circle cx="589" cy="932" fill="#3cb44B" r="3.5" stroke-width="0" /><circle cx="707" cy="987" fill="#3cb44B" r="3.5" stroke-width="0" /><circle cx="796" cy="1016" fill="#3cb44B" r="3.5" stroke-width="0" /></g><g class="e4"><circle cx="148" cy="418" fill="#ff0000" r="3.5" stroke-width="0" /><circle cx="196" cy="529" fill="#ff0000" r="3.5" stroke-width="0" /><circle cx="128" cy="358" fill="#ff0000" r="3.5" stroke-width="0" /><circle cx="210" cy="555" fill="#ff0000" r="3.5" stroke-width="0" /><circle cx="153" cy="431" fill="#ff0000" r="3.5" stroke-width="0" /><circle cx="119" cy="324" fill="#ff0000" r="3.5" stroke-width="0" /><circle cx="170" cy="473" fill="#ff0000" r="3.5" stroke-width="0" /><circle cx="146" cy="414" fill="#ff0000" r="3.5" stroke-width="0" /><circle cx="139" cy="393" fill="#ff0000" r="3.5" stroke-width="0" /><circle cx="154" cy="435" fill="#ff0000" r="3.5" stroke-width="0" /><circle cx="158" cy="445" fill="#ff0000" r="3.5" stroke-width="0" /><circle cx="144" cy="407" fill="#ff0000" r="3.5" stroke-width="0" /><circle cx="217" cy="567" fill="#ff0000" r="3.5" stroke-width="0" /><circle cx="199" cy="534" fill="#ff0000" r="3.5" stroke-width="0" /><circle cx="142" cy="402" fill="#ff0000" r="3.5" stroke-width="0" /><circle cx="123" cy="341" fill="#ff0000" r="3.5" stroke-width="0" /><circle cx="173" cy="481" fill="#ff0000" r="3.5" stroke-width="0" /><circle cx="159" cy="447" fill="#ff0000" r="3.5" stroke-width="0" /><circle cx="143" cy="406" fill="#ff0000" r="3.5" stroke-width="0" /><circle cx="157" cy="443" fill="#ff0000" r="3.5" stroke-width="0" /><circle cx="165" cy="463" fill="#ff0000" r="3.5" stroke-width="0" /><circle cx="183" cy="503" fill="#ff0000" r="3.5" stroke-width="0" /><circle cx="140" cy="397" fill="#ff0000" r="3.5" stroke-width="0" /><circle cx="191" cy="519" fill="#ff0000" r="3.5" stroke-width="0" /><circle cx="145" cy="411" fill="#ff0000" r="3.5" stroke-width="0" /><circle cx="162" cy="455" fill="#ff0000" r="3.5" stroke-width="0" /><circle cx="125" cy="347" fill="#ff0000" r="3.5" stroke-width="0" /><circle cx="184" cy="505" fill="#ff0000" r="3.5" stroke-width="0" /><circle cx="171" cy="475" fill="#ff0000" r="3.5" stroke-width="0" /><circle cx="133" cy="373" fill="#ff0000" r="3.5" stroke-width="0" /><circle cx="178" cy="492" fill="#ff0000" r="3.5" stroke-width="0" /><circle cx="203" cy="541" fill="#ff0000" r="3.5" stroke-width="0" /><circle cx="152" cy="429" fill="#ff0000" r="3.5" stroke-width="0" /><circle cx="206" cy="547" fill="#ff0000" r="3.5" stroke-width="0" /><circle cx="212" cy="559" fill="#ff0000" r="3.5" stroke-width="0" /><circle cx="181" cy="499" fill="#ff0000" r="3.5" stroke-width="0" /><circle cx="168" cy="469" fill="#ff0000" r="3.5" stroke-width="0" /><circle cx="124" cy="343" fill="#ff0000" r="3.5" stroke-width="0" /><circle cx="147" cy="416" fill="#ff0000" r="3.5" stroke-width="0" /></g><g class="e5"><circle cx="932" cy="1043" fill="#2b92db" r="3.5" stroke-width="0" /><circle cx="915" cy="1040" fill="#2b92db" r="3.5" stroke-width="0" /><circle cx="923" cy="1042" fill="#2b92db" r="3.5" stroke-width="0" /><circle cx="842" cy="1027" fill="#2b92db" r="3.5" stroke-width="0" /><circle cx="945" cy="1044" fill="#2b92db" r="3.5" stroke-width="0" /><circle cx="1044" cy="1050" fill="#2b92db" r="3.5" stroke-width="0" /><circle cx="894" cy="1037" fill="#2b92db" r="3.5" stroke-width="0" /><circle cx="905" cy="1039" fill="#2b92db" r="3.5" stroke-width="0" /><circle cx="863" cy="1032" fill="#2b92db" r="3.5" stroke-width="0" /><circle cx="961" cy="1046" fill="#2b92db" r="3.5" stroke-width="0" /><circle cx="994" cy="1048" fill="#2b92db" r="3.5" stroke-width="0" /><circle cx="1008" cy="1049" fill="#2b92db" r="3.5" stroke-width="0" /><circle cx="956" cy="1045" fill="#2b92db" r="3.5" stroke-width="0" /><circle cx="856" cy="1030" fill="#2b92db" r="3.5" stroke-width="0" /><circle cx="835" cy="1026" fill="#2b92db" r="3.5" stroke-width="0" /><circle cx="887" cy="1036" fill="#2b92db" r="3.5" stroke-width="0" /><circle cx="897" cy="1038" fill="#2b92db" r="3.5" stroke-width="0" /><circle cx="861" cy="1031" fill="#2b92db" r="3.5" stroke-width="0" /></g><g class="e6"><circle cx="99" cy="221" fill="#911eb4" r="3.5" stroke-width="0" /><circle cx="90" cy="119" fill="#911eb4" r="3.5" stroke-width="0" /><circle cx="94" cy="175" fill="#911eb4" r="3.5" stroke-width="0" /><circle cx="100" cy="230" fill="#911eb4" r="3.5" stroke-width="0" /><circle cx="91" cy="121" fill="#911eb4" r="3.5" stroke-width="0" /><circle cx="106" cy="265" fill="#911eb4" r="3.5" stroke-width="0" /><circle cx="108" cy="276" fill="#911eb4" r="3.5" stroke-width="0" /><circle cx="115" cy="306" fill="#911eb4" r="3.5" stroke-width="0" /><circle cx="104" cy="255" fill="#911eb4" r="3.5" stroke-width="0" /><circle cx="97" cy="202" fill="#911eb4" r="3.5" stroke-width="0" /><circle cx="95" cy="183" fill="#911eb4" r="3.5" stroke-width="0" /><circle cx="92" cy="152" fill="#911eb4" r="3.5" stroke-width="0" /><circle cx="101" cy="238" fill="#911eb4" r="3.5" stroke-width="0" /><circle cx="103" cy="247" fill="#911eb4" r="3.5" stroke-width="0" /><circle cx="109" cy="280" fill="#911eb4" r="3.5" stroke-width="0" /><circle cx="116" cy="313" fill="#911eb4" r="3.5" stroke-width="0" /></g></g></g></svg>