<?xml version="1.0" encoding="utf-8" ?>
<svg baseProfile="full" height="1140px" style="font-size:15;font-family:Arial, san-serif;font-weight:bold;stroke:black;stroke-width:0;fill:#444444" version="1.1" width="1140px" xmlns="http://www.w3.org/2000/svg" xmlns:ev="http://www.w3.org/2001/xml-events" xmlns:xlink="http://www.w3.org/1999/xlink"><defs><clipPath id="areadografico"><rect height="1000" width="1000" x="70" y="70" /></clipPath></defs><g class="master"><g class="poligonos"><polygon clip-path="url(#areadografico)" fill="#000000" fill-opacity="0.1" points="70,1070 70,870 269,871 270,670 469,671 470,470 669,471 670,270 869,271 870,70 1069,71 1069,71 1069,271 869,271 869,471 669,471 669,671 469,671 469,871 269,871 270,1070" /><polygon clip-path="url(#areadografico)" fill="#ffffff" fill-opacity="0.1" points="270,1070 270,870 469,871 470,670 669,671 670,470 869,471 870,270 1069,271 1069,271 1069,471 869,471 869,671 669,671 669,871 469,871 470,1070" /><polygon clip-path="url(#areadografico)" fill="#ffffff" fill-opacity="0.1" points="70,870 270,870 269,671 470,670 469,471 670,470 669,271 870,270 869,71 869,71 669,71 669,271 469,271 469,471 269,471 269,671 70,670" /><polygon clip-path="url(#areadografico)" fill="#000000" fill-opacity="0.1" points="470,1070 470,870 669,871 670,670 869,671 870,470 1069,471 1069,471 1069,671 869,671 869,871 669,871 670,1070" /><polygon clip-path="url(#areadografico)" fill="#000000" fill-opacity="0.1" points="70,670 270,670 269,471 470,470 469,271 670,270 669,71 669,71 469,71 469,271 269,271 269,471 70,470" /><polygon clip-path="url(#areadografico)" fill="#ffffff" fill-opacity="0.1" points="670,1070 670,870 869,871 870,670 1069,671 1069,671 1069,871 869,871 870,1070" /><polygon clip-path="url(#areadografico)" fill="#ffffff" fill-opacity="0.1" points="70,470 270,470 269,271 470,270 469,71 469,71 269,71 269,271 70,270" /><polygon clip-path="url(#areadografico)" fill="#000000" fill-opacity="0.1" points="870,1070 870,870 1069,871 1069,1070" /><polygon clip-path="url(#areadografico)" fill="#000000" fill-opacity="0.1" points="70,270 270,270 269,71 70,71" /></g><g class="linhas"><line fill-opacity="0.3" stroke="#999999" stroke-width="1" x1="1070" x2="1070" y1="1070" y2="70" /><line fill-opacity="0.3" stroke="#999999" stroke-width="1" x1="70" x2="1070" y1="70" y2="70" /><line fill-opacity="0.3" stroke="#999999" stroke-width="1" x1="970" x2="970" y1="1070" y2="70" /><line fill-opacity="0.3" stroke="#999999" stroke-width="1" x1="70" x2="1070" y1="170" y2="170" /><line fill-opacity="0.3" stroke="#999999" stroke-width="1" x1="870" x2="870" y1="1070" y2="70" /><line fill-opacity="0.3" stroke="#999999" stroke-width="1" x1="70" x2="1070" y1="270" y2="270" /><line fill-opacity="0.3" stroke="#999999" stroke-width="1" x1="770" x2="770" y1="1070" y2="70" /><line fill-opacity="0.3" stroke="#999999" stroke-width="1" x1="70" x2="1070" y1="370" y2="370" /><line fill-opacity="0.3" stroke="#999999" stroke-width="1" x1="670" x2="670" y1="1070" y2="70" /><line fill-opacity="0.3" stroke="#999999" stroke-width="1" x1="70" x2="1070" y1="470" y2="470" /><line fill-opacity="0.3" stroke="#999999" stroke-width="1" x1="570" x2="570" y1="1070" y2="70" /><line fill-opacity="0.3" stroke="#999999" stroke-width="1" x1="70" x2="1070" y1="570" y2="570" /><line fill-opacity="0.3" stroke="#999999" stroke-width="1" x1="470" x2="470" y1="1070" y2="70" /><line fill-opacity="0.3" stroke="#999999" stroke-width="1" x1="70" x2="1070" y1="670" y2="670" /><line fill-opacity="0.3" stroke="#999999" stroke-width="1" x1="370" x2="370" y1="1070" y2="70" /><line fill-opacity="0.3" stroke="#999999" stroke-width="1" x1="70" x2="1070" y1="770" y2="770" /><line fill-opacity="0.3" stroke="#999999" stroke-width="1" x1="270" x2="270" y1="1070" y2="70" /><line fill-opacity="0.3" stroke="#999999" stroke-width="1" x1="70" x2="1070" y1="870" y2="870" /><line fill-opacity="0.3" stroke="#999999" stroke-width="1" x1="170" x2="170" y1="1070" y2="70" /><line fill-opacity="0.3" stroke="#999999" stroke-width="1" x1="70" x2="1070" y1="970" y2="970" /><line fill-opacity="0.3" stroke="#000000" stroke-width="1" x1="70" x2="70" y1="1071" y2="69" /><line fill-opacity="0.3" stroke="#000000" stroke-width="1" x1="69" x2="1071" y1="1070" y2="1070" /></g><g class="textos"><text x="1050" y="1110">1000</text><text x="10" y="71">1000</text><text x="950" y="1110">900</text><text x="10" y="171">900</text><text x="850" y="1110">800</text><text x="10" y="271">800</text><text x="750" y="1110">700</text><text x="10" y="371">700</text><text x="650" y="1110">600</text><text x="10" y="471">600</text><text x="550" y="1110">500</text><text x="10" y="571">500</text><text x="450" y="1110">400</text><text x="10" y="671">400</text><text x="350" y="1110">300</text><text x="10" y="771">300</text><text x="250" y="1110">200</text><text x="10" y="871">200</text><text x="150" y="1110">100</text><text x="10" y="971">100</text><text x="50" y="1111">0</text><text x="9" y="1071">0</text></g><g class="especies"><g class="e0"><circle cx="467" cy="853" fill="#ff0000" r="3.5" stroke-width="0" /><circle cx="462" cy="849" fill="#ff0000" r="3.5" stroke-width="0" /><circle cx="454" cy="843" fill="#ff0000" r="3.5" stroke-width="0" /><circle cx="450" cy="839" fill="#ff0000" r="3.5" stroke-width="0" /><circle cx="443" cy="834" fill="#ff0000" r="3.5" stroke-width="0" /><circle cx="436" cy="828" fill="#ff0000" r="3.5" stroke-width="0" /><circle cx="430" cy="823" fill="#ff0000" r="3.5" stroke-width="0" /><circle cx="424" cy="818" fill="#ff0000" r="3.5" stroke-width="0" /><circle cx="417" cy="812" fill="#ff0000" r="3.5" stroke-width="0" /><circle cx="410" cy="806" fill="#ff0000" r="3.5" stroke-width="0" /><circle cx="405" cy="801" fill="#ff0000" r="3.5" stroke-width="0" /><circle cx="398" cy="795" fill="#ff0000" r="3.5" stroke-width="0" /><circle cx="392" cy="789" fill="#ff0000" r="3.5" stroke-width="0" /><circle cx="386" cy="783" fill="#ff0000" r="3.5" stroke-width="0" /><circle cx="379" cy="777" fill="#ff0000" r="3.5" stroke-width="0" /><circle cx="373" cy="771" fill="#ff0000" r="3.5" stroke-width="0" /><circle cx="368" cy="766" fill="#ff0000" r="3.5" stroke-width="0" /><circle cx="362" cy="760" fill="#ff0000" r="3.5" stroke-width="0" /><circle cx="356" cy="753" fill="#ff0000" r="3.5" stroke-width="0" /><circle cx="350" cy="747" fill="#ff0000" r="3.5" stroke-width="0" /><circle cx="344" cy="741" fill="#ff0000" r="3.5" stroke-width="0" /><circle cx="338" cy="734" fill="#ff0000" r="3.5" stroke-width="0" /><circle cx="333" cy="728" fill="#ff0000" r="3.5" stroke-width="0" /><circle cx="327" cy="722" fill="#ff0000" r="3.5" stroke-width="0" /><circle cx="321" cy="715" fill="#ff0000" r="3.5" stroke-width="0" /><circle cx="316" cy="709" fill="#ff0000" r="3.5" stroke-width="0" /><circle cx="311" cy="703" fill="#ff0000" r="3.5" stroke-width="0" /><circle cx="305" cy="696" fill="#ff0000" r="3.5" stroke-width="0" /><circle cx="301" cy="690" fill="#ff0000" r="3.5" stroke-width="0" /><circle cx="296" cy="684" fill="#ff0000" r="3.5" stroke-width="0" /><circle cx="290" cy="677" fill="#ff0000" r="3.5" stroke-width="0" /><circle cx="286" cy="671" fill="#ff0000" r="3.5" stroke-width="0" /></g><g class="e1"><circle cx="488" cy="868" fill="#2b92db" r="3.5" stroke-width="0" /><circle cx="481" cy="863" fill="#2b92db" r="3.5" stroke-width="0" /><circle cx="474" cy="858" fill="#2b92db" r="3.5" stroke-width="0" /></g><g class="e2"><circle cx="281" cy="665" fill="#911eb4" r="3.5" stroke-width="0" /><circle cx="276" cy="658" fill="#911eb4" r="3.5" stroke-width="0" /><circle cx="272" cy="652" fill="#911eb4" r="3.5" stroke-width="0" /></g><g class="e3"><circle cx="664" cy="969" fill="#3cb44B" r="3.5" stroke-width="0" /><circle cx="657" cy="966" fill="#3cb44B" r="3.5" stroke-width="0" /><circle cx="650" cy="963" fill="#3cb44B" r="3.5" stroke-width="0" /><circle cx="644" cy="960" fill="#3cb44B" r="3.5" stroke-width="0" /><circle cx="640" cy="958" fill="#3cb44B" r="3.5" stroke-width="0" /><circle cx="634" cy="955" fill="#3cb44B" r="3.5" stroke-width="0" /><circle cx="625" cy="951" fill="#3cb44B" r="3.5" stroke-width="0" /><circle cx="619" cy="948" fill="#3cb44B" r="3.5" stroke-width="0" /><circle cx="613" cy="945" fill="#3cb44B" r="3.5" stroke-width="0" /><circle cx="608" cy="942" fill="#3cb44B" r="3.5" stroke-width="0" /><circle cx="602" cy="939" fill="#3cb44B" r="3.5" stroke-width="0" /><circle cx="594" cy="935" fill="#3cb44B" r="3.5" stroke-width="0" /><circle cx="589" cy="932" fill="#3cb44B" r="3.5" stroke-width="0" /><circle cx="581" cy="928" fill="#3cb44B" r="3.5" stroke-width="0" /><circle cx="577" cy="925" fill="#3cb44B" r="3.5" stroke-width="0" /><circle cx="570" cy="921" fill="#3cb44B" r="3.5" stroke-width="0" /><circle cx="562" cy="917" fill="#3cb44B" r="3.5" stroke-width="0" /><circle cx="558" cy="914" fill="#3cb44B" r="3.5" stroke-width="0" /><circle cx="551" cy="910" fill="#3cb44B" r="3.5" stroke-width="0" /><circle cx="545" cy="906" fill="#3cb44B" r="3.5" stroke-width="0" /><circle cx="538" cy="902" fill="#3cb44B" r="3.5" stroke-width="0" /><circle cx="532" cy="898" fill="#3cb44B" r="3.5" stroke-width="0" /><circle cx="526" cy="894" fill="#3cb44B" r="3.5" stroke-width="0" /><circle cx="520" cy="890" fill="#3cb44B" r="3.5" stroke-width="0" /><circle cx="512" cy="885" fill="#3cb44B" r="3.5" stroke-width="0" /><circle cx="506" cy="881" fill="#3cb44B" r="3.5" stroke-width="0" /><circle cx="500" cy="877" fill="#3cb44B" r="3.5" stroke-width="0" /><circle cx="493" cy="872" fill="#3cb44B" r="3.5" stroke-width="0" /></g><g class="e4"><circle cx="267" cy="646" fill="#ff0000" r="3.5" stroke-width="0" /><circle cx="262" cy="639" fill="#ff0000" r="3.5" stroke-width="0" /><circle cx="258" cy="633" fill="#ff0000" r="3.5" stroke-width="0" /><circle cx="254" cy="627" fill="#ff0000" r="3.5" stroke-width="0" /><circle cx="250" cy="620" fill="#ff0000" r="3.5" stroke-width="0" /><circle cx="246" cy="614" fill="#ff0000" r="3.5" stroke-width="0" /><circle cx="242" cy="608" fill="#ff0000" r="3.5" stroke-width="0" /><circle cx="237" cy="601" fill="#ff0000" r="3.5" stroke-width="0" /><circle cx="234" cy="595" fill="#ff0000" r="3.5" stroke-width="0" /><circle cx="230" cy="589" fill="#ff0000" r="3.5" stroke-width="0" /><circle cx="226" cy="582" fill="#ff0000" r="3.5" stroke-width="0" /><circle cx="222" cy="576" fill="#ff0000" r="3.5" stroke-width="0" /><circle cx="219" cy="570" fill="#ff0000" r="3.5" stroke-width="0" /><circle cx="215" cy="563" fill="#ff0000" r="3.5" stroke-width="0" /><circle cx="211" cy="557" fill="#ff0000" r="3.5" stroke-width="0" /><circle cx="208" cy="551" fill="#ff0000" r="3.5" stroke-width="0" /><circle cx="204" cy="544" fill="#ff0000" r="3.5" stroke-width="0" /><circle cx="201" cy="538" fill="#ff0000" r="3.5" stroke-width="0" /><circle cx="198" cy="532" fill="#ff0000" r="3.5" stroke-width="0" /><circle cx="194" cy="525" fill="#ff0000" r="3.5" stroke-width="0" /><circle cx="191" cy="519" fill="#ff0000" r="3.5" stroke-width="0" /><circle cx="188" cy="513" fill="#ff0000" r="3.5" stroke-width="0" /><circle cx="185" cy="506" fill="#ff0000" r="3.5" stroke-width="0" /><circle cx="182" cy="500" fill="#ff0000" r="3.5" stroke-width="0" /><circle cx="179" cy="494" fill="#ff0000" r="3.5" stroke-width="0" /><circle cx="176" cy="488" fill="#ff0000" r="3.5" stroke-width="0" /><circle cx="173" cy="481" fill="#ff0000" r="3.5" stroke-width="0" /><circle cx="171" cy="475" fill="#ff0000" r="3.5" stroke-width="0" /></g><g class="e5"><circle cx="863" cy="1032" fill="#2b92db" r="3.5" stroke-width="0" /><circle cx="860" cy="1031" fill="#2b92db" r="3.5" stroke-width="0" /><circle cx="856" cy="1030" fill="#2b92db" r="3.5" stroke-width="0" /><circle cx="852" cy="1029" fill="#2b92db" r="3.5" stroke-width="0" /><circle cx="841" cy="1027" fill="#2b92db" r="3.5" stroke-width="0" /><circle cx="838" cy="1026" fill="#2b92db" r="3.5" stroke-width="0" /><circle cx="827" cy="1024" fill="#2b92db" r="3.5" stroke-width="0" /><circle cx="825" cy="1023" fill="#2b92db" r="3.5" stroke-width="0" /><circle cx="815" cy="1021" fill="#2b92db" r="3.5" stroke-width="0" /><circle cx="813" cy="1020" fill="#2b92db" r="3.5" stroke-width="0" /><circle cx="806" cy="1018" fill="#2b92db" r="3.5" stroke-width="0" /><circle cx="796" cy="1016" fill="#2b92db" r="3.5" stroke-width="0" /><circle cx="788" cy="1014" fill="#2b92db" r="3.5" stroke-width="0" /><circle cx="781" cy="1012" fill="#2b92db" r="3.5" stroke-width="0" /><circle cx="780" cy="1011" fill="#2b92db" r="3.5" stroke-width="0" /><circle cx="773" cy="1009" fill="#2b92db" r="3.5" stroke-width="0" /><circle cx="767" cy="1007" fill="#2b92db" r="3.5" stroke-width="0" /><circle cx="760" cy="1005" fill="#2b92db" r="3.5" stroke-width="0" /><circle cx="753" cy="1003" fill="#2b92db" r="3.5" stroke-width="0" /><circle cx="748" cy="1001" fill="#2b92db" r="3.5" stroke-width="0" /><circle cx="742" cy="999" fill="#2b92db" r="3.5" stroke-width="0" /><circle cx="736" cy="997" fill="#2b92db" r="3.5" stroke-width="0" /><circle cx="727" cy="994" fill="#2b92db" r="3.5" stroke-width="0" /><circle cx="722" cy="992" fill="#2b92db" r="3.5" stroke-width="0" /><circle cx="717" cy="990" fill="#2b92db" r="3.5" stroke-width="0" /><circle cx="708" cy="987" fill="#2b92db" r="3.5" stroke-width="0" /><circle cx="704" cy="985" fill="#2b92db" r="3.5" stroke-width="0" /><circle cx="694" cy="982" fill="#2b92db" r="3.5" stroke-width="0" /><circle cx="691" cy="980" fill="#2b92db" r="3.5" stroke-width="0" /><circle cx="683" cy="977" fill="#2b92db" r="3.5" stroke-width="0" /><circle cx="679" cy="975" fill="#2b92db" r="3.5" stroke-width="0" /><circle cx="672" cy="972" fill="#2b92db" r="3.5" stroke-width="0" /></g><g class="e6"><circle cx="168" cy="469" fill="#911eb4" r="3.5" stroke-width="0" /><circle cx="165" cy="462" fill="#911eb4" r="3.5" stroke-width="0" /><circle cx="163" cy="456" fill="#911eb4" r="3.5" stroke-width="0" /><circle cx="160" cy="450" fill="#911eb4" r="3.5" stroke-width="0" /><circle cx="157" cy="443" fill="#911eb4" r="3.5" stroke-width="0" /><circle cx="155" cy="437" fill="#911eb4" r="3.5" stroke-width="0" /><circle cx="153" cy="431" fill="#911eb4" r="3.5" stroke-width="0" /><circle cx="150" cy="424" fill="#911eb4" r="3.5" stroke-width="0" /><circle cx="148" cy="418" fill="#911eb4" r="3.5" stroke-width="0" /><circle cx="146" cy="412" fill="#911eb4" r="3.5" stroke-width="0" /><circle cx="143" cy="405" fill="#911eb4" r="3.5" stroke-width="0" /><circle cx="141" cy="399" fill="#911eb4" r="3.5" stroke-width="0" /><circle cx="139" cy="393" fill="#911eb4" r="3.5" stroke-width="0" /><circle cx="137" cy="386" fill="#911eb4" r="3.5" stroke-width="0" /><circle cx="135" cy="380" fill="#911eb4" r="3.5" stroke-width="0" /><circle cx="133" cy="374" fill="#911eb4" r="3.5" stroke-width="0" /><circle cx="131" cy="367" fill="#911eb4" r="3.5" stroke-width="0" /><circle cx="129" cy="361" fill="#911eb4" r="3.5" stroke-width="0" /><circle cx="127" cy="355" fill="#911eb4" r="3.5" stroke-width="0" /><circle cx="125" cy="348" fill="#911eb4" r="3.5" stroke-width="0" /><circle cx="124" cy="342" fill="#911eb4" r="3.5" stroke-width="0" /><circle cx="122" cy="336" fill="#911eb4" r="3.5" stroke-width="0" /><circle cx="120" cy="329" fill="#911eb4" r="3.5" stroke-width="0" /><circle cx="119" cy="323" fill="#911eb4" r="3.5" stroke-width="0" /><circle cx="117" cy="317" fill="#911eb4" r="3.5" stroke-width="0" /><circle cx="116" cy="310" fill="#911eb4" r="3.5" stroke-width="0" /><circle cx="114" cy="304" fill="#911eb4" r="3.5" stroke-width="0" /><circle cx="113" cy="298" fill="#911eb4" r="3.5" stroke-width="0" /><circle cx="111" cy="291" fill="#911eb4" r="3.5" stroke-width="0" /><circle cx="110" cy="285" fill="#911eb4" r="3.5" stroke-width="0" /><circle cx="109" cy="279" fill="#911eb4" r="3.5" stroke-width="0" /><circle cx="107" cy="272" fill="#911eb4" r="3.5" stroke-width="0" /></g><g class="e7"><circle cx="1020" cy="1050" fill="#3cb44B" r="3.5" stroke-width="0" /><circle cx="1026" cy="1050" fill="#3cb44B" r="3.5" stroke-width="0" /><circle cx="1033" cy="1050" fill="#3cb44B" r="3.5" stroke-width="0" /><circle cx="1039" cy="1050" fill="#3cb44B" r="3.5" stroke-width="0" /><circle cx="1045" cy="1050" fill="#3cb44B" r="3.5" stroke-width="0" /><circle cx="998" cy="1049" fill="#3cb44B" r="3.5" stroke-width="0" /><circle cx="1004" cy="1049" fill="#3cb44B" r="3.5" stroke-width="0" /><circle cx="1010" cy="1049" fill="#3cb44B" r="3.5" stroke-width="0" /><circle cx="1017" cy="1049" fill="#3cb44B" r="3.5" stroke-width="0" /><circle cx="984" cy="1048" fill="#3cb44B" r="3.5" stroke-width="0" /><circle cx="990" cy="1048" fill="#3cb44B" r="3.5" stroke-width="0" /><circle cx="969" cy="1047" fill="#3cb44B" r="3.5" stroke-width="0" /><circle cx="975" cy="1047" fill="#3cb44B" r="3.5" stroke-width="0" /><circle cx="958" cy="1046" fill="#3cb44B" r="3.5" stroke-width="0" /><circle cx="965" cy="1046" fill="#3cb44B" r="3.5" stroke-width="0" /><circle cx="950" cy="1045" fill="#3cb44B" r="3.5" stroke-width="0" /><circle cx="956" cy="1045" fill="#3cb44B" r="3.5" stroke-width="0" /><circle cx="944" cy="1044" fill="#3cb44B" r="3.5" stroke-width="0" /><circle cx="933" cy="1043" fill="#3cb44B" r="3.5" stroke-width="0" /><circle cx="923" cy="1042" fill="#3cb44B" r="3.5" stroke-width="0" /><circle cx="930" cy="1042" fill="#3cb44B" r="3.5" stroke-width="0" /><circle cx="921" cy="1041" fill="#3cb44B" r="3.5" stroke-width="0" /><circle cx="913" cy="1040" fill="#3cb44B" r="3.5" stroke-width="0" /><circle cx="905" cy="1039" fill="#3cb44B" r="3.5" stroke-width="0" /><circle cx="899" cy="1038" fill="#3cb44B" r="3.5" stroke-width="0" /><circle cx="893" cy="1037" fill="#3cb44B" r="3.5" stroke-width="0" /><circle cx="887" cy="1036" fill="#3cb44B" r="3.5" stroke-width="0" /><circle cx="883" cy="1035" fill="#3cb44B" r="3.5" stroke-width="0" /><circle cx="878" cy="1034" fill="#3cb44B" r="3.5" stroke-width="0" /></g><g class="e8"><circle cx="106" cy="266" fill="#ff0000" r="3.5" stroke-width="0" /><circle cx="105" cy="260" fill="#ff0000" r="3.5" stroke-width="0" /><circle cx="104" cy="253" fill="#ff0000" r="3.5" stroke-width="0" /><circle cx="103" cy="247" fill="#ff0000" r="3.5" stroke-width="0" /><circle cx="102" cy="241" fill="#ff0000" r="3.5" stroke-width="0" /><circle cx="101" cy="234" fill="#ff0000" r="3.5" stroke-width="0" /><circle cx="100" cy="228" fill="#ff0000" r="3.5" stroke-width="0" /><circle cx="99" cy="222" fill="#ff0000" r="3.5" stroke-width="0" /><circle cx="98" cy="216" fill="#ff0000" r="3.5" stroke-width="0" /><circle cx="97" cy="209" fill="#ff0000" r="3.5" stroke-width="0" /><circle cx="97" cy="203" fill="#ff0000" r="3.5" stroke-width="0" /><circle cx="96" cy="197" fill="#ff0000" r="3.5" stroke-width="0" /><circle cx="95" cy="190" fill="#ff0000" r="3.5" stroke-width="0" /><circle cx="95" cy="184" fill="#ff0000" r="3.5" stroke-width="0" /><circle cx="94" cy="178" fill="#ff0000" r="3.5" stroke-width="0" /><circle cx="93" cy="171" fill="#ff0000" r="3.5" stroke-width="0" /><circle cx="93" cy="165" fill="#ff0000" r="3.5" stroke-width="0" /><circle cx="92" cy="159" fill="#ff0000" r="3.5" stroke-width="0" /><circle cx="92" cy="152" fill="#ff0000" r="3.5" stroke-width="0" /><circle cx="92" cy="146" fill="#ff0000" r="3.5" stroke-width="0" /><circle cx="91" cy="140" fill="#ff0000" r="3.5" stroke-width="0" /><circle cx="91" cy="133" fill="#ff0000" r="3.5" stroke-width="0" /><circle cx="91" cy="127" fill="#ff0000" r="3.5" stroke-width="0" /><circle cx="91" cy="121" fill="#ff0000" r="3.5" stroke-width="0" /><circle cx="90" cy="114" fill="#ff0000" r="3.5" stroke-width="0" /><circle cx="90" cy="108" fill="#ff0000" r="3.5" stroke-width="0" /><circle cx="90" cy="102" fill="#ff0000" r="3.5" stroke-width="0" /><circle cx="90" cy="95" fill="#ff0000" r="3.5" stroke-width="0" /></g></g></g></svg>