<?xml version="1.0" encoding="utf-8" ?>
<svg baseProfile="full" height="1140px" style="font-size:15;font-family:Arial, san-serif;font-weight:bold;stroke:black;stroke-width:0;fill:#444444" version="1.1" width="1140px" xmlns="http://www.w3.org/2000/svg" xmlns:ev="http://www.w3.org/2001/xml-events" xmlns:xlink="http://www.w3.org/1999/xlink"><defs><clipPath id="areadografico"><rect height="1000" width="1000" x="70" y="70" /></clipPath></defs><g class="master"><g class="poligonos"><polygon clip-path="url(#areadografico)" fill="#000000" fill-opacity="0.1" points="70,1070 70,820 319,821 320,570 569,571 570,320 819,321 820,70 1069,71 1069,71 1069,321 819,321 819,571 569,571 569,821 319,821 320,1070" /><polygon clip-path="url(#areadografico)" fill="#ffffff" fill-opacity="0.1" points="320,1070 320,820 569,821 570,570 819,571 820,320 1069,321 1069,321 1069,571 819,571 819,821 569,821 570,1070" /><polygon clip-path="url(#areadografico)" fill="#ffffff" fill-opacity="0.1" points="70,820 320,820 319,571 570,570 569,321 820,320 819,71 819,71 569,71 569,321 319,321 319,571 70,570" /><polygon clip-path="url(#areadografico)" fill="#000000" fill-opacity="0.1" points="570,1070 570,820 819,821 820,570 1069,571 1069,571 1069,821 819,821 820,1070" /><polygon clip-path="url(#areadografico)" fill="#000000" fill-opacity="0.1" points="70,570 320,570 319,321 570,320 569,71 569,71 319,71 319,321 70,320" /><polygon clip-path="url(#areadografico)" fill="#ffffff" fill-opacity="0.1" points="820,1070 820,820 1069,821 1069,1070" /><polygon clip-path="url(#areadografico)" fill="#ffffff" fill-opacity="0.1" points="70,320 320,320 319,71 70,71" /></g><g class="linhas"><line fill-opacity="0.3" stroke="#999999" stroke-width="1" x1="1070" x2="1070" y1="1070" y2="70" /><line fill-opacity="0.3" stroke="#999999" stroke-width="1" x1="70" x2="1070" y1="70" y2="70" /><line fill-opacity="0.3" stroke="#999999" stroke-width="1" x1="970" x2="970" y1="1070" y2="70" /><line fill-opacity="0.3" stroke="#999999" stroke-width="1" x1="70" x2="1070" y1="170" y2="170" /><line fill-opacity="0.3" stroke="#999999" stroke-width="1" x1="870" x2="870" y1="1070" y2="70" /><line fill-opacity="0.3" stroke="#999999" stroke-width="1" x1="70" x2="1070" y1="270" y2="270" /><line fill-opacity="0.3" stroke="#999999" stroke-width="1" x1="770" x2="770" y1="1070" y2="70" /><line fill-opacity="0.3" stroke="#999999" stroke-width="1" x1="70" x2="1070" y1="370" y2="370" /><line fill-opacity="0.3" stroke="#999999" stroke-width="1" x1="670" x2="670" y1="1070" y2="70" /><line fill-opacity="0.3" stroke="#999999" stroke-width="1" x1="70" x2="1070" y1="470" y2="470" /><line fill-opacity="0.3" stroke="#999999" stroke-width="1" x1="570" x2="570" y1="1070" y2="70" /><line fill-opacity="0.3" stroke="#999999" stroke-width="1" x1="70" x2="1070" y1="570" y2="570" /><line fill-opacity="0.3" stroke="#999999" stroke-width="1" x1="470" x2="470" y1="1070" y2="70" /><line fill-opacity="0.3" stroke="#999999" stroke-width="1" x1="70" x2="1070" y1="670" y2="670" /><line fill-opacity="0.3" stroke="#999999" stroke-width="1" x1="370" x2="370" y1="1070" y2="70" /><line fill-opacity="0.3" stroke="#999999" stroke-width="1" x1="70" x2="1070" y1="770" y2="770" /><line fill-opacity="0.3" stroke="#999999" stroke-width="1" x1="270" x2="270" y1="1070" y2="70" /><line fill-opacity="0.3" stroke="#999999" stroke-width="1" x1="70" x2="1070" y1="870" y2="870" /><line fill-opacity="0.3" stroke="#999999" stroke-width="1" x1="170" x2="170" y1="1070" y2="70" /><line fill-opacity="0.3" stroke="#999999" stroke-width="1" x1="70" x2="1070" y1="970" y2="970" /><line fill-opacity="0.3" stroke="#000000" stroke-width="1" x1="70" x2="70" y1="1071" y2="69" /><line fill-opacity="0.3" stroke="#000000" stroke-width="1" x1="69" x2="1071" y1="1070" y2="1070" /></g><g class="textos"><text x="1050" y="1110">1000</text><text x="10" y="71">1000</text><text x="950" y="1110">900</text><text x="10" y="171">900</text><text x="850" y="1110">800</text><text x="10" y="271">800</text><text x="750" y="1110">700</text><text x="10" y="371">700</text><text x="650" y="1110">600</text><text x="10" y="471">600</text><text x="550" y="1110">500</text><text x="10" y="571">500</text><text x="450" y="1110">400</text><text x="10" y="671">400</text><text x="350" y="1110">300</text><text x="10" y="771">300</text><text x="250" y="1110">200</text><text x="10" y="871">200</text><text x="150" y="1110">100</text><text x="10" y="971">100</text><text x="50" y="1111">0</text><text x="9" y="1071">0</text></g><g class="especies"><g class="e0"><circle cx="426" cy="820" fill="#ff0000" r="3.5" stroke-width="0" /><circle cx="422" cy="816" fill="#ff0000" r="3.5" stroke-width="0" /><circle cx="417" cy="812" fill="#ff0000" r="3.5" stroke-width="0" /><circle cx="412" cy="807" fill="#ff0000" r="3.5" stroke-width="0" /><circle cx="407" cy="803" fill="#ff0000" r="3.5" stroke-width="0" /><circle cx="402" cy="798" fill="#ff0000" r="3.5" stroke-width="0" /><circle cx="397" cy="794" fill="#ff0000" r="3.5" stroke-width="0" /><circle cx="392" cy="789" fill="#ff0000" r="3.5" stroke-width="0" /><circle cx="387" cy="784" fill="#ff0000" r="3.5" stroke-width="0" /><circle cx="381" cy="779" fill="#ff0000" r="3.5" stroke-width="0" /><circle cx="377" cy="775" fill="#ff0000" r="3.5" stroke-width="0" /><circle cx="372" cy="770" fill="#ff0000" r="3.5" stroke-width="0" /><circle cx="369" cy="767" fill="#ff0000" r="3.5" stroke-width="0" /><circle cx="364" cy="762" fill="#ff0000" r="3.5" stroke-width="0" /><circle cx="360" cy="757" fill="#ff0000" r="3.5" stroke-width="0" /><circle cx="355" cy="752" fill="#ff0000" r="3.5" stroke-width="0" /><circle cx="350" cy="747" fill="#ff0000" r="3.5" stroke-width="0" /><circle cx="345" cy="742" fill="#ff0000" r="3.5" stroke-width="0" /><circle cx="341" cy="737" fill="#ff0000" r="3.5" stroke-width="0" /><circle cx="336" cy="732" fill="#ff0000" r="3.5" stroke-width="0" /><circle cx="332" cy="727" fill="#ff0000" r="3.5" stroke-width="0" /><circle cx="327" cy="722" fill="#ff0000" r="3.5" stroke-width="0" /><circle cx="323" cy="717" fill="#ff0000" r="3.5" stroke-width="0" /></g><g class="e1"><circle cx="569" cy="921" fill="#2b92db" r="3.5" stroke-width="0" /><circle cx="564" cy="918" fill="#2b92db" r="3.5" stroke-width="0" /><circle cx="561" cy="916" fill="#2b92db" r="3.5" stroke-width="0" /><circle cx="556" cy="913" fill="#2b92db" r="3.5" stroke-width="0" /><circle cx="550" cy="910" fill="#2b92db" r="3.5" stroke-width="0" /><circle cx="546" cy="907" fill="#2b92db" r="3.5" stroke-width="0" /><circle cx="541" cy="904" fill="#2b92db" r="3.5" stroke-width="0" /><circle cx="537" cy="901" fill="#2b92db" r="3.5" stroke-width="0" /><circle cx="532" cy="898" fill="#2b92db" r="3.5" stroke-width="0" /><circle cx="525" cy="894" fill="#2b92db" r="3.5" stroke-width="0" /><circle cx="521" cy="891" fill="#2b92db" r="3.5" stroke-width="0" /><circle cx="517" cy="888" fill="#2b92db" r="3.5" stroke-width="0" /><circle cx="510" cy="884" fill="#2b92db" r="3.5" stroke-width="0" /><circle cx="506" cy="881" fill="#2b92db" r="3.5" stroke-width="0" /><circle cx="502" cy="878" fill="#2b92db" r="3.5" stroke-width="0" /><circle cx="496" cy="874" fill="#2b92db" r="3.5" stroke-width="0" /><circle cx="490" cy="870" fill="#2b92db" r="3.5" stroke-width="0" /><circle cx="486" cy="867" fill="#2b92db" r="3.5" stroke-width="0" /><circle cx="481" cy="863" fill="#2b92db" r="3.5" stroke-width="0" /><circle cx="475" cy="859" fill="#2b92db" r="3.5" stroke-width="0" /><circle cx="472" cy="856" fill="#2b92db" r="3.5" stroke-width="0" /><circle cx="466" cy="852" fill="#2b92db" r="3.5" stroke-width="0" /><circle cx="461" cy="848" fill="#2b92db" r="3.5" stroke-width="0" /><circle cx="457" cy="845" fill="#2b92db" r="3.5" stroke-width="0" /><circle cx="452" cy="841" fill="#2b92db" r="3.5" stroke-width="0" /><circle cx="447" cy="837" fill="#2b92db" r="3.5" stroke-width="0" /><circle cx="442" cy="833" fill="#2b92db" r="3.5" stroke-width="0" /><circle cx="437" cy="829" fill="#2b92db" r="3.5" stroke-width="0" /><circle cx="433" cy="825" fill="#2b92db" r="3.5" stroke-width="0" /></g><g class="e2"><circle cx="319" cy="712" fill="#911eb4" r="3.5" stroke-width="0" /><circle cx="315" cy="707" fill="#911eb4" r="3.5" stroke-width="0" /><circle cx="310" cy="702" fill="#911eb4" r="3.5" stroke-width="0" /><circle cx="306" cy="697" fill="#911eb4" r="3.5" stroke-width="0" /><circle cx="302" cy="692" fill="#911eb4" r="3.5" stroke-width="0" /><circle cx="298" cy="687" fill="#911eb4" r="3.5" stroke-width="0" /><circle cx="294" cy="682" fill="#911eb4" r="3.5" stroke-width="0" /><circle cx="291" cy="678" fill="#911eb4" r="3.5" stroke-width="0" /><circle cx="287" cy="673" fill="#911eb4" r="3.5" stroke-width="0" /><circle cx="284" cy="668" fill="#911eb4" r="3.5" stroke-width="0" /><circle cx="280" cy="663" fill="#911eb4" r="3.5" stroke-width="0" /><circle cx="276" cy="658" fill="#911eb4" r="3.5" stroke-width="0" /><circle cx="272" cy="653" fill="#911eb4" r="3.5" stroke-width="0" /><circle cx="269" cy="648" fill="#911eb4" r="3.5" stroke-width="0" /><circle cx="265" cy="643" fill="#911eb4" r="3.5" stroke-width="0" /><circle cx="262" cy="638" fill="#911eb4" r="3.5" stroke-width="0" /><circle cx="258" cy="633" fill="#911eb4" r="3.5" stroke-width="0" /><circle cx="255" cy="628" fill="#911eb4" r="3.5" stroke-width="0" /><circle cx="252" cy="623" fill="#911eb4" r="3.5" stroke-width="0" /><circle cx="248" cy="618" fill="#911eb4" r="3.5" stroke-width="0" /><circle cx="245" cy="613" fill="#911eb4" r="3.5" stroke-width="0" /><circle cx="242" cy="608" fill="#911eb4" r="3.5" stroke-width="0" /><circle cx="239" cy="603" fill="#911eb4" r="3.5" stroke-width="0" /><circle cx="235" cy="598" fill="#911eb4" r="3.5" stroke-width="0" /><circle cx="232" cy="593" fill="#911eb4" r="3.5" stroke-width="0" /><circle cx="229" cy="588" fill="#911eb4" r="3.5" stroke-width="0" /><circle cx="227" cy="584" fill="#911eb4" r="3.5" stroke-width="0" /><circle cx="224" cy="579" fill="#911eb4" r="3.5" stroke-width="0" /><circle cx="221" cy="574" fill="#911eb4" r="3.5" stroke-width="0" /></g><g class="e3"><circle cx="810" cy="1020" fill="#3cb44B" r="3.5" stroke-width="0" /><circle cx="808" cy="1019" fill="#3cb44B" r="3.5" stroke-width="0" /><circle cx="806" cy="1018" fill="#3cb44B" r="3.5" stroke-width="0" /><circle cx="795" cy="1016" fill="#3cb44B" r="3.5" stroke-width="0" /><circle cx="793" cy="1015" fill="#3cb44B" r="3.5" stroke-width="0" /><circle cx="791" cy="1014" fill="#3cb44B" r="3.5" stroke-width="0" /><circle cx="782" cy="1012" fill="#3cb44B" r="3.5" stroke-width="0" /><circle cx="780" cy="1011" fill="#3cb44B" r="3.5" stroke-width="0" /><circle cx="772" cy="1009" fill="#3cb44B" r="3.5" stroke-width="0" /><circle cx="770" cy="1008" fill="#3cb44B" r="3.5" stroke-width="0" /><circle cx="763" cy="1006" fill="#3cb44B" r="3.5" stroke-width="0" /><circle cx="761" cy="1005" fill="#3cb44B" r="3.5" stroke-width="0" /><circle cx="753" cy="1003" fill="#3cb44B" r="3.5" stroke-width="0" /><circle cx="746" cy="1001" fill="#3cb44B" r="3.5" stroke-width="0" /><circle cx="745" cy="1000" fill="#3cb44B" r="3.5" stroke-width="0" /><circle cx="738" cy="998" fill="#3cb44B" r="3.5" stroke-width="0" /><circle cx="732" cy="996" fill="#3cb44B" r="3.5" stroke-width="0" /><circle cx="731" cy="995" fill="#3cb44B" r="3.5" stroke-width="0" /><circle cx="724" cy="993" fill="#3cb44B" r="3.5" stroke-width="0" /><circle cx="719" cy="991" fill="#3cb44B" r="3.5" stroke-width="0" /><circle cx="712" cy="989" fill="#3cb44B" r="3.5" stroke-width="0" /><circle cx="707" cy="987" fill="#3cb44B" r="3.5" stroke-width="0" /><circle cx="702" cy="985" fill="#3cb44B" r="3.5" stroke-width="0" /><circle cx="701" cy="984" fill="#3cb44B" r="3.5" stroke-width="0" /><circle cx="696" cy="982" fill="#3cb44B" r="3.5" stroke-width="0" /><circle cx="691" cy="980" fill="#3cb44B" r="3.5" stroke-width="0" /><circle cx="682" cy="977" fill="#3cb44B" r="3.5" stroke-width="0" /><circle cx="677" cy="975" fill="#3cb44B" r="3.5" stroke-width="0" /><circle cx="673" cy="973" fill="#3cb44B" r="3.5" stroke-width="0" /><circle cx="668" cy="971" fill="#3cb44B" r="3.5" stroke-width="0" /><circle cx="664" cy="969" fill="#3cb44B" r="3.5" stroke-width="0" /><circle cx="660" cy="967" fill="#3cb44B" r="3.5" stroke-width="0" /><circle cx="656" cy="965" fill="#3cb44B" r="3.5" stroke-width="0" /><circle cx="648" cy="962" fill="#3cb44B" r="3.5" stroke-width="0" /><circle cx="645" cy="960" fill="#3cb44B" r="3.5" stroke-width="0" /><circle cx="639" cy="958" fill="#3cb44B" r="3.5" stroke-width="0" /><circle cx="636" cy="956" fill="#3cb44B" r="3.5" stroke-width="0" /><circle cx="629" cy="953" fill="#3cb44B" r="3.5" stroke-width="0" /><circle cx="626" cy="951" fill="#3cb44B" r="3.5" stroke-width="0" /><circle cx="619" cy="948" fill="#3cb44B" r="3.5" stroke-width="0" /><circle cx="616" cy="946" fill="#3cb44B" r="3.5" stroke-width="0" /><circle cx="609" cy="943" fill="#3cb44B" r="3.5" stroke-width="0" /><circle cx="606" cy="941" fill="#3cb44B" r="3.5" stroke-width="0" /><circle cx="600" cy="938" fill="#3cb44B" r="3.5" stroke-width="0" /><circle cx="594" cy="935" fill="#3cb44B" r="3.5" stroke-width="0" /><circle cx="591" cy="933" fill="#3cb44B" r="3.5" stroke-width="0" /><circle cx="586" cy="930" fill="#3cb44B" r="3.5" stroke-width="0" /><circle cx="579" cy="927" fill="#3cb44B" r="3.5" stroke-width="0" /><circle cx="574" cy="924" fill="#3cb44B" r="3.5" stroke-width="0" /></g><g class="e4"><circle cx="218" cy="569" fill="#ff0000" r="3.5" stroke-width="0" /><circle cx="215" cy="564" fill="#ff0000" r="3.5" stroke-width="0" /><circle cx="212" cy="559" fill="#ff0000" r="3.5" stroke-width="0" /><circle cx="210" cy="554" fill="#ff0000" r="3.5" stroke-width="0" /><circle cx="207" cy="549" fill="#ff0000" r="3.5" stroke-width="0" /><circle cx="204" cy="544" fill="#ff0000" r="3.5" stroke-width="0" /><circle cx="201" cy="539" fill="#ff0000" r="3.5" stroke-width="0" /><circle cx="199" cy="534" fill="#ff0000" r="3.5" stroke-width="0" /><circle cx="196" cy="529" fill="#ff0000" r="3.5" stroke-width="0" /><circle cx="194" cy="524" fill="#ff0000" r="3.5" stroke-width="0" /><circle cx="191" cy="519" fill="#ff0000" r="3.5" stroke-width="0" /><circle cx="189" cy="514" fill="#ff0000" r="3.5" stroke-width="0" /><circle cx="186" cy="509" fill="#ff0000" r="3.5" stroke-width="0" /><circle cx="184" cy="504" fill="#ff0000" r="3.5" stroke-width="0" /><circle cx="181" cy="499" fill="#ff0000" r="3.5" stroke-width="0" /><circle cx="180" cy="495" fill="#ff0000" r="3.5" stroke-width="0" /><circle cx="177" cy="490" fill="#ff0000" r="3.5" stroke-width="0" /><circle cx="175" cy="485" fill="#ff0000" r="3.5" stroke-width="0" /><circle cx="173" cy="480" fill="#ff0000" r="3.5" stroke-width="0" /><circle cx="171" cy="475" fill="#ff0000" r="3.5" stroke-width="0" /><circle cx="168" cy="470" fill="#ff0000" r="3.5" stroke-width="0" /><circle cx="166" cy="465" fill="#ff0000" r="3.5" stroke-width="0" /><circle cx="164" cy="460" fill="#ff0000" r="3.5" stroke-width="0" /><circle cx="162" cy="455" fill="#ff0000" r="3.5" stroke-width="0" /><circle cx="160" cy="450" fill="#ff0000" r="3.5" stroke-width="0" /><circle cx="158" cy="445" fill="#ff0000" r="3.5" stroke-width="0" /><circle cx="156" cy="440" fill="#ff0000" r="3.5" stroke-width="0" /><circle cx="154" cy="435" fill="#ff0000" r="3.5" stroke-width="0" /><circle cx="152" cy="430" fill="#ff0000" r="3.5" stroke-width="0" /><circle cx="150" cy="425" fill="#ff0000" r="3.5" stroke-width="0" /><circle cx="149" cy="420" fill="#ff0000" r="3.5" stroke-width="0" /><circle cx="147" cy="415" fill="#ff0000" r="3.5" stroke-width="0" /><circle cx="145" cy="410" fill="#ff0000" r="3.5" stroke-width="0" /><circle cx="143" cy="406" fill="#ff0000" r="3.5" stroke-width="0" /><circle cx="142" cy="401" fill="#ff0000" r="3.5" stroke-width="0" /><circle cx="140" cy="396" fill="#ff0000" r="3.5" stroke-width="0" /><circle cx="138" cy="391" fill="#ff0000" r="3.5" stroke-width="0" /><circle cx="137" cy="386" fill="#ff0000" r="3.5" stroke-width="0" /><circle cx="135" cy="381" fill="#ff0000" r="3.5" stroke-width="0" /><circle cx="134" cy="376" fill="#ff0000" r="3.5" stroke-width="0" /><circle cx="132" cy="371" fill="#ff0000" r="3.5" stroke-width="0" /><circle cx="131" cy="366" fill="#ff0000" r="3.5" stroke-width="0" /><circle cx="129" cy="361" fill="#ff0000" r="3.5" stroke-width="0" /><circle cx="128" cy="356" fill="#ff0000" r="3.5" stroke-width="0" /><circle cx="126" cy="351" fill="#ff0000" r="3.5" stroke-width="0" /><circle cx="125" cy="346" fill="#ff0000" r="3.5" stroke-width="0" /><circle cx="123" cy="341" fill="#ff0000" r="3.5" stroke-width="0" /><circle cx="122" cy="336" fill="#ff0000" r="3.5" stroke-width="0" /><circle cx="121" cy="331" fill="#ff0000" r="3.5" stroke-width="0" /><circle cx="119" cy="326" fill="#ff0000" r="3.5" stroke-width="0" /><circle cx="118" cy="321" fill="#ff0000" r="3.5" stroke-width="0" /></g><g class="e5"><circle cx="1020" cy="1050" fill="#2b92db" r="3.5" stroke-width="0" /><circle cx="1025" cy="1050" fill="#2b92db" r="3.5" stroke-width="0" /><circle cx="1030" cy="1050" fill="#2b92db" r="3.5" stroke-width="0" /><circle cx="1035" cy="1050" fill="#2b92db" r="3.5" stroke-width="0" /><circle cx="1040" cy="1050" fill="#2b92db" r="3.5" stroke-width="0" /><circle cx="1045" cy="1050" fill="#2b92db" r="3.5" stroke-width="0" /><circle cx="1050" cy="1050" fill="#2b92db" r="3.5" stroke-width="0" /><circle cx="1001" cy="1049" fill="#2b92db" r="3.5" stroke-width="0" /><circle cx="1006" cy="1049" fill="#2b92db" r="3.5" stroke-width="0" /><circle cx="1011" cy="1049" fill="#2b92db" r="3.5" stroke-width="0" /><circle cx="1015" cy="1049" fill="#2b92db" r="3.5" stroke-width="0" /><circle cx="981" cy="1048" fill="#2b92db" r="3.5" stroke-width="0" /><circle cx="986" cy="1048" fill="#2b92db" r="3.5" stroke-width="0" /><circle cx="991" cy="1048" fill="#2b92db" r="3.5" stroke-width="0" /><circle cx="996" cy="1048" fill="#2b92db" r="3.5" stroke-width="0" /><circle cx="973" cy="1047" fill="#2b92db" r="3.5" stroke-width="0" /><circle cx="978" cy="1047" fill="#2b92db" r="3.5" stroke-width="0" /><circle cx="960" cy="1046" fill="#2b92db" r="3.5" stroke-width="0" /><circle cx="965" cy="1046" fill="#2b92db" r="3.5" stroke-width="0" /><circle cx="949" cy="1045" fill="#2b92db" r="3.5" stroke-width="0" /><circle cx="954" cy="1045" fill="#2b92db" r="3.5" stroke-width="0" /><circle cx="940" cy="1044" fill="#2b92db" r="3.5" stroke-width="0" /><circle cx="945" cy="1044" fill="#2b92db" r="3.5" stroke-width="0" /><circle cx="933" cy="1043" fill="#2b92db" r="3.5" stroke-width="0" /><circle cx="938" cy="1043" fill="#2b92db" r="3.5" stroke-width="0" /><circle cx="927" cy="1042" fill="#2b92db" r="3.5" stroke-width="0" /><circle cx="917" cy="1041" fill="#2b92db" r="3.5" stroke-width="0" /><circle cx="922" cy="1041" fill="#2b92db" r="3.5" stroke-width="0" /><circle cx="912" cy="1040" fill="#2b92db" r="3.5" stroke-width="0" /><circle cx="903" cy="1039" fill="#2b92db" r="3.5" stroke-width="0" /><circle cx="908" cy="1039" fill="#2b92db" r="3.5" stroke-width="0" /><circle cx="900" cy="1038" fill="#2b92db" r="3.5" stroke-width="0" /><circle cx="893" cy="1037" fill="#2b92db" r="3.5" stroke-width="0" /><circle cx="886" cy="1036" fill="#2b92db" r="3.5" stroke-width="0" /><circle cx="880" cy="1035" fill="#2b92db" r="3.5" stroke-width="0" /><circle cx="874" cy="1034" fill="#2b92db" r="3.5" stroke-width="0" /><circle cx="868" cy="1033" fill="#2b92db" r="3.5" stroke-width="0" /><circle cx="863" cy="1032" fill="#2b92db" r="3.5" stroke-width="0" /><circle cx="858" cy="1031" fill="#2b92db" r="3.5" stroke-width="0" /><circle cx="853" cy="1030" fill="#2b92db" r="3.5" stroke-width="0" /><circle cx="848" cy="1029" fill="#2b92db" r="3.5" stroke-width="0" /><circle cx="844" cy="1028" fill="#2b92db" r="3.5" stroke-width="0" /><circle cx="840" cy="1027" fill="#2b92db" r="3.5" stroke-width="0" /><circle cx="836" cy="1026" fill="#2b92db" r="3.5" stroke-width="0" /><circle cx="833" cy="1025" fill="#2b92db" r="3.5" stroke-width="0" /><circle cx="829" cy="1024" fill="#2b92db" r="3.5" stroke-width="0" /><circle cx="824" cy="1023" fill="#2b92db" r="3.5" stroke-width="0" /><circle cx="821" cy="1022" fill="#2b92db" r="3.5" stroke-width="0" /></g><g class="e6"><circle cx="117" cy="316" fill="#911eb4" r="3.5" stroke-width="0" /><circle cx="116" cy="312" fill="#911eb4" r="3.5" stroke-width="0" /><circle cx="115" cy="307" fill="#911eb4" r="3.5" stroke-width="0" /><circle cx="114" cy="302" fill="#911eb4" r="3.5" stroke-width="0" /><circle cx="113" cy="297" fill="#911eb4" r="3.5" stroke-width="0" /><circle cx="111" cy="292" fill="#911eb4" r="3.5" stroke-width="0" /><circle cx="110" cy="287" fill="#911eb4" r="3.5" stroke-width="0" /><circle cx="109" cy="282" fill="#911eb4" r="3.5" stroke-width="0" /><circle cx="108" cy="277" fill="#911eb4" r="3.5" stroke-width="0" /><circle cx="107" cy="272" fill="#911eb4" r="3.5" stroke-width="0" /><circle cx="106" cy="267" fill="#911eb4" r="3.5" stroke-width="0" /><circle cx="106" cy="262" fill="#911eb4" r="3.5" stroke-width="0" /><circle cx="105" cy="257" fill="#911eb4" r="3.5" stroke-width="0" /><circle cx="104" cy="252" fill="#911eb4" r="3.5" stroke-width="0" /><circle cx="103" cy="247" fill="#911eb4" r="3.5" stroke-width="0" /><circle cx="102" cy="242" fill="#911eb4" r="3.5" stroke-width="0" /><circle cx="101" cy="237" fill="#911eb4" r="3.5" stroke-width="0" /><circle cx="101" cy="232" fill="#911eb4" r="3.5" stroke-width="0" /><circle cx="100" cy="227" fill="#911eb4" r="3.5" stroke-width="0" /><circle cx="99" cy="223" fill="#911eb4" r="3.5" stroke-width="0" /><circle cx="99" cy="218" fill="#911eb4" r="3.5" stroke-width="0" /><circle cx="98" cy="213" fill="#911eb4" r="3.5" stroke-width="0" /><circle cx="97" cy="208" fill="#911eb4" r="3.5" stroke-width="0" /><circle cx="97" cy="203" fill="#911eb4" r="3.5" stroke-width="0" /><circle cx="96" cy="198" fill="#911eb4" r="3.5" stroke-width="0" /><circle cx="96" cy="193" fill="#911eb4" r="3.5" stroke-width="0" /><circle cx="95" cy="188" fill="#911eb4" r="3.5" stroke-width="0" /><circle cx="95" cy="183" fill="#911eb4" r="3.5" stroke-width="0" /><circle cx="94" cy="178" fill="#911eb4" r="3.5" stroke-width="0" /><circle cx="94" cy="173" fill="#911eb4" r="3.5" stroke-width="0" /><circle cx="93" cy="168" fill="#911eb4" r="3.5" stroke-width="0" /><circle cx="93" cy="163" fill="#911eb4" r="3.5" stroke-width="0" /><circle cx="92" cy="158" fill="#911eb4" r="3.5" stroke-width="0" /><circle cx="92" cy="153" fill="#911eb4" r="3.5" stroke-width="0" /><circle cx="92" cy="148" fill="#911eb4" r="3.5" stroke-width="0" /><circle cx="91" cy="143" fill="#911eb4" r="3.5" stroke-width="0" /><circle cx="91" cy="138" fill="#911eb4" r="3.5" stroke-width="0" /><circle cx="91" cy="134" fill="#911eb4" r="3.5" stroke-width="0" /><circle cx="91" cy="129" fill="#911eb4" r="3.5" stroke-width="0" /><circle cx="91" cy="124" fill="#911eb4" r="3.5" stroke-width="0" /><circle cx="90" cy="119" fill="#911eb4" r="3.5" stroke-width="0" /><circle cx="90" cy="114" fill="#911eb4" r="3.5" stroke-width="0" /><circle cx="90" cy="109" fill="#911eb4" r="3.5" stroke-width="0" /><circle cx="90" cy="104" fill="#911eb4" r="3.5" stroke-width="0" /><circle cx="90" cy="99" fill="#911eb4" r="3.5" stroke-width="0" /><circle cx="90" cy="94" fill="#911eb4" r="3.5" stroke-width="0" /></g></g></g></svg>