<?xml version="1.0" encoding="utf-8" ?>
<svg baseProfile="full" height="1140px" style="font-size:15;font-family:Arial, san-serif;font-weight:bold;stroke:black;stroke-width:0;fill:#444444" version="1.1" width="1140px" xmlns="http://www.w3.org/2000/svg" xmlns:ev="http://www.w3.org/2001/xml-events" xmlns:xlink="http://www.w3.org/1999/xlink"><defs><clipPath id="areadografico"><rect height="1000" width="1000" x="70" y="70" /></clipPath></defs><g class="master"><g class="poligonos"><polygon clip-path="url(#areadografico)" fill="#000000" fill-opacity="0.1" points="1069,1070 1069,785 785,1070" /><polygon clip-path="url(#areadografico)" fill="#ffffff" fill-opacity="0.1" points="785,1070 499,1070 1069,499 1069,785" /><polygon clip-path="url(#areadografico)" fill="#000000" fill-opacity="0.1" points="499,1070 214,1070 1069,214 1069,499" /><polygon clip-path="url(#areadografico)" fill="#ffffff" fill-opacity="0.1" points="214,1070 -72,1070 1069,-72 1069,214" /><polygon clip-path="url(#areadografico)" fill="#000000" fill-opacity="0.1" points="-72,1070 -358,1070 1069,-358 1069,-72" /><polygon clip-path="url(#areadografico)" fill="#ffffff" fill-opacity="0.1" points="-358,1070 -643,1070 1069,-643 1069,-358" /><polygon clip-path="url(#areadografico)" fill="#000000" fill-opacity="0.1" points="70,70 70,356 356,70" /></g><g class="linhas"><line fill-opacity="0.3" stroke="#999999" stroke-width="1" x1="1070" x2="1070" y1="1070" y2="70" /><line fill-opacity="0.3" stroke="#999999" stroke-width="1" x1="70" x2="1070" y1="70" y2="70" /><line fill-opacity="0.3" stroke="#999999" stroke-width="1" x1="970" x2="970" y1="1070" y2="70" /><line fill-opacity="0.3" stroke="#999999" stroke-width="1" x1="70" x2="1070" y1="170" y2="170" /><line fill-opacity="0.3" stroke="#999999" stroke-width="1" x1="870" x2="870" y1="1070" y2="70" /><line fill-opacity="0.3" stroke="#999999" stroke-width="1" x1="70" x2="1070" y1="270" y2="270" /><line fill-opacity="0.3" stroke="#999999" stroke-width="1" x1="770" x2="770" y1="1070" y2="70" /><line fill-opacity="0.3" stroke="#999999" stroke-width="1" x1="70" x2="1070" y1="370" y2="370" /><line fill-opacity="0.3" stroke="#999999" stroke-width="1" x1="670" x2="670" y1="1070" y2="70" /><line fill-opacity="0.3" stroke="#999999" stroke-width="1" x1="70" x2="1070" y1="470" y2="470" /><line fill-opacity="0.3" stroke="#999999" stroke-width="1" x1="570" x2="570" y1="1070" y2="70" /><line fill-opacity="0.3" stroke="#999999" stroke-width="1" x1="70" x2="1070" y1="570" y2="570" /><line fill-opacity="0.3" stroke="#999999" stroke-width="1" x1="470" x2="470" y1="1070" y2="70" /><line fill-opacity="0.3" stroke="#999999" stroke-width="1" x1="70" x2="1070" y1="670" y2="670" /><line fill-opacity="0.3" stroke="#999999" stroke-width="1" x1="370" x2="370" y1="1070" y2="70" /><line fill-opacity="0.3" stroke="#999999" stroke-width="1" x1="70" x2="1070" y1="770" y2="770" /><line fill-opacity="0.3" stroke="#999999" stroke-width="1" x1="270" x2="270" y1="1070" y2="70" /><line fill-opacity="0.3" stroke="#999999" stroke-width="1" x1="70" x2="1070" y1="870" y2="870" /><line fill-opacity="0.3" stroke="#999999" stroke-width="1" x1="170" x2="170" y1="1070" y2="70" /><line fill-opacity="0.3" stroke="#999999" stroke-width="1" x1="70" x2="1070" y1="970" y2="970" /><line fill-opacity="0.3" stroke="#000000" stroke-width="1" x1="70" x2="70" y1="1071" y2="69" /><line fill-opacity="0.3" stroke="#000000" stroke-width="1" x1="69" x2="1071" y1="1070" y2="1070" /></g><g class="textos"><text x="1050" y="1110">1000</text><text x="10" y="71">1000</text><text x="950" y="1110">900</text><text x="10" y="171">900</text><text x="850" y="1110">800</text><text x="10" y="271">800</text><text x="750" y="1110">700</text><text x="10" y="371">700</text><text x="650" y="1110">600</text><text x="10" y="471">600</text><text x="550" y="1110">500</text><text x="10" y="571">500</text><text x="450" y="1110">400</text><text x="10" y="671">400</text><text x="350" y="1110">300</text><text x="10" y="771">300</text><text x="250" y="1110">200</text><text x="10" y="871">200</text><text x="150" y="1110">100</text><text x="10" y="971">100</text><text x="50" y="1111">0</text><text x="9" y="1071">0</text></g><g class="especies"><g class="e0" /><g class="e1"><circle cx="835" cy="819" fill="#ff0000" r="3.5" stroke-width="0" /></g><g class="e2"><circle cx="825" cy="729" fill="#2b92db" r="3.5" stroke-width="0" /><circle cx="820" cy="723" fill="#2b92db" r="3.5" stroke-width="0" /><circle cx="816" cy="710" fill="#2b92db" r="3.5" stroke-width="0" /><circle cx="826" cy="700" fill="#2b92db" r="3.5" stroke-width="0" /><circle cx="805" cy="699" fill="#2b92db" r="3.5" stroke-width="0" /><circle cx="819" cy="697" fill="#2b92db" r="3.5" stroke-width="0" /><circle cx="814" cy="686" fill="#2b92db" r="3.5" stroke-width="0" /><circle cx="819" cy="684" fill="#2b92db" r="3.5" stroke-width="0" /><circle cx="812" cy="678" fill="#2b92db" r="3.5" stroke-width="0" /><circle cx="823" cy="668" fill="#2b92db" r="3.5" stroke-width="0" /><circle cx="807" cy="667" fill="#2b92db" r="3.5" stroke-width="0" /><circle cx="818" cy="667" fill="#2b92db" r="3.5" stroke-width="0" /><circle cx="824" cy="665" fill="#2b92db" r="3.5" stroke-width="0" /><circle cx="801" cy="664" fill="#2b92db" r="3.5" stroke-width="0" /><circle cx="828" cy="661" fill="#2b92db" r="3.5" stroke-width="0" /><circle cx="814" cy="649" fill="#2b92db" r="3.5" stroke-width="0" /><circle cx="815" cy="645" fill="#2b92db" r="3.5" stroke-width="0" /><circle cx="812" cy="643" fill="#2b92db" r="3.5" stroke-width="0" /><circle cx="817" cy="640" fill="#2b92db" r="3.5" stroke-width="0" /><circle cx="824" cy="632" fill="#2b92db" r="3.5" stroke-width="0" /><circle cx="814" cy="629" fill="#2b92db" r="3.5" stroke-width="0" /><circle cx="816" cy="627" fill="#2b92db" r="3.5" stroke-width="0" /><circle cx="810" cy="626" fill="#2b92db" r="3.5" stroke-width="0" /><circle cx="810" cy="625" fill="#2b92db" r="3.5" stroke-width="0" /><circle cx="818" cy="621" fill="#2b92db" r="3.5" stroke-width="0" /><circle cx="830" cy="621" fill="#2b92db" r="3.5" stroke-width="0" /><circle cx="830" cy="620" fill="#2b92db" r="3.5" stroke-width="0" /><circle cx="823" cy="618" fill="#2b92db" r="3.5" stroke-width="0" /><circle cx="842" cy="616" fill="#2b92db" r="3.5" stroke-width="0" /><circle cx="837" cy="615" fill="#2b92db" r="3.5" stroke-width="0" /><circle cx="808" cy="610" fill="#2b92db" r="3.5" stroke-width="0" /><circle cx="819" cy="608" fill="#2b92db" r="3.5" stroke-width="0" /><circle cx="804" cy="607" fill="#2b92db" r="3.5" stroke-width="0" /><circle cx="812" cy="607" fill="#2b92db" r="3.5" stroke-width="0" /><circle cx="818" cy="604" fill="#2b92db" r="3.5" stroke-width="0" /><circle cx="825" cy="604" fill="#2b92db" r="3.5" stroke-width="0" /><circle cx="804" cy="603" fill="#2b92db" r="3.5" stroke-width="0" /><circle cx="807" cy="597" fill="#2b92db" r="3.5" stroke-width="0" /><circle cx="820" cy="597" fill="#2b92db" r="3.5" stroke-width="0" /><circle cx="818" cy="595" fill="#2b92db" r="3.5" stroke-width="0" /><circle cx="822" cy="594" fill="#2b92db" r="3.5" stroke-width="0" /><circle cx="802" cy="587" fill="#2b92db" r="3.5" stroke-width="0" /><circle cx="806" cy="586" fill="#2b92db" r="3.5" stroke-width="0" /><circle cx="823" cy="586" fill="#2b92db" r="3.5" stroke-width="0" /><circle cx="822" cy="583" fill="#2b92db" r="3.5" stroke-width="0" /><circle cx="808" cy="582" fill="#2b92db" r="3.5" stroke-width="0" /><circle cx="817" cy="577" fill="#2b92db" r="3.5" stroke-width="0" /><circle cx="836" cy="576" fill="#2b92db" r="3.5" stroke-width="0" /><circle cx="812" cy="571" fill="#2b92db" r="3.5" stroke-width="0" /><circle cx="806" cy="569" fill="#2b92db" r="3.5" stroke-width="0" /><circle cx="821" cy="569" fill="#2b92db" r="3.5" stroke-width="0" /><circle cx="827" cy="569" fill="#2b92db" r="3.5" stroke-width="0" /><circle cx="830" cy="569" fill="#2b92db" r="3.5" stroke-width="0" /><circle cx="826" cy="566" fill="#2b92db" r="3.5" stroke-width="0" /><circle cx="796" cy="565" fill="#2b92db" r="3.5" stroke-width="0" /><circle cx="816" cy="561" fill="#2b92db" r="3.5" stroke-width="0" /><circle cx="819" cy="558" fill="#2b92db" r="3.5" stroke-width="0" /><circle cx="836" cy="555" fill="#2b92db" r="3.5" stroke-width="0" /><circle cx="810" cy="553" fill="#2b92db" r="3.5" stroke-width="0" /><circle cx="819" cy="550" fill="#2b92db" r="3.5" stroke-width="0" /><circle cx="814" cy="545" fill="#2b92db" r="3.5" stroke-width="0" /><circle cx="831" cy="540" fill="#2b92db" r="3.5" stroke-width="0" /><circle cx="825" cy="539" fill="#2b92db" r="3.5" stroke-width="0" /><circle cx="798" cy="537" fill="#2b92db" r="3.5" stroke-width="0" /><circle cx="804" cy="535" fill="#2b92db" r="3.5" stroke-width="0" /><circle cx="843" cy="534" fill="#2b92db" r="3.5" stroke-width="0" /><circle cx="813" cy="526" fill="#2b92db" r="3.5" stroke-width="0" /><circle cx="829" cy="526" fill="#2b92db" r="3.5" stroke-width="0" /><circle cx="826" cy="524" fill="#2b92db" r="3.5" stroke-width="0" /><circle cx="813" cy="517" fill="#2b92db" r="3.5" stroke-width="0" /><circle cx="812" cy="513" fill="#2b92db" r="3.5" stroke-width="0" /><circle cx="804" cy="511" fill="#2b92db" r="3.5" stroke-width="0" /><circle cx="818" cy="508" fill="#2b92db" r="3.5" stroke-width="0" /><circle cx="825" cy="502" fill="#2b92db" r="3.5" stroke-width="0" /><circle cx="834" cy="500" fill="#2b92db" r="3.5" stroke-width="0" /><circle cx="822" cy="494" fill="#2b92db" r="3.5" stroke-width="0" /><circle cx="817" cy="492" fill="#2b92db" r="3.5" stroke-width="0" /><circle cx="827" cy="486" fill="#2b92db" r="3.5" stroke-width="0" /><circle cx="816" cy="485" fill="#2b92db" r="3.5" stroke-width="0" /><circle cx="827" cy="485" fill="#2b92db" r="3.5" stroke-width="0" /><circle cx="822" cy="477" fill="#2b92db" r="3.5" stroke-width="0" /><circle cx="826" cy="477" fill="#2b92db" r="3.5" stroke-width="0" /><circle cx="817" cy="471" fill="#2b92db" r="3.5" stroke-width="0" /><circle cx="836" cy="468" fill="#2b92db" r="3.5" stroke-width="0" /><circle cx="822" cy="466" fill="#2b92db" r="3.5" stroke-width="0" /><circle cx="836" cy="466" fill="#2b92db" r="3.5" stroke-width="0" /></g><g class="e3"><circle cx="323" cy="815" fill="#911eb4" r="3.5" stroke-width="0" /><circle cx="323" cy="723" fill="#911eb4" r="3.5" stroke-width="0" /><circle cx="313" cy="710" fill="#911eb4" r="3.5" stroke-width="0" /><circle cx="324" cy="709" fill="#911eb4" r="3.5" stroke-width="0" /><circle cx="316" cy="703" fill="#911eb4" r="3.5" stroke-width="0" /><circle cx="324" cy="684" fill="#911eb4" r="3.5" stroke-width="0" /><circle cx="324" cy="684" fill="#911eb4" r="3.5" stroke-width="0" /><circle cx="811" cy="472" fill="#911eb4" r="3.5" stroke-width="0" /><circle cx="800" cy="468" fill="#911eb4" r="3.5" stroke-width="0" /><circle cx="827" cy="456" fill="#911eb4" r="3.5" stroke-width="0" /><circle cx="809" cy="449" fill="#911eb4" r="3.5" stroke-width="0" /><circle cx="826" cy="440" fill="#911eb4" r="3.5" stroke-width="0" /><circle cx="828" cy="435" fill="#911eb4" r="3.5" stroke-width="0" /><circle cx="826" cy="431" fill="#911eb4" r="3.5" stroke-width="0" /><circle cx="820" cy="428" fill="#911eb4" r="3.5" stroke-width="0" /><circle cx="823" cy="414" fill="#911eb4" r="3.5" stroke-width="0" /><circle cx="820" cy="403" fill="#911eb4" r="3.5" stroke-width="0" /><circle cx="828" cy="402" fill="#911eb4" r="3.5" stroke-width="0" /><circle cx="818" cy="384" fill="#911eb4" r="3.5" stroke-width="0" /><circle cx="817" cy="366" fill="#911eb4" r="3.5" stroke-width="0" /></g><g class="e4"><circle cx="314" cy="671" fill="#3cb44B" r="3.5" stroke-width="0" /><circle cx="312" cy="670" fill="#3cb44B" r="3.5" stroke-width="0" /><circle cx="312" cy="658" fill="#3cb44B" r="3.5" stroke-width="0" /><circle cx="313" cy="657" fill="#3cb44B" r="3.5" stroke-width="0" /><circle cx="318" cy="657" fill="#3cb44B" r="3.5" stroke-width="0" /><circle cx="325" cy="656" fill="#3cb44B" r="3.5" stroke-width="0" /><circle cx="311" cy="648" fill="#3cb44B" r="3.5" stroke-width="0" /><circle cx="322" cy="647" fill="#3cb44B" r="3.5" stroke-width="0" /><circle cx="321" cy="646" fill="#3cb44B" r="3.5" stroke-width="0" /><circle cx="322" cy="646" fill="#3cb44B" r="3.5" stroke-width="0" /><circle cx="329" cy="646" fill="#3cb44B" r="3.5" stroke-width="0" /><circle cx="328" cy="645" fill="#3cb44B" r="3.5" stroke-width="0" /><circle cx="319" cy="639" fill="#3cb44B" r="3.5" stroke-width="0" /><circle cx="324" cy="635" fill="#3cb44B" r="3.5" stroke-width="0" /><circle cx="326" cy="634" fill="#3cb44B" r="3.5" stroke-width="0" /><circle cx="338" cy="625" fill="#3cb44B" r="3.5" stroke-width="0" /><circle cx="343" cy="625" fill="#3cb44B" r="3.5" stroke-width="0" /><circle cx="302" cy="622" fill="#3cb44B" r="3.5" stroke-width="0" /><circle cx="344" cy="621" fill="#3cb44B" r="3.5" stroke-width="0" /><circle cx="321" cy="620" fill="#3cb44B" r="3.5" stroke-width="0" /><circle cx="326" cy="619" fill="#3cb44B" r="3.5" stroke-width="0" /><circle cx="328" cy="617" fill="#3cb44B" r="3.5" stroke-width="0" /><circle cx="318" cy="615" fill="#3cb44B" r="3.5" stroke-width="0" /><circle cx="337" cy="611" fill="#3cb44B" r="3.5" stroke-width="0" /><circle cx="321" cy="605" fill="#3cb44B" r="3.5" stroke-width="0" /><circle cx="325" cy="603" fill="#3cb44B" r="3.5" stroke-width="0" /><circle cx="329" cy="601" fill="#3cb44B" r="3.5" stroke-width="0" /><circle cx="308" cy="599" fill="#3cb44B" r="3.5" stroke-width="0" /><circle cx="319" cy="599" fill="#3cb44B" r="3.5" stroke-width="0" /><circle cx="287" cy="598" fill="#3cb44B" r="3.5" stroke-width="0" /><circle cx="319" cy="597" fill="#3cb44B" r="3.5" stroke-width="0" /><circle cx="315" cy="596" fill="#3cb44B" r="3.5" stroke-width="0" /><circle cx="317" cy="592" fill="#3cb44B" r="3.5" stroke-width="0" /><circle cx="323" cy="587" fill="#3cb44B" r="3.5" stroke-width="0" /><circle cx="309" cy="586" fill="#3cb44B" r="3.5" stroke-width="0" /><circle cx="320" cy="586" fill="#3cb44B" r="3.5" stroke-width="0" /><circle cx="332" cy="585" fill="#3cb44B" r="3.5" stroke-width="0" /><circle cx="314" cy="582" fill="#3cb44B" r="3.5" stroke-width="0" /><circle cx="318" cy="582" fill="#3cb44B" r="3.5" stroke-width="0" /><circle cx="335" cy="582" fill="#3cb44B" r="3.5" stroke-width="0" /><circle cx="327" cy="581" fill="#3cb44B" r="3.5" stroke-width="0" /><circle cx="307" cy="580" fill="#3cb44B" r="3.5" stroke-width="0" /><circle cx="298" cy="577" fill="#3cb44B" r="3.5" stroke-width="0" /><circle cx="317" cy="575" fill="#3cb44B" r="3.5" stroke-width="0" /><circle cx="314" cy="574" fill="#3cb44B" r="3.5" stroke-width="0" /><circle cx="310" cy="570" fill="#3cb44B" r="3.5" stroke-width="0" /><circle cx="325" cy="567" fill="#3cb44B" r="3.5" stroke-width="0" /><circle cx="320" cy="565" fill="#3cb44B" r="3.5" stroke-width="0" /><circle cx="314" cy="563" fill="#3cb44B" r="3.5" stroke-width="0" /><circle cx="324" cy="562" fill="#3cb44B" r="3.5" stroke-width="0" /><circle cx="320" cy="558" fill="#3cb44B" r="3.5" stroke-width="0" /><circle cx="340" cy="558" fill="#3cb44B" r="3.5" stroke-width="0" /><circle cx="332" cy="556" fill="#3cb44B" r="3.5" stroke-width="0" /><circle cx="312" cy="555" fill="#3cb44B" r="3.5" stroke-width="0" /><circle cx="313" cy="552" fill="#3cb44B" r="3.5" stroke-width="0" /><circle cx="318" cy="552" fill="#3cb44B" r="3.5" stroke-width="0" /><circle cx="314" cy="551" fill="#3cb44B" r="3.5" stroke-width="0" /><circle cx="323" cy="551" fill="#3cb44B" r="3.5" stroke-width="0" /><circle cx="313" cy="545" fill="#3cb44B" r="3.5" stroke-width="0" /><circle cx="320" cy="539" fill="#3cb44B" r="3.5" stroke-width="0" /><circle cx="304" cy="537" fill="#3cb44B" r="3.5" stroke-width="0" /><circle cx="320" cy="528" fill="#3cb44B" r="3.5" stroke-width="0" /><circle cx="323" cy="524" fill="#3cb44B" r="3.5" stroke-width="0" /><circle cx="317" cy="523" fill="#3cb44B" r="3.5" stroke-width="0" /><circle cx="301" cy="516" fill="#3cb44B" r="3.5" stroke-width="0" /><circle cx="299" cy="508" fill="#3cb44B" r="3.5" stroke-width="0" /><circle cx="308" cy="507" fill="#3cb44B" r="3.5" stroke-width="0" /><circle cx="337" cy="506" fill="#3cb44B" r="3.5" stroke-width="0" /><circle cx="313" cy="505" fill="#3cb44B" r="3.5" stroke-width="0" /><circle cx="321" cy="502" fill="#3cb44B" r="3.5" stroke-width="0" /><circle cx="328" cy="501" fill="#3cb44B" r="3.5" stroke-width="0" /><circle cx="338" cy="499" fill="#3cb44B" r="3.5" stroke-width="0" /><circle cx="326" cy="497" fill="#3cb44B" r="3.5" stroke-width="0" /><circle cx="330" cy="497" fill="#3cb44B" r="3.5" stroke-width="0" /><circle cx="322" cy="492" fill="#3cb44B" r="3.5" stroke-width="0" /><circle cx="324" cy="492" fill="#3cb44B" r="3.5" stroke-width="0" /><circle cx="308" cy="490" fill="#3cb44B" r="3.5" stroke-width="0" /><circle cx="322" cy="490" fill="#3cb44B" r="3.5" stroke-width="0" /><circle cx="349" cy="486" fill="#3cb44B" r="3.5" stroke-width="0" /><circle cx="315" cy="484" fill="#3cb44B" r="3.5" stroke-width="0" /><circle cx="311" cy="483" fill="#3cb44B" r="3.5" stroke-width="0" /><circle cx="319" cy="481" fill="#3cb44B" r="3.5" stroke-width="0" /><circle cx="332" cy="476" fill="#3cb44B" r="3.5" stroke-width="0" /><circle cx="320" cy="473" fill="#3cb44B" r="3.5" stroke-width="0" /><circle cx="338" cy="473" fill="#3cb44B" r="3.5" stroke-width="0" /><circle cx="327" cy="459" fill="#3cb44B" r="3.5" stroke-width="0" /><circle cx="326" cy="456" fill="#3cb44B" r="3.5" stroke-width="0" /><circle cx="335" cy="454" fill="#3cb44B" r="3.5" stroke-width="0" /><circle cx="323" cy="453" fill="#3cb44B" r="3.5" stroke-width="0" /><circle cx="334" cy="451" fill="#3cb44B" r="3.5" stroke-width="0" /><circle cx="331" cy="443" fill="#3cb44B" r="3.5" stroke-width="0" /><circle cx="318" cy="429" fill="#3cb44B" r="3.5" stroke-width="0" /><circle cx="307" cy="411" fill="#3cb44B" r="3.5" stroke-width="0" /></g><g class="e5" /><g class="e6" /></g></g></svg>