<?xml version="1.0" encoding="utf-8" ?>
<svg baseProfile="full" height="1140px" style="font-size:15;font-family:Arial, san-serif;font-weight:bold;stroke:black;stroke-width:0;fill:#444444" version="1.1" width="1140px" xmlns="http://www.w3.org/2000/svg" xmlns:ev="http://www.w3.org/2001/xml-events" xmlns:xlink="http://www.w3.org/1999/xlink"><defs><clipPath id="areadografico"><rect height="1000" width="1000" x="70" y="70" /></clipPath></defs><g class="master"><g class="poligonos"><polygon clip-path="url(#areadografico)" fill="#000000" fill-opacity="0.1" points="1069,1070 1069,890 890,1070" /><polygon clip-path="url(#areadografico)" fill="#ffffff" fill-opacity="0.1" points="890,1070 709,1070 1069,709 1069,890" /><polygon clip-path="url(#areadografico)" fill="#000000" fill-opacity="0.1" points="709,1070 528,1070 1069,528 1069,709" /><polygon clip-path="url(#areadografico)" fill="#ffffff" fill-opacity="0.1" points="528,1070 347,1070 1069,347 1069,528" /><polygon clip-path="url(#areadografico)" fill="#000000" fill-opacity="0.1" points="347,1070 166,1070 1069,166 1069,347" /><polygon clip-path="url(#areadografico)" fill="#ffffff" fill-opacity="0.1" points="166,1070 -15,1070 1069,-15 1069,166" /><polygon clip-path="url(#areadografico)" fill="#000000" fill-opacity="0.1" points="-15,1070 -196,1070 1069,-196 1069,-15" /><polygon clip-path="url(#areadografico)" fill="#ffffff" fill-opacity="0.1" points="-196,1070 -377,1070 1069,-377 1069,-196" /><polygon clip-path="url(#areadografico)" fill="#000000" fill-opacity="0.1" points="-377,1070 -558,1070 1069,-558 1069,-377" /><polygon clip-path="url(#areadografico)" fill="#ffffff" fill-opacity="0.1" points="-558,1070 -739,1070 1069,-739 1069,-558" /><polygon clip-path="url(#areadografico)" fill="#000000" fill-opacity="0.1" points="70,70 70,260 260,70" /></g><g class="linhas"><line fill-opacity="0.3" stroke="#999999" stroke-width="1" x1="1070" x2="1070" y1="1070" y2="70" /><line fill-opacity="0.3" stroke="#999999" stroke-width="1" x1="70" x2="1070" y1="70" y2="70" /><line fill-opacity="0.3" stroke="#999999" stroke-width="1" x1="970" x2="970" y1="1070" y2="70" /><line fill-opacity="0.3" stroke="#999999" stroke-width="1" x1="70" x2="1070" y1="170" y2="170" /><line fill-opacity="0.3" stroke="#999999" stroke-width="1" x1="870" x2="870" y1="1070" y2="70" /><line fill-opacity="0.3" stroke="#999999" stroke-width="1" x1="70" x2="1070" y1="270" y2="270" /><line fill-opacity="0.3" stroke="#999999" stroke-width="1" x1="770" x2="770" y1="1070" y2="70" /><line fill-opacity="0.3" stroke="#999999" stroke-width="1" x1="70" x2="1070" y1="370" y2="370" /><line fill-opacity="0.3" stroke="#999999" stroke-width="1" x1="670" x2="670" y1="1070" y2="70" /><line fill-opacity="0.3" stroke="#999999" stroke-width="1" x1="70" x2="1070" y1="470" y2="470" /><line fill-opacity="0.3" stroke="#999999" stroke-width="1" x1="570" x2="570" y1="1070" y2="70" /><line fill-opacity="0.3" stroke="#999999" stroke-width="1" x1="70" x2="1070" y1="570" y2="570" /><line fill-opacity="0.3" stroke="#999999" stroke-width="1" x1="470" x2="470" y1="1070" y2="70" /><line fill-opacity="0.3" stroke="#999999" stroke-width="1" x1="70" x2="1070" y1="670" y2="670" /><line fill-opacity="0.3" stroke="#999999" stroke-width="1" x1="370" x2="370" y1="1070" y2="70" /><line fill-opacity="0.3" stroke="#999999" stroke-width="1" x1="70" x2="1070" y1="770" y2="770" /><line fill-opacity="0.3" stroke="#999999" stroke-width="1" x1="270" x2="270" y1="1070" y2="70" /><line fill-opacity="0.3" stroke="#999999" stroke-width="1" x1="70" x2="1070" y1="870" y2="870" /><line fill-opacity="0.3" stroke="#999999" stroke-width="1" x1="170" x2="170" y1="1070" y2="70" /><line fill-opacity="0.3" stroke="#999999" stroke-width="1" x1="70" x2="1070" y1="970" y2="970" /><line fill-opacity="0.3" stroke="#000000" stroke-width="1" x1="70" x2="70" y1="1071" y2="69" /><line fill-opacity="0.3" stroke="#000000" stroke-width="1" x1="69" x2="1071" y1="1070" y2="1070" /></g><g class="textos"><text x="1050" y="1110">1000</text><text x="10" y="71">1000</text><text x="950" y="1110">900</text><text x="10" y="171">900</text><text x="850" y="1110">800</text><text x="10" y="271">800</text><text x="750" y="1110">700</text><text x="10" y="371">700</text><text x="650" y="1110">600</text><text x="10" y="471">600</text><text x="550" y="1110">500</text><text x="10" y="571">500</text><text x="450" y="1110">400</text><text x="10" y="671">400</text><text x="350" y="1110">300</text><text x="10" y="771">300</text><text x="250" y="1110">200</text><text x="10" y="871">200</text><text x="150" y="1110">100</text><text x="10" y="971">100</text><text x="50" y="1111">0</text><text x="9" y="1071">0</text></g><g class="especies"><g class="e0" /><g class="e1"><circle cx="792" cy="1040" fill="#ff0000" r="3.5" stroke-width="0" /><circle cx="835" cy="986" fill="#ff0000" r="3.5" stroke-width="0" /><circle cx="917" cy="958" fill="#ff0000" r="3.5" stroke-width="0" /><circle cx="850" cy="933" fill="#ff0000" r="3.5" stroke-width="0" /></g><g class="e2"><circle cx="735" cy="920" fill="#2b92db" r="3.5" stroke-width="0" /><circle cx="821" cy="915" fill="#2b92db" r="3.5" stroke-width="0" /><circle cx="816" cy="907" fill="#2b92db" r="3.5" stroke-width="0" /><circle cx="871" cy="889" fill="#2b92db" r="3.5" stroke-width="0" /><circle cx="857" cy="887" fill="#2b92db" r="3.5" stroke-width="0" /><circle cx="890" cy="882" fill="#2b92db" r="3.5" stroke-width="0" /><circle cx="769" cy="850" fill="#2b92db" r="3.5" stroke-width="0" /><circle cx="806" cy="843" fill="#2b92db" r="3.5" stroke-width="0" /><circle cx="874" cy="829" fill="#2b92db" r="3.5" stroke-width="0" /><circle cx="814" cy="817" fill="#2b92db" r="3.5" stroke-width="0" /><circle cx="844" cy="811" fill="#2b92db" r="3.5" stroke-width="0" /><circle cx="862" cy="797" fill="#2b92db" r="3.5" stroke-width="0" /><circle cx="802" cy="796" fill="#2b92db" r="3.5" stroke-width="0" /></g><g class="e3"><circle cx="766" cy="820" fill="#911eb4" r="3.5" stroke-width="0" /><circle cx="806" cy="783" fill="#911eb4" r="3.5" stroke-width="0" /><circle cx="806" cy="779" fill="#911eb4" r="3.5" stroke-width="0" /><circle cx="754" cy="772" fill="#911eb4" r="3.5" stroke-width="0" /><circle cx="807" cy="771" fill="#911eb4" r="3.5" stroke-width="0" /><circle cx="739" cy="765" fill="#911eb4" r="3.5" stroke-width="0" /><circle cx="821" cy="755" fill="#911eb4" r="3.5" stroke-width="0" /><circle cx="819" cy="749" fill="#911eb4" r="3.5" stroke-width="0" /><circle cx="852" cy="741" fill="#911eb4" r="3.5" stroke-width="0" /><circle cx="829" cy="733" fill="#911eb4" r="3.5" stroke-width="0" /><circle cx="722" cy="729" fill="#911eb4" r="3.5" stroke-width="0" /><circle cx="827" cy="719" fill="#911eb4" r="3.5" stroke-width="0" /><circle cx="792" cy="714" fill="#911eb4" r="3.5" stroke-width="0" /><circle cx="856" cy="710" fill="#911eb4" r="3.5" stroke-width="0" /><circle cx="762" cy="702" fill="#911eb4" r="3.5" stroke-width="0" /><circle cx="860" cy="698" fill="#911eb4" r="3.5" stroke-width="0" /><circle cx="802" cy="694" fill="#911eb4" r="3.5" stroke-width="0" /><circle cx="798" cy="658" fill="#911eb4" r="3.5" stroke-width="0" /><circle cx="838" cy="625" fill="#911eb4" r="3.5" stroke-width="0" /><circle cx="883" cy="611" fill="#911eb4" r="3.5" stroke-width="0" /><circle cx="827" cy="609" fill="#911eb4" r="3.5" stroke-width="0" /><circle cx="903" cy="562" fill="#911eb4" r="3.5" stroke-width="0" /><circle cx="907" cy="520" fill="#911eb4" r="3.5" stroke-width="0" /></g><g class="e4"><circle cx="251" cy="1018" fill="#3cb44B" r="3.5" stroke-width="0" /><circle cx="319" cy="975" fill="#3cb44B" r="3.5" stroke-width="0" /><circle cx="314" cy="970" fill="#3cb44B" r="3.5" stroke-width="0" /><circle cx="301" cy="959" fill="#3cb44B" r="3.5" stroke-width="0" /><circle cx="430" cy="940" fill="#3cb44B" r="3.5" stroke-width="0" /><circle cx="722" cy="613" fill="#3cb44B" r="3.5" stroke-width="0" /><circle cx="780" cy="597" fill="#3cb44B" r="3.5" stroke-width="0" /><circle cx="821" cy="593" fill="#3cb44B" r="3.5" stroke-width="0" /><circle cx="805" cy="560" fill="#3cb44B" r="3.5" stroke-width="0" /><circle cx="832" cy="547" fill="#3cb44B" r="3.5" stroke-width="0" /><circle cx="837" cy="544" fill="#3cb44B" r="3.5" stroke-width="0" /><circle cx="818" cy="541" fill="#3cb44B" r="3.5" stroke-width="0" /><circle cx="881" cy="518" fill="#3cb44B" r="3.5" stroke-width="0" /><circle cx="829" cy="515" fill="#3cb44B" r="3.5" stroke-width="0" /><circle cx="831" cy="506" fill="#3cb44B" r="3.5" stroke-width="0" /><circle cx="773" cy="499" fill="#3cb44B" r="3.5" stroke-width="0" /><circle cx="817" cy="496" fill="#3cb44B" r="3.5" stroke-width="0" /><circle cx="841" cy="472" fill="#3cb44B" r="3.5" stroke-width="0" /><circle cx="793" cy="466" fill="#3cb44B" r="3.5" stroke-width="0" /><circle cx="860" cy="464" fill="#3cb44B" r="3.5" stroke-width="0" /><circle cx="800" cy="456" fill="#3cb44B" r="3.5" stroke-width="0" /><circle cx="811" cy="437" fill="#3cb44B" r="3.5" stroke-width="0" /><circle cx="843" cy="426" fill="#3cb44B" r="3.5" stroke-width="0" /><circle cx="835" cy="423" fill="#3cb44B" r="3.5" stroke-width="0" /><circle cx="862" cy="420" fill="#3cb44B" r="3.5" stroke-width="0" /><circle cx="846" cy="403" fill="#3cb44B" r="3.5" stroke-width="0" /></g><g class="e5"><circle cx="264" cy="939" fill="#ff0000" r="3.5" stroke-width="0" /><circle cx="274" cy="909" fill="#ff0000" r="3.5" stroke-width="0" /><circle cx="314" cy="875" fill="#ff0000" r="3.5" stroke-width="0" /><circle cx="273" cy="852" fill="#ff0000" r="3.5" stroke-width="0" /><circle cx="256" cy="847" fill="#ff0000" r="3.5" stroke-width="0" /><circle cx="333" cy="836" fill="#ff0000" r="3.5" stroke-width="0" /><circle cx="301" cy="835" fill="#ff0000" r="3.5" stroke-width="0" /><circle cx="241" cy="825" fill="#ff0000" r="3.5" stroke-width="0" /><circle cx="351" cy="811" fill="#ff0000" r="3.5" stroke-width="0" /><circle cx="291" cy="797" fill="#ff0000" r="3.5" stroke-width="0" /><circle cx="316" cy="783" fill="#ff0000" r="3.5" stroke-width="0" /><circle cx="312" cy="781" fill="#ff0000" r="3.5" stroke-width="0" /><circle cx="353" cy="755" fill="#ff0000" r="3.5" stroke-width="0" /><circle cx="324" cy="733" fill="#ff0000" r="3.5" stroke-width="0" /><circle cx="388" cy="731" fill="#ff0000" r="3.5" stroke-width="0" /><circle cx="381" cy="723" fill="#ff0000" r="3.5" stroke-width="0" /><circle cx="413" cy="721" fill="#ff0000" r="3.5" stroke-width="0" /><circle cx="387" cy="708" fill="#ff0000" r="3.5" stroke-width="0" /><circle cx="412" cy="706" fill="#ff0000" r="3.5" stroke-width="0" /><circle cx="392" cy="679" fill="#ff0000" r="3.5" stroke-width="0" /><circle cx="806" cy="423" fill="#ff0000" r="3.5" stroke-width="0" /><circle cx="795" cy="413" fill="#ff0000" r="3.5" stroke-width="0" /><circle cx="761" cy="407" fill="#ff0000" r="3.5" stroke-width="0" /><circle cx="800" cy="406" fill="#ff0000" r="3.5" stroke-width="0" /><circle cx="788" cy="402" fill="#ff0000" r="3.5" stroke-width="0" /><circle cx="790" cy="379" fill="#ff0000" r="3.5" stroke-width="0" /><circle cx="826" cy="376" fill="#ff0000" r="3.5" stroke-width="0" /><circle cx="764" cy="369" fill="#ff0000" r="3.5" stroke-width="0" /><circle cx="852" cy="354" fill="#ff0000" r="3.5" stroke-width="0" /><circle cx="829" cy="338" fill="#ff0000" r="3.5" stroke-width="0" /><circle cx="844" cy="297" fill="#ff0000" r="3.5" stroke-width="0" /><circle cx="848" cy="273" fill="#ff0000" r="3.5" stroke-width="0" /><circle cx="838" cy="257" fill="#ff0000" r="3.5" stroke-width="0" /><circle cx="865" cy="254" fill="#ff0000" r="3.5" stroke-width="0" /><circle cx="830" cy="233" fill="#ff0000" r="3.5" stroke-width="0" /></g><g class="e6"><circle cx="334" cy="702" fill="#2b92db" r="3.5" stroke-width="0" /><circle cx="249" cy="661" fill="#2b92db" r="3.5" stroke-width="0" /><circle cx="270" cy="659" fill="#2b92db" r="3.5" stroke-width="0" /><circle cx="249" cy="647" fill="#2b92db" r="3.5" stroke-width="0" /><circle cx="370" cy="633" fill="#2b92db" r="3.5" stroke-width="0" /><circle cx="370" cy="620" fill="#2b92db" r="3.5" stroke-width="0" /><circle cx="278" cy="615" fill="#2b92db" r="3.5" stroke-width="0" /><circle cx="393" cy="615" fill="#2b92db" r="3.5" stroke-width="0" /><circle cx="301" cy="605" fill="#2b92db" r="3.5" stroke-width="0" /><circle cx="312" cy="600" fill="#2b92db" r="3.5" stroke-width="0" /><circle cx="306" cy="589" fill="#2b92db" r="3.5" stroke-width="0" /><circle cx="362" cy="582" fill="#2b92db" r="3.5" stroke-width="0" /><circle cx="322" cy="581" fill="#2b92db" r="3.5" stroke-width="0" /><circle cx="443" cy="547" fill="#2b92db" r="3.5" stroke-width="0" /><circle cx="387" cy="532" fill="#2b92db" r="3.5" stroke-width="0" /><circle cx="380" cy="522" fill="#2b92db" r="3.5" stroke-width="0" /><circle cx="734" cy="313" fill="#2b92db" r="3.5" stroke-width="0" /><circle cx="762" cy="252" fill="#2b92db" r="3.5" stroke-width="0" /><circle cx="822" cy="223" fill="#2b92db" r="3.5" stroke-width="0" /><circle cx="805" cy="222" fill="#2b92db" r="3.5" stroke-width="0" /><circle cx="761" cy="187" fill="#2b92db" r="3.5" stroke-width="0" /><circle cx="823" cy="162" fill="#2b92db" r="3.5" stroke-width="0" /><circle cx="788" cy="128" fill="#2b92db" r="3.5" stroke-width="0" /></g><g class="e7"><circle cx="282" cy="572" fill="#911eb4" r="3.5" stroke-width="0" /><circle cx="291" cy="563" fill="#911eb4" r="3.5" stroke-width="0" /><circle cx="320" cy="541" fill="#911eb4" r="3.5" stroke-width="0" /><circle cx="317" cy="510" fill="#911eb4" r="3.5" stroke-width="0" /><circle cx="289" cy="498" fill="#911eb4" r="3.5" stroke-width="0" /><circle cx="288" cy="486" fill="#911eb4" r="3.5" stroke-width="0" /><circle cx="338" cy="486" fill="#911eb4" r="3.5" stroke-width="0" /><circle cx="264" cy="477" fill="#911eb4" r="3.5" stroke-width="0" /><circle cx="312" cy="477" fill="#911eb4" r="3.5" stroke-width="0" /><circle cx="323" cy="466" fill="#911eb4" r="3.5" stroke-width="0" /><circle cx="267" cy="447" fill="#911eb4" r="3.5" stroke-width="0" /><circle cx="284" cy="439" fill="#911eb4" r="3.5" stroke-width="0" /><circle cx="296" cy="433" fill="#911eb4" r="3.5" stroke-width="0" /><circle cx="292" cy="425" fill="#911eb4" r="3.5" stroke-width="0" /><circle cx="421" cy="403" fill="#911eb4" r="3.5" stroke-width="0" /><circle cx="317" cy="380" fill="#911eb4" r="3.5" stroke-width="0" /><circle cx="399" cy="379" fill="#911eb4" r="3.5" stroke-width="0" /></g><g class="e8"><circle cx="262" cy="428" fill="#3cb44B" r="3.5" stroke-width="0" /><circle cx="266" cy="396" fill="#3cb44B" r="3.5" stroke-width="0" /><circle cx="276" cy="396" fill="#3cb44B" r="3.5" stroke-width="0" /><circle cx="266" cy="386" fill="#3cb44B" r="3.5" stroke-width="0" /><circle cx="355" cy="327" fill="#3cb44B" r="3.5" stroke-width="0" /><circle cx="325" cy="318" fill="#3cb44B" r="3.5" stroke-width="0" /><circle cx="275" cy="315" fill="#3cb44B" r="3.5" stroke-width="0" /><circle cx="320" cy="298" fill="#3cb44B" r="3.5" stroke-width="0" /><circle cx="326" cy="295" fill="#3cb44B" r="3.5" stroke-width="0" /><circle cx="298" cy="288" fill="#3cb44B" r="3.5" stroke-width="0" /><circle cx="303" cy="283" fill="#3cb44B" r="3.5" stroke-width="0" /><circle cx="294" cy="280" fill="#3cb44B" r="3.5" stroke-width="0" /><circle cx="309" cy="272" fill="#3cb44B" r="3.5" stroke-width="0" /><circle cx="322" cy="267" fill="#3cb44B" r="3.5" stroke-width="0" /><circle cx="321" cy="221" fill="#3cb44B" r="3.5" stroke-width="0" /><circle cx="347" cy="183" fill="#3cb44B" r="3.5" stroke-width="0" /></g><g class="e9"><circle cx="317" cy="186" fill="#ff0000" r="3.5" stroke-width="0" /><circle cx="341" cy="159" fill="#ff0000" r="3.5" stroke-width="0" /><circle cx="311" cy="136" fill="#ff0000" r="3.5" stroke-width="0" /><circle cx="371" cy="136" fill="#ff0000" r="3.5" stroke-width="0" /><circle cx="348" cy="133" fill="#ff0000" r="3.5" stroke-width="0" /><circle cx="261" cy="116" fill="#ff0000" r="3.5" stroke-width="0" /></g><g class="e10" /></g></g></svg>