<?xml version="1.0" encoding="utf-8" ?>
<svg baseProfile="full" height="1140px" style="font-size:15;font-family:Arial, san-serif;font-weight:bold;stroke:black;stroke-width:0;fill:#444444" version="1.1" width="1140px" xmlns="http://www.w3.org/2000/svg" xmlns:ev="http://www.w3.org/2001/xml-events" xmlns:xlink="http://www.w3.org/1999/xlink"><defs><clipPath id="areadografico"><rect height="1000" width="1000" x="70" y="70" /></clipPath></defs><g class="master"><g class="poligonos"><polygon clip-path="url(#areadografico)" fill="#000000" fill-opacity="0.1" points="1069,1070 1069,405 405,1070" /><polygon clip-path="url(#areadografico)" fill="#ffffff" fill-opacity="0.1" points="405,1070 -261,1070 1069,-261 1069,405" /><polygon clip-path="url(#areadografico)" fill="#000000" fill-opacity="0.1" points="70,70 70,738 738,70" /></g><g class="linhas"><line fill-opacity="0.3" stroke="#999999" stroke-width="1" x1="1070" x2="1070" y1="1070" y2="70" /><line fill-opacity="0.3" stroke="#999999" stroke-width="1" x1="70" x2="1070" y1="70" y2="70" /><line fill-opacity="0.3" stroke="#999999" stroke-width="1" x1="970" x2="970" y1="1070" y2="70" /><line fill-opacity="0.3" stroke="#999999" stroke-width="1" x1="70" x2="1070" y1="170" y2="170" /><line fill-opacity="0.3" stroke="#999999" stroke-width="1" x1="870" x2="870" y1="1070" y2="70" /><line fill-opacity="0.3" stroke="#999999" stroke-width="1" x1="70" x2="1070" y1="270" y2="270" /><line fill-opacity="0.3" stroke="#999999" stroke-width="1" x1="770" x2="770" y1="1070" y2="70" /><line fill-opacity="0.3" stroke="#999999" stroke-width="1" x1="70" x2="1070" y1="370" y2="370" /><line fill-opacity="0.3" stroke="#999999" stroke-width="1" x1="670" x2="670" y1="1070" y2="70" /><line fill-opacity="0.3" stroke="#999999" stroke-width="1" x1="70" x2="1070" y1="470" y2="470" /><line fill-opacity="0.3" stroke="#999999" stroke-width="1" x1="570" x2="570" y1="1070" y2="70" /><line fill-opacity="0.3" stroke="#999999" stroke-width="1" x1="70" x2="1070" y1="570" y2="570" /><line fill-opacity="0.3" stroke="#999999" stroke-width="1" x1="470" x2="470" y1="1070" y2="70" /><line fill-opacity="0.3" stroke="#999999" stroke-width="1" x1="70" x2="1070" y1="670" y2="670" /><line fill-opacity="0.3" stroke="#999999" stroke-width="1" x1="370" x2="370" y1="1070" y2="70" /><line fill-opacity="0.3" stroke="#999999" stroke-width="1" x1="70" x2="1070" y1="770" y2="770" /><line fill-opacity="0.3" stroke="#999999" stroke-width="1" x1="270" x2="270" y1="1070" y2="70" /><line fill-opacity="0.3" stroke="#999999" stroke-width="1" x1="70" x2="1070" y1="870" y2="870" /><line fill-opacity="0.3" stroke="#999999" stroke-width="1" x1="170" x2="170" y1="1070" y2="70" /><line fill-opacity="0.3" stroke="#999999" stroke-width="1" x1="70" x2="1070" y1="970" y2="970" /><line fill-opacity="0.3" stroke="#000000" stroke-width="1" x1="70" x2="70" y1="1071" y2="69" /><line fill-opacity="0.3" stroke="#000000" stroke-width="1" x1="69" x2="1071" y1="1070" y2="1070" /></g><g class="textos"><text x="1050" y="1110">1000</text><text x="10" y="71">1000</text><text x="950" y="1110">900</text><text x="10" y="171">900</text><text x="850" y="1110">800</text><text x="10" y="271">800</text><text x="750" y="1110">700</text><text x="10" y="371">700</text><text x="650" y="1110">600</text><text x="10" y="471">600</text><text x="550" y="1110">500</text><text x="10" y="571">500</text><text x="450" y="1110">400</text><text x="10" y="671">400</text><text x="350" y="1110">300</text><text x="10" y="771">300</text><text x="250" y="1110">200</text><text x="10" y="871">200</text><text x="150" y="1110">100</text><text x="10" y="971">100</text><text x="50" y="1111">0</text><text x="9" y="1071">0</text></g><g class="especies"><g class="e0"><circle cx="833" cy="1067" fill="#3cb44B" r="3.5" stroke-width="0" /><circle cx="827" cy="1051" fill="#3cb44B" r="3.5" stroke-width="0" /><circle cx="825" cy="1049" fill="#3cb44B" r="3.5" stroke-width="0" /><circle cx="823" cy="1011" fill="#3cb44B" r="3.5" stroke-width="0" /><circle cx="879" cy="1008" fill="#3cb44B" r="3.5" stroke-width="0" /><circle cx="891" cy="991" fill="#3cb44B" r="3.5" stroke-width="0" /><circle cx="737" cy="987" fill="#3cb44B" r="3.5" stroke-width="0" /><circle cx="839" cy="981" fill="#3cb44B" r="3.5" stroke-width="0" /><circle cx="788" cy="958" fill="#3cb44B" r="3.5" stroke-width="0" /><circle cx="748" cy="957" fill="#3cb44B" r="3.5" stroke-width="0" /><circle cx="841" cy="943" fill="#3cb44B" r="3.5" stroke-width="0" /><circle cx="928" cy="932" fill="#3cb44B" r="3.5" stroke-width="0" /><circle cx="842" cy="910" fill="#3cb44B" r="3.5" stroke-width="0" /><circle cx="909" cy="904" fill="#3cb44B" r="3.5" stroke-width="0" /><circle cx="841" cy="887" fill="#3cb44B" r="3.5" stroke-width="0" /><circle cx="918" cy="886" fill="#3cb44B" r="3.5" stroke-width="0" /><circle cx="828" cy="884" fill="#3cb44B" r="3.5" stroke-width="0" /><circle cx="851" cy="880" fill="#3cb44B" r="3.5" stroke-width="0" /><circle cx="888" cy="871" fill="#3cb44B" r="3.5" stroke-width="0" /><circle cx="781" cy="864" fill="#3cb44B" r="3.5" stroke-width="0" /><circle cx="894" cy="847" fill="#3cb44B" r="3.5" stroke-width="0" /><circle cx="887" cy="807" fill="#3cb44B" r="3.5" stroke-width="0" /><circle cx="843" cy="803" fill="#3cb44B" r="3.5" stroke-width="0" /><circle cx="812" cy="801" fill="#3cb44B" r="3.5" stroke-width="0" /><circle cx="786" cy="783" fill="#3cb44B" r="3.5" stroke-width="0" /><circle cx="767" cy="773" fill="#3cb44B" r="3.5" stroke-width="0" /><circle cx="821" cy="773" fill="#3cb44B" r="3.5" stroke-width="0" /><circle cx="846" cy="771" fill="#3cb44B" r="3.5" stroke-width="0" /><circle cx="850" cy="771" fill="#3cb44B" r="3.5" stroke-width="0" /><circle cx="763" cy="770" fill="#3cb44B" r="3.5" stroke-width="0" /><circle cx="818" cy="766" fill="#3cb44B" r="3.5" stroke-width="0" /><circle cx="779" cy="763" fill="#3cb44B" r="3.5" stroke-width="0" /><circle cx="915" cy="760" fill="#3cb44B" r="3.5" stroke-width="0" /><circle cx="782" cy="747" fill="#3cb44B" r="3.5" stroke-width="0" /><circle cx="785" cy="747" fill="#3cb44B" r="3.5" stroke-width="0" /><circle cx="784" cy="738" fill="#3cb44B" r="3.5" stroke-width="0" /><circle cx="780" cy="730" fill="#3cb44B" r="3.5" stroke-width="0" /><circle cx="858" cy="719" fill="#3cb44B" r="3.5" stroke-width="0" /><circle cx="808" cy="717" fill="#3cb44B" r="3.5" stroke-width="0" /><circle cx="859" cy="714" fill="#3cb44B" r="3.5" stroke-width="0" /><circle cx="847" cy="713" fill="#3cb44B" r="3.5" stroke-width="0" /><circle cx="811" cy="694" fill="#3cb44B" r="3.5" stroke-width="0" /><circle cx="845" cy="694" fill="#3cb44B" r="3.5" stroke-width="0" /><circle cx="858" cy="679" fill="#3cb44B" r="3.5" stroke-width="0" /><circle cx="864" cy="661" fill="#3cb44B" r="3.5" stroke-width="0" /><circle cx="888" cy="656" fill="#3cb44B" r="3.5" stroke-width="0" /><circle cx="855" cy="634" fill="#3cb44B" r="3.5" stroke-width="0" /><circle cx="949" cy="546" fill="#3cb44B" r="3.5" stroke-width="0" /></g><g class="e1"><circle cx="326" cy="1066" fill="#ff0000" r="3.5" stroke-width="0" /><circle cx="297" cy="1051" fill="#ff0000" r="3.5" stroke-width="0" /><circle cx="306" cy="1047" fill="#ff0000" r="3.5" stroke-width="0" /><circle cx="381" cy="1034" fill="#ff0000" r="3.5" stroke-width="0" /><circle cx="266" cy="1032" fill="#ff0000" r="3.5" stroke-width="0" /><circle cx="365" cy="1018" fill="#ff0000" r="3.5" stroke-width="0" /><circle cx="196" cy="1015" fill="#ff0000" r="3.5" stroke-width="0" /><circle cx="301" cy="1008" fill="#ff0000" r="3.5" stroke-width="0" /><circle cx="305" cy="1005" fill="#ff0000" r="3.5" stroke-width="0" /><circle cx="287" cy="997" fill="#ff0000" r="3.5" stroke-width="0" /><circle cx="404" cy="972" fill="#ff0000" r="3.5" stroke-width="0" /><circle cx="224" cy="961" fill="#ff0000" r="3.5" stroke-width="0" /><circle cx="383" cy="955" fill="#ff0000" r="3.5" stroke-width="0" /><circle cx="441" cy="948" fill="#ff0000" r="3.5" stroke-width="0" /><circle cx="310" cy="931" fill="#ff0000" r="3.5" stroke-width="0" /><circle cx="333" cy="906" fill="#ff0000" r="3.5" stroke-width="0" /><circle cx="300" cy="895" fill="#ff0000" r="3.5" stroke-width="0" /><circle cx="289" cy="880" fill="#ff0000" r="3.5" stroke-width="0" /><circle cx="299" cy="876" fill="#ff0000" r="3.5" stroke-width="0" /><circle cx="285" cy="871" fill="#ff0000" r="3.5" stroke-width="0" /><circle cx="310" cy="868" fill="#ff0000" r="3.5" stroke-width="0" /><circle cx="331" cy="865" fill="#ff0000" r="3.5" stroke-width="0" /><circle cx="336" cy="862" fill="#ff0000" r="3.5" stroke-width="0" /><circle cx="233" cy="860" fill="#ff0000" r="3.5" stroke-width="0" /><circle cx="383" cy="857" fill="#ff0000" r="3.5" stroke-width="0" /><circle cx="274" cy="853" fill="#ff0000" r="3.5" stroke-width="0" /><circle cx="370" cy="851" fill="#ff0000" r="3.5" stroke-width="0" /><circle cx="397" cy="848" fill="#ff0000" r="3.5" stroke-width="0" /><circle cx="335" cy="841" fill="#ff0000" r="3.5" stroke-width="0" /><circle cx="378" cy="835" fill="#ff0000" r="3.5" stroke-width="0" /><circle cx="344" cy="830" fill="#ff0000" r="3.5" stroke-width="0" /><circle cx="393" cy="789" fill="#ff0000" r="3.5" stroke-width="0" /><circle cx="241" cy="786" fill="#ff0000" r="3.5" stroke-width="0" /><circle cx="297" cy="774" fill="#ff0000" r="3.5" stroke-width="0" /><circle cx="352" cy="758" fill="#ff0000" r="3.5" stroke-width="0" /><circle cx="199" cy="753" fill="#ff0000" r="3.5" stroke-width="0" /><circle cx="358" cy="744" fill="#ff0000" r="3.5" stroke-width="0" /><circle cx="272" cy="742" fill="#ff0000" r="3.5" stroke-width="0" /><circle cx="301" cy="732" fill="#ff0000" r="3.5" stroke-width="0" /><circle cx="353" cy="723" fill="#ff0000" r="3.5" stroke-width="0" /><circle cx="205" cy="717" fill="#ff0000" r="3.5" stroke-width="0" /><circle cx="697" cy="715" fill="#ff0000" r="3.5" stroke-width="0" /><circle cx="750" cy="697" fill="#ff0000" r="3.5" stroke-width="0" /><circle cx="294" cy="696" fill="#ff0000" r="3.5" stroke-width="0" /><circle cx="772" cy="694" fill="#ff0000" r="3.5" stroke-width="0" /><circle cx="428" cy="690" fill="#ff0000" r="3.5" stroke-width="0" /><circle cx="153" cy="687" fill="#ff0000" r="3.5" stroke-width="0" /><circle cx="268" cy="679" fill="#ff0000" r="3.5" stroke-width="0" /><circle cx="737" cy="678" fill="#ff0000" r="3.5" stroke-width="0" /><circle cx="795" cy="675" fill="#ff0000" r="3.5" stroke-width="0" /><circle cx="379" cy="673" fill="#ff0000" r="3.5" stroke-width="0" /><circle cx="249" cy="664" fill="#ff0000" r="3.5" stroke-width="0" /><circle cx="700" cy="658" fill="#ff0000" r="3.5" stroke-width="0" /><circle cx="816" cy="651" fill="#ff0000" r="3.5" stroke-width="0" /><circle cx="381" cy="646" fill="#ff0000" r="3.5" stroke-width="0" /><circle cx="804" cy="645" fill="#ff0000" r="3.5" stroke-width="0" /><circle cx="767" cy="640" fill="#ff0000" r="3.5" stroke-width="0" /><circle cx="337" cy="636" fill="#ff0000" r="3.5" stroke-width="0" /><circle cx="801" cy="636" fill="#ff0000" r="3.5" stroke-width="0" /><circle cx="825" cy="634" fill="#ff0000" r="3.5" stroke-width="0" /><circle cx="824" cy="630" fill="#ff0000" r="3.5" stroke-width="0" /><circle cx="252" cy="626" fill="#ff0000" r="3.5" stroke-width="0" /><circle cx="406" cy="623" fill="#ff0000" r="3.5" stroke-width="0" /><circle cx="269" cy="619" fill="#ff0000" r="3.5" stroke-width="0" /><circle cx="348" cy="615" fill="#ff0000" r="3.5" stroke-width="0" /><circle cx="372" cy="611" fill="#ff0000" r="3.5" stroke-width="0" /><circle cx="283" cy="609" fill="#ff0000" r="3.5" stroke-width="0" /><circle cx="730" cy="609" fill="#ff0000" r="3.5" stroke-width="0" /><circle cx="394" cy="607" fill="#ff0000" r="3.5" stroke-width="0" /><circle cx="276" cy="606" fill="#ff0000" r="3.5" stroke-width="0" /><circle cx="328" cy="600" fill="#ff0000" r="3.5" stroke-width="0" /><circle cx="789" cy="599" fill="#ff0000" r="3.5" stroke-width="0" /><circle cx="855" cy="599" fill="#ff0000" r="3.5" stroke-width="0" /><circle cx="313" cy="593" fill="#ff0000" r="3.5" stroke-width="0" /><circle cx="325" cy="591" fill="#ff0000" r="3.5" stroke-width="0" /><circle cx="363" cy="589" fill="#ff0000" r="3.5" stroke-width="0" /><circle cx="291" cy="585" fill="#ff0000" r="3.5" stroke-width="0" /><circle cx="278" cy="584" fill="#ff0000" r="3.5" stroke-width="0" /><circle cx="350" cy="577" fill="#ff0000" r="3.5" stroke-width="0" /><circle cx="314" cy="571" fill="#ff0000" r="3.5" stroke-width="0" /><circle cx="838" cy="569" fill="#ff0000" r="3.5" stroke-width="0" /><circle cx="710" cy="568" fill="#ff0000" r="3.5" stroke-width="0" /><circle cx="774" cy="565" fill="#ff0000" r="3.5" stroke-width="0" /><circle cx="353" cy="563" fill="#ff0000" r="3.5" stroke-width="0" /><circle cx="247" cy="562" fill="#ff0000" r="3.5" stroke-width="0" /><circle cx="286" cy="558" fill="#ff0000" r="3.5" stroke-width="0" /><circle cx="868" cy="557" fill="#ff0000" r="3.5" stroke-width="0" /><circle cx="794" cy="555" fill="#ff0000" r="3.5" stroke-width="0" /><circle cx="259" cy="553" fill="#ff0000" r="3.5" stroke-width="0" /><circle cx="787" cy="552" fill="#ff0000" r="3.5" stroke-width="0" /><circle cx="307" cy="549" fill="#ff0000" r="3.5" stroke-width="0" /><circle cx="874" cy="546" fill="#ff0000" r="3.5" stroke-width="0" /><circle cx="800" cy="540" fill="#ff0000" r="3.5" stroke-width="0" /><circle cx="859" cy="539" fill="#ff0000" r="3.5" stroke-width="0" /><circle cx="292" cy="537" fill="#ff0000" r="3.5" stroke-width="0" /><circle cx="888" cy="536" fill="#ff0000" r="3.5" stroke-width="0" /><circle cx="761" cy="527" fill="#ff0000" r="3.5" stroke-width="0" /><circle cx="813" cy="524" fill="#ff0000" r="3.5" stroke-width="0" /><circle cx="352" cy="523" fill="#ff0000" r="3.5" stroke-width="0" /><circle cx="416" cy="523" fill="#ff0000" r="3.5" stroke-width="0" /><circle cx="892" cy="522" fill="#ff0000" r="3.5" stroke-width="0" /><circle cx="794" cy="516" fill="#ff0000" r="3.5" stroke-width="0" /><circle cx="909" cy="516" fill="#ff0000" r="3.5" stroke-width="0" /><circle cx="849" cy="515" fill="#ff0000" r="3.5" stroke-width="0" /><circle cx="403" cy="513" fill="#ff0000" r="3.5" stroke-width="0" /><circle cx="301" cy="512" fill="#ff0000" r="3.5" stroke-width="0" /><circle cx="848" cy="512" fill="#ff0000" r="3.5" stroke-width="0" /><circle cx="352" cy="509" fill="#ff0000" r="3.5" stroke-width="0" /><circle cx="914" cy="509" fill="#ff0000" r="3.5" stroke-width="0" /><circle cx="837" cy="505" fill="#ff0000" r="3.5" stroke-width="0" /><circle cx="444" cy="494" fill="#ff0000" r="3.5" stroke-width="0" /><circle cx="719" cy="494" fill="#ff0000" r="3.5" stroke-width="0" /><circle cx="856" cy="491" fill="#ff0000" r="3.5" stroke-width="0" /><circle cx="752" cy="476" fill="#ff0000" r="3.5" stroke-width="0" /><circle cx="773" cy="468" fill="#ff0000" r="3.5" stroke-width="0" /><circle cx="838" cy="466" fill="#ff0000" r="3.5" stroke-width="0" /><circle cx="805" cy="458" fill="#ff0000" r="3.5" stroke-width="0" /><circle cx="815" cy="452" fill="#ff0000" r="3.5" stroke-width="0" /><circle cx="392" cy="451" fill="#ff0000" r="3.5" stroke-width="0" /><circle cx="363" cy="450" fill="#ff0000" r="3.5" stroke-width="0" /><circle cx="811" cy="435" fill="#ff0000" r="3.5" stroke-width="0" /><circle cx="780" cy="425" fill="#ff0000" r="3.5" stroke-width="0" /><circle cx="716" cy="419" fill="#ff0000" r="3.5" stroke-width="0" /><circle cx="820" cy="412" fill="#ff0000" r="3.5" stroke-width="0" /><circle cx="875" cy="407" fill="#ff0000" r="3.5" stroke-width="0" /><circle cx="833" cy="405" fill="#ff0000" r="3.5" stroke-width="0" /><circle cx="834" cy="405" fill="#ff0000" r="3.5" stroke-width="0" /><circle cx="809" cy="402" fill="#ff0000" r="3.5" stroke-width="0" /><circle cx="824" cy="396" fill="#ff0000" r="3.5" stroke-width="0" /><circle cx="890" cy="395" fill="#ff0000" r="3.5" stroke-width="0" /><circle cx="776" cy="383" fill="#ff0000" r="3.5" stroke-width="0" /><circle cx="847" cy="381" fill="#ff0000" r="3.5" stroke-width="0" /><circle cx="838" cy="379" fill="#ff0000" r="3.5" stroke-width="0" /><circle cx="705" cy="368" fill="#ff0000" r="3.5" stroke-width="0" /><circle cx="785" cy="363" fill="#ff0000" r="3.5" stroke-width="0" /><circle cx="805" cy="358" fill="#ff0000" r="3.5" stroke-width="0" /><circle cx="755" cy="340" fill="#ff0000" r="3.5" stroke-width="0" /><circle cx="832" cy="328" fill="#ff0000" r="3.5" stroke-width="0" /><circle cx="762" cy="308" fill="#ff0000" r="3.5" stroke-width="0" /><circle cx="788" cy="306" fill="#ff0000" r="3.5" stroke-width="0" /><circle cx="812" cy="304" fill="#ff0000" r="3.5" stroke-width="0" /><circle cx="715" cy="285" fill="#ff0000" r="3.5" stroke-width="0" /><circle cx="753" cy="276" fill="#ff0000" r="3.5" stroke-width="0" /><circle cx="864" cy="271" fill="#ff0000" r="3.5" stroke-width="0" /><circle cx="957" cy="262" fill="#ff0000" r="3.5" stroke-width="0" /><circle cx="747" cy="257" fill="#ff0000" r="3.5" stroke-width="0" /><circle cx="785" cy="251" fill="#ff0000" r="3.5" stroke-width="0" /><circle cx="745" cy="242" fill="#ff0000" r="3.5" stroke-width="0" /><circle cx="782" cy="240" fill="#ff0000" r="3.5" stroke-width="0" /><circle cx="767" cy="230" fill="#ff0000" r="3.5" stroke-width="0" /><circle cx="787" cy="229" fill="#ff0000" r="3.5" stroke-width="0" /><circle cx="809" cy="223" fill="#ff0000" r="3.5" stroke-width="0" /><circle cx="756" cy="201" fill="#ff0000" r="3.5" stroke-width="0" /><circle cx="941" cy="196" fill="#ff0000" r="3.5" stroke-width="0" /><circle cx="833" cy="186" fill="#ff0000" r="3.5" stroke-width="0" /><circle cx="843" cy="186" fill="#ff0000" r="3.5" stroke-width="0" /><circle cx="738" cy="167" fill="#ff0000" r="3.5" stroke-width="0" /><circle cx="876" cy="150" fill="#ff0000" r="3.5" stroke-width="0" /><circle cx="704" cy="146" fill="#ff0000" r="3.5" stroke-width="0" /><circle cx="753" cy="138" fill="#ff0000" r="3.5" stroke-width="0" /><circle cx="807" cy="134" fill="#ff0000" r="3.5" stroke-width="0" /><circle cx="924" cy="133" fill="#ff0000" r="3.5" stroke-width="0" /><circle cx="792" cy="126" fill="#ff0000" r="3.5" stroke-width="0" /><circle cx="839" cy="120" fill="#ff0000" r="3.5" stroke-width="0" /><circle cx="781" cy="115" fill="#ff0000" r="3.5" stroke-width="0" /><circle cx="728" cy="104" fill="#ff0000" r="3.5" stroke-width="0" /><circle cx="770" cy="104" fill="#ff0000" r="3.5" stroke-width="0" /><circle cx="795" cy="85" fill="#ff0000" r="3.5" stroke-width="0" /><circle cx="886" cy="85" fill="#ff0000" r="3.5" stroke-width="0" /></g><g class="e2"><circle cx="203" cy="550" fill="#2b92db" r="3.5" stroke-width="0" /><circle cx="267" cy="503" fill="#2b92db" r="3.5" stroke-width="0" /><circle cx="283" cy="502" fill="#2b92db" r="3.5" stroke-width="0" /><circle cx="279" cy="495" fill="#2b92db" r="3.5" stroke-width="0" /><circle cx="316" cy="463" fill="#2b92db" r="3.5" stroke-width="0" /><circle cx="206" cy="452" fill="#2b92db" r="3.5" stroke-width="0" /><circle cx="232" cy="423" fill="#2b92db" r="3.5" stroke-width="0" /><circle cx="321" cy="412" fill="#2b92db" r="3.5" stroke-width="0" /><circle cx="262" cy="405" fill="#2b92db" r="3.5" stroke-width="0" /><circle cx="245" cy="401" fill="#2b92db" r="3.5" stroke-width="0" /><circle cx="331" cy="373" fill="#2b92db" r="3.5" stroke-width="0" /><circle cx="407" cy="373" fill="#2b92db" r="3.5" stroke-width="0" /><circle cx="318" cy="371" fill="#2b92db" r="3.5" stroke-width="0" /><circle cx="277" cy="370" fill="#2b92db" r="3.5" stroke-width="0" /><circle cx="407" cy="370" fill="#2b92db" r="3.5" stroke-width="0" /><circle cx="284" cy="363" fill="#2b92db" r="3.5" stroke-width="0" /><circle cx="366" cy="361" fill="#2b92db" r="3.5" stroke-width="0" /><circle cx="368" cy="360" fill="#2b92db" r="3.5" stroke-width="0" /><circle cx="282" cy="358" fill="#2b92db" r="3.5" stroke-width="0" /><circle cx="344" cy="357" fill="#2b92db" r="3.5" stroke-width="0" /><circle cx="303" cy="355" fill="#2b92db" r="3.5" stroke-width="0" /><circle cx="296" cy="351" fill="#2b92db" r="3.5" stroke-width="0" /><circle cx="248" cy="338" fill="#2b92db" r="3.5" stroke-width="0" /><circle cx="248" cy="336" fill="#2b92db" r="3.5" stroke-width="0" /><circle cx="348" cy="326" fill="#2b92db" r="3.5" stroke-width="0" /><circle cx="257" cy="318" fill="#2b92db" r="3.5" stroke-width="0" /><circle cx="262" cy="318" fill="#2b92db" r="3.5" stroke-width="0" /><circle cx="327" cy="318" fill="#2b92db" r="3.5" stroke-width="0" /><circle cx="335" cy="316" fill="#2b92db" r="3.5" stroke-width="0" /><circle cx="274" cy="315" fill="#2b92db" r="3.5" stroke-width="0" /><circle cx="331" cy="313" fill="#2b92db" r="3.5" stroke-width="0" /><circle cx="264" cy="301" fill="#2b92db" r="3.5" stroke-width="0" /><circle cx="451" cy="296" fill="#2b92db" r="3.5" stroke-width="0" /><circle cx="367" cy="295" fill="#2b92db" r="3.5" stroke-width="0" /><circle cx="353" cy="279" fill="#2b92db" r="3.5" stroke-width="0" /><circle cx="344" cy="277" fill="#2b92db" r="3.5" stroke-width="0" /><circle cx="304" cy="265" fill="#2b92db" r="3.5" stroke-width="0" /><circle cx="363" cy="264" fill="#2b92db" r="3.5" stroke-width="0" /><circle cx="276" cy="254" fill="#2b92db" r="3.5" stroke-width="0" /><circle cx="222" cy="238" fill="#2b92db" r="3.5" stroke-width="0" /><circle cx="296" cy="237" fill="#2b92db" r="3.5" stroke-width="0" /><circle cx="386" cy="230" fill="#2b92db" r="3.5" stroke-width="0" /><circle cx="254" cy="227" fill="#2b92db" r="3.5" stroke-width="0" /><circle cx="332" cy="219" fill="#2b92db" r="3.5" stroke-width="0" /><circle cx="252" cy="217" fill="#2b92db" r="3.5" stroke-width="0" /><circle cx="311" cy="208" fill="#2b92db" r="3.5" stroke-width="0" /><circle cx="283" cy="201" fill="#2b92db" r="3.5" stroke-width="0" /><circle cx="339" cy="197" fill="#2b92db" r="3.5" stroke-width="0" /><circle cx="344" cy="190" fill="#2b92db" r="3.5" stroke-width="0" /><circle cx="294" cy="189" fill="#2b92db" r="3.5" stroke-width="0" /><circle cx="406" cy="189" fill="#2b92db" r="3.5" stroke-width="0" /><circle cx="315" cy="184" fill="#2b92db" r="3.5" stroke-width="0" /><circle cx="308" cy="165" fill="#2b92db" r="3.5" stroke-width="0" /><circle cx="252" cy="161" fill="#2b92db" r="3.5" stroke-width="0" /><circle cx="345" cy="161" fill="#2b92db" r="3.5" stroke-width="0" /><circle cx="359" cy="159" fill="#2b92db" r="3.5" stroke-width="0" /><circle cx="328" cy="158" fill="#2b92db" r="3.5" stroke-width="0" /><circle cx="330" cy="139" fill="#2b92db" r="3.5" stroke-width="0" /><circle cx="346" cy="132" fill="#2b92db" r="3.5" stroke-width="0" /><circle cx="278" cy="122" fill="#2b92db" r="3.5" stroke-width="0" /><circle cx="302" cy="111" fill="#2b92db" r="3.5" stroke-width="0" /><circle cx="414" cy="102" fill="#2b92db" r="3.5" stroke-width="0" /><circle cx="346" cy="91" fill="#2b92db" r="3.5" stroke-width="0" /><circle cx="411" cy="87" fill="#2b92db" r="3.5" stroke-width="0" /><circle cx="266" cy="85" fill="#2b92db" r="3.5" stroke-width="0" /><circle cx="315" cy="85" fill="#2b92db" r="3.5" stroke-width="0" /><circle cx="352" cy="84" fill="#2b92db" r="3.5" stroke-width="0" /><circle cx="324" cy="83" fill="#2b92db" r="3.5" stroke-width="0" /><circle cx="340" cy="77" fill="#2b92db" r="3.5" stroke-width="0" /><circle cx="384" cy="73" fill="#2b92db" r="3.5" stroke-width="0" /></g></g></g></svg>