<?xml version="1.0" encoding="utf-8" ?>
<svg baseProfile="full" height="1140px" style="font-size:15;font-family:Arial, san-serif;font-weight:bold;stroke:black;stroke-width:0;fill:#444444" version="1.1" width="1140px" xmlns="http://www.w3.org/2000/svg" xmlns:ev="http://www.w3.org/2001/xml-events" xmlns:xlink="http://www.w3.org/1999/xlink"><defs><clipPath id="areadografico"><rect height="1000" width="1000" x="70" y="70" /></clipPath></defs><g class="master"><g class="poligonos"><polygon clip-path="url(#areadografico)" fill="#000000" fill-opacity="0.1" points="1069,1070 1069,672 672,1070" /><polygon clip-path="url(#areadografico)" fill="#ffffff" fill-opacity="0.1" points="672,1070 273,1070 1069,273 1069,672" /><polygon clip-path="url(#areadografico)" fill="#000000" fill-opacity="0.1" points="273,1070 -126,1070 1069,-126 1069,273" /><polygon clip-path="url(#areadografico)" fill="#ffffff" fill-opacity="0.1" points="-126,1070 -524,1070 1069,-524 1069,-126" /><polygon clip-path="url(#areadografico)" fill="#000000" fill-opacity="0.1" points="70,70 70,475 475,70" /></g><g class="linhas"><line fill-opacity="0.3" stroke="#999999" stroke-width="1" x1="1070" x2="1070" y1="1070" y2="70" /><line fill-opacity="0.3" stroke="#999999" stroke-width="1" x1="70" x2="1070" y1="70" y2="70" /><line fill-opacity="0.3" stroke="#999999" stroke-width="1" x1="970" x2="970" y1="1070" y2="70" /><line fill-opacity="0.3" stroke="#999999" stroke-width="1" x1="70" x2="1070" y1="170" y2="170" /><line fill-opacity="0.3" stroke="#999999" stroke-width="1" x1="870" x2="870" y1="1070" y2="70" /><line fill-opacity="0.3" stroke="#999999" stroke-width="1" x1="70" x2="1070" y1="270" y2="270" /><line fill-opacity="0.3" stroke="#999999" stroke-width="1" x1="770" x2="770" y1="1070" y2="70" /><line fill-opacity="0.3" stroke="#999999" stroke-width="1" x1="70" x2="1070" y1="370" y2="370" /><line fill-opacity="0.3" stroke="#999999" stroke-width="1" x1="670" x2="670" y1="1070" y2="70" /><line fill-opacity="0.3" stroke="#999999" stroke-width="1" x1="70" x2="1070" y1="470" y2="470" /><line fill-opacity="0.3" stroke="#999999" stroke-width="1" x1="570" x2="570" y1="1070" y2="70" /><line fill-opacity="0.3" stroke="#999999" stroke-width="1" x1="70" x2="1070" y1="570" y2="570" /><line fill-opacity="0.3" stroke="#999999" stroke-width="1" x1="470" x2="470" y1="1070" y2="70" /><line fill-opacity="0.3" stroke="#999999" stroke-width="1" x1="70" x2="1070" y1="670" y2="670" /><line fill-opacity="0.3" stroke="#999999" stroke-width="1" x1="370" x2="370" y1="1070" y2="70" /><line fill-opacity="0.3" stroke="#999999" stroke-width="1" x1="70" x2="1070" y1="770" y2="770" /><line fill-opacity="0.3" stroke="#999999" stroke-width="1" x1="270" x2="270" y1="1070" y2="70" /><line fill-opacity="0.3" stroke="#999999" stroke-width="1" x1="70" x2="1070" y1="870" y2="870" /><line fill-opacity="0.3" stroke="#999999" stroke-width="1" x1="170" x2="170" y1="1070" y2="70" /><line fill-opacity="0.3" stroke="#999999" stroke-width="1" x1="70" x2="1070" y1="970" y2="970" /><line fill-opacity="0.3" stroke="#000000" stroke-width="1" x1="70" x2="70" y1="1071" y2="69" /><line fill-opacity="0.3" stroke="#000000" stroke-width="1" x1="69" x2="1071" y1="1070" y2="1070" /></g><g class="textos"><text x="1050" y="1110">1000</text><text x="10" y="71">1000</text><text x="950" y="1110">900</text><text x="10" y="171">900</text><text x="850" y="1110">800</text><text x="10" y="271">800</text><text x="750" y="1110">700</text><text x="10" y="371">700</text><text x="650" y="1110">600</text><text x="10" y="471">600</text><text x="550" y="1110">500</text><text x="10" y="571">500</text><text x="450" y="1110">400</text><text x="10" y="671">400</text><text x="350" y="1110">300</text><text x="10" y="771">300</text><text x="250" y="1110">200</text><text x="10" y="871">200</text><text x="150" y="1110">100</text><text x="10" y="971">100</text><text x="50" y="1111">0</text><text x="9" y="1071">0</text></g><g class="especies"><g class="e0"><circle cx="981" cy="1009" fill="#3cb44B" r="3.5" stroke-width="0" /><circle cx="846" cy="997" fill="#3cb44B" r="3.5" stroke-width="0" /><circle cx="846" cy="991" fill="#3cb44B" r="3.5" stroke-width="0" /><circle cx="996" cy="987" fill="#3cb44B" r="3.5" stroke-width="0" /><circle cx="996" cy="978" fill="#3cb44B" r="3.5" stroke-width="0" /><circle cx="924" cy="972" fill="#3cb44B" r="3.5" stroke-width="0" /><circle cx="919" cy="967" fill="#3cb44B" r="3.5" stroke-width="0" /><circle cx="826" cy="955" fill="#3cb44B" r="3.5" stroke-width="0" /><circle cx="854" cy="933" fill="#3cb44B" r="3.5" stroke-width="0" /><circle cx="947" cy="926" fill="#3cb44B" r="3.5" stroke-width="0" /><circle cx="931" cy="913" fill="#3cb44B" r="3.5" stroke-width="0" /><circle cx="989" cy="905" fill="#3cb44B" r="3.5" stroke-width="0" /><circle cx="986" cy="897" fill="#3cb44B" r="3.5" stroke-width="0" /><circle cx="866" cy="886" fill="#3cb44B" r="3.5" stroke-width="0" /><circle cx="1019" cy="868" fill="#3cb44B" r="3.5" stroke-width="0" /><circle cx="925" cy="862" fill="#3cb44B" r="3.5" stroke-width="0" /><circle cx="930" cy="847" fill="#3cb44B" r="3.5" stroke-width="0" /><circle cx="1012" cy="824" fill="#3cb44B" r="3.5" stroke-width="0" /><circle cx="987" cy="790" fill="#3cb44B" r="3.5" stroke-width="0" /><circle cx="982" cy="774" fill="#3cb44B" r="3.5" stroke-width="0" /><circle cx="1017" cy="731" fill="#3cb44B" r="3.5" stroke-width="0" /><circle cx="1043" cy="730" fill="#3cb44B" r="3.5" stroke-width="0" /></g><g class="e1"><circle cx="416" cy="1062" fill="#ff0000" r="3.5" stroke-width="0" /><circle cx="312" cy="1049" fill="#ff0000" r="3.5" stroke-width="0" /><circle cx="624" cy="1031" fill="#ff0000" r="3.5" stroke-width="0" /><circle cx="628" cy="1024" fill="#ff0000" r="3.5" stroke-width="0" /><circle cx="535" cy="978" fill="#ff0000" r="3.5" stroke-width="0" /><circle cx="566" cy="959" fill="#ff0000" r="3.5" stroke-width="0" /><circle cx="549" cy="931" fill="#ff0000" r="3.5" stroke-width="0" /><circle cx="769" cy="927" fill="#ff0000" r="3.5" stroke-width="0" /><circle cx="616" cy="901" fill="#ff0000" r="3.5" stroke-width="0" /><circle cx="701" cy="901" fill="#ff0000" r="3.5" stroke-width="0" /><circle cx="810" cy="893" fill="#ff0000" r="3.5" stroke-width="0" /><circle cx="497" cy="889" fill="#ff0000" r="3.5" stroke-width="0" /><circle cx="829" cy="888" fill="#ff0000" r="3.5" stroke-width="0" /><circle cx="550" cy="880" fill="#ff0000" r="3.5" stroke-width="0" /><circle cx="665" cy="878" fill="#ff0000" r="3.5" stroke-width="0" /><circle cx="846" cy="867" fill="#ff0000" r="3.5" stroke-width="0" /><circle cx="788" cy="859" fill="#ff0000" r="3.5" stroke-width="0" /><circle cx="548" cy="852" fill="#ff0000" r="3.5" stroke-width="0" /><circle cx="594" cy="848" fill="#ff0000" r="3.5" stroke-width="0" /><circle cx="829" cy="843" fill="#ff0000" r="3.5" stroke-width="0" /><circle cx="845" cy="842" fill="#ff0000" r="3.5" stroke-width="0" /><circle cx="712" cy="826" fill="#ff0000" r="3.5" stroke-width="0" /><circle cx="816" cy="820" fill="#ff0000" r="3.5" stroke-width="0" /><circle cx="899" cy="819" fill="#ff0000" r="3.5" stroke-width="0" /><circle cx="696" cy="812" fill="#ff0000" r="3.5" stroke-width="0" /><circle cx="714" cy="792" fill="#ff0000" r="3.5" stroke-width="0" /><circle cx="611" cy="786" fill="#ff0000" r="3.5" stroke-width="0" /><circle cx="663" cy="786" fill="#ff0000" r="3.5" stroke-width="0" /><circle cx="694" cy="778" fill="#ff0000" r="3.5" stroke-width="0" /><circle cx="883" cy="777" fill="#ff0000" r="3.5" stroke-width="0" /><circle cx="769" cy="776" fill="#ff0000" r="3.5" stroke-width="0" /><circle cx="649" cy="775" fill="#ff0000" r="3.5" stroke-width="0" /><circle cx="733" cy="774" fill="#ff0000" r="3.5" stroke-width="0" /><circle cx="576" cy="769" fill="#ff0000" r="3.5" stroke-width="0" /><circle cx="881" cy="763" fill="#ff0000" r="3.5" stroke-width="0" /><circle cx="791" cy="758" fill="#ff0000" r="3.5" stroke-width="0" /><circle cx="591" cy="757" fill="#ff0000" r="3.5" stroke-width="0" /><circle cx="669" cy="746" fill="#ff0000" r="3.5" stroke-width="0" /><circle cx="658" cy="734" fill="#ff0000" r="3.5" stroke-width="0" /><circle cx="873" cy="731" fill="#ff0000" r="3.5" stroke-width="0" /><circle cx="906" cy="730" fill="#ff0000" r="3.5" stroke-width="0" /><circle cx="786" cy="728" fill="#ff0000" r="3.5" stroke-width="0" /><circle cx="713" cy="722" fill="#ff0000" r="3.5" stroke-width="0" /><circle cx="1000" cy="711" fill="#ff0000" r="3.5" stroke-width="0" /><circle cx="1011" cy="708" fill="#ff0000" r="3.5" stroke-width="0" /><circle cx="1005" cy="692" fill="#ff0000" r="3.5" stroke-width="0" /><circle cx="738" cy="689" fill="#ff0000" r="3.5" stroke-width="0" /><circle cx="732" cy="680" fill="#ff0000" r="3.5" stroke-width="0" /><circle cx="1004" cy="679" fill="#ff0000" r="3.5" stroke-width="0" /><circle cx="927" cy="675" fill="#ff0000" r="3.5" stroke-width="0" /><circle cx="885" cy="674" fill="#ff0000" r="3.5" stroke-width="0" /><circle cx="724" cy="670" fill="#ff0000" r="3.5" stroke-width="0" /><circle cx="717" cy="656" fill="#ff0000" r="3.5" stroke-width="0" /><circle cx="966" cy="653" fill="#ff0000" r="3.5" stroke-width="0" /><circle cx="777" cy="645" fill="#ff0000" r="3.5" stroke-width="0" /><circle cx="953" cy="641" fill="#ff0000" r="3.5" stroke-width="0" /><circle cx="849" cy="631" fill="#ff0000" r="3.5" stroke-width="0" /><circle cx="876" cy="630" fill="#ff0000" r="3.5" stroke-width="0" /><circle cx="905" cy="630" fill="#ff0000" r="3.5" stroke-width="0" /><circle cx="960" cy="626" fill="#ff0000" r="3.5" stroke-width="0" /><circle cx="904" cy="621" fill="#ff0000" r="3.5" stroke-width="0" /><circle cx="847" cy="619" fill="#ff0000" r="3.5" stroke-width="0" /><circle cx="931" cy="610" fill="#ff0000" r="3.5" stroke-width="0" /><circle cx="882" cy="609" fill="#ff0000" r="3.5" stroke-width="0" /><circle cx="974" cy="606" fill="#ff0000" r="3.5" stroke-width="0" /><circle cx="846" cy="604" fill="#ff0000" r="3.5" stroke-width="0" /><circle cx="804" cy="582" fill="#ff0000" r="3.5" stroke-width="0" /><circle cx="818" cy="567" fill="#ff0000" r="3.5" stroke-width="0" /><circle cx="988" cy="561" fill="#ff0000" r="3.5" stroke-width="0" /><circle cx="988" cy="541" fill="#ff0000" r="3.5" stroke-width="0" /><circle cx="905" cy="504" fill="#ff0000" r="3.5" stroke-width="0" /><circle cx="932" cy="474" fill="#ff0000" r="3.5" stroke-width="0" /><circle cx="1042" cy="470" fill="#ff0000" r="3.5" stroke-width="0" /><circle cx="885" cy="463" fill="#ff0000" r="3.5" stroke-width="0" /><circle cx="933" cy="462" fill="#ff0000" r="3.5" stroke-width="0" /><circle cx="1052" cy="374" fill="#ff0000" r="3.5" stroke-width="0" /></g><g class="e2"><circle cx="230" cy="1040" fill="#2b92db" r="3.5" stroke-width="0" /><circle cx="123" cy="1009" fill="#2b92db" r="3.5" stroke-width="0" /><circle cx="259" cy="1009" fill="#2b92db" r="3.5" stroke-width="0" /><circle cx="158" cy="961" fill="#2b92db" r="3.5" stroke-width="0" /><circle cx="357" cy="961" fill="#2b92db" r="3.5" stroke-width="0" /><circle cx="147" cy="958" fill="#2b92db" r="3.5" stroke-width="0" /><circle cx="109" cy="935" fill="#2b92db" r="3.5" stroke-width="0" /><circle cx="182" cy="918" fill="#2b92db" r="3.5" stroke-width="0" /><circle cx="104" cy="911" fill="#2b92db" r="3.5" stroke-width="0" /><circle cx="129" cy="910" fill="#2b92db" r="3.5" stroke-width="0" /><circle cx="397" cy="901" fill="#2b92db" r="3.5" stroke-width="0" /><circle cx="328" cy="894" fill="#2b92db" r="3.5" stroke-width="0" /><circle cx="315" cy="877" fill="#2b92db" r="3.5" stroke-width="0" /><circle cx="94" cy="875" fill="#2b92db" r="3.5" stroke-width="0" /><circle cx="116" cy="875" fill="#2b92db" r="3.5" stroke-width="0" /><circle cx="416" cy="875" fill="#2b92db" r="3.5" stroke-width="0" /><circle cx="364" cy="860" fill="#2b92db" r="3.5" stroke-width="0" /><circle cx="435" cy="852" fill="#2b92db" r="3.5" stroke-width="0" /><circle cx="404" cy="850" fill="#2b92db" r="3.5" stroke-width="0" /><circle cx="285" cy="849" fill="#2b92db" r="3.5" stroke-width="0" /><circle cx="463" cy="828" fill="#2b92db" r="3.5" stroke-width="0" /><circle cx="130" cy="825" fill="#2b92db" r="3.5" stroke-width="0" /><circle cx="504" cy="817" fill="#2b92db" r="3.5" stroke-width="0" /><circle cx="527" cy="810" fill="#2b92db" r="3.5" stroke-width="0" /><circle cx="172" cy="795" fill="#2b92db" r="3.5" stroke-width="0" /><circle cx="200" cy="794" fill="#2b92db" r="3.5" stroke-width="0" /><circle cx="276" cy="788" fill="#2b92db" r="3.5" stroke-width="0" /><circle cx="490" cy="778" fill="#2b92db" r="3.5" stroke-width="0" /><circle cx="241" cy="773" fill="#2b92db" r="3.5" stroke-width="0" /><circle cx="494" cy="773" fill="#2b92db" r="3.5" stroke-width="0" /><circle cx="272" cy="760" fill="#2b92db" r="3.5" stroke-width="0" /><circle cx="273" cy="756" fill="#2b92db" r="3.5" stroke-width="0" /><circle cx="388" cy="749" fill="#2b92db" r="3.5" stroke-width="0" /><circle cx="406" cy="749" fill="#2b92db" r="3.5" stroke-width="0" /><circle cx="226" cy="740" fill="#2b92db" r="3.5" stroke-width="0" /><circle cx="250" cy="740" fill="#2b92db" r="3.5" stroke-width="0" /><circle cx="314" cy="737" fill="#2b92db" r="3.5" stroke-width="0" /><circle cx="570" cy="735" fill="#2b92db" r="3.5" stroke-width="0" /><circle cx="362" cy="726" fill="#2b92db" r="3.5" stroke-width="0" /><circle cx="444" cy="706" fill="#2b92db" r="3.5" stroke-width="0" /><circle cx="391" cy="695" fill="#2b92db" r="3.5" stroke-width="0" /><circle cx="505" cy="694" fill="#2b92db" r="3.5" stroke-width="0" /><circle cx="313" cy="691" fill="#2b92db" r="3.5" stroke-width="0" /><circle cx="260" cy="684" fill="#2b92db" r="3.5" stroke-width="0" /><circle cx="411" cy="658" fill="#2b92db" r="3.5" stroke-width="0" /><circle cx="498" cy="658" fill="#2b92db" r="3.5" stroke-width="0" /><circle cx="646" cy="645" fill="#2b92db" r="3.5" stroke-width="0" /><circle cx="554" cy="643" fill="#2b92db" r="3.5" stroke-width="0" /><circle cx="454" cy="639" fill="#2b92db" r="3.5" stroke-width="0" /><circle cx="703" cy="638" fill="#2b92db" r="3.5" stroke-width="0" /><circle cx="310" cy="636" fill="#2b92db" r="3.5" stroke-width="0" /><circle cx="450" cy="636" fill="#2b92db" r="3.5" stroke-width="0" /><circle cx="711" cy="628" fill="#2b92db" r="3.5" stroke-width="0" /><circle cx="580" cy="626" fill="#2b92db" r="3.5" stroke-width="0" /><circle cx="576" cy="616" fill="#2b92db" r="3.5" stroke-width="0" /><circle cx="487" cy="602" fill="#2b92db" r="3.5" stroke-width="0" /><circle cx="349" cy="595" fill="#2b92db" r="3.5" stroke-width="0" /><circle cx="567" cy="577" fill="#2b92db" r="3.5" stroke-width="0" /><circle cx="645" cy="563" fill="#2b92db" r="3.5" stroke-width="0" /><circle cx="553" cy="560" fill="#2b92db" r="3.5" stroke-width="0" /><circle cx="689" cy="560" fill="#2b92db" r="3.5" stroke-width="0" /><circle cx="598" cy="547" fill="#2b92db" r="3.5" stroke-width="0" /><circle cx="565" cy="541" fill="#2b92db" r="3.5" stroke-width="0" /><circle cx="670" cy="522" fill="#2b92db" r="3.5" stroke-width="0" /><circle cx="698" cy="520" fill="#2b92db" r="3.5" stroke-width="0" /><circle cx="561" cy="486" fill="#2b92db" r="3.5" stroke-width="0" /><circle cx="840" cy="477" fill="#2b92db" r="3.5" stroke-width="0" /><circle cx="547" cy="472" fill="#2b92db" r="3.5" stroke-width="0" /><circle cx="766" cy="471" fill="#2b92db" r="3.5" stroke-width="0" /><circle cx="655" cy="463" fill="#2b92db" r="3.5" stroke-width="0" /><circle cx="561" cy="457" fill="#2b92db" r="3.5" stroke-width="0" /><circle cx="772" cy="453" fill="#2b92db" r="3.5" stroke-width="0" /><circle cx="529" cy="432" fill="#2b92db" r="3.5" stroke-width="0" /><circle cx="596" cy="425" fill="#2b92db" r="3.5" stroke-width="0" /><circle cx="736" cy="425" fill="#2b92db" r="3.5" stroke-width="0" /><circle cx="704" cy="424" fill="#2b92db" r="3.5" stroke-width="0" /><circle cx="591" cy="421" fill="#2b92db" r="3.5" stroke-width="0" /><circle cx="905" cy="414" fill="#2b92db" r="3.5" stroke-width="0" /><circle cx="592" cy="412" fill="#2b92db" r="3.5" stroke-width="0" /><circle cx="830" cy="403" fill="#2b92db" r="3.5" stroke-width="0" /><circle cx="717" cy="373" fill="#2b92db" r="3.5" stroke-width="0" /><circle cx="824" cy="366" fill="#2b92db" r="3.5" stroke-width="0" /><circle cx="920" cy="363" fill="#2b92db" r="3.5" stroke-width="0" /><circle cx="595" cy="351" fill="#2b92db" r="3.5" stroke-width="0" /><circle cx="968" cy="349" fill="#2b92db" r="3.5" stroke-width="0" /><circle cx="951" cy="338" fill="#2b92db" r="3.5" stroke-width="0" /><circle cx="614" cy="330" fill="#2b92db" r="3.5" stroke-width="0" /><circle cx="634" cy="323" fill="#2b92db" r="3.5" stroke-width="0" /><circle cx="967" cy="321" fill="#2b92db" r="3.5" stroke-width="0" /><circle cx="759" cy="317" fill="#2b92db" r="3.5" stroke-width="0" /><circle cx="775" cy="316" fill="#2b92db" r="3.5" stroke-width="0" /><circle cx="656" cy="315" fill="#2b92db" r="3.5" stroke-width="0" /><circle cx="767" cy="313" fill="#2b92db" r="3.5" stroke-width="0" /><circle cx="871" cy="310" fill="#2b92db" r="3.5" stroke-width="0" /><circle cx="726" cy="304" fill="#2b92db" r="3.5" stroke-width="0" /><circle cx="807" cy="286" fill="#2b92db" r="3.5" stroke-width="0" /><circle cx="948" cy="269" fill="#2b92db" r="3.5" stroke-width="0" /><circle cx="997" cy="268" fill="#2b92db" r="3.5" stroke-width="0" /><circle cx="900" cy="267" fill="#2b92db" r="3.5" stroke-width="0" /><circle cx="1052" cy="264" fill="#2b92db" r="3.5" stroke-width="0" /><circle cx="875" cy="262" fill="#2b92db" r="3.5" stroke-width="0" /><circle cx="809" cy="259" fill="#2b92db" r="3.5" stroke-width="0" /><circle cx="880" cy="258" fill="#2b92db" r="3.5" stroke-width="0" /><circle cx="779" cy="257" fill="#2b92db" r="3.5" stroke-width="0" /><circle cx="946" cy="256" fill="#2b92db" r="3.5" stroke-width="0" /><circle cx="1029" cy="247" fill="#2b92db" r="3.5" stroke-width="0" /><circle cx="863" cy="241" fill="#2b92db" r="3.5" stroke-width="0" /><circle cx="811" cy="231" fill="#2b92db" r="3.5" stroke-width="0" /><circle cx="966" cy="228" fill="#2b92db" r="3.5" stroke-width="0" /><circle cx="840" cy="224" fill="#2b92db" r="3.5" stroke-width="0" /><circle cx="815" cy="217" fill="#2b92db" r="3.5" stroke-width="0" /><circle cx="804" cy="212" fill="#2b92db" r="3.5" stroke-width="0" /><circle cx="1050" cy="210" fill="#2b92db" r="3.5" stroke-width="0" /><circle cx="831" cy="183" fill="#2b92db" r="3.5" stroke-width="0" /><circle cx="833" cy="180" fill="#2b92db" r="3.5" stroke-width="0" /><circle cx="789" cy="178" fill="#2b92db" r="3.5" stroke-width="0" /><circle cx="860" cy="146" fill="#2b92db" r="3.5" stroke-width="0" /><circle cx="982" cy="126" fill="#2b92db" r="3.5" stroke-width="0" /><circle cx="873" cy="115" fill="#2b92db" r="3.5" stroke-width="0" /><circle cx="913" cy="111" fill="#2b92db" r="3.5" stroke-width="0" /><circle cx="930" cy="103" fill="#2b92db" r="3.5" stroke-width="0" /></g><g class="e3"><circle cx="87" cy="798" fill="#911eb4" r="3.5" stroke-width="0" /><circle cx="102" cy="786" fill="#911eb4" r="3.5" stroke-width="0" /><circle cx="112" cy="759" fill="#911eb4" r="3.5" stroke-width="0" /><circle cx="77" cy="758" fill="#911eb4" r="3.5" stroke-width="0" /><circle cx="74" cy="744" fill="#911eb4" r="3.5" stroke-width="0" /><circle cx="196" cy="716" fill="#911eb4" r="3.5" stroke-width="0" /><circle cx="80" cy="667" fill="#911eb4" r="3.5" stroke-width="0" /><circle cx="107" cy="665" fill="#911eb4" r="3.5" stroke-width="0" /><circle cx="109" cy="644" fill="#911eb4" r="3.5" stroke-width="0" /><circle cx="300" cy="634" fill="#911eb4" r="3.5" stroke-width="0" /><circle cx="242" cy="631" fill="#911eb4" r="3.5" stroke-width="0" /><circle cx="300" cy="615" fill="#911eb4" r="3.5" stroke-width="0" /><circle cx="94" cy="613" fill="#911eb4" r="3.5" stroke-width="0" /><circle cx="298" cy="613" fill="#911eb4" r="3.5" stroke-width="0" /><circle cx="253" cy="611" fill="#911eb4" r="3.5" stroke-width="0" /><circle cx="220" cy="608" fill="#911eb4" r="3.5" stroke-width="0" /><circle cx="266" cy="600" fill="#911eb4" r="3.5" stroke-width="0" /><circle cx="315" cy="594" fill="#911eb4" r="3.5" stroke-width="0" /><circle cx="349" cy="593" fill="#911eb4" r="3.5" stroke-width="0" /><circle cx="294" cy="588" fill="#911eb4" r="3.5" stroke-width="0" /><circle cx="330" cy="581" fill="#911eb4" r="3.5" stroke-width="0" /><circle cx="313" cy="560" fill="#911eb4" r="3.5" stroke-width="0" /><circle cx="118" cy="556" fill="#911eb4" r="3.5" stroke-width="0" /><circle cx="384" cy="556" fill="#911eb4" r="3.5" stroke-width="0" /><circle cx="133" cy="551" fill="#911eb4" r="3.5" stroke-width="0" /><circle cx="391" cy="549" fill="#911eb4" r="3.5" stroke-width="0" /><circle cx="116" cy="544" fill="#911eb4" r="3.5" stroke-width="0" /><circle cx="312" cy="542" fill="#911eb4" r="3.5" stroke-width="0" /><circle cx="238" cy="541" fill="#911eb4" r="3.5" stroke-width="0" /><circle cx="78" cy="538" fill="#911eb4" r="3.5" stroke-width="0" /><circle cx="93" cy="537" fill="#911eb4" r="3.5" stroke-width="0" /><circle cx="314" cy="534" fill="#911eb4" r="3.5" stroke-width="0" /><circle cx="187" cy="523" fill="#911eb4" r="3.5" stroke-width="0" /><circle cx="372" cy="522" fill="#911eb4" r="3.5" stroke-width="0" /><circle cx="175" cy="518" fill="#911eb4" r="3.5" stroke-width="0" /><circle cx="320" cy="511" fill="#911eb4" r="3.5" stroke-width="0" /><circle cx="386" cy="502" fill="#911eb4" r="3.5" stroke-width="0" /><circle cx="304" cy="498" fill="#911eb4" r="3.5" stroke-width="0" /><circle cx="156" cy="488" fill="#911eb4" r="3.5" stroke-width="0" /><circle cx="176" cy="472" fill="#911eb4" r="3.5" stroke-width="0" /><circle cx="371" cy="469" fill="#911eb4" r="3.5" stroke-width="0" /><circle cx="234" cy="467" fill="#911eb4" r="3.5" stroke-width="0" /><circle cx="338" cy="467" fill="#911eb4" r="3.5" stroke-width="0" /><circle cx="329" cy="439" fill="#911eb4" r="3.5" stroke-width="0" /><circle cx="424" cy="434" fill="#911eb4" r="3.5" stroke-width="0" /><circle cx="167" cy="430" fill="#911eb4" r="3.5" stroke-width="0" /><circle cx="307" cy="430" fill="#911eb4" r="3.5" stroke-width="0" /><circle cx="347" cy="430" fill="#911eb4" r="3.5" stroke-width="0" /><circle cx="345" cy="425" fill="#911eb4" r="3.5" stroke-width="0" /><circle cx="288" cy="405" fill="#911eb4" r="3.5" stroke-width="0" /><circle cx="499" cy="404" fill="#911eb4" r="3.5" stroke-width="0" /><circle cx="349" cy="379" fill="#911eb4" r="3.5" stroke-width="0" /><circle cx="507" cy="369" fill="#911eb4" r="3.5" stroke-width="0" /><circle cx="379" cy="366" fill="#911eb4" r="3.5" stroke-width="0" /><circle cx="278" cy="359" fill="#911eb4" r="3.5" stroke-width="0" /><circle cx="398" cy="359" fill="#911eb4" r="3.5" stroke-width="0" /><circle cx="316" cy="356" fill="#911eb4" r="3.5" stroke-width="0" /><circle cx="340" cy="352" fill="#911eb4" r="3.5" stroke-width="0" /><circle cx="311" cy="346" fill="#911eb4" r="3.5" stroke-width="0" /><circle cx="454" cy="335" fill="#911eb4" r="3.5" stroke-width="0" /><circle cx="382" cy="333" fill="#911eb4" r="3.5" stroke-width="0" /><circle cx="423" cy="320" fill="#911eb4" r="3.5" stroke-width="0" /><circle cx="474" cy="319" fill="#911eb4" r="3.5" stroke-width="0" /><circle cx="363" cy="317" fill="#911eb4" r="3.5" stroke-width="0" /><circle cx="325" cy="312" fill="#911eb4" r="3.5" stroke-width="0" /><circle cx="283" cy="308" fill="#911eb4" r="3.5" stroke-width="0" /><circle cx="277" cy="306" fill="#911eb4" r="3.5" stroke-width="0" /><circle cx="483" cy="280" fill="#911eb4" r="3.5" stroke-width="0" /><circle cx="529" cy="271" fill="#911eb4" r="3.5" stroke-width="0" /><circle cx="604" cy="271" fill="#911eb4" r="3.5" stroke-width="0" /><circle cx="376" cy="263" fill="#911eb4" r="3.5" stroke-width="0" /><circle cx="676" cy="263" fill="#911eb4" r="3.5" stroke-width="0" /><circle cx="654" cy="259" fill="#911eb4" r="3.5" stroke-width="0" /><circle cx="294" cy="255" fill="#911eb4" r="3.5" stroke-width="0" /><circle cx="416" cy="255" fill="#911eb4" r="3.5" stroke-width="0" /><circle cx="625" cy="254" fill="#911eb4" r="3.5" stroke-width="0" /><circle cx="476" cy="245" fill="#911eb4" r="3.5" stroke-width="0" /><circle cx="496" cy="244" fill="#911eb4" r="3.5" stroke-width="0" /><circle cx="427" cy="236" fill="#911eb4" r="3.5" stroke-width="0" /><circle cx="571" cy="236" fill="#911eb4" r="3.5" stroke-width="0" /><circle cx="326" cy="234" fill="#911eb4" r="3.5" stroke-width="0" /><circle cx="603" cy="233" fill="#911eb4" r="3.5" stroke-width="0" /><circle cx="541" cy="206" fill="#911eb4" r="3.5" stroke-width="0" /><circle cx="358" cy="194" fill="#911eb4" r="3.5" stroke-width="0" /><circle cx="566" cy="186" fill="#911eb4" r="3.5" stroke-width="0" /><circle cx="584" cy="184" fill="#911eb4" r="3.5" stroke-width="0" /><circle cx="723" cy="183" fill="#911eb4" r="3.5" stroke-width="0" /><circle cx="700" cy="180" fill="#911eb4" r="3.5" stroke-width="0" /><circle cx="701" cy="180" fill="#911eb4" r="3.5" stroke-width="0" /><circle cx="449" cy="173" fill="#911eb4" r="3.5" stroke-width="0" /><circle cx="499" cy="167" fill="#911eb4" r="3.5" stroke-width="0" /><circle cx="576" cy="150" fill="#911eb4" r="3.5" stroke-width="0" /><circle cx="582" cy="145" fill="#911eb4" r="3.5" stroke-width="0" /><circle cx="505" cy="118" fill="#911eb4" r="3.5" stroke-width="0" /><circle cx="576" cy="113" fill="#911eb4" r="3.5" stroke-width="0" /><circle cx="659" cy="97" fill="#911eb4" r="3.5" stroke-width="0" /><circle cx="468" cy="93" fill="#911eb4" r="3.5" stroke-width="0" /></g><g class="e4"><circle cx="79" cy="435" fill="#3cb44B" r="3.5" stroke-width="0" /><circle cx="107" cy="383" fill="#3cb44B" r="3.5" stroke-width="0" /><circle cx="148" cy="372" fill="#3cb44B" r="3.5" stroke-width="0" /><circle cx="111" cy="348" fill="#3cb44B" r="3.5" stroke-width="0" /><circle cx="131" cy="345" fill="#3cb44B" r="3.5" stroke-width="0" /><circle cx="78" cy="334" fill="#3cb44B" r="3.5" stroke-width="0" /><circle cx="207" cy="299" fill="#3cb44B" r="3.5" stroke-width="0" /><circle cx="245" cy="295" fill="#3cb44B" r="3.5" stroke-width="0" /><circle cx="153" cy="294" fill="#3cb44B" r="3.5" stroke-width="0" /><circle cx="195" cy="266" fill="#3cb44B" r="3.5" stroke-width="0" /><circle cx="252" cy="263" fill="#3cb44B" r="3.5" stroke-width="0" /><circle cx="171" cy="259" fill="#3cb44B" r="3.5" stroke-width="0" /><circle cx="143" cy="257" fill="#3cb44B" r="3.5" stroke-width="0" /><circle cx="218" cy="251" fill="#3cb44B" r="3.5" stroke-width="0" /><circle cx="273" cy="249" fill="#3cb44B" r="3.5" stroke-width="0" /><circle cx="237" cy="248" fill="#3cb44B" r="3.5" stroke-width="0" /><circle cx="210" cy="239" fill="#3cb44B" r="3.5" stroke-width="0" /><circle cx="123" cy="225" fill="#3cb44B" r="3.5" stroke-width="0" /><circle cx="325" cy="219" fill="#3cb44B" r="3.5" stroke-width="0" /><circle cx="260" cy="218" fill="#3cb44B" r="3.5" stroke-width="0" /><circle cx="131" cy="211" fill="#3cb44B" r="3.5" stroke-width="0" /><circle cx="255" cy="211" fill="#3cb44B" r="3.5" stroke-width="0" /><circle cx="273" cy="204" fill="#3cb44B" r="3.5" stroke-width="0" /><circle cx="220" cy="183" fill="#3cb44B" r="3.5" stroke-width="0" /><circle cx="344" cy="170" fill="#3cb44B" r="3.5" stroke-width="0" /><circle cx="327" cy="157" fill="#3cb44B" r="3.5" stroke-width="0" /><circle cx="261" cy="153" fill="#3cb44B" r="3.5" stroke-width="0" /><circle cx="327" cy="125" fill="#3cb44B" r="3.5" stroke-width="0" /><circle cx="221" cy="86" fill="#3cb44B" r="3.5" stroke-width="0" /><circle cx="339" cy="71" fill="#3cb44B" r="3.5" stroke-width="0" /></g></g></g></svg>