<?xml version="1.0" encoding="utf-8" ?>
<svg baseProfile="full" height="1140px" style="font-size:15;font-family:Arial, san-serif;font-weight:bold;stroke:black;stroke-width:0;fill:#444444" version="1.1" width="1140px" xmlns="http://www.w3.org/2000/svg" xmlns:ev="http://www.w3.org/2001/xml-events" xmlns:xlink="http://www.w3.org/1999/xlink"><defs><clipPath id="areadografico"><rect height="1000" width="1000" x="70" y="70" /></clipPath></defs><g class="master"><g class="poligonos"><polygon clip-path="url(#areadografico)" fill="#000000" fill-opacity="0.1" points="1069,1070 1069,849 849,1070" /><polygon clip-path="url(#areadografico)" fill="#ffffff" fill-opacity="0.1" points="849,1070 627,1070 1069,627 1069,849" /><polygon clip-path="url(#areadografico)" fill="#000000" fill-opacity="0.1" points="627,1070 405,1070 1069,405 1069,627" /><polygon clip-path="url(#areadografico)" fill="#ffffff" fill-opacity="0.1" points="405,1070 183,1070 1069,183 1069,405" /><polygon clip-path="url(#areadografico)" fill="#000000" fill-opacity="0.1" points="183,1070 -39,1070 1069,-39 1069,183" /><polygon clip-path="url(#areadografico)" fill="#ffffff" fill-opacity="0.1" points="-39,1070 -261,1070 1069,-261 1069,-39" /><polygon clip-path="url(#areadografico)" fill="#000000" fill-opacity="0.1" points="-261,1070 -483,1070 1069,-483 1069,-261" /><polygon clip-path="url(#areadografico)" fill="#ffffff" fill-opacity="0.1" points="-483,1070 -705,1070 1069,-705 1069,-483" /><polygon clip-path="url(#areadografico)" fill="#000000" fill-opacity="0.1" points="70,70 70,294 294,70" /></g><g class="linhas"><line fill-opacity="0.3" stroke="#999999" stroke-width="1" x1="1070" x2="1070" y1="1070" y2="70" /><line fill-opacity="0.3" stroke="#999999" stroke-width="1" x1="70" x2="1070" y1="70" y2="70" /><line fill-opacity="0.3" stroke="#999999" stroke-width="1" x1="970" x2="970" y1="1070" y2="70" /><line fill-opacity="0.3" stroke="#999999" stroke-width="1" x1="70" x2="1070" y1="170" y2="170" /><line fill-opacity="0.3" stroke="#999999" stroke-width="1" x1="870" x2="870" y1="1070" y2="70" /><line fill-opacity="0.3" stroke="#999999" stroke-width="1" x1="70" x2="1070" y1="270" y2="270" /><line fill-opacity="0.3" stroke="#999999" stroke-width="1" x1="770" x2="770" y1="1070" y2="70" /><line fill-opacity="0.3" stroke="#999999" stroke-width="1" x1="70" x2="1070" y1="370" y2="370" /><line fill-opacity="0.3" stroke="#999999" stroke-width="1" x1="670" x2="670" y1="1070" y2="70" /><line fill-opacity="0.3" stroke="#999999" stroke-width="1" x1="70" x2="1070" y1="470" y2="470" /><line fill-opacity="0.3" stroke="#999999" stroke-width="1" x1="570" x2="570" y1="1070" y2="70" /><line fill-opacity="0.3" stroke="#999999" stroke-width="1" x1="70" x2="1070" y1="570" y2="570" /><line fill-opacity="0.3" stroke="#999999" stroke-width="1" x1="470" x2="470" y1="1070" y2="70" /><line fill-opacity="0.3" stroke="#999999" stroke-width="1" x1="70" x2="1070" y1="670" y2="670" /><line fill-opacity="0.3" stroke="#999999" stroke-width="1" x1="370" x2="370" y1="1070" y2="70" /><line fill-opacity="0.3" stroke="#999999" stroke-width="1" x1="70" x2="1070" y1="770" y2="770" /><line fill-opacity="0.3" stroke="#999999" stroke-width="1" x1="270" x2="270" y1="1070" y2="70" /><line fill-opacity="0.3" stroke="#999999" stroke-width="1" x1="70" x2="1070" y1="870" y2="870" /><line fill-opacity="0.3" stroke="#999999" stroke-width="1" x1="170" x2="170" y1="1070" y2="70" /><line fill-opacity="0.3" stroke="#999999" stroke-width="1" x1="70" x2="1070" y1="970" y2="970" /><line fill-opacity="0.3" stroke="#000000" stroke-width="1" x1="70" x2="70" y1="1071" y2="69" /><line fill-opacity="0.3" stroke="#000000" stroke-width="1" x1="69" x2="1071" y1="1070" y2="1070" /></g><g class="textos"><text x="1050" y="1110">1000</text><text x="10" y="71">1000</text><text x="950" y="1110">900</text><text x="10" y="171">900</text><text x="850" y="1110">800</text><text x="10" y="271">800</text><text x="750" y="1110">700</text><text x="10" y="371">700</text><text x="650" y="1110">600</text><text x="10" y="471">600</text><text x="550" y="1110">500</text><text x="10" y="571">500</text><text x="450" y="1110">400</text><text x="10" y="671">400</text><text x="350" y="1110">300</text><text x="10" y="771">300</text><text x="250" y="1110">200</text><text x="10" y="871">200</text><text x="150" y="1110">100</text><text x="10" y="971">100</text><text x="50" y="1111">0</text><text x="9" y="1071">0</text></g><g class="especies"><g class="e0" /><g class="e1" /><g class="e2"><circle cx="817" cy="724" fill="#2b92db" r="3.5" stroke-width="0" /><circle cx="824" cy="697" fill="#2b92db" r="3.5" stroke-width="0" /><circle cx="829" cy="671" fill="#2b92db" r="3.5" stroke-width="0" /><circle cx="817" cy="670" fill="#2b92db" r="3.5" stroke-width="0" /><circle cx="836" cy="661" fill="#2b92db" r="3.5" stroke-width="0" /></g><g class="e3"><circle cx="808" cy="646" fill="#911eb4" r="3.5" stroke-width="0" /><circle cx="798" cy="645" fill="#911eb4" r="3.5" stroke-width="0" /><circle cx="813" cy="632" fill="#911eb4" r="3.5" stroke-width="0" /><circle cx="830" cy="629" fill="#911eb4" r="3.5" stroke-width="0" /><circle cx="815" cy="618" fill="#911eb4" r="3.5" stroke-width="0" /><circle cx="816" cy="618" fill="#911eb4" r="3.5" stroke-width="0" /><circle cx="836" cy="618" fill="#911eb4" r="3.5" stroke-width="0" /><circle cx="799" cy="602" fill="#911eb4" r="3.5" stroke-width="0" /><circle cx="811" cy="601" fill="#911eb4" r="3.5" stroke-width="0" /><circle cx="829" cy="598" fill="#911eb4" r="3.5" stroke-width="0" /><circle cx="833" cy="597" fill="#911eb4" r="3.5" stroke-width="0" /><circle cx="828" cy="596" fill="#911eb4" r="3.5" stroke-width="0" /><circle cx="815" cy="593" fill="#911eb4" r="3.5" stroke-width="0" /><circle cx="801" cy="582" fill="#911eb4" r="3.5" stroke-width="0" /><circle cx="799" cy="578" fill="#911eb4" r="3.5" stroke-width="0" /><circle cx="821" cy="566" fill="#911eb4" r="3.5" stroke-width="0" /><circle cx="817" cy="565" fill="#911eb4" r="3.5" stroke-width="0" /><circle cx="806" cy="564" fill="#911eb4" r="3.5" stroke-width="0" /><circle cx="805" cy="562" fill="#911eb4" r="3.5" stroke-width="0" /><circle cx="816" cy="555" fill="#911eb4" r="3.5" stroke-width="0" /><circle cx="820" cy="555" fill="#911eb4" r="3.5" stroke-width="0" /><circle cx="815" cy="554" fill="#911eb4" r="3.5" stroke-width="0" /><circle cx="833" cy="543" fill="#911eb4" r="3.5" stroke-width="0" /><circle cx="812" cy="537" fill="#911eb4" r="3.5" stroke-width="0" /><circle cx="832" cy="534" fill="#911eb4" r="3.5" stroke-width="0" /><circle cx="817" cy="533" fill="#911eb4" r="3.5" stroke-width="0" /><circle cx="824" cy="529" fill="#911eb4" r="3.5" stroke-width="0" /><circle cx="814" cy="528" fill="#911eb4" r="3.5" stroke-width="0" /><circle cx="832" cy="526" fill="#911eb4" r="3.5" stroke-width="0" /><circle cx="811" cy="520" fill="#911eb4" r="3.5" stroke-width="0" /><circle cx="820" cy="517" fill="#911eb4" r="3.5" stroke-width="0" /><circle cx="822" cy="515" fill="#911eb4" r="3.5" stroke-width="0" /><circle cx="816" cy="514" fill="#911eb4" r="3.5" stroke-width="0" /><circle cx="800" cy="510" fill="#911eb4" r="3.5" stroke-width="0" /><circle cx="818" cy="505" fill="#911eb4" r="3.5" stroke-width="0" /><circle cx="811" cy="494" fill="#911eb4" r="3.5" stroke-width="0" /><circle cx="820" cy="493" fill="#911eb4" r="3.5" stroke-width="0" /><circle cx="818" cy="490" fill="#911eb4" r="3.5" stroke-width="0" /><circle cx="806" cy="472" fill="#911eb4" r="3.5" stroke-width="0" /><circle cx="807" cy="463" fill="#911eb4" r="3.5" stroke-width="0" /><circle cx="824" cy="463" fill="#911eb4" r="3.5" stroke-width="0" /><circle cx="830" cy="455" fill="#911eb4" r="3.5" stroke-width="0" /><circle cx="811" cy="447" fill="#911eb4" r="3.5" stroke-width="0" /><circle cx="838" cy="442" fill="#911eb4" r="3.5" stroke-width="0" /></g><g class="e4"><circle cx="314" cy="744" fill="#3cb44B" r="3.5" stroke-width="0" /><circle cx="321" cy="741" fill="#3cb44B" r="3.5" stroke-width="0" /><circle cx="810" cy="426" fill="#3cb44B" r="3.5" stroke-width="0" /></g><g class="e5"><circle cx="319" cy="697" fill="#ff0000" r="3.5" stroke-width="0" /><circle cx="311" cy="676" fill="#ff0000" r="3.5" stroke-width="0" /><circle cx="322" cy="662" fill="#ff0000" r="3.5" stroke-width="0" /><circle cx="326" cy="656" fill="#ff0000" r="3.5" stroke-width="0" /><circle cx="325" cy="655" fill="#ff0000" r="3.5" stroke-width="0" /><circle cx="310" cy="650" fill="#ff0000" r="3.5" stroke-width="0" /><circle cx="311" cy="639" fill="#ff0000" r="3.5" stroke-width="0" /><circle cx="320" cy="634" fill="#ff0000" r="3.5" stroke-width="0" /><circle cx="326" cy="625" fill="#ff0000" r="3.5" stroke-width="0" /><circle cx="315" cy="622" fill="#ff0000" r="3.5" stroke-width="0" /><circle cx="324" cy="620" fill="#ff0000" r="3.5" stroke-width="0" /><circle cx="325" cy="617" fill="#ff0000" r="3.5" stroke-width="0" /><circle cx="310" cy="611" fill="#ff0000" r="3.5" stroke-width="0" /><circle cx="316" cy="603" fill="#ff0000" r="3.5" stroke-width="0" /><circle cx="331" cy="600" fill="#ff0000" r="3.5" stroke-width="0" /><circle cx="335" cy="598" fill="#ff0000" r="3.5" stroke-width="0" /><circle cx="302" cy="595" fill="#ff0000" r="3.5" stroke-width="0" /><circle cx="323" cy="591" fill="#ff0000" r="3.5" stroke-width="0" /><circle cx="304" cy="587" fill="#ff0000" r="3.5" stroke-width="0" /><circle cx="331" cy="583" fill="#ff0000" r="3.5" stroke-width="0" /><circle cx="324" cy="582" fill="#ff0000" r="3.5" stroke-width="0" /><circle cx="327" cy="581" fill="#ff0000" r="3.5" stroke-width="0" /><circle cx="324" cy="580" fill="#ff0000" r="3.5" stroke-width="0" /><circle cx="312" cy="577" fill="#ff0000" r="3.5" stroke-width="0" /><circle cx="316" cy="572" fill="#ff0000" r="3.5" stroke-width="0" /><circle cx="304" cy="569" fill="#ff0000" r="3.5" stroke-width="0" /><circle cx="318" cy="566" fill="#ff0000" r="3.5" stroke-width="0" /><circle cx="301" cy="553" fill="#ff0000" r="3.5" stroke-width="0" /><circle cx="309" cy="548" fill="#ff0000" r="3.5" stroke-width="0" /><circle cx="310" cy="547" fill="#ff0000" r="3.5" stroke-width="0" /><circle cx="308" cy="545" fill="#ff0000" r="3.5" stroke-width="0" /><circle cx="328" cy="539" fill="#ff0000" r="3.5" stroke-width="0" /><circle cx="314" cy="524" fill="#ff0000" r="3.5" stroke-width="0" /><circle cx="329" cy="518" fill="#ff0000" r="3.5" stroke-width="0" /><circle cx="319" cy="516" fill="#ff0000" r="3.5" stroke-width="0" /><circle cx="307" cy="514" fill="#ff0000" r="3.5" stroke-width="0" /><circle cx="305" cy="512" fill="#ff0000" r="3.5" stroke-width="0" /><circle cx="311" cy="511" fill="#ff0000" r="3.5" stroke-width="0" /><circle cx="325" cy="492" fill="#ff0000" r="3.5" stroke-width="0" /><circle cx="330" cy="484" fill="#ff0000" r="3.5" stroke-width="0" /></g><g class="e6"><circle cx="327" cy="473" fill="#2b92db" r="3.5" stroke-width="0" /><circle cx="312" cy="464" fill="#2b92db" r="3.5" stroke-width="0" /><circle cx="304" cy="461" fill="#2b92db" r="3.5" stroke-width="0" /><circle cx="305" cy="460" fill="#2b92db" r="3.5" stroke-width="0" /><circle cx="309" cy="437" fill="#2b92db" r="3.5" stroke-width="0" /><circle cx="300" cy="427" fill="#2b92db" r="3.5" stroke-width="0" /><circle cx="340" cy="416" fill="#2b92db" r="3.5" stroke-width="0" /><circle cx="317" cy="393" fill="#2b92db" r="3.5" stroke-width="0" /></g><g class="e7" /><g class="e8" /></g></g></svg>