<?xml version="1.0" encoding="utf-8" ?>
<svg baseProfile="full" height="1140px" style="font-size:15;font-family:Arial, san-serif;font-weight:bold;stroke:black;stroke-width:0;fill:#444444" version="1.1" width="1140px" xmlns="http://www.w3.org/2000/svg" xmlns:ev="http://www.w3.org/2001/xml-events" xmlns:xlink="http://www.w3.org/1999/xlink"><defs><clipPath id="areadografico"><rect height="1000" width="1000" x="70" y="70" /></clipPath></defs><g class="master"><g class="poligonos"><polygon clip-path="url(#areadografico)" fill="#000000" fill-opacity="0.1" points="1069,1070 1069,785 785,1070" /><polygon clip-path="url(#areadografico)" fill="#ffffff" fill-opacity="0.1" points="785,1070 499,1070 1069,499 1069,785" /><polygon clip-path="url(#areadografico)" fill="#000000" fill-opacity="0.1" points="499,1070 214,1070 1069,214 1069,499" /><polygon clip-path="url(#areadografico)" fill="#ffffff" fill-opacity="0.1" points="214,1070 -72,1070 1069,-72 1069,214" /><polygon clip-path="url(#areadografico)" fill="#000000" fill-opacity="0.1" points="-72,1070 -358,1070 1069,-358 1069,-72" /><polygon clip-path="url(#areadografico)" fill="#ffffff" fill-opacity="0.1" points="-358,1070 -643,1070 1069,-643 1069,-358" /><polygon clip-path="url(#areadografico)" fill="#000000" fill-opacity="0.1" points="70,70 70,356 356,70" /></g><g class="linhas"><line fill-opacity="0.3" stroke="#999999" stroke-width="1" x1="1070" x2="1070" y1="1070" y2="70" /><line fill-opacity="0.3" stroke="#999999" stroke-width="1" x1="70" x2="1070" y1="70" y2="70" /><line fill-opacity="0.3" stroke="#999999" stroke-width="1" x1="970" x2="970" y1="1070" y2="70" /><line fill-opacity="0.3" stroke="#999999" stroke-width="1" x1="70" x2="1070" y1="170" y2="170" /><line fill-opacity="0.3" stroke="#999999" stroke-width="1" x1="870" x2="870" y1="1070" y2="70" /><line fill-opacity="0.3" stroke="#999999" stroke-width="1" x1="70" x2="1070" y1="270" y2="270" /><line fill-opacity="0.3" stroke="#999999" stroke-width="1" x1="770" x2="770" y1="1070" y2="70" /><line fill-opacity="0.3" stroke="#999999" stroke-width="1" x1="70" x2="1070" y1="370" y2="370" /><line fill-opacity="0.3" stroke="#999999" stroke-width="1" x1="670" x2="670" y1="1070" y2="70" /><line fill-opacity="0.3" stroke="#999999" stroke-width="1" x1="70" x2="1070" y1="470" y2="470" /><line fill-opacity="0.3" stroke="#999999" stroke-width="1" x1="570" x2="570" y1="1070" y2="70" /><line fill-opacity="0.3" stroke="#999999" stroke-width="1" x1="70" x2="1070" y1="570" y2="570" /><line fill-opacity="0.3" stroke="#999999" stroke-width="1" x1="470" x2="470" y1="1070" y2="70" /><line fill-opacity="0.3" stroke="#999999" stroke-width="1" x1="70" x2="1070" y1="670" y2="670" /><line fill-opacity="0.3" stroke="#999999" stroke-width="1" x1="370" x2="370" y1="1070" y2="70" /><line fill-opacity="0.3" stroke="#999999" stroke-width="1" x1="70" x2="1070" y1="770" y2="770" /><line fill-opacity="0.3" stroke="#999999" stroke-width="1" x1="270" x2="270" y1="1070" y2="70" /><line fill-opacity="0.3" stroke="#999999" stroke-width="1" x1="70" x2="1070" y1="870" y2="870" /><line fill-opacity="0.3" stroke="#999999" stroke-width="1" x1="170" x2="170" y1="1070" y2="70" /><line fill-opacity="0.3" stroke="#999999" stroke-width="1" x1="70" x2="1070" y1="970" y2="970" /><line fill-opacity="0.3" stroke="#000000" stroke-width="1" x1="70" x2="70" y1="1071" y2="69" /><line fill-opacity="0.3" stroke="#000000" stroke-width="1" x1="69" x2="1071" y1="1070" y2="1070" /></g><g class="textos"><text x="1050" y="1110">1000</text><text x="10" y="71">1000</text><text x="950" y="1110">900</text><text x="10" y="171">900</text><text x="850" y="1110">800</text><text x="10" y="271">800</text><text x="750" y="1110">700</text><text x="10" y="371">700</text><text x="650" y="1110">600</text><text x="10" y="471">600</text><text x="550" y="1110">500</text><text x="10" y="571">500</text><text x="450" y="1110">400</text><text x="10" y="671">400</text><text x="350" y="1110">300</text><text x="10" y="771">300</text><text x="250" y="1110">200</text><text x="10" y="871">200</text><text x="150" y="1110">100</text><text x="10" y="971">100</text><text x="50" y="1111">0</text><text x="9" y="1071">0</text></g><g class="especies"><g class="e0"><circle cx="852" cy="1067" fill="#3cb44B" r="3.5" stroke-width="0" /><circle cx="881" cy="1062" fill="#3cb44B" r="3.5" stroke-width="0" /><circle cx="874" cy="1042" fill="#3cb44B" r="3.5" stroke-width="0" /><circle cx="857" cy="1033" fill="#3cb44B" r="3.5" stroke-width="0" /><circle cx="899" cy="984" fill="#3cb44B" r="3.5" stroke-width="0" /><circle cx="922" cy="980" fill="#3cb44B" r="3.5" stroke-width="0" /></g><g class="e1"><circle cx="740" cy="1060" fill="#ff0000" r="3.5" stroke-width="0" /><circle cx="765" cy="1016" fill="#ff0000" r="3.5" stroke-width="0" /><circle cx="824" cy="1011" fill="#ff0000" r="3.5" stroke-width="0" /><circle cx="823" cy="1010" fill="#ff0000" r="3.5" stroke-width="0" /><circle cx="798" cy="1007" fill="#ff0000" r="3.5" stroke-width="0" /><circle cx="704" cy="1005" fill="#ff0000" r="3.5" stroke-width="0" /><circle cx="855" cy="998" fill="#ff0000" r="3.5" stroke-width="0" /><circle cx="815" cy="990" fill="#ff0000" r="3.5" stroke-width="0" /><circle cx="795" cy="986" fill="#ff0000" r="3.5" stroke-width="0" /><circle cx="802" cy="983" fill="#ff0000" r="3.5" stroke-width="0" /><circle cx="841" cy="978" fill="#ff0000" r="3.5" stroke-width="0" /><circle cx="820" cy="973" fill="#ff0000" r="3.5" stroke-width="0" /><circle cx="799" cy="962" fill="#ff0000" r="3.5" stroke-width="0" /><circle cx="844" cy="960" fill="#ff0000" r="3.5" stroke-width="0" /><circle cx="789" cy="946" fill="#ff0000" r="3.5" stroke-width="0" /><circle cx="775" cy="941" fill="#ff0000" r="3.5" stroke-width="0" /><circle cx="764" cy="940" fill="#ff0000" r="3.5" stroke-width="0" /><circle cx="783" cy="933" fill="#ff0000" r="3.5" stroke-width="0" /><circle cx="739" cy="932" fill="#ff0000" r="3.5" stroke-width="0" /><circle cx="861" cy="929" fill="#ff0000" r="3.5" stroke-width="0" /><circle cx="796" cy="922" fill="#ff0000" r="3.5" stroke-width="0" /><circle cx="767" cy="919" fill="#ff0000" r="3.5" stroke-width="0" /><circle cx="758" cy="918" fill="#ff0000" r="3.5" stroke-width="0" /><circle cx="893" cy="904" fill="#ff0000" r="3.5" stroke-width="0" /><circle cx="910" cy="903" fill="#ff0000" r="3.5" stroke-width="0" /><circle cx="752" cy="901" fill="#ff0000" r="3.5" stroke-width="0" /><circle cx="832" cy="896" fill="#ff0000" r="3.5" stroke-width="0" /><circle cx="774" cy="892" fill="#ff0000" r="3.5" stroke-width="0" /><circle cx="819" cy="891" fill="#ff0000" r="3.5" stroke-width="0" /><circle cx="875" cy="891" fill="#ff0000" r="3.5" stroke-width="0" /><circle cx="774" cy="883" fill="#ff0000" r="3.5" stroke-width="0" /><circle cx="834" cy="882" fill="#ff0000" r="3.5" stroke-width="0" /><circle cx="776" cy="877" fill="#ff0000" r="3.5" stroke-width="0" /><circle cx="854" cy="877" fill="#ff0000" r="3.5" stroke-width="0" /><circle cx="761" cy="873" fill="#ff0000" r="3.5" stroke-width="0" /><circle cx="799" cy="870" fill="#ff0000" r="3.5" stroke-width="0" /><circle cx="808" cy="865" fill="#ff0000" r="3.5" stroke-width="0" /><circle cx="818" cy="863" fill="#ff0000" r="3.5" stroke-width="0" /><circle cx="807" cy="856" fill="#ff0000" r="3.5" stroke-width="0" /><circle cx="813" cy="850" fill="#ff0000" r="3.5" stroke-width="0" /><circle cx="743" cy="849" fill="#ff0000" r="3.5" stroke-width="0" /><circle cx="852" cy="849" fill="#ff0000" r="3.5" stroke-width="0" /><circle cx="873" cy="847" fill="#ff0000" r="3.5" stroke-width="0" /><circle cx="816" cy="844" fill="#ff0000" r="3.5" stroke-width="0" /><circle cx="754" cy="839" fill="#ff0000" r="3.5" stroke-width="0" /><circle cx="791" cy="839" fill="#ff0000" r="3.5" stroke-width="0" /><circle cx="764" cy="835" fill="#ff0000" r="3.5" stroke-width="0" /><circle cx="908" cy="835" fill="#ff0000" r="3.5" stroke-width="0" /><circle cx="840" cy="832" fill="#ff0000" r="3.5" stroke-width="0" /><circle cx="882" cy="829" fill="#ff0000" r="3.5" stroke-width="0" /><circle cx="836" cy="815" fill="#ff0000" r="3.5" stroke-width="0" /><circle cx="850" cy="815" fill="#ff0000" r="3.5" stroke-width="0" /><circle cx="784" cy="813" fill="#ff0000" r="3.5" stroke-width="0" /><circle cx="844" cy="809" fill="#ff0000" r="3.5" stroke-width="0" /><circle cx="829" cy="807" fill="#ff0000" r="3.5" stroke-width="0" /><circle cx="825" cy="798" fill="#ff0000" r="3.5" stroke-width="0" /><circle cx="834" cy="797" fill="#ff0000" r="3.5" stroke-width="0" /><circle cx="828" cy="792" fill="#ff0000" r="3.5" stroke-width="0" /><circle cx="792" cy="789" fill="#ff0000" r="3.5" stroke-width="0" /><circle cx="858" cy="787" fill="#ff0000" r="3.5" stroke-width="0" /><circle cx="839" cy="786" fill="#ff0000" r="3.5" stroke-width="0" /><circle cx="823" cy="785" fill="#ff0000" r="3.5" stroke-width="0" /><circle cx="809" cy="779" fill="#ff0000" r="3.5" stroke-width="0" /><circle cx="822" cy="777" fill="#ff0000" r="3.5" stroke-width="0" /><circle cx="809" cy="774" fill="#ff0000" r="3.5" stroke-width="0" /><circle cx="948" cy="771" fill="#ff0000" r="3.5" stroke-width="0" /><circle cx="831" cy="770" fill="#ff0000" r="3.5" stroke-width="0" /><circle cx="856" cy="770" fill="#ff0000" r="3.5" stroke-width="0" /><circle cx="824" cy="769" fill="#ff0000" r="3.5" stroke-width="0" /><circle cx="813" cy="765" fill="#ff0000" r="3.5" stroke-width="0" /><circle cx="934" cy="762" fill="#ff0000" r="3.5" stroke-width="0" /><circle cx="862" cy="748" fill="#ff0000" r="3.5" stroke-width="0" /><circle cx="856" cy="743" fill="#ff0000" r="3.5" stroke-width="0" /><circle cx="845" cy="740" fill="#ff0000" r="3.5" stroke-width="0" /><circle cx="844" cy="736" fill="#ff0000" r="3.5" stroke-width="0" /><circle cx="873" cy="713" fill="#ff0000" r="3.5" stroke-width="0" /><circle cx="863" cy="712" fill="#ff0000" r="3.5" stroke-width="0" /><circle cx="892" cy="704" fill="#ff0000" r="3.5" stroke-width="0" /><circle cx="889" cy="701" fill="#ff0000" r="3.5" stroke-width="0" /><circle cx="946" cy="687" fill="#ff0000" r="3.5" stroke-width="0" /><circle cx="919" cy="683" fill="#ff0000" r="3.5" stroke-width="0" /><circle cx="898" cy="675" fill="#ff0000" r="3.5" stroke-width="0" /></g><g class="e2"><circle cx="304" cy="1065" fill="#2b92db" r="3.5" stroke-width="0" /><circle cx="289" cy="1064" fill="#2b92db" r="3.5" stroke-width="0" /><circle cx="289" cy="1063" fill="#2b92db" r="3.5" stroke-width="0" /><circle cx="347" cy="1055" fill="#2b92db" r="3.5" stroke-width="0" /><circle cx="325" cy="1031" fill="#2b92db" r="3.5" stroke-width="0" /><circle cx="348" cy="1018" fill="#2b92db" r="3.5" stroke-width="0" /><circle cx="287" cy="1015" fill="#2b92db" r="3.5" stroke-width="0" /><circle cx="305" cy="1015" fill="#2b92db" r="3.5" stroke-width="0" /><circle cx="286" cy="1011" fill="#2b92db" r="3.5" stroke-width="0" /><circle cx="399" cy="1008" fill="#2b92db" r="3.5" stroke-width="0" /><circle cx="326" cy="1007" fill="#2b92db" r="3.5" stroke-width="0" /><circle cx="333" cy="998" fill="#2b92db" r="3.5" stroke-width="0" /><circle cx="297" cy="990" fill="#2b92db" r="3.5" stroke-width="0" /><circle cx="326" cy="988" fill="#2b92db" r="3.5" stroke-width="0" /><circle cx="336" cy="987" fill="#2b92db" r="3.5" stroke-width="0" /><circle cx="360" cy="986" fill="#2b92db" r="3.5" stroke-width="0" /><circle cx="338" cy="978" fill="#2b92db" r="3.5" stroke-width="0" /><circle cx="356" cy="966" fill="#2b92db" r="3.5" stroke-width="0" /><circle cx="365" cy="946" fill="#2b92db" r="3.5" stroke-width="0" /><circle cx="343" cy="945" fill="#2b92db" r="3.5" stroke-width="0" /><circle cx="701" cy="842" fill="#2b92db" r="3.5" stroke-width="0" /><circle cx="741" cy="801" fill="#2b92db" r="3.5" stroke-width="0" /><circle cx="793" cy="771" fill="#2b92db" r="3.5" stroke-width="0" /><circle cx="798" cy="766" fill="#2b92db" r="3.5" stroke-width="0" /><circle cx="785" cy="749" fill="#2b92db" r="3.5" stroke-width="0" /><circle cx="749" cy="745" fill="#2b92db" r="3.5" stroke-width="0" /><circle cx="779" cy="745" fill="#2b92db" r="3.5" stroke-width="0" /><circle cx="772" cy="740" fill="#2b92db" r="3.5" stroke-width="0" /><circle cx="790" cy="720" fill="#2b92db" r="3.5" stroke-width="0" /><circle cx="786" cy="718" fill="#2b92db" r="3.5" stroke-width="0" /><circle cx="706" cy="716" fill="#2b92db" r="3.5" stroke-width="0" /><circle cx="815" cy="715" fill="#2b92db" r="3.5" stroke-width="0" /><circle cx="839" cy="715" fill="#2b92db" r="3.5" stroke-width="0" /><circle cx="853" cy="709" fill="#2b92db" r="3.5" stroke-width="0" /><circle cx="777" cy="700" fill="#2b92db" r="3.5" stroke-width="0" /><circle cx="781" cy="697" fill="#2b92db" r="3.5" stroke-width="0" /><circle cx="816" cy="693" fill="#2b92db" r="3.5" stroke-width="0" /><circle cx="813" cy="690" fill="#2b92db" r="3.5" stroke-width="0" /><circle cx="841" cy="689" fill="#2b92db" r="3.5" stroke-width="0" /><circle cx="852" cy="688" fill="#2b92db" r="3.5" stroke-width="0" /><circle cx="827" cy="687" fill="#2b92db" r="3.5" stroke-width="0" /><circle cx="770" cy="683" fill="#2b92db" r="3.5" stroke-width="0" /><circle cx="799" cy="680" fill="#2b92db" r="3.5" stroke-width="0" /><circle cx="833" cy="679" fill="#2b92db" r="3.5" stroke-width="0" /><circle cx="789" cy="675" fill="#2b92db" r="3.5" stroke-width="0" /><circle cx="798" cy="673" fill="#2b92db" r="3.5" stroke-width="0" /><circle cx="806" cy="672" fill="#2b92db" r="3.5" stroke-width="0" /><circle cx="850" cy="672" fill="#2b92db" r="3.5" stroke-width="0" /><circle cx="834" cy="670" fill="#2b92db" r="3.5" stroke-width="0" /><circle cx="818" cy="666" fill="#2b92db" r="3.5" stroke-width="0" /><circle cx="820" cy="664" fill="#2b92db" r="3.5" stroke-width="0" /><circle cx="746" cy="661" fill="#2b92db" r="3.5" stroke-width="0" /><circle cx="864" cy="661" fill="#2b92db" r="3.5" stroke-width="0" /><circle cx="833" cy="659" fill="#2b92db" r="3.5" stroke-width="0" /><circle cx="776" cy="654" fill="#2b92db" r="3.5" stroke-width="0" /><circle cx="801" cy="648" fill="#2b92db" r="3.5" stroke-width="0" /><circle cx="777" cy="646" fill="#2b92db" r="3.5" stroke-width="0" /><circle cx="817" cy="646" fill="#2b92db" r="3.5" stroke-width="0" /><circle cx="882" cy="643" fill="#2b92db" r="3.5" stroke-width="0" /><circle cx="819" cy="640" fill="#2b92db" r="3.5" stroke-width="0" /><circle cx="842" cy="639" fill="#2b92db" r="3.5" stroke-width="0" /><circle cx="765" cy="638" fill="#2b92db" r="3.5" stroke-width="0" /><circle cx="842" cy="638" fill="#2b92db" r="3.5" stroke-width="0" /><circle cx="785" cy="636" fill="#2b92db" r="3.5" stroke-width="0" /><circle cx="776" cy="635" fill="#2b92db" r="3.5" stroke-width="0" /><circle cx="787" cy="630" fill="#2b92db" r="3.5" stroke-width="0" /><circle cx="848" cy="625" fill="#2b92db" r="3.5" stroke-width="0" /><circle cx="861" cy="624" fill="#2b92db" r="3.5" stroke-width="0" /><circle cx="811" cy="622" fill="#2b92db" r="3.5" stroke-width="0" /><circle cx="788" cy="620" fill="#2b92db" r="3.5" stroke-width="0" /><circle cx="857" cy="620" fill="#2b92db" r="3.5" stroke-width="0" /><circle cx="711" cy="612" fill="#2b92db" r="3.5" stroke-width="0" /><circle cx="829" cy="607" fill="#2b92db" r="3.5" stroke-width="0" /><circle cx="832" cy="607" fill="#2b92db" r="3.5" stroke-width="0" /><circle cx="837" cy="606" fill="#2b92db" r="3.5" stroke-width="0" /><circle cx="842" cy="606" fill="#2b92db" r="3.5" stroke-width="0" /><circle cx="801" cy="600" fill="#2b92db" r="3.5" stroke-width="0" /><circle cx="834" cy="600" fill="#2b92db" r="3.5" stroke-width="0" /><circle cx="834" cy="599" fill="#2b92db" r="3.5" stroke-width="0" /><circle cx="843" cy="596" fill="#2b92db" r="3.5" stroke-width="0" /><circle cx="845" cy="594" fill="#2b92db" r="3.5" stroke-width="0" /><circle cx="838" cy="589" fill="#2b92db" r="3.5" stroke-width="0" /><circle cx="851" cy="577" fill="#2b92db" r="3.5" stroke-width="0" /><circle cx="842" cy="570" fill="#2b92db" r="3.5" stroke-width="0" /><circle cx="775" cy="568" fill="#2b92db" r="3.5" stroke-width="0" /><circle cx="824" cy="568" fill="#2b92db" r="3.5" stroke-width="0" /><circle cx="764" cy="567" fill="#2b92db" r="3.5" stroke-width="0" /><circle cx="813" cy="562" fill="#2b92db" r="3.5" stroke-width="0" /><circle cx="825" cy="556" fill="#2b92db" r="3.5" stroke-width="0" /><circle cx="860" cy="554" fill="#2b92db" r="3.5" stroke-width="0" /><circle cx="747" cy="551" fill="#2b92db" r="3.5" stroke-width="0" /><circle cx="880" cy="550" fill="#2b92db" r="3.5" stroke-width="0" /><circle cx="841" cy="545" fill="#2b92db" r="3.5" stroke-width="0" /><circle cx="869" cy="543" fill="#2b92db" r="3.5" stroke-width="0" /><circle cx="855" cy="539" fill="#2b92db" r="3.5" stroke-width="0" /><circle cx="835" cy="536" fill="#2b92db" r="3.5" stroke-width="0" /><circle cx="773" cy="535" fill="#2b92db" r="3.5" stroke-width="0" /><circle cx="789" cy="535" fill="#2b92db" r="3.5" stroke-width="0" /><circle cx="879" cy="534" fill="#2b92db" r="3.5" stroke-width="0" /><circle cx="757" cy="531" fill="#2b92db" r="3.5" stroke-width="0" /><circle cx="820" cy="531" fill="#2b92db" r="3.5" stroke-width="0" /><circle cx="890" cy="525" fill="#2b92db" r="3.5" stroke-width="0" /><circle cx="779" cy="515" fill="#2b92db" r="3.5" stroke-width="0" /><circle cx="812" cy="512" fill="#2b92db" r="3.5" stroke-width="0" /><circle cx="812" cy="511" fill="#2b92db" r="3.5" stroke-width="0" /><circle cx="895" cy="506" fill="#2b92db" r="3.5" stroke-width="0" /><circle cx="819" cy="502" fill="#2b92db" r="3.5" stroke-width="0" /><circle cx="919" cy="501" fill="#2b92db" r="3.5" stroke-width="0" /><circle cx="797" cy="492" fill="#2b92db" r="3.5" stroke-width="0" /><circle cx="896" cy="480" fill="#2b92db" r="3.5" stroke-width="0" /><circle cx="852" cy="479" fill="#2b92db" r="3.5" stroke-width="0" /><circle cx="833" cy="478" fill="#2b92db" r="3.5" stroke-width="0" /><circle cx="816" cy="477" fill="#2b92db" r="3.5" stroke-width="0" /><circle cx="867" cy="476" fill="#2b92db" r="3.5" stroke-width="0" /><circle cx="869" cy="473" fill="#2b92db" r="3.5" stroke-width="0" /><circle cx="827" cy="469" fill="#2b92db" r="3.5" stroke-width="0" /><circle cx="839" cy="468" fill="#2b92db" r="3.5" stroke-width="0" /><circle cx="863" cy="462" fill="#2b92db" r="3.5" stroke-width="0" /><circle cx="882" cy="456" fill="#2b92db" r="3.5" stroke-width="0" /><circle cx="925" cy="454" fill="#2b92db" r="3.5" stroke-width="0" /><circle cx="900" cy="450" fill="#2b92db" r="3.5" stroke-width="0" /><circle cx="853" cy="431" fill="#2b92db" r="3.5" stroke-width="0" /><circle cx="911" cy="423" fill="#2b92db" r="3.5" stroke-width="0" /><circle cx="894" cy="410" fill="#2b92db" r="3.5" stroke-width="0" /><circle cx="936" cy="386" fill="#2b92db" r="3.5" stroke-width="0" /><circle cx="928" cy="367" fill="#2b92db" r="3.5" stroke-width="0" /></g><g class="e3"><circle cx="244" cy="983" fill="#911eb4" r="3.5" stroke-width="0" /><circle cx="302" cy="979" fill="#911eb4" r="3.5" stroke-width="0" /><circle cx="262" cy="977" fill="#911eb4" r="3.5" stroke-width="0" /><circle cx="307" cy="967" fill="#911eb4" r="3.5" stroke-width="0" /><circle cx="306" cy="965" fill="#911eb4" r="3.5" stroke-width="0" /><circle cx="303" cy="962" fill="#911eb4" r="3.5" stroke-width="0" /><circle cx="320" cy="958" fill="#911eb4" r="3.5" stroke-width="0" /><circle cx="184" cy="957" fill="#911eb4" r="3.5" stroke-width="0" /><circle cx="272" cy="950" fill="#911eb4" r="3.5" stroke-width="0" /><circle cx="289" cy="950" fill="#911eb4" r="3.5" stroke-width="0" /><circle cx="258" cy="945" fill="#911eb4" r="3.5" stroke-width="0" /><circle cx="307" cy="945" fill="#911eb4" r="3.5" stroke-width="0" /><circle cx="271" cy="933" fill="#911eb4" r="3.5" stroke-width="0" /><circle cx="353" cy="919" fill="#911eb4" r="3.5" stroke-width="0" /><circle cx="295" cy="908" fill="#911eb4" r="3.5" stroke-width="0" /><circle cx="338" cy="900" fill="#911eb4" r="3.5" stroke-width="0" /><circle cx="377" cy="897" fill="#911eb4" r="3.5" stroke-width="0" /><circle cx="293" cy="885" fill="#911eb4" r="3.5" stroke-width="0" /><circle cx="282" cy="883" fill="#911eb4" r="3.5" stroke-width="0" /><circle cx="344" cy="881" fill="#911eb4" r="3.5" stroke-width="0" /><circle cx="330" cy="876" fill="#911eb4" r="3.5" stroke-width="0" /><circle cx="337" cy="873" fill="#911eb4" r="3.5" stroke-width="0" /><circle cx="230" cy="872" fill="#911eb4" r="3.5" stroke-width="0" /><circle cx="384" cy="872" fill="#911eb4" r="3.5" stroke-width="0" /><circle cx="325" cy="870" fill="#911eb4" r="3.5" stroke-width="0" /><circle cx="239" cy="861" fill="#911eb4" r="3.5" stroke-width="0" /><circle cx="236" cy="859" fill="#911eb4" r="3.5" stroke-width="0" /><circle cx="293" cy="853" fill="#911eb4" r="3.5" stroke-width="0" /><circle cx="394" cy="852" fill="#911eb4" r="3.5" stroke-width="0" /><circle cx="409" cy="848" fill="#911eb4" r="3.5" stroke-width="0" /><circle cx="300" cy="843" fill="#911eb4" r="3.5" stroke-width="0" /><circle cx="404" cy="842" fill="#911eb4" r="3.5" stroke-width="0" /><circle cx="287" cy="835" fill="#911eb4" r="3.5" stroke-width="0" /><circle cx="319" cy="835" fill="#911eb4" r="3.5" stroke-width="0" /><circle cx="324" cy="834" fill="#911eb4" r="3.5" stroke-width="0" /><circle cx="326" cy="833" fill="#911eb4" r="3.5" stroke-width="0" /><circle cx="323" cy="825" fill="#911eb4" r="3.5" stroke-width="0" /><circle cx="268" cy="822" fill="#911eb4" r="3.5" stroke-width="0" /><circle cx="314" cy="821" fill="#911eb4" r="3.5" stroke-width="0" /><circle cx="342" cy="819" fill="#911eb4" r="3.5" stroke-width="0" /><circle cx="250" cy="815" fill="#911eb4" r="3.5" stroke-width="0" /><circle cx="277" cy="814" fill="#911eb4" r="3.5" stroke-width="0" /><circle cx="322" cy="814" fill="#911eb4" r="3.5" stroke-width="0" /><circle cx="265" cy="810" fill="#911eb4" r="3.5" stroke-width="0" /><circle cx="385" cy="806" fill="#911eb4" r="3.5" stroke-width="0" /><circle cx="367" cy="805" fill="#911eb4" r="3.5" stroke-width="0" /><circle cx="293" cy="804" fill="#911eb4" r="3.5" stroke-width="0" /><circle cx="338" cy="804" fill="#911eb4" r="3.5" stroke-width="0" /><circle cx="306" cy="802" fill="#911eb4" r="3.5" stroke-width="0" /><circle cx="299" cy="797" fill="#911eb4" r="3.5" stroke-width="0" /><circle cx="294" cy="795" fill="#911eb4" r="3.5" stroke-width="0" /><circle cx="249" cy="793" fill="#911eb4" r="3.5" stroke-width="0" /><circle cx="335" cy="785" fill="#911eb4" r="3.5" stroke-width="0" /><circle cx="322" cy="784" fill="#911eb4" r="3.5" stroke-width="0" /><circle cx="311" cy="782" fill="#911eb4" r="3.5" stroke-width="0" /><circle cx="367" cy="773" fill="#911eb4" r="3.5" stroke-width="0" /><circle cx="311" cy="771" fill="#911eb4" r="3.5" stroke-width="0" /><circle cx="291" cy="764" fill="#911eb4" r="3.5" stroke-width="0" /><circle cx="412" cy="763" fill="#911eb4" r="3.5" stroke-width="0" /><circle cx="283" cy="755" fill="#911eb4" r="3.5" stroke-width="0" /><circle cx="303" cy="753" fill="#911eb4" r="3.5" stroke-width="0" /><circle cx="377" cy="751" fill="#911eb4" r="3.5" stroke-width="0" /><circle cx="393" cy="748" fill="#911eb4" r="3.5" stroke-width="0" /><circle cx="345" cy="740" fill="#911eb4" r="3.5" stroke-width="0" /><circle cx="321" cy="735" fill="#911eb4" r="3.5" stroke-width="0" /><circle cx="295" cy="734" fill="#911eb4" r="3.5" stroke-width="0" /><circle cx="395" cy="724" fill="#911eb4" r="3.5" stroke-width="0" /><circle cx="363" cy="713" fill="#911eb4" r="3.5" stroke-width="0" /><circle cx="326" cy="712" fill="#911eb4" r="3.5" stroke-width="0" /><circle cx="301" cy="703" fill="#911eb4" r="3.5" stroke-width="0" /><circle cx="352" cy="702" fill="#911eb4" r="3.5" stroke-width="0" /><circle cx="369" cy="702" fill="#911eb4" r="3.5" stroke-width="0" /><circle cx="386" cy="699" fill="#911eb4" r="3.5" stroke-width="0" /><circle cx="310" cy="696" fill="#911eb4" r="3.5" stroke-width="0" /><circle cx="394" cy="694" fill="#911eb4" r="3.5" stroke-width="0" /><circle cx="337" cy="689" fill="#911eb4" r="3.5" stroke-width="0" /><circle cx="364" cy="688" fill="#911eb4" r="3.5" stroke-width="0" /><circle cx="344" cy="680" fill="#911eb4" r="3.5" stroke-width="0" /><circle cx="365" cy="672" fill="#911eb4" r="3.5" stroke-width="0" /><circle cx="357" cy="667" fill="#911eb4" r="3.5" stroke-width="0" /><circle cx="393" cy="651" fill="#911eb4" r="3.5" stroke-width="0" /><circle cx="429" cy="636" fill="#911eb4" r="3.5" stroke-width="0" /><circle cx="406" cy="600" fill="#911eb4" r="3.5" stroke-width="0" /><circle cx="758" cy="490" fill="#911eb4" r="3.5" stroke-width="0" /><circle cx="737" cy="476" fill="#911eb4" r="3.5" stroke-width="0" /><circle cx="702" cy="473" fill="#911eb4" r="3.5" stroke-width="0" /><circle cx="799" cy="466" fill="#911eb4" r="3.5" stroke-width="0" /><circle cx="785" cy="465" fill="#911eb4" r="3.5" stroke-width="0" /><circle cx="780" cy="462" fill="#911eb4" r="3.5" stroke-width="0" /><circle cx="778" cy="453" fill="#911eb4" r="3.5" stroke-width="0" /><circle cx="828" cy="450" fill="#911eb4" r="3.5" stroke-width="0" /><circle cx="731" cy="446" fill="#911eb4" r="3.5" stroke-width="0" /><circle cx="794" cy="435" fill="#911eb4" r="3.5" stroke-width="0" /><circle cx="819" cy="433" fill="#911eb4" r="3.5" stroke-width="0" /><circle cx="814" cy="432" fill="#911eb4" r="3.5" stroke-width="0" /><circle cx="738" cy="418" fill="#911eb4" r="3.5" stroke-width="0" /><circle cx="867" cy="407" fill="#911eb4" r="3.5" stroke-width="0" /><circle cx="808" cy="405" fill="#911eb4" r="3.5" stroke-width="0" /><circle cx="763" cy="397" fill="#911eb4" r="3.5" stroke-width="0" /><circle cx="814" cy="386" fill="#911eb4" r="3.5" stroke-width="0" /><circle cx="832" cy="385" fill="#911eb4" r="3.5" stroke-width="0" /><circle cx="753" cy="377" fill="#911eb4" r="3.5" stroke-width="0" /><circle cx="844" cy="375" fill="#911eb4" r="3.5" stroke-width="0" /><circle cx="800" cy="374" fill="#911eb4" r="3.5" stroke-width="0" /><circle cx="825" cy="374" fill="#911eb4" r="3.5" stroke-width="0" /><circle cx="768" cy="370" fill="#911eb4" r="3.5" stroke-width="0" /><circle cx="757" cy="369" fill="#911eb4" r="3.5" stroke-width="0" /><circle cx="811" cy="364" fill="#911eb4" r="3.5" stroke-width="0" /><circle cx="823" cy="363" fill="#911eb4" r="3.5" stroke-width="0" /><circle cx="767" cy="361" fill="#911eb4" r="3.5" stroke-width="0" /><circle cx="715" cy="356" fill="#911eb4" r="3.5" stroke-width="0" /><circle cx="796" cy="354" fill="#911eb4" r="3.5" stroke-width="0" /><circle cx="846" cy="347" fill="#911eb4" r="3.5" stroke-width="0" /><circle cx="836" cy="346" fill="#911eb4" r="3.5" stroke-width="0" /><circle cx="905" cy="342" fill="#911eb4" r="3.5" stroke-width="0" /><circle cx="746" cy="341" fill="#911eb4" r="3.5" stroke-width="0" /><circle cx="856" cy="341" fill="#911eb4" r="3.5" stroke-width="0" /><circle cx="812" cy="338" fill="#911eb4" r="3.5" stroke-width="0" /><circle cx="904" cy="332" fill="#911eb4" r="3.5" stroke-width="0" /><circle cx="744" cy="331" fill="#911eb4" r="3.5" stroke-width="0" /><circle cx="893" cy="329" fill="#911eb4" r="3.5" stroke-width="0" /><circle cx="795" cy="326" fill="#911eb4" r="3.5" stroke-width="0" /><circle cx="790" cy="325" fill="#911eb4" r="3.5" stroke-width="0" /><circle cx="872" cy="322" fill="#911eb4" r="3.5" stroke-width="0" /><circle cx="834" cy="318" fill="#911eb4" r="3.5" stroke-width="0" /><circle cx="748" cy="317" fill="#911eb4" r="3.5" stroke-width="0" /><circle cx="771" cy="315" fill="#911eb4" r="3.5" stroke-width="0" /><circle cx="856" cy="314" fill="#911eb4" r="3.5" stroke-width="0" /><circle cx="872" cy="314" fill="#911eb4" r="3.5" stroke-width="0" /><circle cx="822" cy="311" fill="#911eb4" r="3.5" stroke-width="0" /><circle cx="759" cy="308" fill="#911eb4" r="3.5" stroke-width="0" /><circle cx="786" cy="302" fill="#911eb4" r="3.5" stroke-width="0" /><circle cx="827" cy="300" fill="#911eb4" r="3.5" stroke-width="0" /><circle cx="710" cy="299" fill="#911eb4" r="3.5" stroke-width="0" /><circle cx="756" cy="299" fill="#911eb4" r="3.5" stroke-width="0" /><circle cx="794" cy="298" fill="#911eb4" r="3.5" stroke-width="0" /><circle cx="800" cy="298" fill="#911eb4" r="3.5" stroke-width="0" /><circle cx="751" cy="284" fill="#911eb4" r="3.5" stroke-width="0" /><circle cx="907" cy="280" fill="#911eb4" r="3.5" stroke-width="0" /><circle cx="770" cy="277" fill="#911eb4" r="3.5" stroke-width="0" /><circle cx="740" cy="268" fill="#911eb4" r="3.5" stroke-width="0" /><circle cx="860" cy="268" fill="#911eb4" r="3.5" stroke-width="0" /><circle cx="767" cy="265" fill="#911eb4" r="3.5" stroke-width="0" /><circle cx="764" cy="263" fill="#911eb4" r="3.5" stroke-width="0" /><circle cx="851" cy="262" fill="#911eb4" r="3.5" stroke-width="0" /><circle cx="810" cy="260" fill="#911eb4" r="3.5" stroke-width="0" /><circle cx="778" cy="251" fill="#911eb4" r="3.5" stroke-width="0" /><circle cx="750" cy="248" fill="#911eb4" r="3.5" stroke-width="0" /><circle cx="815" cy="248" fill="#911eb4" r="3.5" stroke-width="0" /><circle cx="851" cy="240" fill="#911eb4" r="3.5" stroke-width="0" /><circle cx="807" cy="239" fill="#911eb4" r="3.5" stroke-width="0" /><circle cx="815" cy="229" fill="#911eb4" r="3.5" stroke-width="0" /><circle cx="807" cy="224" fill="#911eb4" r="3.5" stroke-width="0" /><circle cx="817" cy="224" fill="#911eb4" r="3.5" stroke-width="0" /><circle cx="781" cy="220" fill="#911eb4" r="3.5" stroke-width="0" /><circle cx="885" cy="215" fill="#911eb4" r="3.5" stroke-width="0" /><circle cx="864" cy="214" fill="#911eb4" r="3.5" stroke-width="0" /><circle cx="912" cy="209" fill="#911eb4" r="3.5" stroke-width="0" /><circle cx="878" cy="207" fill="#911eb4" r="3.5" stroke-width="0" /><circle cx="793" cy="206" fill="#911eb4" r="3.5" stroke-width="0" /><circle cx="799" cy="199" fill="#911eb4" r="3.5" stroke-width="0" /><circle cx="815" cy="196" fill="#911eb4" r="3.5" stroke-width="0" /><circle cx="813" cy="194" fill="#911eb4" r="3.5" stroke-width="0" /><circle cx="832" cy="194" fill="#911eb4" r="3.5" stroke-width="0" /><circle cx="850" cy="185" fill="#911eb4" r="3.5" stroke-width="0" /><circle cx="867" cy="164" fill="#911eb4" r="3.5" stroke-width="0" /><circle cx="887" cy="151" fill="#911eb4" r="3.5" stroke-width="0" /><circle cx="876" cy="146" fill="#911eb4" r="3.5" stroke-width="0" /><circle cx="880" cy="135" fill="#911eb4" r="3.5" stroke-width="0" /><circle cx="873" cy="126" fill="#911eb4" r="3.5" stroke-width="0" /><circle cx="902" cy="121" fill="#911eb4" r="3.5" stroke-width="0" /><circle cx="904" cy="104" fill="#911eb4" r="3.5" stroke-width="0" /><circle cx="899" cy="102" fill="#911eb4" r="3.5" stroke-width="0" /></g><g class="e4"><circle cx="225" cy="738" fill="#3cb44B" r="3.5" stroke-width="0" /><circle cx="259" cy="717" fill="#3cb44B" r="3.5" stroke-width="0" /><circle cx="226" cy="711" fill="#3cb44B" r="3.5" stroke-width="0" /><circle cx="263" cy="696" fill="#3cb44B" r="3.5" stroke-width="0" /><circle cx="282" cy="693" fill="#3cb44B" r="3.5" stroke-width="0" /><circle cx="302" cy="693" fill="#3cb44B" r="3.5" stroke-width="0" /><circle cx="292" cy="690" fill="#3cb44B" r="3.5" stroke-width="0" /><circle cx="209" cy="688" fill="#3cb44B" r="3.5" stroke-width="0" /><circle cx="278" cy="687" fill="#3cb44B" r="3.5" stroke-width="0" /><circle cx="270" cy="673" fill="#3cb44B" r="3.5" stroke-width="0" /><circle cx="296" cy="671" fill="#3cb44B" r="3.5" stroke-width="0" /><circle cx="297" cy="670" fill="#3cb44B" r="3.5" stroke-width="0" /><circle cx="319" cy="666" fill="#3cb44B" r="3.5" stroke-width="0" /><circle cx="291" cy="665" fill="#3cb44B" r="3.5" stroke-width="0" /><circle cx="285" cy="662" fill="#3cb44B" r="3.5" stroke-width="0" /><circle cx="269" cy="660" fill="#3cb44B" r="3.5" stroke-width="0" /><circle cx="289" cy="659" fill="#3cb44B" r="3.5" stroke-width="0" /><circle cx="325" cy="658" fill="#3cb44B" r="3.5" stroke-width="0" /><circle cx="322" cy="652" fill="#3cb44B" r="3.5" stroke-width="0" /><circle cx="253" cy="644" fill="#3cb44B" r="3.5" stroke-width="0" /><circle cx="347" cy="644" fill="#3cb44B" r="3.5" stroke-width="0" /><circle cx="318" cy="640" fill="#3cb44B" r="3.5" stroke-width="0" /><circle cx="229" cy="634" fill="#3cb44B" r="3.5" stroke-width="0" /><circle cx="274" cy="629" fill="#3cb44B" r="3.5" stroke-width="0" /><circle cx="326" cy="626" fill="#3cb44B" r="3.5" stroke-width="0" /><circle cx="184" cy="621" fill="#3cb44B" r="3.5" stroke-width="0" /><circle cx="311" cy="610" fill="#3cb44B" r="3.5" stroke-width="0" /><circle cx="240" cy="609" fill="#3cb44B" r="3.5" stroke-width="0" /><circle cx="345" cy="609" fill="#3cb44B" r="3.5" stroke-width="0" /><circle cx="365" cy="608" fill="#3cb44B" r="3.5" stroke-width="0" /><circle cx="305" cy="607" fill="#3cb44B" r="3.5" stroke-width="0" /><circle cx="318" cy="604" fill="#3cb44B" r="3.5" stroke-width="0" /><circle cx="307" cy="603" fill="#3cb44B" r="3.5" stroke-width="0" /><circle cx="316" cy="602" fill="#3cb44B" r="3.5" stroke-width="0" /><circle cx="328" cy="601" fill="#3cb44B" r="3.5" stroke-width="0" /><circle cx="342" cy="598" fill="#3cb44B" r="3.5" stroke-width="0" /><circle cx="313" cy="597" fill="#3cb44B" r="3.5" stroke-width="0" /><circle cx="239" cy="596" fill="#3cb44B" r="3.5" stroke-width="0" /><circle cx="312" cy="595" fill="#3cb44B" r="3.5" stroke-width="0" /><circle cx="254" cy="590" fill="#3cb44B" r="3.5" stroke-width="0" /><circle cx="324" cy="589" fill="#3cb44B" r="3.5" stroke-width="0" /><circle cx="271" cy="585" fill="#3cb44B" r="3.5" stroke-width="0" /><circle cx="302" cy="583" fill="#3cb44B" r="3.5" stroke-width="0" /><circle cx="330" cy="582" fill="#3cb44B" r="3.5" stroke-width="0" /><circle cx="208" cy="577" fill="#3cb44B" r="3.5" stroke-width="0" /><circle cx="320" cy="577" fill="#3cb44B" r="3.5" stroke-width="0" /><circle cx="218" cy="569" fill="#3cb44B" r="3.5" stroke-width="0" /><circle cx="301" cy="567" fill="#3cb44B" r="3.5" stroke-width="0" /><circle cx="332" cy="564" fill="#3cb44B" r="3.5" stroke-width="0" /><circle cx="384" cy="564" fill="#3cb44B" r="3.5" stroke-width="0" /><circle cx="385" cy="558" fill="#3cb44B" r="3.5" stroke-width="0" /><circle cx="321" cy="557" fill="#3cb44B" r="3.5" stroke-width="0" /><circle cx="314" cy="555" fill="#3cb44B" r="3.5" stroke-width="0" /><circle cx="311" cy="551" fill="#3cb44B" r="3.5" stroke-width="0" /><circle cx="325" cy="551" fill="#3cb44B" r="3.5" stroke-width="0" /><circle cx="374" cy="550" fill="#3cb44B" r="3.5" stroke-width="0" /><circle cx="234" cy="549" fill="#3cb44B" r="3.5" stroke-width="0" /><circle cx="287" cy="548" fill="#3cb44B" r="3.5" stroke-width="0" /><circle cx="383" cy="547" fill="#3cb44B" r="3.5" stroke-width="0" /><circle cx="435" cy="545" fill="#3cb44B" r="3.5" stroke-width="0" /><circle cx="345" cy="544" fill="#3cb44B" r="3.5" stroke-width="0" /><circle cx="242" cy="543" fill="#3cb44B" r="3.5" stroke-width="0" /><circle cx="232" cy="542" fill="#3cb44B" r="3.5" stroke-width="0" /><circle cx="332" cy="537" fill="#3cb44B" r="3.5" stroke-width="0" /><circle cx="342" cy="536" fill="#3cb44B" r="3.5" stroke-width="0" /><circle cx="318" cy="533" fill="#3cb44B" r="3.5" stroke-width="0" /><circle cx="293" cy="532" fill="#3cb44B" r="3.5" stroke-width="0" /><circle cx="263" cy="529" fill="#3cb44B" r="3.5" stroke-width="0" /><circle cx="276" cy="526" fill="#3cb44B" r="3.5" stroke-width="0" /><circle cx="362" cy="525" fill="#3cb44B" r="3.5" stroke-width="0" /><circle cx="285" cy="521" fill="#3cb44B" r="3.5" stroke-width="0" /><circle cx="278" cy="516" fill="#3cb44B" r="3.5" stroke-width="0" /><circle cx="317" cy="516" fill="#3cb44B" r="3.5" stroke-width="0" /><circle cx="321" cy="506" fill="#3cb44B" r="3.5" stroke-width="0" /><circle cx="390" cy="506" fill="#3cb44B" r="3.5" stroke-width="0" /><circle cx="332" cy="505" fill="#3cb44B" r="3.5" stroke-width="0" /><circle cx="367" cy="498" fill="#3cb44B" r="3.5" stroke-width="0" /><circle cx="268" cy="495" fill="#3cb44B" r="3.5" stroke-width="0" /><circle cx="363" cy="494" fill="#3cb44B" r="3.5" stroke-width="0" /><circle cx="355" cy="490" fill="#3cb44B" r="3.5" stroke-width="0" /><circle cx="301" cy="486" fill="#3cb44B" r="3.5" stroke-width="0" /><circle cx="262" cy="485" fill="#3cb44B" r="3.5" stroke-width="0" /><circle cx="397" cy="485" fill="#3cb44B" r="3.5" stroke-width="0" /><circle cx="298" cy="476" fill="#3cb44B" r="3.5" stroke-width="0" /><circle cx="296" cy="474" fill="#3cb44B" r="3.5" stroke-width="0" /><circle cx="426" cy="471" fill="#3cb44B" r="3.5" stroke-width="0" /><circle cx="330" cy="467" fill="#3cb44B" r="3.5" stroke-width="0" /><circle cx="347" cy="467" fill="#3cb44B" r="3.5" stroke-width="0" /><circle cx="293" cy="466" fill="#3cb44B" r="3.5" stroke-width="0" /><circle cx="338" cy="466" fill="#3cb44B" r="3.5" stroke-width="0" /><circle cx="325" cy="464" fill="#3cb44B" r="3.5" stroke-width="0" /><circle cx="359" cy="464" fill="#3cb44B" r="3.5" stroke-width="0" /><circle cx="320" cy="461" fill="#3cb44B" r="3.5" stroke-width="0" /><circle cx="260" cy="458" fill="#3cb44B" r="3.5" stroke-width="0" /><circle cx="267" cy="458" fill="#3cb44B" r="3.5" stroke-width="0" /><circle cx="370" cy="456" fill="#3cb44B" r="3.5" stroke-width="0" /><circle cx="335" cy="451" fill="#3cb44B" r="3.5" stroke-width="0" /><circle cx="334" cy="450" fill="#3cb44B" r="3.5" stroke-width="0" /><circle cx="402" cy="447" fill="#3cb44B" r="3.5" stroke-width="0" /><circle cx="292" cy="444" fill="#3cb44B" r="3.5" stroke-width="0" /><circle cx="352" cy="444" fill="#3cb44B" r="3.5" stroke-width="0" /><circle cx="298" cy="428" fill="#3cb44B" r="3.5" stroke-width="0" /><circle cx="379" cy="421" fill="#3cb44B" r="3.5" stroke-width="0" /><circle cx="335" cy="420" fill="#3cb44B" r="3.5" stroke-width="0" /><circle cx="353" cy="420" fill="#3cb44B" r="3.5" stroke-width="0" /><circle cx="313" cy="418" fill="#3cb44B" r="3.5" stroke-width="0" /><circle cx="321" cy="404" fill="#3cb44B" r="3.5" stroke-width="0" /><circle cx="373" cy="403" fill="#3cb44B" r="3.5" stroke-width="0" /><circle cx="367" cy="400" fill="#3cb44B" r="3.5" stroke-width="0" /><circle cx="378" cy="398" fill="#3cb44B" r="3.5" stroke-width="0" /><circle cx="393" cy="397" fill="#3cb44B" r="3.5" stroke-width="0" /><circle cx="336" cy="390" fill="#3cb44B" r="3.5" stroke-width="0" /><circle cx="342" cy="387" fill="#3cb44B" r="3.5" stroke-width="0" /><circle cx="336" cy="382" fill="#3cb44B" r="3.5" stroke-width="0" /><circle cx="373" cy="367" fill="#3cb44B" r="3.5" stroke-width="0" /><circle cx="396" cy="357" fill="#3cb44B" r="3.5" stroke-width="0" /><circle cx="437" cy="326" fill="#3cb44B" r="3.5" stroke-width="0" /><circle cx="714" cy="272" fill="#3cb44B" r="3.5" stroke-width="0" /><circle cx="714" cy="257" fill="#3cb44B" r="3.5" stroke-width="0" /><circle cx="749" cy="232" fill="#3cb44B" r="3.5" stroke-width="0" /><circle cx="724" cy="214" fill="#3cb44B" r="3.5" stroke-width="0" /><circle cx="793" cy="196" fill="#3cb44B" r="3.5" stroke-width="0" /><circle cx="789" cy="195" fill="#3cb44B" r="3.5" stroke-width="0" /><circle cx="798" cy="193" fill="#3cb44B" r="3.5" stroke-width="0" /><circle cx="779" cy="186" fill="#3cb44B" r="3.5" stroke-width="0" /><circle cx="789" cy="170" fill="#3cb44B" r="3.5" stroke-width="0" /><circle cx="807" cy="164" fill="#3cb44B" r="3.5" stroke-width="0" /><circle cx="751" cy="163" fill="#3cb44B" r="3.5" stroke-width="0" /><circle cx="719" cy="161" fill="#3cb44B" r="3.5" stroke-width="0" /><circle cx="829" cy="158" fill="#3cb44B" r="3.5" stroke-width="0" /><circle cx="825" cy="151" fill="#3cb44B" r="3.5" stroke-width="0" /><circle cx="790" cy="141" fill="#3cb44B" r="3.5" stroke-width="0" /><circle cx="802" cy="141" fill="#3cb44B" r="3.5" stroke-width="0" /><circle cx="827" cy="139" fill="#3cb44B" r="3.5" stroke-width="0" /><circle cx="759" cy="138" fill="#3cb44B" r="3.5" stroke-width="0" /><circle cx="810" cy="138" fill="#3cb44B" r="3.5" stroke-width="0" /><circle cx="793" cy="134" fill="#3cb44B" r="3.5" stroke-width="0" /><circle cx="777" cy="126" fill="#3cb44B" r="3.5" stroke-width="0" /><circle cx="838" cy="125" fill="#3cb44B" r="3.5" stroke-width="0" /><circle cx="825" cy="122" fill="#3cb44B" r="3.5" stroke-width="0" /><circle cx="871" cy="121" fill="#3cb44B" r="3.5" stroke-width="0" /><circle cx="832" cy="120" fill="#3cb44B" r="3.5" stroke-width="0" /><circle cx="787" cy="117" fill="#3cb44B" r="3.5" stroke-width="0" /><circle cx="803" cy="111" fill="#3cb44B" r="3.5" stroke-width="0" /><circle cx="771" cy="103" fill="#3cb44B" r="3.5" stroke-width="0" /><circle cx="856" cy="101" fill="#3cb44B" r="3.5" stroke-width="0" /><circle cx="830" cy="99" fill="#3cb44B" r="3.5" stroke-width="0" /><circle cx="865" cy="96" fill="#3cb44B" r="3.5" stroke-width="0" /><circle cx="784" cy="94" fill="#3cb44B" r="3.5" stroke-width="0" /><circle cx="820" cy="87" fill="#3cb44B" r="3.5" stroke-width="0" /><circle cx="763" cy="82" fill="#3cb44B" r="3.5" stroke-width="0" /><circle cx="836" cy="80" fill="#3cb44B" r="3.5" stroke-width="0" /></g><g class="e5"><circle cx="212" cy="463" fill="#ff0000" r="3.5" stroke-width="0" /><circle cx="263" cy="444" fill="#ff0000" r="3.5" stroke-width="0" /><circle cx="264" cy="436" fill="#ff0000" r="3.5" stroke-width="0" /><circle cx="251" cy="424" fill="#ff0000" r="3.5" stroke-width="0" /><circle cx="271" cy="423" fill="#ff0000" r="3.5" stroke-width="0" /><circle cx="258" cy="414" fill="#ff0000" r="3.5" stroke-width="0" /><circle cx="253" cy="412" fill="#ff0000" r="3.5" stroke-width="0" /><circle cx="258" cy="410" fill="#ff0000" r="3.5" stroke-width="0" /><circle cx="244" cy="402" fill="#ff0000" r="3.5" stroke-width="0" /><circle cx="282" cy="398" fill="#ff0000" r="3.5" stroke-width="0" /><circle cx="284" cy="389" fill="#ff0000" r="3.5" stroke-width="0" /><circle cx="315" cy="385" fill="#ff0000" r="3.5" stroke-width="0" /><circle cx="283" cy="381" fill="#ff0000" r="3.5" stroke-width="0" /><circle cx="328" cy="369" fill="#ff0000" r="3.5" stroke-width="0" /><circle cx="300" cy="364" fill="#ff0000" r="3.5" stroke-width="0" /><circle cx="257" cy="363" fill="#ff0000" r="3.5" stroke-width="0" /><circle cx="205" cy="359" fill="#ff0000" r="3.5" stroke-width="0" /><circle cx="255" cy="359" fill="#ff0000" r="3.5" stroke-width="0" /><circle cx="261" cy="356" fill="#ff0000" r="3.5" stroke-width="0" /><circle cx="252" cy="355" fill="#ff0000" r="3.5" stroke-width="0" /><circle cx="289" cy="347" fill="#ff0000" r="3.5" stroke-width="0" /><circle cx="287" cy="339" fill="#ff0000" r="3.5" stroke-width="0" /><circle cx="303" cy="338" fill="#ff0000" r="3.5" stroke-width="0" /><circle cx="263" cy="337" fill="#ff0000" r="3.5" stroke-width="0" /><circle cx="344" cy="336" fill="#ff0000" r="3.5" stroke-width="0" /><circle cx="356" cy="336" fill="#ff0000" r="3.5" stroke-width="0" /><circle cx="350" cy="332" fill="#ff0000" r="3.5" stroke-width="0" /><circle cx="316" cy="329" fill="#ff0000" r="3.5" stroke-width="0" /><circle cx="275" cy="328" fill="#ff0000" r="3.5" stroke-width="0" /><circle cx="314" cy="319" fill="#ff0000" r="3.5" stroke-width="0" /><circle cx="339" cy="316" fill="#ff0000" r="3.5" stroke-width="0" /><circle cx="237" cy="312" fill="#ff0000" r="3.5" stroke-width="0" /><circle cx="382" cy="311" fill="#ff0000" r="3.5" stroke-width="0" /><circle cx="210" cy="309" fill="#ff0000" r="3.5" stroke-width="0" /><circle cx="287" cy="306" fill="#ff0000" r="3.5" stroke-width="0" /><circle cx="326" cy="306" fill="#ff0000" r="3.5" stroke-width="0" /><circle cx="284" cy="305" fill="#ff0000" r="3.5" stroke-width="0" /><circle cx="254" cy="304" fill="#ff0000" r="3.5" stroke-width="0" /><circle cx="270" cy="303" fill="#ff0000" r="3.5" stroke-width="0" /><circle cx="357" cy="302" fill="#ff0000" r="3.5" stroke-width="0" /><circle cx="294" cy="300" fill="#ff0000" r="3.5" stroke-width="0" /><circle cx="236" cy="299" fill="#ff0000" r="3.5" stroke-width="0" /><circle cx="284" cy="298" fill="#ff0000" r="3.5" stroke-width="0" /><circle cx="334" cy="297" fill="#ff0000" r="3.5" stroke-width="0" /><circle cx="368" cy="291" fill="#ff0000" r="3.5" stroke-width="0" /><circle cx="276" cy="285" fill="#ff0000" r="3.5" stroke-width="0" /><circle cx="340" cy="284" fill="#ff0000" r="3.5" stroke-width="0" /><circle cx="242" cy="283" fill="#ff0000" r="3.5" stroke-width="0" /><circle cx="332" cy="271" fill="#ff0000" r="3.5" stroke-width="0" /><circle cx="321" cy="266" fill="#ff0000" r="3.5" stroke-width="0" /><circle cx="312" cy="259" fill="#ff0000" r="3.5" stroke-width="0" /><circle cx="249" cy="257" fill="#ff0000" r="3.5" stroke-width="0" /><circle cx="271" cy="256" fill="#ff0000" r="3.5" stroke-width="0" /><circle cx="273" cy="256" fill="#ff0000" r="3.5" stroke-width="0" /><circle cx="225" cy="251" fill="#ff0000" r="3.5" stroke-width="0" /><circle cx="311" cy="242" fill="#ff0000" r="3.5" stroke-width="0" /><circle cx="329" cy="239" fill="#ff0000" r="3.5" stroke-width="0" /><circle cx="318" cy="234" fill="#ff0000" r="3.5" stroke-width="0" /><circle cx="264" cy="233" fill="#ff0000" r="3.5" stroke-width="0" /><circle cx="278" cy="229" fill="#ff0000" r="3.5" stroke-width="0" /><circle cx="372" cy="228" fill="#ff0000" r="3.5" stroke-width="0" /><circle cx="343" cy="227" fill="#ff0000" r="3.5" stroke-width="0" /><circle cx="314" cy="223" fill="#ff0000" r="3.5" stroke-width="0" /><circle cx="248" cy="222" fill="#ff0000" r="3.5" stroke-width="0" /><circle cx="458" cy="219" fill="#ff0000" r="3.5" stroke-width="0" /><circle cx="403" cy="218" fill="#ff0000" r="3.5" stroke-width="0" /><circle cx="330" cy="212" fill="#ff0000" r="3.5" stroke-width="0" /><circle cx="318" cy="206" fill="#ff0000" r="3.5" stroke-width="0" /><circle cx="265" cy="201" fill="#ff0000" r="3.5" stroke-width="0" /><circle cx="277" cy="201" fill="#ff0000" r="3.5" stroke-width="0" /><circle cx="367" cy="200" fill="#ff0000" r="3.5" stroke-width="0" /><circle cx="271" cy="188" fill="#ff0000" r="3.5" stroke-width="0" /><circle cx="327" cy="185" fill="#ff0000" r="3.5" stroke-width="0" /><circle cx="291" cy="174" fill="#ff0000" r="3.5" stroke-width="0" /><circle cx="372" cy="173" fill="#ff0000" r="3.5" stroke-width="0" /><circle cx="413" cy="172" fill="#ff0000" r="3.5" stroke-width="0" /><circle cx="258" cy="171" fill="#ff0000" r="3.5" stroke-width="0" /><circle cx="285" cy="171" fill="#ff0000" r="3.5" stroke-width="0" /><circle cx="317" cy="166" fill="#ff0000" r="3.5" stroke-width="0" /><circle cx="268" cy="165" fill="#ff0000" r="3.5" stroke-width="0" /><circle cx="414" cy="157" fill="#ff0000" r="3.5" stroke-width="0" /><circle cx="346" cy="147" fill="#ff0000" r="3.5" stroke-width="0" /><circle cx="326" cy="129" fill="#ff0000" r="3.5" stroke-width="0" /><circle cx="344" cy="118" fill="#ff0000" r="3.5" stroke-width="0" /><circle cx="357" cy="99" fill="#ff0000" r="3.5" stroke-width="0" /><circle cx="361" cy="73" fill="#ff0000" r="3.5" stroke-width="0" /></g><g class="e6"><circle cx="218" cy="137" fill="#2b92db" r="3.5" stroke-width="0" /><circle cx="270" cy="117" fill="#2b92db" r="3.5" stroke-width="0" /><circle cx="180" cy="114" fill="#2b92db" r="3.5" stroke-width="0" /><circle cx="296" cy="108" fill="#2b92db" r="3.5" stroke-width="0" /><circle cx="202" cy="81" fill="#2b92db" r="3.5" stroke-width="0" /><circle cx="231" cy="71" fill="#2b92db" r="3.5" stroke-width="0" /></g></g></g></svg>