<?xml version="1.0" encoding="utf-8" ?>
<svg baseProfile="full" height="1140px" style="font-size:15;font-family:Arial, san-serif;font-weight:bold;stroke:black;stroke-width:0;fill:#444444" version="1.1" width="1140px" xmlns="http://www.w3.org/2000/svg" xmlns:ev="http://www.w3.org/2001/xml-events" xmlns:xlink="http://www.w3.org/1999/xlink"><defs><clipPath id="areadografico"><rect height="1000" width="1000" x="70" y="70" /></clipPath></defs><g class="master"><g class="poligonos"><polygon clip-path="url(#areadografico)" fill="#000000" fill-opacity="0.1" points="1069,1070 1069,405 405,1070" /><polygon clip-path="url(#areadografico)" fill="#ffffff" fill-opacity="0.1" points="405,1070 -261,1070 1069,-261 1069,405" /><polygon clip-path="url(#areadografico)" fill="#000000" fill-opacity="0.1" points="70,70 70,738 738,70" /></g><g class="linhas"><line fill-opacity="0.3" stroke="#999999" stroke-width="1" x1="1070" x2="1070" y1="1070" y2="70" /><line fill-opacity="0.3" stroke="#999999" stroke-width="1" x1="70" x2="1070" y1="70" y2="70" /><line fill-opacity="0.3" stroke="#999999" stroke-width="1" x1="970" x2="970" y1="1070" y2="70" /><line fill-opacity="0.3" stroke="#999999" stroke-width="1" x1="70" x2="1070" y1="170" y2="170" /><line fill-opacity="0.3" stroke="#999999" stroke-width="1" x1="870" x2="870" y1="1070" y2="70" /><line fill-opacity="0.3" stroke="#999999" stroke-width="1" x1="70" x2="1070" y1="270" y2="270" /><line fill-opacity="0.3" stroke="#999999" stroke-width="1" x1="770" x2="770" y1="1070" y2="70" /><line fill-opacity="0.3" stroke="#999999" stroke-width="1" x1="70" x2="1070" y1="370" y2="370" /><line fill-opacity="0.3" stroke="#999999" stroke-width="1" x1="670" x2="670" y1="1070" y2="70" /><line fill-opacity="0.3" stroke="#999999" stroke-width="1" x1="70" x2="1070" y1="470" y2="470" /><line fill-opacity="0.3" stroke="#999999" stroke-width="1" x1="570" x2="570" y1="1070" y2="70" /><line fill-opacity="0.3" stroke="#999999" stroke-width="1" x1="70" x2="1070" y1="570" y2="570" /><line fill-opacity="0.3" stroke="#999999" stroke-width="1" x1="470" x2="470" y1="1070" y2="70" /><line fill-opacity="0.3" stroke="#999999" stroke-width="1" x1="70" x2="1070" y1="670" y2="670" /><line fill-opacity="0.3" stroke="#999999" stroke-width="1" x1="370" x2="370" y1="1070" y2="70" /><line fill-opacity="0.3" stroke="#999999" stroke-width="1" x1="70" x2="1070" y1="770" y2="770" /><line fill-opacity="0.3" stroke="#999999" stroke-width="1" x1="270" x2="270" y1="1070" y2="70" /><line fill-opacity="0.3" stroke="#999999" stroke-width="1" x1="70" x2="1070" y1="870" y2="870" /><line fill-opacity="0.3" stroke="#999999" stroke-width="1" x1="170" x2="170" y1="1070" y2="70" /><line fill-opacity="0.3" stroke="#999999" stroke-width="1" x1="70" x2="1070" y1="970" y2="970" /><line fill-opacity="0.3" stroke="#000000" stroke-width="1" x1="70" x2="70" y1="1071" y2="69" /><line fill-opacity="0.3" stroke="#000000" stroke-width="1" x1="69" x2="1071" y1="1070" y2="1070" /></g><g class="textos"><text x="1050" y="1110">1000</text><text x="10" y="71">1000</text><text x="950" y="1110">900</text><text x="10" y="171">900</text><text x="850" y="1110">800</text><text x="10" y="271">800</text><text x="750" y="1110">700</text><text x="10" y="371">700</text><text x="650" y="1110">600</text><text x="10" y="471">600</text><text x="550" y="1110">500</text><text x="10" y="571">500</text><text x="450" y="1110">400</text><text x="10" y="671">400</text><text x="350" y="1110">300</text><text x="10" y="771">300</text><text x="250" y="1110">200</text><text x="10" y="871">200</text><text x="150" y="1110">100</text><text x="10" y="971">100</text><text x="50" y="1111">0</text><text x="9" y="1071">0</text></g><g class="especies"><g class="e0"><circle cx="844" cy="1042" fill="#3cb44B" r="3.5" stroke-width="0" /><circle cx="838" cy="996" fill="#3cb44B" r="3.5" stroke-width="0" /><circle cx="840" cy="916" fill="#3cb44B" r="3.5" stroke-width="0" /><circle cx="811" cy="857" fill="#3cb44B" r="3.5" stroke-width="0" /><circle cx="793" cy="850" fill="#3cb44B" r="3.5" stroke-width="0" /><circle cx="823" cy="776" fill="#3cb44B" r="3.5" stroke-width="0" /><circle cx="808" cy="770" fill="#3cb44B" r="3.5" stroke-width="0" /><circle cx="827" cy="768" fill="#3cb44B" r="3.5" stroke-width="0" /><circle cx="833" cy="764" fill="#3cb44B" r="3.5" stroke-width="0" /><circle cx="826" cy="755" fill="#3cb44B" r="3.5" stroke-width="0" /><circle cx="801" cy="754" fill="#3cb44B" r="3.5" stroke-width="0" /><circle cx="806" cy="749" fill="#3cb44B" r="3.5" stroke-width="0" /><circle cx="827" cy="732" fill="#3cb44B" r="3.5" stroke-width="0" /><circle cx="814" cy="703" fill="#3cb44B" r="3.5" stroke-width="0" /><circle cx="786" cy="700" fill="#3cb44B" r="3.5" stroke-width="0" /><circle cx="811" cy="698" fill="#3cb44B" r="3.5" stroke-width="0" /><circle cx="827" cy="696" fill="#3cb44B" r="3.5" stroke-width="0" /><circle cx="829" cy="690" fill="#3cb44B" r="3.5" stroke-width="0" /><circle cx="826" cy="670" fill="#3cb44B" r="3.5" stroke-width="0" /><circle cx="827" cy="666" fill="#3cb44B" r="3.5" stroke-width="0" /><circle cx="845" cy="661" fill="#3cb44B" r="3.5" stroke-width="0" /><circle cx="836" cy="658" fill="#3cb44B" r="3.5" stroke-width="0" /><circle cx="863" cy="655" fill="#3cb44B" r="3.5" stroke-width="0" /><circle cx="852" cy="640" fill="#3cb44B" r="3.5" stroke-width="0" /></g><g class="e1"><circle cx="301" cy="1034" fill="#ff0000" r="3.5" stroke-width="0" /><circle cx="322" cy="1012" fill="#ff0000" r="3.5" stroke-width="0" /><circle cx="350" cy="958" fill="#ff0000" r="3.5" stroke-width="0" /><circle cx="306" cy="942" fill="#ff0000" r="3.5" stroke-width="0" /><circle cx="314" cy="926" fill="#ff0000" r="3.5" stroke-width="0" /><circle cx="349" cy="905" fill="#ff0000" r="3.5" stroke-width="0" /><circle cx="301" cy="898" fill="#ff0000" r="3.5" stroke-width="0" /><circle cx="338" cy="866" fill="#ff0000" r="3.5" stroke-width="0" /><circle cx="347" cy="852" fill="#ff0000" r="3.5" stroke-width="0" /><circle cx="309" cy="816" fill="#ff0000" r="3.5" stroke-width="0" /><circle cx="345" cy="812" fill="#ff0000" r="3.5" stroke-width="0" /><circle cx="321" cy="810" fill="#ff0000" r="3.5" stroke-width="0" /><circle cx="300" cy="809" fill="#ff0000" r="3.5" stroke-width="0" /><circle cx="336" cy="771" fill="#ff0000" r="3.5" stroke-width="0" /><circle cx="302" cy="761" fill="#ff0000" r="3.5" stroke-width="0" /><circle cx="294" cy="757" fill="#ff0000" r="3.5" stroke-width="0" /><circle cx="337" cy="754" fill="#ff0000" r="3.5" stroke-width="0" /><circle cx="350" cy="742" fill="#ff0000" r="3.5" stroke-width="0" /><circle cx="287" cy="737" fill="#ff0000" r="3.5" stroke-width="0" /><circle cx="313" cy="737" fill="#ff0000" r="3.5" stroke-width="0" /><circle cx="326" cy="721" fill="#ff0000" r="3.5" stroke-width="0" /><circle cx="317" cy="714" fill="#ff0000" r="3.5" stroke-width="0" /><circle cx="343" cy="713" fill="#ff0000" r="3.5" stroke-width="0" /><circle cx="325" cy="710" fill="#ff0000" r="3.5" stroke-width="0" /><circle cx="373" cy="705" fill="#ff0000" r="3.5" stroke-width="0" /><circle cx="315" cy="700" fill="#ff0000" r="3.5" stroke-width="0" /><circle cx="321" cy="692" fill="#ff0000" r="3.5" stroke-width="0" /><circle cx="312" cy="690" fill="#ff0000" r="3.5" stroke-width="0" /><circle cx="783" cy="690" fill="#ff0000" r="3.5" stroke-width="0" /><circle cx="357" cy="689" fill="#ff0000" r="3.5" stroke-width="0" /><circle cx="330" cy="683" fill="#ff0000" r="3.5" stroke-width="0" /><circle cx="300" cy="681" fill="#ff0000" r="3.5" stroke-width="0" /><circle cx="282" cy="670" fill="#ff0000" r="3.5" stroke-width="0" /><circle cx="304" cy="668" fill="#ff0000" r="3.5" stroke-width="0" /><circle cx="306" cy="665" fill="#ff0000" r="3.5" stroke-width="0" /><circle cx="799" cy="659" fill="#ff0000" r="3.5" stroke-width="0" /><circle cx="813" cy="659" fill="#ff0000" r="3.5" stroke-width="0" /><circle cx="799" cy="656" fill="#ff0000" r="3.5" stroke-width="0" /><circle cx="305" cy="653" fill="#ff0000" r="3.5" stroke-width="0" /><circle cx="798" cy="652" fill="#ff0000" r="3.5" stroke-width="0" /><circle cx="325" cy="648" fill="#ff0000" r="3.5" stroke-width="0" /><circle cx="314" cy="642" fill="#ff0000" r="3.5" stroke-width="0" /><circle cx="312" cy="640" fill="#ff0000" r="3.5" stroke-width="0" /><circle cx="770" cy="640" fill="#ff0000" r="3.5" stroke-width="0" /><circle cx="789" cy="639" fill="#ff0000" r="3.5" stroke-width="0" /><circle cx="347" cy="636" fill="#ff0000" r="3.5" stroke-width="0" /><circle cx="813" cy="634" fill="#ff0000" r="3.5" stroke-width="0" /><circle cx="811" cy="631" fill="#ff0000" r="3.5" stroke-width="0" /><circle cx="821" cy="630" fill="#ff0000" r="3.5" stroke-width="0" /><circle cx="830" cy="629" fill="#ff0000" r="3.5" stroke-width="0" /><circle cx="821" cy="628" fill="#ff0000" r="3.5" stroke-width="0" /><circle cx="847" cy="627" fill="#ff0000" r="3.5" stroke-width="0" /><circle cx="295" cy="624" fill="#ff0000" r="3.5" stroke-width="0" /><circle cx="332" cy="624" fill="#ff0000" r="3.5" stroke-width="0" /><circle cx="323" cy="615" fill="#ff0000" r="3.5" stroke-width="0" /><circle cx="796" cy="609" fill="#ff0000" r="3.5" stroke-width="0" /><circle cx="798" cy="602" fill="#ff0000" r="3.5" stroke-width="0" /><circle cx="310" cy="601" fill="#ff0000" r="3.5" stroke-width="0" /><circle cx="299" cy="600" fill="#ff0000" r="3.5" stroke-width="0" /><circle cx="341" cy="600" fill="#ff0000" r="3.5" stroke-width="0" /><circle cx="787" cy="599" fill="#ff0000" r="3.5" stroke-width="0" /><circle cx="341" cy="598" fill="#ff0000" r="3.5" stroke-width="0" /><circle cx="815" cy="597" fill="#ff0000" r="3.5" stroke-width="0" /><circle cx="324" cy="594" fill="#ff0000" r="3.5" stroke-width="0" /><circle cx="344" cy="589" fill="#ff0000" r="3.5" stroke-width="0" /><circle cx="358" cy="582" fill="#ff0000" r="3.5" stroke-width="0" /><circle cx="355" cy="576" fill="#ff0000" r="3.5" stroke-width="0" /><circle cx="833" cy="576" fill="#ff0000" r="3.5" stroke-width="0" /><circle cx="307" cy="575" fill="#ff0000" r="3.5" stroke-width="0" /><circle cx="384" cy="572" fill="#ff0000" r="3.5" stroke-width="0" /><circle cx="827" cy="571" fill="#ff0000" r="3.5" stroke-width="0" /><circle cx="875" cy="565" fill="#ff0000" r="3.5" stroke-width="0" /><circle cx="830" cy="564" fill="#ff0000" r="3.5" stroke-width="0" /><circle cx="810" cy="562" fill="#ff0000" r="3.5" stroke-width="0" /><circle cx="833" cy="558" fill="#ff0000" r="3.5" stroke-width="0" /><circle cx="812" cy="556" fill="#ff0000" r="3.5" stroke-width="0" /><circle cx="854" cy="556" fill="#ff0000" r="3.5" stroke-width="0" /><circle cx="350" cy="555" fill="#ff0000" r="3.5" stroke-width="0" /><circle cx="292" cy="552" fill="#ff0000" r="3.5" stroke-width="0" /><circle cx="340" cy="552" fill="#ff0000" r="3.5" stroke-width="0" /><circle cx="828" cy="551" fill="#ff0000" r="3.5" stroke-width="0" /><circle cx="828" cy="550" fill="#ff0000" r="3.5" stroke-width="0" /><circle cx="319" cy="549" fill="#ff0000" r="3.5" stroke-width="0" /><circle cx="843" cy="548" fill="#ff0000" r="3.5" stroke-width="0" /><circle cx="830" cy="538" fill="#ff0000" r="3.5" stroke-width="0" /><circle cx="852" cy="536" fill="#ff0000" r="3.5" stroke-width="0" /><circle cx="817" cy="535" fill="#ff0000" r="3.5" stroke-width="0" /><circle cx="864" cy="535" fill="#ff0000" r="3.5" stroke-width="0" /><circle cx="301" cy="532" fill="#ff0000" r="3.5" stroke-width="0" /><circle cx="858" cy="532" fill="#ff0000" r="3.5" stroke-width="0" /><circle cx="289" cy="529" fill="#ff0000" r="3.5" stroke-width="0" /><circle cx="817" cy="525" fill="#ff0000" r="3.5" stroke-width="0" /><circle cx="290" cy="524" fill="#ff0000" r="3.5" stroke-width="0" /><circle cx="819" cy="522" fill="#ff0000" r="3.5" stroke-width="0" /><circle cx="833" cy="520" fill="#ff0000" r="3.5" stroke-width="0" /><circle cx="305" cy="519" fill="#ff0000" r="3.5" stroke-width="0" /><circle cx="804" cy="516" fill="#ff0000" r="3.5" stroke-width="0" /><circle cx="308" cy="511" fill="#ff0000" r="3.5" stroke-width="0" /><circle cx="325" cy="508" fill="#ff0000" r="3.5" stroke-width="0" /><circle cx="322" cy="500" fill="#ff0000" r="3.5" stroke-width="0" /><circle cx="344" cy="499" fill="#ff0000" r="3.5" stroke-width="0" /><circle cx="811" cy="496" fill="#ff0000" r="3.5" stroke-width="0" /><circle cx="759" cy="492" fill="#ff0000" r="3.5" stroke-width="0" /><circle cx="821" cy="490" fill="#ff0000" r="3.5" stroke-width="0" /><circle cx="353" cy="489" fill="#ff0000" r="3.5" stroke-width="0" /><circle cx="790" cy="489" fill="#ff0000" r="3.5" stroke-width="0" /><circle cx="859" cy="489" fill="#ff0000" r="3.5" stroke-width="0" /><circle cx="818" cy="488" fill="#ff0000" r="3.5" stroke-width="0" /><circle cx="790" cy="487" fill="#ff0000" r="3.5" stroke-width="0" /><circle cx="806" cy="486" fill="#ff0000" r="3.5" stroke-width="0" /><circle cx="333" cy="483" fill="#ff0000" r="3.5" stroke-width="0" /><circle cx="828" cy="480" fill="#ff0000" r="3.5" stroke-width="0" /><circle cx="846" cy="469" fill="#ff0000" r="3.5" stroke-width="0" /><circle cx="821" cy="466" fill="#ff0000" r="3.5" stroke-width="0" /><circle cx="818" cy="462" fill="#ff0000" r="3.5" stroke-width="0" /><circle cx="815" cy="461" fill="#ff0000" r="3.5" stroke-width="0" /><circle cx="792" cy="455" fill="#ff0000" r="3.5" stroke-width="0" /><circle cx="817" cy="451" fill="#ff0000" r="3.5" stroke-width="0" /><circle cx="760" cy="441" fill="#ff0000" r="3.5" stroke-width="0" /><circle cx="806" cy="436" fill="#ff0000" r="3.5" stroke-width="0" /><circle cx="808" cy="434" fill="#ff0000" r="3.5" stroke-width="0" /><circle cx="866" cy="427" fill="#ff0000" r="3.5" stroke-width="0" /><circle cx="823" cy="420" fill="#ff0000" r="3.5" stroke-width="0" /><circle cx="815" cy="417" fill="#ff0000" r="3.5" stroke-width="0" /><circle cx="761" cy="415" fill="#ff0000" r="3.5" stroke-width="0" /><circle cx="827" cy="391" fill="#ff0000" r="3.5" stroke-width="0" /><circle cx="789" cy="376" fill="#ff0000" r="3.5" stroke-width="0" /><circle cx="815" cy="367" fill="#ff0000" r="3.5" stroke-width="0" /><circle cx="854" cy="367" fill="#ff0000" r="3.5" stroke-width="0" /><circle cx="788" cy="364" fill="#ff0000" r="3.5" stroke-width="0" /><circle cx="837" cy="349" fill="#ff0000" r="3.5" stroke-width="0" /><circle cx="841" cy="340" fill="#ff0000" r="3.5" stroke-width="0" /><circle cx="809" cy="323" fill="#ff0000" r="3.5" stroke-width="0" /><circle cx="811" cy="322" fill="#ff0000" r="3.5" stroke-width="0" /><circle cx="766" cy="315" fill="#ff0000" r="3.5" stroke-width="0" /><circle cx="818" cy="294" fill="#ff0000" r="3.5" stroke-width="0" /><circle cx="815" cy="281" fill="#ff0000" r="3.5" stroke-width="0" /><circle cx="825" cy="233" fill="#ff0000" r="3.5" stroke-width="0" /><circle cx="800" cy="221" fill="#ff0000" r="3.5" stroke-width="0" /><circle cx="811" cy="220" fill="#ff0000" r="3.5" stroke-width="0" /><circle cx="837" cy="211" fill="#ff0000" r="3.5" stroke-width="0" /></g><g class="e2"><circle cx="301" cy="496" fill="#2b92db" r="3.5" stroke-width="0" /><circle cx="311" cy="491" fill="#2b92db" r="3.5" stroke-width="0" /><circle cx="310" cy="479" fill="#2b92db" r="3.5" stroke-width="0" /><circle cx="310" cy="478" fill="#2b92db" r="3.5" stroke-width="0" /><circle cx="301" cy="464" fill="#2b92db" r="3.5" stroke-width="0" /><circle cx="337" cy="456" fill="#2b92db" r="3.5" stroke-width="0" /><circle cx="352" cy="450" fill="#2b92db" r="3.5" stroke-width="0" /><circle cx="342" cy="449" fill="#2b92db" r="3.5" stroke-width="0" /><circle cx="346" cy="449" fill="#2b92db" r="3.5" stroke-width="0" /><circle cx="359" cy="446" fill="#2b92db" r="3.5" stroke-width="0" /><circle cx="312" cy="440" fill="#2b92db" r="3.5" stroke-width="0" /><circle cx="328" cy="440" fill="#2b92db" r="3.5" stroke-width="0" /><circle cx="309" cy="434" fill="#2b92db" r="3.5" stroke-width="0" /><circle cx="305" cy="432" fill="#2b92db" r="3.5" stroke-width="0" /><circle cx="353" cy="432" fill="#2b92db" r="3.5" stroke-width="0" /><circle cx="312" cy="429" fill="#2b92db" r="3.5" stroke-width="0" /><circle cx="347" cy="421" fill="#2b92db" r="3.5" stroke-width="0" /><circle cx="324" cy="417" fill="#2b92db" r="3.5" stroke-width="0" /><circle cx="285" cy="408" fill="#2b92db" r="3.5" stroke-width="0" /><circle cx="305" cy="401" fill="#2b92db" r="3.5" stroke-width="0" /><circle cx="310" cy="378" fill="#2b92db" r="3.5" stroke-width="0" /><circle cx="314" cy="377" fill="#2b92db" r="3.5" stroke-width="0" /><circle cx="336" cy="373" fill="#2b92db" r="3.5" stroke-width="0" /><circle cx="355" cy="372" fill="#2b92db" r="3.5" stroke-width="0" /><circle cx="317" cy="355" fill="#2b92db" r="3.5" stroke-width="0" /><circle cx="319" cy="351" fill="#2b92db" r="3.5" stroke-width="0" /><circle cx="330" cy="346" fill="#2b92db" r="3.5" stroke-width="0" /><circle cx="346" cy="338" fill="#2b92db" r="3.5" stroke-width="0" /><circle cx="348" cy="324" fill="#2b92db" r="3.5" stroke-width="0" /><circle cx="299" cy="321" fill="#2b92db" r="3.5" stroke-width="0" /><circle cx="325" cy="280" fill="#2b92db" r="3.5" stroke-width="0" /><circle cx="320" cy="276" fill="#2b92db" r="3.5" stroke-width="0" /><circle cx="302" cy="247" fill="#2b92db" r="3.5" stroke-width="0" /><circle cx="290" cy="164" fill="#2b92db" r="3.5" stroke-width="0" /></g></g></g></svg>