<?xml version="1.0" encoding="utf-8" ?>
<svg baseProfile="full" height="1140px" style="font-size:15;font-family:Arial, san-serif;font-weight:bold;stroke:black;stroke-width:0;fill:#444444" version="1.1" width="1140px" xmlns="http://www.w3.org/2000/svg" xmlns:ev="http://www.w3.org/2001/xml-events" xmlns:xlink="http://www.w3.org/1999/xlink"><defs><clipPath id="areadografico"><rect height="1000" width="1000" x="70" y="70" /></clipPath></defs><g class="master"><g class="poligonos"><polygon clip-path="url(#areadografico)" fill="#000000" fill-opacity="0.1" points="1069,1070 1069,672 672,1070" /><polygon clip-path="url(#areadografico)" fill="#ffffff" fill-opacity="0.1" points="672,1070 273,1070 1069,273 1069,672" /><polygon clip-path="url(#areadografico)" fill="#000000" fill-opacity="0.1" points="273,1070 -126,1070 1069,-126 1069,273" /><polygon clip-path="url(#areadografico)" fill="#ffffff" fill-opacity="0.1" points="-126,1070 -524,1070 1069,-524 1069,-126" /><polygon clip-path="url(#areadografico)" fill="#000000" fill-opacity="0.1" points="70,70 70,475 475,70" /></g><g class="linhas"><line fill-opacity="0.3" stroke="#999999" stroke-width="1" x1="1070" x2="1070" y1="1070" y2="70" /><line fill-opacity="0.3" stroke="#999999" stroke-width="1" x1="70" x2="1070" y1="70" y2="70" /><line fill-opacity="0.3" stroke="#999999" stroke-width="1" x1="970" x2="970" y1="1070" y2="70" /><line fill-opacity="0.3" stroke="#999999" stroke-width="1" x1="70" x2="1070" y1="170" y2="170" /><line fill-opacity="0.3" stroke="#999999" stroke-width="1" x1="870" x2="870" y1="1070" y2="70" /><line fill-opacity="0.3" stroke="#999999" stroke-width="1" x1="70" x2="1070" y1="270" y2="270" /><line fill-opacity="0.3" stroke="#999999" stroke-width="1" x1="770" x2="770" y1="1070" y2="70" /><line fill-opacity="0.3" stroke="#999999" stroke-width="1" x1="70" x2="1070" y1="370" y2="370" /><line fill-opacity="0.3" stroke="#999999" stroke-width="1" x1="670" x2="670" y1="1070" y2="70" /><line fill-opacity="0.3" stroke="#999999" stroke-width="1" x1="70" x2="1070" y1="470" y2="470" /><line fill-opacity="0.3" stroke="#999999" stroke-width="1" x1="570" x2="570" y1="1070" y2="70" /><line fill-opacity="0.3" stroke="#999999" stroke-width="1" x1="70" x2="1070" y1="570" y2="570" /><line fill-opacity="0.3" stroke="#999999" stroke-width="1" x1="470" x2="470" y1="1070" y2="70" /><line fill-opacity="0.3" stroke="#999999" stroke-width="1" x1="70" x2="1070" y1="670" y2="670" /><line fill-opacity="0.3" stroke="#999999" stroke-width="1" x1="370" x2="370" y1="1070" y2="70" /><line fill-opacity="0.3" stroke="#999999" stroke-width="1" x1="70" x2="1070" y1="770" y2="770" /><line fill-opacity="0.3" stroke="#999999" stroke-width="1" x1="270" x2="270" y1="1070" y2="70" /><line fill-opacity="0.3" stroke="#999999" stroke-width="1" x1="70" x2="1070" y1="870" y2="870" /><line fill-opacity="0.3" stroke="#999999" stroke-width="1" x1="170" x2="170" y1="1070" y2="70" /><line fill-opacity="0.3" stroke="#999999" stroke-width="1" x1="70" x2="1070" y1="970" y2="970" /><line fill-opacity="0.3" stroke="#000000" stroke-width="1" x1="70" x2="70" y1="1071" y2="69" /><line fill-opacity="0.3" stroke="#000000" stroke-width="1" x1="69" x2="1071" y1="1070" y2="1070" /></g><g class="textos"><text x="1050" y="1110">1000</text><text x="10" y="71">1000</text><text x="950" y="1110">900</text><text x="10" y="171">900</text><text x="850" y="1110">800</text><text x="10" y="271">800</text><text x="750" y="1110">700</text><text x="10" y="371">700</text><text x="650" y="1110">600</text><text x="10" y="471">600</text><text x="550" y="1110">500</text><text x="10" y="571">500</text><text x="450" y="1110">400</text><text x="10" y="671">400</text><text x="350" y="1110">300</text><text x="10" y="771">300</text><text x="250" y="1110">200</text><text x="10" y="871">200</text><text x="150" y="1110">100</text><text x="10" y="971">100</text><text x="50" y="1111">0</text><text x="9" y="1071">0</text></g><g class="especies"><g class="e0"><circle cx="835" cy="1066" fill="#3cb44B" r="3.5" stroke-width="0" /><circle cx="757" cy="1065" fill="#3cb44B" r="3.5" stroke-width="0" /><circle cx="774" cy="1062" fill="#3cb44B" r="3.5" stroke-width="0" /><circle cx="773" cy="1053" fill="#3cb44B" r="3.5" stroke-width="0" /><circle cx="851" cy="1051" fill="#3cb44B" r="3.5" stroke-width="0" /><circle cx="769" cy="1038" fill="#3cb44B" r="3.5" stroke-width="0" /><circle cx="904" cy="1035" fill="#3cb44B" r="3.5" stroke-width="0" /><circle cx="765" cy="1034" fill="#3cb44B" r="3.5" stroke-width="0" /><circle cx="771" cy="1032" fill="#3cb44B" r="3.5" stroke-width="0" /><circle cx="806" cy="1030" fill="#3cb44B" r="3.5" stroke-width="0" /><circle cx="839" cy="1020" fill="#3cb44B" r="3.5" stroke-width="0" /><circle cx="894" cy="1017" fill="#3cb44B" r="3.5" stroke-width="0" /><circle cx="848" cy="1012" fill="#3cb44B" r="3.5" stroke-width="0" /><circle cx="911" cy="993" fill="#3cb44B" r="3.5" stroke-width="0" /><circle cx="881" cy="982" fill="#3cb44B" r="3.5" stroke-width="0" /><circle cx="770" cy="981" fill="#3cb44B" r="3.5" stroke-width="0" /><circle cx="806" cy="948" fill="#3cb44B" r="3.5" stroke-width="0" /><circle cx="857" cy="937" fill="#3cb44B" r="3.5" stroke-width="0" /><circle cx="874" cy="937" fill="#3cb44B" r="3.5" stroke-width="0" /><circle cx="887" cy="937" fill="#3cb44B" r="3.5" stroke-width="0" /><circle cx="953" cy="908" fill="#3cb44B" r="3.5" stroke-width="0" /><circle cx="878" cy="901" fill="#3cb44B" r="3.5" stroke-width="0" /><circle cx="894" cy="895" fill="#3cb44B" r="3.5" stroke-width="0" /><circle cx="899" cy="895" fill="#3cb44B" r="3.5" stroke-width="0" /><circle cx="859" cy="893" fill="#3cb44B" r="3.5" stroke-width="0" /><circle cx="878" cy="885" fill="#3cb44B" r="3.5" stroke-width="0" /><circle cx="899" cy="881" fill="#3cb44B" r="3.5" stroke-width="0" /><circle cx="963" cy="874" fill="#3cb44B" r="3.5" stroke-width="0" /><circle cx="989" cy="841" fill="#3cb44B" r="3.5" stroke-width="0" /></g><g class="e1"><circle cx="357" cy="1068" fill="#ff0000" r="3.5" stroke-width="0" /><circle cx="288" cy="1059" fill="#ff0000" r="3.5" stroke-width="0" /><circle cx="321" cy="1037" fill="#ff0000" r="3.5" stroke-width="0" /><circle cx="429" cy="1034" fill="#ff0000" r="3.5" stroke-width="0" /><circle cx="317" cy="1031" fill="#ff0000" r="3.5" stroke-width="0" /><circle cx="715" cy="1026" fill="#ff0000" r="3.5" stroke-width="0" /><circle cx="381" cy="1025" fill="#ff0000" r="3.5" stroke-width="0" /><circle cx="335" cy="1020" fill="#ff0000" r="3.5" stroke-width="0" /><circle cx="419" cy="1001" fill="#ff0000" r="3.5" stroke-width="0" /><circle cx="714" cy="992" fill="#ff0000" r="3.5" stroke-width="0" /><circle cx="355" cy="991" fill="#ff0000" r="3.5" stroke-width="0" /><circle cx="696" cy="980" fill="#ff0000" r="3.5" stroke-width="0" /><circle cx="741" cy="956" fill="#ff0000" r="3.5" stroke-width="0" /><circle cx="765" cy="953" fill="#ff0000" r="3.5" stroke-width="0" /><circle cx="748" cy="941" fill="#ff0000" r="3.5" stroke-width="0" /><circle cx="750" cy="934" fill="#ff0000" r="3.5" stroke-width="0" /><circle cx="438" cy="925" fill="#ff0000" r="3.5" stroke-width="0" /><circle cx="783" cy="922" fill="#ff0000" r="3.5" stroke-width="0" /><circle cx="774" cy="921" fill="#ff0000" r="3.5" stroke-width="0" /><circle cx="433" cy="914" fill="#ff0000" r="3.5" stroke-width="0" /><circle cx="768" cy="911" fill="#ff0000" r="3.5" stroke-width="0" /><circle cx="823" cy="910" fill="#ff0000" r="3.5" stroke-width="0" /><circle cx="731" cy="907" fill="#ff0000" r="3.5" stroke-width="0" /><circle cx="766" cy="901" fill="#ff0000" r="3.5" stroke-width="0" /><circle cx="798" cy="900" fill="#ff0000" r="3.5" stroke-width="0" /><circle cx="806" cy="897" fill="#ff0000" r="3.5" stroke-width="0" /><circle cx="740" cy="890" fill="#ff0000" r="3.5" stroke-width="0" /><circle cx="813" cy="887" fill="#ff0000" r="3.5" stroke-width="0" /><circle cx="754" cy="885" fill="#ff0000" r="3.5" stroke-width="0" /><circle cx="745" cy="882" fill="#ff0000" r="3.5" stroke-width="0" /><circle cx="753" cy="876" fill="#ff0000" r="3.5" stroke-width="0" /><circle cx="734" cy="874" fill="#ff0000" r="3.5" stroke-width="0" /><circle cx="785" cy="867" fill="#ff0000" r="3.5" stroke-width="0" /><circle cx="755" cy="856" fill="#ff0000" r="3.5" stroke-width="0" /><circle cx="716" cy="853" fill="#ff0000" r="3.5" stroke-width="0" /><circle cx="823" cy="850" fill="#ff0000" r="3.5" stroke-width="0" /><circle cx="885" cy="844" fill="#ff0000" r="3.5" stroke-width="0" /><circle cx="862" cy="836" fill="#ff0000" r="3.5" stroke-width="0" /><circle cx="862" cy="835" fill="#ff0000" r="3.5" stroke-width="0" /><circle cx="833" cy="832" fill="#ff0000" r="3.5" stroke-width="0" /><circle cx="813" cy="825" fill="#ff0000" r="3.5" stroke-width="0" /><circle cx="884" cy="825" fill="#ff0000" r="3.5" stroke-width="0" /><circle cx="887" cy="824" fill="#ff0000" r="3.5" stroke-width="0" /><circle cx="672" cy="813" fill="#ff0000" r="3.5" stroke-width="0" /><circle cx="790" cy="809" fill="#ff0000" r="3.5" stroke-width="0" /><circle cx="910" cy="807" fill="#ff0000" r="3.5" stroke-width="0" /><circle cx="924" cy="806" fill="#ff0000" r="3.5" stroke-width="0" /><circle cx="784" cy="799" fill="#ff0000" r="3.5" stroke-width="0" /><circle cx="824" cy="796" fill="#ff0000" r="3.5" stroke-width="0" /><circle cx="829" cy="793" fill="#ff0000" r="3.5" stroke-width="0" /><circle cx="820" cy="790" fill="#ff0000" r="3.5" stroke-width="0" /><circle cx="850" cy="785" fill="#ff0000" r="3.5" stroke-width="0" /><circle cx="867" cy="784" fill="#ff0000" r="3.5" stroke-width="0" /><circle cx="934" cy="781" fill="#ff0000" r="3.5" stroke-width="0" /><circle cx="876" cy="774" fill="#ff0000" r="3.5" stroke-width="0" /><circle cx="702" cy="766" fill="#ff0000" r="3.5" stroke-width="0" /><circle cx="767" cy="766" fill="#ff0000" r="3.5" stroke-width="0" /><circle cx="868" cy="766" fill="#ff0000" r="3.5" stroke-width="0" /><circle cx="766" cy="761" fill="#ff0000" r="3.5" stroke-width="0" /><circle cx="931" cy="760" fill="#ff0000" r="3.5" stroke-width="0" /><circle cx="768" cy="759" fill="#ff0000" r="3.5" stroke-width="0" /><circle cx="816" cy="750" fill="#ff0000" r="3.5" stroke-width="0" /><circle cx="830" cy="741" fill="#ff0000" r="3.5" stroke-width="0" /><circle cx="783" cy="737" fill="#ff0000" r="3.5" stroke-width="0" /><circle cx="735" cy="735" fill="#ff0000" r="3.5" stroke-width="0" /><circle cx="772" cy="730" fill="#ff0000" r="3.5" stroke-width="0" /><circle cx="964" cy="723" fill="#ff0000" r="3.5" stroke-width="0" /><circle cx="992" cy="714" fill="#ff0000" r="3.5" stroke-width="0" /><circle cx="646" cy="713" fill="#ff0000" r="3.5" stroke-width="0" /><circle cx="826" cy="712" fill="#ff0000" r="3.5" stroke-width="0" /><circle cx="842" cy="712" fill="#ff0000" r="3.5" stroke-width="0" /><circle cx="859" cy="707" fill="#ff0000" r="3.5" stroke-width="0" /><circle cx="846" cy="701" fill="#ff0000" r="3.5" stroke-width="0" /><circle cx="847" cy="700" fill="#ff0000" r="3.5" stroke-width="0" /><circle cx="706" cy="692" fill="#ff0000" r="3.5" stroke-width="0" /><circle cx="904" cy="687" fill="#ff0000" r="3.5" stroke-width="0" /><circle cx="846" cy="685" fill="#ff0000" r="3.5" stroke-width="0" /><circle cx="839" cy="676" fill="#ff0000" r="3.5" stroke-width="0" /><circle cx="977" cy="676" fill="#ff0000" r="3.5" stroke-width="0" /><circle cx="823" cy="671" fill="#ff0000" r="3.5" stroke-width="0" /><circle cx="716" cy="666" fill="#ff0000" r="3.5" stroke-width="0" /><circle cx="722" cy="664" fill="#ff0000" r="3.5" stroke-width="0" /><circle cx="733" cy="664" fill="#ff0000" r="3.5" stroke-width="0" /><circle cx="898" cy="660" fill="#ff0000" r="3.5" stroke-width="0" /><circle cx="897" cy="658" fill="#ff0000" r="3.5" stroke-width="0" /><circle cx="747" cy="654" fill="#ff0000" r="3.5" stroke-width="0" /><circle cx="872" cy="651" fill="#ff0000" r="3.5" stroke-width="0" /><circle cx="878" cy="647" fill="#ff0000" r="3.5" stroke-width="0" /><circle cx="861" cy="645" fill="#ff0000" r="3.5" stroke-width="0" /><circle cx="813" cy="642" fill="#ff0000" r="3.5" stroke-width="0" /><circle cx="823" cy="640" fill="#ff0000" r="3.5" stroke-width="0" /><circle cx="835" cy="640" fill="#ff0000" r="3.5" stroke-width="0" /><circle cx="731" cy="635" fill="#ff0000" r="3.5" stroke-width="0" /><circle cx="910" cy="635" fill="#ff0000" r="3.5" stroke-width="0" /><circle cx="835" cy="631" fill="#ff0000" r="3.5" stroke-width="0" /><circle cx="797" cy="629" fill="#ff0000" r="3.5" stroke-width="0" /><circle cx="788" cy="622" fill="#ff0000" r="3.5" stroke-width="0" /><circle cx="840" cy="618" fill="#ff0000" r="3.5" stroke-width="0" /><circle cx="843" cy="613" fill="#ff0000" r="3.5" stroke-width="0" /><circle cx="871" cy="609" fill="#ff0000" r="3.5" stroke-width="0" /><circle cx="837" cy="601" fill="#ff0000" r="3.5" stroke-width="0" /><circle cx="861" cy="601" fill="#ff0000" r="3.5" stroke-width="0" /><circle cx="871" cy="601" fill="#ff0000" r="3.5" stroke-width="0" /><circle cx="879" cy="599" fill="#ff0000" r="3.5" stroke-width="0" /><circle cx="812" cy="598" fill="#ff0000" r="3.5" stroke-width="0" /><circle cx="774" cy="594" fill="#ff0000" r="3.5" stroke-width="0" /><circle cx="777" cy="586" fill="#ff0000" r="3.5" stroke-width="0" /><circle cx="897" cy="584" fill="#ff0000" r="3.5" stroke-width="0" /><circle cx="766" cy="581" fill="#ff0000" r="3.5" stroke-width="0" /><circle cx="902" cy="581" fill="#ff0000" r="3.5" stroke-width="0" /><circle cx="941" cy="574" fill="#ff0000" r="3.5" stroke-width="0" /><circle cx="808" cy="572" fill="#ff0000" r="3.5" stroke-width="0" /><circle cx="791" cy="568" fill="#ff0000" r="3.5" stroke-width="0" /><circle cx="861" cy="567" fill="#ff0000" r="3.5" stroke-width="0" /><circle cx="1026" cy="567" fill="#ff0000" r="3.5" stroke-width="0" /><circle cx="870" cy="558" fill="#ff0000" r="3.5" stroke-width="0" /><circle cx="826" cy="556" fill="#ff0000" r="3.5" stroke-width="0" /><circle cx="835" cy="545" fill="#ff0000" r="3.5" stroke-width="0" /><circle cx="858" cy="543" fill="#ff0000" r="3.5" stroke-width="0" /><circle cx="811" cy="539" fill="#ff0000" r="3.5" stroke-width="0" /><circle cx="860" cy="538" fill="#ff0000" r="3.5" stroke-width="0" /><circle cx="885" cy="535" fill="#ff0000" r="3.5" stroke-width="0" /><circle cx="841" cy="530" fill="#ff0000" r="3.5" stroke-width="0" /><circle cx="857" cy="506" fill="#ff0000" r="3.5" stroke-width="0" /><circle cx="851" cy="505" fill="#ff0000" r="3.5" stroke-width="0" /><circle cx="854" cy="504" fill="#ff0000" r="3.5" stroke-width="0" /><circle cx="984" cy="362" fill="#ff0000" r="3.5" stroke-width="0" /></g><g class="e2"><circle cx="261" cy="1049" fill="#2b92db" r="3.5" stroke-width="0" /><circle cx="244" cy="1047" fill="#2b92db" r="3.5" stroke-width="0" /><circle cx="279" cy="1045" fill="#2b92db" r="3.5" stroke-width="0" /><circle cx="283" cy="1041" fill="#2b92db" r="3.5" stroke-width="0" /><circle cx="203" cy="1038" fill="#2b92db" r="3.5" stroke-width="0" /><circle cx="277" cy="1033" fill="#2b92db" r="3.5" stroke-width="0" /><circle cx="286" cy="1032" fill="#2b92db" r="3.5" stroke-width="0" /><circle cx="328" cy="1009" fill="#2b92db" r="3.5" stroke-width="0" /><circle cx="301" cy="1007" fill="#2b92db" r="3.5" stroke-width="0" /><circle cx="275" cy="995" fill="#2b92db" r="3.5" stroke-width="0" /><circle cx="304" cy="992" fill="#2b92db" r="3.5" stroke-width="0" /><circle cx="328" cy="991" fill="#2b92db" r="3.5" stroke-width="0" /><circle cx="341" cy="983" fill="#2b92db" r="3.5" stroke-width="0" /><circle cx="359" cy="983" fill="#2b92db" r="3.5" stroke-width="0" /><circle cx="340" cy="981" fill="#2b92db" r="3.5" stroke-width="0" /><circle cx="344" cy="980" fill="#2b92db" r="3.5" stroke-width="0" /><circle cx="292" cy="978" fill="#2b92db" r="3.5" stroke-width="0" /><circle cx="315" cy="968" fill="#2b92db" r="3.5" stroke-width="0" /><circle cx="231" cy="961" fill="#2b92db" r="3.5" stroke-width="0" /><circle cx="329" cy="950" fill="#2b92db" r="3.5" stroke-width="0" /><circle cx="355" cy="934" fill="#2b92db" r="3.5" stroke-width="0" /><circle cx="233" cy="932" fill="#2b92db" r="3.5" stroke-width="0" /><circle cx="135" cy="920" fill="#2b92db" r="3.5" stroke-width="0" /><circle cx="364" cy="918" fill="#2b92db" r="3.5" stroke-width="0" /><circle cx="316" cy="912" fill="#2b92db" r="3.5" stroke-width="0" /><circle cx="278" cy="902" fill="#2b92db" r="3.5" stroke-width="0" /><circle cx="293" cy="898" fill="#2b92db" r="3.5" stroke-width="0" /><circle cx="377" cy="891" fill="#2b92db" r="3.5" stroke-width="0" /><circle cx="435" cy="882" fill="#2b92db" r="3.5" stroke-width="0" /><circle cx="453" cy="881" fill="#2b92db" r="3.5" stroke-width="0" /><circle cx="315" cy="880" fill="#2b92db" r="3.5" stroke-width="0" /><circle cx="461" cy="876" fill="#2b92db" r="3.5" stroke-width="0" /><circle cx="323" cy="869" fill="#2b92db" r="3.5" stroke-width="0" /><circle cx="305" cy="866" fill="#2b92db" r="3.5" stroke-width="0" /><circle cx="464" cy="866" fill="#2b92db" r="3.5" stroke-width="0" /><circle cx="363" cy="865" fill="#2b92db" r="3.5" stroke-width="0" /><circle cx="372" cy="851" fill="#2b92db" r="3.5" stroke-width="0" /><circle cx="423" cy="844" fill="#2b92db" r="3.5" stroke-width="0" /><circle cx="233" cy="842" fill="#2b92db" r="3.5" stroke-width="0" /><circle cx="247" cy="839" fill="#2b92db" r="3.5" stroke-width="0" /><circle cx="256" cy="835" fill="#2b92db" r="3.5" stroke-width="0" /><circle cx="297" cy="827" fill="#2b92db" r="3.5" stroke-width="0" /><circle cx="282" cy="805" fill="#2b92db" r="3.5" stroke-width="0" /><circle cx="241" cy="803" fill="#2b92db" r="3.5" stroke-width="0" /><circle cx="419" cy="797" fill="#2b92db" r="3.5" stroke-width="0" /><circle cx="389" cy="794" fill="#2b92db" r="3.5" stroke-width="0" /><circle cx="232" cy="789" fill="#2b92db" r="3.5" stroke-width="0" /><circle cx="253" cy="788" fill="#2b92db" r="3.5" stroke-width="0" /><circle cx="348" cy="785" fill="#2b92db" r="3.5" stroke-width="0" /><circle cx="283" cy="783" fill="#2b92db" r="3.5" stroke-width="0" /><circle cx="196" cy="778" fill="#2b92db" r="3.5" stroke-width="0" /><circle cx="394" cy="767" fill="#2b92db" r="3.5" stroke-width="0" /><circle cx="279" cy="765" fill="#2b92db" r="3.5" stroke-width="0" /><circle cx="268" cy="753" fill="#2b92db" r="3.5" stroke-width="0" /><circle cx="296" cy="753" fill="#2b92db" r="3.5" stroke-width="0" /><circle cx="221" cy="752" fill="#2b92db" r="3.5" stroke-width="0" /><circle cx="328" cy="749" fill="#2b92db" r="3.5" stroke-width="0" /><circle cx="271" cy="743" fill="#2b92db" r="3.5" stroke-width="0" /><circle cx="303" cy="735" fill="#2b92db" r="3.5" stroke-width="0" /><circle cx="265" cy="730" fill="#2b92db" r="3.5" stroke-width="0" /><circle cx="353" cy="721" fill="#2b92db" r="3.5" stroke-width="0" /><circle cx="225" cy="719" fill="#2b92db" r="3.5" stroke-width="0" /><circle cx="233" cy="719" fill="#2b92db" r="3.5" stroke-width="0" /><circle cx="356" cy="719" fill="#2b92db" r="3.5" stroke-width="0" /><circle cx="376" cy="716" fill="#2b92db" r="3.5" stroke-width="0" /><circle cx="338" cy="714" fill="#2b92db" r="3.5" stroke-width="0" /><circle cx="283" cy="708" fill="#2b92db" r="3.5" stroke-width="0" /><circle cx="287" cy="703" fill="#2b92db" r="3.5" stroke-width="0" /><circle cx="366" cy="699" fill="#2b92db" r="3.5" stroke-width="0" /><circle cx="280" cy="687" fill="#2b92db" r="3.5" stroke-width="0" /><circle cx="428" cy="677" fill="#2b92db" r="3.5" stroke-width="0" /><circle cx="665" cy="677" fill="#2b92db" r="3.5" stroke-width="0" /><circle cx="276" cy="673" fill="#2b92db" r="3.5" stroke-width="0" /><circle cx="328" cy="668" fill="#2b92db" r="3.5" stroke-width="0" /><circle cx="431" cy="667" fill="#2b92db" r="3.5" stroke-width="0" /><circle cx="320" cy="661" fill="#2b92db" r="3.5" stroke-width="0" /><circle cx="290" cy="657" fill="#2b92db" r="3.5" stroke-width="0" /><circle cx="309" cy="650" fill="#2b92db" r="3.5" stroke-width="0" /><circle cx="353" cy="643" fill="#2b92db" r="3.5" stroke-width="0" /><circle cx="384" cy="627" fill="#2b92db" r="3.5" stroke-width="0" /><circle cx="719" cy="620" fill="#2b92db" r="3.5" stroke-width="0" /><circle cx="719" cy="571" fill="#2b92db" r="3.5" stroke-width="0" /><circle cx="717" cy="562" fill="#2b92db" r="3.5" stroke-width="0" /><circle cx="477" cy="560" fill="#2b92db" r="3.5" stroke-width="0" /><circle cx="447" cy="551" fill="#2b92db" r="3.5" stroke-width="0" /><circle cx="420" cy="539" fill="#2b92db" r="3.5" stroke-width="0" /><circle cx="816" cy="494" fill="#2b92db" r="3.5" stroke-width="0" /><circle cx="706" cy="476" fill="#2b92db" r="3.5" stroke-width="0" /><circle cx="793" cy="474" fill="#2b92db" r="3.5" stroke-width="0" /><circle cx="740" cy="467" fill="#2b92db" r="3.5" stroke-width="0" /><circle cx="781" cy="466" fill="#2b92db" r="3.5" stroke-width="0" /><circle cx="692" cy="462" fill="#2b92db" r="3.5" stroke-width="0" /><circle cx="801" cy="460" fill="#2b92db" r="3.5" stroke-width="0" /><circle cx="772" cy="458" fill="#2b92db" r="3.5" stroke-width="0" /><circle cx="734" cy="451" fill="#2b92db" r="3.5" stroke-width="0" /><circle cx="807" cy="448" fill="#2b92db" r="3.5" stroke-width="0" /><circle cx="844" cy="446" fill="#2b92db" r="3.5" stroke-width="0" /><circle cx="775" cy="443" fill="#2b92db" r="3.5" stroke-width="0" /><circle cx="869" cy="436" fill="#2b92db" r="3.5" stroke-width="0" /><circle cx="794" cy="432" fill="#2b92db" r="3.5" stroke-width="0" /><circle cx="808" cy="432" fill="#2b92db" r="3.5" stroke-width="0" /><circle cx="750" cy="424" fill="#2b92db" r="3.5" stroke-width="0" /><circle cx="760" cy="423" fill="#2b92db" r="3.5" stroke-width="0" /><circle cx="793" cy="423" fill="#2b92db" r="3.5" stroke-width="0" /><circle cx="650" cy="421" fill="#2b92db" r="3.5" stroke-width="0" /><circle cx="746" cy="421" fill="#2b92db" r="3.5" stroke-width="0" /><circle cx="680" cy="417" fill="#2b92db" r="3.5" stroke-width="0" /><circle cx="853" cy="416" fill="#2b92db" r="3.5" stroke-width="0" /><circle cx="860" cy="402" fill="#2b92db" r="3.5" stroke-width="0" /><circle cx="819" cy="400" fill="#2b92db" r="3.5" stroke-width="0" /><circle cx="835" cy="387" fill="#2b92db" r="3.5" stroke-width="0" /><circle cx="850" cy="385" fill="#2b92db" r="3.5" stroke-width="0" /><circle cx="834" cy="378" fill="#2b92db" r="3.5" stroke-width="0" /><circle cx="837" cy="378" fill="#2b92db" r="3.5" stroke-width="0" /><circle cx="947" cy="372" fill="#2b92db" r="3.5" stroke-width="0" /><circle cx="731" cy="367" fill="#2b92db" r="3.5" stroke-width="0" /><circle cx="871" cy="367" fill="#2b92db" r="3.5" stroke-width="0" /><circle cx="848" cy="366" fill="#2b92db" r="3.5" stroke-width="0" /><circle cx="903" cy="366" fill="#2b92db" r="3.5" stroke-width="0" /><circle cx="801" cy="355" fill="#2b92db" r="3.5" stroke-width="0" /><circle cx="896" cy="354" fill="#2b92db" r="3.5" stroke-width="0" /><circle cx="786" cy="351" fill="#2b92db" r="3.5" stroke-width="0" /><circle cx="756" cy="349" fill="#2b92db" r="3.5" stroke-width="0" /><circle cx="759" cy="347" fill="#2b92db" r="3.5" stroke-width="0" /><circle cx="833" cy="346" fill="#2b92db" r="3.5" stroke-width="0" /><circle cx="823" cy="344" fill="#2b92db" r="3.5" stroke-width="0" /><circle cx="736" cy="343" fill="#2b92db" r="3.5" stroke-width="0" /><circle cx="618" cy="336" fill="#2b92db" r="3.5" stroke-width="0" /><circle cx="879" cy="330" fill="#2b92db" r="3.5" stroke-width="0" /><circle cx="804" cy="317" fill="#2b92db" r="3.5" stroke-width="0" /><circle cx="907" cy="317" fill="#2b92db" r="3.5" stroke-width="0" /><circle cx="718" cy="314" fill="#2b92db" r="3.5" stroke-width="0" /><circle cx="699" cy="311" fill="#2b92db" r="3.5" stroke-width="0" /><circle cx="908" cy="304" fill="#2b92db" r="3.5" stroke-width="0" /><circle cx="815" cy="301" fill="#2b92db" r="3.5" stroke-width="0" /><circle cx="764" cy="297" fill="#2b92db" r="3.5" stroke-width="0" /><circle cx="809" cy="295" fill="#2b92db" r="3.5" stroke-width="0" /><circle cx="838" cy="295" fill="#2b92db" r="3.5" stroke-width="0" /><circle cx="982" cy="290" fill="#2b92db" r="3.5" stroke-width="0" /><circle cx="825" cy="288" fill="#2b92db" r="3.5" stroke-width="0" /><circle cx="868" cy="288" fill="#2b92db" r="3.5" stroke-width="0" /><circle cx="771" cy="287" fill="#2b92db" r="3.5" stroke-width="0" /><circle cx="831" cy="285" fill="#2b92db" r="3.5" stroke-width="0" /><circle cx="837" cy="285" fill="#2b92db" r="3.5" stroke-width="0" /><circle cx="696" cy="283" fill="#2b92db" r="3.5" stroke-width="0" /><circle cx="778" cy="283" fill="#2b92db" r="3.5" stroke-width="0" /><circle cx="746" cy="280" fill="#2b92db" r="3.5" stroke-width="0" /><circle cx="879" cy="280" fill="#2b92db" r="3.5" stroke-width="0" /><circle cx="766" cy="276" fill="#2b92db" r="3.5" stroke-width="0" /><circle cx="720" cy="273" fill="#2b92db" r="3.5" stroke-width="0" /><circle cx="855" cy="273" fill="#2b92db" r="3.5" stroke-width="0" /><circle cx="810" cy="268" fill="#2b92db" r="3.5" stroke-width="0" /><circle cx="832" cy="266" fill="#2b92db" r="3.5" stroke-width="0" /><circle cx="832" cy="262" fill="#2b92db" r="3.5" stroke-width="0" /><circle cx="793" cy="261" fill="#2b92db" r="3.5" stroke-width="0" /><circle cx="756" cy="259" fill="#2b92db" r="3.5" stroke-width="0" /><circle cx="786" cy="259" fill="#2b92db" r="3.5" stroke-width="0" /><circle cx="843" cy="252" fill="#2b92db" r="3.5" stroke-width="0" /><circle cx="793" cy="249" fill="#2b92db" r="3.5" stroke-width="0" /><circle cx="799" cy="246" fill="#2b92db" r="3.5" stroke-width="0" /><circle cx="850" cy="242" fill="#2b92db" r="3.5" stroke-width="0" /><circle cx="769" cy="241" fill="#2b92db" r="3.5" stroke-width="0" /><circle cx="830" cy="237" fill="#2b92db" r="3.5" stroke-width="0" /><circle cx="873" cy="237" fill="#2b92db" r="3.5" stroke-width="0" /><circle cx="775" cy="231" fill="#2b92db" r="3.5" stroke-width="0" /><circle cx="876" cy="225" fill="#2b92db" r="3.5" stroke-width="0" /><circle cx="847" cy="212" fill="#2b92db" r="3.5" stroke-width="0" /><circle cx="830" cy="210" fill="#2b92db" r="3.5" stroke-width="0" /><circle cx="804" cy="207" fill="#2b92db" r="3.5" stroke-width="0" /><circle cx="844" cy="205" fill="#2b92db" r="3.5" stroke-width="0" /><circle cx="956" cy="204" fill="#2b92db" r="3.5" stroke-width="0" /><circle cx="852" cy="187" fill="#2b92db" r="3.5" stroke-width="0" /><circle cx="802" cy="174" fill="#2b92db" r="3.5" stroke-width="0" /><circle cx="837" cy="163" fill="#2b92db" r="3.5" stroke-width="0" /><circle cx="941" cy="163" fill="#2b92db" r="3.5" stroke-width="0" /><circle cx="835" cy="159" fill="#2b92db" r="3.5" stroke-width="0" /><circle cx="932" cy="158" fill="#2b92db" r="3.5" stroke-width="0" /><circle cx="806" cy="151" fill="#2b92db" r="3.5" stroke-width="0" /><circle cx="831" cy="148" fill="#2b92db" r="3.5" stroke-width="0" /><circle cx="850" cy="134" fill="#2b92db" r="3.5" stroke-width="0" /><circle cx="870" cy="78" fill="#2b92db" r="3.5" stroke-width="0" /></g><g class="e3"><circle cx="148" cy="784" fill="#911eb4" r="3.5" stroke-width="0" /><circle cx="132" cy="736" fill="#911eb4" r="3.5" stroke-width="0" /><circle cx="142" cy="735" fill="#911eb4" r="3.5" stroke-width="0" /><circle cx="188" cy="721" fill="#911eb4" r="3.5" stroke-width="0" /><circle cx="182" cy="708" fill="#911eb4" r="3.5" stroke-width="0" /><circle cx="178" cy="694" fill="#911eb4" r="3.5" stroke-width="0" /><circle cx="262" cy="669" fill="#911eb4" r="3.5" stroke-width="0" /><circle cx="267" cy="653" fill="#911eb4" r="3.5" stroke-width="0" /><circle cx="203" cy="631" fill="#911eb4" r="3.5" stroke-width="0" /><circle cx="282" cy="611" fill="#911eb4" r="3.5" stroke-width="0" /><circle cx="263" cy="610" fill="#911eb4" r="3.5" stroke-width="0" /><circle cx="297" cy="609" fill="#911eb4" r="3.5" stroke-width="0" /><circle cx="250" cy="593" fill="#911eb4" r="3.5" stroke-width="0" /><circle cx="178" cy="583" fill="#911eb4" r="3.5" stroke-width="0" /><circle cx="266" cy="575" fill="#911eb4" r="3.5" stroke-width="0" /><circle cx="187" cy="572" fill="#911eb4" r="3.5" stroke-width="0" /><circle cx="313" cy="571" fill="#911eb4" r="3.5" stroke-width="0" /><circle cx="360" cy="570" fill="#911eb4" r="3.5" stroke-width="0" /><circle cx="285" cy="569" fill="#911eb4" r="3.5" stroke-width="0" /><circle cx="230" cy="564" fill="#911eb4" r="3.5" stroke-width="0" /><circle cx="361" cy="561" fill="#911eb4" r="3.5" stroke-width="0" /><circle cx="338" cy="555" fill="#911eb4" r="3.5" stroke-width="0" /><circle cx="251" cy="547" fill="#911eb4" r="3.5" stroke-width="0" /><circle cx="327" cy="543" fill="#911eb4" r="3.5" stroke-width="0" /><circle cx="334" cy="541" fill="#911eb4" r="3.5" stroke-width="0" /><circle cx="405" cy="528" fill="#911eb4" r="3.5" stroke-width="0" /><circle cx="271" cy="523" fill="#911eb4" r="3.5" stroke-width="0" /><circle cx="339" cy="520" fill="#911eb4" r="3.5" stroke-width="0" /><circle cx="346" cy="519" fill="#911eb4" r="3.5" stroke-width="0" /><circle cx="177" cy="516" fill="#911eb4" r="3.5" stroke-width="0" /><circle cx="192" cy="515" fill="#911eb4" r="3.5" stroke-width="0" /><circle cx="277" cy="515" fill="#911eb4" r="3.5" stroke-width="0" /><circle cx="348" cy="512" fill="#911eb4" r="3.5" stroke-width="0" /><circle cx="429" cy="509" fill="#911eb4" r="3.5" stroke-width="0" /><circle cx="260" cy="506" fill="#911eb4" r="3.5" stroke-width="0" /><circle cx="368" cy="506" fill="#911eb4" r="3.5" stroke-width="0" /><circle cx="402" cy="504" fill="#911eb4" r="3.5" stroke-width="0" /><circle cx="357" cy="497" fill="#911eb4" r="3.5" stroke-width="0" /><circle cx="384" cy="497" fill="#911eb4" r="3.5" stroke-width="0" /><circle cx="242" cy="493" fill="#911eb4" r="3.5" stroke-width="0" /><circle cx="354" cy="493" fill="#911eb4" r="3.5" stroke-width="0" /><circle cx="343" cy="490" fill="#911eb4" r="3.5" stroke-width="0" /><circle cx="370" cy="489" fill="#911eb4" r="3.5" stroke-width="0" /><circle cx="343" cy="485" fill="#911eb4" r="3.5" stroke-width="0" /><circle cx="386" cy="481" fill="#911eb4" r="3.5" stroke-width="0" /><circle cx="313" cy="476" fill="#911eb4" r="3.5" stroke-width="0" /><circle cx="209" cy="475" fill="#911eb4" r="3.5" stroke-width="0" /><circle cx="262" cy="473" fill="#911eb4" r="3.5" stroke-width="0" /><circle cx="260" cy="472" fill="#911eb4" r="3.5" stroke-width="0" /><circle cx="362" cy="465" fill="#911eb4" r="3.5" stroke-width="0" /><circle cx="371" cy="463" fill="#911eb4" r="3.5" stroke-width="0" /><circle cx="293" cy="460" fill="#911eb4" r="3.5" stroke-width="0" /><circle cx="303" cy="458" fill="#911eb4" r="3.5" stroke-width="0" /><circle cx="392" cy="455" fill="#911eb4" r="3.5" stroke-width="0" /><circle cx="287" cy="453" fill="#911eb4" r="3.5" stroke-width="0" /><circle cx="235" cy="446" fill="#911eb4" r="3.5" stroke-width="0" /><circle cx="362" cy="432" fill="#911eb4" r="3.5" stroke-width="0" /><circle cx="273" cy="429" fill="#911eb4" r="3.5" stroke-width="0" /><circle cx="392" cy="427" fill="#911eb4" r="3.5" stroke-width="0" /><circle cx="280" cy="422" fill="#911eb4" r="3.5" stroke-width="0" /><circle cx="356" cy="421" fill="#911eb4" r="3.5" stroke-width="0" /><circle cx="300" cy="413" fill="#911eb4" r="3.5" stroke-width="0" /><circle cx="297" cy="410" fill="#911eb4" r="3.5" stroke-width="0" /><circle cx="340" cy="410" fill="#911eb4" r="3.5" stroke-width="0" /><circle cx="248" cy="407" fill="#911eb4" r="3.5" stroke-width="0" /><circle cx="311" cy="406" fill="#911eb4" r="3.5" stroke-width="0" /><circle cx="355" cy="404" fill="#911eb4" r="3.5" stroke-width="0" /><circle cx="286" cy="402" fill="#911eb4" r="3.5" stroke-width="0" /><circle cx="257" cy="397" fill="#911eb4" r="3.5" stroke-width="0" /><circle cx="297" cy="390" fill="#911eb4" r="3.5" stroke-width="0" /><circle cx="405" cy="390" fill="#911eb4" r="3.5" stroke-width="0" /><circle cx="437" cy="390" fill="#911eb4" r="3.5" stroke-width="0" /><circle cx="354" cy="389" fill="#911eb4" r="3.5" stroke-width="0" /><circle cx="338" cy="385" fill="#911eb4" r="3.5" stroke-width="0" /><circle cx="235" cy="377" fill="#911eb4" r="3.5" stroke-width="0" /><circle cx="287" cy="370" fill="#911eb4" r="3.5" stroke-width="0" /><circle cx="340" cy="370" fill="#911eb4" r="3.5" stroke-width="0" /><circle cx="245" cy="344" fill="#911eb4" r="3.5" stroke-width="0" /><circle cx="299" cy="337" fill="#911eb4" r="3.5" stroke-width="0" /><circle cx="330" cy="335" fill="#911eb4" r="3.5" stroke-width="0" /><circle cx="299" cy="334" fill="#911eb4" r="3.5" stroke-width="0" /><circle cx="349" cy="324" fill="#911eb4" r="3.5" stroke-width="0" /><circle cx="304" cy="312" fill="#911eb4" r="3.5" stroke-width="0" /><circle cx="349" cy="309" fill="#911eb4" r="3.5" stroke-width="0" /><circle cx="303" cy="307" fill="#911eb4" r="3.5" stroke-width="0" /><circle cx="285" cy="303" fill="#911eb4" r="3.5" stroke-width="0" /><circle cx="363" cy="286" fill="#911eb4" r="3.5" stroke-width="0" /><circle cx="334" cy="281" fill="#911eb4" r="3.5" stroke-width="0" /><circle cx="396" cy="278" fill="#911eb4" r="3.5" stroke-width="0" /><circle cx="398" cy="278" fill="#911eb4" r="3.5" stroke-width="0" /><circle cx="330" cy="277" fill="#911eb4" r="3.5" stroke-width="0" /><circle cx="404" cy="271" fill="#911eb4" r="3.5" stroke-width="0" /><circle cx="353" cy="265" fill="#911eb4" r="3.5" stroke-width="0" /><circle cx="329" cy="262" fill="#911eb4" r="3.5" stroke-width="0" /><circle cx="294" cy="261" fill="#911eb4" r="3.5" stroke-width="0" /><circle cx="354" cy="253" fill="#911eb4" r="3.5" stroke-width="0" /><circle cx="697" cy="237" fill="#911eb4" r="3.5" stroke-width="0" /><circle cx="388" cy="236" fill="#911eb4" r="3.5" stroke-width="0" /><circle cx="668" cy="215" fill="#911eb4" r="3.5" stroke-width="0" /><circle cx="404" cy="188" fill="#911eb4" r="3.5" stroke-width="0" /><circle cx="742" cy="170" fill="#911eb4" r="3.5" stroke-width="0" /><circle cx="730" cy="168" fill="#911eb4" r="3.5" stroke-width="0" /><circle cx="469" cy="156" fill="#911eb4" r="3.5" stroke-width="0" /><circle cx="412" cy="134" fill="#911eb4" r="3.5" stroke-width="0" /><circle cx="699" cy="133" fill="#911eb4" r="3.5" stroke-width="0" /><circle cx="719" cy="132" fill="#911eb4" r="3.5" stroke-width="0" /><circle cx="764" cy="129" fill="#911eb4" r="3.5" stroke-width="0" /><circle cx="811" cy="121" fill="#911eb4" r="3.5" stroke-width="0" /><circle cx="749" cy="117" fill="#911eb4" r="3.5" stroke-width="0" /><circle cx="801" cy="110" fill="#911eb4" r="3.5" stroke-width="0" /><circle cx="823" cy="100" fill="#911eb4" r="3.5" stroke-width="0" /><circle cx="770" cy="99" fill="#911eb4" r="3.5" stroke-width="0" /><circle cx="785" cy="96" fill="#911eb4" r="3.5" stroke-width="0" /><circle cx="847" cy="88" fill="#911eb4" r="3.5" stroke-width="0" /><circle cx="781" cy="87" fill="#911eb4" r="3.5" stroke-width="0" /><circle cx="822" cy="79" fill="#911eb4" r="3.5" stroke-width="0" /></g><g class="e4"><circle cx="90" cy="437" fill="#3cb44B" r="3.5" stroke-width="0" /><circle cx="203" cy="329" fill="#3cb44B" r="3.5" stroke-width="0" /><circle cx="211" cy="319" fill="#3cb44B" r="3.5" stroke-width="0" /><circle cx="124" cy="313" fill="#3cb44B" r="3.5" stroke-width="0" /><circle cx="254" cy="263" fill="#3cb44B" r="3.5" stroke-width="0" /><circle cx="287" cy="257" fill="#3cb44B" r="3.5" stroke-width="0" /><circle cx="184" cy="233" fill="#3cb44B" r="3.5" stroke-width="0" /><circle cx="276" cy="231" fill="#3cb44B" r="3.5" stroke-width="0" /><circle cx="253" cy="224" fill="#3cb44B" r="3.5" stroke-width="0" /><circle cx="312" cy="221" fill="#3cb44B" r="3.5" stroke-width="0" /><circle cx="185" cy="204" fill="#3cb44B" r="3.5" stroke-width="0" /><circle cx="322" cy="202" fill="#3cb44B" r="3.5" stroke-width="0" /><circle cx="355" cy="185" fill="#3cb44B" r="3.5" stroke-width="0" /><circle cx="315" cy="183" fill="#3cb44B" r="3.5" stroke-width="0" /><circle cx="359" cy="180" fill="#3cb44B" r="3.5" stroke-width="0" /><circle cx="314" cy="178" fill="#3cb44B" r="3.5" stroke-width="0" /><circle cx="349" cy="173" fill="#3cb44B" r="3.5" stroke-width="0" /><circle cx="348" cy="171" fill="#3cb44B" r="3.5" stroke-width="0" /><circle cx="267" cy="165" fill="#3cb44B" r="3.5" stroke-width="0" /><circle cx="312" cy="163" fill="#3cb44B" r="3.5" stroke-width="0" /><circle cx="350" cy="163" fill="#3cb44B" r="3.5" stroke-width="0" /><circle cx="300" cy="148" fill="#3cb44B" r="3.5" stroke-width="0" /><circle cx="230" cy="146" fill="#3cb44B" r="3.5" stroke-width="0" /><circle cx="374" cy="145" fill="#3cb44B" r="3.5" stroke-width="0" /><circle cx="372" cy="144" fill="#3cb44B" r="3.5" stroke-width="0" /><circle cx="370" cy="136" fill="#3cb44B" r="3.5" stroke-width="0" /><circle cx="241" cy="135" fill="#3cb44B" r="3.5" stroke-width="0" /><circle cx="294" cy="135" fill="#3cb44B" r="3.5" stroke-width="0" /><circle cx="352" cy="128" fill="#3cb44B" r="3.5" stroke-width="0" /><circle cx="278" cy="127" fill="#3cb44B" r="3.5" stroke-width="0" /><circle cx="286" cy="122" fill="#3cb44B" r="3.5" stroke-width="0" /><circle cx="387" cy="103" fill="#3cb44B" r="3.5" stroke-width="0" /><circle cx="372" cy="98" fill="#3cb44B" r="3.5" stroke-width="0" /><circle cx="329" cy="97" fill="#3cb44B" r="3.5" stroke-width="0" /><circle cx="193" cy="94" fill="#3cb44B" r="3.5" stroke-width="0" /><circle cx="403" cy="91" fill="#3cb44B" r="3.5" stroke-width="0" /><circle cx="343" cy="87" fill="#3cb44B" r="3.5" stroke-width="0" /><circle cx="426" cy="86" fill="#3cb44B" r="3.5" stroke-width="0" /><circle cx="329" cy="82" fill="#3cb44B" r="3.5" stroke-width="0" /><circle cx="368" cy="78" fill="#3cb44B" r="3.5" stroke-width="0" /></g></g></g></svg>