<?xml version="1.0" encoding="utf-8" ?>
<svg baseProfile="full" height="1140px" style="font-size:15;font-family:Arial, san-serif;font-weight:bold;stroke:black;stroke-width:0;fill:#444444" version="1.1" width="1140px" xmlns="http://www.w3.org/2000/svg" xmlns:ev="http://www.w3.org/2001/xml-events" xmlns:xlink="http://www.w3.org/1999/xlink"><defs><clipPath id="areadografico"><rect height="1000" width="1000" x="70" y="70" /></clipPath></defs><g class="master"><g class="poligonos"><polygon clip-path="url(#areadografico)" fill="#000000" fill-opacity="0.1" points="1069,1070 1069,405 405,1070" /><polygon clip-path="url(#areadografico)" fill="#ffffff" fill-opacity="0.1" points="405,1070 -261,1070 1069,-261 1069,405" /><polygon clip-path="url(#areadografico)" fill="#000000" fill-opacity="0.1" points="70,70 70,738 738,70" /></g><g class="linhas"><line fill-opacity="0.3" stroke="#999999" stroke-width="1" x1="1070" x2="1070" y1="1070" y2="70" /><line fill-opacity="0.3" stroke="#999999" stroke-width="1" x1="70" x2="1070" y1="70" y2="70" /><line fill-opacity="0.3" stroke="#999999" stroke-width="1" x1="970" x2="970" y1="1070" y2="70" /><line fill-opacity="0.3" stroke="#999999" stroke-width="1" x1="70" x2="1070" y1="170" y2="170" /><line fill-opacity="0.3" stroke="#999999" stroke-width="1" x1="870" x2="870" y1="1070" y2="70" /><line fill-opacity="0.3" stroke="#999999" stroke-width="1" x1="70" x2="1070" y1="270" y2="270" /><line fill-opacity="0.3" stroke="#999999" stroke-width="1" x1="770" x2="770" y1="1070" y2="70" /><line fill-opacity="0.3" stroke="#999999" stroke-width="1" x1="70" x2="1070" y1="370" y2="370" /><line fill-opacity="0.3" stroke="#999999" stroke-width="1" x1="670" x2="670" y1="1070" y2="70" /><line fill-opacity="0.3" stroke="#999999" stroke-width="1" x1="70" x2="1070" y1="470" y2="470" /><line fill-opacity="0.3" stroke="#999999" stroke-width="1" x1="570" x2="570" y1="1070" y2="70" /><line fill-opacity="0.3" stroke="#999999" stroke-width="1" x1="70" x2="1070" y1="570" y2="570" /><line fill-opacity="0.3" stroke="#999999" stroke-width="1" x1="470" x2="470" y1="1070" y2="70" /><line fill-opacity="0.3" stroke="#999999" stroke-width="1" x1="70" x2="1070" y1="670" y2="670" /><line fill-opacity="0.3" stroke="#999999" stroke-width="1" x1="370" x2="370" y1="1070" y2="70" /><line fill-opacity="0.3" stroke="#999999" stroke-width="1" x1="70" x2="1070" y1="770" y2="770" /><line fill-opacity="0.3" stroke="#999999" stroke-width="1" x1="270" x2="270" y1="1070" y2="70" /><line fill-opacity="0.3" stroke="#999999" stroke-width="1" x1="70" x2="1070" y1="870" y2="870" /><line fill-opacity="0.3" stroke="#999999" stroke-width="1" x1="170" x2="170" y1="1070" y2="70" /><line fill-opacity="0.3" stroke="#999999" stroke-width="1" x1="70" x2="1070" y1="970" y2="970" /><line fill-opacity="0.3" stroke="#000000" stroke-width="1" x1="70" x2="70" y1="1071" y2="69" /><line fill-opacity="0.3" stroke="#000000" stroke-width="1" x1="69" x2="1071" y1="1070" y2="1070" /></g><g class="textos"><text x="1050" y="1110">1000</text><text x="10" y="71">1000</text><text x="950" y="1110">900</text><text x="10" y="171">900</text><text x="850" y="1110">800</text><text x="10" y="271">800</text><text x="750" y="1110">700</text><text x="10" y="371">700</text><text x="650" y="1110">600</text><text x="10" y="471">600</text><text x="550" y="1110">500</text><text x="10" y="571">500</text><text x="450" y="1110">400</text><text x="10" y="671">400</text><text x="350" y="1110">300</text><text x="10" y="771">300</text><text x="250" y="1110">200</text><text x="10" y="871">200</text><text x="150" y="1110">100</text><text x="10" y="971">100</text><text x="50" y="1111">0</text><text x="9" y="1071">0</text></g><g class="especies"><g class="e0"><circle cx="792" cy="1049" fill="#3cb44B" r="3.5" stroke-width="0" /><circle cx="760" cy="949" fill="#3cb44B" r="3.5" stroke-width="0" /><circle cx="766" cy="928" fill="#3cb44B" r="3.5" stroke-width="0" /><circle cx="805" cy="917" fill="#3cb44B" r="3.5" stroke-width="0" /><circle cx="859" cy="897" fill="#3cb44B" r="3.5" stroke-width="0" /><circle cx="812" cy="888" fill="#3cb44B" r="3.5" stroke-width="0" /><circle cx="757" cy="869" fill="#3cb44B" r="3.5" stroke-width="0" /><circle cx="813" cy="866" fill="#3cb44B" r="3.5" stroke-width="0" /><circle cx="843" cy="838" fill="#3cb44B" r="3.5" stroke-width="0" /><circle cx="799" cy="832" fill="#3cb44B" r="3.5" stroke-width="0" /><circle cx="824" cy="802" fill="#3cb44B" r="3.5" stroke-width="0" /><circle cx="809" cy="778" fill="#3cb44B" r="3.5" stroke-width="0" /><circle cx="794" cy="769" fill="#3cb44B" r="3.5" stroke-width="0" /><circle cx="834" cy="696" fill="#3cb44B" r="3.5" stroke-width="0" /></g><g class="e1"><circle cx="343" cy="996" fill="#ff0000" r="3.5" stroke-width="0" /><circle cx="350" cy="974" fill="#ff0000" r="3.5" stroke-width="0" /><circle cx="397" cy="968" fill="#ff0000" r="3.5" stroke-width="0" /><circle cx="297" cy="955" fill="#ff0000" r="3.5" stroke-width="0" /><circle cx="335" cy="916" fill="#ff0000" r="3.5" stroke-width="0" /><circle cx="305" cy="897" fill="#ff0000" r="3.5" stroke-width="0" /><circle cx="413" cy="866" fill="#ff0000" r="3.5" stroke-width="0" /><circle cx="360" cy="755" fill="#ff0000" r="3.5" stroke-width="0" /><circle cx="248" cy="717" fill="#ff0000" r="3.5" stroke-width="0" /><circle cx="227" cy="705" fill="#ff0000" r="3.5" stroke-width="0" /><circle cx="367" cy="665" fill="#ff0000" r="3.5" stroke-width="0" /><circle cx="361" cy="655" fill="#ff0000" r="3.5" stroke-width="0" /><circle cx="815" cy="629" fill="#ff0000" r="3.5" stroke-width="0" /><circle cx="354" cy="612" fill="#ff0000" r="3.5" stroke-width="0" /><circle cx="819" cy="605" fill="#ff0000" r="3.5" stroke-width="0" /><circle cx="821" cy="601" fill="#ff0000" r="3.5" stroke-width="0" /><circle cx="855" cy="600" fill="#ff0000" r="3.5" stroke-width="0" /><circle cx="292" cy="599" fill="#ff0000" r="3.5" stroke-width="0" /><circle cx="355" cy="594" fill="#ff0000" r="3.5" stroke-width="0" /><circle cx="333" cy="588" fill="#ff0000" r="3.5" stroke-width="0" /><circle cx="862" cy="588" fill="#ff0000" r="3.5" stroke-width="0" /><circle cx="809" cy="587" fill="#ff0000" r="3.5" stroke-width="0" /><circle cx="359" cy="530" fill="#ff0000" r="3.5" stroke-width="0" /><circle cx="783" cy="523" fill="#ff0000" r="3.5" stroke-width="0" /><circle cx="357" cy="518" fill="#ff0000" r="3.5" stroke-width="0" /><circle cx="308" cy="517" fill="#ff0000" r="3.5" stroke-width="0" /><circle cx="432" cy="505" fill="#ff0000" r="3.5" stroke-width="0" /><circle cx="801" cy="472" fill="#ff0000" r="3.5" stroke-width="0" /><circle cx="788" cy="434" fill="#ff0000" r="3.5" stroke-width="0" /><circle cx="822" cy="390" fill="#ff0000" r="3.5" stroke-width="0" /><circle cx="810" cy="376" fill="#ff0000" r="3.5" stroke-width="0" /><circle cx="802" cy="374" fill="#ff0000" r="3.5" stroke-width="0" /><circle cx="831" cy="315" fill="#ff0000" r="3.5" stroke-width="0" /><circle cx="833" cy="313" fill="#ff0000" r="3.5" stroke-width="0" /><circle cx="769" cy="299" fill="#ff0000" r="3.5" stroke-width="0" /><circle cx="789" cy="289" fill="#ff0000" r="3.5" stroke-width="0" /><circle cx="789" cy="272" fill="#ff0000" r="3.5" stroke-width="0" /><circle cx="781" cy="254" fill="#ff0000" r="3.5" stroke-width="0" /><circle cx="905" cy="180" fill="#ff0000" r="3.5" stroke-width="0" /><circle cx="938" cy="168" fill="#ff0000" r="3.5" stroke-width="0" /><circle cx="843" cy="165" fill="#ff0000" r="3.5" stroke-width="0" /><circle cx="776" cy="163" fill="#ff0000" r="3.5" stroke-width="0" /><circle cx="928" cy="149" fill="#ff0000" r="3.5" stroke-width="0" /><circle cx="815" cy="76" fill="#ff0000" r="3.5" stroke-width="0" /></g><g class="e2"><circle cx="143" cy="558" fill="#2b92db" r="3.5" stroke-width="0" /><circle cx="326" cy="451" fill="#2b92db" r="3.5" stroke-width="0" /><circle cx="300" cy="433" fill="#2b92db" r="3.5" stroke-width="0" /><circle cx="298" cy="429" fill="#2b92db" r="3.5" stroke-width="0" /><circle cx="316" cy="367" fill="#2b92db" r="3.5" stroke-width="0" /><circle cx="277" cy="366" fill="#2b92db" r="3.5" stroke-width="0" /><circle cx="411" cy="359" fill="#2b92db" r="3.5" stroke-width="0" /><circle cx="334" cy="323" fill="#2b92db" r="3.5" stroke-width="0" /><circle cx="334" cy="309" fill="#2b92db" r="3.5" stroke-width="0" /><circle cx="299" cy="302" fill="#2b92db" r="3.5" stroke-width="0" /><circle cx="368" cy="255" fill="#2b92db" r="3.5" stroke-width="0" /><circle cx="344" cy="211" fill="#2b92db" r="3.5" stroke-width="0" /><circle cx="196" cy="190" fill="#2b92db" r="3.5" stroke-width="0" /><circle cx="337" cy="190" fill="#2b92db" r="3.5" stroke-width="0" /><circle cx="326" cy="148" fill="#2b92db" r="3.5" stroke-width="0" /><circle cx="311" cy="130" fill="#2b92db" r="3.5" stroke-width="0" /><circle cx="288" cy="128" fill="#2b92db" r="3.5" stroke-width="0" /><circle cx="244" cy="100" fill="#2b92db" r="3.5" stroke-width="0" /></g></g></g></svg>