<?xml version="1.0" encoding="utf-8" ?>
<svg baseProfile="full" height="1140px" style="font-size:15;font-family:Arial, san-serif;font-weight:bold;stroke:black;stroke-width:0;fill:#444444" version="1.1" width="1140px" xmlns="http://www.w3.org/2000/svg" xmlns:ev="http://www.w3.org/2001/xml-events" xmlns:xlink="http://www.w3.org/1999/xlink"><defs><clipPath id="areadografico"><rect height="1000" width="1000" x="70" y="70" /></clipPath></defs><g class="master"><g class="poligonos"><polygon clip-path="url(#areadografico)" fill="#000000" fill-opacity="0.1" points="1069,1070 1069,890 890,1070" /><polygon clip-path="url(#areadografico)" fill="#ffffff" fill-opacity="0.1" points="890,1070 709,1070 1069,709 1069,890" /><polygon clip-path="url(#areadografico)" fill="#000000" fill-opacity="0.1" points="709,1070 528,1070 1069,528 1069,709" /><polygon clip-path="url(#areadografico)" fill="#ffffff" fill-opacity="0.1" points="528,1070 347,1070 1069,347 1069,528" /><polygon clip-path="url(#areadografico)" fill="#000000" fill-opacity="0.1" points="347,1070 166,1070 1069,166 1069,347" /><polygon clip-path="url(#areadografico)" fill="#ffffff" fill-opacity="0.1" points="166,1070 -15,1070 1069,-15 1069,166" /><polygon clip-path="url(#areadografico)" fill="#000000" fill-opacity="0.1" points="-15,1070 -196,1070 1069,-196 1069,-15" /><polygon clip-path="url(#areadografico)" fill="#ffffff" fill-opacity="0.1" points="-196,1070 -377,1070 1069,-377 1069,-196" /><polygon clip-path="url(#areadografico)" fill="#000000" fill-opacity="0.1" points="-377,1070 -558,1070 1069,-558 1069,-377" /><polygon clip-path="url(#areadografico)" fill="#ffffff" fill-opacity="0.1" points="-558,1070 -739,1070 1069,-739 1069,-558" /><polygon clip-path="url(#areadografico)" fill="#000000" fill-opacity="0.1" points="70,70 70,260 260,70" /></g><g class="linhas"><line fill-opacity="0.3" stroke="#999999" stroke-width="1" x1="1070" x2="1070" y1="1070" y2="70" /><line fill-opacity="0.3" stroke="#999999" stroke-width="1" x1="70" x2="1070" y1="70" y2="70" /><line fill-opacity="0.3" stroke="#999999" stroke-width="1" x1="970" x2="970" y1="1070" y2="70" /><line fill-opacity="0.3" stroke="#999999" stroke-width="1" x1="70" x2="1070" y1="170" y2="170" /><line fill-opacity="0.3" stroke="#999999" stroke-width="1" x1="870" x2="870" y1="1070" y2="70" /><line fill-opacity="0.3" stroke="#999999" stroke-width="1" x1="70" x2="1070" y1="270" y2="270" /><line fill-opacity="0.3" stroke="#999999" stroke-width="1" x1="770" x2="770" y1="1070" y2="70" /><line fill-opacity="0.3" stroke="#999999" stroke-width="1" x1="70" x2="1070" y1="370" y2="370" /><line fill-opacity="0.3" stroke="#999999" stroke-width="1" x1="670" x2="670" y1="1070" y2="70" /><line fill-opacity="0.3" stroke="#999999" stroke-width="1" x1="70" x2="1070" y1="470" y2="470" /><line fill-opacity="0.3" stroke="#999999" stroke-width="1" x1="570" x2="570" y1="1070" y2="70" /><line fill-opacity="0.3" stroke="#999999" stroke-width="1" x1="70" x2="1070" y1="570" y2="570" /><line fill-opacity="0.3" stroke="#999999" stroke-width="1" x1="470" x2="470" y1="1070" y2="70" /><line fill-opacity="0.3" stroke="#999999" stroke-width="1" x1="70" x2="1070" y1="670" y2="670" /><line fill-opacity="0.3" stroke="#999999" stroke-width="1" x1="370" x2="370" y1="1070" y2="70" /><line fill-opacity="0.3" stroke="#999999" stroke-width="1" x1="70" x2="1070" y1="770" y2="770" /><line fill-opacity="0.3" stroke="#999999" stroke-width="1" x1="270" x2="270" y1="1070" y2="70" /><line fill-opacity="0.3" stroke="#999999" stroke-width="1" x1="70" x2="1070" y1="870" y2="870" /><line fill-opacity="0.3" stroke="#999999" stroke-width="1" x1="170" x2="170" y1="1070" y2="70" /><line fill-opacity="0.3" stroke="#999999" stroke-width="1" x1="70" x2="1070" y1="970" y2="970" /><line fill-opacity="0.3" stroke="#000000" stroke-width="1" x1="70" x2="70" y1="1071" y2="69" /><line fill-opacity="0.3" stroke="#000000" stroke-width="1" x1="69" x2="1071" y1="1070" y2="1070" /></g><g class="textos"><text x="1050" y="1110">1000</text><text x="10" y="71">1000</text><text x="950" y="1110">900</text><text x="10" y="171">900</text><text x="850" y="1110">800</text><text x="10" y="271">800</text><text x="750" y="1110">700</text><text x="10" y="371">700</text><text x="650" y="1110">600</text><text x="10" y="471">600</text><text x="550" y="1110">500</text><text x="10" y="571">500</text><text x="450" y="1110">400</text><text x="10" y="671">400</text><text x="350" y="1110">300</text><text x="10" y="771">300</text><text x="250" y="1110">200</text><text x="10" y="871">200</text><text x="150" y="1110">100</text><text x="10" y="971">100</text><text x="50" y="1111">0</text><text x="9" y="1071">0</text></g><g class="especies"><g class="e0" /><g class="e1"><circle cx="817" cy="1067" fill="#ff0000" r="3.5" stroke-width="0" /><circle cx="876" cy="1065" fill="#ff0000" r="3.5" stroke-width="0" /><circle cx="858" cy="1059" fill="#ff0000" r="3.5" stroke-width="0" /><circle cx="850" cy="1051" fill="#ff0000" r="3.5" stroke-width="0" /><circle cx="812" cy="1050" fill="#ff0000" r="3.5" stroke-width="0" /><circle cx="830" cy="1050" fill="#ff0000" r="3.5" stroke-width="0" /><circle cx="873" cy="1046" fill="#ff0000" r="3.5" stroke-width="0" /><circle cx="874" cy="1021" fill="#ff0000" r="3.5" stroke-width="0" /><circle cx="799" cy="1020" fill="#ff0000" r="3.5" stroke-width="0" /><circle cx="774" cy="1006" fill="#ff0000" r="3.5" stroke-width="0" /><circle cx="869" cy="996" fill="#ff0000" r="3.5" stroke-width="0" /><circle cx="794" cy="992" fill="#ff0000" r="3.5" stroke-width="0" /><circle cx="819" cy="991" fill="#ff0000" r="3.5" stroke-width="0" /><circle cx="831" cy="964" fill="#ff0000" r="3.5" stroke-width="0" /><circle cx="866" cy="961" fill="#ff0000" r="3.5" stroke-width="0" /><circle cx="853" cy="957" fill="#ff0000" r="3.5" stroke-width="0" /><circle cx="837" cy="950" fill="#ff0000" r="3.5" stroke-width="0" /><circle cx="864" cy="946" fill="#ff0000" r="3.5" stroke-width="0" /><circle cx="884" cy="903" fill="#ff0000" r="3.5" stroke-width="0" /><circle cx="893" cy="890" fill="#ff0000" r="3.5" stroke-width="0" /><circle cx="906" cy="878" fill="#ff0000" r="3.5" stroke-width="0" /></g><g class="e2"><circle cx="737" cy="998" fill="#2b92db" r="3.5" stroke-width="0" /><circle cx="791" cy="986" fill="#2b92db" r="3.5" stroke-width="0" /><circle cx="763" cy="978" fill="#2b92db" r="3.5" stroke-width="0" /><circle cx="814" cy="963" fill="#2b92db" r="3.5" stroke-width="0" /><circle cx="813" cy="959" fill="#2b92db" r="3.5" stroke-width="0" /><circle cx="798" cy="916" fill="#2b92db" r="3.5" stroke-width="0" /><circle cx="815" cy="908" fill="#2b92db" r="3.5" stroke-width="0" /><circle cx="814" cy="907" fill="#2b92db" r="3.5" stroke-width="0" /><circle cx="833" cy="903" fill="#2b92db" r="3.5" stroke-width="0" /><circle cx="819" cy="902" fill="#2b92db" r="3.5" stroke-width="0" /><circle cx="822" cy="899" fill="#2b92db" r="3.5" stroke-width="0" /><circle cx="814" cy="896" fill="#2b92db" r="3.5" stroke-width="0" /><circle cx="740" cy="890" fill="#2b92db" r="3.5" stroke-width="0" /><circle cx="837" cy="889" fill="#2b92db" r="3.5" stroke-width="0" /><circle cx="828" cy="886" fill="#2b92db" r="3.5" stroke-width="0" /><circle cx="800" cy="885" fill="#2b92db" r="3.5" stroke-width="0" /><circle cx="845" cy="884" fill="#2b92db" r="3.5" stroke-width="0" /><circle cx="890" cy="877" fill="#2b92db" r="3.5" stroke-width="0" /><circle cx="781" cy="859" fill="#2b92db" r="3.5" stroke-width="0" /><circle cx="925" cy="849" fill="#2b92db" r="3.5" stroke-width="0" /><circle cx="836" cy="848" fill="#2b92db" r="3.5" stroke-width="0" /><circle cx="824" cy="846" fill="#2b92db" r="3.5" stroke-width="0" /><circle cx="787" cy="834" fill="#2b92db" r="3.5" stroke-width="0" /><circle cx="876" cy="832" fill="#2b92db" r="3.5" stroke-width="0" /><circle cx="826" cy="827" fill="#2b92db" r="3.5" stroke-width="0" /><circle cx="845" cy="813" fill="#2b92db" r="3.5" stroke-width="0" /><circle cx="800" cy="807" fill="#2b92db" r="3.5" stroke-width="0" /><circle cx="879" cy="800" fill="#2b92db" r="3.5" stroke-width="0" /><circle cx="869" cy="794" fill="#2b92db" r="3.5" stroke-width="0" /><circle cx="825" cy="781" fill="#2b92db" r="3.5" stroke-width="0" /><circle cx="857" cy="778" fill="#2b92db" r="3.5" stroke-width="0" /><circle cx="860" cy="752" fill="#2b92db" r="3.5" stroke-width="0" /><circle cx="862" cy="748" fill="#2b92db" r="3.5" stroke-width="0" /><circle cx="872" cy="745" fill="#2b92db" r="3.5" stroke-width="0" /><circle cx="878" cy="738" fill="#2b92db" r="3.5" stroke-width="0" /><circle cx="878" cy="736" fill="#2b92db" r="3.5" stroke-width="0" /><circle cx="959" cy="681" fill="#2b92db" r="3.5" stroke-width="0" /></g><g class="e3"><circle cx="765" cy="817" fill="#911eb4" r="3.5" stroke-width="0" /><circle cx="777" cy="815" fill="#911eb4" r="3.5" stroke-width="0" /><circle cx="796" cy="791" fill="#911eb4" r="3.5" stroke-width="0" /><circle cx="791" cy="790" fill="#911eb4" r="3.5" stroke-width="0" /><circle cx="822" cy="769" fill="#911eb4" r="3.5" stroke-width="0" /><circle cx="796" cy="768" fill="#911eb4" r="3.5" stroke-width="0" /><circle cx="761" cy="764" fill="#911eb4" r="3.5" stroke-width="0" /><circle cx="786" cy="763" fill="#911eb4" r="3.5" stroke-width="0" /><circle cx="809" cy="761" fill="#911eb4" r="3.5" stroke-width="0" /><circle cx="810" cy="759" fill="#911eb4" r="3.5" stroke-width="0" /><circle cx="800" cy="753" fill="#911eb4" r="3.5" stroke-width="0" /><circle cx="783" cy="739" fill="#911eb4" r="3.5" stroke-width="0" /><circle cx="805" cy="738" fill="#911eb4" r="3.5" stroke-width="0" /><circle cx="815" cy="737" fill="#911eb4" r="3.5" stroke-width="0" /><circle cx="848" cy="736" fill="#911eb4" r="3.5" stroke-width="0" /><circle cx="837" cy="723" fill="#911eb4" r="3.5" stroke-width="0" /><circle cx="856" cy="723" fill="#911eb4" r="3.5" stroke-width="0" /><circle cx="809" cy="719" fill="#911eb4" r="3.5" stroke-width="0" /><circle cx="803" cy="715" fill="#911eb4" r="3.5" stroke-width="0" /><circle cx="863" cy="711" fill="#911eb4" r="3.5" stroke-width="0" /><circle cx="824" cy="707" fill="#911eb4" r="3.5" stroke-width="0" /><circle cx="806" cy="702" fill="#911eb4" r="3.5" stroke-width="0" /><circle cx="775" cy="689" fill="#911eb4" r="3.5" stroke-width="0" /><circle cx="863" cy="687" fill="#911eb4" r="3.5" stroke-width="0" /><circle cx="733" cy="686" fill="#911eb4" r="3.5" stroke-width="0" /><circle cx="781" cy="682" fill="#911eb4" r="3.5" stroke-width="0" /><circle cx="786" cy="676" fill="#911eb4" r="3.5" stroke-width="0" /><circle cx="840" cy="674" fill="#911eb4" r="3.5" stroke-width="0" /><circle cx="870" cy="671" fill="#911eb4" r="3.5" stroke-width="0" /><circle cx="837" cy="670" fill="#911eb4" r="3.5" stroke-width="0" /><circle cx="833" cy="669" fill="#911eb4" r="3.5" stroke-width="0" /><circle cx="823" cy="666" fill="#911eb4" r="3.5" stroke-width="0" /><circle cx="843" cy="663" fill="#911eb4" r="3.5" stroke-width="0" /><circle cx="848" cy="661" fill="#911eb4" r="3.5" stroke-width="0" /><circle cx="875" cy="655" fill="#911eb4" r="3.5" stroke-width="0" /><circle cx="832" cy="651" fill="#911eb4" r="3.5" stroke-width="0" /><circle cx="822" cy="650" fill="#911eb4" r="3.5" stroke-width="0" /><circle cx="863" cy="650" fill="#911eb4" r="3.5" stroke-width="0" /><circle cx="851" cy="639" fill="#911eb4" r="3.5" stroke-width="0" /><circle cx="847" cy="637" fill="#911eb4" r="3.5" stroke-width="0" /><circle cx="864" cy="635" fill="#911eb4" r="3.5" stroke-width="0" /><circle cx="829" cy="611" fill="#911eb4" r="3.5" stroke-width="0" /><circle cx="821" cy="601" fill="#911eb4" r="3.5" stroke-width="0" /><circle cx="842" cy="581" fill="#911eb4" r="3.5" stroke-width="0" /><circle cx="893" cy="536" fill="#911eb4" r="3.5" stroke-width="0" /></g><g class="e4"><circle cx="337" cy="1060" fill="#3cb44B" r="3.5" stroke-width="0" /><circle cx="296" cy="1057" fill="#3cb44B" r="3.5" stroke-width="0" /><circle cx="308" cy="1056" fill="#3cb44B" r="3.5" stroke-width="0" /><circle cx="350" cy="1053" fill="#3cb44B" r="3.5" stroke-width="0" /><circle cx="289" cy="1041" fill="#3cb44B" r="3.5" stroke-width="0" /><circle cx="235" cy="1040" fill="#3cb44B" r="3.5" stroke-width="0" /><circle cx="306" cy="1038" fill="#3cb44B" r="3.5" stroke-width="0" /><circle cx="344" cy="1034" fill="#3cb44B" r="3.5" stroke-width="0" /><circle cx="303" cy="1032" fill="#3cb44B" r="3.5" stroke-width="0" /><circle cx="303" cy="1028" fill="#3cb44B" r="3.5" stroke-width="0" /><circle cx="332" cy="999" fill="#3cb44B" r="3.5" stroke-width="0" /><circle cx="397" cy="998" fill="#3cb44B" r="3.5" stroke-width="0" /><circle cx="299" cy="988" fill="#3cb44B" r="3.5" stroke-width="0" /><circle cx="365" cy="986" fill="#3cb44B" r="3.5" stroke-width="0" /><circle cx="263" cy="984" fill="#3cb44B" r="3.5" stroke-width="0" /><circle cx="347" cy="983" fill="#3cb44B" r="3.5" stroke-width="0" /><circle cx="270" cy="982" fill="#3cb44B" r="3.5" stroke-width="0" /><circle cx="395" cy="953" fill="#3cb44B" r="3.5" stroke-width="0" /><circle cx="327" cy="951" fill="#3cb44B" r="3.5" stroke-width="0" /><circle cx="389" cy="951" fill="#3cb44B" r="3.5" stroke-width="0" /><circle cx="413" cy="926" fill="#3cb44B" r="3.5" stroke-width="0" /><circle cx="384" cy="922" fill="#3cb44B" r="3.5" stroke-width="0" /><circle cx="758" cy="658" fill="#3cb44B" r="3.5" stroke-width="0" /><circle cx="776" cy="621" fill="#3cb44B" r="3.5" stroke-width="0" /><circle cx="788" cy="614" fill="#3cb44B" r="3.5" stroke-width="0" /><circle cx="702" cy="594" fill="#3cb44B" r="3.5" stroke-width="0" /><circle cx="822" cy="594" fill="#3cb44B" r="3.5" stroke-width="0" /><circle cx="760" cy="590" fill="#3cb44B" r="3.5" stroke-width="0" /><circle cx="763" cy="588" fill="#3cb44B" r="3.5" stroke-width="0" /><circle cx="822" cy="586" fill="#3cb44B" r="3.5" stroke-width="0" /><circle cx="840" cy="575" fill="#3cb44B" r="3.5" stroke-width="0" /><circle cx="798" cy="573" fill="#3cb44B" r="3.5" stroke-width="0" /><circle cx="842" cy="572" fill="#3cb44B" r="3.5" stroke-width="0" /><circle cx="733" cy="571" fill="#3cb44B" r="3.5" stroke-width="0" /><circle cx="765" cy="569" fill="#3cb44B" r="3.5" stroke-width="0" /><circle cx="786" cy="565" fill="#3cb44B" r="3.5" stroke-width="0" /><circle cx="833" cy="563" fill="#3cb44B" r="3.5" stroke-width="0" /><circle cx="841" cy="561" fill="#3cb44B" r="3.5" stroke-width="0" /><circle cx="799" cy="554" fill="#3cb44B" r="3.5" stroke-width="0" /><circle cx="742" cy="553" fill="#3cb44B" r="3.5" stroke-width="0" /><circle cx="821" cy="552" fill="#3cb44B" r="3.5" stroke-width="0" /><circle cx="796" cy="548" fill="#3cb44B" r="3.5" stroke-width="0" /><circle cx="820" cy="546" fill="#3cb44B" r="3.5" stroke-width="0" /><circle cx="819" cy="545" fill="#3cb44B" r="3.5" stroke-width="0" /><circle cx="797" cy="540" fill="#3cb44B" r="3.5" stroke-width="0" /><circle cx="813" cy="540" fill="#3cb44B" r="3.5" stroke-width="0" /><circle cx="859" cy="539" fill="#3cb44B" r="3.5" stroke-width="0" /><circle cx="797" cy="535" fill="#3cb44B" r="3.5" stroke-width="0" /><circle cx="817" cy="533" fill="#3cb44B" r="3.5" stroke-width="0" /><circle cx="752" cy="529" fill="#3cb44B" r="3.5" stroke-width="0" /><circle cx="804" cy="529" fill="#3cb44B" r="3.5" stroke-width="0" /><circle cx="839" cy="529" fill="#3cb44B" r="3.5" stroke-width="0" /><circle cx="849" cy="528" fill="#3cb44B" r="3.5" stroke-width="0" /><circle cx="796" cy="523" fill="#3cb44B" r="3.5" stroke-width="0" /><circle cx="825" cy="507" fill="#3cb44B" r="3.5" stroke-width="0" /><circle cx="820" cy="506" fill="#3cb44B" r="3.5" stroke-width="0" /><circle cx="808" cy="505" fill="#3cb44B" r="3.5" stroke-width="0" /><circle cx="885" cy="504" fill="#3cb44B" r="3.5" stroke-width="0" /><circle cx="869" cy="502" fill="#3cb44B" r="3.5" stroke-width="0" /><circle cx="790" cy="500" fill="#3cb44B" r="3.5" stroke-width="0" /><circle cx="848" cy="500" fill="#3cb44B" r="3.5" stroke-width="0" /><circle cx="785" cy="499" fill="#3cb44B" r="3.5" stroke-width="0" /><circle cx="840" cy="486" fill="#3cb44B" r="3.5" stroke-width="0" /><circle cx="771" cy="484" fill="#3cb44B" r="3.5" stroke-width="0" /><circle cx="838" cy="484" fill="#3cb44B" r="3.5" stroke-width="0" /><circle cx="758" cy="483" fill="#3cb44B" r="3.5" stroke-width="0" /><circle cx="803" cy="481" fill="#3cb44B" r="3.5" stroke-width="0" /><circle cx="837" cy="481" fill="#3cb44B" r="3.5" stroke-width="0" /><circle cx="856" cy="481" fill="#3cb44B" r="3.5" stroke-width="0" /><circle cx="851" cy="480" fill="#3cb44B" r="3.5" stroke-width="0" /><circle cx="817" cy="475" fill="#3cb44B" r="3.5" stroke-width="0" /><circle cx="815" cy="472" fill="#3cb44B" r="3.5" stroke-width="0" /><circle cx="819" cy="470" fill="#3cb44B" r="3.5" stroke-width="0" /><circle cx="868" cy="468" fill="#3cb44B" r="3.5" stroke-width="0" /><circle cx="893" cy="468" fill="#3cb44B" r="3.5" stroke-width="0" /><circle cx="776" cy="461" fill="#3cb44B" r="3.5" stroke-width="0" /><circle cx="827" cy="457" fill="#3cb44B" r="3.5" stroke-width="0" /><circle cx="785" cy="453" fill="#3cb44B" r="3.5" stroke-width="0" /><circle cx="797" cy="452" fill="#3cb44B" r="3.5" stroke-width="0" /><circle cx="862" cy="451" fill="#3cb44B" r="3.5" stroke-width="0" /><circle cx="835" cy="445" fill="#3cb44B" r="3.5" stroke-width="0" /><circle cx="796" cy="441" fill="#3cb44B" r="3.5" stroke-width="0" /><circle cx="808" cy="439" fill="#3cb44B" r="3.5" stroke-width="0" /><circle cx="808" cy="439" fill="#3cb44B" r="3.5" stroke-width="0" /><circle cx="830" cy="435" fill="#3cb44B" r="3.5" stroke-width="0" /><circle cx="832" cy="435" fill="#3cb44B" r="3.5" stroke-width="0" /><circle cx="842" cy="433" fill="#3cb44B" r="3.5" stroke-width="0" /><circle cx="846" cy="432" fill="#3cb44B" r="3.5" stroke-width="0" /><circle cx="915" cy="420" fill="#3cb44B" r="3.5" stroke-width="0" /><circle cx="824" cy="417" fill="#3cb44B" r="3.5" stroke-width="0" /><circle cx="864" cy="413" fill="#3cb44B" r="3.5" stroke-width="0" /><circle cx="863" cy="401" fill="#3cb44B" r="3.5" stroke-width="0" /></g><g class="e5"><circle cx="248" cy="979" fill="#ff0000" r="3.5" stroke-width="0" /><circle cx="269" cy="931" fill="#ff0000" r="3.5" stroke-width="0" /><circle cx="282" cy="929" fill="#ff0000" r="3.5" stroke-width="0" /><circle cx="303" cy="919" fill="#ff0000" r="3.5" stroke-width="0" /><circle cx="319" cy="916" fill="#ff0000" r="3.5" stroke-width="0" /><circle cx="315" cy="913" fill="#ff0000" r="3.5" stroke-width="0" /><circle cx="306" cy="909" fill="#ff0000" r="3.5" stroke-width="0" /><circle cx="286" cy="906" fill="#ff0000" r="3.5" stroke-width="0" /><circle cx="294" cy="903" fill="#ff0000" r="3.5" stroke-width="0" /><circle cx="266" cy="891" fill="#ff0000" r="3.5" stroke-width="0" /><circle cx="272" cy="887" fill="#ff0000" r="3.5" stroke-width="0" /><circle cx="295" cy="887" fill="#ff0000" r="3.5" stroke-width="0" /><circle cx="281" cy="885" fill="#ff0000" r="3.5" stroke-width="0" /><circle cx="326" cy="884" fill="#ff0000" r="3.5" stroke-width="0" /><circle cx="286" cy="880" fill="#ff0000" r="3.5" stroke-width="0" /><circle cx="351" cy="877" fill="#ff0000" r="3.5" stroke-width="0" /><circle cx="296" cy="872" fill="#ff0000" r="3.5" stroke-width="0" /><circle cx="306" cy="870" fill="#ff0000" r="3.5" stroke-width="0" /><circle cx="323" cy="868" fill="#ff0000" r="3.5" stroke-width="0" /><circle cx="332" cy="867" fill="#ff0000" r="3.5" stroke-width="0" /><circle cx="339" cy="857" fill="#ff0000" r="3.5" stroke-width="0" /><circle cx="279" cy="856" fill="#ff0000" r="3.5" stroke-width="0" /><circle cx="288" cy="856" fill="#ff0000" r="3.5" stroke-width="0" /><circle cx="337" cy="852" fill="#ff0000" r="3.5" stroke-width="0" /><circle cx="321" cy="851" fill="#ff0000" r="3.5" stroke-width="0" /><circle cx="348" cy="848" fill="#ff0000" r="3.5" stroke-width="0" /><circle cx="322" cy="836" fill="#ff0000" r="3.5" stroke-width="0" /><circle cx="325" cy="830" fill="#ff0000" r="3.5" stroke-width="0" /><circle cx="335" cy="828" fill="#ff0000" r="3.5" stroke-width="0" /><circle cx="268" cy="824" fill="#ff0000" r="3.5" stroke-width="0" /><circle cx="359" cy="824" fill="#ff0000" r="3.5" stroke-width="0" /><circle cx="255" cy="823" fill="#ff0000" r="3.5" stroke-width="0" /><circle cx="357" cy="804" fill="#ff0000" r="3.5" stroke-width="0" /><circle cx="349" cy="800" fill="#ff0000" r="3.5" stroke-width="0" /><circle cx="317" cy="798" fill="#ff0000" r="3.5" stroke-width="0" /><circle cx="273" cy="796" fill="#ff0000" r="3.5" stroke-width="0" /><circle cx="421" cy="793" fill="#ff0000" r="3.5" stroke-width="0" /><circle cx="304" cy="791" fill="#ff0000" r="3.5" stroke-width="0" /><circle cx="389" cy="784" fill="#ff0000" r="3.5" stroke-width="0" /><circle cx="312" cy="783" fill="#ff0000" r="3.5" stroke-width="0" /><circle cx="309" cy="781" fill="#ff0000" r="3.5" stroke-width="0" /><circle cx="327" cy="779" fill="#ff0000" r="3.5" stroke-width="0" /><circle cx="337" cy="775" fill="#ff0000" r="3.5" stroke-width="0" /><circle cx="288" cy="773" fill="#ff0000" r="3.5" stroke-width="0" /><circle cx="327" cy="773" fill="#ff0000" r="3.5" stroke-width="0" /><circle cx="298" cy="767" fill="#ff0000" r="3.5" stroke-width="0" /><circle cx="297" cy="760" fill="#ff0000" r="3.5" stroke-width="0" /><circle cx="322" cy="760" fill="#ff0000" r="3.5" stroke-width="0" /><circle cx="304" cy="757" fill="#ff0000" r="3.5" stroke-width="0" /><circle cx="392" cy="750" fill="#ff0000" r="3.5" stroke-width="0" /><circle cx="312" cy="749" fill="#ff0000" r="3.5" stroke-width="0" /><circle cx="315" cy="746" fill="#ff0000" r="3.5" stroke-width="0" /><circle cx="318" cy="737" fill="#ff0000" r="3.5" stroke-width="0" /><circle cx="349" cy="729" fill="#ff0000" r="3.5" stroke-width="0" /><circle cx="385" cy="725" fill="#ff0000" r="3.5" stroke-width="0" /><circle cx="370" cy="724" fill="#ff0000" r="3.5" stroke-width="0" /><circle cx="375" cy="702" fill="#ff0000" r="3.5" stroke-width="0" /><circle cx="400" cy="686" fill="#ff0000" r="3.5" stroke-width="0" /><circle cx="756" cy="473" fill="#ff0000" r="3.5" stroke-width="0" /><circle cx="775" cy="444" fill="#ff0000" r="3.5" stroke-width="0" /><circle cx="784" cy="435" fill="#ff0000" r="3.5" stroke-width="0" /><circle cx="721" cy="428" fill="#ff0000" r="3.5" stroke-width="0" /><circle cx="796" cy="424" fill="#ff0000" r="3.5" stroke-width="0" /><circle cx="761" cy="421" fill="#ff0000" r="3.5" stroke-width="0" /><circle cx="788" cy="417" fill="#ff0000" r="3.5" stroke-width="0" /><circle cx="795" cy="417" fill="#ff0000" r="3.5" stroke-width="0" /><circle cx="818" cy="416" fill="#ff0000" r="3.5" stroke-width="0" /><circle cx="774" cy="404" fill="#ff0000" r="3.5" stroke-width="0" /><circle cx="821" cy="403" fill="#ff0000" r="3.5" stroke-width="0" /><circle cx="799" cy="400" fill="#ff0000" r="3.5" stroke-width="0" /><circle cx="816" cy="400" fill="#ff0000" r="3.5" stroke-width="0" /><circle cx="808" cy="397" fill="#ff0000" r="3.5" stroke-width="0" /><circle cx="814" cy="396" fill="#ff0000" r="3.5" stroke-width="0" /><circle cx="773" cy="389" fill="#ff0000" r="3.5" stroke-width="0" /><circle cx="826" cy="389" fill="#ff0000" r="3.5" stroke-width="0" /><circle cx="834" cy="386" fill="#ff0000" r="3.5" stroke-width="0" /><circle cx="831" cy="384" fill="#ff0000" r="3.5" stroke-width="0" /><circle cx="766" cy="383" fill="#ff0000" r="3.5" stroke-width="0" /><circle cx="823" cy="383" fill="#ff0000" r="3.5" stroke-width="0" /><circle cx="853" cy="379" fill="#ff0000" r="3.5" stroke-width="0" /><circle cx="852" cy="378" fill="#ff0000" r="3.5" stroke-width="0" /><circle cx="851" cy="377" fill="#ff0000" r="3.5" stroke-width="0" /><circle cx="807" cy="358" fill="#ff0000" r="3.5" stroke-width="0" /><circle cx="846" cy="357" fill="#ff0000" r="3.5" stroke-width="0" /><circle cx="870" cy="356" fill="#ff0000" r="3.5" stroke-width="0" /><circle cx="816" cy="350" fill="#ff0000" r="3.5" stroke-width="0" /><circle cx="785" cy="346" fill="#ff0000" r="3.5" stroke-width="0" /><circle cx="891" cy="340" fill="#ff0000" r="3.5" stroke-width="0" /><circle cx="854" cy="338" fill="#ff0000" r="3.5" stroke-width="0" /><circle cx="864" cy="334" fill="#ff0000" r="3.5" stroke-width="0" /><circle cx="853" cy="333" fill="#ff0000" r="3.5" stroke-width="0" /><circle cx="810" cy="331" fill="#ff0000" r="3.5" stroke-width="0" /><circle cx="806" cy="329" fill="#ff0000" r="3.5" stroke-width="0" /><circle cx="852" cy="329" fill="#ff0000" r="3.5" stroke-width="0" /><circle cx="798" cy="328" fill="#ff0000" r="3.5" stroke-width="0" /><circle cx="746" cy="324" fill="#ff0000" r="3.5" stroke-width="0" /><circle cx="822" cy="324" fill="#ff0000" r="3.5" stroke-width="0" /><circle cx="806" cy="310" fill="#ff0000" r="3.5" stroke-width="0" /><circle cx="794" cy="307" fill="#ff0000" r="3.5" stroke-width="0" /><circle cx="863" cy="305" fill="#ff0000" r="3.5" stroke-width="0" /><circle cx="808" cy="302" fill="#ff0000" r="3.5" stroke-width="0" /><circle cx="756" cy="301" fill="#ff0000" r="3.5" stroke-width="0" /><circle cx="813" cy="300" fill="#ff0000" r="3.5" stroke-width="0" /><circle cx="768" cy="298" fill="#ff0000" r="3.5" stroke-width="0" /><circle cx="772" cy="294" fill="#ff0000" r="3.5" stroke-width="0" /><circle cx="843" cy="294" fill="#ff0000" r="3.5" stroke-width="0" /><circle cx="845" cy="294" fill="#ff0000" r="3.5" stroke-width="0" /><circle cx="893" cy="294" fill="#ff0000" r="3.5" stroke-width="0" /><circle cx="829" cy="280" fill="#ff0000" r="3.5" stroke-width="0" /><circle cx="796" cy="275" fill="#ff0000" r="3.5" stroke-width="0" /><circle cx="810" cy="272" fill="#ff0000" r="3.5" stroke-width="0" /><circle cx="810" cy="269" fill="#ff0000" r="3.5" stroke-width="0" /><circle cx="839" cy="261" fill="#ff0000" r="3.5" stroke-width="0" /><circle cx="886" cy="259" fill="#ff0000" r="3.5" stroke-width="0" /><circle cx="846" cy="258" fill="#ff0000" r="3.5" stroke-width="0" /><circle cx="845" cy="257" fill="#ff0000" r="3.5" stroke-width="0" /><circle cx="806" cy="254" fill="#ff0000" r="3.5" stroke-width="0" /><circle cx="839" cy="254" fill="#ff0000" r="3.5" stroke-width="0" /><circle cx="859" cy="249" fill="#ff0000" r="3.5" stroke-width="0" /><circle cx="845" cy="242" fill="#ff0000" r="3.5" stroke-width="0" /><circle cx="854" cy="234" fill="#ff0000" r="3.5" stroke-width="0" /><circle cx="832" cy="231" fill="#ff0000" r="3.5" stroke-width="0" /><circle cx="881" cy="228" fill="#ff0000" r="3.5" stroke-width="0" /><circle cx="923" cy="211" fill="#ff0000" r="3.5" stroke-width="0" /><circle cx="887" cy="194" fill="#ff0000" r="3.5" stroke-width="0" /><circle cx="921" cy="186" fill="#ff0000" r="3.5" stroke-width="0" /></g><g class="e6"><circle cx="206" cy="824" fill="#2b92db" r="3.5" stroke-width="0" /><circle cx="274" cy="750" fill="#2b92db" r="3.5" stroke-width="0" /><circle cx="300" cy="734" fill="#2b92db" r="3.5" stroke-width="0" /><circle cx="320" cy="733" fill="#2b92db" r="3.5" stroke-width="0" /><circle cx="243" cy="730" fill="#2b92db" r="3.5" stroke-width="0" /><circle cx="324" cy="726" fill="#2b92db" r="3.5" stroke-width="0" /><circle cx="328" cy="704" fill="#2b92db" r="3.5" stroke-width="0" /><circle cx="341" cy="702" fill="#2b92db" r="3.5" stroke-width="0" /><circle cx="310" cy="695" fill="#2b92db" r="3.5" stroke-width="0" /><circle cx="265" cy="693" fill="#2b92db" r="3.5" stroke-width="0" /><circle cx="350" cy="690" fill="#2b92db" r="3.5" stroke-width="0" /><circle cx="294" cy="689" fill="#2b92db" r="3.5" stroke-width="0" /><circle cx="313" cy="687" fill="#2b92db" r="3.5" stroke-width="0" /><circle cx="337" cy="682" fill="#2b92db" r="3.5" stroke-width="0" /><circle cx="331" cy="678" fill="#2b92db" r="3.5" stroke-width="0" /><circle cx="312" cy="676" fill="#2b92db" r="3.5" stroke-width="0" /><circle cx="277" cy="669" fill="#2b92db" r="3.5" stroke-width="0" /><circle cx="376" cy="669" fill="#2b92db" r="3.5" stroke-width="0" /><circle cx="347" cy="664" fill="#2b92db" r="3.5" stroke-width="0" /><circle cx="282" cy="662" fill="#2b92db" r="3.5" stroke-width="0" /><circle cx="290" cy="661" fill="#2b92db" r="3.5" stroke-width="0" /><circle cx="343" cy="654" fill="#2b92db" r="3.5" stroke-width="0" /><circle cx="274" cy="652" fill="#2b92db" r="3.5" stroke-width="0" /><circle cx="389" cy="652" fill="#2b92db" r="3.5" stroke-width="0" /><circle cx="270" cy="650" fill="#2b92db" r="3.5" stroke-width="0" /><circle cx="328" cy="646" fill="#2b92db" r="3.5" stroke-width="0" /><circle cx="333" cy="641" fill="#2b92db" r="3.5" stroke-width="0" /><circle cx="311" cy="635" fill="#2b92db" r="3.5" stroke-width="0" /><circle cx="400" cy="634" fill="#2b92db" r="3.5" stroke-width="0" /><circle cx="362" cy="628" fill="#2b92db" r="3.5" stroke-width="0" /><circle cx="353" cy="627" fill="#2b92db" r="3.5" stroke-width="0" /><circle cx="309" cy="625" fill="#2b92db" r="3.5" stroke-width="0" /><circle cx="352" cy="625" fill="#2b92db" r="3.5" stroke-width="0" /><circle cx="268" cy="617" fill="#2b92db" r="3.5" stroke-width="0" /><circle cx="314" cy="616" fill="#2b92db" r="3.5" stroke-width="0" /><circle cx="301" cy="611" fill="#2b92db" r="3.5" stroke-width="0" /><circle cx="391" cy="609" fill="#2b92db" r="3.5" stroke-width="0" /><circle cx="301" cy="606" fill="#2b92db" r="3.5" stroke-width="0" /><circle cx="295" cy="595" fill="#2b92db" r="3.5" stroke-width="0" /><circle cx="321" cy="593" fill="#2b92db" r="3.5" stroke-width="0" /><circle cx="325" cy="593" fill="#2b92db" r="3.5" stroke-width="0" /><circle cx="333" cy="584" fill="#2b92db" r="3.5" stroke-width="0" /><circle cx="329" cy="578" fill="#2b92db" r="3.5" stroke-width="0" /><circle cx="336" cy="575" fill="#2b92db" r="3.5" stroke-width="0" /><circle cx="343" cy="570" fill="#2b92db" r="3.5" stroke-width="0" /><circle cx="330" cy="563" fill="#2b92db" r="3.5" stroke-width="0" /><circle cx="353" cy="538" fill="#2b92db" r="3.5" stroke-width="0" /><circle cx="355" cy="532" fill="#2b92db" r="3.5" stroke-width="0" /><circle cx="357" cy="531" fill="#2b92db" r="3.5" stroke-width="0" /><circle cx="360" cy="529" fill="#2b92db" r="3.5" stroke-width="0" /><circle cx="361" cy="520" fill="#2b92db" r="3.5" stroke-width="0" /><circle cx="375" cy="513" fill="#2b92db" r="3.5" stroke-width="0" /><circle cx="450" cy="512" fill="#2b92db" r="3.5" stroke-width="0" /><circle cx="380" cy="498" fill="#2b92db" r="3.5" stroke-width="0" /><circle cx="747" cy="277" fill="#2b92db" r="3.5" stroke-width="0" /><circle cx="713" cy="274" fill="#2b92db" r="3.5" stroke-width="0" /><circle cx="774" cy="270" fill="#2b92db" r="3.5" stroke-width="0" /><circle cx="770" cy="266" fill="#2b92db" r="3.5" stroke-width="0" /><circle cx="776" cy="264" fill="#2b92db" r="3.5" stroke-width="0" /><circle cx="827" cy="224" fill="#2b92db" r="3.5" stroke-width="0" /><circle cx="812" cy="221" fill="#2b92db" r="3.5" stroke-width="0" /><circle cx="795" cy="214" fill="#2b92db" r="3.5" stroke-width="0" /><circle cx="789" cy="203" fill="#2b92db" r="3.5" stroke-width="0" /><circle cx="814" cy="200" fill="#2b92db" r="3.5" stroke-width="0" /><circle cx="845" cy="187" fill="#2b92db" r="3.5" stroke-width="0" /><circle cx="799" cy="185" fill="#2b92db" r="3.5" stroke-width="0" /><circle cx="814" cy="174" fill="#2b92db" r="3.5" stroke-width="0" /><circle cx="808" cy="170" fill="#2b92db" r="3.5" stroke-width="0" /><circle cx="815" cy="166" fill="#2b92db" r="3.5" stroke-width="0" /><circle cx="831" cy="165" fill="#2b92db" r="3.5" stroke-width="0" /><circle cx="876" cy="157" fill="#2b92db" r="3.5" stroke-width="0" /><circle cx="828" cy="153" fill="#2b92db" r="3.5" stroke-width="0" /><circle cx="796" cy="151" fill="#2b92db" r="3.5" stroke-width="0" /><circle cx="801" cy="148" fill="#2b92db" r="3.5" stroke-width="0" /><circle cx="782" cy="146" fill="#2b92db" r="3.5" stroke-width="0" /><circle cx="777" cy="134" fill="#2b92db" r="3.5" stroke-width="0" /><circle cx="866" cy="134" fill="#2b92db" r="3.5" stroke-width="0" /><circle cx="864" cy="128" fill="#2b92db" r="3.5" stroke-width="0" /><circle cx="809" cy="121" fill="#2b92db" r="3.5" stroke-width="0" /><circle cx="872" cy="121" fill="#2b92db" r="3.5" stroke-width="0" /><circle cx="826" cy="116" fill="#2b92db" r="3.5" stroke-width="0" /><circle cx="806" cy="115" fill="#2b92db" r="3.5" stroke-width="0" /><circle cx="800" cy="114" fill="#2b92db" r="3.5" stroke-width="0" /><circle cx="775" cy="100" fill="#2b92db" r="3.5" stroke-width="0" /><circle cx="837" cy="77" fill="#2b92db" r="3.5" stroke-width="0" /></g><g class="e7"><circle cx="267" cy="580" fill="#911eb4" r="3.5" stroke-width="0" /><circle cx="284" cy="566" fill="#911eb4" r="3.5" stroke-width="0" /><circle cx="292" cy="560" fill="#911eb4" r="3.5" stroke-width="0" /><circle cx="302" cy="560" fill="#911eb4" r="3.5" stroke-width="0" /><circle cx="299" cy="558" fill="#911eb4" r="3.5" stroke-width="0" /><circle cx="315" cy="557" fill="#911eb4" r="3.5" stroke-width="0" /><circle cx="251" cy="556" fill="#911eb4" r="3.5" stroke-width="0" /><circle cx="286" cy="550" fill="#911eb4" r="3.5" stroke-width="0" /><circle cx="259" cy="546" fill="#911eb4" r="3.5" stroke-width="0" /><circle cx="265" cy="543" fill="#911eb4" r="3.5" stroke-width="0" /><circle cx="256" cy="540" fill="#911eb4" r="3.5" stroke-width="0" /><circle cx="329" cy="540" fill="#911eb4" r="3.5" stroke-width="0" /><circle cx="310" cy="537" fill="#911eb4" r="3.5" stroke-width="0" /><circle cx="288" cy="531" fill="#911eb4" r="3.5" stroke-width="0" /><circle cx="336" cy="530" fill="#911eb4" r="3.5" stroke-width="0" /><circle cx="329" cy="529" fill="#911eb4" r="3.5" stroke-width="0" /><circle cx="342" cy="528" fill="#911eb4" r="3.5" stroke-width="0" /><circle cx="343" cy="528" fill="#911eb4" r="3.5" stroke-width="0" /><circle cx="348" cy="518" fill="#911eb4" r="3.5" stroke-width="0" /><circle cx="279" cy="514" fill="#911eb4" r="3.5" stroke-width="0" /><circle cx="269" cy="513" fill="#911eb4" r="3.5" stroke-width="0" /><circle cx="329" cy="513" fill="#911eb4" r="3.5" stroke-width="0" /><circle cx="341" cy="512" fill="#911eb4" r="3.5" stroke-width="0" /><circle cx="293" cy="505" fill="#911eb4" r="3.5" stroke-width="0" /><circle cx="296" cy="505" fill="#911eb4" r="3.5" stroke-width="0" /><circle cx="310" cy="493" fill="#911eb4" r="3.5" stroke-width="0" /><circle cx="351" cy="490" fill="#911eb4" r="3.5" stroke-width="0" /><circle cx="368" cy="490" fill="#911eb4" r="3.5" stroke-width="0" /><circle cx="275" cy="489" fill="#911eb4" r="3.5" stroke-width="0" /><circle cx="326" cy="489" fill="#911eb4" r="3.5" stroke-width="0" /><circle cx="231" cy="484" fill="#911eb4" r="3.5" stroke-width="0" /><circle cx="373" cy="484" fill="#911eb4" r="3.5" stroke-width="0" /><circle cx="309" cy="483" fill="#911eb4" r="3.5" stroke-width="0" /><circle cx="269" cy="482" fill="#911eb4" r="3.5" stroke-width="0" /><circle cx="353" cy="480" fill="#911eb4" r="3.5" stroke-width="0" /><circle cx="305" cy="473" fill="#911eb4" r="3.5" stroke-width="0" /><circle cx="314" cy="471" fill="#911eb4" r="3.5" stroke-width="0" /><circle cx="326" cy="470" fill="#911eb4" r="3.5" stroke-width="0" /><circle cx="358" cy="468" fill="#911eb4" r="3.5" stroke-width="0" /><circle cx="308" cy="467" fill="#911eb4" r="3.5" stroke-width="0" /><circle cx="343" cy="467" fill="#911eb4" r="3.5" stroke-width="0" /><circle cx="322" cy="465" fill="#911eb4" r="3.5" stroke-width="0" /><circle cx="343" cy="464" fill="#911eb4" r="3.5" stroke-width="0" /><circle cx="335" cy="461" fill="#911eb4" r="3.5" stroke-width="0" /><circle cx="342" cy="459" fill="#911eb4" r="3.5" stroke-width="0" /><circle cx="363" cy="458" fill="#911eb4" r="3.5" stroke-width="0" /><circle cx="307" cy="457" fill="#911eb4" r="3.5" stroke-width="0" /><circle cx="288" cy="454" fill="#911eb4" r="3.5" stroke-width="0" /><circle cx="325" cy="450" fill="#911eb4" r="3.5" stroke-width="0" /><circle cx="369" cy="447" fill="#911eb4" r="3.5" stroke-width="0" /><circle cx="306" cy="446" fill="#911eb4" r="3.5" stroke-width="0" /><circle cx="294" cy="438" fill="#911eb4" r="3.5" stroke-width="0" /><circle cx="276" cy="434" fill="#911eb4" r="3.5" stroke-width="0" /><circle cx="318" cy="429" fill="#911eb4" r="3.5" stroke-width="0" /><circle cx="304" cy="425" fill="#911eb4" r="3.5" stroke-width="0" /><circle cx="340" cy="424" fill="#911eb4" r="3.5" stroke-width="0" /><circle cx="335" cy="422" fill="#911eb4" r="3.5" stroke-width="0" /><circle cx="342" cy="420" fill="#911eb4" r="3.5" stroke-width="0" /><circle cx="299" cy="419" fill="#911eb4" r="3.5" stroke-width="0" /><circle cx="301" cy="417" fill="#911eb4" r="3.5" stroke-width="0" /><circle cx="332" cy="417" fill="#911eb4" r="3.5" stroke-width="0" /><circle cx="329" cy="410" fill="#911eb4" r="3.5" stroke-width="0" /><circle cx="296" cy="397" fill="#911eb4" r="3.5" stroke-width="0" /><circle cx="328" cy="396" fill="#911eb4" r="3.5" stroke-width="0" /><circle cx="333" cy="392" fill="#911eb4" r="3.5" stroke-width="0" /><circle cx="347" cy="391" fill="#911eb4" r="3.5" stroke-width="0" /><circle cx="346" cy="384" fill="#911eb4" r="3.5" stroke-width="0" /><circle cx="357" cy="383" fill="#911eb4" r="3.5" stroke-width="0" /><circle cx="368" cy="383" fill="#911eb4" r="3.5" stroke-width="0" /><circle cx="338" cy="382" fill="#911eb4" r="3.5" stroke-width="0" /><circle cx="338" cy="376" fill="#911eb4" r="3.5" stroke-width="0" /><circle cx="374" cy="376" fill="#911eb4" r="3.5" stroke-width="0" /><circle cx="370" cy="374" fill="#911eb4" r="3.5" stroke-width="0" /><circle cx="372" cy="373" fill="#911eb4" r="3.5" stroke-width="0" /><circle cx="333" cy="363" fill="#911eb4" r="3.5" stroke-width="0" /><circle cx="350" cy="351" fill="#911eb4" r="3.5" stroke-width="0" /><circle cx="358" cy="338" fill="#911eb4" r="3.5" stroke-width="0" /><circle cx="361" cy="334" fill="#911eb4" r="3.5" stroke-width="0" /><circle cx="758" cy="104" fill="#911eb4" r="3.5" stroke-width="0" /></g><g class="e8"><circle cx="271" cy="391" fill="#3cb44B" r="3.5" stroke-width="0" /><circle cx="290" cy="385" fill="#3cb44B" r="3.5" stroke-width="0" /><circle cx="224" cy="365" fill="#3cb44B" r="3.5" stroke-width="0" /><circle cx="301" cy="365" fill="#3cb44B" r="3.5" stroke-width="0" /><circle cx="281" cy="364" fill="#3cb44B" r="3.5" stroke-width="0" /><circle cx="304" cy="352" fill="#3cb44B" r="3.5" stroke-width="0" /><circle cx="315" cy="352" fill="#3cb44B" r="3.5" stroke-width="0" /><circle cx="314" cy="337" fill="#3cb44B" r="3.5" stroke-width="0" /><circle cx="276" cy="335" fill="#3cb44B" r="3.5" stroke-width="0" /><circle cx="293" cy="335" fill="#3cb44B" r="3.5" stroke-width="0" /><circle cx="326" cy="335" fill="#3cb44B" r="3.5" stroke-width="0" /><circle cx="333" cy="327" fill="#3cb44B" r="3.5" stroke-width="0" /><circle cx="340" cy="325" fill="#3cb44B" r="3.5" stroke-width="0" /><circle cx="367" cy="316" fill="#3cb44B" r="3.5" stroke-width="0" /><circle cx="285" cy="314" fill="#3cb44B" r="3.5" stroke-width="0" /><circle cx="309" cy="310" fill="#3cb44B" r="3.5" stroke-width="0" /><circle cx="348" cy="307" fill="#3cb44B" r="3.5" stroke-width="0" /><circle cx="289" cy="299" fill="#3cb44B" r="3.5" stroke-width="0" /><circle cx="310" cy="286" fill="#3cb44B" r="3.5" stroke-width="0" /><circle cx="289" cy="284" fill="#3cb44B" r="3.5" stroke-width="0" /><circle cx="320" cy="282" fill="#3cb44B" r="3.5" stroke-width="0" /><circle cx="271" cy="279" fill="#3cb44B" r="3.5" stroke-width="0" /><circle cx="282" cy="277" fill="#3cb44B" r="3.5" stroke-width="0" /><circle cx="285" cy="277" fill="#3cb44B" r="3.5" stroke-width="0" /><circle cx="279" cy="274" fill="#3cb44B" r="3.5" stroke-width="0" /><circle cx="352" cy="269" fill="#3cb44B" r="3.5" stroke-width="0" /><circle cx="352" cy="263" fill="#3cb44B" r="3.5" stroke-width="0" /><circle cx="393" cy="234" fill="#3cb44B" r="3.5" stroke-width="0" /><circle cx="374" cy="229" fill="#3cb44B" r="3.5" stroke-width="0" /><circle cx="316" cy="227" fill="#3cb44B" r="3.5" stroke-width="0" /><circle cx="321" cy="219" fill="#3cb44B" r="3.5" stroke-width="0" /><circle cx="317" cy="217" fill="#3cb44B" r="3.5" stroke-width="0" /><circle cx="325" cy="203" fill="#3cb44B" r="3.5" stroke-width="0" /><circle cx="360" cy="200" fill="#3cb44B" r="3.5" stroke-width="0" /><circle cx="377" cy="181" fill="#3cb44B" r="3.5" stroke-width="0" /><circle cx="381" cy="147" fill="#3cb44B" r="3.5" stroke-width="0" /><circle cx="408" cy="133" fill="#3cb44B" r="3.5" stroke-width="0" /></g><g class="e9"><circle cx="258" cy="210" fill="#ff0000" r="3.5" stroke-width="0" /><circle cx="307" cy="200" fill="#ff0000" r="3.5" stroke-width="0" /><circle cx="274" cy="189" fill="#ff0000" r="3.5" stroke-width="0" /><circle cx="288" cy="169" fill="#ff0000" r="3.5" stroke-width="0" /><circle cx="293" cy="145" fill="#ff0000" r="3.5" stroke-width="0" /><circle cx="262" cy="134" fill="#ff0000" r="3.5" stroke-width="0" /><circle cx="360" cy="131" fill="#ff0000" r="3.5" stroke-width="0" /><circle cx="301" cy="116" fill="#ff0000" r="3.5" stroke-width="0" /><circle cx="272" cy="111" fill="#ff0000" r="3.5" stroke-width="0" /><circle cx="301" cy="101" fill="#ff0000" r="3.5" stroke-width="0" /><circle cx="303" cy="95" fill="#ff0000" r="3.5" stroke-width="0" /><circle cx="308" cy="79" fill="#ff0000" r="3.5" stroke-width="0" /><circle cx="386" cy="79" fill="#ff0000" r="3.5" stroke-width="0" /><circle cx="306" cy="77" fill="#ff0000" r="3.5" stroke-width="0" /></g><g class="e10" /></g></g></svg>