<?xml version="1.0" encoding="utf-8" ?>
<svg baseProfile="full" height="1140px" style="font-size:15;font-family:Arial, san-serif;font-weight:bold;stroke:black;stroke-width:0;fill:#444444" version="1.1" width="1140px" xmlns="http://www.w3.org/2000/svg" xmlns:ev="http://www.w3.org/2001/xml-events" xmlns:xlink="http://www.w3.org/1999/xlink"><defs><clipPath id="areadografico"><rect height="1000" width="1000" x="70" y="70" /></clipPath></defs><g class="master"><g class="poligonos"><polygon clip-path="url(#areadografico)" fill="#000000" fill-opacity="0.1" points="1069,1070 1069,849 849,1070" /><polygon clip-path="url(#areadografico)" fill="#ffffff" fill-opacity="0.1" points="849,1070 627,1070 1069,627 1069,849" /><polygon clip-path="url(#areadografico)" fill="#000000" fill-opacity="0.1" points="627,1070 405,1070 1069,405 1069,627" /><polygon clip-path="url(#areadografico)" fill="#ffffff" fill-opacity="0.1" points="405,1070 183,1070 1069,183 1069,405" /><polygon clip-path="url(#areadografico)" fill="#000000" fill-opacity="0.1" points="183,1070 -39,1070 1069,-39 1069,183" /><polygon clip-path="url(#areadografico)" fill="#ffffff" fill-opacity="0.1" points="-39,1070 -261,1070 1069,-261 1069,-39" /><polygon clip-path="url(#areadografico)" fill="#000000" fill-opacity="0.1" points="-261,1070 -483,1070 1069,-483 1069,-261" /><polygon clip-path="url(#areadografico)" fill="#ffffff" fill-opacity="0.1" points="-483,1070 -705,1070 1069,-705 1069,-483" /><polygon clip-path="url(#areadografico)" fill="#000000" fill-opacity="0.1" points="70,70 70,294 294,70" /></g><g class="linhas"><line fill-opacity="0.3" stroke="#999999" stroke-width="1" x1="1070" x2="1070" y1="1070" y2="70" /><line fill-opacity="0.3" stroke="#999999" stroke-width="1" x1="70" x2="1070" y1="70" y2="70" /><line fill-opacity="0.3" stroke="#999999" stroke-width="1" x1="970" x2="970" y1="1070" y2="70" /><line fill-opacity="0.3" stroke="#999999" stroke-width="1" x1="70" x2="1070" y1="170" y2="170" /><line fill-opacity="0.3" stroke="#999999" stroke-width="1" x1="870" x2="870" y1="1070" y2="70" /><line fill-opacity="0.3" stroke="#999999" stroke-width="1" x1="70" x2="1070" y1="270" y2="270" /><line fill-opacity="0.3" stroke="#999999" stroke-width="1" x1="770" x2="770" y1="1070" y2="70" /><line fill-opacity="0.3" stroke="#999999" stroke-width="1" x1="70" x2="1070" y1="370" y2="370" /><line fill-opacity="0.3" stroke="#999999" stroke-width="1" x1="670" x2="670" y1="1070" y2="70" /><line fill-opacity="0.3" stroke="#999999" stroke-width="1" x1="70" x2="1070" y1="470" y2="470" /><line fill-opacity="0.3" stroke="#999999" stroke-width="1" x1="570" x2="570" y1="1070" y2="70" /><line fill-opacity="0.3" stroke="#999999" stroke-width="1" x1="70" x2="1070" y1="570" y2="570" /><line fill-opacity="0.3" stroke="#999999" stroke-width="1" x1="470" x2="470" y1="1070" y2="70" /><line fill-opacity="0.3" stroke="#999999" stroke-width="1" x1="70" x2="1070" y1="670" y2="670" /><line fill-opacity="0.3" stroke="#999999" stroke-width="1" x1="370" x2="370" y1="1070" y2="70" /><line fill-opacity="0.3" stroke="#999999" stroke-width="1" x1="70" x2="1070" y1="770" y2="770" /><line fill-opacity="0.3" stroke="#999999" stroke-width="1" x1="270" x2="270" y1="1070" y2="70" /><line fill-opacity="0.3" stroke="#999999" stroke-width="1" x1="70" x2="1070" y1="870" y2="870" /><line fill-opacity="0.3" stroke="#999999" stroke-width="1" x1="170" x2="170" y1="1070" y2="70" /><line fill-opacity="0.3" stroke="#999999" stroke-width="1" x1="70" x2="1070" y1="970" y2="970" /><line fill-opacity="0.3" stroke="#000000" stroke-width="1" x1="70" x2="70" y1="1071" y2="69" /><line fill-opacity="0.3" stroke="#000000" stroke-width="1" x1="69" x2="1071" y1="1070" y2="1070" /></g><g class="textos"><text x="1050" y="1110">1000</text><text x="10" y="71">1000</text><text x="950" y="1110">900</text><text x="10" y="171">900</text><text x="850" y="1110">800</text><text x="10" y="271">800</text><text x="750" y="1110">700</text><text x="10" y="371">700</text><text x="650" y="1110">600</text><text x="10" y="471">600</text><text x="550" y="1110">500</text><text x="10" y="571">500</text><text x="450" y="1110">400</text><text x="10" y="671">400</text><text x="350" y="1110">300</text><text x="10" y="771">300</text><text x="250" y="1110">200</text><text x="10" y="871">200</text><text x="150" y="1110">100</text><text x="10" y="971">100</text><text x="50" y="1111">0</text><text x="9" y="1071">0</text></g><g class="especies"><g class="e0"><circle cx="878" cy="1065" fill="#3cb44B" r="3.5" stroke-width="0" /><circle cx="904" cy="1029" fill="#3cb44B" r="3.5" stroke-width="0" /></g><g class="e1"><circle cx="852" cy="1064" fill="#ff0000" r="3.5" stroke-width="0" /><circle cx="835" cy="1057" fill="#ff0000" r="3.5" stroke-width="0" /><circle cx="766" cy="1055" fill="#ff0000" r="3.5" stroke-width="0" /><circle cx="778" cy="1034" fill="#ff0000" r="3.5" stroke-width="0" /><circle cx="846" cy="1033" fill="#ff0000" r="3.5" stroke-width="0" /><circle cx="863" cy="1033" fill="#ff0000" r="3.5" stroke-width="0" /><circle cx="724" cy="1015" fill="#ff0000" r="3.5" stroke-width="0" /><circle cx="894" cy="1011" fill="#ff0000" r="3.5" stroke-width="0" /><circle cx="802" cy="999" fill="#ff0000" r="3.5" stroke-width="0" /><circle cx="848" cy="998" fill="#ff0000" r="3.5" stroke-width="0" /><circle cx="845" cy="994" fill="#ff0000" r="3.5" stroke-width="0" /><circle cx="869" cy="991" fill="#ff0000" r="3.5" stroke-width="0" /><circle cx="837" cy="971" fill="#ff0000" r="3.5" stroke-width="0" /><circle cx="805" cy="967" fill="#ff0000" r="3.5" stroke-width="0" /><circle cx="792" cy="956" fill="#ff0000" r="3.5" stroke-width="0" /><circle cx="801" cy="943" fill="#ff0000" r="3.5" stroke-width="0" /><circle cx="799" cy="937" fill="#ff0000" r="3.5" stroke-width="0" /><circle cx="860" cy="930" fill="#ff0000" r="3.5" stroke-width="0" /><circle cx="819" cy="924" fill="#ff0000" r="3.5" stroke-width="0" /><circle cx="841" cy="919" fill="#ff0000" r="3.5" stroke-width="0" /><circle cx="823" cy="909" fill="#ff0000" r="3.5" stroke-width="0" /><circle cx="830" cy="904" fill="#ff0000" r="3.5" stroke-width="0" /><circle cx="883" cy="885" fill="#ff0000" r="3.5" stroke-width="0" /><circle cx="866" cy="870" fill="#ff0000" r="3.5" stroke-width="0" /><circle cx="840" cy="866" fill="#ff0000" r="3.5" stroke-width="0" /><circle cx="866" cy="851" fill="#ff0000" r="3.5" stroke-width="0" /><circle cx="858" cy="840" fill="#ff0000" r="3.5" stroke-width="0" /><circle cx="882" cy="838" fill="#ff0000" r="3.5" stroke-width="0" /><circle cx="861" cy="837" fill="#ff0000" r="3.5" stroke-width="0" /></g><g class="e2"><circle cx="716" cy="886" fill="#2b92db" r="3.5" stroke-width="0" /><circle cx="791" cy="878" fill="#2b92db" r="3.5" stroke-width="0" /><circle cx="779" cy="877" fill="#2b92db" r="3.5" stroke-width="0" /><circle cx="824" cy="870" fill="#2b92db" r="3.5" stroke-width="0" /><circle cx="765" cy="869" fill="#2b92db" r="3.5" stroke-width="0" /><circle cx="832" cy="858" fill="#2b92db" r="3.5" stroke-width="0" /><circle cx="787" cy="857" fill="#2b92db" r="3.5" stroke-width="0" /><circle cx="759" cy="848" fill="#2b92db" r="3.5" stroke-width="0" /><circle cx="768" cy="843" fill="#2b92db" r="3.5" stroke-width="0" /><circle cx="800" cy="839" fill="#2b92db" r="3.5" stroke-width="0" /><circle cx="803" cy="837" fill="#2b92db" r="3.5" stroke-width="0" /><circle cx="858" cy="831" fill="#2b92db" r="3.5" stroke-width="0" /><circle cx="824" cy="822" fill="#2b92db" r="3.5" stroke-width="0" /><circle cx="781" cy="819" fill="#2b92db" r="3.5" stroke-width="0" /><circle cx="850" cy="792" fill="#2b92db" r="3.5" stroke-width="0" /><circle cx="836" cy="784" fill="#2b92db" r="3.5" stroke-width="0" /><circle cx="902" cy="783" fill="#2b92db" r="3.5" stroke-width="0" /><circle cx="842" cy="780" fill="#2b92db" r="3.5" stroke-width="0" /><circle cx="812" cy="776" fill="#2b92db" r="3.5" stroke-width="0" /><circle cx="833" cy="773" fill="#2b92db" r="3.5" stroke-width="0" /><circle cx="850" cy="772" fill="#2b92db" r="3.5" stroke-width="0" /><circle cx="828" cy="762" fill="#2b92db" r="3.5" stroke-width="0" /><circle cx="808" cy="754" fill="#2b92db" r="3.5" stroke-width="0" /><circle cx="821" cy="753" fill="#2b92db" r="3.5" stroke-width="0" /><circle cx="788" cy="751" fill="#2b92db" r="3.5" stroke-width="0" /><circle cx="867" cy="751" fill="#2b92db" r="3.5" stroke-width="0" /><circle cx="836" cy="742" fill="#2b92db" r="3.5" stroke-width="0" /><circle cx="794" cy="738" fill="#2b92db" r="3.5" stroke-width="0" /><circle cx="912" cy="710" fill="#2b92db" r="3.5" stroke-width="0" /><circle cx="852" cy="709" fill="#2b92db" r="3.5" stroke-width="0" /><circle cx="853" cy="709" fill="#2b92db" r="3.5" stroke-width="0" /><circle cx="774" cy="707" fill="#2b92db" r="3.5" stroke-width="0" /><circle cx="857" cy="706" fill="#2b92db" r="3.5" stroke-width="0" /><circle cx="800" cy="690" fill="#2b92db" r="3.5" stroke-width="0" /><circle cx="862" cy="688" fill="#2b92db" r="3.5" stroke-width="0" /><circle cx="817" cy="687" fill="#2b92db" r="3.5" stroke-width="0" /><circle cx="840" cy="675" fill="#2b92db" r="3.5" stroke-width="0" /><circle cx="843" cy="671" fill="#2b92db" r="3.5" stroke-width="0" /><circle cx="822" cy="659" fill="#2b92db" r="3.5" stroke-width="0" /><circle cx="867" cy="651" fill="#2b92db" r="3.5" stroke-width="0" /><circle cx="842" cy="646" fill="#2b92db" r="3.5" stroke-width="0" /><circle cx="865" cy="611" fill="#2b92db" r="3.5" stroke-width="0" /></g><g class="e3"><circle cx="320" cy="1056" fill="#911eb4" r="3.5" stroke-width="0" /><circle cx="358" cy="1050" fill="#911eb4" r="3.5" stroke-width="0" /><circle cx="421" cy="1047" fill="#911eb4" r="3.5" stroke-width="0" /><circle cx="318" cy="1043" fill="#911eb4" r="3.5" stroke-width="0" /><circle cx="338" cy="1039" fill="#911eb4" r="3.5" stroke-width="0" /><circle cx="375" cy="1025" fill="#911eb4" r="3.5" stroke-width="0" /><circle cx="294" cy="1024" fill="#911eb4" r="3.5" stroke-width="0" /><circle cx="303" cy="1022" fill="#911eb4" r="3.5" stroke-width="0" /><circle cx="372" cy="981" fill="#911eb4" r="3.5" stroke-width="0" /><circle cx="296" cy="973" fill="#911eb4" r="3.5" stroke-width="0" /><circle cx="323" cy="961" fill="#911eb4" r="3.5" stroke-width="0" /><circle cx="312" cy="953" fill="#911eb4" r="3.5" stroke-width="0" /><circle cx="418" cy="923" fill="#911eb4" r="3.5" stroke-width="0" /><circle cx="341" cy="913" fill="#911eb4" r="3.5" stroke-width="0" /><circle cx="755" cy="688" fill="#911eb4" r="3.5" stroke-width="0" /><circle cx="788" cy="686" fill="#911eb4" r="3.5" stroke-width="0" /><circle cx="782" cy="675" fill="#911eb4" r="3.5" stroke-width="0" /><circle cx="786" cy="661" fill="#911eb4" r="3.5" stroke-width="0" /><circle cx="818" cy="653" fill="#911eb4" r="3.5" stroke-width="0" /><circle cx="801" cy="643" fill="#911eb4" r="3.5" stroke-width="0" /><circle cx="779" cy="636" fill="#911eb4" r="3.5" stroke-width="0" /><circle cx="791" cy="635" fill="#911eb4" r="3.5" stroke-width="0" /><circle cx="843" cy="627" fill="#911eb4" r="3.5" stroke-width="0" /><circle cx="766" cy="610" fill="#911eb4" r="3.5" stroke-width="0" /><circle cx="813" cy="609" fill="#911eb4" r="3.5" stroke-width="0" /><circle cx="782" cy="605" fill="#911eb4" r="3.5" stroke-width="0" /><circle cx="837" cy="604" fill="#911eb4" r="3.5" stroke-width="0" /><circle cx="817" cy="602" fill="#911eb4" r="3.5" stroke-width="0" /><circle cx="760" cy="600" fill="#911eb4" r="3.5" stroke-width="0" /><circle cx="849" cy="595" fill="#911eb4" r="3.5" stroke-width="0" /><circle cx="787" cy="591" fill="#911eb4" r="3.5" stroke-width="0" /><circle cx="875" cy="591" fill="#911eb4" r="3.5" stroke-width="0" /><circle cx="791" cy="585" fill="#911eb4" r="3.5" stroke-width="0" /><circle cx="825" cy="579" fill="#911eb4" r="3.5" stroke-width="0" /><circle cx="757" cy="577" fill="#911eb4" r="3.5" stroke-width="0" /><circle cx="822" cy="572" fill="#911eb4" r="3.5" stroke-width="0" /><circle cx="827" cy="558" fill="#911eb4" r="3.5" stroke-width="0" /><circle cx="758" cy="542" fill="#911eb4" r="3.5" stroke-width="0" /><circle cx="807" cy="538" fill="#911eb4" r="3.5" stroke-width="0" /><circle cx="797" cy="530" fill="#911eb4" r="3.5" stroke-width="0" /><circle cx="819" cy="526" fill="#911eb4" r="3.5" stroke-width="0" /><circle cx="817" cy="523" fill="#911eb4" r="3.5" stroke-width="0" /><circle cx="794" cy="520" fill="#911eb4" r="3.5" stroke-width="0" /><circle cx="806" cy="512" fill="#911eb4" r="3.5" stroke-width="0" /><circle cx="853" cy="512" fill="#911eb4" r="3.5" stroke-width="0" /><circle cx="826" cy="499" fill="#911eb4" r="3.5" stroke-width="0" /><circle cx="864" cy="491" fill="#911eb4" r="3.5" stroke-width="0" /><circle cx="855" cy="478" fill="#911eb4" r="3.5" stroke-width="0" /><circle cx="783" cy="471" fill="#911eb4" r="3.5" stroke-width="0" /><circle cx="892" cy="469" fill="#911eb4" r="3.5" stroke-width="0" /><circle cx="810" cy="466" fill="#911eb4" r="3.5" stroke-width="0" /><circle cx="820" cy="460" fill="#911eb4" r="3.5" stroke-width="0" /><circle cx="899" cy="459" fill="#911eb4" r="3.5" stroke-width="0" /><circle cx="826" cy="454" fill="#911eb4" r="3.5" stroke-width="0" /><circle cx="821" cy="447" fill="#911eb4" r="3.5" stroke-width="0" /><circle cx="834" cy="444" fill="#911eb4" r="3.5" stroke-width="0" /><circle cx="889" cy="424" fill="#911eb4" r="3.5" stroke-width="0" /><circle cx="860" cy="406" fill="#911eb4" r="3.5" stroke-width="0" /><circle cx="898" cy="398" fill="#911eb4" r="3.5" stroke-width="0" /><circle cx="904" cy="381" fill="#911eb4" r="3.5" stroke-width="0" /></g><g class="e4"><circle cx="288" cy="959" fill="#3cb44B" r="3.5" stroke-width="0" /><circle cx="297" cy="932" fill="#3cb44B" r="3.5" stroke-width="0" /><circle cx="252" cy="912" fill="#3cb44B" r="3.5" stroke-width="0" /><circle cx="308" cy="911" fill="#3cb44B" r="3.5" stroke-width="0" /><circle cx="305" cy="910" fill="#3cb44B" r="3.5" stroke-width="0" /><circle cx="318" cy="909" fill="#3cb44B" r="3.5" stroke-width="0" /><circle cx="254" cy="897" fill="#3cb44B" r="3.5" stroke-width="0" /><circle cx="323" cy="897" fill="#3cb44B" r="3.5" stroke-width="0" /><circle cx="318" cy="888" fill="#3cb44B" r="3.5" stroke-width="0" /><circle cx="370" cy="874" fill="#3cb44B" r="3.5" stroke-width="0" /><circle cx="303" cy="864" fill="#3cb44B" r="3.5" stroke-width="0" /><circle cx="295" cy="860" fill="#3cb44B" r="3.5" stroke-width="0" /><circle cx="302" cy="859" fill="#3cb44B" r="3.5" stroke-width="0" /><circle cx="316" cy="858" fill="#3cb44B" r="3.5" stroke-width="0" /><circle cx="330" cy="855" fill="#3cb44B" r="3.5" stroke-width="0" /><circle cx="269" cy="839" fill="#3cb44B" r="3.5" stroke-width="0" /><circle cx="330" cy="816" fill="#3cb44B" r="3.5" stroke-width="0" /><circle cx="255" cy="815" fill="#3cb44B" r="3.5" stroke-width="0" /><circle cx="343" cy="812" fill="#3cb44B" r="3.5" stroke-width="0" /><circle cx="256" cy="811" fill="#3cb44B" r="3.5" stroke-width="0" /><circle cx="345" cy="801" fill="#3cb44B" r="3.5" stroke-width="0" /><circle cx="330" cy="795" fill="#3cb44B" r="3.5" stroke-width="0" /><circle cx="382" cy="795" fill="#3cb44B" r="3.5" stroke-width="0" /><circle cx="334" cy="791" fill="#3cb44B" r="3.5" stroke-width="0" /><circle cx="338" cy="789" fill="#3cb44B" r="3.5" stroke-width="0" /><circle cx="375" cy="780" fill="#3cb44B" r="3.5" stroke-width="0" /><circle cx="348" cy="773" fill="#3cb44B" r="3.5" stroke-width="0" /><circle cx="275" cy="763" fill="#3cb44B" r="3.5" stroke-width="0" /><circle cx="304" cy="759" fill="#3cb44B" r="3.5" stroke-width="0" /><circle cx="337" cy="758" fill="#3cb44B" r="3.5" stroke-width="0" /><circle cx="306" cy="756" fill="#3cb44B" r="3.5" stroke-width="0" /><circle cx="392" cy="736" fill="#3cb44B" r="3.5" stroke-width="0" /><circle cx="363" cy="716" fill="#3cb44B" r="3.5" stroke-width="0" /><circle cx="350" cy="710" fill="#3cb44B" r="3.5" stroke-width="0" /><circle cx="343" cy="708" fill="#3cb44B" r="3.5" stroke-width="0" /><circle cx="378" cy="702" fill="#3cb44B" r="3.5" stroke-width="0" /><circle cx="360" cy="697" fill="#3cb44B" r="3.5" stroke-width="0" /><circle cx="360" cy="687" fill="#3cb44B" r="3.5" stroke-width="0" /><circle cx="414" cy="669" fill="#3cb44B" r="3.5" stroke-width="0" /><circle cx="782" cy="456" fill="#3cb44B" r="3.5" stroke-width="0" /><circle cx="765" cy="452" fill="#3cb44B" r="3.5" stroke-width="0" /><circle cx="783" cy="450" fill="#3cb44B" r="3.5" stroke-width="0" /><circle cx="743" cy="448" fill="#3cb44B" r="3.5" stroke-width="0" /><circle cx="745" cy="432" fill="#3cb44B" r="3.5" stroke-width="0" /><circle cx="815" cy="420" fill="#3cb44B" r="3.5" stroke-width="0" /><circle cx="787" cy="418" fill="#3cb44B" r="3.5" stroke-width="0" /><circle cx="821" cy="418" fill="#3cb44B" r="3.5" stroke-width="0" /><circle cx="834" cy="407" fill="#3cb44B" r="3.5" stroke-width="0" /><circle cx="834" cy="400" fill="#3cb44B" r="3.5" stroke-width="0" /><circle cx="825" cy="398" fill="#3cb44B" r="3.5" stroke-width="0" /><circle cx="857" cy="393" fill="#3cb44B" r="3.5" stroke-width="0" /><circle cx="857" cy="392" fill="#3cb44B" r="3.5" stroke-width="0" /><circle cx="792" cy="369" fill="#3cb44B" r="3.5" stroke-width="0" /><circle cx="878" cy="366" fill="#3cb44B" r="3.5" stroke-width="0" /><circle cx="718" cy="363" fill="#3cb44B" r="3.5" stroke-width="0" /><circle cx="824" cy="362" fill="#3cb44B" r="3.5" stroke-width="0" /><circle cx="832" cy="357" fill="#3cb44B" r="3.5" stroke-width="0" /><circle cx="790" cy="355" fill="#3cb44B" r="3.5" stroke-width="0" /><circle cx="826" cy="344" fill="#3cb44B" r="3.5" stroke-width="0" /><circle cx="827" cy="343" fill="#3cb44B" r="3.5" stroke-width="0" /><circle cx="865" cy="336" fill="#3cb44B" r="3.5" stroke-width="0" /><circle cx="830" cy="332" fill="#3cb44B" r="3.5" stroke-width="0" /><circle cx="783" cy="327" fill="#3cb44B" r="3.5" stroke-width="0" /><circle cx="768" cy="323" fill="#3cb44B" r="3.5" stroke-width="0" /><circle cx="877" cy="311" fill="#3cb44B" r="3.5" stroke-width="0" /><circle cx="860" cy="306" fill="#3cb44B" r="3.5" stroke-width="0" /><circle cx="745" cy="305" fill="#3cb44B" r="3.5" stroke-width="0" /><circle cx="816" cy="300" fill="#3cb44B" r="3.5" stroke-width="0" /><circle cx="820" cy="300" fill="#3cb44B" r="3.5" stroke-width="0" /><circle cx="847" cy="296" fill="#3cb44B" r="3.5" stroke-width="0" /><circle cx="803" cy="291" fill="#3cb44B" r="3.5" stroke-width="0" /><circle cx="821" cy="289" fill="#3cb44B" r="3.5" stroke-width="0" /><circle cx="807" cy="288" fill="#3cb44B" r="3.5" stroke-width="0" /><circle cx="760" cy="287" fill="#3cb44B" r="3.5" stroke-width="0" /><circle cx="793" cy="285" fill="#3cb44B" r="3.5" stroke-width="0" /><circle cx="847" cy="282" fill="#3cb44B" r="3.5" stroke-width="0" /><circle cx="863" cy="278" fill="#3cb44B" r="3.5" stroke-width="0" /><circle cx="850" cy="253" fill="#3cb44B" r="3.5" stroke-width="0" /><circle cx="813" cy="248" fill="#3cb44B" r="3.5" stroke-width="0" /><circle cx="820" cy="239" fill="#3cb44B" r="3.5" stroke-width="0" /><circle cx="837" cy="225" fill="#3cb44B" r="3.5" stroke-width="0" /><circle cx="825" cy="210" fill="#3cb44B" r="3.5" stroke-width="0" /><circle cx="838" cy="200" fill="#3cb44B" r="3.5" stroke-width="0" /><circle cx="869" cy="180" fill="#3cb44B" r="3.5" stroke-width="0" /><circle cx="865" cy="178" fill="#3cb44B" r="3.5" stroke-width="0" /></g><g class="e5"><circle cx="266" cy="754" fill="#ff0000" r="3.5" stroke-width="0" /><circle cx="269" cy="746" fill="#ff0000" r="3.5" stroke-width="0" /><circle cx="241" cy="741" fill="#ff0000" r="3.5" stroke-width="0" /><circle cx="287" cy="735" fill="#ff0000" r="3.5" stroke-width="0" /><circle cx="270" cy="731" fill="#ff0000" r="3.5" stroke-width="0" /><circle cx="230" cy="715" fill="#ff0000" r="3.5" stroke-width="0" /><circle cx="329" cy="701" fill="#ff0000" r="3.5" stroke-width="0" /><circle cx="322" cy="684" fill="#ff0000" r="3.5" stroke-width="0" /><circle cx="232" cy="665" fill="#ff0000" r="3.5" stroke-width="0" /><circle cx="322" cy="663" fill="#ff0000" r="3.5" stroke-width="0" /><circle cx="313" cy="662" fill="#ff0000" r="3.5" stroke-width="0" /><circle cx="305" cy="649" fill="#ff0000" r="3.5" stroke-width="0" /><circle cx="246" cy="647" fill="#ff0000" r="3.5" stroke-width="0" /><circle cx="304" cy="646" fill="#ff0000" r="3.5" stroke-width="0" /><circle cx="319" cy="645" fill="#ff0000" r="3.5" stroke-width="0" /><circle cx="336" cy="637" fill="#ff0000" r="3.5" stroke-width="0" /><circle cx="319" cy="633" fill="#ff0000" r="3.5" stroke-width="0" /><circle cx="279" cy="602" fill="#ff0000" r="3.5" stroke-width="0" /><circle cx="290" cy="596" fill="#ff0000" r="3.5" stroke-width="0" /><circle cx="347" cy="594" fill="#ff0000" r="3.5" stroke-width="0" /><circle cx="259" cy="591" fill="#ff0000" r="3.5" stroke-width="0" /><circle cx="364" cy="591" fill="#ff0000" r="3.5" stroke-width="0" /><circle cx="324" cy="590" fill="#ff0000" r="3.5" stroke-width="0" /><circle cx="286" cy="580" fill="#ff0000" r="3.5" stroke-width="0" /><circle cx="385" cy="580" fill="#ff0000" r="3.5" stroke-width="0" /><circle cx="375" cy="579" fill="#ff0000" r="3.5" stroke-width="0" /><circle cx="312" cy="573" fill="#ff0000" r="3.5" stroke-width="0" /><circle cx="276" cy="572" fill="#ff0000" r="3.5" stroke-width="0" /><circle cx="345" cy="570" fill="#ff0000" r="3.5" stroke-width="0" /><circle cx="348" cy="568" fill="#ff0000" r="3.5" stroke-width="0" /><circle cx="301" cy="565" fill="#ff0000" r="3.5" stroke-width="0" /><circle cx="357" cy="551" fill="#ff0000" r="3.5" stroke-width="0" /><circle cx="359" cy="551" fill="#ff0000" r="3.5" stroke-width="0" /><circle cx="273" cy="539" fill="#ff0000" r="3.5" stroke-width="0" /><circle cx="337" cy="529" fill="#ff0000" r="3.5" stroke-width="0" /><circle cx="308" cy="527" fill="#ff0000" r="3.5" stroke-width="0" /><circle cx="352" cy="524" fill="#ff0000" r="3.5" stroke-width="0" /><circle cx="357" cy="513" fill="#ff0000" r="3.5" stroke-width="0" /><circle cx="338" cy="511" fill="#ff0000" r="3.5" stroke-width="0" /><circle cx="324" cy="509" fill="#ff0000" r="3.5" stroke-width="0" /><circle cx="364" cy="505" fill="#ff0000" r="3.5" stroke-width="0" /><circle cx="356" cy="504" fill="#ff0000" r="3.5" stroke-width="0" /><circle cx="361" cy="481" fill="#ff0000" r="3.5" stroke-width="0" /><circle cx="358" cy="472" fill="#ff0000" r="3.5" stroke-width="0" /><circle cx="345" cy="470" fill="#ff0000" r="3.5" stroke-width="0" /><circle cx="368" cy="470" fill="#ff0000" r="3.5" stroke-width="0" /><circle cx="351" cy="468" fill="#ff0000" r="3.5" stroke-width="0" /><circle cx="387" cy="461" fill="#ff0000" r="3.5" stroke-width="0" /><circle cx="717" cy="252" fill="#ff0000" r="3.5" stroke-width="0" /><circle cx="784" cy="233" fill="#ff0000" r="3.5" stroke-width="0" /><circle cx="807" cy="217" fill="#ff0000" r="3.5" stroke-width="0" /><circle cx="809" cy="207" fill="#ff0000" r="3.5" stroke-width="0" /><circle cx="805" cy="206" fill="#ff0000" r="3.5" stroke-width="0" /><circle cx="803" cy="205" fill="#ff0000" r="3.5" stroke-width="0" /><circle cx="720" cy="202" fill="#ff0000" r="3.5" stroke-width="0" /><circle cx="795" cy="193" fill="#ff0000" r="3.5" stroke-width="0" /><circle cx="791" cy="157" fill="#ff0000" r="3.5" stroke-width="0" /><circle cx="801" cy="156" fill="#ff0000" r="3.5" stroke-width="0" /><circle cx="772" cy="143" fill="#ff0000" r="3.5" stroke-width="0" /><circle cx="822" cy="108" fill="#ff0000" r="3.5" stroke-width="0" /><circle cx="857" cy="90" fill="#ff0000" r="3.5" stroke-width="0" /><circle cx="802" cy="81" fill="#ff0000" r="3.5" stroke-width="0" /></g><g class="e6"><circle cx="293" cy="512" fill="#2b92db" r="3.5" stroke-width="0" /><circle cx="306" cy="490" fill="#2b92db" r="3.5" stroke-width="0" /><circle cx="300" cy="486" fill="#2b92db" r="3.5" stroke-width="0" /><circle cx="266" cy="479" fill="#2b92db" r="3.5" stroke-width="0" /><circle cx="305" cy="477" fill="#2b92db" r="3.5" stroke-width="0" /><circle cx="322" cy="459" fill="#2b92db" r="3.5" stroke-width="0" /><circle cx="215" cy="457" fill="#2b92db" r="3.5" stroke-width="0" /><circle cx="342" cy="448" fill="#2b92db" r="3.5" stroke-width="0" /><circle cx="359" cy="445" fill="#2b92db" r="3.5" stroke-width="0" /><circle cx="349" cy="444" fill="#2b92db" r="3.5" stroke-width="0" /><circle cx="316" cy="433" fill="#2b92db" r="3.5" stroke-width="0" /><circle cx="320" cy="424" fill="#2b92db" r="3.5" stroke-width="0" /><circle cx="325" cy="411" fill="#2b92db" r="3.5" stroke-width="0" /><circle cx="208" cy="410" fill="#2b92db" r="3.5" stroke-width="0" /><circle cx="321" cy="407" fill="#2b92db" r="3.5" stroke-width="0" /><circle cx="288" cy="395" fill="#2b92db" r="3.5" stroke-width="0" /><circle cx="317" cy="376" fill="#2b92db" r="3.5" stroke-width="0" /><circle cx="298" cy="368" fill="#2b92db" r="3.5" stroke-width="0" /><circle cx="336" cy="368" fill="#2b92db" r="3.5" stroke-width="0" /><circle cx="319" cy="364" fill="#2b92db" r="3.5" stroke-width="0" /><circle cx="339" cy="359" fill="#2b92db" r="3.5" stroke-width="0" /><circle cx="320" cy="357" fill="#2b92db" r="3.5" stroke-width="0" /><circle cx="298" cy="356" fill="#2b92db" r="3.5" stroke-width="0" /><circle cx="346" cy="355" fill="#2b92db" r="3.5" stroke-width="0" /><circle cx="387" cy="353" fill="#2b92db" r="3.5" stroke-width="0" /><circle cx="328" cy="347" fill="#2b92db" r="3.5" stroke-width="0" /><circle cx="255" cy="332" fill="#2b92db" r="3.5" stroke-width="0" /><circle cx="324" cy="329" fill="#2b92db" r="3.5" stroke-width="0" /><circle cx="292" cy="327" fill="#2b92db" r="3.5" stroke-width="0" /><circle cx="313" cy="323" fill="#2b92db" r="3.5" stroke-width="0" /><circle cx="327" cy="320" fill="#2b92db" r="3.5" stroke-width="0" /><circle cx="347" cy="318" fill="#2b92db" r="3.5" stroke-width="0" /><circle cx="319" cy="314" fill="#2b92db" r="3.5" stroke-width="0" /><circle cx="391" cy="286" fill="#2b92db" r="3.5" stroke-width="0" /><circle cx="342" cy="276" fill="#2b92db" r="3.5" stroke-width="0" /><circle cx="344" cy="249" fill="#2b92db" r="3.5" stroke-width="0" /><circle cx="362" cy="240" fill="#2b92db" r="3.5" stroke-width="0" /></g><g class="e7"><circle cx="283" cy="299" fill="#911eb4" r="3.5" stroke-width="0" /><circle cx="268" cy="269" fill="#911eb4" r="3.5" stroke-width="0" /><circle cx="324" cy="257" fill="#911eb4" r="3.5" stroke-width="0" /><circle cx="277" cy="234" fill="#911eb4" r="3.5" stroke-width="0" /><circle cx="296" cy="232" fill="#911eb4" r="3.5" stroke-width="0" /><circle cx="276" cy="230" fill="#911eb4" r="3.5" stroke-width="0" /><circle cx="332" cy="230" fill="#911eb4" r="3.5" stroke-width="0" /><circle cx="353" cy="226" fill="#911eb4" r="3.5" stroke-width="0" /><circle cx="283" cy="221" fill="#911eb4" r="3.5" stroke-width="0" /><circle cx="315" cy="210" fill="#911eb4" r="3.5" stroke-width="0" /><circle cx="328" cy="205" fill="#911eb4" r="3.5" stroke-width="0" /><circle cx="364" cy="196" fill="#911eb4" r="3.5" stroke-width="0" /><circle cx="310" cy="193" fill="#911eb4" r="3.5" stroke-width="0" /><circle cx="289" cy="190" fill="#911eb4" r="3.5" stroke-width="0" /><circle cx="293" cy="187" fill="#911eb4" r="3.5" stroke-width="0" /><circle cx="298" cy="180" fill="#911eb4" r="3.5" stroke-width="0" /><circle cx="332" cy="165" fill="#911eb4" r="3.5" stroke-width="0" /><circle cx="288" cy="162" fill="#911eb4" r="3.5" stroke-width="0" /><circle cx="267" cy="159" fill="#911eb4" r="3.5" stroke-width="0" /><circle cx="395" cy="152" fill="#911eb4" r="3.5" stroke-width="0" /><circle cx="251" cy="146" fill="#911eb4" r="3.5" stroke-width="0" /><circle cx="292" cy="142" fill="#911eb4" r="3.5" stroke-width="0" /><circle cx="287" cy="123" fill="#911eb4" r="3.5" stroke-width="0" /><circle cx="307" cy="112" fill="#911eb4" r="3.5" stroke-width="0" /><circle cx="374" cy="91" fill="#911eb4" r="3.5" stroke-width="0" /><circle cx="300" cy="90" fill="#911eb4" r="3.5" stroke-width="0" /></g><g class="e8"><circle cx="282" cy="79" fill="#3cb44B" r="3.5" stroke-width="0" /></g></g></g></svg>