<?xml version="1.0" encoding="utf-8" ?>
<svg baseProfile="full" height="1140px" style="font-size:15;font-family:Arial, san-serif;font-weight:bold;stroke:black;stroke-width:0;fill:#444444" version="1.1" width="1140px" xmlns="http://www.w3.org/2000/svg" xmlns:ev="http://www.w3.org/2001/xml-events" xmlns:xlink="http://www.w3.org/1999/xlink"><defs><clipPath id="areadografico"><rect height="1000" width="1000" x="70" y="70" /></clipPath></defs><g class="master"><g class="poligonos"><polygon clip-path="url(#areadografico)" fill="#000000" fill-opacity="0.1" points="1069,1070 1069,405 405,1070" /><polygon clip-path="url(#areadografico)" fill="#ffffff" fill-opacity="0.1" points="405,1070 -261,1070 1069,-261 1069,405" /><polygon clip-path="url(#areadografico)" fill="#000000" fill-opacity="0.1" points="70,70 70,738 738,70" /></g><g class="linhas"><line fill-opacity="0.3" stroke="#999999" stroke-width="1" x1="1070" x2="1070" y1="1070" y2="70" /><line fill-opacity="0.3" stroke="#999999" stroke-width="1" x1="70" x2="1070" y1="70" y2="70" /><line fill-opacity="0.3" stroke="#999999" stroke-width="1" x1="970" x2="970" y1="1070" y2="70" /><line fill-opacity="0.3" stroke="#999999" stroke-width="1" x1="70" x2="1070" y1="170" y2="170" /><line fill-opacity="0.3" stroke="#999999" stroke-width="1" x1="870" x2="870" y1="1070" y2="70" /><line fill-opacity="0.3" stroke="#999999" stroke-width="1" x1="70" x2="1070" y1="270" y2="270" /><line fill-opacity="0.3" stroke="#999999" stroke-width="1" x1="770" x2="770" y1="1070" y2="70" /><line fill-opacity="0.3" stroke="#999999" stroke-width="1" x1="70" x2="1070" y1="370" y2="370" /><line fill-opacity="0.3" stroke="#999999" stroke-width="1" x1="670" x2="670" y1="1070" y2="70" /><line fill-opacity="0.3" stroke="#999999" stroke-width="1" x1="70" x2="1070" y1="470" y2="470" /><line fill-opacity="0.3" stroke="#999999" stroke-width="1" x1="570" x2="570" y1="1070" y2="70" /><line fill-opacity="0.3" stroke="#999999" stroke-width="1" x1="70" x2="1070" y1="570" y2="570" /><line fill-opacity="0.3" stroke="#999999" stroke-width="1" x1="470" x2="470" y1="1070" y2="70" /><line fill-opacity="0.3" stroke="#999999" stroke-width="1" x1="70" x2="1070" y1="670" y2="670" /><line fill-opacity="0.3" stroke="#999999" stroke-width="1" x1="370" x2="370" y1="1070" y2="70" /><line fill-opacity="0.3" stroke="#999999" stroke-width="1" x1="70" x2="1070" y1="770" y2="770" /><line fill-opacity="0.3" stroke="#999999" stroke-width="1" x1="270" x2="270" y1="1070" y2="70" /><line fill-opacity="0.3" stroke="#999999" stroke-width="1" x1="70" x2="1070" y1="870" y2="870" /><line fill-opacity="0.3" stroke="#999999" stroke-width="1" x1="170" x2="170" y1="1070" y2="70" /><line fill-opacity="0.3" stroke="#999999" stroke-width="1" x1="70" x2="1070" y1="970" y2="970" /><line fill-opacity="0.3" stroke="#000000" stroke-width="1" x1="70" x2="70" y1="1071" y2="69" /><line fill-opacity="0.3" stroke="#000000" stroke-width="1" x1="69" x2="1071" y1="1070" y2="1070" /></g><g class="textos"><text x="1050" y="1110">1000</text><text x="10" y="71">1000</text><text x="950" y="1110">900</text><text x="10" y="171">900</text><text x="850" y="1110">800</text><text x="10" y="271">800</text><text x="750" y="1110">700</text><text x="10" y="371">700</text><text x="650" y="1110">600</text><text x="10" y="471">600</text><text x="550" y="1110">500</text><text x="10" y="571">500</text><text x="450" y="1110">400</text><text x="10" y="671">400</text><text x="350" y="1110">300</text><text x="10" y="771">300</text><text x="250" y="1110">200</text><text x="10" y="871">200</text><text x="150" y="1110">100</text><text x="10" y="971">100</text><text x="50" y="1111">0</text><text x="9" y="1071">0</text></g><g class="especies"><g class="e0"><circle cx="882" cy="1009" fill="#3cb44B" r="3.5" stroke-width="0" /><circle cx="880" cy="992" fill="#3cb44B" r="3.5" stroke-width="0" /><circle cx="930" cy="981" fill="#3cb44B" r="3.5" stroke-width="0" /><circle cx="841" cy="958" fill="#3cb44B" r="3.5" stroke-width="0" /><circle cx="894" cy="946" fill="#3cb44B" r="3.5" stroke-width="0" /><circle cx="859" cy="943" fill="#3cb44B" r="3.5" stroke-width="0" /><circle cx="827" cy="941" fill="#3cb44B" r="3.5" stroke-width="0" /><circle cx="854" cy="939" fill="#3cb44B" r="3.5" stroke-width="0" /><circle cx="868" cy="936" fill="#3cb44B" r="3.5" stroke-width="0" /><circle cx="879" cy="932" fill="#3cb44B" r="3.5" stroke-width="0" /><circle cx="791" cy="930" fill="#3cb44B" r="3.5" stroke-width="0" /><circle cx="821" cy="930" fill="#3cb44B" r="3.5" stroke-width="0" /><circle cx="897" cy="929" fill="#3cb44B" r="3.5" stroke-width="0" /><circle cx="873" cy="922" fill="#3cb44B" r="3.5" stroke-width="0" /><circle cx="892" cy="922" fill="#3cb44B" r="3.5" stroke-width="0" /><circle cx="994" cy="922" fill="#3cb44B" r="3.5" stroke-width="0" /><circle cx="910" cy="921" fill="#3cb44B" r="3.5" stroke-width="0" /><circle cx="867" cy="918" fill="#3cb44B" r="3.5" stroke-width="0" /><circle cx="936" cy="918" fill="#3cb44B" r="3.5" stroke-width="0" /><circle cx="823" cy="916" fill="#3cb44B" r="3.5" stroke-width="0" /><circle cx="860" cy="915" fill="#3cb44B" r="3.5" stroke-width="0" /><circle cx="832" cy="914" fill="#3cb44B" r="3.5" stroke-width="0" /><circle cx="861" cy="914" fill="#3cb44B" r="3.5" stroke-width="0" /><circle cx="884" cy="913" fill="#3cb44B" r="3.5" stroke-width="0" /><circle cx="755" cy="912" fill="#3cb44B" r="3.5" stroke-width="0" /><circle cx="910" cy="909" fill="#3cb44B" r="3.5" stroke-width="0" /><circle cx="857" cy="906" fill="#3cb44B" r="3.5" stroke-width="0" /><circle cx="901" cy="905" fill="#3cb44B" r="3.5" stroke-width="0" /><circle cx="983" cy="905" fill="#3cb44B" r="3.5" stroke-width="0" /><circle cx="825" cy="900" fill="#3cb44B" r="3.5" stroke-width="0" /><circle cx="945" cy="899" fill="#3cb44B" r="3.5" stroke-width="0" /><circle cx="889" cy="898" fill="#3cb44B" r="3.5" stroke-width="0" /><circle cx="788" cy="896" fill="#3cb44B" r="3.5" stroke-width="0" /><circle cx="832" cy="895" fill="#3cb44B" r="3.5" stroke-width="0" /><circle cx="863" cy="895" fill="#3cb44B" r="3.5" stroke-width="0" /><circle cx="870" cy="895" fill="#3cb44B" r="3.5" stroke-width="0" /><circle cx="848" cy="894" fill="#3cb44B" r="3.5" stroke-width="0" /><circle cx="884" cy="894" fill="#3cb44B" r="3.5" stroke-width="0" /><circle cx="928" cy="894" fill="#3cb44B" r="3.5" stroke-width="0" /><circle cx="802" cy="889" fill="#3cb44B" r="3.5" stroke-width="0" /><circle cx="819" cy="889" fill="#3cb44B" r="3.5" stroke-width="0" /><circle cx="814" cy="887" fill="#3cb44B" r="3.5" stroke-width="0" /><circle cx="830" cy="887" fill="#3cb44B" r="3.5" stroke-width="0" /><circle cx="888" cy="887" fill="#3cb44B" r="3.5" stroke-width="0" /><circle cx="784" cy="886" fill="#3cb44B" r="3.5" stroke-width="0" /><circle cx="893" cy="886" fill="#3cb44B" r="3.5" stroke-width="0" /><circle cx="922" cy="886" fill="#3cb44B" r="3.5" stroke-width="0" /><circle cx="813" cy="885" fill="#3cb44B" r="3.5" stroke-width="0" /><circle cx="840" cy="885" fill="#3cb44B" r="3.5" stroke-width="0" /><circle cx="841" cy="881" fill="#3cb44B" r="3.5" stroke-width="0" /><circle cx="946" cy="880" fill="#3cb44B" r="3.5" stroke-width="0" /><circle cx="890" cy="874" fill="#3cb44B" r="3.5" stroke-width="0" /><circle cx="845" cy="873" fill="#3cb44B" r="3.5" stroke-width="0" /><circle cx="795" cy="871" fill="#3cb44B" r="3.5" stroke-width="0" /><circle cx="881" cy="870" fill="#3cb44B" r="3.5" stroke-width="0" /><circle cx="822" cy="869" fill="#3cb44B" r="3.5" stroke-width="0" /><circle cx="806" cy="868" fill="#3cb44B" r="3.5" stroke-width="0" /><circle cx="812" cy="868" fill="#3cb44B" r="3.5" stroke-width="0" /><circle cx="841" cy="867" fill="#3cb44B" r="3.5" stroke-width="0" /><circle cx="885" cy="867" fill="#3cb44B" r="3.5" stroke-width="0" /><circle cx="875" cy="866" fill="#3cb44B" r="3.5" stroke-width="0" /><circle cx="878" cy="865" fill="#3cb44B" r="3.5" stroke-width="0" /><circle cx="887" cy="865" fill="#3cb44B" r="3.5" stroke-width="0" /><circle cx="875" cy="864" fill="#3cb44B" r="3.5" stroke-width="0" /><circle cx="829" cy="860" fill="#3cb44B" r="3.5" stroke-width="0" /><circle cx="855" cy="860" fill="#3cb44B" r="3.5" stroke-width="0" /><circle cx="928" cy="860" fill="#3cb44B" r="3.5" stroke-width="0" /><circle cx="817" cy="859" fill="#3cb44B" r="3.5" stroke-width="0" /><circle cx="879" cy="858" fill="#3cb44B" r="3.5" stroke-width="0" /><circle cx="898" cy="858" fill="#3cb44B" r="3.5" stroke-width="0" /><circle cx="814" cy="857" fill="#3cb44B" r="3.5" stroke-width="0" /><circle cx="826" cy="854" fill="#3cb44B" r="3.5" stroke-width="0" /><circle cx="827" cy="853" fill="#3cb44B" r="3.5" stroke-width="0" /><circle cx="831" cy="853" fill="#3cb44B" r="3.5" stroke-width="0" /><circle cx="819" cy="852" fill="#3cb44B" r="3.5" stroke-width="0" /><circle cx="836" cy="850" fill="#3cb44B" r="3.5" stroke-width="0" /><circle cx="841" cy="850" fill="#3cb44B" r="3.5" stroke-width="0" /><circle cx="846" cy="847" fill="#3cb44B" r="3.5" stroke-width="0" /><circle cx="854" cy="843" fill="#3cb44B" r="3.5" stroke-width="0" /><circle cx="908" cy="841" fill="#3cb44B" r="3.5" stroke-width="0" /><circle cx="944" cy="841" fill="#3cb44B" r="3.5" stroke-width="0" /><circle cx="883" cy="839" fill="#3cb44B" r="3.5" stroke-width="0" /><circle cx="883" cy="835" fill="#3cb44B" r="3.5" stroke-width="0" /><circle cx="913" cy="831" fill="#3cb44B" r="3.5" stroke-width="0" /><circle cx="923" cy="830" fill="#3cb44B" r="3.5" stroke-width="0" /><circle cx="859" cy="829" fill="#3cb44B" r="3.5" stroke-width="0" /><circle cx="911" cy="825" fill="#3cb44B" r="3.5" stroke-width="0" /><circle cx="944" cy="825" fill="#3cb44B" r="3.5" stroke-width="0" /><circle cx="855" cy="823" fill="#3cb44B" r="3.5" stroke-width="0" /><circle cx="862" cy="821" fill="#3cb44B" r="3.5" stroke-width="0" /><circle cx="870" cy="819" fill="#3cb44B" r="3.5" stroke-width="0" /><circle cx="759" cy="816" fill="#3cb44B" r="3.5" stroke-width="0" /><circle cx="864" cy="816" fill="#3cb44B" r="3.5" stroke-width="0" /><circle cx="877" cy="815" fill="#3cb44B" r="3.5" stroke-width="0" /><circle cx="910" cy="814" fill="#3cb44B" r="3.5" stroke-width="0" /><circle cx="942" cy="813" fill="#3cb44B" r="3.5" stroke-width="0" /><circle cx="951" cy="808" fill="#3cb44B" r="3.5" stroke-width="0" /><circle cx="869" cy="800" fill="#3cb44B" r="3.5" stroke-width="0" /><circle cx="864" cy="783" fill="#3cb44B" r="3.5" stroke-width="0" /><circle cx="893" cy="723" fill="#3cb44B" r="3.5" stroke-width="0" /></g><g class="e1"><circle cx="322" cy="976" fill="#ff0000" r="3.5" stroke-width="0" /><circle cx="310" cy="968" fill="#ff0000" r="3.5" stroke-width="0" /><circle cx="318" cy="954" fill="#ff0000" r="3.5" stroke-width="0" /><circle cx="296" cy="951" fill="#ff0000" r="3.5" stroke-width="0" /><circle cx="344" cy="940" fill="#ff0000" r="3.5" stroke-width="0" /><circle cx="319" cy="937" fill="#ff0000" r="3.5" stroke-width="0" /><circle cx="328" cy="937" fill="#ff0000" r="3.5" stroke-width="0" /><circle cx="310" cy="934" fill="#ff0000" r="3.5" stroke-width="0" /><circle cx="323" cy="931" fill="#ff0000" r="3.5" stroke-width="0" /><circle cx="328" cy="931" fill="#ff0000" r="3.5" stroke-width="0" /><circle cx="332" cy="931" fill="#ff0000" r="3.5" stroke-width="0" /><circle cx="321" cy="927" fill="#ff0000" r="3.5" stroke-width="0" /><circle cx="280" cy="924" fill="#ff0000" r="3.5" stroke-width="0" /><circle cx="335" cy="924" fill="#ff0000" r="3.5" stroke-width="0" /><circle cx="328" cy="921" fill="#ff0000" r="3.5" stroke-width="0" /><circle cx="279" cy="918" fill="#ff0000" r="3.5" stroke-width="0" /><circle cx="335" cy="918" fill="#ff0000" r="3.5" stroke-width="0" /><circle cx="341" cy="915" fill="#ff0000" r="3.5" stroke-width="0" /><circle cx="363" cy="914" fill="#ff0000" r="3.5" stroke-width="0" /><circle cx="323" cy="913" fill="#ff0000" r="3.5" stroke-width="0" /><circle cx="311" cy="912" fill="#ff0000" r="3.5" stroke-width="0" /><circle cx="315" cy="912" fill="#ff0000" r="3.5" stroke-width="0" /><circle cx="309" cy="910" fill="#ff0000" r="3.5" stroke-width="0" /><circle cx="327" cy="910" fill="#ff0000" r="3.5" stroke-width="0" /><circle cx="336" cy="910" fill="#ff0000" r="3.5" stroke-width="0" /><circle cx="342" cy="910" fill="#ff0000" r="3.5" stroke-width="0" /><circle cx="300" cy="908" fill="#ff0000" r="3.5" stroke-width="0" /><circle cx="295" cy="906" fill="#ff0000" r="3.5" stroke-width="0" /><circle cx="323" cy="905" fill="#ff0000" r="3.5" stroke-width="0" /><circle cx="295" cy="904" fill="#ff0000" r="3.5" stroke-width="0" /><circle cx="314" cy="901" fill="#ff0000" r="3.5" stroke-width="0" /><circle cx="315" cy="901" fill="#ff0000" r="3.5" stroke-width="0" /><circle cx="288" cy="900" fill="#ff0000" r="3.5" stroke-width="0" /><circle cx="324" cy="900" fill="#ff0000" r="3.5" stroke-width="0" /><circle cx="345" cy="895" fill="#ff0000" r="3.5" stroke-width="0" /><circle cx="304" cy="894" fill="#ff0000" r="3.5" stroke-width="0" /><circle cx="309" cy="894" fill="#ff0000" r="3.5" stroke-width="0" /><circle cx="316" cy="894" fill="#ff0000" r="3.5" stroke-width="0" /><circle cx="317" cy="894" fill="#ff0000" r="3.5" stroke-width="0" /><circle cx="324" cy="892" fill="#ff0000" r="3.5" stroke-width="0" /><circle cx="327" cy="892" fill="#ff0000" r="3.5" stroke-width="0" /><circle cx="342" cy="891" fill="#ff0000" r="3.5" stroke-width="0" /><circle cx="315" cy="890" fill="#ff0000" r="3.5" stroke-width="0" /><circle cx="322" cy="890" fill="#ff0000" r="3.5" stroke-width="0" /><circle cx="305" cy="889" fill="#ff0000" r="3.5" stroke-width="0" /><circle cx="294" cy="888" fill="#ff0000" r="3.5" stroke-width="0" /><circle cx="323" cy="887" fill="#ff0000" r="3.5" stroke-width="0" /><circle cx="328" cy="887" fill="#ff0000" r="3.5" stroke-width="0" /><circle cx="351" cy="887" fill="#ff0000" r="3.5" stroke-width="0" /><circle cx="356" cy="885" fill="#ff0000" r="3.5" stroke-width="0" /><circle cx="309" cy="884" fill="#ff0000" r="3.5" stroke-width="0" /><circle cx="299" cy="881" fill="#ff0000" r="3.5" stroke-width="0" /><circle cx="323" cy="881" fill="#ff0000" r="3.5" stroke-width="0" /><circle cx="357" cy="881" fill="#ff0000" r="3.5" stroke-width="0" /><circle cx="364" cy="881" fill="#ff0000" r="3.5" stroke-width="0" /><circle cx="296" cy="880" fill="#ff0000" r="3.5" stroke-width="0" /><circle cx="320" cy="879" fill="#ff0000" r="3.5" stroke-width="0" /><circle cx="287" cy="878" fill="#ff0000" r="3.5" stroke-width="0" /><circle cx="384" cy="878" fill="#ff0000" r="3.5" stroke-width="0" /><circle cx="287" cy="876" fill="#ff0000" r="3.5" stroke-width="0" /><circle cx="354" cy="869" fill="#ff0000" r="3.5" stroke-width="0" /><circle cx="293" cy="868" fill="#ff0000" r="3.5" stroke-width="0" /><circle cx="294" cy="868" fill="#ff0000" r="3.5" stroke-width="0" /><circle cx="303" cy="867" fill="#ff0000" r="3.5" stroke-width="0" /><circle cx="346" cy="867" fill="#ff0000" r="3.5" stroke-width="0" /><circle cx="308" cy="866" fill="#ff0000" r="3.5" stroke-width="0" /><circle cx="329" cy="861" fill="#ff0000" r="3.5" stroke-width="0" /><circle cx="331" cy="861" fill="#ff0000" r="3.5" stroke-width="0" /><circle cx="383" cy="860" fill="#ff0000" r="3.5" stroke-width="0" /><circle cx="312" cy="858" fill="#ff0000" r="3.5" stroke-width="0" /><circle cx="315" cy="858" fill="#ff0000" r="3.5" stroke-width="0" /><circle cx="336" cy="858" fill="#ff0000" r="3.5" stroke-width="0" /><circle cx="262" cy="855" fill="#ff0000" r="3.5" stroke-width="0" /><circle cx="312" cy="855" fill="#ff0000" r="3.5" stroke-width="0" /><circle cx="304" cy="854" fill="#ff0000" r="3.5" stroke-width="0" /><circle cx="319" cy="853" fill="#ff0000" r="3.5" stroke-width="0" /><circle cx="290" cy="851" fill="#ff0000" r="3.5" stroke-width="0" /><circle cx="373" cy="850" fill="#ff0000" r="3.5" stroke-width="0" /><circle cx="299" cy="848" fill="#ff0000" r="3.5" stroke-width="0" /><circle cx="353" cy="848" fill="#ff0000" r="3.5" stroke-width="0" /><circle cx="312" cy="847" fill="#ff0000" r="3.5" stroke-width="0" /><circle cx="324" cy="847" fill="#ff0000" r="3.5" stroke-width="0" /><circle cx="298" cy="846" fill="#ff0000" r="3.5" stroke-width="0" /><circle cx="341" cy="846" fill="#ff0000" r="3.5" stroke-width="0" /><circle cx="317" cy="845" fill="#ff0000" r="3.5" stroke-width="0" /><circle cx="336" cy="844" fill="#ff0000" r="3.5" stroke-width="0" /><circle cx="270" cy="843" fill="#ff0000" r="3.5" stroke-width="0" /><circle cx="319" cy="843" fill="#ff0000" r="3.5" stroke-width="0" /><circle cx="306" cy="833" fill="#ff0000" r="3.5" stroke-width="0" /><circle cx="303" cy="831" fill="#ff0000" r="3.5" stroke-width="0" /><circle cx="330" cy="826" fill="#ff0000" r="3.5" stroke-width="0" /><circle cx="272" cy="825" fill="#ff0000" r="3.5" stroke-width="0" /><circle cx="377" cy="825" fill="#ff0000" r="3.5" stroke-width="0" /><circle cx="315" cy="821" fill="#ff0000" r="3.5" stroke-width="0" /><circle cx="304" cy="819" fill="#ff0000" r="3.5" stroke-width="0" /><circle cx="310" cy="818" fill="#ff0000" r="3.5" stroke-width="0" /><circle cx="314" cy="817" fill="#ff0000" r="3.5" stroke-width="0" /><circle cx="350" cy="816" fill="#ff0000" r="3.5" stroke-width="0" /><circle cx="303" cy="800" fill="#ff0000" r="3.5" stroke-width="0" /><circle cx="339" cy="774" fill="#ff0000" r="3.5" stroke-width="0" /><circle cx="588" cy="708" fill="#ff0000" r="3.5" stroke-width="0" /><circle cx="586" cy="691" fill="#ff0000" r="3.5" stroke-width="0" /><circle cx="569" cy="684" fill="#ff0000" r="3.5" stroke-width="0" /><circle cx="578" cy="666" fill="#ff0000" r="3.5" stroke-width="0" /><circle cx="517" cy="654" fill="#ff0000" r="3.5" stroke-width="0" /><circle cx="635" cy="642" fill="#ff0000" r="3.5" stroke-width="0" /><circle cx="555" cy="639" fill="#ff0000" r="3.5" stroke-width="0" /><circle cx="606" cy="635" fill="#ff0000" r="3.5" stroke-width="0" /><circle cx="610" cy="633" fill="#ff0000" r="3.5" stroke-width="0" /><circle cx="535" cy="627" fill="#ff0000" r="3.5" stroke-width="0" /><circle cx="560" cy="626" fill="#ff0000" r="3.5" stroke-width="0" /><circle cx="521" cy="623" fill="#ff0000" r="3.5" stroke-width="0" /><circle cx="596" cy="621" fill="#ff0000" r="3.5" stroke-width="0" /><circle cx="621" cy="620" fill="#ff0000" r="3.5" stroke-width="0" /><circle cx="629" cy="616" fill="#ff0000" r="3.5" stroke-width="0" /><circle cx="542" cy="615" fill="#ff0000" r="3.5" stroke-width="0" /><circle cx="580" cy="614" fill="#ff0000" r="3.5" stroke-width="0" /><circle cx="574" cy="611" fill="#ff0000" r="3.5" stroke-width="0" /><circle cx="576" cy="610" fill="#ff0000" r="3.5" stroke-width="0" /><circle cx="679" cy="610" fill="#ff0000" r="3.5" stroke-width="0" /><circle cx="541" cy="607" fill="#ff0000" r="3.5" stroke-width="0" /><circle cx="524" cy="606" fill="#ff0000" r="3.5" stroke-width="0" /><circle cx="571" cy="606" fill="#ff0000" r="3.5" stroke-width="0" /><circle cx="583" cy="606" fill="#ff0000" r="3.5" stroke-width="0" /><circle cx="602" cy="606" fill="#ff0000" r="3.5" stroke-width="0" /><circle cx="521" cy="603" fill="#ff0000" r="3.5" stroke-width="0" /><circle cx="566" cy="600" fill="#ff0000" r="3.5" stroke-width="0" /><circle cx="489" cy="597" fill="#ff0000" r="3.5" stroke-width="0" /><circle cx="559" cy="597" fill="#ff0000" r="3.5" stroke-width="0" /><circle cx="643" cy="597" fill="#ff0000" r="3.5" stroke-width="0" /><circle cx="509" cy="594" fill="#ff0000" r="3.5" stroke-width="0" /><circle cx="515" cy="592" fill="#ff0000" r="3.5" stroke-width="0" /><circle cx="486" cy="590" fill="#ff0000" r="3.5" stroke-width="0" /><circle cx="540" cy="587" fill="#ff0000" r="3.5" stroke-width="0" /><circle cx="634" cy="586" fill="#ff0000" r="3.5" stroke-width="0" /><circle cx="552" cy="583" fill="#ff0000" r="3.5" stroke-width="0" /><circle cx="606" cy="581" fill="#ff0000" r="3.5" stroke-width="0" /><circle cx="623" cy="581" fill="#ff0000" r="3.5" stroke-width="0" /><circle cx="552" cy="577" fill="#ff0000" r="3.5" stroke-width="0" /><circle cx="557" cy="576" fill="#ff0000" r="3.5" stroke-width="0" /><circle cx="464" cy="575" fill="#ff0000" r="3.5" stroke-width="0" /><circle cx="538" cy="574" fill="#ff0000" r="3.5" stroke-width="0" /><circle cx="545" cy="573" fill="#ff0000" r="3.5" stroke-width="0" /><circle cx="495" cy="572" fill="#ff0000" r="3.5" stroke-width="0" /><circle cx="550" cy="570" fill="#ff0000" r="3.5" stroke-width="0" /><circle cx="571" cy="568" fill="#ff0000" r="3.5" stroke-width="0" /><circle cx="628" cy="568" fill="#ff0000" r="3.5" stroke-width="0" /><circle cx="584" cy="566" fill="#ff0000" r="3.5" stroke-width="0" /><circle cx="574" cy="565" fill="#ff0000" r="3.5" stroke-width="0" /><circle cx="629" cy="564" fill="#ff0000" r="3.5" stroke-width="0" /><circle cx="449" cy="563" fill="#ff0000" r="3.5" stroke-width="0" /><circle cx="482" cy="563" fill="#ff0000" r="3.5" stroke-width="0" /><circle cx="570" cy="563" fill="#ff0000" r="3.5" stroke-width="0" /><circle cx="579" cy="561" fill="#ff0000" r="3.5" stroke-width="0" /><circle cx="567" cy="559" fill="#ff0000" r="3.5" stroke-width="0" /><circle cx="686" cy="558" fill="#ff0000" r="3.5" stroke-width="0" /><circle cx="562" cy="557" fill="#ff0000" r="3.5" stroke-width="0" /><circle cx="592" cy="557" fill="#ff0000" r="3.5" stroke-width="0" /><circle cx="597" cy="557" fill="#ff0000" r="3.5" stroke-width="0" /><circle cx="508" cy="556" fill="#ff0000" r="3.5" stroke-width="0" /><circle cx="627" cy="553" fill="#ff0000" r="3.5" stroke-width="0" /><circle cx="481" cy="551" fill="#ff0000" r="3.5" stroke-width="0" /><circle cx="541" cy="550" fill="#ff0000" r="3.5" stroke-width="0" /><circle cx="638" cy="550" fill="#ff0000" r="3.5" stroke-width="0" /><circle cx="517" cy="548" fill="#ff0000" r="3.5" stroke-width="0" /><circle cx="548" cy="548" fill="#ff0000" r="3.5" stroke-width="0" /><circle cx="516" cy="547" fill="#ff0000" r="3.5" stroke-width="0" /><circle cx="568" cy="546" fill="#ff0000" r="3.5" stroke-width="0" /><circle cx="544" cy="544" fill="#ff0000" r="3.5" stroke-width="0" /><circle cx="606" cy="544" fill="#ff0000" r="3.5" stroke-width="0" /><circle cx="657" cy="543" fill="#ff0000" r="3.5" stroke-width="0" /><circle cx="571" cy="542" fill="#ff0000" r="3.5" stroke-width="0" /><circle cx="460" cy="538" fill="#ff0000" r="3.5" stroke-width="0" /><circle cx="584" cy="538" fill="#ff0000" r="3.5" stroke-width="0" /><circle cx="542" cy="537" fill="#ff0000" r="3.5" stroke-width="0" /><circle cx="544" cy="534" fill="#ff0000" r="3.5" stroke-width="0" /><circle cx="579" cy="534" fill="#ff0000" r="3.5" stroke-width="0" /><circle cx="558" cy="532" fill="#ff0000" r="3.5" stroke-width="0" /><circle cx="585" cy="531" fill="#ff0000" r="3.5" stroke-width="0" /><circle cx="577" cy="530" fill="#ff0000" r="3.5" stroke-width="0" /><circle cx="574" cy="528" fill="#ff0000" r="3.5" stroke-width="0" /><circle cx="463" cy="527" fill="#ff0000" r="3.5" stroke-width="0" /><circle cx="581" cy="527" fill="#ff0000" r="3.5" stroke-width="0" /><circle cx="544" cy="526" fill="#ff0000" r="3.5" stroke-width="0" /><circle cx="570" cy="524" fill="#ff0000" r="3.5" stroke-width="0" /><circle cx="621" cy="524" fill="#ff0000" r="3.5" stroke-width="0" /><circle cx="605" cy="519" fill="#ff0000" r="3.5" stroke-width="0" /><circle cx="631" cy="517" fill="#ff0000" r="3.5" stroke-width="0" /><circle cx="584" cy="514" fill="#ff0000" r="3.5" stroke-width="0" /><circle cx="642" cy="514" fill="#ff0000" r="3.5" stroke-width="0" /><circle cx="492" cy="513" fill="#ff0000" r="3.5" stroke-width="0" /><circle cx="500" cy="511" fill="#ff0000" r="3.5" stroke-width="0" /><circle cx="519" cy="510" fill="#ff0000" r="3.5" stroke-width="0" /><circle cx="538" cy="508" fill="#ff0000" r="3.5" stroke-width="0" /><circle cx="519" cy="506" fill="#ff0000" r="3.5" stroke-width="0" /><circle cx="527" cy="493" fill="#ff0000" r="3.5" stroke-width="0" /><circle cx="636" cy="482" fill="#ff0000" r="3.5" stroke-width="0" /><circle cx="584" cy="479" fill="#ff0000" r="3.5" stroke-width="0" /><circle cx="562" cy="467" fill="#ff0000" r="3.5" stroke-width="0" /><circle cx="609" cy="467" fill="#ff0000" r="3.5" stroke-width="0" /><circle cx="905" cy="371" fill="#ff0000" r="3.5" stroke-width="0" /><circle cx="872" cy="356" fill="#ff0000" r="3.5" stroke-width="0" /><circle cx="871" cy="354" fill="#ff0000" r="3.5" stroke-width="0" /><circle cx="977" cy="354" fill="#ff0000" r="3.5" stroke-width="0" /><circle cx="911" cy="345" fill="#ff0000" r="3.5" stroke-width="0" /><circle cx="870" cy="344" fill="#ff0000" r="3.5" stroke-width="0" /><circle cx="779" cy="343" fill="#ff0000" r="3.5" stroke-width="0" /><circle cx="831" cy="342" fill="#ff0000" r="3.5" stroke-width="0" /><circle cx="827" cy="340" fill="#ff0000" r="3.5" stroke-width="0" /><circle cx="870" cy="331" fill="#ff0000" r="3.5" stroke-width="0" /><circle cx="854" cy="329" fill="#ff0000" r="3.5" stroke-width="0" /><circle cx="866" cy="329" fill="#ff0000" r="3.5" stroke-width="0" /><circle cx="840" cy="324" fill="#ff0000" r="3.5" stroke-width="0" /><circle cx="832" cy="323" fill="#ff0000" r="3.5" stroke-width="0" /><circle cx="913" cy="322" fill="#ff0000" r="3.5" stroke-width="0" /><circle cx="807" cy="314" fill="#ff0000" r="3.5" stroke-width="0" /><circle cx="871" cy="314" fill="#ff0000" r="3.5" stroke-width="0" /><circle cx="819" cy="313" fill="#ff0000" r="3.5" stroke-width="0" /><circle cx="778" cy="312" fill="#ff0000" r="3.5" stroke-width="0" /><circle cx="796" cy="312" fill="#ff0000" r="3.5" stroke-width="0" /><circle cx="852" cy="311" fill="#ff0000" r="3.5" stroke-width="0" /><circle cx="896" cy="309" fill="#ff0000" r="3.5" stroke-width="0" /><circle cx="847" cy="308" fill="#ff0000" r="3.5" stroke-width="0" /><circle cx="821" cy="307" fill="#ff0000" r="3.5" stroke-width="0" /><circle cx="856" cy="307" fill="#ff0000" r="3.5" stroke-width="0" /><circle cx="944" cy="304" fill="#ff0000" r="3.5" stroke-width="0" /><circle cx="836" cy="301" fill="#ff0000" r="3.5" stroke-width="0" /><circle cx="863" cy="301" fill="#ff0000" r="3.5" stroke-width="0" /><circle cx="930" cy="300" fill="#ff0000" r="3.5" stroke-width="0" /><circle cx="888" cy="299" fill="#ff0000" r="3.5" stroke-width="0" /><circle cx="917" cy="299" fill="#ff0000" r="3.5" stroke-width="0" /><circle cx="902" cy="298" fill="#ff0000" r="3.5" stroke-width="0" /><circle cx="895" cy="297" fill="#ff0000" r="3.5" stroke-width="0" /><circle cx="852" cy="296" fill="#ff0000" r="3.5" stroke-width="0" /><circle cx="903" cy="293" fill="#ff0000" r="3.5" stroke-width="0" /><circle cx="906" cy="293" fill="#ff0000" r="3.5" stroke-width="0" /><circle cx="789" cy="292" fill="#ff0000" r="3.5" stroke-width="0" /><circle cx="831" cy="292" fill="#ff0000" r="3.5" stroke-width="0" /><circle cx="872" cy="292" fill="#ff0000" r="3.5" stroke-width="0" /><circle cx="924" cy="292" fill="#ff0000" r="3.5" stroke-width="0" /><circle cx="939" cy="292" fill="#ff0000" r="3.5" stroke-width="0" /><circle cx="795" cy="290" fill="#ff0000" r="3.5" stroke-width="0" /><circle cx="810" cy="290" fill="#ff0000" r="3.5" stroke-width="0" /><circle cx="828" cy="290" fill="#ff0000" r="3.5" stroke-width="0" /><circle cx="847" cy="290" fill="#ff0000" r="3.5" stroke-width="0" /><circle cx="894" cy="290" fill="#ff0000" r="3.5" stroke-width="0" /><circle cx="827" cy="287" fill="#ff0000" r="3.5" stroke-width="0" /><circle cx="893" cy="285" fill="#ff0000" r="3.5" stroke-width="0" /><circle cx="849" cy="283" fill="#ff0000" r="3.5" stroke-width="0" /><circle cx="969" cy="282" fill="#ff0000" r="3.5" stroke-width="0" /><circle cx="889" cy="279" fill="#ff0000" r="3.5" stroke-width="0" /><circle cx="898" cy="277" fill="#ff0000" r="3.5" stroke-width="0" /><circle cx="827" cy="276" fill="#ff0000" r="3.5" stroke-width="0" /><circle cx="831" cy="276" fill="#ff0000" r="3.5" stroke-width="0" /><circle cx="865" cy="276" fill="#ff0000" r="3.5" stroke-width="0" /><circle cx="878" cy="276" fill="#ff0000" r="3.5" stroke-width="0" /><circle cx="846" cy="274" fill="#ff0000" r="3.5" stroke-width="0" /><circle cx="895" cy="273" fill="#ff0000" r="3.5" stroke-width="0" /><circle cx="919" cy="273" fill="#ff0000" r="3.5" stroke-width="0" /><circle cx="878" cy="271" fill="#ff0000" r="3.5" stroke-width="0" /><circle cx="889" cy="271" fill="#ff0000" r="3.5" stroke-width="0" /><circle cx="902" cy="271" fill="#ff0000" r="3.5" stroke-width="0" /><circle cx="852" cy="270" fill="#ff0000" r="3.5" stroke-width="0" /><circle cx="882" cy="269" fill="#ff0000" r="3.5" stroke-width="0" /><circle cx="887" cy="267" fill="#ff0000" r="3.5" stroke-width="0" /><circle cx="989" cy="266" fill="#ff0000" r="3.5" stroke-width="0" /><circle cx="888" cy="264" fill="#ff0000" r="3.5" stroke-width="0" /><circle cx="884" cy="263" fill="#ff0000" r="3.5" stroke-width="0" /><circle cx="899" cy="259" fill="#ff0000" r="3.5" stroke-width="0" /><circle cx="836" cy="257" fill="#ff0000" r="3.5" stroke-width="0" /><circle cx="840" cy="256" fill="#ff0000" r="3.5" stroke-width="0" /><circle cx="800" cy="253" fill="#ff0000" r="3.5" stroke-width="0" /><circle cx="825" cy="251" fill="#ff0000" r="3.5" stroke-width="0" /><circle cx="882" cy="249" fill="#ff0000" r="3.5" stroke-width="0" /><circle cx="896" cy="247" fill="#ff0000" r="3.5" stroke-width="0" /><circle cx="905" cy="244" fill="#ff0000" r="3.5" stroke-width="0" /><circle cx="851" cy="243" fill="#ff0000" r="3.5" stroke-width="0" /><circle cx="875" cy="242" fill="#ff0000" r="3.5" stroke-width="0" /><circle cx="885" cy="240" fill="#ff0000" r="3.5" stroke-width="0" /><circle cx="971" cy="239" fill="#ff0000" r="3.5" stroke-width="0" /><circle cx="907" cy="237" fill="#ff0000" r="3.5" stroke-width="0" /><circle cx="869" cy="233" fill="#ff0000" r="3.5" stroke-width="0" /><circle cx="840" cy="230" fill="#ff0000" r="3.5" stroke-width="0" /><circle cx="915" cy="229" fill="#ff0000" r="3.5" stroke-width="0" /><circle cx="934" cy="229" fill="#ff0000" r="3.5" stroke-width="0" /><circle cx="842" cy="228" fill="#ff0000" r="3.5" stroke-width="0" /><circle cx="772" cy="227" fill="#ff0000" r="3.5" stroke-width="0" /><circle cx="867" cy="224" fill="#ff0000" r="3.5" stroke-width="0" /><circle cx="935" cy="224" fill="#ff0000" r="3.5" stroke-width="0" /><circle cx="894" cy="219" fill="#ff0000" r="3.5" stroke-width="0" /><circle cx="933" cy="218" fill="#ff0000" r="3.5" stroke-width="0" /><circle cx="873" cy="212" fill="#ff0000" r="3.5" stroke-width="0" /><circle cx="916" cy="204" fill="#ff0000" r="3.5" stroke-width="0" /><circle cx="915" cy="199" fill="#ff0000" r="3.5" stroke-width="0" /><circle cx="867" cy="197" fill="#ff0000" r="3.5" stroke-width="0" /><circle cx="821" cy="190" fill="#ff0000" r="3.5" stroke-width="0" /><circle cx="883" cy="186" fill="#ff0000" r="3.5" stroke-width="0" /><circle cx="774" cy="183" fill="#ff0000" r="3.5" stroke-width="0" /><circle cx="914" cy="182" fill="#ff0000" r="3.5" stroke-width="0" /><circle cx="892" cy="177" fill="#ff0000" r="3.5" stroke-width="0" /></g><g class="e2"><circle cx="347" cy="387" fill="#2b92db" r="3.5" stroke-width="0" /><circle cx="320" cy="385" fill="#2b92db" r="3.5" stroke-width="0" /><circle cx="335" cy="366" fill="#2b92db" r="3.5" stroke-width="0" /><circle cx="301" cy="356" fill="#2b92db" r="3.5" stroke-width="0" /><circle cx="327" cy="345" fill="#2b92db" r="3.5" stroke-width="0" /><circle cx="327" cy="342" fill="#2b92db" r="3.5" stroke-width="0" /><circle cx="305" cy="339" fill="#2b92db" r="3.5" stroke-width="0" /><circle cx="311" cy="339" fill="#2b92db" r="3.5" stroke-width="0" /><circle cx="318" cy="335" fill="#2b92db" r="3.5" stroke-width="0" /><circle cx="297" cy="328" fill="#2b92db" r="3.5" stroke-width="0" /><circle cx="331" cy="327" fill="#2b92db" r="3.5" stroke-width="0" /><circle cx="345" cy="324" fill="#2b92db" r="3.5" stroke-width="0" /><circle cx="316" cy="323" fill="#2b92db" r="3.5" stroke-width="0" /><circle cx="325" cy="322" fill="#2b92db" r="3.5" stroke-width="0" /><circle cx="296" cy="318" fill="#2b92db" r="3.5" stroke-width="0" /><circle cx="296" cy="318" fill="#2b92db" r="3.5" stroke-width="0" /><circle cx="334" cy="317" fill="#2b92db" r="3.5" stroke-width="0" /><circle cx="305" cy="316" fill="#2b92db" r="3.5" stroke-width="0" /><circle cx="318" cy="315" fill="#2b92db" r="3.5" stroke-width="0" /><circle cx="319" cy="313" fill="#2b92db" r="3.5" stroke-width="0" /><circle cx="300" cy="311" fill="#2b92db" r="3.5" stroke-width="0" /><circle cx="320" cy="310" fill="#2b92db" r="3.5" stroke-width="0" /><circle cx="331" cy="306" fill="#2b92db" r="3.5" stroke-width="0" /><circle cx="311" cy="305" fill="#2b92db" r="3.5" stroke-width="0" /><circle cx="337" cy="304" fill="#2b92db" r="3.5" stroke-width="0" /><circle cx="296" cy="302" fill="#2b92db" r="3.5" stroke-width="0" /><circle cx="361" cy="302" fill="#2b92db" r="3.5" stroke-width="0" /><circle cx="322" cy="301" fill="#2b92db" r="3.5" stroke-width="0" /><circle cx="308" cy="298" fill="#2b92db" r="3.5" stroke-width="0" /><circle cx="341" cy="296" fill="#2b92db" r="3.5" stroke-width="0" /><circle cx="312" cy="295" fill="#2b92db" r="3.5" stroke-width="0" /><circle cx="329" cy="295" fill="#2b92db" r="3.5" stroke-width="0" /><circle cx="354" cy="295" fill="#2b92db" r="3.5" stroke-width="0" /><circle cx="302" cy="294" fill="#2b92db" r="3.5" stroke-width="0" /><circle cx="270" cy="293" fill="#2b92db" r="3.5" stroke-width="0" /><circle cx="293" cy="293" fill="#2b92db" r="3.5" stroke-width="0" /><circle cx="290" cy="292" fill="#2b92db" r="3.5" stroke-width="0" /><circle cx="290" cy="290" fill="#2b92db" r="3.5" stroke-width="0" /><circle cx="309" cy="290" fill="#2b92db" r="3.5" stroke-width="0" /><circle cx="319" cy="290" fill="#2b92db" r="3.5" stroke-width="0" /><circle cx="327" cy="288" fill="#2b92db" r="3.5" stroke-width="0" /><circle cx="280" cy="286" fill="#2b92db" r="3.5" stroke-width="0" /><circle cx="309" cy="286" fill="#2b92db" r="3.5" stroke-width="0" /><circle cx="336" cy="286" fill="#2b92db" r="3.5" stroke-width="0" /><circle cx="272" cy="284" fill="#2b92db" r="3.5" stroke-width="0" /><circle cx="362" cy="283" fill="#2b92db" r="3.5" stroke-width="0" /><circle cx="332" cy="280" fill="#2b92db" r="3.5" stroke-width="0" /><circle cx="291" cy="279" fill="#2b92db" r="3.5" stroke-width="0" /><circle cx="341" cy="279" fill="#2b92db" r="3.5" stroke-width="0" /><circle cx="341" cy="277" fill="#2b92db" r="3.5" stroke-width="0" /><circle cx="314" cy="276" fill="#2b92db" r="3.5" stroke-width="0" /><circle cx="278" cy="273" fill="#2b92db" r="3.5" stroke-width="0" /><circle cx="334" cy="272" fill="#2b92db" r="3.5" stroke-width="0" /><circle cx="333" cy="271" fill="#2b92db" r="3.5" stroke-width="0" /><circle cx="270" cy="269" fill="#2b92db" r="3.5" stroke-width="0" /><circle cx="316" cy="268" fill="#2b92db" r="3.5" stroke-width="0" /><circle cx="296" cy="267" fill="#2b92db" r="3.5" stroke-width="0" /><circle cx="338" cy="267" fill="#2b92db" r="3.5" stroke-width="0" /><circle cx="287" cy="266" fill="#2b92db" r="3.5" stroke-width="0" /><circle cx="290" cy="266" fill="#2b92db" r="3.5" stroke-width="0" /><circle cx="294" cy="265" fill="#2b92db" r="3.5" stroke-width="0" /><circle cx="336" cy="265" fill="#2b92db" r="3.5" stroke-width="0" /><circle cx="337" cy="265" fill="#2b92db" r="3.5" stroke-width="0" /><circle cx="368" cy="264" fill="#2b92db" r="3.5" stroke-width="0" /><circle cx="375" cy="264" fill="#2b92db" r="3.5" stroke-width="0" /><circle cx="361" cy="263" fill="#2b92db" r="3.5" stroke-width="0" /><circle cx="279" cy="259" fill="#2b92db" r="3.5" stroke-width="0" /><circle cx="315" cy="259" fill="#2b92db" r="3.5" stroke-width="0" /><circle cx="329" cy="258" fill="#2b92db" r="3.5" stroke-width="0" /><circle cx="307" cy="255" fill="#2b92db" r="3.5" stroke-width="0" /><circle cx="299" cy="254" fill="#2b92db" r="3.5" stroke-width="0" /><circle cx="330" cy="254" fill="#2b92db" r="3.5" stroke-width="0" /><circle cx="311" cy="253" fill="#2b92db" r="3.5" stroke-width="0" /><circle cx="341" cy="253" fill="#2b92db" r="3.5" stroke-width="0" /><circle cx="285" cy="251" fill="#2b92db" r="3.5" stroke-width="0" /><circle cx="340" cy="251" fill="#2b92db" r="3.5" stroke-width="0" /><circle cx="290" cy="250" fill="#2b92db" r="3.5" stroke-width="0" /><circle cx="309" cy="250" fill="#2b92db" r="3.5" stroke-width="0" /><circle cx="366" cy="250" fill="#2b92db" r="3.5" stroke-width="0" /><circle cx="319" cy="249" fill="#2b92db" r="3.5" stroke-width="0" /><circle cx="323" cy="249" fill="#2b92db" r="3.5" stroke-width="0" /><circle cx="331" cy="247" fill="#2b92db" r="3.5" stroke-width="0" /><circle cx="312" cy="245" fill="#2b92db" r="3.5" stroke-width="0" /><circle cx="336" cy="239" fill="#2b92db" r="3.5" stroke-width="0" /><circle cx="310" cy="237" fill="#2b92db" r="3.5" stroke-width="0" /><circle cx="316" cy="235" fill="#2b92db" r="3.5" stroke-width="0" /><circle cx="318" cy="235" fill="#2b92db" r="3.5" stroke-width="0" /><circle cx="358" cy="233" fill="#2b92db" r="3.5" stroke-width="0" /><circle cx="328" cy="227" fill="#2b92db" r="3.5" stroke-width="0" /><circle cx="356" cy="227" fill="#2b92db" r="3.5" stroke-width="0" /><circle cx="297" cy="224" fill="#2b92db" r="3.5" stroke-width="0" /><circle cx="311" cy="224" fill="#2b92db" r="3.5" stroke-width="0" /><circle cx="284" cy="223" fill="#2b92db" r="3.5" stroke-width="0" /><circle cx="322" cy="217" fill="#2b92db" r="3.5" stroke-width="0" /><circle cx="323" cy="212" fill="#2b92db" r="3.5" stroke-width="0" /><circle cx="376" cy="207" fill="#2b92db" r="3.5" stroke-width="0" /><circle cx="326" cy="199" fill="#2b92db" r="3.5" stroke-width="0" /><circle cx="299" cy="185" fill="#2b92db" r="3.5" stroke-width="0" /><circle cx="334" cy="171" fill="#2b92db" r="3.5" stroke-width="0" /><circle cx="307" cy="155" fill="#2b92db" r="3.5" stroke-width="0" /></g></g></g></svg>