<?xml version="1.0" encoding="utf-8" ?>
<svg baseProfile="full" height="1140px" style="font-size:15;font-family:Arial, san-serif;font-weight:bold;stroke:black;stroke-width:0;fill:#444444" version="1.1" width="1140px" xmlns="http://www.w3.org/2000/svg" xmlns:ev="http://www.w3.org/2001/xml-events" xmlns:xlink="http://www.w3.org/1999/xlink"><defs><clipPath id="areadografico"><rect height="1000" width="1000" x="70" y="70" /></clipPath></defs><g class="master"><g class="poligonos"><polygon clip-path="url(#areadografico)" fill="#000000" fill-opacity="0.1" points="1069,1070 1069,405 405,1070" /><polygon clip-path="url(#areadografico)" fill="#ffffff" fill-opacity="0.1" points="405,1070 -261,1070 1069,-261 1069,405" /><polygon clip-path="url(#areadografico)" fill="#000000" fill-opacity="0.1" points="70,70 70,738 738,70" /></g><g class="linhas"><line fill-opacity="0.3" stroke="#999999" stroke-width="1" x1="1070" x2="1070" y1="1070" y2="70" /><line fill-opacity="0.3" stroke="#999999" stroke-width="1" x1="70" x2="1070" y1="70" y2="70" /><line fill-opacity="0.3" stroke="#999999" stroke-width="1" x1="970" x2="970" y1="1070" y2="70" /><line fill-opacity="0.3" stroke="#999999" stroke-width="1" x1="70" x2="1070" y1="170" y2="170" /><line fill-opacity="0.3" stroke="#999999" stroke-width="1" x1="870" x2="870" y1="1070" y2="70" /><line fill-opacity="0.3" stroke="#999999" stroke-width="1" x1="70" x2="1070" y1="270" y2="270" /><line fill-opacity="0.3" stroke="#999999" stroke-width="1" x1="770" x2="770" y1="1070" y2="70" /><line fill-opacity="0.3" stroke="#999999" stroke-width="1" x1="70" x2="1070" y1="370" y2="370" /><line fill-opacity="0.3" stroke="#999999" stroke-width="1" x1="670" x2="670" y1="1070" y2="70" /><line fill-opacity="0.3" stroke="#999999" stroke-width="1" x1="70" x2="1070" y1="470" y2="470" /><line fill-opacity="0.3" stroke="#999999" stroke-width="1" x1="570" x2="570" y1="1070" y2="70" /><line fill-opacity="0.3" stroke="#999999" stroke-width="1" x1="70" x2="1070" y1="570" y2="570" /><line fill-opacity="0.3" stroke="#999999" stroke-width="1" x1="470" x2="470" y1="1070" y2="70" /><line fill-opacity="0.3" stroke="#999999" stroke-width="1" x1="70" x2="1070" y1="670" y2="670" /><line fill-opacity="0.3" stroke="#999999" stroke-width="1" x1="370" x2="370" y1="1070" y2="70" /><line fill-opacity="0.3" stroke="#999999" stroke-width="1" x1="70" x2="1070" y1="770" y2="770" /><line fill-opacity="0.3" stroke="#999999" stroke-width="1" x1="270" x2="270" y1="1070" y2="70" /><line fill-opacity="0.3" stroke="#999999" stroke-width="1" x1="70" x2="1070" y1="870" y2="870" /><line fill-opacity="0.3" stroke="#999999" stroke-width="1" x1="170" x2="170" y1="1070" y2="70" /><line fill-opacity="0.3" stroke="#999999" stroke-width="1" x1="70" x2="1070" y1="970" y2="970" /><line fill-opacity="0.3" stroke="#000000" stroke-width="1" x1="70" x2="70" y1="1071" y2="69" /><line fill-opacity="0.3" stroke="#000000" stroke-width="1" x1="69" x2="1071" y1="1070" y2="1070" /></g><g class="textos"><text x="1050" y="1110">1000</text><text x="10" y="71">1000</text><text x="950" y="1110">900</text><text x="10" y="171">900</text><text x="850" y="1110">800</text><text x="10" y="271">800</text><text x="750" y="1110">700</text><text x="10" y="371">700</text><text x="650" y="1110">600</text><text x="10" y="471">600</text><text x="550" y="1110">500</text><text x="10" y="571">500</text><text x="450" y="1110">400</text><text x="10" y="671">400</text><text x="350" y="1110">300</text><text x="10" y="771">300</text><text x="250" y="1110">200</text><text x="10" y="871">200</text><text x="150" y="1110">100</text><text x="10" y="971">100</text><text x="50" y="1111">0</text><text x="9" y="1071">0</text></g><g class="especies"><g class="e0"><circle cx="924" cy="1054" fill="#3cb44B" r="3.5" stroke-width="0" /><circle cx="977" cy="1049" fill="#3cb44B" r="3.5" stroke-width="0" /><circle cx="1069" cy="1045" fill="#3cb44B" r="3.5" stroke-width="0" /><circle cx="703" cy="1035" fill="#3cb44B" r="3.5" stroke-width="0" /><circle cx="559" cy="1017" fill="#3cb44B" r="3.5" stroke-width="0" /><circle cx="899" cy="991" fill="#3cb44B" r="3.5" stroke-width="0" /><circle cx="636" cy="983" fill="#3cb44B" r="3.5" stroke-width="0" /><circle cx="738" cy="983" fill="#3cb44B" r="3.5" stroke-width="0" /><circle cx="875" cy="980" fill="#3cb44B" r="3.5" stroke-width="0" /><circle cx="1006" cy="968" fill="#3cb44B" r="3.5" stroke-width="0" /><circle cx="928" cy="955" fill="#3cb44B" r="3.5" stroke-width="0" /><circle cx="898" cy="935" fill="#3cb44B" r="3.5" stroke-width="0" /><circle cx="637" cy="882" fill="#3cb44B" r="3.5" stroke-width="0" /><circle cx="849" cy="880" fill="#3cb44B" r="3.5" stroke-width="0" /><circle cx="772" cy="878" fill="#3cb44B" r="3.5" stroke-width="0" /><circle cx="802" cy="843" fill="#3cb44B" r="3.5" stroke-width="0" /><circle cx="920" cy="826" fill="#3cb44B" r="3.5" stroke-width="0" /><circle cx="729" cy="821" fill="#3cb44B" r="3.5" stroke-width="0" /><circle cx="847" cy="800" fill="#3cb44B" r="3.5" stroke-width="0" /><circle cx="1017" cy="755" fill="#3cb44B" r="3.5" stroke-width="0" /><circle cx="971" cy="744" fill="#3cb44B" r="3.5" stroke-width="0" /><circle cx="870" cy="735" fill="#3cb44B" r="3.5" stroke-width="0" /><circle cx="1066" cy="721" fill="#3cb44B" r="3.5" stroke-width="0" /><circle cx="874" cy="713" fill="#3cb44B" r="3.5" stroke-width="0" /><circle cx="1017" cy="681" fill="#3cb44B" r="3.5" stroke-width="0" /><circle cx="1065" cy="606" fill="#3cb44B" r="3.5" stroke-width="0" /><circle cx="988" cy="586" fill="#3cb44B" r="3.5" stroke-width="0" /><circle cx="1042" cy="452" fill="#3cb44B" r="3.5" stroke-width="0" /></g><g class="e1"><circle cx="249" cy="1048" fill="#ff0000" r="3.5" stroke-width="0" /><circle cx="239" cy="1018" fill="#ff0000" r="3.5" stroke-width="0" /><circle cx="328" cy="999" fill="#ff0000" r="3.5" stroke-width="0" /><circle cx="74" cy="956" fill="#ff0000" r="3.5" stroke-width="0" /><circle cx="466" cy="892" fill="#ff0000" r="3.5" stroke-width="0" /><circle cx="126" cy="877" fill="#ff0000" r="3.5" stroke-width="0" /><circle cx="357" cy="874" fill="#ff0000" r="3.5" stroke-width="0" /><circle cx="176" cy="855" fill="#ff0000" r="3.5" stroke-width="0" /><circle cx="95" cy="845" fill="#ff0000" r="3.5" stroke-width="0" /><circle cx="78" cy="829" fill="#ff0000" r="3.5" stroke-width="0" /><circle cx="491" cy="801" fill="#ff0000" r="3.5" stroke-width="0" /><circle cx="115" cy="761" fill="#ff0000" r="3.5" stroke-width="0" /><circle cx="382" cy="759" fill="#ff0000" r="3.5" stroke-width="0" /><circle cx="422" cy="735" fill="#ff0000" r="3.5" stroke-width="0" /><circle cx="654" cy="720" fill="#ff0000" r="3.5" stroke-width="0" /><circle cx="454" cy="671" fill="#ff0000" r="3.5" stroke-width="0" /><circle cx="330" cy="670" fill="#ff0000" r="3.5" stroke-width="0" /><circle cx="802" cy="658" fill="#ff0000" r="3.5" stroke-width="0" /><circle cx="637" cy="655" fill="#ff0000" r="3.5" stroke-width="0" /><circle cx="595" cy="637" fill="#ff0000" r="3.5" stroke-width="0" /><circle cx="211" cy="630" fill="#ff0000" r="3.5" stroke-width="0" /><circle cx="767" cy="624" fill="#ff0000" r="3.5" stroke-width="0" /><circle cx="453" cy="608" fill="#ff0000" r="3.5" stroke-width="0" /><circle cx="467" cy="585" fill="#ff0000" r="3.5" stroke-width="0" /><circle cx="392" cy="584" fill="#ff0000" r="3.5" stroke-width="0" /><circle cx="313" cy="575" fill="#ff0000" r="3.5" stroke-width="0" /><circle cx="802" cy="516" fill="#ff0000" r="3.5" stroke-width="0" /><circle cx="955" cy="511" fill="#ff0000" r="3.5" stroke-width="0" /><circle cx="965" cy="478" fill="#ff0000" r="3.5" stroke-width="0" /><circle cx="875" cy="463" fill="#ff0000" r="3.5" stroke-width="0" /><circle cx="892" cy="430" fill="#ff0000" r="3.5" stroke-width="0" /><circle cx="491" cy="403" fill="#ff0000" r="3.5" stroke-width="0" /><circle cx="542" cy="389" fill="#ff0000" r="3.5" stroke-width="0" /><circle cx="891" cy="374" fill="#ff0000" r="3.5" stroke-width="0" /><circle cx="768" cy="358" fill="#ff0000" r="3.5" stroke-width="0" /><circle cx="687" cy="296" fill="#ff0000" r="3.5" stroke-width="0" /><circle cx="930" cy="287" fill="#ff0000" r="3.5" stroke-width="0" /><circle cx="825" cy="260" fill="#ff0000" r="3.5" stroke-width="0" /><circle cx="978" cy="237" fill="#ff0000" r="3.5" stroke-width="0" /><circle cx="854" cy="228" fill="#ff0000" r="3.5" stroke-width="0" /><circle cx="643" cy="214" fill="#ff0000" r="3.5" stroke-width="0" /><circle cx="998" cy="205" fill="#ff0000" r="3.5" stroke-width="0" /><circle cx="722" cy="191" fill="#ff0000" r="3.5" stroke-width="0" /><circle cx="820" cy="182" fill="#ff0000" r="3.5" stroke-width="0" /><circle cx="930" cy="175" fill="#ff0000" r="3.5" stroke-width="0" /><circle cx="965" cy="172" fill="#ff0000" r="3.5" stroke-width="0" /><circle cx="770" cy="150" fill="#ff0000" r="3.5" stroke-width="0" /><circle cx="685" cy="127" fill="#ff0000" r="3.5" stroke-width="0" /><circle cx="983" cy="106" fill="#ff0000" r="3.5" stroke-width="0" /></g><g class="e2"><circle cx="79" cy="650" fill="#2b92db" r="3.5" stroke-width="0" /><circle cx="127" cy="633" fill="#2b92db" r="3.5" stroke-width="0" /><circle cx="72" cy="480" fill="#2b92db" r="3.5" stroke-width="0" /><circle cx="115" cy="387" fill="#2b92db" r="3.5" stroke-width="0" /><circle cx="387" cy="382" fill="#2b92db" r="3.5" stroke-width="0" /><circle cx="276" cy="352" fill="#2b92db" r="3.5" stroke-width="0" /><circle cx="254" cy="348" fill="#2b92db" r="3.5" stroke-width="0" /><circle cx="344" cy="343" fill="#2b92db" r="3.5" stroke-width="0" /><circle cx="429" cy="326" fill="#2b92db" r="3.5" stroke-width="0" /><circle cx="154" cy="300" fill="#2b92db" r="3.5" stroke-width="0" /><circle cx="274" cy="252" fill="#2b92db" r="3.5" stroke-width="0" /><circle cx="462" cy="236" fill="#2b92db" r="3.5" stroke-width="0" /><circle cx="376" cy="207" fill="#2b92db" r="3.5" stroke-width="0" /><circle cx="96" cy="202" fill="#2b92db" r="3.5" stroke-width="0" /><circle cx="273" cy="185" fill="#2b92db" r="3.5" stroke-width="0" /><circle cx="578" cy="167" fill="#2b92db" r="3.5" stroke-width="0" /><circle cx="293" cy="158" fill="#2b92db" r="3.5" stroke-width="0" /><circle cx="553" cy="152" fill="#2b92db" r="3.5" stroke-width="0" /><circle cx="354" cy="146" fill="#2b92db" r="3.5" stroke-width="0" /><circle cx="692" cy="95" fill="#2b92db" r="3.5" stroke-width="0" /><circle cx="446" cy="90" fill="#2b92db" r="3.5" stroke-width="0" /><circle cx="330" cy="85" fill="#2b92db" r="3.5" stroke-width="0" /><circle cx="110" cy="78" fill="#2b92db" r="3.5" stroke-width="0" /></g></g></g></svg>