<?xml version="1.0" encoding="utf-8" ?>
<svg baseProfile="full" height="1140px" style="font-size:15;font-family:Arial, san-serif;font-weight:bold;stroke:black;stroke-width:0;fill:#444444" version="1.1" width="1140px" xmlns="http://www.w3.org/2000/svg" xmlns:ev="http://www.w3.org/2001/xml-events" xmlns:xlink="http://www.w3.org/1999/xlink"><defs><clipPath id="areadografico"><rect height="1000" width="1000" x="70" y="70" /></clipPath></defs><g class="master"><g class="poligonos"><polygon clip-path="url(#areadografico)" fill="#000000" fill-opacity="0.1" points="1069,1070 1069,890 890,1070" /><polygon clip-path="url(#areadografico)" fill="#ffffff" fill-opacity="0.1" points="890,1070 709,1070 1069,709 1069,890" /><polygon clip-path="url(#areadografico)" fill="#000000" fill-opacity="0.1" points="709,1070 528,1070 1069,528 1069,709" /><polygon clip-path="url(#areadografico)" fill="#ffffff" fill-opacity="0.1" points="528,1070 347,1070 1069,347 1069,528" /><polygon clip-path="url(#areadografico)" fill="#000000" fill-opacity="0.1" points="347,1070 166,1070 1069,166 1069,347" /><polygon clip-path="url(#areadografico)" fill="#ffffff" fill-opacity="0.1" points="166,1070 -15,1070 1069,-15 1069,166" /><polygon clip-path="url(#areadografico)" fill="#000000" fill-opacity="0.1" points="-15,1070 -196,1070 1069,-196 1069,-15" /><polygon clip-path="url(#areadografico)" fill="#ffffff" fill-opacity="0.1" points="-196,1070 -377,1070 1069,-377 1069,-196" /><polygon clip-path="url(#areadografico)" fill="#000000" fill-opacity="0.1" points="-377,1070 -558,1070 1069,-558 1069,-377" /><polygon clip-path="url(#areadografico)" fill="#ffffff" fill-opacity="0.1" points="-558,1070 -739,1070 1069,-739 1069,-558" /><polygon clip-path="url(#areadografico)" fill="#000000" fill-opacity="0.1" points="70,70 70,260 260,70" /></g><g class="linhas"><line fill-opacity="0.3" stroke="#999999" stroke-width="1" x1="1070" x2="1070" y1="1070" y2="70" /><line fill-opacity="0.3" stroke="#999999" stroke-width="1" x1="70" x2="1070" y1="70" y2="70" /><line fill-opacity="0.3" stroke="#999999" stroke-width="1" x1="970" x2="970" y1="1070" y2="70" /><line fill-opacity="0.3" stroke="#999999" stroke-width="1" x1="70" x2="1070" y1="170" y2="170" /><line fill-opacity="0.3" stroke="#999999" stroke-width="1" x1="870" x2="870" y1="1070" y2="70" /><line fill-opacity="0.3" stroke="#999999" stroke-width="1" x1="70" x2="1070" y1="270" y2="270" /><line fill-opacity="0.3" stroke="#999999" stroke-width="1" x1="770" x2="770" y1="1070" y2="70" /><line fill-opacity="0.3" stroke="#999999" stroke-width="1" x1="70" x2="1070" y1="370" y2="370" /><line fill-opacity="0.3" stroke="#999999" stroke-width="1" x1="670" x2="670" y1="1070" y2="70" /><line fill-opacity="0.3" stroke="#999999" stroke-width="1" x1="70" x2="1070" y1="470" y2="470" /><line fill-opacity="0.3" stroke="#999999" stroke-width="1" x1="570" x2="570" y1="1070" y2="70" /><line fill-opacity="0.3" stroke="#999999" stroke-width="1" x1="70" x2="1070" y1="570" y2="570" /><line fill-opacity="0.3" stroke="#999999" stroke-width="1" x1="470" x2="470" y1="1070" y2="70" /><line fill-opacity="0.3" stroke="#999999" stroke-width="1" x1="70" x2="1070" y1="670" y2="670" /><line fill-opacity="0.3" stroke="#999999" stroke-width="1" x1="370" x2="370" y1="1070" y2="70" /><line fill-opacity="0.3" stroke="#999999" stroke-width="1" x1="70" x2="1070" y1="770" y2="770" /><line fill-opacity="0.3" stroke="#999999" stroke-width="1" x1="270" x2="270" y1="1070" y2="70" /><line fill-opacity="0.3" stroke="#999999" stroke-width="1" x1="70" x2="1070" y1="870" y2="870" /><line fill-opacity="0.3" stroke="#999999" stroke-width="1" x1="170" x2="170" y1="1070" y2="70" /><line fill-opacity="0.3" stroke="#999999" stroke-width="1" x1="70" x2="1070" y1="970" y2="970" /><line fill-opacity="0.3" stroke="#000000" stroke-width="1" x1="70" x2="70" y1="1071" y2="69" /><line fill-opacity="0.3" stroke="#000000" stroke-width="1" x1="69" x2="1071" y1="1070" y2="1070" /></g><g class="textos"><text x="1050" y="1110">1000</text><text x="10" y="71">1000</text><text x="950" y="1110">900</text><text x="10" y="171">900</text><text x="850" y="1110">800</text><text x="10" y="271">800</text><text x="750" y="1110">700</text><text x="10" y="371">700</text><text x="650" y="1110">600</text><text x="10" y="471">600</text><text x="550" y="1110">500</text><text x="10" y="571">500</text><text x="450" y="1110">400</text><text x="10" y="671">400</text><text x="350" y="1110">300</text><text x="10" y="771">300</text><text x="250" y="1110">200</text><text x="10" y="871">200</text><text x="150" y="1110">100</text><text x="10" y="971">100</text><text x="50" y="1111">0</text><text x="9" y="1071">0</text></g><g class="especies"><g class="e0" /><g class="e1"><circle cx="833" cy="1060" fill="#ff0000" r="3.5" stroke-width="0" /><circle cx="749" cy="1047" fill="#ff0000" r="3.5" stroke-width="0" /><circle cx="816" cy="1025" fill="#ff0000" r="3.5" stroke-width="0" /><circle cx="882" cy="1020" fill="#ff0000" r="3.5" stroke-width="0" /><circle cx="782" cy="1012" fill="#ff0000" r="3.5" stroke-width="0" /><circle cx="845" cy="1011" fill="#ff0000" r="3.5" stroke-width="0" /><circle cx="808" cy="973" fill="#ff0000" r="3.5" stroke-width="0" /><circle cx="862" cy="973" fill="#ff0000" r="3.5" stroke-width="0" /><circle cx="838" cy="971" fill="#ff0000" r="3.5" stroke-width="0" /><circle cx="840" cy="943" fill="#ff0000" r="3.5" stroke-width="0" /><circle cx="867" cy="942" fill="#ff0000" r="3.5" stroke-width="0" /><circle cx="866" cy="940" fill="#ff0000" r="3.5" stroke-width="0" /><circle cx="855" cy="936" fill="#ff0000" r="3.5" stroke-width="0" /><circle cx="868" cy="936" fill="#ff0000" r="3.5" stroke-width="0" /><circle cx="943" cy="881" fill="#ff0000" r="3.5" stroke-width="0" /></g><g class="e2"><circle cx="647" cy="989" fill="#2b92db" r="3.5" stroke-width="0" /><circle cx="814" cy="927" fill="#2b92db" r="3.5" stroke-width="0" /><circle cx="780" cy="924" fill="#2b92db" r="3.5" stroke-width="0" /><circle cx="812" cy="923" fill="#2b92db" r="3.5" stroke-width="0" /><circle cx="788" cy="911" fill="#2b92db" r="3.5" stroke-width="0" /><circle cx="766" cy="907" fill="#2b92db" r="3.5" stroke-width="0" /><circle cx="861" cy="902" fill="#2b92db" r="3.5" stroke-width="0" /><circle cx="849" cy="894" fill="#2b92db" r="3.5" stroke-width="0" /><circle cx="788" cy="887" fill="#2b92db" r="3.5" stroke-width="0" /><circle cx="829" cy="880" fill="#2b92db" r="3.5" stroke-width="0" /><circle cx="871" cy="874" fill="#2b92db" r="3.5" stroke-width="0" /><circle cx="877" cy="869" fill="#2b92db" r="3.5" stroke-width="0" /><circle cx="904" cy="868" fill="#2b92db" r="3.5" stroke-width="0" /><circle cx="827" cy="856" fill="#2b92db" r="3.5" stroke-width="0" /><circle cx="865" cy="849" fill="#2b92db" r="3.5" stroke-width="0" /><circle cx="842" cy="824" fill="#2b92db" r="3.5" stroke-width="0" /><circle cx="843" cy="824" fill="#2b92db" r="3.5" stroke-width="0" /><circle cx="826" cy="822" fill="#2b92db" r="3.5" stroke-width="0" /><circle cx="825" cy="798" fill="#2b92db" r="3.5" stroke-width="0" /><circle cx="825" cy="787" fill="#2b92db" r="3.5" stroke-width="0" /><circle cx="874" cy="785" fill="#2b92db" r="3.5" stroke-width="0" /><circle cx="942" cy="746" fill="#2b92db" r="3.5" stroke-width="0" /></g><g class="e3"><circle cx="770" cy="825" fill="#911eb4" r="3.5" stroke-width="0" /><circle cx="752" cy="806" fill="#911eb4" r="3.5" stroke-width="0" /><circle cx="739" cy="791" fill="#911eb4" r="3.5" stroke-width="0" /><circle cx="692" cy="772" fill="#911eb4" r="3.5" stroke-width="0" /><circle cx="791" cy="770" fill="#911eb4" r="3.5" stroke-width="0" /><circle cx="781" cy="769" fill="#911eb4" r="3.5" stroke-width="0" /><circle cx="824" cy="767" fill="#911eb4" r="3.5" stroke-width="0" /><circle cx="808" cy="755" fill="#911eb4" r="3.5" stroke-width="0" /><circle cx="816" cy="753" fill="#911eb4" r="3.5" stroke-width="0" /><circle cx="828" cy="753" fill="#911eb4" r="3.5" stroke-width="0" /><circle cx="727" cy="747" fill="#911eb4" r="3.5" stroke-width="0" /><circle cx="803" cy="741" fill="#911eb4" r="3.5" stroke-width="0" /><circle cx="756" cy="740" fill="#911eb4" r="3.5" stroke-width="0" /><circle cx="841" cy="730" fill="#911eb4" r="3.5" stroke-width="0" /><circle cx="729" cy="726" fill="#911eb4" r="3.5" stroke-width="0" /><circle cx="721" cy="715" fill="#911eb4" r="3.5" stroke-width="0" /><circle cx="797" cy="705" fill="#911eb4" r="3.5" stroke-width="0" /><circle cx="829" cy="699" fill="#911eb4" r="3.5" stroke-width="0" /><circle cx="783" cy="697" fill="#911eb4" r="3.5" stroke-width="0" /><circle cx="844" cy="676" fill="#911eb4" r="3.5" stroke-width="0" /><circle cx="821" cy="670" fill="#911eb4" r="3.5" stroke-width="0" /><circle cx="858" cy="657" fill="#911eb4" r="3.5" stroke-width="0" /><circle cx="789" cy="632" fill="#911eb4" r="3.5" stroke-width="0" /><circle cx="830" cy="631" fill="#911eb4" r="3.5" stroke-width="0" /><circle cx="813" cy="612" fill="#911eb4" r="3.5" stroke-width="0" /><circle cx="835" cy="585" fill="#911eb4" r="3.5" stroke-width="0" /><circle cx="854" cy="565" fill="#911eb4" r="3.5" stroke-width="0" /><circle cx="859" cy="562" fill="#911eb4" r="3.5" stroke-width="0" /></g><g class="e4"><circle cx="310" cy="1047" fill="#3cb44B" r="3.5" stroke-width="0" /><circle cx="290" cy="1045" fill="#3cb44B" r="3.5" stroke-width="0" /><circle cx="206" cy="1036" fill="#3cb44B" r="3.5" stroke-width="0" /><circle cx="278" cy="1012" fill="#3cb44B" r="3.5" stroke-width="0" /><circle cx="295" cy="1005" fill="#3cb44B" r="3.5" stroke-width="0" /><circle cx="362" cy="1004" fill="#3cb44B" r="3.5" stroke-width="0" /><circle cx="339" cy="982" fill="#3cb44B" r="3.5" stroke-width="0" /><circle cx="397" cy="980" fill="#3cb44B" r="3.5" stroke-width="0" /><circle cx="336" cy="968" fill="#3cb44B" r="3.5" stroke-width="0" /><circle cx="372" cy="950" fill="#3cb44B" r="3.5" stroke-width="0" /><circle cx="345" cy="945" fill="#3cb44B" r="3.5" stroke-width="0" /><circle cx="362" cy="943" fill="#3cb44B" r="3.5" stroke-width="0" /><circle cx="305" cy="932" fill="#3cb44B" r="3.5" stroke-width="0" /><circle cx="395" cy="930" fill="#3cb44B" r="3.5" stroke-width="0" /><circle cx="355" cy="892" fill="#3cb44B" r="3.5" stroke-width="0" /><circle cx="377" cy="885" fill="#3cb44B" r="3.5" stroke-width="0" /><circle cx="428" cy="878" fill="#3cb44B" r="3.5" stroke-width="0" /><circle cx="730" cy="634" fill="#3cb44B" r="3.5" stroke-width="0" /><circle cx="753" cy="613" fill="#3cb44B" r="3.5" stroke-width="0" /><circle cx="759" cy="584" fill="#3cb44B" r="3.5" stroke-width="0" /><circle cx="783" cy="582" fill="#3cb44B" r="3.5" stroke-width="0" /><circle cx="720" cy="578" fill="#3cb44B" r="3.5" stroke-width="0" /><circle cx="799" cy="570" fill="#3cb44B" r="3.5" stroke-width="0" /><circle cx="831" cy="564" fill="#3cb44B" r="3.5" stroke-width="0" /><circle cx="835" cy="563" fill="#3cb44B" r="3.5" stroke-width="0" /><circle cx="835" cy="545" fill="#3cb44B" r="3.5" stroke-width="0" /><circle cx="777" cy="541" fill="#3cb44B" r="3.5" stroke-width="0" /><circle cx="803" cy="526" fill="#3cb44B" r="3.5" stroke-width="0" /><circle cx="819" cy="511" fill="#3cb44B" r="3.5" stroke-width="0" /><circle cx="814" cy="506" fill="#3cb44B" r="3.5" stroke-width="0" /><circle cx="787" cy="480" fill="#3cb44B" r="3.5" stroke-width="0" /><circle cx="880" cy="477" fill="#3cb44B" r="3.5" stroke-width="0" /><circle cx="825" cy="474" fill="#3cb44B" r="3.5" stroke-width="0" /><circle cx="841" cy="473" fill="#3cb44B" r="3.5" stroke-width="0" /><circle cx="862" cy="472" fill="#3cb44B" r="3.5" stroke-width="0" /><circle cx="859" cy="465" fill="#3cb44B" r="3.5" stroke-width="0" /><circle cx="891" cy="464" fill="#3cb44B" r="3.5" stroke-width="0" /><circle cx="857" cy="459" fill="#3cb44B" r="3.5" stroke-width="0" /><circle cx="870" cy="450" fill="#3cb44B" r="3.5" stroke-width="0" /><circle cx="824" cy="449" fill="#3cb44B" r="3.5" stroke-width="0" /><circle cx="879" cy="445" fill="#3cb44B" r="3.5" stroke-width="0" /><circle cx="816" cy="420" fill="#3cb44B" r="3.5" stroke-width="0" /><circle cx="834" cy="420" fill="#3cb44B" r="3.5" stroke-width="0" /><circle cx="833" cy="403" fill="#3cb44B" r="3.5" stroke-width="0" /><circle cx="851" cy="395" fill="#3cb44B" r="3.5" stroke-width="0" /><circle cx="867" cy="392" fill="#3cb44B" r="3.5" stroke-width="0" /><circle cx="906" cy="382" fill="#3cb44B" r="3.5" stroke-width="0" /><circle cx="916" cy="381" fill="#3cb44B" r="3.5" stroke-width="0" /><circle cx="880" cy="360" fill="#3cb44B" r="3.5" stroke-width="0" /></g><g class="e5"><circle cx="208" cy="913" fill="#ff0000" r="3.5" stroke-width="0" /><circle cx="317" cy="886" fill="#ff0000" r="3.5" stroke-width="0" /><circle cx="302" cy="882" fill="#ff0000" r="3.5" stroke-width="0" /><circle cx="265" cy="872" fill="#ff0000" r="3.5" stroke-width="0" /><circle cx="350" cy="869" fill="#ff0000" r="3.5" stroke-width="0" /><circle cx="289" cy="868" fill="#ff0000" r="3.5" stroke-width="0" /><circle cx="298" cy="863" fill="#ff0000" r="3.5" stroke-width="0" /><circle cx="345" cy="849" fill="#ff0000" r="3.5" stroke-width="0" /><circle cx="350" cy="842" fill="#ff0000" r="3.5" stroke-width="0" /><circle cx="311" cy="833" fill="#ff0000" r="3.5" stroke-width="0" /><circle cx="357" cy="832" fill="#ff0000" r="3.5" stroke-width="0" /><circle cx="406" cy="826" fill="#ff0000" r="3.5" stroke-width="0" /><circle cx="375" cy="825" fill="#ff0000" r="3.5" stroke-width="0" /><circle cx="349" cy="823" fill="#ff0000" r="3.5" stroke-width="0" /><circle cx="259" cy="809" fill="#ff0000" r="3.5" stroke-width="0" /><circle cx="334" cy="809" fill="#ff0000" r="3.5" stroke-width="0" /><circle cx="387" cy="803" fill="#ff0000" r="3.5" stroke-width="0" /><circle cx="347" cy="802" fill="#ff0000" r="3.5" stroke-width="0" /><circle cx="361" cy="786" fill="#ff0000" r="3.5" stroke-width="0" /><circle cx="349" cy="771" fill="#ff0000" r="3.5" stroke-width="0" /><circle cx="289" cy="770" fill="#ff0000" r="3.5" stroke-width="0" /><circle cx="321" cy="768" fill="#ff0000" r="3.5" stroke-width="0" /><circle cx="368" cy="758" fill="#ff0000" r="3.5" stroke-width="0" /><circle cx="351" cy="744" fill="#ff0000" r="3.5" stroke-width="0" /><circle cx="324" cy="733" fill="#ff0000" r="3.5" stroke-width="0" /><circle cx="465" cy="733" fill="#ff0000" r="3.5" stroke-width="0" /><circle cx="382" cy="731" fill="#ff0000" r="3.5" stroke-width="0" /><circle cx="370" cy="722" fill="#ff0000" r="3.5" stroke-width="0" /><circle cx="356" cy="719" fill="#ff0000" r="3.5" stroke-width="0" /><circle cx="349" cy="715" fill="#ff0000" r="3.5" stroke-width="0" /><circle cx="369" cy="689" fill="#ff0000" r="3.5" stroke-width="0" /><circle cx="396" cy="672" fill="#ff0000" r="3.5" stroke-width="0" /><circle cx="701" cy="508" fill="#ff0000" r="3.5" stroke-width="0" /><circle cx="706" cy="502" fill="#ff0000" r="3.5" stroke-width="0" /><circle cx="750" cy="482" fill="#ff0000" r="3.5" stroke-width="0" /><circle cx="785" cy="449" fill="#ff0000" r="3.5" stroke-width="0" /><circle cx="717" cy="443" fill="#ff0000" r="3.5" stroke-width="0" /><circle cx="795" cy="427" fill="#ff0000" r="3.5" stroke-width="0" /><circle cx="776" cy="417" fill="#ff0000" r="3.5" stroke-width="0" /><circle cx="790" cy="417" fill="#ff0000" r="3.5" stroke-width="0" /><circle cx="757" cy="415" fill="#ff0000" r="3.5" stroke-width="0" /><circle cx="790" cy="407" fill="#ff0000" r="3.5" stroke-width="0" /><circle cx="795" cy="402" fill="#ff0000" r="3.5" stroke-width="0" /><circle cx="745" cy="399" fill="#ff0000" r="3.5" stroke-width="0" /><circle cx="754" cy="364" fill="#ff0000" r="3.5" stroke-width="0" /><circle cx="789" cy="357" fill="#ff0000" r="3.5" stroke-width="0" /><circle cx="840" cy="350" fill="#ff0000" r="3.5" stroke-width="0" /><circle cx="847" cy="346" fill="#ff0000" r="3.5" stroke-width="0" /><circle cx="837" cy="342" fill="#ff0000" r="3.5" stroke-width="0" /><circle cx="803" cy="336" fill="#ff0000" r="3.5" stroke-width="0" /><circle cx="808" cy="332" fill="#ff0000" r="3.5" stroke-width="0" /><circle cx="805" cy="329" fill="#ff0000" r="3.5" stroke-width="0" /><circle cx="747" cy="323" fill="#ff0000" r="3.5" stroke-width="0" /><circle cx="812" cy="318" fill="#ff0000" r="3.5" stroke-width="0" /><circle cx="847" cy="313" fill="#ff0000" r="3.5" stroke-width="0" /><circle cx="842" cy="311" fill="#ff0000" r="3.5" stroke-width="0" /><circle cx="846" cy="292" fill="#ff0000" r="3.5" stroke-width="0" /><circle cx="854" cy="290" fill="#ff0000" r="3.5" stroke-width="0" /><circle cx="829" cy="286" fill="#ff0000" r="3.5" stroke-width="0" /><circle cx="949" cy="284" fill="#ff0000" r="3.5" stroke-width="0" /><circle cx="909" cy="283" fill="#ff0000" r="3.5" stroke-width="0" /><circle cx="790" cy="276" fill="#ff0000" r="3.5" stroke-width="0" /><circle cx="836" cy="258" fill="#ff0000" r="3.5" stroke-width="0" /><circle cx="806" cy="254" fill="#ff0000" r="3.5" stroke-width="0" /><circle cx="931" cy="248" fill="#ff0000" r="3.5" stroke-width="0" /><circle cx="940" cy="241" fill="#ff0000" r="3.5" stroke-width="0" /><circle cx="828" cy="236" fill="#ff0000" r="3.5" stroke-width="0" /><circle cx="899" cy="214" fill="#ff0000" r="3.5" stroke-width="0" /></g><g class="e6"><circle cx="243" cy="802" fill="#2b92db" r="3.5" stroke-width="0" /><circle cx="253" cy="797" fill="#2b92db" r="3.5" stroke-width="0" /><circle cx="244" cy="737" fill="#2b92db" r="3.5" stroke-width="0" /><circle cx="261" cy="731" fill="#2b92db" r="3.5" stroke-width="0" /><circle cx="280" cy="723" fill="#2b92db" r="3.5" stroke-width="0" /><circle cx="305" cy="705" fill="#2b92db" r="3.5" stroke-width="0" /><circle cx="240" cy="703" fill="#2b92db" r="3.5" stroke-width="0" /><circle cx="328" cy="697" fill="#2b92db" r="3.5" stroke-width="0" /><circle cx="338" cy="694" fill="#2b92db" r="3.5" stroke-width="0" /><circle cx="358" cy="686" fill="#2b92db" r="3.5" stroke-width="0" /><circle cx="359" cy="686" fill="#2b92db" r="3.5" stroke-width="0" /><circle cx="343" cy="684" fill="#2b92db" r="3.5" stroke-width="0" /><circle cx="345" cy="668" fill="#2b92db" r="3.5" stroke-width="0" /><circle cx="292" cy="667" fill="#2b92db" r="3.5" stroke-width="0" /><circle cx="339" cy="663" fill="#2b92db" r="3.5" stroke-width="0" /><circle cx="333" cy="661" fill="#2b92db" r="3.5" stroke-width="0" /><circle cx="268" cy="660" fill="#2b92db" r="3.5" stroke-width="0" /><circle cx="345" cy="643" fill="#2b92db" r="3.5" stroke-width="0" /><circle cx="368" cy="641" fill="#2b92db" r="3.5" stroke-width="0" /><circle cx="361" cy="627" fill="#2b92db" r="3.5" stroke-width="0" /><circle cx="319" cy="617" fill="#2b92db" r="3.5" stroke-width="0" /><circle cx="351" cy="612" fill="#2b92db" r="3.5" stroke-width="0" /><circle cx="286" cy="604" fill="#2b92db" r="3.5" stroke-width="0" /><circle cx="311" cy="601" fill="#2b92db" r="3.5" stroke-width="0" /><circle cx="299" cy="593" fill="#2b92db" r="3.5" stroke-width="0" /><circle cx="387" cy="592" fill="#2b92db" r="3.5" stroke-width="0" /><circle cx="304" cy="584" fill="#2b92db" r="3.5" stroke-width="0" /><circle cx="320" cy="580" fill="#2b92db" r="3.5" stroke-width="0" /><circle cx="377" cy="567" fill="#2b92db" r="3.5" stroke-width="0" /><circle cx="322" cy="558" fill="#2b92db" r="3.5" stroke-width="0" /><circle cx="354" cy="521" fill="#2b92db" r="3.5" stroke-width="0" /><circle cx="386" cy="500" fill="#2b92db" r="3.5" stroke-width="0" /><circle cx="567" cy="423" fill="#2b92db" r="3.5" stroke-width="0" /><circle cx="767" cy="265" fill="#2b92db" r="3.5" stroke-width="0" /><circle cx="782" cy="254" fill="#2b92db" r="3.5" stroke-width="0" /><circle cx="789" cy="246" fill="#2b92db" r="3.5" stroke-width="0" /><circle cx="821" cy="219" fill="#2b92db" r="3.5" stroke-width="0" /><circle cx="808" cy="213" fill="#2b92db" r="3.5" stroke-width="0" /><circle cx="812" cy="207" fill="#2b92db" r="3.5" stroke-width="0" /><circle cx="835" cy="201" fill="#2b92db" r="3.5" stroke-width="0" /><circle cx="776" cy="197" fill="#2b92db" r="3.5" stroke-width="0" /><circle cx="726" cy="177" fill="#2b92db" r="3.5" stroke-width="0" /><circle cx="760" cy="173" fill="#2b92db" r="3.5" stroke-width="0" /><circle cx="829" cy="170" fill="#2b92db" r="3.5" stroke-width="0" /><circle cx="839" cy="160" fill="#2b92db" r="3.5" stroke-width="0" /><circle cx="792" cy="157" fill="#2b92db" r="3.5" stroke-width="0" /><circle cx="837" cy="136" fill="#2b92db" r="3.5" stroke-width="0" /><circle cx="842" cy="135" fill="#2b92db" r="3.5" stroke-width="0" /><circle cx="812" cy="129" fill="#2b92db" r="3.5" stroke-width="0" /><circle cx="849" cy="123" fill="#2b92db" r="3.5" stroke-width="0" /><circle cx="833" cy="119" fill="#2b92db" r="3.5" stroke-width="0" /><circle cx="844" cy="85" fill="#2b92db" r="3.5" stroke-width="0" /><circle cx="878" cy="81" fill="#2b92db" r="3.5" stroke-width="0" /></g><g class="e7"><circle cx="191" cy="682" fill="#911eb4" r="3.5" stroke-width="0" /><circle cx="182" cy="584" fill="#911eb4" r="3.5" stroke-width="0" /><circle cx="308" cy="559" fill="#911eb4" r="3.5" stroke-width="0" /><circle cx="285" cy="548" fill="#911eb4" r="3.5" stroke-width="0" /><circle cx="298" cy="548" fill="#911eb4" r="3.5" stroke-width="0" /><circle cx="232" cy="542" fill="#911eb4" r="3.5" stroke-width="0" /><circle cx="280" cy="510" fill="#911eb4" r="3.5" stroke-width="0" /><circle cx="285" cy="507" fill="#911eb4" r="3.5" stroke-width="0" /><circle cx="300" cy="495" fill="#911eb4" r="3.5" stroke-width="0" /><circle cx="292" cy="494" fill="#911eb4" r="3.5" stroke-width="0" /><circle cx="272" cy="493" fill="#911eb4" r="3.5" stroke-width="0" /><circle cx="335" cy="493" fill="#911eb4" r="3.5" stroke-width="0" /><circle cx="374" cy="488" fill="#911eb4" r="3.5" stroke-width="0" /><circle cx="307" cy="485" fill="#911eb4" r="3.5" stroke-width="0" /><circle cx="359" cy="483" fill="#911eb4" r="3.5" stroke-width="0" /><circle cx="305" cy="482" fill="#911eb4" r="3.5" stroke-width="0" /><circle cx="287" cy="473" fill="#911eb4" r="3.5" stroke-width="0" /><circle cx="381" cy="468" fill="#911eb4" r="3.5" stroke-width="0" /><circle cx="268" cy="448" fill="#911eb4" r="3.5" stroke-width="0" /><circle cx="325" cy="435" fill="#911eb4" r="3.5" stroke-width="0" /><circle cx="342" cy="432" fill="#911eb4" r="3.5" stroke-width="0" /><circle cx="295" cy="398" fill="#911eb4" r="3.5" stroke-width="0" /><circle cx="392" cy="384" fill="#911eb4" r="3.5" stroke-width="0" /><circle cx="350" cy="366" fill="#911eb4" r="3.5" stroke-width="0" /><circle cx="376" cy="357" fill="#911eb4" r="3.5" stroke-width="0" /><circle cx="353" cy="351" fill="#911eb4" r="3.5" stroke-width="0" /><circle cx="376" cy="342" fill="#911eb4" r="3.5" stroke-width="0" /><circle cx="378" cy="336" fill="#911eb4" r="3.5" stroke-width="0" /></g><g class="e8"><circle cx="257" cy="411" fill="#3cb44B" r="3.5" stroke-width="0" /><circle cx="257" cy="402" fill="#3cb44B" r="3.5" stroke-width="0" /><circle cx="257" cy="401" fill="#3cb44B" r="3.5" stroke-width="0" /><circle cx="307" cy="376" fill="#3cb44B" r="3.5" stroke-width="0" /><circle cx="230" cy="348" fill="#3cb44B" r="3.5" stroke-width="0" /><circle cx="220" cy="347" fill="#3cb44B" r="3.5" stroke-width="0" /><circle cx="292" cy="346" fill="#3cb44B" r="3.5" stroke-width="0" /><circle cx="243" cy="341" fill="#3cb44B" r="3.5" stroke-width="0" /><circle cx="300" cy="336" fill="#3cb44B" r="3.5" stroke-width="0" /><circle cx="255" cy="334" fill="#3cb44B" r="3.5" stroke-width="0" /><circle cx="345" cy="333" fill="#3cb44B" r="3.5" stroke-width="0" /><circle cx="296" cy="328" fill="#3cb44B" r="3.5" stroke-width="0" /><circle cx="228" cy="322" fill="#3cb44B" r="3.5" stroke-width="0" /><circle cx="332" cy="317" fill="#3cb44B" r="3.5" stroke-width="0" /><circle cx="380" cy="300" fill="#3cb44B" r="3.5" stroke-width="0" /><circle cx="278" cy="296" fill="#3cb44B" r="3.5" stroke-width="0" /><circle cx="292" cy="281" fill="#3cb44B" r="3.5" stroke-width="0" /><circle cx="313" cy="279" fill="#3cb44B" r="3.5" stroke-width="0" /><circle cx="305" cy="273" fill="#3cb44B" r="3.5" stroke-width="0" /><circle cx="288" cy="268" fill="#3cb44B" r="3.5" stroke-width="0" /><circle cx="310" cy="254" fill="#3cb44B" r="3.5" stroke-width="0" /><circle cx="372" cy="254" fill="#3cb44B" r="3.5" stroke-width="0" /><circle cx="301" cy="253" fill="#3cb44B" r="3.5" stroke-width="0" /><circle cx="326" cy="229" fill="#3cb44B" r="3.5" stroke-width="0" /><circle cx="348" cy="218" fill="#3cb44B" r="3.5" stroke-width="0" /><circle cx="385" cy="212" fill="#3cb44B" r="3.5" stroke-width="0" /><circle cx="400" cy="207" fill="#3cb44B" r="3.5" stroke-width="0" /><circle cx="380" cy="188" fill="#3cb44B" r="3.5" stroke-width="0" /><circle cx="353" cy="177" fill="#3cb44B" r="3.5" stroke-width="0" /><circle cx="382" cy="174" fill="#3cb44B" r="3.5" stroke-width="0" /><circle cx="355" cy="167" fill="#3cb44B" r="3.5" stroke-width="0" /><circle cx="358" cy="161" fill="#3cb44B" r="3.5" stroke-width="0" /><circle cx="381" cy="159" fill="#3cb44B" r="3.5" stroke-width="0" /></g><g class="e9"><circle cx="248" cy="259" fill="#ff0000" r="3.5" stroke-width="0" /><circle cx="242" cy="182" fill="#ff0000" r="3.5" stroke-width="0" /><circle cx="254" cy="182" fill="#ff0000" r="3.5" stroke-width="0" /><circle cx="249" cy="177" fill="#ff0000" r="3.5" stroke-width="0" /><circle cx="301" cy="177" fill="#ff0000" r="3.5" stroke-width="0" /><circle cx="324" cy="173" fill="#ff0000" r="3.5" stroke-width="0" /><circle cx="321" cy="170" fill="#ff0000" r="3.5" stroke-width="0" /><circle cx="307" cy="166" fill="#ff0000" r="3.5" stroke-width="0" /><circle cx="315" cy="151" fill="#ff0000" r="3.5" stroke-width="0" /><circle cx="341" cy="147" fill="#ff0000" r="3.5" stroke-width="0" /><circle cx="316" cy="136" fill="#ff0000" r="3.5" stroke-width="0" /><circle cx="346" cy="112" fill="#ff0000" r="3.5" stroke-width="0" /><circle cx="366" cy="103" fill="#ff0000" r="3.5" stroke-width="0" /><circle cx="353" cy="74" fill="#ff0000" r="3.5" stroke-width="0" /></g><g class="e10" /></g></g></svg>