<?xml version="1.0" encoding="utf-8" ?>
<svg baseProfile="full" height="1140px" style="font-size:15;font-family:Arial, san-serif;font-weight:bold;stroke:black;stroke-width:0;fill:#444444" version="1.1" width="1140px" xmlns="http://www.w3.org/2000/svg" xmlns:ev="http://www.w3.org/2001/xml-events" xmlns:xlink="http://www.w3.org/1999/xlink"><defs><clipPath id="areadografico"><rect height="1000" width="1000" x="70" y="70" /></clipPath></defs><g class="master"><g class="poligonos"><polygon clip-path="url(#areadografico)" fill="#000000" fill-opacity="0.1" points="70,1070 1069,71 1069,1070" /><polygon clip-path="url(#areadografico)" fill="#ffffff" fill-opacity="0.1" points="70,1070 1069,71 70,71" /></g><g class="linhas"><line fill-opacity="0.3" stroke="#999999" stroke-width="1" x1="1070" x2="1070" y1="1070" y2="70" /><line fill-opacity="0.3" stroke="#999999" stroke-width="1" x1="70" x2="1070" y1="70" y2="70" /><line fill-opacity="0.3" stroke="#999999" stroke-width="1" x1="970" x2="970" y1="1070" y2="70" /><line fill-opacity="0.3" stroke="#999999" stroke-width="1" x1="70" x2="1070" y1="170" y2="170" /><line fill-opacity="0.3" stroke="#999999" stroke-width="1" x1="870" x2="870" y1="1070" y2="70" /><line fill-opacity="0.3" stroke="#999999" stroke-width="1" x1="70" x2="1070" y1="270" y2="270" /><line fill-opacity="0.3" stroke="#999999" stroke-width="1" x1="770" x2="770" y1="1070" y2="70" /><line fill-opacity="0.3" stroke="#999999" stroke-width="1" x1="70" x2="1070" y1="370" y2="370" /><line fill-opacity="0.3" stroke="#999999" stroke-width="1" x1="670" x2="670" y1="1070" y2="70" /><line fill-opacity="0.3" stroke="#999999" stroke-width="1" x1="70" x2="1070" y1="470" y2="470" /><line fill-opacity="0.3" stroke="#999999" stroke-width="1" x1="570" x2="570" y1="1070" y2="70" /><line fill-opacity="0.3" stroke="#999999" stroke-width="1" x1="70" x2="1070" y1="570" y2="570" /><line fill-opacity="0.3" stroke="#999999" stroke-width="1" x1="470" x2="470" y1="1070" y2="70" /><line fill-opacity="0.3" stroke="#999999" stroke-width="1" x1="70" x2="1070" y1="670" y2="670" /><line fill-opacity="0.3" stroke="#999999" stroke-width="1" x1="370" x2="370" y1="1070" y2="70" /><line fill-opacity="0.3" stroke="#999999" stroke-width="1" x1="70" x2="1070" y1="770" y2="770" /><line fill-opacity="0.3" stroke="#999999" stroke-width="1" x1="270" x2="270" y1="1070" y2="70" /><line fill-opacity="0.3" stroke="#999999" stroke-width="1" x1="70" x2="1070" y1="870" y2="870" /><line fill-opacity="0.3" stroke="#999999" stroke-width="1" x1="170" x2="170" y1="1070" y2="70" /><line fill-opacity="0.3" stroke="#999999" stroke-width="1" x1="70" x2="1070" y1="970" y2="970" /><line fill-opacity="0.3" stroke="#000000" stroke-width="1" x1="70" x2="70" y1="1071" y2="69" /><line fill-opacity="0.3" stroke="#000000" stroke-width="1" x1="69" x2="1071" y1="1070" y2="1070" /></g><g class="textos"><text x="1050" y="1110">1000</text><text x="10" y="71">1000</text><text x="950" y="1110">900</text><text x="10" y="171">900</text><text x="850" y="1110">800</text><text x="10" y="271">800</text><text x="750" y="1110">700</text><text x="10" y="371">700</text><text x="650" y="1110">600</text><text x="10" y="471">600</text><text x="550" y="1110">500</text><text x="10" y="571">500</text><text x="450" y="1110">400</text><text x="10" y="671">400</text><text x="350" y="1110">300</text><text x="10" y="771">300</text><text x="250" y="1110">200</text><text x="10" y="871">200</text><text x="150" y="1110">100</text><text x="10" y="971">100</text><text x="50" y="1111">0</text><text x="9" y="1071">0</text></g><g class="especies"><g class="e0"><circle cx="989" cy="1048" fill="#ff0000" r="3.5" stroke-width="0" /><circle cx="944" cy="1044" fill="#ff0000" r="3.5" stroke-width="0" /><circle cx="876" cy="1034" fill="#ff0000" r="3.5" stroke-width="0" /><circle cx="740" cy="999" fill="#ff0000" r="3.5" stroke-width="0" /><circle cx="896" cy="1038" fill="#ff0000" r="3.5" stroke-width="0" /><circle cx="1003" cy="1049" fill="#ff0000" r="3.5" stroke-width="0" /><circle cx="488" cy="868" fill="#ff0000" r="3.5" stroke-width="0" /><circle cx="693" cy="981" fill="#ff0000" r="3.5" stroke-width="0" /><circle cx="672" cy="972" fill="#ff0000" r="3.5" stroke-width="0" /><circle cx="396" cy="793" fill="#ff0000" r="3.5" stroke-width="0" /><circle cx="772" cy="1009" fill="#ff0000" r="3.5" stroke-width="0" /><circle cx="618" cy="947" fill="#ff0000" r="3.5" stroke-width="0" /><circle cx="957" cy="1045" fill="#ff0000" r="3.5" stroke-width="0" /><circle cx="892" cy="1037" fill="#ff0000" r="3.5" stroke-width="0" /><circle cx="748" cy="1001" fill="#ff0000" r="3.5" stroke-width="0" /><circle cx="968" cy="1046" fill="#ff0000" r="3.5" stroke-width="0" /><circle cx="625" cy="951" fill="#ff0000" r="3.5" stroke-width="0" /><circle cx="865" cy="1032" fill="#ff0000" r="3.5" stroke-width="0" /><circle cx="835" cy="1026" fill="#ff0000" r="3.5" stroke-width="0" /><circle cx="803" cy="1018" fill="#ff0000" r="3.5" stroke-width="0" /><circle cx="620" cy="948" fill="#ff0000" r="3.5" stroke-width="0" /><circle cx="529" cy="896" fill="#ff0000" r="3.5" stroke-width="0" /><circle cx="467" cy="853" fill="#ff0000" r="3.5" stroke-width="0" /><circle cx="567" cy="920" fill="#ff0000" r="3.5" stroke-width="0" /><circle cx="666" cy="970" fill="#ff0000" r="3.5" stroke-width="0" /><circle cx="759" cy="1005" fill="#ff0000" r="3.5" stroke-width="0" /><circle cx="593" cy="934" fill="#ff0000" r="3.5" stroke-width="0" /><circle cx="542" cy="905" fill="#ff0000" r="3.5" stroke-width="0" /><circle cx="782" cy="1012" fill="#ff0000" r="3.5" stroke-width="0" /><circle cx="730" cy="995" fill="#ff0000" r="3.5" stroke-width="0" /><circle cx="751" cy="1002" fill="#ff0000" r="3.5" stroke-width="0" /><circle cx="925" cy="1042" fill="#ff0000" r="3.5" stroke-width="0" /><circle cx="498" cy="875" fill="#ff0000" r="3.5" stroke-width="0" /><circle cx="919" cy="1041" fill="#ff0000" r="3.5" stroke-width="0" /><circle cx="1029" cy="1050" fill="#ff0000" r="3.5" stroke-width="0" /><circle cx="417" cy="812" fill="#ff0000" r="3.5" stroke-width="0" /><circle cx="410" cy="806" fill="#ff0000" r="3.5" stroke-width="0" /><circle cx="817" cy="1021" fill="#ff0000" r="3.5" stroke-width="0" /><circle cx="504" cy="880" fill="#ff0000" r="3.5" stroke-width="0" /><circle cx="765" cy="1007" fill="#ff0000" r="3.5" stroke-width="0" /><circle cx="400" cy="796" fill="#ff0000" r="3.5" stroke-width="0" /><circle cx="517" cy="888" fill="#ff0000" r="3.5" stroke-width="0" /><circle cx="600" cy="938" fill="#ff0000" r="3.5" stroke-width="0" /><circle cx="704" cy="985" fill="#ff0000" r="3.5" stroke-width="0" /><circle cx="398" cy="795" fill="#ff0000" r="3.5" stroke-width="0" /><circle cx="550" cy="910" fill="#ff0000" r="3.5" stroke-width="0" /><circle cx="645" cy="960" fill="#ff0000" r="3.5" stroke-width="0" /><circle cx="383" cy="780" fill="#ff0000" r="3.5" stroke-width="0" /><circle cx="499" cy="876" fill="#ff0000" r="3.5" stroke-width="0" /><circle cx="378" cy="776" fill="#ff0000" r="3.5" stroke-width="0" /><circle cx="690" cy="980" fill="#ff0000" r="3.5" stroke-width="0" /><circle cx="914" cy="1040" fill="#ff0000" r="3.5" stroke-width="0" /><circle cx="717" cy="990" fill="#ff0000" r="3.5" stroke-width="0" /><circle cx="429" cy="822" fill="#ff0000" r="3.5" stroke-width="0" /><circle cx="820" cy="1022" fill="#ff0000" r="3.5" stroke-width="0" /><circle cx="408" cy="804" fill="#ff0000" r="3.5" stroke-width="0" /><circle cx="428" cy="821" fill="#ff0000" r="3.5" stroke-width="0" /><circle cx="515" cy="887" fill="#ff0000" r="3.5" stroke-width="0" /><circle cx="485" cy="866" fill="#ff0000" r="3.5" stroke-width="0" /><circle cx="775" cy="1010" fill="#ff0000" r="3.5" stroke-width="0" /><circle cx="840" cy="1027" fill="#ff0000" r="3.5" stroke-width="0" /><circle cx="621" cy="949" fill="#ff0000" r="3.5" stroke-width="0" /><circle cx="423" cy="817" fill="#ff0000" r="3.5" stroke-width="0" /><circle cx="719" cy="991" fill="#ff0000" r="3.5" stroke-width="0" /><circle cx="538" cy="902" fill="#ff0000" r="3.5" stroke-width="0" /><circle cx="654" cy="965" fill="#ff0000" r="3.5" stroke-width="0" /><circle cx="564" cy="918" fill="#ff0000" r="3.5" stroke-width="0" /><circle cx="481" cy="863" fill="#ff0000" r="3.5" stroke-width="0" /><circle cx="519" cy="890" fill="#ff0000" r="3.5" stroke-width="0" /><circle cx="597" cy="936" fill="#ff0000" r="3.5" stroke-width="0" /><circle cx="795" cy="1016" fill="#ff0000" r="3.5" stroke-width="0" /><circle cx="825" cy="1023" fill="#ff0000" r="3.5" stroke-width="0" /><circle cx="791" cy="1014" fill="#ff0000" r="3.5" stroke-width="0" /><circle cx="574" cy="924" fill="#ff0000" r="3.5" stroke-width="0" /><circle cx="531" cy="898" fill="#ff0000" r="3.5" stroke-width="0" /><circle cx="706" cy="986" fill="#ff0000" r="3.5" stroke-width="0" /><circle cx="413" cy="808" fill="#ff0000" r="3.5" stroke-width="0" /><circle cx="395" cy="792" fill="#ff0000" r="3.5" stroke-width="0" /><circle cx="478" cy="861" fill="#ff0000" r="3.5" stroke-width="0" /><circle cx="581" cy="928" fill="#ff0000" r="3.5" stroke-width="0" /><circle cx="683" cy="977" fill="#ff0000" r="3.5" stroke-width="0" /><circle cx="587" cy="931" fill="#ff0000" r="3.5" stroke-width="0" /><circle cx="511" cy="884" fill="#ff0000" r="3.5" stroke-width="0" /><circle cx="382" cy="779" fill="#ff0000" r="3.5" stroke-width="0" /><circle cx="522" cy="892" fill="#ff0000" r="3.5" stroke-width="0" /><circle cx="687" cy="979" fill="#ff0000" r="3.5" stroke-width="0" /><circle cx="975" cy="1047" fill="#ff0000" r="3.5" stroke-width="0" /><circle cx="514" cy="886" fill="#ff0000" r="3.5" stroke-width="0" /><circle cx="608" cy="942" fill="#ff0000" r="3.5" stroke-width="0" /><circle cx="521" cy="891" fill="#ff0000" r="3.5" stroke-width="0" /><circle cx="476" cy="859" fill="#ff0000" r="3.5" stroke-width="0" /><circle cx="721" cy="992" fill="#ff0000" r="3.5" stroke-width="0" /><circle cx="699" cy="984" fill="#ff0000" r="3.5" stroke-width="0" /><circle cx="495" cy="873" fill="#ff0000" r="3.5" stroke-width="0" /><circle cx="826" cy="1024" fill="#ff0000" r="3.5" stroke-width="0" /><circle cx="725" cy="993" fill="#ff0000" r="3.5" stroke-width="0" /><circle cx="871" cy="1033" fill="#ff0000" r="3.5" stroke-width="0" /><circle cx="630" cy="953" fill="#ff0000" r="3.5" stroke-width="0" /><circle cx="676" cy="974" fill="#ff0000" r="3.5" stroke-width="0" /><circle cx="373" cy="771" fill="#ff0000" r="3.5" stroke-width="0" /><circle cx="572" cy="923" fill="#ff0000" r="3.5" stroke-width="0" /><circle cx="418" cy="813" fill="#ff0000" r="3.5" stroke-width="0" /><circle cx="695" cy="982" fill="#ff0000" r="3.5" stroke-width="0" /><circle cx="851" cy="1029" fill="#ff0000" r="3.5" stroke-width="0" /><circle cx="446" cy="836" fill="#ff0000" r="3.5" stroke-width="0" /><circle cx="548" cy="908" fill="#ff0000" r="3.5" stroke-width="0" /><circle cx="371" cy="769" fill="#ff0000" r="3.5" stroke-width="0" /><circle cx="651" cy="963" fill="#ff0000" r="3.5" stroke-width="0" /><circle cx="714" cy="989" fill="#ff0000" r="3.5" stroke-width="0" /><circle cx="905" cy="1039" fill="#ff0000" r="3.5" stroke-width="0" /><circle cx="807" cy="1019" fill="#ff0000" r="3.5" stroke-width="0" /><circle cx="736" cy="997" fill="#ff0000" r="3.5" stroke-width="0" /><circle cx="769" cy="1008" fill="#ff0000" r="3.5" stroke-width="0" /><circle cx="454" cy="843" fill="#ff0000" r="3.5" stroke-width="0" /><circle cx="778" cy="1011" fill="#ff0000" r="3.5" stroke-width="0" /><circle cx="614" cy="945" fill="#ff0000" r="3.5" stroke-width="0" /><circle cx="449" cy="839" fill="#ff0000" r="3.5" stroke-width="0" /><circle cx="744" cy="1000" fill="#ff0000" r="3.5" stroke-width="0" /><circle cx="490" cy="870" fill="#ff0000" r="3.5" stroke-width="0" /><circle cx="558" cy="914" fill="#ff0000" r="3.5" stroke-width="0" /><circle cx="591" cy="933" fill="#ff0000" r="3.5" stroke-width="0" /><circle cx="886" cy="1036" fill="#ff0000" r="3.5" stroke-width="0" /><circle cx="881" cy="1035" fill="#ff0000" r="3.5" stroke-width="0" /><circle cx="508" cy="882" fill="#ff0000" r="3.5" stroke-width="0" /><circle cx="393" cy="790" fill="#ff0000" r="3.5" stroke-width="0" /><circle cx="397" cy="794" fill="#ff0000" r="3.5" stroke-width="0" /><circle cx="451" cy="840" fill="#ff0000" r="3.5" stroke-width="0" /><circle cx="385" cy="782" fill="#ff0000" r="3.5" stroke-width="0" /><circle cx="604" cy="940" fill="#ff0000" r="3.5" stroke-width="0" /><circle cx="474" cy="858" fill="#ff0000" r="3.5" stroke-width="0" /><circle cx="444" cy="835" fill="#ff0000" r="3.5" stroke-width="0" /><circle cx="611" cy="944" fill="#ff0000" r="3.5" stroke-width="0" /><circle cx="448" cy="838" fill="#ff0000" r="3.5" stroke-width="0" /><circle cx="407" cy="803" fill="#ff0000" r="3.5" stroke-width="0" /><circle cx="754" cy="1003" fill="#ff0000" r="3.5" stroke-width="0" /><circle cx="933" cy="1043" fill="#ff0000" r="3.5" stroke-width="0" /><circle cx="380" cy="778" fill="#ff0000" r="3.5" stroke-width="0" /><circle cx="623" cy="950" fill="#ff0000" r="3.5" stroke-width="0" /><circle cx="443" cy="834" fill="#ff0000" r="3.5" stroke-width="0" /><circle cx="415" cy="810" fill="#ff0000" r="3.5" stroke-width="0" /><circle cx="412" cy="807" fill="#ff0000" r="3.5" stroke-width="0" /><circle cx="432" cy="825" fill="#ff0000" r="3.5" stroke-width="0" /><circle cx="653" cy="964" fill="#ff0000" r="3.5" stroke-width="0" /><circle cx="844" cy="1028" fill="#ff0000" r="3.5" stroke-width="0" /><circle cx="534" cy="900" fill="#ff0000" r="3.5" stroke-width="0" /><circle cx="728" cy="994" fill="#ff0000" r="3.5" stroke-width="0" /><circle cx="649" cy="962" fill="#ff0000" r="3.5" stroke-width="0" /><circle cx="786" cy="1013" fill="#ff0000" r="3.5" stroke-width="0" /><circle cx="518" cy="889" fill="#ff0000" r="3.5" stroke-width="0" /><circle cx="602" cy="939" fill="#ff0000" r="3.5" stroke-width="0" /><circle cx="853" cy="1030" fill="#ff0000" r="3.5" stroke-width="0" /></g><g class="e1"><circle cx="192" cy="521" fill="#2b92db" r="3.5" stroke-width="0" /><circle cx="360" cy="757" fill="#2b92db" r="3.5" stroke-width="0" /><circle cx="135" cy="379" fill="#2b92db" r="3.5" stroke-width="0" /><circle cx="248" cy="618" fill="#2b92db" r="3.5" stroke-width="0" /><circle cx="113" cy="299" fill="#2b92db" r="3.5" stroke-width="0" /><circle cx="90" cy="114" fill="#2b92db" r="3.5" stroke-width="0" /><circle cx="93" cy="164" fill="#2b92db" r="3.5" stroke-width="0" /><circle cx="132" cy="372" fill="#2b92db" r="3.5" stroke-width="0" /><circle cx="201" cy="538" fill="#2b92db" r="3.5" stroke-width="0" /><circle cx="223" cy="577" fill="#2b92db" r="3.5" stroke-width="0" /><circle cx="111" cy="288" fill="#2b92db" r="3.5" stroke-width="0" /><circle cx="118" cy="319" fill="#2b92db" r="3.5" stroke-width="0" /><circle cx="302" cy="692" fill="#2b92db" r="3.5" stroke-width="0" /><circle cx="130" cy="364" fill="#2b92db" r="3.5" stroke-width="0" /><circle cx="154" cy="434" fill="#2b92db" r="3.5" stroke-width="0" /><circle cx="329" cy="724" fill="#2b92db" r="3.5" stroke-width="0" /><circle cx="92" cy="150" fill="#2b92db" r="3.5" stroke-width="0" /><circle cx="129" cy="361" fill="#2b92db" r="3.5" stroke-width="0" /><circle cx="200" cy="537" fill="#2b92db" r="3.5" stroke-width="0" /><circle cx="315" cy="708" fill="#2b92db" r="3.5" stroke-width="0" /><circle cx="290" cy="677" fill="#2b92db" r="3.5" stroke-width="0" /><circle cx="91" cy="123" fill="#2b92db" r="3.5" stroke-width="0" /><circle cx="97" cy="205" fill="#2b92db" r="3.5" stroke-width="0" /><circle cx="316" cy="709" fill="#2b92db" r="3.5" stroke-width="0" /><circle cx="252" cy="624" fill="#2b92db" r="3.5" stroke-width="0" /><circle cx="345" cy="742" fill="#2b92db" r="3.5" stroke-width="0" /><circle cx="301" cy="690" fill="#2b92db" r="3.5" stroke-width="0" /><circle cx="121" cy="331" fill="#2b92db" r="3.5" stroke-width="0" /><circle cx="176" cy="488" fill="#2b92db" r="3.5" stroke-width="0" /><circle cx="233" cy="594" fill="#2b92db" r="3.5" stroke-width="0" /><circle cx="267" cy="645" fill="#2b92db" r="3.5" stroke-width="0" /><circle cx="232" cy="592" fill="#2b92db" r="3.5" stroke-width="0" /><circle cx="143" cy="405" fill="#2b92db" r="3.5" stroke-width="0" /><circle cx="105" cy="257" fill="#2b92db" r="3.5" stroke-width="0" /><circle cx="280" cy="663" fill="#2b92db" r="3.5" stroke-width="0" /><circle cx="123" cy="339" fill="#2b92db" r="3.5" stroke-width="0" /><circle cx="99" cy="221" fill="#2b92db" r="3.5" stroke-width="0" /><circle cx="241" cy="607" fill="#2b92db" r="3.5" stroke-width="0" /><circle cx="106" cy="263" fill="#2b92db" r="3.5" stroke-width="0" /><circle cx="262" cy="639" fill="#2b92db" r="3.5" stroke-width="0" /><circle cx="103" cy="250" fill="#2b92db" r="3.5" stroke-width="0" /><circle cx="145" cy="411" fill="#2b92db" r="3.5" stroke-width="0" /><circle cx="196" cy="529" fill="#2b92db" r="3.5" stroke-width="0" /><circle cx="281" cy="665" fill="#2b92db" r="3.5" stroke-width="0" /><circle cx="181" cy="499" fill="#2b92db" r="3.5" stroke-width="0" /><circle cx="220" cy="572" fill="#2b92db" r="3.5" stroke-width="0" /><circle cx="328" cy="723" fill="#2b92db" r="3.5" stroke-width="0" /><circle cx="237" cy="600" fill="#2b92db" r="3.5" stroke-width="0" /><circle cx="357" cy="754" fill="#2b92db" r="3.5" stroke-width="0" /><circle cx="308" cy="699" fill="#2b92db" r="3.5" stroke-width="0" /><circle cx="204" cy="544" fill="#2b92db" r="3.5" stroke-width="0" /><circle cx="148" cy="419" fill="#2b92db" r="3.5" stroke-width="0" /><circle cx="222" cy="575" fill="#2b92db" r="3.5" stroke-width="0" /><circle cx="119" cy="323" fill="#2b92db" r="3.5" stroke-width="0" /><circle cx="104" cy="251" fill="#2b92db" r="3.5" stroke-width="0" /><circle cx="162" cy="454" fill="#2b92db" r="3.5" stroke-width="0" /><circle cx="95" cy="184" fill="#2b92db" r="3.5" stroke-width="0" /><circle cx="127" cy="353" fill="#2b92db" r="3.5" stroke-width="0" /><circle cx="120" cy="330" fill="#2b92db" r="3.5" stroke-width="0" /><circle cx="180" cy="496" fill="#2b92db" r="3.5" stroke-width="0" /><circle cx="275" cy="657" fill="#2b92db" r="3.5" stroke-width="0" /><circle cx="142" cy="402" fill="#2b92db" r="3.5" stroke-width="0" /><circle cx="108" cy="275" fill="#2b92db" r="3.5" stroke-width="0" /><circle cx="250" cy="620" fill="#2b92db" r="3.5" stroke-width="0" /><circle cx="189" cy="514" fill="#2b92db" r="3.5" stroke-width="0" /><circle cx="182" cy="501" fill="#2b92db" r="3.5" stroke-width="0" /><circle cx="319" cy="712" fill="#2b92db" r="3.5" stroke-width="0" /><circle cx="100" cy="230" fill="#2b92db" r="3.5" stroke-width="0" /><circle cx="114" cy="303" fill="#2b92db" r="3.5" stroke-width="0" /><circle cx="236" cy="599" fill="#2b92db" r="3.5" stroke-width="0" /><circle cx="299" cy="688" fill="#2b92db" r="3.5" stroke-width="0" /><circle cx="193" cy="523" fill="#2b92db" r="3.5" stroke-width="0" /><circle cx="156" cy="439" fill="#2b92db" r="3.5" stroke-width="0" /><circle cx="96" cy="197" fill="#2b92db" r="3.5" stroke-width="0" /><circle cx="116" cy="310" fill="#2b92db" r="3.5" stroke-width="0" /><circle cx="107" cy="270" fill="#2b92db" r="3.5" stroke-width="0" /><circle cx="199" cy="534" fill="#2b92db" r="3.5" stroke-width="0" /><circle cx="101" cy="238" fill="#2b92db" r="3.5" stroke-width="0" /><circle cx="276" cy="658" fill="#2b92db" r="3.5" stroke-width="0" /><circle cx="297" cy="685" fill="#2b92db" r="3.5" stroke-width="0" /><circle cx="327" cy="721" fill="#2b92db" r="3.5" stroke-width="0" /><circle cx="266" cy="644" fill="#2b92db" r="3.5" stroke-width="0" /><circle cx="126" cy="351" fill="#2b92db" r="3.5" stroke-width="0" /><circle cx="298" cy="687" fill="#2b92db" r="3.5" stroke-width="0" /><circle cx="242" cy="608" fill="#2b92db" r="3.5" stroke-width="0" /><circle cx="215" cy="564" fill="#2b92db" r="3.5" stroke-width="0" /><circle cx="187" cy="510" fill="#2b92db" r="3.5" stroke-width="0" /><circle cx="197" cy="531" fill="#2b92db" r="3.5" stroke-width="0" /><circle cx="160" cy="451" fill="#2b92db" r="3.5" stroke-width="0" /><circle cx="296" cy="684" fill="#2b92db" r="3.5" stroke-width="0" /><circle cx="94" cy="175" fill="#2b92db" r="3.5" stroke-width="0" /><circle cx="186" cy="508" fill="#2b92db" r="3.5" stroke-width="0" /><circle cx="124" cy="343" fill="#2b92db" r="3.5" stroke-width="0" /><circle cx="320" cy="714" fill="#2b92db" r="3.5" stroke-width="0" /><circle cx="152" cy="429" fill="#2b92db" r="3.5" stroke-width="0" /><circle cx="227" cy="585" fill="#2b92db" r="3.5" stroke-width="0" /><circle cx="259" cy="634" fill="#2b92db" r="3.5" stroke-width="0" /><circle cx="258" cy="632" fill="#2b92db" r="3.5" stroke-width="0" /><circle cx="334" cy="729" fill="#2b92db" r="3.5" stroke-width="0" /><circle cx="238" cy="602" fill="#2b92db" r="3.5" stroke-width="0" /><circle cx="179" cy="493" fill="#2b92db" r="3.5" stroke-width="0" /><circle cx="165" cy="463" fill="#2b92db" r="3.5" stroke-width="0" /><circle cx="279" cy="662" fill="#2b92db" r="3.5" stroke-width="0" /><circle cx="133" cy="375" fill="#2b92db" r="3.5" stroke-width="0" /><circle cx="256" cy="630" fill="#2b92db" r="3.5" stroke-width="0" /><circle cx="353" cy="750" fill="#2b92db" r="3.5" stroke-width="0" /><circle cx="282" cy="666" fill="#2b92db" r="3.5" stroke-width="0" /><circle cx="164" cy="460" fill="#2b92db" r="3.5" stroke-width="0" /><circle cx="361" cy="759" fill="#2b92db" r="3.5" stroke-width="0" /><circle cx="161" cy="452" fill="#2b92db" r="3.5" stroke-width="0" /><circle cx="263" cy="640" fill="#2b92db" r="3.5" stroke-width="0" /><circle cx="239" cy="604" fill="#2b92db" r="3.5" stroke-width="0" /><circle cx="117" cy="315" fill="#2b92db" r="3.5" stroke-width="0" /><circle cx="168" cy="469" fill="#2b92db" r="3.5" stroke-width="0" /><circle cx="112" cy="295" fill="#2b92db" r="3.5" stroke-width="0" /><circle cx="362" cy="760" fill="#2b92db" r="3.5" stroke-width="0" /><circle cx="348" cy="745" fill="#2b92db" r="3.5" stroke-width="0" /><circle cx="173" cy="481" fill="#2b92db" r="3.5" stroke-width="0" /><circle cx="208" cy="551" fill="#2b92db" r="3.5" stroke-width="0" /><circle cx="303" cy="693" fill="#2b92db" r="3.5" stroke-width="0" /><circle cx="221" cy="574" fill="#2b92db" r="3.5" stroke-width="0" /><circle cx="110" cy="284" fill="#2b92db" r="3.5" stroke-width="0" /><circle cx="211" cy="557" fill="#2b92db" r="3.5" stroke-width="0" /><circle cx="352" cy="749" fill="#2b92db" r="3.5" stroke-width="0" /><circle cx="206" cy="548" fill="#2b92db" r="3.5" stroke-width="0" /><circle cx="269" cy="648" fill="#2b92db" r="3.5" stroke-width="0" /><circle cx="261" cy="637" fill="#2b92db" r="3.5" stroke-width="0" /><circle cx="346" cy="743" fill="#2b92db" r="3.5" stroke-width="0" /><circle cx="140" cy="396" fill="#2b92db" r="3.5" stroke-width="0" /><circle cx="128" cy="359" fill="#2b92db" r="3.5" stroke-width="0" /><circle cx="293" cy="681" fill="#2b92db" r="3.5" stroke-width="0" /><circle cx="102" cy="244" fill="#2b92db" r="3.5" stroke-width="0" /><circle cx="167" cy="467" fill="#2b92db" r="3.5" stroke-width="0" /><circle cx="155" cy="438" fill="#2b92db" r="3.5" stroke-width="0" /><circle cx="188" cy="512" fill="#2b92db" r="3.5" stroke-width="0" /><circle cx="136" cy="385" fill="#2b92db" r="3.5" stroke-width="0" /><circle cx="146" cy="414" fill="#2b92db" r="3.5" stroke-width="0" /><circle cx="207" cy="550" fill="#2b92db" r="3.5" stroke-width="0" /><circle cx="359" cy="756" fill="#2b92db" r="3.5" stroke-width="0" /><circle cx="150" cy="425" fill="#2b92db" r="3.5" stroke-width="0" /><circle cx="292" cy="679" fill="#2b92db" r="3.5" stroke-width="0" /><circle cx="184" cy="504" fill="#2b92db" r="3.5" stroke-width="0" /><circle cx="350" cy="747" fill="#2b92db" r="3.5" stroke-width="0" /><circle cx="225" cy="581" fill="#2b92db" r="3.5" stroke-width="0" /><circle cx="234" cy="595" fill="#2b92db" r="3.5" stroke-width="0" /><circle cx="194" cy="524" fill="#2b92db" r="3.5" stroke-width="0" /><circle cx="358" cy="755" fill="#2b92db" r="3.5" stroke-width="0" /><circle cx="172" cy="478" fill="#2b92db" r="3.5" stroke-width="0" /><circle cx="151" cy="427" fill="#2b92db" r="3.5" stroke-width="0" /><circle cx="272" cy="653" fill="#2b92db" r="3.5" stroke-width="0" /><circle cx="219" cy="570" fill="#2b92db" r="3.5" stroke-width="0" /><circle cx="98" cy="212" fill="#2b92db" r="3.5" stroke-width="0" /><circle cx="134" cy="377" fill="#2b92db" r="3.5" stroke-width="0" /><circle cx="171" cy="476" fill="#2b92db" r="3.5" stroke-width="0" /></g></g></g></svg>