<?xml version="1.0" encoding="utf-8" ?>
<svg baseProfile="full" height="1140px" style="font-size:15;font-family:Arial, san-serif;font-weight:bold;stroke:black;stroke-width:0;fill:#444444" version="1.1" width="1140px" xmlns="http://www.w3.org/2000/svg" xmlns:ev="http://www.w3.org/2001/xml-events" xmlns:xlink="http://www.w3.org/1999/xlink"><defs><clipPath id="areadografico"><rect height="1000" width="1000" x="70" y="70" /></clipPath></defs><g class="master"><g class="poligonos"><polygon clip-path="url(#areadografico)" fill="#000000" fill-opacity="0.1" points="70,1070 1069,745 1069,1070" /><polygon clip-path="url(#areadografico)" fill="#ffffff" fill-opacity="0.1" points="70,1070 1069,343 1069,745" /><polygon clip-path="url(#areadografico)" fill="#000000" fill-opacity="0.1" points="70,1070 1069,-306 1069,343" /><polygon clip-path="url(#areadografico)" fill="#ffffff" fill-opacity="0.1" points="70,1070 797,71 395,71" /><polygon clip-path="url(#areadografico)" fill="#000000" fill-opacity="0.1" points="70,1070 395,71 70,71" /></g><g class="linhas"><line fill-opacity="0.3" stroke="#999999" stroke-width="1" x1="1070" x2="1070" y1="1070" y2="70" /><line fill-opacity="0.3" stroke="#999999" stroke-width="1" x1="70" x2="1070" y1="70" y2="70" /><line fill-opacity="0.3" stroke="#999999" stroke-width="1" x1="970" x2="970" y1="1070" y2="70" /><line fill-opacity="0.3" stroke="#999999" stroke-width="1" x1="70" x2="1070" y1="170" y2="170" /><line fill-opacity="0.3" stroke="#999999" stroke-width="1" x1="870" x2="870" y1="1070" y2="70" /><line fill-opacity="0.3" stroke="#999999" stroke-width="1" x1="70" x2="1070" y1="270" y2="270" /><line fill-opacity="0.3" stroke="#999999" stroke-width="1" x1="770" x2="770" y1="1070" y2="70" /><line fill-opacity="0.3" stroke="#999999" stroke-width="1" x1="70" x2="1070" y1="370" y2="370" /><line fill-opacity="0.3" stroke="#999999" stroke-width="1" x1="670" x2="670" y1="1070" y2="70" /><line fill-opacity="0.3" stroke="#999999" stroke-width="1" x1="70" x2="1070" y1="470" y2="470" /><line fill-opacity="0.3" stroke="#999999" stroke-width="1" x1="570" x2="570" y1="1070" y2="70" /><line fill-opacity="0.3" stroke="#999999" stroke-width="1" x1="70" x2="1070" y1="570" y2="570" /><line fill-opacity="0.3" stroke="#999999" stroke-width="1" x1="470" x2="470" y1="1070" y2="70" /><line fill-opacity="0.3" stroke="#999999" stroke-width="1" x1="70" x2="1070" y1="670" y2="670" /><line fill-opacity="0.3" stroke="#999999" stroke-width="1" x1="370" x2="370" y1="1070" y2="70" /><line fill-opacity="0.3" stroke="#999999" stroke-width="1" x1="70" x2="1070" y1="770" y2="770" /><line fill-opacity="0.3" stroke="#999999" stroke-width="1" x1="270" x2="270" y1="1070" y2="70" /><line fill-opacity="0.3" stroke="#999999" stroke-width="1" x1="70" x2="1070" y1="870" y2="870" /><line fill-opacity="0.3" stroke="#999999" stroke-width="1" x1="170" x2="170" y1="1070" y2="70" /><line fill-opacity="0.3" stroke="#999999" stroke-width="1" x1="70" x2="1070" y1="970" y2="970" /><line fill-opacity="0.3" stroke="#000000" stroke-width="1" x1="70" x2="70" y1="1071" y2="69" /><line fill-opacity="0.3" stroke="#000000" stroke-width="1" x1="69" x2="1071" y1="1070" y2="1070" /></g><g class="textos"><text x="1050" y="1110">1000</text><text x="10" y="71">1000</text><text x="950" y="1110">900</text><text x="10" y="171">900</text><text x="850" y="1110">800</text><text x="10" y="271">800</text><text x="750" y="1110">700</text><text x="10" y="371">700</text><text x="650" y="1110">600</text><text x="10" y="471">600</text><text x="550" y="1110">500</text><text x="10" y="571">500</text><text x="450" y="1110">400</text><text x="10" y="671">400</text><text x="350" y="1110">300</text><text x="10" y="771">300</text><text x="250" y="1110">200</text><text x="10" y="871">200</text><text x="150" y="1110">100</text><text x="10" y="971">100</text><text x="50" y="1111">0</text><text x="9" y="1071">0</text></g><g class="especies"><g class="e0"><circle cx="632" cy="954" fill="#ff0000" r="3.5" stroke-width="0" /><circle cx="768" cy="1008" fill="#ff0000" r="3.5" stroke-width="0" /><circle cx="1017" cy="1049" fill="#ff0000" r="3.5" stroke-width="0" /><circle cx="817" cy="1021" fill="#ff0000" r="3.5" stroke-width="0" /><circle cx="555" cy="913" fill="#ff0000" r="3.5" stroke-width="0" /><circle cx="784" cy="1012" fill="#ff0000" r="3.5" stroke-width="0" /><circle cx="929" cy="1042" fill="#ff0000" r="3.5" stroke-width="0" /><circle cx="622" cy="949" fill="#ff0000" r="3.5" stroke-width="0" /><circle cx="651" cy="963" fill="#ff0000" r="3.5" stroke-width="0" /><circle cx="691" cy="980" fill="#ff0000" r="3.5" stroke-width="0" /><circle cx="810" cy="1020" fill="#ff0000" r="3.5" stroke-width="0" /><circle cx="1050" cy="1050" fill="#ff0000" r="3.5" stroke-width="0" /><circle cx="888" cy="1036" fill="#ff0000" r="3.5" stroke-width="0" /><circle cx="764" cy="1006" fill="#ff0000" r="3.5" stroke-width="0" /><circle cx="859" cy="1031" fill="#ff0000" r="3.5" stroke-width="0" /><circle cx="635" cy="956" fill="#ff0000" r="3.5" stroke-width="0" /><circle cx="866" cy="1032" fill="#ff0000" r="3.5" stroke-width="0" /><circle cx="647" cy="961" fill="#ff0000" r="3.5" stroke-width="0" /><circle cx="838" cy="1026" fill="#ff0000" r="3.5" stroke-width="0" /><circle cx="973" cy="1047" fill="#ff0000" r="3.5" stroke-width="0" /><circle cx="990" cy="1048" fill="#ff0000" r="3.5" stroke-width="0" /><circle cx="846" cy="1028" fill="#ff0000" r="3.5" stroke-width="0" /><circle cx="729" cy="995" fill="#ff0000" r="3.5" stroke-width="0" /><circle cx="671" cy="972" fill="#ff0000" r="3.5" stroke-width="0" /><circle cx="809" cy="1019" fill="#ff0000" r="3.5" stroke-width="0" /><circle cx="659" cy="967" fill="#ff0000" r="3.5" stroke-width="0" /><circle cx="699" cy="984" fill="#ff0000" r="3.5" stroke-width="0" /><circle cx="680" cy="976" fill="#ff0000" r="3.5" stroke-width="0" /><circle cx="918" cy="1041" fill="#ff0000" r="3.5" stroke-width="0" /><circle cx="883" cy="1035" fill="#ff0000" r="3.5" stroke-width="0" /><circle cx="963" cy="1046" fill="#ff0000" r="3.5" stroke-width="0" /><circle cx="565" cy="918" fill="#ff0000" r="3.5" stroke-width="0" /><circle cx="619" cy="948" fill="#ff0000" r="3.5" stroke-width="0" /><circle cx="611" cy="944" fill="#ff0000" r="3.5" stroke-width="0" /><circle cx="610" cy="943" fill="#ff0000" r="3.5" stroke-width="0" /><circle cx="774" cy="1009" fill="#ff0000" r="3.5" stroke-width="0" /><circle cx="869" cy="1033" fill="#ff0000" r="3.5" stroke-width="0" /><circle cx="942" cy="1044" fill="#ff0000" r="3.5" stroke-width="0" /></g><g class="e1"><circle cx="447" cy="837" fill="#2b92db" r="3.5" stroke-width="0" /><circle cx="454" cy="843" fill="#2b92db" r="3.5" stroke-width="0" /><circle cx="505" cy="880" fill="#2b92db" r="3.5" stroke-width="0" /><circle cx="538" cy="902" fill="#2b92db" r="3.5" stroke-width="0" /><circle cx="520" cy="890" fill="#2b92db" r="3.5" stroke-width="0" /><circle cx="543" cy="905" fill="#2b92db" r="3.5" stroke-width="0" /><circle cx="532" cy="898" fill="#2b92db" r="3.5" stroke-width="0" /><circle cx="456" cy="844" fill="#2b92db" r="3.5" stroke-width="0" /></g><g class="e2"><circle cx="363" cy="761" fill="#911eb4" r="3.5" stroke-width="0" /><circle cx="414" cy="809" fill="#911eb4" r="3.5" stroke-width="0" /><circle cx="379" cy="777" fill="#911eb4" r="3.5" stroke-width="0" /><circle cx="407" cy="803" fill="#911eb4" r="3.5" stroke-width="0" /><circle cx="374" cy="772" fill="#911eb4" r="3.5" stroke-width="0" /><circle cx="392" cy="789" fill="#911eb4" r="3.5" stroke-width="0" /><circle cx="338" cy="734" fill="#911eb4" r="3.5" stroke-width="0" /><circle cx="353" cy="750" fill="#911eb4" r="3.5" stroke-width="0" /><circle cx="346" cy="743" fill="#911eb4" r="3.5" stroke-width="0" /><circle cx="361" cy="759" fill="#911eb4" r="3.5" stroke-width="0" /><circle cx="398" cy="795" fill="#911eb4" r="3.5" stroke-width="0" /></g><g class="e3"><circle cx="239" cy="603" fill="#3cb44B" r="3.5" stroke-width="0" /><circle cx="320" cy="713" fill="#3cb44B" r="3.5" stroke-width="0" /><circle cx="244" cy="612" fill="#3cb44B" r="3.5" stroke-width="0" /><circle cx="277" cy="659" fill="#3cb44B" r="3.5" stroke-width="0" /><circle cx="246" cy="615" fill="#3cb44B" r="3.5" stroke-width="0" /><circle cx="235" cy="598" fill="#3cb44B" r="3.5" stroke-width="0" /><circle cx="229" cy="587" fill="#3cb44B" r="3.5" stroke-width="0" /><circle cx="298" cy="687" fill="#3cb44B" r="3.5" stroke-width="0" /><circle cx="274" cy="655" fill="#3cb44B" r="3.5" stroke-width="0" /><circle cx="314" cy="706" fill="#3cb44B" r="3.5" stroke-width="0" /><circle cx="255" cy="628" fill="#3cb44B" r="3.5" stroke-width="0" /><circle cx="316" cy="709" fill="#3cb44B" r="3.5" stroke-width="0" /><circle cx="240" cy="606" fill="#3cb44B" r="3.5" stroke-width="0" /><circle cx="252" cy="624" fill="#3cb44B" r="3.5" stroke-width="0" /></g><g class="e4"><circle cx="110" cy="287" fill="#ff0000" r="3.5" stroke-width="0" /><circle cx="99" cy="223" fill="#ff0000" r="3.5" stroke-width="0" /><circle cx="176" cy="487" fill="#ff0000" r="3.5" stroke-width="0" /><circle cx="207" cy="550" fill="#ff0000" r="3.5" stroke-width="0" /><circle cx="109" cy="281" fill="#ff0000" r="3.5" stroke-width="0" /><circle cx="196" cy="529" fill="#ff0000" r="3.5" stroke-width="0" /><circle cx="102" cy="240" fill="#ff0000" r="3.5" stroke-width="0" /><circle cx="163" cy="457" fill="#ff0000" r="3.5" stroke-width="0" /><circle cx="184" cy="504" fill="#ff0000" r="3.5" stroke-width="0" /><circle cx="177" cy="490" fill="#ff0000" r="3.5" stroke-width="0" /><circle cx="100" cy="229" fill="#ff0000" r="3.5" stroke-width="0" /><circle cx="125" cy="347" fill="#ff0000" r="3.5" stroke-width="0" /><circle cx="147" cy="416" fill="#ff0000" r="3.5" stroke-width="0" /><circle cx="222" cy="575" fill="#ff0000" r="3.5" stroke-width="0" /><circle cx="90" cy="112" fill="#ff0000" r="3.5" stroke-width="0" /><circle cx="107" cy="272" fill="#ff0000" r="3.5" stroke-width="0" /><circle cx="115" cy="307" fill="#ff0000" r="3.5" stroke-width="0" /><circle cx="92" cy="145" fill="#ff0000" r="3.5" stroke-width="0" /><circle cx="155" cy="436" fill="#ff0000" r="3.5" stroke-width="0" /><circle cx="123" cy="339" fill="#ff0000" r="3.5" stroke-width="0" /><circle cx="146" cy="413" fill="#ff0000" r="3.5" stroke-width="0" /><circle cx="152" cy="430" fill="#ff0000" r="3.5" stroke-width="0" /><circle cx="133" cy="374" fill="#ff0000" r="3.5" stroke-width="0" /><circle cx="149" cy="422" fill="#ff0000" r="3.5" stroke-width="0" /><circle cx="158" cy="444" fill="#ff0000" r="3.5" stroke-width="0" /><circle cx="159" cy="448" fill="#ff0000" r="3.5" stroke-width="0" /><circle cx="178" cy="492" fill="#ff0000" r="3.5" stroke-width="0" /><circle cx="113" cy="301" fill="#ff0000" r="3.5" stroke-width="0" /><circle cx="91" cy="139" fill="#ff0000" r="3.5" stroke-width="0" /><circle cx="117" cy="318" fill="#ff0000" r="3.5" stroke-width="0" /><circle cx="93" cy="170" fill="#ff0000" r="3.5" stroke-width="0" /><circle cx="116" cy="312" fill="#ff0000" r="3.5" stroke-width="0" /><circle cx="199" cy="535" fill="#ff0000" r="3.5" stroke-width="0" /><circle cx="190" cy="516" fill="#ff0000" r="3.5" stroke-width="0" /><circle cx="226" cy="583" fill="#ff0000" r="3.5" stroke-width="0" /><circle cx="200" cy="537" fill="#ff0000" r="3.5" stroke-width="0" /><circle cx="186" cy="508" fill="#ff0000" r="3.5" stroke-width="0" /><circle cx="112" cy="294" fill="#ff0000" r="3.5" stroke-width="0" /><circle cx="215" cy="564" fill="#ff0000" r="3.5" stroke-width="0" /><circle cx="192" cy="521" fill="#ff0000" r="3.5" stroke-width="0" /><circle cx="223" cy="578" fill="#ff0000" r="3.5" stroke-width="0" /><circle cx="98" cy="212" fill="#ff0000" r="3.5" stroke-width="0" /><circle cx="119" cy="326" fill="#ff0000" r="3.5" stroke-width="0" /><circle cx="193" cy="522" fill="#ff0000" r="3.5" stroke-width="0" /></g></g></g></svg>