<?xml version="1.0" encoding="utf-8" ?>
<svg baseProfile="full" height="1140px" style="font-size:15;font-family:Arial, san-serif;font-weight:bold;stroke:black;stroke-width:0;fill:#444444" version="1.1" width="1140px" xmlns="http://www.w3.org/2000/svg" xmlns:ev="http://www.w3.org/2001/xml-events" xmlns:xlink="http://www.w3.org/1999/xlink"><defs><clipPath id="areadografico"><rect height="1000" width="1000" x="70" y="70" /></clipPath></defs><g class="master"><g class="poligonos"><polygon clip-path="url(#areadografico)" fill="#000000" fill-opacity="0.1" points="70,1070 1069,666 1069,1070" /><polygon clip-path="url(#areadografico)" fill="#ffffff" fill-opacity="0.1" points="70,1070 1069,71 1069,666" /><polygon clip-path="url(#areadografico)" fill="#000000" fill-opacity="0.1" points="70,1070 1069,71 474,71" /><polygon clip-path="url(#areadografico)" fill="#ffffff" fill-opacity="0.1" points="70,1070 474,71 70,71" /></g><g class="linhas"><line fill-opacity="0.3" stroke="#999999" stroke-width="1" x1="1070" x2="1070" y1="1070" y2="70" /><line fill-opacity="0.3" stroke="#999999" stroke-width="1" x1="70" x2="1070" y1="70" y2="70" /><line fill-opacity="0.3" stroke="#999999" stroke-width="1" x1="970" x2="970" y1="1070" y2="70" /><line fill-opacity="0.3" stroke="#999999" stroke-width="1" x1="70" x2="1070" y1="170" y2="170" /><line fill-opacity="0.3" stroke="#999999" stroke-width="1" x1="870" x2="870" y1="1070" y2="70" /><line fill-opacity="0.3" stroke="#999999" stroke-width="1" x1="70" x2="1070" y1="270" y2="270" /><line fill-opacity="0.3" stroke="#999999" stroke-width="1" x1="770" x2="770" y1="1070" y2="70" /><line fill-opacity="0.3" stroke="#999999" stroke-width="1" x1="70" x2="1070" y1="370" y2="370" /><line fill-opacity="0.3" stroke="#999999" stroke-width="1" x1="670" x2="670" y1="1070" y2="70" /><line fill-opacity="0.3" stroke="#999999" stroke-width="1" x1="70" x2="1070" y1="470" y2="470" /><line fill-opacity="0.3" stroke="#999999" stroke-width="1" x1="570" x2="570" y1="1070" y2="70" /><line fill-opacity="0.3" stroke="#999999" stroke-width="1" x1="70" x2="1070" y1="570" y2="570" /><line fill-opacity="0.3" stroke="#999999" stroke-width="1" x1="470" x2="470" y1="1070" y2="70" /><line fill-opacity="0.3" stroke="#999999" stroke-width="1" x1="70" x2="1070" y1="670" y2="670" /><line fill-opacity="0.3" stroke="#999999" stroke-width="1" x1="370" x2="370" y1="1070" y2="70" /><line fill-opacity="0.3" stroke="#999999" stroke-width="1" x1="70" x2="1070" y1="770" y2="770" /><line fill-opacity="0.3" stroke="#999999" stroke-width="1" x1="270" x2="270" y1="1070" y2="70" /><line fill-opacity="0.3" stroke="#999999" stroke-width="1" x1="70" x2="1070" y1="870" y2="870" /><line fill-opacity="0.3" stroke="#999999" stroke-width="1" x1="170" x2="170" y1="1070" y2="70" /><line fill-opacity="0.3" stroke="#999999" stroke-width="1" x1="70" x2="1070" y1="970" y2="970" /><line fill-opacity="0.3" stroke="#000000" stroke-width="1" x1="70" x2="70" y1="1071" y2="69" /><line fill-opacity="0.3" stroke="#000000" stroke-width="1" x1="69" x2="1071" y1="1070" y2="1070" /></g><g class="textos"><text x="1050" y="1110">1000</text><text x="10" y="71">1000</text><text x="950" y="1110">900</text><text x="10" y="171">900</text><text x="850" y="1110">800</text><text x="10" y="271">800</text><text x="750" y="1110">700</text><text x="10" y="371">700</text><text x="650" y="1110">600</text><text x="10" y="471">600</text><text x="550" y="1110">500</text><text x="10" y="571">500</text><text x="450" y="1110">400</text><text x="10" y="671">400</text><text x="350" y="1110">300</text><text x="10" y="771">300</text><text x="250" y="1110">200</text><text x="10" y="871">200</text><text x="150" y="1110">100</text><text x="10" y="971">100</text><text x="50" y="1111">0</text><text x="9" y="1071">0</text></g><g class="especies"><g class="e0"><circle cx="621" cy="949" fill="#ff0000" r="3.5" stroke-width="0" /><circle cx="565" cy="918" fill="#ff0000" r="3.5" stroke-width="0" /><circle cx="555" cy="913" fill="#ff0000" r="3.5" stroke-width="0" /><circle cx="880" cy="1035" fill="#ff0000" r="3.5" stroke-width="0" /><circle cx="567" cy="920" fill="#ff0000" r="3.5" stroke-width="0" /><circle cx="602" cy="939" fill="#ff0000" r="3.5" stroke-width="0" /><circle cx="857" cy="1030" fill="#ff0000" r="3.5" stroke-width="0" /><circle cx="917" cy="1041" fill="#ff0000" r="3.5" stroke-width="0" /><circle cx="574" cy="924" fill="#ff0000" r="3.5" stroke-width="0" /><circle cx="779" cy="1011" fill="#ff0000" r="3.5" stroke-width="0" /><circle cx="852" cy="1029" fill="#ff0000" r="3.5" stroke-width="0" /><circle cx="988" cy="1048" fill="#ff0000" r="3.5" stroke-width="0" /><circle cx="670" cy="972" fill="#ff0000" r="3.5" stroke-width="0" /><circle cx="794" cy="1015" fill="#ff0000" r="3.5" stroke-width="0" /><circle cx="537" cy="901" fill="#ff0000" r="3.5" stroke-width="0" /><circle cx="971" cy="1047" fill="#ff0000" r="3.5" stroke-width="0" /><circle cx="796" cy="1016" fill="#ff0000" r="3.5" stroke-width="0" /><circle cx="886" cy="1036" fill="#ff0000" r="3.5" stroke-width="0" /><circle cx="644" cy="960" fill="#ff0000" r="3.5" stroke-width="0" /><circle cx="551" cy="910" fill="#ff0000" r="3.5" stroke-width="0" /><circle cx="931" cy="1043" fill="#ff0000" r="3.5" stroke-width="0" /><circle cx="531" cy="898" fill="#ff0000" r="3.5" stroke-width="0" /><circle cx="675" cy="974" fill="#ff0000" r="3.5" stroke-width="0" /><circle cx="618" cy="947" fill="#ff0000" r="3.5" stroke-width="0" /><circle cx="947" cy="1044" fill="#ff0000" r="3.5" stroke-width="0" /><circle cx="812" cy="1020" fill="#ff0000" r="3.5" stroke-width="0" /><circle cx="596" cy="936" fill="#ff0000" r="3.5" stroke-width="0" /><circle cx="711" cy="988" fill="#ff0000" r="3.5" stroke-width="0" /><circle cx="730" cy="995" fill="#ff0000" r="3.5" stroke-width="0" /><circle cx="589" cy="932" fill="#ff0000" r="3.5" stroke-width="0" /><circle cx="528" cy="896" fill="#ff0000" r="3.5" stroke-width="0" /><circle cx="861" cy="1031" fill="#ff0000" r="3.5" stroke-width="0" /><circle cx="677" cy="975" fill="#ff0000" r="3.5" stroke-width="0" /><circle cx="716" cy="990" fill="#ff0000" r="3.5" stroke-width="0" /><circle cx="680" cy="976" fill="#ff0000" r="3.5" stroke-width="0" /><circle cx="534" cy="900" fill="#ff0000" r="3.5" stroke-width="0" /><circle cx="775" cy="1010" fill="#ff0000" r="3.5" stroke-width="0" /><circle cx="566" cy="919" fill="#ff0000" r="3.5" stroke-width="0" /><circle cx="728" cy="994" fill="#ff0000" r="3.5" stroke-width="0" /><circle cx="899" cy="1038" fill="#ff0000" r="3.5" stroke-width="0" /><circle cx="957" cy="1045" fill="#ff0000" r="3.5" stroke-width="0" /><circle cx="923" cy="1042" fill="#ff0000" r="3.5" stroke-width="0" /><circle cx="845" cy="1028" fill="#ff0000" r="3.5" stroke-width="0" /><circle cx="586" cy="930" fill="#ff0000" r="3.5" stroke-width="0" /><circle cx="767" cy="1007" fill="#ff0000" r="3.5" stroke-width="0" /><circle cx="1027" cy="1050" fill="#ff0000" r="3.5" stroke-width="0" /><circle cx="866" cy="1032" fill="#ff0000" r="3.5" stroke-width="0" /><circle cx="647" cy="961" fill="#ff0000" r="3.5" stroke-width="0" /><circle cx="558" cy="914" fill="#ff0000" r="3.5" stroke-width="0" /><circle cx="1002" cy="1049" fill="#ff0000" r="3.5" stroke-width="0" /><circle cx="874" cy="1034" fill="#ff0000" r="3.5" stroke-width="0" /><circle cx="750" cy="1002" fill="#ff0000" r="3.5" stroke-width="0" /><circle cx="684" cy="977" fill="#ff0000" r="3.5" stroke-width="0" /><circle cx="790" cy="1014" fill="#ff0000" r="3.5" stroke-width="0" /><circle cx="754" cy="1003" fill="#ff0000" r="3.5" stroke-width="0" /><circle cx="640" cy="958" fill="#ff0000" r="3.5" stroke-width="0" /><circle cx="959" cy="1046" fill="#ff0000" r="3.5" stroke-width="0" /><circle cx="770" cy="1008" fill="#ff0000" r="3.5" stroke-width="0" /><circle cx="519" cy="890" fill="#ff0000" r="3.5" stroke-width="0" /><circle cx="824" cy="1023" fill="#ff0000" r="3.5" stroke-width="0" /><circle cx="578" cy="926" fill="#ff0000" r="3.5" stroke-width="0" /><circle cx="653" cy="964" fill="#ff0000" r="3.5" stroke-width="0" /><circle cx="533" cy="899" fill="#ff0000" r="3.5" stroke-width="0" /><circle cx="739" cy="998" fill="#ff0000" r="3.5" stroke-width="0" /><circle cx="720" cy="991" fill="#ff0000" r="3.5" stroke-width="0" /><circle cx="722" cy="992" fill="#ff0000" r="3.5" stroke-width="0" /><circle cx="689" cy="980" fill="#ff0000" r="3.5" stroke-width="0" /><circle cx="523" cy="892" fill="#ff0000" r="3.5" stroke-width="0" /><circle cx="524" cy="893" fill="#ff0000" r="3.5" stroke-width="0" /><circle cx="542" cy="905" fill="#ff0000" r="3.5" stroke-width="0" /><circle cx="619" cy="948" fill="#ff0000" r="3.5" stroke-width="0" /><circle cx="538" cy="902" fill="#ff0000" r="3.5" stroke-width="0" /><circle cx="833" cy="1025" fill="#ff0000" r="3.5" stroke-width="0" /><circle cx="693" cy="981" fill="#ff0000" r="3.5" stroke-width="0" /><circle cx="915" cy="1040" fill="#ff0000" r="3.5" stroke-width="0" /><circle cx="563" cy="917" fill="#ff0000" r="3.5" stroke-width="0" /><circle cx="725" cy="993" fill="#ff0000" r="3.5" stroke-width="0" /><circle cx="828" cy="1024" fill="#ff0000" r="3.5" stroke-width="0" /><circle cx="592" cy="934" fill="#ff0000" r="3.5" stroke-width="0" /><circle cx="907" cy="1039" fill="#ff0000" r="3.5" stroke-width="0" /><circle cx="772" cy="1009" fill="#ff0000" r="3.5" stroke-width="0" /><circle cx="540" cy="903" fill="#ff0000" r="3.5" stroke-width="0" /><circle cx="785" cy="1013" fill="#ff0000" r="3.5" stroke-width="0" /><circle cx="630" cy="953" fill="#ff0000" r="3.5" stroke-width="0" /><circle cx="709" cy="987" fill="#ff0000" r="3.5" stroke-width="0" /><circle cx="594" cy="935" fill="#ff0000" r="3.5" stroke-width="0" /><circle cx="541" cy="904" fill="#ff0000" r="3.5" stroke-width="0" /><circle cx="654" cy="965" fill="#ff0000" r="3.5" stroke-width="0" /><circle cx="733" cy="996" fill="#ff0000" r="3.5" stroke-width="0" /><circle cx="837" cy="1026" fill="#ff0000" r="3.5" stroke-width="0" /></g><g class="e1"><circle cx="500" cy="877" fill="#2b92db" r="3.5" stroke-width="0" /><circle cx="381" cy="779" fill="#2b92db" r="3.5" stroke-width="0" /><circle cx="491" cy="870" fill="#2b92db" r="3.5" stroke-width="0" /><circle cx="481" cy="863" fill="#2b92db" r="3.5" stroke-width="0" /><circle cx="394" cy="791" fill="#2b92db" r="3.5" stroke-width="0" /><circle cx="455" cy="843" fill="#2b92db" r="3.5" stroke-width="0" /><circle cx="409" cy="805" fill="#2b92db" r="3.5" stroke-width="0" /><circle cx="396" cy="793" fill="#2b92db" r="3.5" stroke-width="0" /><circle cx="436" cy="828" fill="#2b92db" r="3.5" stroke-width="0" /><circle cx="446" cy="836" fill="#2b92db" r="3.5" stroke-width="0" /><circle cx="511" cy="884" fill="#2b92db" r="3.5" stroke-width="0" /><circle cx="457" cy="845" fill="#2b92db" r="3.5" stroke-width="0" /><circle cx="474" cy="858" fill="#2b92db" r="3.5" stroke-width="0" /><circle cx="428" cy="821" fill="#2b92db" r="3.5" stroke-width="0" /><circle cx="506" cy="881" fill="#2b92db" r="3.5" stroke-width="0" /><circle cx="390" cy="787" fill="#2b92db" r="3.5" stroke-width="0" /><circle cx="453" cy="842" fill="#2b92db" r="3.5" stroke-width="0" /><circle cx="413" cy="808" fill="#2b92db" r="3.5" stroke-width="0" /><circle cx="452" cy="841" fill="#2b92db" r="3.5" stroke-width="0" /><circle cx="496" cy="874" fill="#2b92db" r="3.5" stroke-width="0" /><circle cx="408" cy="804" fill="#2b92db" r="3.5" stroke-width="0" /><circle cx="417" cy="812" fill="#2b92db" r="3.5" stroke-width="0" /><circle cx="388" cy="785" fill="#2b92db" r="3.5" stroke-width="0" /><circle cx="371" cy="769" fill="#2b92db" r="3.5" stroke-width="0" /><circle cx="488" cy="868" fill="#2b92db" r="3.5" stroke-width="0" /><circle cx="441" cy="832" fill="#2b92db" r="3.5" stroke-width="0" /><circle cx="380" cy="778" fill="#2b92db" r="3.5" stroke-width="0" /><circle cx="410" cy="806" fill="#2b92db" r="3.5" stroke-width="0" /><circle cx="437" cy="829" fill="#2b92db" r="3.5" stroke-width="0" /><circle cx="395" cy="792" fill="#2b92db" r="3.5" stroke-width="0" /><circle cx="508" cy="882" fill="#2b92db" r="3.5" stroke-width="0" /><circle cx="447" cy="837" fill="#2b92db" r="3.5" stroke-width="0" /><circle cx="504" cy="880" fill="#2b92db" r="3.5" stroke-width="0" /><circle cx="405" cy="801" fill="#2b92db" r="3.5" stroke-width="0" /><circle cx="475" cy="859" fill="#2b92db" r="3.5" stroke-width="0" /><circle cx="433" cy="825" fill="#2b92db" r="3.5" stroke-width="0" /><circle cx="503" cy="879" fill="#2b92db" r="3.5" stroke-width="0" /><circle cx="399" cy="796" fill="#2b92db" r="3.5" stroke-width="0" /><circle cx="374" cy="772" fill="#2b92db" r="3.5" stroke-width="0" /><circle cx="445" cy="835" fill="#2b92db" r="3.5" stroke-width="0" /><circle cx="393" cy="790" fill="#2b92db" r="3.5" stroke-width="0" /><circle cx="377" cy="775" fill="#2b92db" r="3.5" stroke-width="0" /><circle cx="440" cy="831" fill="#2b92db" r="3.5" stroke-width="0" /><circle cx="462" cy="849" fill="#2b92db" r="3.5" stroke-width="0" /></g><g class="e2"><circle cx="299" cy="688" fill="#911eb4" r="3.5" stroke-width="0" /><circle cx="331" cy="726" fill="#911eb4" r="3.5" stroke-width="0" /><circle cx="318" cy="711" fill="#911eb4" r="3.5" stroke-width="0" /><circle cx="303" cy="693" fill="#911eb4" r="3.5" stroke-width="0" /><circle cx="321" cy="715" fill="#911eb4" r="3.5" stroke-width="0" /><circle cx="346" cy="743" fill="#911eb4" r="3.5" stroke-width="0" /><circle cx="293" cy="681" fill="#911eb4" r="3.5" stroke-width="0" /><circle cx="351" cy="748" fill="#911eb4" r="3.5" stroke-width="0" /><circle cx="315" cy="708" fill="#911eb4" r="3.5" stroke-width="0" /><circle cx="355" cy="752" fill="#911eb4" r="3.5" stroke-width="0" /><circle cx="301" cy="690" fill="#911eb4" r="3.5" stroke-width="0" /><circle cx="256" cy="629" fill="#911eb4" r="3.5" stroke-width="0" /><circle cx="278" cy="660" fill="#911eb4" r="3.5" stroke-width="0" /><circle cx="281" cy="665" fill="#911eb4" r="3.5" stroke-width="0" /><circle cx="344" cy="741" fill="#911eb4" r="3.5" stroke-width="0" /><circle cx="316" cy="709" fill="#911eb4" r="3.5" stroke-width="0" /><circle cx="349" cy="746" fill="#911eb4" r="3.5" stroke-width="0" /><circle cx="289" cy="675" fill="#911eb4" r="3.5" stroke-width="0" /><circle cx="332" cy="727" fill="#911eb4" r="3.5" stroke-width="0" /><circle cx="342" cy="738" fill="#911eb4" r="3.5" stroke-width="0" /><circle cx="361" cy="758" fill="#911eb4" r="3.5" stroke-width="0" /><circle cx="324" cy="718" fill="#911eb4" r="3.5" stroke-width="0" /><circle cx="334" cy="730" fill="#911eb4" r="3.5" stroke-width="0" /><circle cx="356" cy="753" fill="#911eb4" r="3.5" stroke-width="0" /><circle cx="297" cy="686" fill="#911eb4" r="3.5" stroke-width="0" /><circle cx="328" cy="723" fill="#911eb4" r="3.5" stroke-width="0" /><circle cx="302" cy="692" fill="#911eb4" r="3.5" stroke-width="0" /><circle cx="327" cy="722" fill="#911eb4" r="3.5" stroke-width="0" /><circle cx="266" cy="644" fill="#911eb4" r="3.5" stroke-width="0" /><circle cx="309" cy="700" fill="#911eb4" r="3.5" stroke-width="0" /><circle cx="253" cy="625" fill="#911eb4" r="3.5" stroke-width="0" /><circle cx="290" cy="676" fill="#911eb4" r="3.5" stroke-width="0" /><circle cx="260" cy="636" fill="#911eb4" r="3.5" stroke-width="0" /><circle cx="258" cy="633" fill="#911eb4" r="3.5" stroke-width="0" /><circle cx="330" cy="725" fill="#911eb4" r="3.5" stroke-width="0" /><circle cx="369" cy="767" fill="#911eb4" r="3.5" stroke-width="0" /><circle cx="362" cy="760" fill="#911eb4" r="3.5" stroke-width="0" /></g><g class="e3"><circle cx="126" cy="351" fill="#3cb44B" r="3.5" stroke-width="0" /><circle cx="112" cy="296" fill="#3cb44B" r="3.5" stroke-width="0" /><circle cx="228" cy="586" fill="#3cb44B" r="3.5" stroke-width="0" /><circle cx="90" cy="98" fill="#3cb44B" r="3.5" stroke-width="0" /><circle cx="114" cy="305" fill="#3cb44B" r="3.5" stroke-width="0" /><circle cx="199" cy="535" fill="#3cb44B" r="3.5" stroke-width="0" /><circle cx="137" cy="388" fill="#3cb44B" r="3.5" stroke-width="0" /><circle cx="191" cy="519" fill="#3cb44B" r="3.5" stroke-width="0" /><circle cx="91" cy="136" fill="#3cb44B" r="3.5" stroke-width="0" /><circle cx="222" cy="575" fill="#3cb44B" r="3.5" stroke-width="0" /><circle cx="219" cy="570" fill="#3cb44B" r="3.5" stroke-width="0" /><circle cx="180" cy="496" fill="#3cb44B" r="3.5" stroke-width="0" /><circle cx="148" cy="418" fill="#3cb44B" r="3.5" stroke-width="0" /><circle cx="237" cy="600" fill="#3cb44B" r="3.5" stroke-width="0" /><circle cx="210" cy="555" fill="#3cb44B" r="3.5" stroke-width="0" /><circle cx="188" cy="513" fill="#3cb44B" r="3.5" stroke-width="0" /><circle cx="96" cy="197" fill="#3cb44B" r="3.5" stroke-width="0" /><circle cx="113" cy="299" fill="#3cb44B" r="3.5" stroke-width="0" /><circle cx="245" cy="613" fill="#3cb44B" r="3.5" stroke-width="0" /><circle cx="200" cy="536" fill="#3cb44B" r="3.5" stroke-width="0" /><circle cx="116" cy="310" fill="#3cb44B" r="3.5" stroke-width="0" /><circle cx="133" cy="373" fill="#3cb44B" r="3.5" stroke-width="0" /><circle cx="93" cy="171" fill="#3cb44B" r="3.5" stroke-width="0" /><circle cx="140" cy="396" fill="#3cb44B" r="3.5" stroke-width="0" /><circle cx="99" cy="220" fill="#3cb44B" r="3.5" stroke-width="0" /><circle cx="110" cy="284" fill="#3cb44B" r="3.5" stroke-width="0" /><circle cx="229" cy="588" fill="#3cb44B" r="3.5" stroke-width="0" /><circle cx="94" cy="174" fill="#3cb44B" r="3.5" stroke-width="0" /><circle cx="115" cy="308" fill="#3cb44B" r="3.5" stroke-width="0" /><circle cx="160" cy="451" fill="#3cb44B" r="3.5" stroke-width="0" /><circle cx="168" cy="470" fill="#3cb44B" r="3.5" stroke-width="0" /><circle cx="226" cy="583" fill="#3cb44B" r="3.5" stroke-width="0" /><circle cx="224" cy="580" fill="#3cb44B" r="3.5" stroke-width="0" /><circle cx="98" cy="210" fill="#3cb44B" r="3.5" stroke-width="0" /><circle cx="150" cy="425" fill="#3cb44B" r="3.5" stroke-width="0" /><circle cx="184" cy="504" fill="#3cb44B" r="3.5" stroke-width="0" /><circle cx="141" cy="399" fill="#3cb44B" r="3.5" stroke-width="0" /><circle cx="102" cy="242" fill="#3cb44B" r="3.5" stroke-width="0" /><circle cx="183" cy="503" fill="#3cb44B" r="3.5" stroke-width="0" /><circle cx="201" cy="539" fill="#3cb44B" r="3.5" stroke-width="0" /><circle cx="244" cy="611" fill="#3cb44B" r="3.5" stroke-width="0" /><circle cx="166" cy="465" fill="#3cb44B" r="3.5" stroke-width="0" /><circle cx="196" cy="529" fill="#3cb44B" r="3.5" stroke-width="0" /><circle cx="138" cy="389" fill="#3cb44B" r="3.5" stroke-width="0" /><circle cx="119" cy="324" fill="#3cb44B" r="3.5" stroke-width="0" /><circle cx="108" cy="277" fill="#3cb44B" r="3.5" stroke-width="0" /><circle cx="250" cy="620" fill="#3cb44B" r="3.5" stroke-width="0" /><circle cx="107" cy="268" fill="#3cb44B" r="3.5" stroke-width="0" /><circle cx="104" cy="251" fill="#3cb44B" r="3.5" stroke-width="0" /><circle cx="97" cy="208" fill="#3cb44B" r="3.5" stroke-width="0" /><circle cx="215" cy="563" fill="#3cb44B" r="3.5" stroke-width="0" /><circle cx="190" cy="516" fill="#3cb44B" r="3.5" stroke-width="0" /><circle cx="101" cy="232" fill="#3cb44B" r="3.5" stroke-width="0" /><circle cx="235" cy="598" fill="#3cb44B" r="3.5" stroke-width="0" /><circle cx="118" cy="320" fill="#3cb44B" r="3.5" stroke-width="0" /><circle cx="193" cy="522" fill="#3cb44B" r="3.5" stroke-width="0" /><circle cx="92" cy="158" fill="#3cb44B" r="3.5" stroke-width="0" /><circle cx="187" cy="511" fill="#3cb44B" r="3.5" stroke-width="0" /><circle cx="95" cy="190" fill="#3cb44B" r="3.5" stroke-width="0" /><circle cx="143" cy="404" fill="#3cb44B" r="3.5" stroke-width="0" /><circle cx="145" cy="410" fill="#3cb44B" r="3.5" stroke-width="0" /><circle cx="134" cy="376" fill="#3cb44B" r="3.5" stroke-width="0" /><circle cx="179" cy="494" fill="#3cb44B" r="3.5" stroke-width="0" /><circle cx="173" cy="480" fill="#3cb44B" r="3.5" stroke-width="0" /><circle cx="100" cy="227" fill="#3cb44B" r="3.5" stroke-width="0" /><circle cx="139" cy="392" fill="#3cb44B" r="3.5" stroke-width="0" /><circle cx="169" cy="472" fill="#3cb44B" r="3.5" stroke-width="0" /><circle cx="120" cy="327" fill="#3cb44B" r="3.5" stroke-width="0" /><circle cx="247" cy="616" fill="#3cb44B" r="3.5" stroke-width="0" /><circle cx="151" cy="426" fill="#3cb44B" r="3.5" stroke-width="0" /><circle cx="207" cy="549" fill="#3cb44B" r="3.5" stroke-width="0" /><circle cx="135" cy="381" fill="#3cb44B" r="3.5" stroke-width="0" /><circle cx="175" cy="484" fill="#3cb44B" r="3.5" stroke-width="0" /><circle cx="142" cy="401" fill="#3cb44B" r="3.5" stroke-width="0" /></g></g></g></svg>