<?xml version="1.0" encoding="utf-8" ?>
<svg baseProfile="full" height="1140px" style="font-size:15;font-family:Arial, san-serif;font-weight:bold;stroke:black;stroke-width:0;fill:#444444" version="1.1" width="1140px" xmlns="http://www.w3.org/2000/svg" xmlns:ev="http://www.w3.org/2001/xml-events" xmlns:xlink="http://www.w3.org/1999/xlink"><defs><clipPath id="areadografico"><rect height="1000" width="1000" x="70" y="70" /></clipPath></defs><g class="master"><g class="poligonos"><polygon clip-path="url(#areadografico)" fill="#000000" fill-opacity="0.1" points="70,1070 1069,876 1069,1070" /><polygon clip-path="url(#areadografico)" fill="#ffffff" fill-opacity="0.1" points="70,1070 1069,666 1069,876" /><polygon clip-path="url(#areadografico)" fill="#000000" fill-opacity="0.1" points="70,1070 1069,395 1069,666" /><polygon clip-path="url(#areadografico)" fill="#ffffff" fill-opacity="0.1" points="70,1070 1069,71 1069,395" /><polygon clip-path="url(#areadografico)" fill="#000000" fill-opacity="0.1" points="70,1070 1069,71 745,71" /><polygon clip-path="url(#areadografico)" fill="#ffffff" fill-opacity="0.1" points="70,1070 745,71 474,71" /><polygon clip-path="url(#areadografico)" fill="#000000" fill-opacity="0.1" points="70,1070 474,71 264,71" /><polygon clip-path="url(#areadografico)" fill="#ffffff" fill-opacity="0.1" points="70,1070 264,71 70,71" /></g><g class="linhas"><line fill-opacity="0.3" stroke="#999999" stroke-width="1" x1="1070" x2="1070" y1="1070" y2="70" /><line fill-opacity="0.3" stroke="#999999" stroke-width="1" x1="70" x2="1070" y1="70" y2="70" /><line fill-opacity="0.3" stroke="#999999" stroke-width="1" x1="970" x2="970" y1="1070" y2="70" /><line fill-opacity="0.3" stroke="#999999" stroke-width="1" x1="70" x2="1070" y1="170" y2="170" /><line fill-opacity="0.3" stroke="#999999" stroke-width="1" x1="870" x2="870" y1="1070" y2="70" /><line fill-opacity="0.3" stroke="#999999" stroke-width="1" x1="70" x2="1070" y1="270" y2="270" /><line fill-opacity="0.3" stroke="#999999" stroke-width="1" x1="770" x2="770" y1="1070" y2="70" /><line fill-opacity="0.3" stroke="#999999" stroke-width="1" x1="70" x2="1070" y1="370" y2="370" /><line fill-opacity="0.3" stroke="#999999" stroke-width="1" x1="670" x2="670" y1="1070" y2="70" /><line fill-opacity="0.3" stroke="#999999" stroke-width="1" x1="70" x2="1070" y1="470" y2="470" /><line fill-opacity="0.3" stroke="#999999" stroke-width="1" x1="570" x2="570" y1="1070" y2="70" /><line fill-opacity="0.3" stroke="#999999" stroke-width="1" x1="70" x2="1070" y1="570" y2="570" /><line fill-opacity="0.3" stroke="#999999" stroke-width="1" x1="470" x2="470" y1="1070" y2="70" /><line fill-opacity="0.3" stroke="#999999" stroke-width="1" x1="70" x2="1070" y1="670" y2="670" /><line fill-opacity="0.3" stroke="#999999" stroke-width="1" x1="370" x2="370" y1="1070" y2="70" /><line fill-opacity="0.3" stroke="#999999" stroke-width="1" x1="70" x2="1070" y1="770" y2="770" /><line fill-opacity="0.3" stroke="#999999" stroke-width="1" x1="270" x2="270" y1="1070" y2="70" /><line fill-opacity="0.3" stroke="#999999" stroke-width="1" x1="70" x2="1070" y1="870" y2="870" /><line fill-opacity="0.3" stroke="#999999" stroke-width="1" x1="170" x2="170" y1="1070" y2="70" /><line fill-opacity="0.3" stroke="#999999" stroke-width="1" x1="70" x2="1070" y1="970" y2="970" /><line fill-opacity="0.3" stroke="#000000" stroke-width="1" x1="70" x2="70" y1="1071" y2="69" /><line fill-opacity="0.3" stroke="#000000" stroke-width="1" x1="69" x2="1071" y1="1070" y2="1070" /></g><g class="textos"><text x="1050" y="1110">1000</text><text x="10" y="71">1000</text><text x="950" y="1110">900</text><text x="10" y="171">900</text><text x="850" y="1110">800</text><text x="10" y="271">800</text><text x="750" y="1110">700</text><text x="10" y="371">700</text><text x="650" y="1110">600</text><text x="10" y="471">600</text><text x="550" y="1110">500</text><text x="10" y="571">500</text><text x="450" y="1110">400</text><text x="10" y="671">400</text><text x="350" y="1110">300</text><text x="10" y="771">300</text><text x="250" y="1110">200</text><text x="10" y="871">200</text><text x="150" y="1110">100</text><text x="10" y="971">100</text><text x="50" y="1111">0</text><text x="9" y="1071">0</text></g><g class="especies"><g class="e0"><circle cx="959" cy="1046" fill="#ff0000" r="3.5" stroke-width="0" /><circle cx="695" cy="982" fill="#ff0000" r="3.5" stroke-width="0" /><circle cx="952" cy="1045" fill="#ff0000" r="3.5" stroke-width="0" /><circle cx="798" cy="1016" fill="#ff0000" r="3.5" stroke-width="0" /><circle cx="894" cy="1037" fill="#ff0000" r="3.5" stroke-width="0" /><circle cx="930" cy="1042" fill="#ff0000" r="3.5" stroke-width="0" /><circle cx="701" cy="984" fill="#ff0000" r="3.5" stroke-width="0" /><circle cx="847" cy="1028" fill="#ff0000" r="3.5" stroke-width="0" /><circle cx="723" cy="993" fill="#ff0000" r="3.5" stroke-width="0" /><circle cx="737" cy="998" fill="#ff0000" r="3.5" stroke-width="0" /><circle cx="649" cy="962" fill="#ff0000" r="3.5" stroke-width="0" /><circle cx="651" cy="963" fill="#ff0000" r="3.5" stroke-width="0" /><circle cx="868" cy="1033" fill="#ff0000" r="3.5" stroke-width="0" /><circle cx="841" cy="1027" fill="#ff0000" r="3.5" stroke-width="0" /><circle cx="1025" cy="1050" fill="#ff0000" r="3.5" stroke-width="0" /><circle cx="828" cy="1024" fill="#ff0000" r="3.5" stroke-width="0" /></g><g class="e1"><circle cx="565" cy="918" fill="#2b92db" r="3.5" stroke-width="0" /><circle cx="592" cy="934" fill="#2b92db" r="3.5" stroke-width="0" /><circle cx="590" cy="933" fill="#2b92db" r="3.5" stroke-width="0" /></g><g class="e2"><circle cx="505" cy="880" fill="#911eb4" r="3.5" stroke-width="0" /><circle cx="496" cy="874" fill="#911eb4" r="3.5" stroke-width="0" /></g><g class="e3"><circle cx="425" cy="819" fill="#3cb44B" r="3.5" stroke-width="0" /><circle cx="388" cy="785" fill="#3cb44B" r="3.5" stroke-width="0" /></g><g class="e4"><circle cx="341" cy="737" fill="#ff0000" r="3.5" stroke-width="0" /><circle cx="335" cy="731" fill="#ff0000" r="3.5" stroke-width="0" /></g><g class="e5"><circle cx="301" cy="690" fill="#2b92db" r="3.5" stroke-width="0" /><circle cx="266" cy="644" fill="#2b92db" r="3.5" stroke-width="0" /><circle cx="278" cy="661" fill="#2b92db" r="3.5" stroke-width="0" /><circle cx="313" cy="705" fill="#2b92db" r="3.5" stroke-width="0" /><circle cx="280" cy="663" fill="#2b92db" r="3.5" stroke-width="0" /><circle cx="291" cy="678" fill="#2b92db" r="3.5" stroke-width="0" /></g><g class="e6"><circle cx="229" cy="587" fill="#911eb4" r="3.5" stroke-width="0" /><circle cx="244" cy="611" fill="#911eb4" r="3.5" stroke-width="0" /><circle cx="230" cy="590" fill="#911eb4" r="3.5" stroke-width="0" /></g><g class="e7"><circle cx="90" cy="104" fill="#3cb44B" r="3.5" stroke-width="0" /><circle cx="118" cy="320" fill="#3cb44B" r="3.5" stroke-width="0" /><circle cx="124" cy="342" fill="#3cb44B" r="3.5" stroke-width="0" /><circle cx="94" cy="181" fill="#3cb44B" r="3.5" stroke-width="0" /><circle cx="91" cy="131" fill="#3cb44B" r="3.5" stroke-width="0" /><circle cx="106" cy="264" fill="#3cb44B" r="3.5" stroke-width="0" /><circle cx="138" cy="391" fill="#3cb44B" r="3.5" stroke-width="0" /><circle cx="131" cy="368" fill="#3cb44B" r="3.5" stroke-width="0" /><circle cx="108" cy="275" fill="#3cb44B" r="3.5" stroke-width="0" /><circle cx="126" cy="349" fill="#3cb44B" r="3.5" stroke-width="0" /><circle cx="98" cy="210" fill="#3cb44B" r="3.5" stroke-width="0" /><circle cx="101" cy="236" fill="#3cb44B" r="3.5" stroke-width="0" /><circle cx="104" cy="256" fill="#3cb44B" r="3.5" stroke-width="0" /><circle cx="92" cy="159" fill="#3cb44B" r="3.5" stroke-width="0" /><circle cx="137" cy="388" fill="#3cb44B" r="3.5" stroke-width="0" /><circle cx="153" cy="431" fill="#3cb44B" r="3.5" stroke-width="0" /><circle cx="150" cy="424" fill="#3cb44B" r="3.5" stroke-width="0" /><circle cx="168" cy="469" fill="#3cb44B" r="3.5" stroke-width="0" /><circle cx="166" cy="464" fill="#3cb44B" r="3.5" stroke-width="0" /><circle cx="130" cy="363" fill="#3cb44B" r="3.5" stroke-width="0" /><circle cx="159" cy="448" fill="#3cb44B" r="3.5" stroke-width="0" /></g></g></g></svg>