<?xml version="1.0" encoding="utf-8" ?>
<svg baseProfile="full" height="1140px" style="font-size:15;font-family:Arial, san-serif;font-weight:bold;stroke:black;stroke-width:0;fill:#444444" version="1.1" width="1140px" xmlns="http://www.w3.org/2000/svg" xmlns:ev="http://www.w3.org/2001/xml-events" xmlns:xlink="http://www.w3.org/1999/xlink"><defs><clipPath id="areadografico"><rect height="1000" width="1000" x="70" y="70" /></clipPath></defs><g class="master"><g class="poligonos"><polygon clip-path="url(#areadografico)" fill="#000000" fill-opacity="0.1" points="70,1070 1069,876 1069,1070" /><polygon clip-path="url(#areadografico)" fill="#ffffff" fill-opacity="0.1" points="70,1070 1069,666 1069,876" /><polygon clip-path="url(#areadografico)" fill="#000000" fill-opacity="0.1" points="70,1070 1069,395 1069,666" /><polygon clip-path="url(#areadografico)" fill="#ffffff" fill-opacity="0.1" points="70,1070 1069,71 1069,395" /><polygon clip-path="url(#areadografico)" fill="#000000" fill-opacity="0.1" points="70,1070 1069,71 745,71" /><polygon clip-path="url(#areadografico)" fill="#ffffff" fill-opacity="0.1" points="70,1070 745,71 474,71" /><polygon clip-path="url(#areadografico)" fill="#000000" fill-opacity="0.1" points="70,1070 474,71 264,71" /><polygon clip-path="url(#areadografico)" fill="#ffffff" fill-opacity="0.1" points="70,1070 264,71 70,71" /></g><g class="linhas"><line fill-opacity="0.3" stroke="#999999" stroke-width="1" x1="1070" x2="1070" y1="1070" y2="70" /><line fill-opacity="0.3" stroke="#999999" stroke-width="1" x1="70" x2="1070" y1="70" y2="70" /><line fill-opacity="0.3" stroke="#999999" stroke-width="1" x1="970" x2="970" y1="1070" y2="70" /><line fill-opacity="0.3" stroke="#999999" stroke-width="1" x1="70" x2="1070" y1="170" y2="170" /><line fill-opacity="0.3" stroke="#999999" stroke-width="1" x1="870" x2="870" y1="1070" y2="70" /><line fill-opacity="0.3" stroke="#999999" stroke-width="1" x1="70" x2="1070" y1="270" y2="270" /><line fill-opacity="0.3" stroke="#999999" stroke-width="1" x1="770" x2="770" y1="1070" y2="70" /><line fill-opacity="0.3" stroke="#999999" stroke-width="1" x1="70" x2="1070" y1="370" y2="370" /><line fill-opacity="0.3" stroke="#999999" stroke-width="1" x1="670" x2="670" y1="1070" y2="70" /><line fill-opacity="0.3" stroke="#999999" stroke-width="1" x1="70" x2="1070" y1="470" y2="470" /><line fill-opacity="0.3" stroke="#999999" stroke-width="1" x1="570" x2="570" y1="1070" y2="70" /><line fill-opacity="0.3" stroke="#999999" stroke-width="1" x1="70" x2="1070" y1="570" y2="570" /><line fill-opacity="0.3" stroke="#999999" stroke-width="1" x1="470" x2="470" y1="1070" y2="70" /><line fill-opacity="0.3" stroke="#999999" stroke-width="1" x1="70" x2="1070" y1="670" y2="670" /><line fill-opacity="0.3" stroke="#999999" stroke-width="1" x1="370" x2="370" y1="1070" y2="70" /><line fill-opacity="0.3" stroke="#999999" stroke-width="1" x1="70" x2="1070" y1="770" y2="770" /><line fill-opacity="0.3" stroke="#999999" stroke-width="1" x1="270" x2="270" y1="1070" y2="70" /><line fill-opacity="0.3" stroke="#999999" stroke-width="1" x1="70" x2="1070" y1="870" y2="870" /><line fill-opacity="0.3" stroke="#999999" stroke-width="1" x1="170" x2="170" y1="1070" y2="70" /><line fill-opacity="0.3" stroke="#999999" stroke-width="1" x1="70" x2="1070" y1="970" y2="970" /><line fill-opacity="0.3" stroke="#000000" stroke-width="1" x1="70" x2="70" y1="1071" y2="69" /><line fill-opacity="0.3" stroke="#000000" stroke-width="1" x1="69" x2="1071" y1="1070" y2="1070" /></g><g class="textos"><text x="1050" y="1110">1000</text><text x="10" y="71">1000</text><text x="950" y="1110">900</text><text x="10" y="171">900</text><text x="850" y="1110">800</text><text x="10" y="271">800</text><text x="750" y="1110">700</text><text x="10" y="371">700</text><text x="650" y="1110">600</text><text x="10" y="471">600</text><text x="550" y="1110">500</text><text x="10" y="571">500</text><text x="450" y="1110">400</text><text x="10" y="671">400</text><text x="350" y="1110">300</text><text x="10" y="771">300</text><text x="250" y="1110">200</text><text x="10" y="871">200</text><text x="150" y="1110">100</text><text x="10" y="971">100</text><text x="50" y="1111">0</text><text x="9" y="1071">0</text></g><g class="especies"><g class="e0"><circle cx="1020" cy="1050" fill="#ff0000" r="3.5" stroke-width="0" /><circle cx="1033" cy="1050" fill="#ff0000" r="3.5" stroke-width="0" /><circle cx="1046" cy="1050" fill="#ff0000" r="3.5" stroke-width="0" /><circle cx="1005" cy="1049" fill="#ff0000" r="3.5" stroke-width="0" /><circle cx="1018" cy="1049" fill="#ff0000" r="3.5" stroke-width="0" /><circle cx="992" cy="1048" fill="#ff0000" r="3.5" stroke-width="0" /><circle cx="977" cy="1047" fill="#ff0000" r="3.5" stroke-width="0" /><circle cx="967" cy="1046" fill="#ff0000" r="3.5" stroke-width="0" /><circle cx="940" cy="1044" fill="#ff0000" r="3.5" stroke-width="0" /><circle cx="936" cy="1043" fill="#ff0000" r="3.5" stroke-width="0" /><circle cx="918" cy="1041" fill="#ff0000" r="3.5" stroke-width="0" /><circle cx="902" cy="1039" fill="#ff0000" r="3.5" stroke-width="0" /><circle cx="890" cy="1037" fill="#ff0000" r="3.5" stroke-width="0" /><circle cx="880" cy="1035" fill="#ff0000" r="3.5" stroke-width="0" /><circle cx="871" cy="1033" fill="#ff0000" r="3.5" stroke-width="0" /><circle cx="854" cy="1030" fill="#ff0000" r="3.5" stroke-width="0" /><circle cx="839" cy="1027" fill="#ff0000" r="3.5" stroke-width="0" /><circle cx="826" cy="1024" fill="#ff0000" r="3.5" stroke-width="0" /><circle cx="814" cy="1021" fill="#ff0000" r="3.5" stroke-width="0" /><circle cx="805" cy="1018" fill="#ff0000" r="3.5" stroke-width="0" /><circle cx="788" cy="1014" fill="#ff0000" r="3.5" stroke-width="0" /><circle cx="780" cy="1011" fill="#ff0000" r="3.5" stroke-width="0" /><circle cx="767" cy="1007" fill="#ff0000" r="3.5" stroke-width="0" /><circle cx="754" cy="1003" fill="#ff0000" r="3.5" stroke-width="0" /><circle cx="737" cy="998" fill="#ff0000" r="3.5" stroke-width="0" /><circle cx="728" cy="994" fill="#ff0000" r="3.5" stroke-width="0" /><circle cx="713" cy="989" fill="#ff0000" r="3.5" stroke-width="0" /><circle cx="700" cy="984" fill="#ff0000" r="3.5" stroke-width="0" /><circle cx="688" cy="979" fill="#ff0000" r="3.5" stroke-width="0" /><circle cx="673" cy="973" fill="#ff0000" r="3.5" stroke-width="0" /><circle cx="662" cy="968" fill="#ff0000" r="3.5" stroke-width="0" /><circle cx="649" cy="962" fill="#ff0000" r="3.5" stroke-width="0" /></g><g class="e1"><circle cx="635" cy="956" fill="#2b92db" r="3.5" stroke-width="0" /><circle cx="624" cy="950" fill="#2b92db" r="3.5" stroke-width="0" /><circle cx="609" cy="943" fill="#2b92db" r="3.5" stroke-width="0" /><circle cx="596" cy="936" fill="#2b92db" r="3.5" stroke-width="0" /><circle cx="583" cy="929" fill="#2b92db" r="3.5" stroke-width="0" /><circle cx="571" cy="922" fill="#2b92db" r="3.5" stroke-width="0" /><circle cx="557" cy="914" fill="#2b92db" r="3.5" stroke-width="0" /><circle cx="544" cy="906" fill="#2b92db" r="3.5" stroke-width="0" /><circle cx="531" cy="898" fill="#2b92db" r="3.5" stroke-width="0" /><circle cx="520" cy="890" fill="#2b92db" r="3.5" stroke-width="0" /></g><g class="e2"><circle cx="506" cy="881" fill="#911eb4" r="3.5" stroke-width="0" /><circle cx="493" cy="872" fill="#911eb4" r="3.5" stroke-width="0" /><circle cx="479" cy="862" fill="#911eb4" r="3.5" stroke-width="0" /><circle cx="468" cy="853" fill="#911eb4" r="3.5" stroke-width="0" /><circle cx="455" cy="843" fill="#911eb4" r="3.5" stroke-width="0" /><circle cx="441" cy="832" fill="#911eb4" r="3.5" stroke-width="0" /></g><g class="e3"><circle cx="428" cy="821" fill="#3cb44B" r="3.5" stroke-width="0" /><circle cx="415" cy="810" fill="#3cb44B" r="3.5" stroke-width="0" /><circle cx="402" cy="798" fill="#3cb44B" r="3.5" stroke-width="0" /><circle cx="389" cy="786" fill="#3cb44B" r="3.5" stroke-width="0" /><circle cx="376" cy="774" fill="#3cb44B" r="3.5" stroke-width="0" /></g><g class="e4"><circle cx="365" cy="763" fill="#ff0000" r="3.5" stroke-width="0" /><circle cx="353" cy="750" fill="#ff0000" r="3.5" stroke-width="0" /><circle cx="341" cy="737" fill="#ff0000" r="3.5" stroke-width="0" /><circle cx="329" cy="724" fill="#ff0000" r="3.5" stroke-width="0" /><circle cx="318" cy="711" fill="#ff0000" r="3.5" stroke-width="0" /></g><g class="e5"><circle cx="307" cy="698" fill="#2b92db" r="3.5" stroke-width="0" /><circle cx="297" cy="685" fill="#2b92db" r="3.5" stroke-width="0" /><circle cx="287" cy="672" fill="#2b92db" r="3.5" stroke-width="0" /><circle cx="277" cy="659" fill="#2b92db" r="3.5" stroke-width="0" /><circle cx="267" cy="646" fill="#2b92db" r="3.5" stroke-width="0" /><circle cx="258" cy="633" fill="#2b92db" r="3.5" stroke-width="0" /></g><g class="e6"><circle cx="250" cy="620" fill="#911eb4" r="3.5" stroke-width="0" /><circle cx="241" cy="607" fill="#911eb4" r="3.5" stroke-width="0" /><circle cx="233" cy="594" fill="#911eb4" r="3.5" stroke-width="0" /><circle cx="225" cy="581" fill="#911eb4" r="3.5" stroke-width="0" /><circle cx="217" cy="568" fill="#911eb4" r="3.5" stroke-width="0" /><circle cx="210" cy="555" fill="#911eb4" r="3.5" stroke-width="0" /><circle cx="203" cy="542" fill="#911eb4" r="3.5" stroke-width="0" /><circle cx="196" cy="529" fill="#911eb4" r="3.5" stroke-width="0" /><circle cx="190" cy="516" fill="#911eb4" r="3.5" stroke-width="0" /><circle cx="183" cy="503" fill="#911eb4" r="3.5" stroke-width="0" /></g><g class="e7"><circle cx="178" cy="491" fill="#3cb44B" r="3.5" stroke-width="0" /><circle cx="172" cy="478" fill="#3cb44B" r="3.5" stroke-width="0" /><circle cx="166" cy="465" fill="#3cb44B" r="3.5" stroke-width="0" /><circle cx="161" cy="452" fill="#3cb44B" r="3.5" stroke-width="0" /><circle cx="156" cy="439" fill="#3cb44B" r="3.5" stroke-width="0" /><circle cx="151" cy="426" fill="#3cb44B" r="3.5" stroke-width="0" /><circle cx="146" cy="413" fill="#3cb44B" r="3.5" stroke-width="0" /><circle cx="141" cy="400" fill="#3cb44B" r="3.5" stroke-width="0" /><circle cx="137" cy="387" fill="#3cb44B" r="3.5" stroke-width="0" /><circle cx="133" cy="374" fill="#3cb44B" r="3.5" stroke-width="0" /><circle cx="129" cy="361" fill="#3cb44B" r="3.5" stroke-width="0" /><circle cx="125" cy="348" fill="#3cb44B" r="3.5" stroke-width="0" /><circle cx="122" cy="335" fill="#3cb44B" r="3.5" stroke-width="0" /><circle cx="118" cy="322" fill="#3cb44B" r="3.5" stroke-width="0" /><circle cx="115" cy="309" fill="#3cb44B" r="3.5" stroke-width="0" /><circle cx="112" cy="296" fill="#3cb44B" r="3.5" stroke-width="0" /><circle cx="110" cy="283" fill="#3cb44B" r="3.5" stroke-width="0" /><circle cx="107" cy="270" fill="#3cb44B" r="3.5" stroke-width="0" /><circle cx="105" cy="257" fill="#3cb44B" r="3.5" stroke-width="0" /><circle cx="102" cy="244" fill="#3cb44B" r="3.5" stroke-width="0" /><circle cx="100" cy="231" fill="#3cb44B" r="3.5" stroke-width="0" /><circle cx="99" cy="219" fill="#3cb44B" r="3.5" stroke-width="0" /><circle cx="97" cy="206" fill="#3cb44B" r="3.5" stroke-width="0" /><circle cx="96" cy="193" fill="#3cb44B" r="3.5" stroke-width="0" /><circle cx="94" cy="180" fill="#3cb44B" r="3.5" stroke-width="0" /><circle cx="93" cy="167" fill="#3cb44B" r="3.5" stroke-width="0" /><circle cx="92" cy="154" fill="#3cb44B" r="3.5" stroke-width="0" /><circle cx="91" cy="141" fill="#3cb44B" r="3.5" stroke-width="0" /><circle cx="91" cy="128" fill="#3cb44B" r="3.5" stroke-width="0" /><circle cx="90" cy="115" fill="#3cb44B" r="3.5" stroke-width="0" /><circle cx="90" cy="102" fill="#3cb44B" r="3.5" stroke-width="0" /></g></g></g></svg>