<?xml version="1.0" encoding="utf-8" ?>
<svg baseProfile="full" height="1140px" style="font-size:15;font-family:Arial, san-serif;font-weight:bold;stroke:black;stroke-width:0;fill:#444444" version="1.1" width="1140px" xmlns="http://www.w3.org/2000/svg" xmlns:ev="http://www.w3.org/2001/xml-events" xmlns:xlink="http://www.w3.org/1999/xlink"><defs><clipPath id="areadografico"><rect height="1000" width="1000" x="70" y="70" /></clipPath></defs><g class="master"><g class="poligonos"><polygon clip-path="url(#areadografico)" fill="#000000" fill-opacity="0.1" points="70,1070 1069,912 1069,1070" /><polygon clip-path="url(#areadografico)" fill="#ffffff" fill-opacity="0.1" points="70,1070 1069,745 1069,912" /><polygon clip-path="url(#areadografico)" fill="#000000" fill-opacity="0.1" points="70,1070 1069,560 1069,745" /><polygon clip-path="url(#areadografico)" fill="#ffffff" fill-opacity="0.1" points="70,1070 1069,343 1069,560" /><polygon clip-path="url(#areadografico)" fill="#000000" fill-opacity="0.1" points="70,1070 1069,71 1069,343" /><polygon clip-path="url(#areadografico)" fill="#ffffff" fill-opacity="0.1" points="70,1070 1069,71 797,71" /><polygon clip-path="url(#areadografico)" fill="#000000" fill-opacity="0.1" points="70,1070 797,71 580,71" /><polygon clip-path="url(#areadografico)" fill="#ffffff" fill-opacity="0.1" points="70,1070 580,71 395,71" /><polygon clip-path="url(#areadografico)" fill="#000000" fill-opacity="0.1" points="70,1070 395,71 228,71" /><polygon clip-path="url(#areadografico)" fill="#ffffff" fill-opacity="0.1" points="70,1070 228,71 70,71" /></g><g class="linhas"><line fill-opacity="0.3" stroke="#999999" stroke-width="1" x1="1070" x2="1070" y1="1070" y2="70" /><line fill-opacity="0.3" stroke="#999999" stroke-width="1" x1="70" x2="1070" y1="70" y2="70" /><line fill-opacity="0.3" stroke="#999999" stroke-width="1" x1="970" x2="970" y1="1070" y2="70" /><line fill-opacity="0.3" stroke="#999999" stroke-width="1" x1="70" x2="1070" y1="170" y2="170" /><line fill-opacity="0.3" stroke="#999999" stroke-width="1" x1="870" x2="870" y1="1070" y2="70" /><line fill-opacity="0.3" stroke="#999999" stroke-width="1" x1="70" x2="1070" y1="270" y2="270" /><line fill-opacity="0.3" stroke="#999999" stroke-width="1" x1="770" x2="770" y1="1070" y2="70" /><line fill-opacity="0.3" stroke="#999999" stroke-width="1" x1="70" x2="1070" y1="370" y2="370" /><line fill-opacity="0.3" stroke="#999999" stroke-width="1" x1="670" x2="670" y1="1070" y2="70" /><line fill-opacity="0.3" stroke="#999999" stroke-width="1" x1="70" x2="1070" y1="470" y2="470" /><line fill-opacity="0.3" stroke="#999999" stroke-width="1" x1="570" x2="570" y1="1070" y2="70" /><line fill-opacity="0.3" stroke="#999999" stroke-width="1" x1="70" x2="1070" y1="570" y2="570" /><line fill-opacity="0.3" stroke="#999999" stroke-width="1" x1="470" x2="470" y1="1070" y2="70" /><line fill-opacity="0.3" stroke="#999999" stroke-width="1" x1="70" x2="1070" y1="670" y2="670" /><line fill-opacity="0.3" stroke="#999999" stroke-width="1" x1="370" x2="370" y1="1070" y2="70" /><line fill-opacity="0.3" stroke="#999999" stroke-width="1" x1="70" x2="1070" y1="770" y2="770" /><line fill-opacity="0.3" stroke="#999999" stroke-width="1" x1="270" x2="270" y1="1070" y2="70" /><line fill-opacity="0.3" stroke="#999999" stroke-width="1" x1="70" x2="1070" y1="870" y2="870" /><line fill-opacity="0.3" stroke="#999999" stroke-width="1" x1="170" x2="170" y1="1070" y2="70" /><line fill-opacity="0.3" stroke="#999999" stroke-width="1" x1="70" x2="1070" y1="970" y2="970" /><line fill-opacity="0.3" stroke="#000000" stroke-width="1" x1="70" x2="70" y1="1071" y2="69" /><line fill-opacity="0.3" stroke="#000000" stroke-width="1" x1="69" x2="1071" y1="1070" y2="1070" /></g><g class="textos"><text x="1050" y="1110">1000</text><text x="10" y="71">1000</text><text x="950" y="1110">900</text><text x="10" y="171">900</text><text x="850" y="1110">800</text><text x="10" y="271">800</text><text x="750" y="1110">700</text><text x="10" y="371">700</text><text x="650" y="1110">600</text><text x="10" y="471">600</text><text x="550" y="1110">500</text><text x="10" y="571">500</text><text x="450" y="1110">400</text><text x="10" y="671">400</text><text x="350" y="1110">300</text><text x="10" y="771">300</text><text x="250" y="1110">200</text><text x="10" y="871">200</text><text x="150" y="1110">100</text><text x="10" y="971">100</text><text x="50" y="1111">0</text><text x="9" y="1071">0</text></g><g class="especies"><g class="e0"><circle cx="1020" cy="1050" fill="#ff0000" r="3.5" stroke-width="0" /><circle cx="1036" cy="1050" fill="#ff0000" r="3.5" stroke-width="0" /><circle cx="998" cy="1049" fill="#ff0000" r="3.5" stroke-width="0" /><circle cx="1014" cy="1049" fill="#ff0000" r="3.5" stroke-width="0" /><circle cx="991" cy="1048" fill="#ff0000" r="3.5" stroke-width="0" /><circle cx="979" cy="1047" fill="#ff0000" r="3.5" stroke-width="0" /><circle cx="951" cy="1045" fill="#ff0000" r="3.5" stroke-width="0" /><circle cx="931" cy="1043" fill="#ff0000" r="3.5" stroke-width="0" /><circle cx="916" cy="1041" fill="#ff0000" r="3.5" stroke-width="0" /><circle cx="904" cy="1039" fill="#ff0000" r="3.5" stroke-width="0" /><circle cx="895" cy="1037" fill="#ff0000" r="3.5" stroke-width="0" /><circle cx="877" cy="1034" fill="#ff0000" r="3.5" stroke-width="0" /><circle cx="862" cy="1031" fill="#ff0000" r="3.5" stroke-width="0" /><circle cx="840" cy="1027" fill="#ff0000" r="3.5" stroke-width="0" /><circle cx="830" cy="1024" fill="#ff0000" r="3.5" stroke-width="0" /><circle cx="813" cy="1020" fill="#ff0000" r="3.5" stroke-width="0" /><circle cx="792" cy="1015" fill="#ff0000" r="3.5" stroke-width="0" /><circle cx="780" cy="1011" fill="#ff0000" r="3.5" stroke-width="0" /><circle cx="764" cy="1006" fill="#ff0000" r="3.5" stroke-width="0" /><circle cx="748" cy="1001" fill="#ff0000" r="3.5" stroke-width="0" /><circle cx="730" cy="995" fill="#ff0000" r="3.5" stroke-width="0" /><circle cx="712" cy="989" fill="#ff0000" r="3.5" stroke-width="0" /><circle cx="697" cy="983" fill="#ff0000" r="3.5" stroke-width="0" /><circle cx="684" cy="977" fill="#ff0000" r="3.5" stroke-width="0" /></g><g class="e1"><circle cx="667" cy="970" fill="#2b92db" r="3.5" stroke-width="0" /><circle cx="651" cy="963" fill="#2b92db" r="3.5" stroke-width="0" /><circle cx="633" cy="955" fill="#2b92db" r="3.5" stroke-width="0" /><circle cx="617" cy="947" fill="#2b92db" r="3.5" stroke-width="0" /><circle cx="601" cy="939" fill="#2b92db" r="3.5" stroke-width="0" /><circle cx="585" cy="930" fill="#2b92db" r="3.5" stroke-width="0" /><circle cx="569" cy="921" fill="#2b92db" r="3.5" stroke-width="0" /></g><g class="e2"><circle cx="554" cy="912" fill="#911eb4" r="3.5" stroke-width="0" /><circle cx="538" cy="902" fill="#911eb4" r="3.5" stroke-width="0" /><circle cx="523" cy="892" fill="#911eb4" r="3.5" stroke-width="0" /><circle cx="506" cy="881" fill="#911eb4" r="3.5" stroke-width="0" /><circle cx="491" cy="870" fill="#911eb4" r="3.5" stroke-width="0" /></g><g class="e3"><circle cx="474" cy="858" fill="#3cb44B" r="3.5" stroke-width="0" /><circle cx="458" cy="846" fill="#3cb44B" r="3.5" stroke-width="0" /><circle cx="442" cy="833" fill="#3cb44B" r="3.5" stroke-width="0" /><circle cx="427" cy="820" fill="#3cb44B" r="3.5" stroke-width="0" /></g><g class="e4"><circle cx="411" cy="806" fill="#ff0000" r="3.5" stroke-width="0" /><circle cx="394" cy="791" fill="#ff0000" r="3.5" stroke-width="0" /><circle cx="378" cy="776" fill="#ff0000" r="3.5" stroke-width="0" /></g><g class="e5"><circle cx="363" cy="761" fill="#2b92db" r="3.5" stroke-width="0" /><circle cx="348" cy="745" fill="#2b92db" r="3.5" stroke-width="0" /><circle cx="334" cy="729" fill="#2b92db" r="3.5" stroke-width="0" /></g><g class="e6"><circle cx="320" cy="713" fill="#911eb4" r="3.5" stroke-width="0" /><circle cx="306" cy="697" fill="#911eb4" r="3.5" stroke-width="0" /><circle cx="293" cy="681" fill="#911eb4" r="3.5" stroke-width="0" /><circle cx="281" cy="665" fill="#911eb4" r="3.5" stroke-width="0" /></g><g class="e7"><circle cx="270" cy="649" fill="#3cb44B" r="3.5" stroke-width="0" /><circle cx="258" cy="633" fill="#3cb44B" r="3.5" stroke-width="0" /><circle cx="248" cy="617" fill="#3cb44B" r="3.5" stroke-width="0" /><circle cx="237" cy="601" fill="#3cb44B" r="3.5" stroke-width="0" /></g><g class="e8"><circle cx="227" cy="585" fill="#ff0000" r="3.5" stroke-width="0" /><circle cx="218" cy="569" fill="#ff0000" r="3.5" stroke-width="0" /><circle cx="209" cy="553" fill="#ff0000" r="3.5" stroke-width="0" /><circle cx="200" cy="537" fill="#ff0000" r="3.5" stroke-width="0" /><circle cx="192" cy="521" fill="#ff0000" r="3.5" stroke-width="0" /><circle cx="184" cy="505" fill="#ff0000" r="3.5" stroke-width="0" /><circle cx="177" cy="489" fill="#ff0000" r="3.5" stroke-width="0" /><circle cx="170" cy="473" fill="#ff0000" r="3.5" stroke-width="0" /></g><g class="e9"><circle cx="163" cy="457" fill="#2b92db" r="3.5" stroke-width="0" /><circle cx="156" cy="441" fill="#2b92db" r="3.5" stroke-width="0" /><circle cx="150" cy="425" fill="#2b92db" r="3.5" stroke-width="0" /><circle cx="145" cy="409" fill="#2b92db" r="3.5" stroke-width="0" /><circle cx="139" cy="393" fill="#2b92db" r="3.5" stroke-width="0" /><circle cx="134" cy="377" fill="#2b92db" r="3.5" stroke-width="0" /><circle cx="129" cy="361" fill="#2b92db" r="3.5" stroke-width="0" /><circle cx="124" cy="345" fill="#2b92db" r="3.5" stroke-width="0" /><circle cx="120" cy="329" fill="#2b92db" r="3.5" stroke-width="0" /><circle cx="116" cy="313" fill="#2b92db" r="3.5" stroke-width="0" /><circle cx="113" cy="297" fill="#2b92db" r="3.5" stroke-width="0" /><circle cx="109" cy="281" fill="#2b92db" r="3.5" stroke-width="0" /><circle cx="106" cy="265" fill="#2b92db" r="3.5" stroke-width="0" /><circle cx="103" cy="249" fill="#2b92db" r="3.5" stroke-width="0" /><circle cx="101" cy="233" fill="#2b92db" r="3.5" stroke-width="0" /><circle cx="98" cy="217" fill="#2b92db" r="3.5" stroke-width="0" /><circle cx="96" cy="201" fill="#2b92db" r="3.5" stroke-width="0" /><circle cx="95" cy="185" fill="#2b92db" r="3.5" stroke-width="0" /><circle cx="93" cy="169" fill="#2b92db" r="3.5" stroke-width="0" /><circle cx="92" cy="153" fill="#2b92db" r="3.5" stroke-width="0" /><circle cx="91" cy="137" fill="#2b92db" r="3.5" stroke-width="0" /><circle cx="91" cy="121" fill="#2b92db" r="3.5" stroke-width="0" /><circle cx="90" cy="105" fill="#2b92db" r="3.5" stroke-width="0" /></g></g></g></svg>